<svg viewBox="0 0 402 402" fill="none" xmlns="http://www.w3.org/2000/svg">
<path d="M239.887 117.618L312.801 46.3623L365.643 255.457L292.729 326.713L239.887 117.618Z" fill="#1D1E1E"/>
<path d="M292.73 326.958C292.707 326.958 292.685 326.955 292.663 326.949C292.579 326.925 292.513 326.858 292.492 326.773L239.649 117.678C239.628 117.593 239.653 117.503 239.716 117.442L312.63 46.1863C312.693 46.1246 312.783 46.1017 312.868 46.1253C312.953 46.1494 313.018 46.2165 313.04 46.3018L365.883 255.396C365.904 255.481 365.879 255.571 365.816 255.632L292.902 326.888C292.855 326.934 292.793 326.958 292.73 326.958ZM240.16 117.695L292.863 326.238L365.371 255.38L312.667 46.8363L240.16 117.695Z" fill="white"/>
<path d="M36.1357 146.347L109.05 75.0909L312.801 46.3623L239.887 117.618L36.1357 146.347Z" fill="white"/>
<path d="M36.1352 146.592C36.0426 146.592 35.9563 146.54 35.9148 146.455C35.8681 146.36 35.8877 146.245 35.9634 146.171L108.878 74.9149C108.915 74.8782 108.963 74.8546 109.015 74.8473L312.766 46.1185C312.873 46.1042 312.974 46.1583 313.021 46.2534C313.068 46.3488 313.048 46.4633 312.972 46.5375L240.058 117.793C240.021 117.83 239.973 117.854 239.921 117.861L36.1696 146.59C36.1581 146.592 36.1465 146.592 36.1352 146.592ZM109.163 75.3228L36.843 145.999L239.772 117.386L312.093 46.71L109.163 75.3228Z" fill="#1D1E1E"/>
<path d="M239.887 117.619L277.802 267.647L278.726 271.303L279.027 272.494L292.729 326.711L259.99 331.328L257.145 331.728L255.25 331.995L149.553 346.899L149.52 346.905L144.813 347.567L88.9788 355.44L36.1357 146.345L90.9941 138.61L95.7133 137.945L239.887 117.619Z" fill="#F45100"/>
<path d="M88.9783 355.686C88.8674 355.686 88.7682 355.611 88.7401 355.501L35.8971 146.406C35.8801 146.338 35.8924 146.266 35.9315 146.208C35.9706 146.15 36.032 146.112 36.1011 146.102L95.6786 137.702L239.852 117.375C239.975 117.356 240.094 117.437 240.125 117.558L278.04 267.586L292.967 326.651C292.984 326.718 292.972 326.79 292.933 326.848C292.894 326.906 292.832 326.945 292.763 326.954L89.0127 355.684C89.0014 355.685 88.9898 355.686 88.9783 355.686ZM36.4407 146.551L89.1626 355.166L144.778 347.324L149.51 346.657L292.424 326.506L277.563 267.707L239.703 117.893L91.0282 138.854L36.4407 146.551Z" fill="white"/>
<path d="M36.1357 146.347L109.05 75.0909L312.801 46.3623L239.887 117.618L36.1357 146.347Z" fill="white"/>
<path d="M36.1352 146.592C36.0426 146.592 35.9563 146.54 35.9148 146.455C35.8681 146.36 35.8877 146.245 35.9634 146.171L108.878 74.9149C108.915 74.8782 108.963 74.8546 109.015 74.8473L312.766 46.1185C312.873 46.1042 312.974 46.1583 313.021 46.2534C313.068 46.3488 313.048 46.4633 312.972 46.5375L240.058 117.793C240.021 117.83 239.973 117.854 239.921 117.861L36.1696 146.59C36.1581 146.592 36.1465 146.592 36.1352 146.592ZM109.163 75.3228L36.843 145.999L239.772 117.386L312.093 46.71L109.163 75.3228Z" fill="#1D1E1E"/>
<path d="M338.896 149.619L305.319 182.5L304.594 181.762L338.604 148.456L338.896 149.619Z" fill="#F45100"/>
<path d="M305.319 182.746C305.255 182.746 305.191 182.721 305.143 182.672L304.418 181.934C304.372 181.888 304.347 181.825 304.348 181.759C304.348 181.694 304.375 181.632 304.422 181.586L338.432 148.281C338.495 148.219 338.585 148.196 338.67 148.22C338.755 148.244 338.82 148.311 338.842 148.396L339.135 149.559C339.156 149.644 339.131 149.734 339.068 149.795L305.49 182.675C305.443 182.723 305.381 182.746 305.319 182.746ZM304.941 181.765L305.322 182.153L338.623 149.543L338.47 148.931L304.941 181.765Z" fill="#F45100"/>
<path d="M167.411 66.8604L94.5966 138.103L94.5941 138.105L93.2109 138.299V138.297L165.681 67.1039L167.411 66.8604Z" fill="#F45100"/>
<path d="M93.2106 138.546C93.1519 138.546 93.0944 138.525 93.0494 138.485C92.9956 138.439 92.9648 138.371 92.9648 138.3C92.9648 138.234 92.9911 138.168 93.0383 138.122L165.508 66.9289C165.546 66.892 165.594 66.8682 165.647 66.8608L167.377 66.6173C167.485 66.602 167.585 66.6568 167.632 66.7522C167.679 66.8476 167.659 66.9621 167.583 67.0363L94.7685 138.279C94.7312 138.315 94.6803 138.342 94.6284 138.349L93.2453 138.543C93.2332 138.545 93.2219 138.546 93.2106 138.546ZM165.795 67.3361L93.9115 137.953L94.4798 137.873L166.705 67.2084L165.795 67.3361Z" fill="#F45100"/>
<path d="M192.112 225.125L204.908 275.306L204.335 275.386L131.86 285.548L147.588 347.178L146.555 347.323L130.526 284.688L130.57 284.683L93.2109 138.3L94.5941 138.105L131.601 284.538L203.618 274.441L190.964 224.82L180.575 184.062L181.578 183.808L191.856 224.115L233.574 218.266L233.719 219.292L192.112 225.125Z" fill="#1D1E1E"/>
<path d="M146.554 347.569C146.443 347.569 146.344 347.494 146.316 347.384L130.288 284.749C130.275 284.7 130.278 284.649 130.296 284.602L92.9725 138.361C92.9553 138.293 92.9673 138.221 93.0066 138.163C93.0455 138.105 93.1072 138.066 93.1762 138.056L94.5597 137.862C94.6828 137.844 94.8015 137.924 94.832 138.045L131.785 284.263L203.311 274.236L190.726 224.88L180.337 184.122C180.321 184.059 180.33 183.992 180.363 183.936C180.397 183.88 180.451 183.839 180.514 183.823L181.516 183.569C181.648 183.537 181.781 183.616 181.815 183.747L192.039 223.841L233.539 218.023C233.674 218.004 233.798 218.098 233.817 218.232L233.962 219.257C233.971 219.322 233.955 219.388 233.915 219.44C233.876 219.492 233.818 219.526 233.753 219.535L192.418 225.33L205.146 275.246C205.163 275.313 205.151 275.385 205.111 275.444C205.073 275.501 205.011 275.54 204.942 275.55L132.166 285.754L147.826 347.118C147.843 347.185 147.831 347.257 147.792 347.315C147.753 347.373 147.691 347.412 147.622 347.422L146.588 347.567C146.577 347.568 146.565 347.569 146.554 347.569ZM130.8 284.769L146.738 347.049L147.282 346.973L131.622 285.608C131.604 285.541 131.617 285.469 131.656 285.411C131.695 285.353 131.756 285.314 131.826 285.304L204.602 275.1L191.874 225.185C191.856 225.118 191.869 225.046 191.908 224.987C191.947 224.93 192.008 224.891 192.078 224.881L233.441 219.082L233.365 218.543L191.889 224.357C191.765 224.376 191.648 224.296 191.617 224.175L181.4 184.106L180.874 184.239L191.202 224.758L203.856 274.379C203.873 274.447 203.861 274.519 203.821 274.577C203.783 274.635 203.721 274.674 203.652 274.684L131.635 284.78C131.509 284.799 131.393 284.719 131.362 284.597L94.4095 138.379L93.5166 138.504L130.808 284.621C130.82 284.671 130.818 284.722 130.8 284.769Z" fill="#1D1E1E"/>
<path d="M240.798 274.865L255.358 331.981L255.249 331.996L254.327 332.126L239.508 274L278.043 268.597L278.297 269.607L240.798 274.865Z" fill="#1D1E1E"/>
<path d="M254.327 332.372C254.216 332.372 254.117 332.297 254.089 332.187L239.27 274.061C239.253 273.994 239.265 273.922 239.304 273.864C239.343 273.806 239.405 273.767 239.474 273.757L278.01 268.354C278.135 268.337 278.251 268.415 278.282 268.537L278.536 269.547C278.553 269.615 278.54 269.687 278.501 269.745C278.462 269.802 278.401 269.841 278.331 269.851L241.104 275.071L255.596 331.92C255.613 331.988 255.601 332.059 255.562 332.118C255.523 332.176 255.461 332.214 255.392 332.224L254.361 332.369C254.35 332.371 254.338 332.372 254.327 332.372ZM239.814 274.206L254.511 331.852L255.052 331.776L240.56 274.927C240.543 274.859 240.555 274.787 240.594 274.729C240.633 274.671 240.695 274.632 240.764 274.622L277.993 269.402L277.859 268.871L239.814 274.206Z" fill="#1D1E1E"/>
<path d="M334.006 215.282L278.297 269.608L278.043 268.598L333.28 214.542L334.006 215.282Z" fill="#F45100"/>
<path d="M278.297 269.853C278.275 269.853 278.252 269.85 278.23 269.844C278.146 269.82 278.081 269.753 278.059 269.668L277.805 268.657C277.784 268.573 277.809 268.483 277.872 268.422L333.109 214.366C333.207 214.271 333.362 214.273 333.457 214.37L334.182 215.111C334.227 215.157 334.253 215.22 334.252 215.285C334.251 215.351 334.225 215.413 334.178 215.459L278.469 269.784C278.422 269.829 278.36 269.853 278.297 269.853ZM278.316 268.674L278.432 269.133L333.658 215.278L333.277 214.889L278.316 268.674Z" fill="#F45100"/>
<path d="M326.24 99.5393L307.65 117.733L294.025 64.7108L295.066 63.6929L308.212 115.703L325.945 98.3712L326.24 99.5393Z" fill="#F45100"/>
<path d="M307.65 117.979C307.628 117.979 307.606 117.976 307.584 117.97C307.499 117.946 307.434 117.879 307.412 117.794L293.787 64.7717C293.765 64.6864 293.79 64.5962 293.853 64.5348L294.895 63.5168C294.958 63.4548 295.048 63.4325 295.133 63.4558C295.218 63.4799 295.283 63.547 295.305 63.6323L308.346 115.228L325.773 98.1951C325.836 98.1334 325.926 98.1106 326.012 98.1342C326.096 98.1583 326.162 98.2253 326.183 98.3106L326.479 99.479C326.5 99.564 326.475 99.6538 326.412 99.7149L307.822 117.909C307.775 117.954 307.713 117.979 307.65 117.979ZM294.299 64.7869L307.782 117.26L325.967 99.4623L325.811 98.8449L308.384 115.878C308.321 115.939 308.23 115.962 308.145 115.939C308.061 115.915 307.995 115.848 307.974 115.762L294.933 64.1666L294.299 64.7869Z" fill="#F45100"/>
<path d="M222.939 73.7784L240.57 56.5464L238.839 56.7897H238.837L221.208 74.0205L144.981 84.6789L145.127 85.7048L294.025 64.7108L295.066 63.6928L222.939 73.7784Z" fill="#F45100"/>
<path d="M145.127 85.9505C145.007 85.9505 144.901 85.862 144.884 85.7393L144.739 84.7135C144.73 84.6486 144.747 84.5832 144.786 84.5311C144.825 84.479 144.883 84.4444 144.948 84.4355L221.094 73.7879L238.666 56.6139C238.706 56.5741 238.76 56.5495 238.816 56.5448L240.536 56.303C240.642 56.289 240.744 56.343 240.791 56.4379C240.837 56.5333 240.818 56.6478 240.742 56.722L223.646 73.4313L295.033 63.4494C295.138 63.4325 295.241 63.489 295.287 63.5846C295.334 63.6799 295.314 63.7945 295.239 63.8684L294.197 64.8864C294.16 64.923 294.112 64.9469 294.06 64.954L145.161 85.9482C145.15 85.9497 145.138 85.9505 145.127 85.9505ZM145.26 84.888L145.336 85.4267L293.911 64.4782L294.36 64.0395L222.973 74.0214C222.867 74.0366 222.765 73.9816 222.719 73.8862C222.672 73.7908 222.692 73.6763 222.767 73.6023L239.863 56.8938L238.951 57.0218L221.38 74.1956C221.343 74.2322 221.294 74.2561 221.242 74.2632L145.26 84.888Z" fill="#F45100"/>
<path d="M185.837 182.013C186.562 184.834 184.915 187.436 182.157 187.825C179.4 188.214 176.575 186.244 175.848 183.423C175.12 180.601 176.767 177.996 179.526 177.607C182.286 177.217 185.111 179.191 185.837 182.013Z" fill="white"/>
<path d="M181.462 188.12C178.835 188.12 176.302 186.169 175.61 183.485C175.228 182.007 175.451 180.547 176.235 179.374C176.972 178.27 178.129 177.556 179.492 177.363C182.363 176.959 185.32 179.016 186.075 181.952C186.454 183.429 186.232 184.887 185.447 186.06C184.709 187.163 183.553 187.877 182.191 188.069C181.949 188.103 181.704 188.12 181.462 188.12ZM180.227 177.803C180.005 177.803 179.782 177.819 179.56 177.85C178.338 178.022 177.302 178.66 176.643 179.647C175.938 180.703 175.74 182.022 176.086 183.362C176.781 186.06 179.489 187.953 182.123 187.582C183.344 187.41 184.38 186.772 185.039 185.787C185.744 184.732 185.943 183.414 185.598 182.074C184.963 179.601 182.638 177.803 180.227 177.803Z" fill="#1D1E1E"/>
<path d="M154.866 83.9949C153.661 85.1709 149.96 86.5074 146.599 86.98C143.24 87.4523 141.495 86.8824 142.7 85.7069C143.904 84.5316 147.603 83.1956 150.962 82.7225C154.322 82.2497 156.07 82.8191 154.866 83.9949Z" fill="#F45100"/>
<path d="M144.475 87.391C143.431 87.391 142.418 87.234 142.142 86.6714C142.026 86.4362 142 86.0474 142.529 85.5311C143.763 84.3266 147.531 82.9574 150.929 82.4794C152.117 82.3118 154.933 82.0308 155.424 83.0304C155.54 83.2656 155.567 83.6544 155.038 84.1707C153.804 85.3755 150.034 86.7452 146.635 87.2234C146.115 87.2964 145.286 87.391 144.475 87.391ZM153.063 82.8028C152.507 82.8028 151.823 82.8497 150.997 82.9662C147.688 83.4322 144.043 84.7407 142.872 85.883C142.756 85.9961 142.496 86.2777 142.583 86.4549C142.738 86.7715 143.928 87.1077 146.566 86.7366C149.877 86.2706 153.524 84.9616 154.695 83.8188C154.81 83.706 155.07 83.4241 154.983 83.2471C154.876 83.0296 154.281 82.8028 153.063 82.8028Z" fill="white"/>
<path d="M119.112 218.012C119.838 220.834 118.19 223.435 115.433 223.824C112.675 224.213 109.851 222.243 109.123 219.422C108.395 216.6 110.042 213.995 112.802 213.606C115.561 213.216 118.387 215.19 119.112 218.012Z" fill="white"/>
<path d="M114.737 224.119C112.11 224.119 109.578 222.168 108.885 219.484C108.504 218.006 108.726 216.546 109.51 215.373C110.248 214.268 111.404 213.554 112.767 213.362C115.641 212.956 118.595 215.015 119.35 217.951C119.73 219.427 119.507 220.886 118.723 222.059C117.985 223.162 116.829 223.875 115.467 224.067C115.224 224.102 114.98 224.119 114.737 224.119ZM113.503 213.802C113.281 213.802 113.058 213.818 112.836 213.849C111.613 214.021 110.577 214.659 109.919 215.646C109.213 216.701 109.015 218.021 109.361 219.361C110.057 222.059 112.763 223.952 115.398 223.581C116.619 223.409 117.655 222.771 118.314 221.785C119.019 220.731 119.218 219.413 118.874 218.073C118.238 215.6 115.913 213.802 113.503 213.802Z" fill="#1D1E1E"/>
<path d="M239.56 217.753C240.285 220.574 238.637 223.176 235.88 223.565C233.123 223.954 230.298 221.984 229.571 219.163C228.843 216.341 230.489 213.736 233.249 213.346C236.008 212.957 238.834 214.93 239.56 217.753Z" fill="white"/>
<path d="M235.184 223.859C232.557 223.859 230.025 221.909 229.332 219.224C228.951 217.747 229.173 216.287 229.957 215.113C230.695 214.009 231.852 213.295 233.214 213.103C236.087 212.697 239.042 214.756 239.797 217.692C240.177 219.168 239.954 220.627 239.17 221.799C238.432 222.903 237.276 223.616 235.914 223.808C235.671 223.843 235.427 223.859 235.184 223.859ZM233.95 213.543C233.728 213.543 233.505 213.558 233.283 213.59C232.06 213.762 231.025 214.4 230.366 215.386C229.661 216.442 229.462 217.762 229.808 219.102C230.504 221.8 233.211 223.693 235.845 223.322C237.066 223.149 238.102 222.512 238.761 221.526C239.466 220.472 239.665 219.153 239.321 217.814C238.685 215.341 236.361 213.543 233.95 213.543Z" fill="#1D1E1E"/>
<path d="M36.1352 146.592C36.0426 146.592 35.9563 146.54 35.9148 146.455C35.8681 146.36 35.8877 146.245 35.9634 146.171L108.878 74.9149C108.915 74.8782 108.963 74.8546 109.015 74.8473L312.766 46.1185C312.873 46.1042 312.974 46.1583 313.021 46.2534C313.068 46.3488 313.048 46.4633 312.972 46.5375L240.058 117.793C240.021 117.83 239.973 117.854 239.921 117.861L36.1696 146.59C36.1581 146.592 36.1465 146.592 36.1352 146.592ZM109.163 75.3228L36.843 145.999L239.772 117.386L312.093 46.71L109.163 75.3228Z" fill="#1D1E1E"/>
<path d="M292.73 326.958C292.707 326.958 292.685 326.955 292.663 326.949C292.579 326.925 292.513 326.858 292.492 326.773L239.649 117.678C239.628 117.593 239.653 117.503 239.716 117.442L312.63 46.1863C312.693 46.1246 312.783 46.1017 312.868 46.1253C312.953 46.1494 313.018 46.2165 313.04 46.3018L365.883 255.396C365.904 255.481 365.879 255.571 365.816 255.632L292.902 326.888C292.855 326.934 292.793 326.958 292.73 326.958ZM240.16 117.695L292.863 326.238L365.371 255.38L312.667 46.8363L240.16 117.695Z" fill="white"/>
<path d="M88.9783 355.686C88.8674 355.686 88.7682 355.611 88.7401 355.501L35.8971 146.406C35.8801 146.338 35.8924 146.266 35.9315 146.208C35.9706 146.15 36.032 146.112 36.1011 146.102L95.6786 137.702L239.852 117.375C239.975 117.356 240.094 117.437 240.125 117.558L278.04 267.586L292.967 326.651C292.984 326.718 292.972 326.79 292.933 326.848C292.894 326.906 292.832 326.945 292.763 326.954L89.0127 355.684C89.0014 355.685 88.9898 355.686 88.9783 355.686ZM36.4407 146.551L89.1626 355.166L144.778 347.324L149.51 346.657L292.424 326.506L277.563 267.707L239.703 117.893L91.0282 138.854L36.4407 146.551Z" fill="white"/>
<path d="M305.492 181.849C306.385 185.381 306.11 189.22 304.878 190.425C303.645 191.63 301.922 189.744 301.028 186.213C300.134 182.681 300.409 178.841 301.642 177.636C302.875 176.431 304.598 178.317 305.492 181.849Z" fill="#F45100"/>
<path d="M304.072 191.035C303.951 191.035 303.828 191.018 303.703 190.983C302.56 190.661 301.444 188.857 300.79 186.274C299.863 182.611 300.162 178.74 301.47 177.461C301.866 177.074 302.331 176.941 302.817 177.079C303.961 177.401 305.077 179.206 305.73 181.789C306.657 185.452 306.358 189.322 305.05 190.601C304.756 190.889 304.423 191.035 304.072 191.035ZM302.449 177.518C302.224 177.518 302.015 177.615 301.814 177.812C300.659 178.941 300.408 182.761 301.266 186.153C301.868 188.529 302.877 190.239 303.836 190.51C304.151 190.598 304.436 190.514 304.706 190.25C305.861 189.121 306.112 185.301 305.254 181.909C304.653 179.532 303.644 177.822 302.684 177.552C302.603 177.529 302.525 177.518 302.449 177.518Z" fill="white"/>
<path d="M335.457 211.827C336.35 215.358 336.075 219.198 334.842 220.403C333.61 221.607 331.886 219.722 330.993 216.19C330.099 212.659 330.374 208.819 331.607 207.613C332.839 206.408 334.563 208.295 335.457 211.827Z" fill="#F45100"/>
<path d="M334.036 221.012C333.915 221.012 333.791 220.995 333.667 220.96C332.524 220.638 331.408 218.834 330.754 216.251C329.827 212.588 330.126 208.717 331.434 207.438C331.83 207.051 332.294 206.919 332.781 207.056C333.924 207.378 335.041 209.183 335.694 211.766C336.621 215.429 336.322 219.3 335.013 220.578C334.72 220.866 334.387 221.012 334.036 221.012ZM332.413 207.495C332.189 207.495 331.979 207.592 331.778 207.789C330.623 208.918 330.372 212.738 331.231 216.13C331.832 218.506 332.841 220.216 333.8 220.487C334.114 220.575 334.4 220.49 334.67 220.227C335.825 219.098 336.076 215.278 335.218 211.886C334.617 209.51 333.607 207.799 332.648 207.529C332.568 207.506 332.489 207.495 332.413 207.495Z" fill="white"/>
</svg>
