<svg viewBox="0 0 402 402" fill="none" xmlns="http://www.w3.org/2000/svg">
<g clip-path="url(#clip0_615_73222)">
<path d="M375.483 319.104L372.214 325.78C372.135 326.002 372.021 326.214 371.898 326.416L371.888 326.443C371.598 326.91 371.205 327.305 370.739 327.596C370.272 327.888 369.745 328.069 369.198 328.125L338.248 331.331C337.797 331.38 337.341 331.338 336.906 331.208C336.853 331.197 336.799 331.178 336.746 331.158L340.37 323.74C340.861 323.909 341.383 323.968 341.899 323.913L372.84 320.707C373.982 320.59 374.917 319.974 375.483 319.104Z" fill="#1D1E1E"/>
<path d="M337.879 331.774C337.515 331.774 337.152 331.722 336.803 331.618C336.735 331.602 336.668 331.581 336.603 331.556C336.547 331.536 336.496 331.504 336.454 331.462C336.411 331.421 336.378 331.371 336.355 331.316C336.333 331.262 336.323 331.202 336.324 331.143C336.326 331.084 336.34 331.026 336.366 330.972L339.991 323.554C340.036 323.461 340.114 323.388 340.209 323.348C340.305 323.309 340.411 323.306 340.509 323.339C340.941 323.489 341.401 323.541 341.856 323.492L372.797 320.285C373.759 320.187 374.609 319.672 375.129 318.873C375.187 318.782 375.278 318.717 375.384 318.691C375.489 318.665 375.6 318.68 375.694 318.734C375.788 318.787 375.858 318.875 375.89 318.978C375.922 319.081 375.912 319.193 375.864 319.29L372.606 325.946C372.518 326.176 372.408 326.398 372.278 326.608C372.27 326.628 372.26 326.648 372.249 326.667C371.925 327.188 371.485 327.629 370.965 327.954C370.444 328.28 369.856 328.482 369.245 328.546L338.293 331.752C338.156 331.767 338.017 331.774 337.879 331.774ZM337.354 330.88C337.634 330.931 337.92 330.941 338.203 330.91L369.155 327.704C369.632 327.654 370.092 327.497 370.5 327.245C370.908 326.993 371.253 326.652 371.511 326.247C371.52 326.228 371.529 326.208 371.537 326.195C371.668 325.98 371.757 325.803 371.815 325.638C371.821 325.623 371.827 325.608 371.834 325.594L374.198 320.765C373.784 320.959 373.339 321.082 372.884 321.128L341.943 324.334C341.492 324.383 341.036 324.353 340.595 324.246L337.354 330.88Z" fill="white"/>
<path d="M333.017 318.818C333.231 319.159 333.515 319.449 333.852 319.669L339.575 323.356C339.823 323.517 340.09 323.646 340.371 323.74L336.746 331.158C336.459 331.069 336.185 330.94 335.933 330.774L329.207 326.438L333.017 318.819L333.017 318.818Z" fill="#1D1E1E"/>
<path d="M336.746 331.581C336.704 331.581 336.661 331.575 336.619 331.562C336.293 331.461 335.983 331.314 335.698 331.127L328.977 326.794C328.89 326.737 328.826 326.65 328.798 326.549C328.771 326.449 328.781 326.342 328.828 326.248L332.638 318.629C332.671 318.562 332.722 318.505 332.785 318.464C332.848 318.423 332.921 318.399 332.996 318.396C333.071 318.392 333.145 318.408 333.212 318.443C333.279 318.478 333.335 318.529 333.375 318.593C333.556 318.881 333.797 319.128 334.082 319.315L339.805 323C340.022 323.142 340.256 323.255 340.502 323.338C340.559 323.356 340.613 323.387 340.657 323.428C340.702 323.469 340.737 323.519 340.761 323.575C340.785 323.631 340.796 323.691 340.794 323.752C340.793 323.812 340.778 323.872 340.751 323.926L337.127 331.345C337.092 331.416 337.038 331.476 336.97 331.518C336.903 331.56 336.826 331.582 336.746 331.582V331.581ZM329.755 326.287L336.163 330.418C336.28 330.496 336.404 330.565 336.535 330.624L339.791 323.961C339.637 323.887 339.488 323.804 339.344 323.711L333.622 320.025C333.433 319.902 333.258 319.76 333.1 319.599L329.755 326.287Z" fill="white"/>
<path d="M329.446 301.444C329.823 301.698 330.107 302.11 330.18 302.615L332.653 317.838C332.713 318.19 332.838 318.526 333.017 318.818L329.207 326.437L326.538 310.032C326.501 309.787 326.411 309.551 326.275 309.343C326.14 309.135 325.961 308.958 325.751 308.824L329.446 301.444Z" fill="#1D1E1E"/>
<path d="M329.208 326.86C329.107 326.86 329.01 326.825 328.933 326.76C328.857 326.695 328.806 326.604 328.79 326.505L326.121 310.1C326.093 309.914 326.025 309.735 325.923 309.577C325.82 309.419 325.685 309.284 325.526 309.182C325.437 309.126 325.372 309.039 325.344 308.938C325.315 308.837 325.326 308.728 325.373 308.634L329.068 301.254C329.095 301.2 329.133 301.152 329.18 301.114C329.227 301.076 329.281 301.049 329.339 301.033C329.398 301.018 329.459 301.015 329.518 301.026C329.577 301.036 329.634 301.058 329.684 301.092C329.93 301.259 330.138 301.474 330.296 301.726C330.454 301.977 330.558 302.259 330.601 302.553L333.072 317.77C333.123 318.065 333.23 318.353 333.38 318.597C333.417 318.658 333.438 318.728 333.441 318.8C333.444 318.872 333.429 318.943 333.397 319.007L329.587 326.626C329.515 326.771 329.367 326.86 329.208 326.86ZM326.286 308.703C326.645 309.037 326.882 309.482 326.957 309.967L329.415 325.075L332.539 318.829C332.393 318.539 332.291 318.23 332.236 317.911L329.763 302.683C329.736 302.494 329.668 302.314 329.564 302.155L326.286 308.703Z" fill="white"/>
<path d="M329.446 301.444L325.751 308.824C325.339 308.551 324.821 308.445 324.305 308.591L308.246 312.937L312.075 305.282C312.4 305.319 312.73 305.293 313.046 305.206L327.947 301.173C328.201 301.101 328.468 301.089 328.727 301.136C328.987 301.183 329.233 301.288 329.446 301.444Z" fill="#1D1E1E"/>
<path d="M308.247 313.361C308.175 313.361 308.104 313.342 308.04 313.307C307.977 313.272 307.924 313.221 307.886 313.16C307.848 313.098 307.827 313.028 307.824 312.956C307.82 312.884 307.836 312.812 307.868 312.748L311.697 305.093C311.735 305.015 311.797 304.95 311.874 304.909C311.951 304.867 312.038 304.851 312.125 304.862C312.397 304.892 312.672 304.87 312.936 304.796L327.838 300.763C328.488 300.587 329.165 300.71 329.698 301.102C329.779 301.161 329.836 301.247 329.859 301.344C329.883 301.441 329.871 301.543 329.826 301.632L326.131 309.013C326.104 309.067 326.066 309.114 326.02 309.152C325.973 309.19 325.919 309.217 325.861 309.233C325.803 309.248 325.743 309.251 325.684 309.242C325.624 309.232 325.568 309.21 325.518 309.177C325.184 308.956 324.795 308.893 324.421 308.998L308.358 313.346C308.322 313.356 308.284 313.361 308.247 313.361ZM312.329 305.722L309.048 312.281L324.195 308.181C324.647 308.056 325.127 308.081 325.564 308.252L328.886 301.616C328.621 301.517 328.331 301.505 328.059 301.581L313.157 305.614C312.882 305.689 312.619 305.732 312.329 305.722Z" fill="white"/>
<path d="M283.116 286.842C283.289 287.054 283.498 287.239 283.736 287.39L310.877 304.878C311.24 305.104 311.65 305.242 312.076 305.283L308.247 312.938L279.082 294.158L283.116 286.842Z" fill="#1D1E1E"/>
<path d="M308.247 313.361C308.166 313.361 308.086 313.338 308.017 313.294L278.852 294.514C278.762 294.456 278.697 294.366 278.671 294.261C278.645 294.157 278.659 294.047 278.711 293.953L282.745 286.637C282.778 286.577 282.826 286.525 282.884 286.487C282.942 286.449 283.008 286.426 283.077 286.42C283.146 286.414 283.216 286.425 283.28 286.452C283.343 286.478 283.4 286.52 283.444 286.574C283.59 286.753 283.764 286.907 283.962 287.033L311.106 304.522C311.412 304.711 311.757 304.828 312.115 304.861C312.184 304.868 312.25 304.891 312.307 304.928C312.365 304.966 312.413 305.017 312.446 305.077C312.479 305.137 312.498 305.205 312.499 305.274C312.5 305.342 312.485 305.411 312.454 305.472L308.626 313.127C308.59 313.197 308.536 313.257 308.469 313.298C308.402 313.339 308.326 313.361 308.247 313.361ZM279.644 294.016L308.079 312.326L311.447 305.592C311.167 305.511 310.899 305.391 310.652 305.237L283.505 287.747C283.405 287.683 283.308 287.613 283.216 287.538L279.643 294.016L279.644 294.016Z" fill="white"/>
<path d="M279.286 269.137C279.492 269.269 279.668 269.444 279.802 269.649C279.937 269.854 280.026 270.085 280.065 270.327L282.537 285.559C282.612 286.031 282.811 286.474 283.116 286.841L279.082 294.158L276.423 277.744C276.383 277.498 276.292 277.263 276.154 277.055C276.017 276.846 275.837 276.67 275.627 276.536L279.286 269.136L279.286 269.137Z" fill="#1D1E1E"/>
<path d="M279.082 294.581C278.981 294.581 278.884 294.546 278.807 294.48C278.731 294.415 278.68 294.325 278.664 294.225L276.005 277.812C275.974 277.625 275.904 277.446 275.8 277.288C275.695 277.129 275.558 276.994 275.398 276.892C275.31 276.836 275.246 276.749 275.219 276.649C275.191 276.549 275.201 276.441 275.247 276.348L278.906 268.948C278.933 268.895 278.971 268.848 279.017 268.81C279.063 268.772 279.116 268.744 279.173 268.728C279.231 268.712 279.291 268.709 279.35 268.718C279.409 268.726 279.465 268.748 279.516 268.78C279.772 268.944 279.99 269.161 280.157 269.416C280.324 269.671 280.435 269.958 280.483 270.259L282.956 285.49C283.017 285.888 283.186 286.262 283.443 286.572C283.554 286.706 283.571 286.893 283.488 287.045L279.454 294.361C279.417 294.428 279.363 294.483 279.298 294.521C279.233 294.56 279.158 294.58 279.083 294.58L279.082 294.581ZM276.16 276.414C276.522 276.747 276.762 277.192 276.841 277.678L279.303 292.878L282.613 286.876C282.358 286.5 282.189 286.073 282.118 285.625L279.646 270.394C279.613 270.191 279.534 269.999 279.414 269.832L276.159 276.413L276.16 276.414Z" fill="white"/>
<path d="M279.285 269.136L275.626 276.536C275.415 276.396 275.178 276.303 274.928 276.263C274.679 276.223 274.424 276.236 274.18 276.302L258.12 280.658L261.949 272.994H261.959C262.281 273.039 262.608 273.016 262.921 272.926L277.822 268.884C278.07 268.818 278.329 268.807 278.581 268.851C278.834 268.894 279.074 268.992 279.285 269.136Z" fill="#1D1E1E"/>
<path d="M258.121 281.081C258.049 281.081 257.978 281.063 257.915 281.028C257.851 280.993 257.798 280.942 257.76 280.881C257.722 280.819 257.701 280.749 257.698 280.677C257.694 280.605 257.71 280.533 257.742 280.469L261.571 272.805C261.645 272.659 261.802 272.561 261.96 272.571C261.977 272.571 262.003 272.573 262.02 272.575C262.283 272.611 262.551 272.592 262.807 272.519L277.712 268.476C278.019 268.395 278.339 268.381 278.652 268.435C278.965 268.489 279.263 268.609 279.525 268.787C279.609 268.845 279.67 268.931 279.696 269.03C279.722 269.128 279.711 269.233 279.666 269.325L276.006 276.724C275.979 276.778 275.941 276.826 275.895 276.864C275.848 276.902 275.793 276.93 275.735 276.946C275.677 276.961 275.615 276.964 275.556 276.954C275.496 276.944 275.44 276.921 275.39 276.887C275.074 276.675 274.674 276.61 274.288 276.712L258.232 281.067C258.196 281.077 258.158 281.082 258.121 281.082V281.081ZM262.201 273.44L258.922 280.002L274.069 275.894C274.521 275.773 275 275.797 275.437 275.963L278.721 269.323C278.465 269.237 278.189 269.227 277.928 269.295L263.031 273.335C262.756 273.412 262.477 273.447 262.201 273.44V273.44Z" fill="white"/>
<path d="M232.785 254.25C232.993 254.595 233.275 254.889 233.61 255.11L260.761 272.589C261.122 272.816 261.53 272.963 261.95 272.994L258.121 280.657L229.968 262.528C229.611 262.292 229.313 261.975 229.1 261.604L232.785 254.25L232.785 254.25Z" fill="#1D1E1E"/>
<path d="M258.122 281.081C258.041 281.081 257.961 281.058 257.892 281.014L229.739 262.885C229.326 262.611 228.982 262.246 228.734 261.818C228.699 261.757 228.679 261.688 228.677 261.618C228.675 261.548 228.69 261.478 228.722 261.415L232.406 254.061C232.44 253.993 232.492 253.936 232.555 253.895C232.619 253.854 232.692 253.83 232.768 253.827C232.844 253.823 232.92 253.84 232.987 253.876C233.053 253.912 233.109 253.965 233.148 254.031C233.323 254.322 233.561 254.57 233.844 254.757L260.991 272.233C261.304 272.429 261.648 272.547 261.982 272.571C262.052 272.576 262.119 272.598 262.177 272.636C262.236 272.673 262.285 272.724 262.319 272.784C262.354 272.845 262.373 272.913 262.374 272.982C262.376 273.052 262.361 273.12 262.33 273.183L258.501 280.846C258.465 280.916 258.411 280.976 258.344 281.017C258.277 281.058 258.2 281.08 258.122 281.081V281.081ZM229.587 261.579C229.752 261.814 229.96 262.016 230.199 262.174L257.953 280.046L261.321 273.305C261.044 273.222 260.78 273.102 260.536 272.948L233.381 255.466C233.194 255.343 233.02 255.2 232.863 255.04L229.587 261.579Z" fill="white"/>
<path d="M229.143 236.83C229.355 236.964 229.535 237.143 229.673 237.353C229.81 237.563 229.901 237.799 229.939 238.047L232.411 253.28C232.471 253.625 232.597 253.955 232.784 254.251L229.099 261.605C228.934 261.326 228.822 261.018 228.769 260.698L226.296 245.466C226.263 245.232 226.181 245.008 226.056 244.808C225.931 244.608 225.766 244.436 225.57 244.304L229.142 236.83L229.143 236.83Z" fill="#1D1E1E"/>
<path d="M229.1 262.028C229.026 262.028 228.954 262.009 228.89 261.972C228.826 261.936 228.772 261.883 228.735 261.82C228.542 261.495 228.412 261.137 228.351 260.765L225.879 245.533C225.854 245.357 225.793 245.188 225.699 245.036C225.606 244.885 225.482 244.755 225.335 244.655C225.251 244.598 225.189 244.513 225.162 244.415C225.136 244.317 225.145 244.213 225.189 244.121L228.761 236.647C228.787 236.593 228.824 236.545 228.87 236.506C228.916 236.467 228.969 236.439 229.027 236.423C229.085 236.406 229.145 236.402 229.205 236.411C229.264 236.419 229.321 236.441 229.371 236.473C229.633 236.64 229.856 236.861 230.026 237.121C230.196 237.381 230.309 237.675 230.358 237.981L232.829 253.212C232.881 253.504 232.99 253.787 233.141 254.022C233.222 254.147 233.231 254.307 233.164 254.44L229.479 261.795C229.445 261.863 229.393 261.92 229.329 261.962C229.265 262.003 229.191 262.026 229.115 262.028H229.1L229.1 262.028ZM226.096 244.187C226.43 244.513 226.647 244.94 226.716 245.402L229.17 260.52L232.303 254.266C232.154 253.979 232.05 253.672 231.994 253.354L229.521 238.115C229.489 237.903 229.406 237.701 229.279 237.527L226.096 244.187V244.187Z" fill="white"/>
<path d="M229.143 236.83L225.571 244.304C225.357 244.146 225.111 244.039 224.85 243.991C224.589 243.942 224.32 243.953 224.064 244.023L209.153 248.065C208.823 248.159 208.477 248.181 208.138 248.132L212.12 240.733C212.349 240.74 212.577 240.711 212.796 240.647L227.706 236.605C227.948 236.54 228.201 236.526 228.449 236.565C228.696 236.604 228.933 236.694 229.143 236.83Z" fill="#1D1E1E"/>
<path d="M208.499 248.58C208.359 248.58 208.219 248.571 208.081 248.552C208.013 248.542 207.948 248.517 207.892 248.477C207.836 248.438 207.791 248.385 207.76 248.324C207.729 248.263 207.713 248.196 207.714 248.127C207.715 248.059 207.732 247.991 207.765 247.931L211.748 240.533C211.824 240.392 211.976 240.308 212.134 240.311C212.318 240.316 212.503 240.292 212.68 240.24L227.595 236.196C227.894 236.117 228.207 236.1 228.512 236.148C228.818 236.195 229.111 236.306 229.372 236.473C229.459 236.529 229.522 236.614 229.55 236.713C229.579 236.813 229.57 236.919 229.525 237.012L225.953 244.486C225.926 244.542 225.887 244.592 225.838 244.631C225.79 244.67 225.734 244.699 225.673 244.714C225.613 244.729 225.55 244.731 225.489 244.719C225.428 244.707 225.37 244.681 225.32 244.644C225.157 244.525 224.969 244.444 224.77 244.408C224.572 244.371 224.368 244.379 224.173 244.432L209.264 248.474C209.016 248.545 208.758 248.581 208.499 248.58L208.499 248.58ZM212.377 241.151L208.85 247.702C208.913 247.691 208.975 247.676 209.036 247.658L223.953 243.615C224.428 243.486 224.931 243.521 225.384 243.712L228.578 237.029C228.331 236.952 228.066 236.947 227.816 237.013L212.907 241.055C212.734 241.105 212.556 241.137 212.377 241.15V241.151Z" fill="white"/>
<path d="M162.092 209.04L210.635 240.31C211.076 240.598 211.594 240.746 212.12 240.734L208.137 248.133H208.128C207.726 248.093 207.336 247.946 206.993 247.729L157.29 215.713L162.093 209.04L162.092 209.04Z" fill="#1D1E1E"/>
<path d="M208.138 248.556H208.119C207.638 248.508 207.174 248.348 206.767 248.086L157.061 216.069C157.013 216.038 156.972 215.998 156.939 215.95C156.907 215.902 156.885 215.849 156.875 215.792C156.864 215.736 156.865 215.678 156.877 215.622C156.89 215.566 156.914 215.513 156.948 215.466L161.75 208.793C161.814 208.705 161.908 208.644 162.015 208.624C162.122 208.604 162.232 208.625 162.324 208.684L210.866 239.955C211.236 240.197 211.671 240.321 212.113 240.311C212.247 240.311 212.405 240.385 212.483 240.514C212.522 240.577 212.543 240.649 212.545 240.723C212.547 240.797 212.53 240.87 212.495 240.935L208.512 248.334C208.476 248.401 208.422 248.457 208.356 248.496C208.29 248.536 208.215 248.556 208.139 248.556L208.138 248.556ZM157.895 215.599L207.223 247.372C207.434 247.507 207.665 247.607 207.908 247.666L211.446 241.095C211.075 241.018 210.722 240.872 210.405 240.665L162.202 209.614L157.895 215.599Z" fill="white"/>
<path d="M46.5102 105.17C46.1971 105.64 45.8862 106.111 45.5774 106.584C22.1329 142.963 32.6192 191.466 69.0194 214.911C98.6761 234.002 136.37 230.586 162.005 208.983L162.093 209.039L157.29 215.712C132.004 238.18 94.1247 242.369 64.0656 223.813C27.565 201.287 15.9448 152.893 38.3113 116.292C40.7167 112.354 43.46 108.633 46.5102 105.17Z" fill="#1D1E1E"/>
<path d="M105.033 235.919C90.4913 235.919 76.3847 231.916 63.8428 224.173C46.0896 213.217 33.6096 195.907 28.7007 175.43C23.7905 154.946 27.075 133.866 37.9492 116.071C40.3684 112.113 43.1261 108.372 46.1913 104.89C46.2621 104.809 46.3613 104.758 46.4685 104.747C46.5758 104.737 46.6831 104.767 46.7685 104.833C46.854 104.898 46.9113 104.994 46.9286 105.1C46.9459 105.207 46.922 105.316 46.8618 105.405C46.5496 105.874 46.2392 106.345 45.9308 106.816C22.6485 142.944 33.1081 191.277 69.2486 214.555C82.278 222.943 96.962 227.082 111.568 227.082C129.46 227.082 147.237 220.874 161.732 208.659C161.801 208.6 161.887 208.566 161.978 208.56C162.068 208.554 162.158 208.577 162.234 208.626L162.322 208.683C162.371 208.714 162.412 208.755 162.444 208.802C162.477 208.85 162.499 208.904 162.509 208.96C162.52 209.017 162.519 209.075 162.507 209.131C162.494 209.187 162.47 209.24 162.436 209.287L157.634 215.959C157.616 215.985 157.595 216.008 157.572 216.029C145.146 227.07 129.142 234.008 112.507 235.568C110.008 235.803 107.513 235.919 105.033 235.919V235.919ZM42.6883 110.564C41.2601 112.485 39.9202 114.47 38.6727 116.513C16.374 153.002 27.8654 200.975 64.2885 223.453C76.7922 231.171 90.9759 234.956 105.11 234.957C123.815 234.957 142.432 228.333 156.974 215.427L160.115 211.063C147.851 220.655 132.668 226.513 117.05 227.63C99.9414 228.852 83.2544 224.579 68.7899 215.268C33.6435 192.629 22.5248 146.55 42.6883 110.564Z" fill="white"/>
<path d="M179.777 187.527L367.16 308.216L374.977 313.25L375.887 315.979C376.062 316.496 376.117 317.046 376.047 317.588C375.977 318.13 375.784 318.649 375.483 319.104C374.918 319.974 373.983 320.591 372.84 320.707L341.899 323.914C341.383 323.969 340.861 323.909 340.371 323.74C340.09 323.647 339.823 323.518 339.575 323.357L333.852 319.67C333.516 319.45 333.231 319.159 333.017 318.819C332.836 318.518 332.712 318.186 332.654 317.839L330.181 302.615C330.147 302.38 330.064 302.154 329.938 301.952C329.811 301.751 329.644 301.578 329.447 301.445C329.234 301.289 328.988 301.184 328.729 301.137C328.469 301.09 328.202 301.102 327.948 301.173L313.047 305.206C312.731 305.294 312.401 305.32 312.076 305.283C311.65 305.243 311.24 305.104 310.878 304.878L283.736 287.39C283.501 287.242 283.292 287.057 283.116 286.842C282.812 286.474 282.612 286.031 282.537 285.559L280.065 270.327C280.026 270.085 279.936 269.854 279.802 269.649C279.668 269.444 279.492 269.27 279.286 269.137C279.074 268.992 278.834 268.895 278.582 268.852C278.329 268.808 278.07 268.819 277.822 268.885L262.921 272.927C262.609 273.017 262.281 273.04 261.959 272.995H261.95C261.53 272.964 261.121 272.816 260.761 272.59L233.61 255.111C233.275 254.889 232.993 254.596 232.785 254.251C232.598 253.955 232.471 253.625 232.412 253.28L229.939 238.048C229.901 237.8 229.81 237.563 229.673 237.353C229.536 237.143 229.356 236.965 229.144 236.83C228.933 236.695 228.696 236.604 228.449 236.566C228.201 236.527 227.948 236.54 227.706 236.605L212.796 240.647C212.577 240.711 212.349 240.741 212.12 240.734C211.594 240.745 211.077 240.597 210.635 240.31L162.093 209.04L162.337 208.707V208.697C168.033 203.846 173.13 198.087 177.393 191.478C178.226 190.185 179.022 188.867 179.777 187.527V187.527Z" fill="white"/>
<path d="M341.522 324.357C341.083 324.357 340.648 324.283 340.233 324.14C339.92 324.035 339.621 323.891 339.344 323.711L333.622 320.025C333.234 319.771 332.905 319.437 332.659 319.044C332.448 318.696 332.304 318.311 332.236 317.91L329.763 302.682C329.737 302.504 329.675 302.333 329.58 302.18C329.484 302.027 329.358 301.896 329.209 301.795C329.046 301.674 328.858 301.592 328.658 301.555C328.459 301.518 328.254 301.527 328.058 301.581L313.156 305.614C312.789 305.716 312.405 305.746 312.026 305.703C311.538 305.656 311.067 305.496 310.651 305.236L283.505 287.745C283.233 287.573 282.991 287.358 282.787 287.109C282.435 286.683 282.204 286.17 282.118 285.624L279.646 270.394C279.617 270.211 279.549 270.035 279.447 269.88C279.345 269.725 279.212 269.593 279.056 269.492C278.893 269.38 278.708 269.305 278.513 269.27C278.319 269.236 278.119 269.244 277.928 269.294L263.031 273.334C262.664 273.439 262.279 273.466 261.901 273.413C261.415 273.369 260.946 273.209 260.535 272.947L233.38 255.466C232.99 255.21 232.662 254.869 232.421 254.469C232.207 254.129 232.062 253.75 231.993 253.353L229.52 238.114C229.492 237.925 229.423 237.744 229.318 237.584C229.214 237.424 229.076 237.288 228.914 237.186C228.753 237.082 228.572 237.013 228.383 236.984C228.193 236.954 228 236.964 227.815 237.013L212.906 241.056C212.646 241.13 212.376 241.164 212.106 241.156C211.514 241.172 210.916 240.999 210.403 240.664L161.862 209.395C161.813 209.364 161.772 209.323 161.74 209.275C161.708 209.227 161.686 209.173 161.675 209.116C161.665 209.06 161.666 209.001 161.679 208.945C161.691 208.889 161.716 208.836 161.75 208.789L161.966 208.493C161.991 208.448 162.023 208.408 162.061 208.375C167.846 203.447 172.884 197.685 177.035 191.248C177.865 189.962 178.656 188.651 179.407 187.318C179.436 187.268 179.474 187.224 179.52 187.189C179.566 187.154 179.619 187.129 179.675 187.116C179.731 187.102 179.789 187.099 179.846 187.109C179.903 187.118 179.957 187.139 180.006 187.171L375.206 312.894C375.287 312.946 375.347 313.024 375.378 313.116L376.287 315.843C376.483 316.422 376.544 317.037 376.466 317.642C376.388 318.247 376.173 318.827 375.837 319.336C375.177 320.35 374.1 321.003 372.882 321.127L341.942 324.334C341.802 324.349 341.662 324.356 341.521 324.356L341.522 324.357ZM328.422 300.686C328.879 300.686 329.323 300.828 329.697 301.103C330.178 301.427 330.513 301.959 330.6 302.553L333.072 317.771C333.122 318.066 333.229 318.354 333.379 318.598C333.559 318.884 333.799 319.129 334.082 319.315L339.805 323C340.022 323.142 340.256 323.255 340.502 323.337C340.936 323.488 341.398 323.541 341.855 323.492L372.796 320.286C373.758 320.188 374.608 319.673 375.128 318.874C375.394 318.471 375.564 318.013 375.626 317.534C375.688 317.056 375.64 316.569 375.485 316.112L374.623 313.526L179.924 188.126C179.231 189.339 178.506 190.534 177.748 191.708C173.576 198.178 168.518 203.973 162.712 208.935L210.865 239.954C211.235 240.196 211.67 240.321 212.112 240.31C212.31 240.317 212.496 240.293 212.679 240.24L227.595 236.196C227.894 236.116 228.206 236.1 228.512 236.147C228.818 236.195 229.111 236.306 229.371 236.473C229.633 236.64 229.856 236.861 230.026 237.121C230.196 237.381 230.309 237.674 230.357 237.981L232.829 253.212C232.881 253.504 232.989 253.786 233.14 254.021C233.316 254.316 233.556 254.568 233.843 254.757L260.99 272.233C261.302 272.429 261.646 272.547 261.981 272.572C262.275 272.612 262.54 272.592 262.807 272.518L277.711 268.475C278.018 268.394 278.339 268.38 278.651 268.434C278.964 268.488 279.262 268.608 279.524 268.786C279.778 268.951 279.995 269.168 280.16 269.421C280.325 269.675 280.435 269.96 280.482 270.259L282.955 285.491C283.016 285.889 283.185 286.263 283.442 286.572C283.59 286.752 283.764 286.907 283.962 287.032L311.106 304.521C311.412 304.711 311.757 304.827 312.115 304.86C312.39 304.892 312.669 304.87 312.935 304.796L327.837 300.763C328.028 300.711 328.225 300.685 328.422 300.684L328.422 300.686Z" fill="#1D1E1E"/>
<path d="M186.978 170.231L364.548 284.603C365.233 285.047 365.76 285.709 366.014 286.488L371.631 303.263L363.823 298.238V298.229L182.788 181.64C183.304 180.517 183.791 179.381 184.25 178.234C185.307 175.619 186.217 172.947 186.978 170.231Z" fill="white"/>
<path d="M371.632 303.686C371.55 303.686 371.471 303.663 371.402 303.619L363.594 298.594C363.572 298.579 363.551 298.563 363.532 298.544L182.559 181.996C182.474 181.941 182.411 181.857 182.382 181.759C182.354 181.661 182.361 181.556 182.404 181.464C182.916 180.347 183.401 179.217 183.858 178.076C184.908 175.475 185.814 172.817 186.571 170.116C186.589 170.053 186.621 169.994 186.666 169.945C186.711 169.896 186.766 169.859 186.828 169.835C186.89 169.812 186.957 169.803 187.023 169.81C187.088 169.817 187.152 169.839 187.208 169.874L364.778 284.247C365.556 284.75 366.138 285.499 366.417 286.357L372.033 303.128C372.054 303.191 372.06 303.259 372.05 303.325C372.04 303.392 372.014 303.454 371.975 303.509C371.935 303.563 371.884 303.608 371.824 303.638C371.765 303.669 371.699 303.685 371.632 303.685V303.686ZM364.116 297.923L370.847 302.254L365.613 286.622C365.393 285.946 364.933 285.356 364.319 284.959L187.229 170.896C186.497 173.438 185.634 175.94 184.643 178.393C184.227 179.432 183.788 180.463 183.326 181.483L364.054 297.873C364.076 297.887 364.097 297.904 364.116 297.922V297.923Z" fill="#1D1E1E"/>
<path d="M182.789 181.641L363.824 298.229V298.238L371.632 303.263L374.978 313.25L367.161 308.216L179.778 187.527C180.864 185.608 181.868 183.644 182.789 181.641Z" fill="#F45100"/>
<path d="M374.977 313.674C374.897 313.674 374.818 313.651 374.747 313.606L179.547 187.883C179.457 187.825 179.392 187.733 179.366 187.629C179.34 187.524 179.355 187.413 179.409 187.319C180.488 185.41 181.487 183.456 182.403 181.464C182.429 181.409 182.465 181.36 182.511 181.32C182.557 181.28 182.611 181.251 182.669 181.234C182.728 181.217 182.789 181.213 182.849 181.222C182.909 181.23 182.966 181.252 183.017 181.285L364.053 297.873C364.075 297.888 364.096 297.905 364.115 297.923L371.86 302.907C371.941 302.959 372.002 303.038 372.032 303.129L375.378 313.116C375.399 313.18 375.405 313.247 375.395 313.314C375.384 313.38 375.359 313.443 375.32 313.497C375.28 313.552 375.229 313.596 375.169 313.627C375.11 313.657 375.043 313.673 374.976 313.674H374.977ZM180.342 187.387L374.192 312.241L371.276 303.538L363.594 298.594C363.571 298.579 363.55 298.563 363.531 298.544L182.968 182.259C182.155 184 181.279 185.71 180.342 187.386L180.342 187.387Z" fill="#F45100"/>
<path d="M93.3857 113.862C102.565 119.782 105.212 132.007 99.2989 141.183C98.0167 143.169 96.4482 144.842 94.6653 146.194C98.4466 137.202 95.0969 126.47 86.2144 121.393C79.2439 117.408 70.5986 118.194 64.4316 122.888C64.8784 121.802 65.4249 120.759 66.0641 119.774C71.9769 110.607 84.2066 107.951 93.3857 113.862Z" fill="#1D1E1E"/>
<path d="M94.6656 146.617C94.5957 146.617 94.527 146.599 94.4655 146.566C94.4039 146.533 94.3515 146.486 94.3129 146.427C94.2742 146.369 94.2506 146.303 94.244 146.233C94.2374 146.164 94.248 146.093 94.275 146.029C98.0521 137.048 94.4961 126.614 86.005 121.761C79.3806 117.974 70.8149 118.562 64.6886 123.225C64.6146 123.281 64.5241 123.311 64.4312 123.311C64.3382 123.311 64.2479 123.28 64.1742 123.223C64.1005 123.167 64.0475 123.088 64.0234 122.998C63.9992 122.908 64.0052 122.813 64.0405 122.727C64.4973 121.616 65.0559 120.55 65.709 119.543C71.7417 110.191 84.2603 107.481 93.6155 113.506C102.973 119.541 105.682 132.06 99.6558 141.412C98.3723 143.4 96.7797 145.122 94.9218 146.53C94.8482 146.586 94.7584 146.616 94.666 146.616L94.6656 146.617ZM76.5218 118.433C79.9554 118.433 83.386 119.288 86.4252 121.026C94.8198 125.824 98.5922 135.848 95.6174 144.86C96.8952 143.712 98.0139 142.398 98.9438 140.954C104.717 131.994 102.121 120 93.1563 114.218C84.1946 108.446 72.2004 111.042 66.4206 120.003C66.0761 120.534 65.7591 121.082 65.4709 121.645C68.7897 119.516 72.6579 118.433 76.5222 118.433L76.5218 118.433Z" fill="white"/>
<path d="M46.5108 105.17C46.1977 105.64 45.8868 106.112 45.5781 106.584C22.1336 142.964 32.6198 191.466 69.02 214.912C98.6767 234.003 136.371 230.587 162.005 208.983C162.116 208.888 162.227 208.793 162.337 208.706V208.697C168.034 203.845 173.131 198.087 177.393 191.478C178.227 190.185 179.022 188.867 179.778 187.527C180.864 185.607 181.868 183.643 182.789 181.64C183.305 180.517 183.792 179.381 184.251 178.233C185.308 175.618 186.218 172.947 186.979 170.23C196.058 137.965 183.6 102.241 153.943 83.1413C118.017 60.0157 70.3051 69.9322 46.5108 105.17ZM93.3862 113.862C102.565 119.782 105.213 132.007 99.2994 141.183C98.0172 143.169 96.4487 144.842 94.6658 146.194C88.2413 151.094 79.1614 151.715 71.9783 147.086C63.8099 141.826 60.8143 131.553 64.4326 122.888C64.8794 121.802 65.4259 120.759 66.0651 119.774C71.9779 110.607 84.2071 107.951 93.3862 113.862Z" fill="white" stroke="#1D1E1E" stroke-width="0.84702" stroke-linecap="round" stroke-linejoin="round"/>
<path d="M46.5109 105.17C46.198 105.64 45.8871 106.112 45.5782 106.585C22.1337 142.964 32.6195 191.466 69.0201 214.912C98.6768 234.003 136.371 230.587 162.006 208.983C162.116 208.889 162.227 208.793 162.338 208.707V208.698C168.034 203.846 173.131 198.088 177.394 191.479C178.228 190.185 179.023 188.867 179.779 187.527C180.864 185.608 181.868 183.644 182.789 181.64C183.305 180.517 183.793 179.381 184.251 178.234C185.308 175.619 186.219 172.947 186.979 170.231C196.058 137.965 183.6 102.242 153.943 83.1417C118.017 60.0157 70.3052 69.9318 46.5109 105.17ZM150.708 88.1607C178.105 105.809 189.617 138.811 181.234 168.615C180.527 171.122 179.686 173.589 178.714 176.006C178.289 177.067 177.837 178.117 177.359 179.156C176.512 180.995 175.584 182.813 174.577 184.593C173.878 185.831 173.143 187.049 172.373 188.245C168.541 194.202 163.854 199.562 158.461 204.155V204.164C158.36 204.241 158.258 204.328 158.157 204.415C134.475 224.376 99.6515 227.532 72.2542 209.893C38.6238 188.238 28.9364 143.429 50.5985 109.818C50.8814 109.378 51.1733 108.939 51.4558 108.509C73.4436 75.9581 117.517 66.7971 150.708 88.1607Z" fill="white" stroke="#1D1E1E" stroke-width="0.84702" stroke-linecap="round" stroke-linejoin="round"/>
<path d="M150.707 88.1608C172.02 101.887 183.711 124.897 183.912 148.47C182.369 126.496 170.838 105.509 150.889 92.6505C117.697 71.2869 73.6243 80.4475 51.637 112.998C51.3544 113.429 51.0626 113.868 50.7796 114.308C42.8391 126.631 39.1125 140.449 39.2306 154.083C38.1615 139.02 41.7895 123.495 50.5979 109.818C50.8809 109.379 51.1727 108.94 51.4552 108.509C73.4426 75.9582 117.516 66.7972 150.707 88.1608Z" fill="#1D1E1E"/>
<path d="M39.2301 154.506C39.123 154.506 39.02 154.465 38.9418 154.392C38.8635 154.319 38.8158 154.219 38.8082 154.112C37.6878 138.337 41.6415 122.941 50.2415 109.589C50.4474 109.269 50.6583 108.949 50.8672 108.632L51.101 108.277C61.8117 92.4206 78.0383 81.5645 96.7946 77.7024C115.579 73.8351 134.807 77.4229 150.937 87.8047C171.64 101.139 184.126 123.816 184.335 148.466C184.336 148.576 184.294 148.682 184.218 148.762C184.142 148.841 184.038 148.888 183.928 148.892C183.71 148.91 183.505 148.727 183.489 148.499C181.885 125.646 169.919 105.42 150.659 93.0058C117.99 71.9792 73.7258 81.0534 51.988 113.235L51.7457 113.603C51.5424 113.912 51.3365 114.225 51.1357 114.537C43.5023 126.383 39.5321 140.056 39.6545 154.079C39.6555 154.189 39.6136 154.295 39.5377 154.374C39.4618 154.454 39.3578 154.501 39.2479 154.505H39.2305L39.2301 154.506ZM111.76 77.1828C88.5153 77.1828 65.6163 88.3006 51.8058 108.746L51.5746 109.098C51.3674 109.412 51.1586 109.73 50.9536 110.047C44.9154 119.422 41.1947 129.817 39.9425 140.641C41.6288 131.245 45.1683 122.233 50.4228 114.078C50.6257 113.764 50.8329 113.449 51.0379 113.138L51.2823 112.766C61.9926 96.9099 78.2192 86.0534 96.9755 82.1916C115.76 78.3244 134.987 81.9122 151.117 92.294C160.932 98.6201 168.856 106.909 174.669 116.929C177.953 122.59 180.465 128.72 182.128 135.072C178.387 116.058 167.118 99.2346 150.477 88.5169C138.563 80.8485 125.104 77.1828 111.76 77.1828Z" fill="#1D1E1E"/>
</g>
<defs>
<clipPath id="clip0_615_73222">
<rect width="350" height="261.548" fill="white" transform="translate(26.5 70.2261)"/>
</clipPath>
</defs>
</svg>
