<svg viewBox="0 0 402 402" fill="none" xmlns="http://www.w3.org/2000/svg">
<g clip-path="url(#clip0_615_73232)">
<path d="M146.863 45.0632L146.796 44.9064C141.689 33.2745 128.869 27.5446 117.54 31.5034L117.522 31.3036L115.076 32.5236L115.082 32.5269C103.972 37.952 99.1911 51.605 104.41 63.4966C104.444 63.5712 104.474 63.6421 104.507 63.7131C109.927 75.7544 123.659 81.374 135.289 76.2694C146.946 71.1572 152.1 57.2128 146.863 45.0632ZM113.409 59.7912C113.375 59.7279 113.346 59.6605 113.316 59.5935C110.214 52.5262 113.2 44.3841 119.986 41.4064C126.771 38.4288 134.789 41.746 137.891 48.8097C137.917 48.8655 137.939 48.9252 137.961 48.9813L113.409 59.7912H113.409Z" fill="#1D1E1E"/>
<path d="M126.307 78.3192C123.347 78.3192 120.369 77.7359 117.509 76.568C111.67 74.1838 107.001 69.6417 104.362 63.7779C104.342 63.7346 104.321 63.6885 104.301 63.6415L104.265 63.5616C101.729 57.783 101.448 51.3813 103.472 45.5343C105.487 39.7156 109.57 35.0538 114.972 32.403C114.982 32.3942 114.993 32.3868 115.005 32.3808L117.451 31.1609C117.474 31.1495 117.499 31.1437 117.525 31.1442C117.551 31.1447 117.576 31.1514 117.598 31.1637C117.621 31.1761 117.64 31.1936 117.654 31.215C117.669 31.2363 117.678 31.2608 117.68 31.2863C123.166 29.425 129.155 29.752 134.568 32.2132C140.071 34.7155 144.465 39.2006 146.942 44.8421L147.01 44.9999C149.56 50.9162 149.756 57.4367 147.561 63.3604C145.364 69.2897 141.028 73.9259 135.353 76.4148C132.462 77.6838 129.394 78.319 126.307 78.3192ZM115.186 32.6462C115.176 32.6557 115.164 32.6636 115.151 32.6696C104.024 38.1036 99.3701 51.6161 104.556 63.4323L104.592 63.5133C104.612 63.5578 104.631 63.6012 104.651 63.6447C110.019 75.5701 123.734 81.1668 135.225 76.1233C146.751 71.0688 151.906 57.1634 146.717 45.1258L146.717 45.1255L146.65 44.9689C141.641 33.5599 128.878 27.7106 117.592 31.6535C117.572 31.6606 117.55 31.6635 117.529 31.662C117.507 31.6606 117.487 31.6547 117.467 31.6449C117.448 31.6351 117.431 31.6215 117.417 31.605C117.404 31.5884 117.393 31.5692 117.387 31.5485L115.186 32.6462ZM113.41 59.9501C113.352 59.9501 113.297 59.9191 113.269 59.8655C113.234 59.7992 113.202 59.7292 113.171 59.6591C110.038 52.5213 113.067 44.2684 119.922 41.2603C126.778 38.2523 134.903 41.6099 138.037 48.7454C138.057 48.7881 138.076 48.8366 138.095 48.8841L138.11 48.9219C138.142 49.0015 138.105 49.0921 138.026 49.1268L113.474 59.9368C113.454 59.9457 113.432 59.9503 113.41 59.9503L113.41 59.9501ZM125.18 40.4758C123.414 40.4747 121.667 40.8412 120.05 41.5518C113.356 44.4894 110.401 52.5539 113.462 59.5292L113.486 59.5832L137.756 48.8974C137.753 48.8905 137.75 48.8837 137.746 48.8769C135.444 43.6338 130.39 40.4758 125.18 40.4758Z" fill="white"/>
<path d="M186.961 50.2602C181.847 40.3508 169.905 36.1294 159.697 40.6231L90.2175 71.2107L89.9995 70.671L86.8558 73.033L86.8535 73.0424C79.1048 78.3108 76.2383 88.7031 80.6973 97.3443L84.0266 103.796L190.418 56.9593L186.961 50.2602Z" fill="#1D1E1E"/>
<path d="M84.027 103.955C83.9977 103.955 83.969 103.947 83.944 103.932C83.919 103.917 83.8987 103.895 83.8853 103.869L80.556 97.4169C76.1436 88.8657 78.8009 78.3447 86.7364 72.9292C86.7434 72.9203 86.7516 72.9123 86.7606 72.9054L89.9042 70.5433C89.9237 70.5286 89.9463 70.5186 89.9703 70.5141C89.9943 70.5095 90.019 70.5106 90.0426 70.5171C90.0661 70.5237 90.0878 70.5355 90.106 70.5518C90.1242 70.5681 90.1384 70.5883 90.1475 70.611L90.3037 70.9983L159.633 40.4771C169.896 35.9592 181.961 40.2243 187.103 50.187L190.559 56.8861C190.569 56.9054 190.575 56.9266 190.577 56.9482C190.578 56.9699 190.575 56.9917 190.568 57.0122C190.561 57.0327 190.55 57.0515 190.535 57.0675C190.52 57.0834 190.502 57.0961 190.482 57.1048L84.091 103.942C84.0708 103.951 84.049 103.955 84.027 103.955ZM86.9762 73.1418C86.9669 73.154 86.9558 73.1648 86.9432 73.1738C79.1194 78.4934 76.4952 88.853 80.8389 97.2713L84.0998 103.59L190.199 56.8816L186.82 50.333C181.756 40.5195 169.87 36.3184 159.762 40.7685L90.2818 71.3559C90.2622 71.3644 90.2412 71.3689 90.2199 71.3691C90.1986 71.3694 90.1774 71.3654 90.1577 71.3574C90.1379 71.3494 90.12 71.3375 90.1049 71.3224C90.0898 71.3074 90.0779 71.2895 90.0698 71.2697L89.9295 70.9222L86.976 73.1415L86.9762 73.1418Z" fill="white"/>
<path d="M364.287 286.922L363.322 290.501L363.317 290.5C362.061 295.042 358.859 299.022 354.177 301.082L188.257 374.13C178.522 378.416 167.13 374.39 162.253 364.938L38.7852 127.474C37.5506 125.079 36.9678 122.528 36.9678 120.02C36.9678 118.435 37.1998 116.866 37.646 115.365L38.5679 111.987C37.6525 115.677 38.0164 119.706 39.9063 123.369L163.373 360.834C168.249 370.286 179.641 374.311 189.377 370.026L355.297 296.978C359.798 294.996 362.935 291.245 364.287 286.922Z" fill="#1D1E1E"/>
<path d="M180.177 375.993C172.793 375.993 165.692 371.951 162.112 365.011L38.6439 127.547C37.426 125.185 36.8086 122.653 36.8086 120.02C36.8086 118.43 37.0389 116.849 37.4933 115.32L38.4142 111.945C38.4249 111.904 38.4513 111.869 38.4877 111.848C38.5058 111.837 38.5257 111.83 38.5464 111.827C38.5671 111.824 38.5882 111.826 38.6084 111.831C38.6287 111.836 38.6477 111.845 38.6644 111.858C38.6811 111.87 38.6951 111.886 38.7057 111.904C38.7163 111.922 38.7232 111.942 38.7261 111.963C38.729 111.984 38.7278 112.005 38.7225 112.025C37.7825 115.814 38.2533 119.817 40.0479 123.296L163.514 360.76C168.341 370.117 179.673 374.123 189.313 369.88L355.233 296.832C357.341 295.903 359.227 294.534 360.762 292.817C362.298 291.099 363.448 289.073 364.135 286.874C364.147 286.835 364.175 286.801 364.212 286.782C364.248 286.762 364.291 286.758 364.331 286.769C364.371 286.781 364.405 286.808 364.425 286.844C364.446 286.88 364.451 286.923 364.441 286.963L363.476 290.543C363.472 290.556 363.467 290.569 363.46 290.581C362.127 295.356 358.769 299.235 354.241 301.228L188.322 374.276C185.678 375.439 182.907 375.992 180.177 375.993L180.177 375.993ZM37.9684 114.789L37.7996 115.407C37.3538 116.904 37.1272 118.458 37.1269 120.02C37.1269 122.601 37.7325 125.085 38.9267 127.401L162.395 364.865C167.222 374.222 178.554 378.227 188.193 373.984L354.113 300.936C358.565 298.977 361.864 295.157 363.164 290.457C363.167 290.444 363.172 290.432 363.179 290.42L363.446 289.429C361.73 292.857 358.87 295.578 355.361 297.123L189.441 370.171C179.648 374.482 168.136 370.413 163.231 360.907L39.765 123.442C38.388 120.776 37.7668 117.783 37.9684 114.789Z" fill="white"/>
<path d="M355.297 296.978L189.377 370.026C179.641 374.312 168.25 370.286 163.372 360.834L39.9056 123.37C35.5978 115.022 39.2229 104.771 47.8221 100.985L213.941 27.8503C223.565 23.6132 234.826 27.5934 239.648 36.9364L363.214 274.594C367.522 282.942 363.896 293.192 355.297 296.978Z" fill="#F45100"/>
<path d="M181.297 371.889C173.913 371.889 166.812 367.847 163.231 360.907L39.7644 123.443C37.6604 119.366 37.3442 114.739 38.8737 110.414C40.4033 106.089 43.5585 102.689 47.7579 100.84L213.877 27.7049C223.558 23.4428 234.94 27.4661 239.789 36.8638L363.355 274.521C365.459 278.598 365.776 283.225 364.246 287.55C362.717 291.875 359.561 295.275 355.362 297.124L189.441 370.172C186.798 371.336 184.027 371.889 181.297 371.889ZM221.929 26.3258C219.272 26.3258 216.578 26.8637 214.006 27.9962L47.8864 101.131C43.7682 102.944 40.674 106.279 39.1741 110.52C37.674 114.761 37.9842 119.299 40.0472 123.297L163.514 360.761C168.342 370.118 179.675 374.123 189.313 369.88L355.233 296.833C359.352 295.02 362.446 291.685 363.946 287.444C365.446 283.203 365.136 278.665 363.072 274.667L239.507 37.0102C236.022 30.2586 229.113 26.3258 221.929 26.3258Z" fill="white"/>
<path d="M338.979 275.674L173.23 348.646L52.5693 114.827L218.319 41.8555L338.979 275.674Z" fill="white"/>
<path d="M173.23 348.805C173.201 348.805 173.172 348.797 173.147 348.782C173.122 348.766 173.102 348.745 173.088 348.719L52.428 114.9C52.418 114.881 52.4121 114.86 52.4105 114.838C52.409 114.817 52.412 114.795 52.4192 114.774C52.4265 114.754 52.4378 114.735 52.4526 114.719C52.4674 114.703 52.4854 114.69 52.5053 114.682L218.255 41.7098C218.292 41.6935 218.334 41.6919 218.372 41.7054C218.41 41.7189 218.442 41.7465 218.46 41.7826L339.121 275.601C339.131 275.62 339.137 275.641 339.138 275.663C339.14 275.684 339.137 275.706 339.129 275.727C339.122 275.747 339.111 275.766 339.096 275.782C339.081 275.798 339.063 275.811 339.043 275.819L173.294 348.791C173.274 348.8 173.252 348.805 173.23 348.805ZM52.7887 114.905L173.303 348.44L338.76 275.596L218.246 42.0615L52.7887 114.905Z" fill="#1D1E1E"/>
<path d="M340.472 272.315L174.723 345.287L54.0625 111.469L219.812 38.4971L340.472 272.315Z" fill="white"/>
<path d="M174.723 345.446C174.694 345.446 174.665 345.438 174.64 345.423C174.615 345.408 174.595 345.386 174.582 345.36L53.9212 111.542C53.9112 111.523 53.9052 111.502 53.9037 111.48C53.9022 111.458 53.9051 111.436 53.9124 111.416C53.9196 111.395 53.931 111.377 53.9458 111.361C53.9606 111.345 53.9785 111.332 53.9984 111.323L219.748 38.3513C219.785 38.335 219.827 38.3335 219.865 38.347C219.903 38.3605 219.935 38.3881 219.954 38.4241L340.614 272.242C340.624 272.261 340.63 272.283 340.632 272.304C340.633 272.326 340.63 272.348 340.623 272.368C340.616 272.389 340.604 272.408 340.589 272.423C340.575 272.439 340.557 272.452 340.537 272.461L174.787 345.433C174.767 345.442 174.745 345.446 174.723 345.446ZM54.2819 111.546L174.796 345.081L340.253 272.238L219.739 38.703L54.2819 111.546Z" fill="#1D1E1E"/>
<path d="M124.795 149.069L106.809 157.034C104.262 158.163 101.276 157.11 99.9999 154.634L91.1585 137.476C89.4888 134.236 90.8916 130.26 94.225 128.783L112.211 120.819C114.758 119.69 117.744 120.743 119.02 123.219L127.861 140.376C129.531 143.616 128.128 147.593 124.795 149.069Z" fill="white"/>
<path d="M104.685 157.644C102.712 157.644 100.816 156.564 99.8589 154.707L91.0175 137.549C90.1896 135.943 90.0649 134.12 90.6659 132.416C91.2671 130.711 92.5084 129.37 94.161 128.638L112.146 120.673C114.768 119.513 117.849 120.599 119.162 123.146L128.003 140.303C128.831 141.91 128.956 143.733 128.355 145.437C127.754 147.142 126.512 148.483 124.86 149.215L106.874 157.18C106.185 157.486 105.44 157.644 104.685 157.644H104.685ZM114.336 120.527C113.645 120.527 112.945 120.668 112.276 120.964L94.2903 128.929C92.7186 129.625 91.5383 130.901 90.9666 132.522C90.3949 134.142 90.5135 135.876 91.3008 137.404L100.142 154.561C101.378 156.959 104.279 157.982 106.745 156.889L124.731 148.924C126.302 148.228 127.483 146.952 128.054 145.331C128.626 143.711 128.507 141.977 127.72 140.449L118.879 123.292C117.978 121.545 116.193 120.527 114.336 120.527Z" fill="#F45100"/>
<path d="M98.458 140.579L112.726 147.674L116.086 125.659" fill="white"/>
<path d="M112.727 147.834C112.702 147.834 112.678 147.828 112.656 147.817L98.3872 140.722C98.3684 140.713 98.3517 140.7 98.338 140.684C98.3243 140.668 98.3138 140.65 98.3071 140.63C98.3004 140.61 98.2978 140.589 98.2992 140.568C98.3006 140.548 98.3062 140.527 98.3155 140.508C98.3248 140.49 98.3377 140.473 98.3535 140.459C98.3693 140.446 98.3876 140.435 98.4074 140.428C98.4273 140.422 98.4482 140.419 98.4691 140.421C98.4899 140.422 98.5103 140.428 98.529 140.437L112.602 147.435L115.928 125.635C115.932 125.614 115.939 125.594 115.949 125.576C115.96 125.558 115.974 125.542 115.991 125.53C116.008 125.517 116.027 125.508 116.048 125.503C116.068 125.498 116.089 125.497 116.11 125.5C116.131 125.504 116.151 125.511 116.169 125.522C116.187 125.533 116.202 125.547 116.215 125.564C116.227 125.581 116.236 125.6 116.241 125.621C116.246 125.641 116.247 125.662 116.243 125.683L112.884 147.699C112.878 147.736 112.859 147.77 112.83 147.795C112.802 147.82 112.765 147.834 112.727 147.834L112.727 147.834Z" fill="#1D1E1E"/>
<path d="M135.982 118.277L216.666 82.5464L135.982 118.277Z" fill="white"/>
<path d="M135.983 118.437C135.946 118.437 135.911 118.424 135.882 118.401C135.854 118.378 135.834 118.346 135.827 118.311C135.819 118.275 135.824 118.237 135.841 118.205C135.857 118.172 135.885 118.147 135.918 118.132L216.602 82.401C216.621 82.3925 216.642 82.3878 216.663 82.3873C216.684 82.3867 216.704 82.3903 216.724 82.3978C216.744 82.4054 216.761 82.4167 216.777 82.4311C216.792 82.4456 216.804 82.4629 216.812 82.4821C216.821 82.5012 216.825 82.5218 216.826 82.5427C216.826 82.5636 216.823 82.5844 216.815 82.6039C216.808 82.6234 216.796 82.6412 216.782 82.6563C216.768 82.6715 216.75 82.6836 216.731 82.6921L136.047 118.423C136.026 118.432 136.004 118.437 135.983 118.437Z" fill="#1D1E1E"/>
<path d="M143.859 133.242L185.403 114.845L143.859 133.242Z" fill="white"/>
<path d="M143.859 133.402C143.823 133.402 143.788 133.389 143.759 133.366C143.731 133.343 143.711 133.311 143.704 133.275C143.696 133.24 143.701 133.202 143.718 133.17C143.734 133.137 143.761 133.112 143.795 133.097L185.339 114.699C185.358 114.69 185.379 114.685 185.4 114.684C185.421 114.683 185.442 114.687 185.462 114.694C185.482 114.701 185.5 114.713 185.516 114.727C185.531 114.742 185.544 114.759 185.552 114.779C185.561 114.798 185.565 114.819 185.566 114.84C185.566 114.862 185.562 114.883 185.555 114.902C185.547 114.922 185.535 114.94 185.52 114.955C185.505 114.97 185.487 114.982 185.468 114.99L143.924 133.388C143.904 133.397 143.882 133.402 143.859 133.402Z" fill="#1D1E1E"/>
<path d="M256.66 261.589L280.549 251.01L256.66 261.589Z" fill="white"/>
<path d="M256.661 261.749C256.624 261.749 256.589 261.737 256.56 261.714C256.532 261.691 256.512 261.659 256.504 261.623C256.497 261.587 256.502 261.55 256.518 261.517C256.535 261.485 256.563 261.459 256.596 261.444L280.485 250.865C280.523 250.849 280.566 250.849 280.605 250.864C280.643 250.88 280.674 250.91 280.691 250.948C280.708 250.986 280.709 251.029 280.695 251.068C280.68 251.107 280.651 251.138 280.614 251.156L256.725 261.735C256.704 261.745 256.682 261.749 256.661 261.749Z" fill="#1D1E1E"/>
<path d="M289.135 247.208L298.545 243.041L289.135 247.208Z" fill="white"/>
<path d="M289.135 247.367C289.099 247.367 289.063 247.355 289.035 247.332C289.006 247.309 288.987 247.277 288.979 247.241C288.971 247.205 288.976 247.168 288.993 247.135C289.01 247.103 289.037 247.077 289.071 247.062L298.481 242.895C298.519 242.879 298.562 242.879 298.601 242.894C298.639 242.91 298.671 242.94 298.687 242.978C298.704 243.016 298.705 243.059 298.691 243.098C298.676 243.136 298.647 243.168 298.61 243.186L289.2 247.353C289.179 247.362 289.157 247.367 289.135 247.367Z" fill="#1D1E1E"/>
<path d="M162.269 168.632L242.952 132.901L162.269 168.632Z" fill="white"/>
<path d="M162.269 168.791C162.232 168.791 162.197 168.779 162.168 168.756C162.14 168.733 162.12 168.701 162.113 168.665C162.105 168.629 162.11 168.592 162.127 168.56C162.143 168.527 162.171 168.501 162.204 168.487L242.888 132.756C242.926 132.739 242.97 132.738 243.01 132.753C243.049 132.768 243.081 132.798 243.098 132.837C243.115 132.875 243.116 132.919 243.101 132.959C243.086 132.998 243.055 133.03 243.017 133.047L162.333 168.778C162.313 168.787 162.291 168.791 162.269 168.791Z" fill="#1D1E1E"/>
<path d="M208.701 165.984L250.481 147.481L208.701 165.984Z" fill="white"/>
<path d="M208.701 166.143C208.665 166.143 208.629 166.131 208.601 166.108C208.573 166.085 208.553 166.053 208.545 166.017C208.538 165.982 208.543 165.944 208.559 165.912C208.576 165.879 208.603 165.853 208.637 165.839L250.416 147.337C250.435 147.327 250.456 147.322 250.477 147.321C250.499 147.321 250.52 147.324 250.54 147.331C250.56 147.339 250.578 147.35 250.593 147.365C250.609 147.379 250.621 147.397 250.63 147.416C250.638 147.435 250.643 147.456 250.643 147.478C250.644 147.499 250.64 147.52 250.632 147.54C250.624 147.559 250.612 147.577 250.597 147.592C250.583 147.607 250.565 147.619 250.545 147.628L208.766 166.13C208.745 166.139 208.723 166.143 208.701 166.143Z" fill="#1D1E1E"/>
<path d="M169.771 183.224L187.528 175.36L169.771 183.224Z" fill="white"/>
<path d="M169.772 183.383C169.735 183.383 169.7 183.371 169.671 183.348C169.643 183.325 169.623 183.293 169.616 183.257C169.608 183.221 169.613 183.184 169.63 183.152C169.646 183.119 169.674 183.093 169.707 183.078L187.464 175.215C187.483 175.206 187.504 175.201 187.525 175.2C187.546 175.199 187.568 175.202 187.587 175.21C187.607 175.217 187.626 175.228 187.641 175.243C187.657 175.258 187.669 175.275 187.678 175.294C187.686 175.314 187.691 175.335 187.691 175.356C187.692 175.377 187.688 175.398 187.68 175.418C187.672 175.438 187.66 175.456 187.645 175.471C187.63 175.486 187.613 175.498 187.593 175.506L169.836 183.369C169.816 183.378 169.794 183.383 169.772 183.383V183.383Z" fill="#1D1E1E"/>
<path d="M151.522 200.018L133.537 207.983C130.989 209.111 128.003 208.059 126.727 205.582L117.886 188.425C116.216 185.185 117.619 181.208 120.953 179.732L138.938 171.767C141.486 170.639 144.471 171.692 145.747 174.168L154.589 191.325C156.258 194.565 154.856 198.542 151.522 200.018Z" fill="white"/>
<path d="M131.412 208.593C129.439 208.593 127.542 207.512 126.585 205.655L117.744 188.498C116.916 186.892 116.791 185.069 117.392 183.364C117.994 181.66 119.235 180.319 120.888 179.587L138.873 171.622C141.494 170.461 144.575 171.547 145.888 174.095L154.73 191.252C155.557 192.859 155.682 194.682 155.081 196.386C154.48 198.09 153.239 199.432 151.586 200.164L133.601 208.129C132.912 208.435 132.166 208.593 131.412 208.593ZM141.062 171.476C140.372 171.476 139.671 171.617 139.002 171.913L121.017 179.878C119.445 180.574 118.265 181.85 117.693 183.471C117.121 185.091 117.24 186.825 118.027 188.353L126.869 205.51C128.104 207.908 131.005 208.93 133.472 207.838L151.457 199.873C153.029 199.177 154.209 197.901 154.781 196.28C155.353 194.66 155.234 192.926 154.447 191.398L145.605 174.241C144.705 172.494 142.92 171.476 141.063 171.476L141.062 171.476Z" fill="#F45100"/>
<path d="M125.185 191.528L139.453 198.624L142.812 176.608" fill="white"/>
<path d="M139.453 198.782C139.429 198.782 139.404 198.777 139.382 198.766L125.114 191.671C125.076 191.652 125.047 191.619 125.034 191.579C125.02 191.539 125.023 191.495 125.042 191.457C125.061 191.42 125.094 191.391 125.134 191.377C125.174 191.364 125.218 191.367 125.256 191.386L139.328 198.384L142.655 176.584C142.658 176.563 142.665 176.543 142.676 176.525C142.687 176.507 142.701 176.491 142.718 176.479C142.735 176.466 142.754 176.457 142.774 176.452C142.795 176.447 142.816 176.446 142.837 176.449C142.858 176.452 142.877 176.46 142.895 176.47C142.913 176.481 142.929 176.496 142.941 176.513C142.954 176.53 142.963 176.549 142.968 176.569C142.972 176.59 142.973 176.611 142.97 176.632L139.61 198.647C139.605 198.685 139.586 198.719 139.557 198.744C139.528 198.769 139.491 198.782 139.453 198.783L139.453 198.782Z" fill="#1D1E1E"/>
<path d="M187.807 218.987L251.729 190.679L187.807 218.987Z" fill="white"/>
<path d="M187.807 219.146C187.771 219.146 187.735 219.133 187.707 219.111C187.678 219.088 187.659 219.055 187.651 219.02C187.643 218.984 187.648 218.947 187.665 218.914C187.682 218.882 187.709 218.856 187.742 218.841L251.664 190.533C251.703 190.516 251.747 190.515 251.786 190.53C251.826 190.545 251.857 190.576 251.874 190.614C251.892 190.653 251.893 190.697 251.877 190.736C251.862 190.775 251.832 190.807 251.793 190.824L187.871 219.132C187.851 219.141 187.829 219.146 187.807 219.146Z" fill="#1D1E1E"/>
<path d="M253.583 207.772L276.019 197.836L253.583 207.772Z" fill="white"/>
<path d="M253.583 207.931C253.547 207.932 253.511 207.919 253.483 207.896C253.454 207.873 253.435 207.841 253.427 207.805C253.42 207.77 253.425 207.732 253.441 207.7C253.458 207.667 253.485 207.642 253.518 207.627L275.955 197.691C275.993 197.675 276.036 197.675 276.075 197.69C276.114 197.706 276.145 197.735 276.162 197.773C276.178 197.811 276.18 197.854 276.165 197.893C276.151 197.932 276.122 197.964 276.084 197.982L253.647 207.918C253.627 207.927 253.605 207.932 253.583 207.931Z" fill="#1D1E1E"/>
<path d="M195.311 233.579L232.933 216.917L195.311 233.579Z" fill="white"/>
<path d="M195.31 233.738C195.273 233.738 195.238 233.725 195.21 233.702C195.181 233.679 195.161 233.647 195.154 233.611C195.146 233.576 195.151 233.538 195.168 233.506C195.185 233.473 195.212 233.448 195.245 233.433L232.868 216.771C232.907 216.754 232.951 216.753 232.99 216.768C233.029 216.784 233.061 216.814 233.078 216.853C233.095 216.891 233.096 216.935 233.081 216.974C233.066 217.014 233.036 217.046 232.997 217.063L195.374 233.724C195.353 233.733 195.331 233.738 195.31 233.738Z" fill="#1D1E1E"/>
<path d="M177.745 251.203L159.759 259.168C157.212 260.296 154.226 259.243 152.95 256.767L144.109 239.61C142.439 236.37 143.842 232.393 147.175 230.917L165.161 222.952C167.708 221.824 170.694 222.876 171.97 225.353L180.811 242.51C182.481 245.75 181.078 249.726 177.745 251.203Z" fill="white"/>
<path d="M157.634 259.777C155.662 259.777 153.765 258.697 152.808 256.84L143.967 239.683C143.139 238.077 143.014 236.253 143.615 234.549C144.216 232.845 145.457 231.503 147.11 230.771L165.096 222.806C167.717 221.646 170.798 222.732 172.111 225.28L180.952 242.437C181.78 244.043 181.905 245.867 181.304 247.571C180.703 249.275 179.461 250.617 177.809 251.348L159.823 259.313C159.134 259.619 158.388 259.778 157.634 259.778L157.634 259.777ZM167.285 222.661C166.594 222.661 165.894 222.802 165.225 223.098L147.239 231.063C145.668 231.759 144.487 233.035 143.916 234.655C143.344 236.276 143.463 238.01 144.25 239.537L153.091 256.694C154.327 259.092 157.228 260.115 159.695 259.023L177.68 251.058C179.252 250.362 180.432 249.086 181.004 247.465C181.576 245.845 181.457 244.111 180.67 242.583L171.828 225.426C170.928 223.678 169.142 222.661 167.285 222.661L167.285 222.661Z" fill="#F45100"/>
<path d="M151.407 242.713L165.676 249.808L169.035 227.792" fill="white"/>
<path d="M165.676 249.967C165.652 249.967 165.628 249.962 165.605 249.951L151.337 242.856C151.299 242.837 151.27 242.804 151.257 242.764C151.243 242.724 151.246 242.68 151.265 242.642C151.284 242.604 151.317 242.575 151.357 242.562C151.397 242.549 151.441 242.552 151.479 242.57L165.552 249.568L168.878 227.768C168.881 227.748 168.888 227.728 168.899 227.71C168.91 227.691 168.924 227.676 168.941 227.663C168.958 227.651 168.977 227.642 168.997 227.637C169.018 227.632 169.039 227.631 169.06 227.634C169.081 227.637 169.1 227.644 169.118 227.655C169.136 227.666 169.152 227.68 169.164 227.697C169.177 227.714 169.186 227.734 169.191 227.754C169.195 227.775 169.196 227.796 169.193 227.816L165.834 249.832C165.828 249.87 165.809 249.904 165.78 249.929C165.751 249.953 165.714 249.967 165.676 249.967L165.676 249.967ZM194.524 56.5861L89.9994 106.703L86.0393 98.2328C80.0673 84.7996 88.7458 79.12 98.7297 74.7247L162.555 40.3953C172.763 35.9016 184.834 37.7389 189.948 47.6481L194.524 56.5861Z" fill="#1D1E1E"/>
<path d="M89.9993 106.862C89.969 106.862 89.9393 106.854 89.9137 106.837C89.8882 106.821 89.8678 106.798 89.855 106.77L85.8949 98.2999C83.7329 93.4368 83.3472 89.3553 84.7145 85.8195C86.8028 80.4186 92.6537 77.2251 98.6653 74.5786L162.48 40.2546C167.686 37.9623 173.264 37.3285 178.197 38.465C183.536 39.6949 187.648 42.8448 190.089 47.5747L194.666 56.5131C194.675 56.532 194.681 56.5527 194.683 56.5739C194.684 56.5951 194.682 56.6165 194.675 56.6366C194.668 56.6568 194.657 56.6754 194.643 56.6913C194.629 56.7072 194.612 56.7202 194.593 56.7293L90.0682 106.847C90.0467 106.857 90.0231 106.862 89.9993 106.862ZM173.242 38.2597C169.634 38.2597 165.95 39.0745 162.62 40.5408L98.8051 74.8648C92.845 77.4892 87.0579 80.6422 85.0116 85.9346C83.6764 89.3873 84.0601 93.3889 86.1849 98.1681L90.0757 106.49L194.308 56.513L189.806 47.7204C186.372 41.0649 179.936 38.2597 173.242 38.2597Z" fill="white"/>
<path d="M191.44 46.9015C186.326 36.9922 174.384 32.7707 164.176 37.2644L149.849 43.5715L149.849 43.5704L149.782 43.4138C144.429 31.2231 130.604 25.5066 118.903 30.6411C107.198 35.7756 102.047 49.8169 107.396 62.0039C107.429 62.078 107.459 62.1485 107.492 62.2189L94.3678 67.9965C84.3837 72.3918 80.1744 84.2934 85.1759 93.9856L91.4912 106.035L197.882 59.1979L191.44 46.9015ZM122.971 39.9138C129.757 36.9361 137.774 40.2533 140.876 47.3169C140.903 47.3727 140.925 47.4326 140.947 47.4885L116.395 58.2986C116.361 58.2352 116.332 58.1679 116.302 58.1008C113.2 51.0334 116.186 42.8914 122.971 39.9138Z" fill="#1D1E1E"/>
<path d="M91.4919 106.194C91.4343 106.194 91.379 106.163 91.3507 106.109L85.0354 94.0595C82.5956 89.3315 82.229 83.9663 84.0029 78.9515C85.7765 73.9368 89.4348 69.9943 94.3042 67.8507L107.281 62.1377L107.251 62.0691C101.875 49.8197 107.074 35.6562 118.839 30.4951C130.603 25.3337 144.55 31.0999 149.928 43.3497L149.933 43.3608L164.112 37.1186C174.374 32.6012 186.439 36.8664 191.581 46.8277L198.024 59.1239C198.034 59.1432 198.04 59.1644 198.041 59.1861C198.043 59.2078 198.04 59.2297 198.033 59.2502C198.026 59.2708 198.014 59.2897 197.999 59.3057C197.985 59.3217 197.967 59.3345 197.947 59.3433L91.5561 106.181C91.5359 106.19 91.5141 106.194 91.4921 106.194H91.4919ZM127.859 28.9218C124.798 28.9199 121.77 29.5551 118.967 30.7868C107.362 35.8775 102.237 49.8526 107.542 61.94L107.577 62.0188C107.597 62.0635 107.616 62.1073 107.637 62.1509C107.646 62.1701 107.651 62.191 107.652 62.2122C107.653 62.2335 107.649 62.2547 107.642 62.2746C107.634 62.2945 107.623 62.3128 107.608 62.3282C107.594 62.3437 107.576 62.356 107.557 62.3646L94.4328 68.1422C89.6447 70.2502 86.0472 74.1267 84.3032 79.0577C82.5591 83.9887 82.9197 89.2645 85.3182 93.9128L91.5641 105.829L197.663 59.1209L191.299 46.9754L191.298 46.9746C186.235 37.1613 174.349 32.9602 164.241 37.4101L149.914 43.7173C149.894 43.7262 149.872 43.7308 149.849 43.7307C149.827 43.7306 149.805 43.7259 149.785 43.7168C149.764 43.7077 149.746 43.6945 149.731 43.6779C149.716 43.6614 149.705 43.6419 149.698 43.6208L149.636 43.4762C145.648 34.3944 136.889 28.9218 127.858 28.9218H127.859ZM116.395 58.4578C116.338 58.4578 116.283 58.4266 116.254 58.3728C116.219 58.3063 116.188 58.2359 116.156 58.1655C113.024 51.0286 116.053 42.7759 122.908 39.768C129.763 36.7599 137.889 40.1174 141.022 47.2529C141.042 47.2956 141.062 47.3441 141.08 47.3916L141.095 47.4295C141.127 47.5091 141.09 47.5996 141.012 47.6343L116.459 58.4444C116.439 58.4534 116.417 58.4578 116.395 58.4578ZM128.165 38.9835C126.399 38.9824 124.653 39.3488 123.036 40.0595C116.342 42.9969 113.386 51.0616 116.448 58.0369L116.472 58.0909L140.742 47.4051C140.739 47.3982 140.735 47.3913 140.732 47.3846C138.43 42.1415 133.376 38.9835 128.165 38.9835Z" fill="white"/>
</g>
<defs>
<clipPath id="clip0_615_73232">
<rect width="328.383" height="350" fill="white" transform="translate(36.8086 26)"/>
</clipPath>
</defs>
</svg>
