<svg fill="none" viewBox="0 0 402 402" xmlns="http://www.w3.org/2000/svg" xmlns:xlink="http://www.w3.org/1999/xlink"><clipPath id="a"><path d="m51 54h300v293.581h-300z"/></clipPath><g clip-path="url(#a)"><path d="m313.201 225.918c-1.156 2.18-2.366 4.331-3.629 6.451-3.072 5.154-6.439 10.126-10.084 14.892-3.159 4.131-6.514 8.108-10.055 11.917-3.281 3.531-6.713 6.917-10.288 10.15-3.466 3.134-7.059 6.122-10.772 8.958-7.64 5.835-15.761 11.011-24.277 15.471-4.806 2.516-9.73 4.798-14.756 6.838-6.182 2.509-12.51 4.643-18.95 6.389-2.911.789-5.843 1.497-8.793 2.125-57.219 12.162-109.1748-8.936-134.2913-49.436l21.4688 34.618c25.1165 40.5 77.0715 61.598 134.2915 49.436 2.95-.627 5.882-1.336 8.793-2.125 6.44-1.746 12.768-3.88 18.95-6.389 5.026-2.04 9.95-4.322 14.755-6.838 8.516-4.46 16.638-9.635 24.277-15.47 3.713-2.836 7.307-5.825 10.772-8.959 3.575-3.232 7.008-6.619 10.289-10.149 3.54-3.809 6.896-7.786 10.054-11.918 3.646-4.765 7.013-9.737 10.085-14.891 1.262-2.12 2.472-4.271 3.629-6.451l-21.469-34.618z" fill="#1d1e1e"/><path d="m191.086 347.581c-16.554 0-32.564-2.822-47.356-8.423-23.628-8.948-42.757-24.385-55.319-44.641l-21.4688-34.618c-.0538-.096-.0685-.21-.0409-.316.0276-.107.0952-.199.1889-.257.0937-.059.2063-.078.3142-.056.1079.023.203.086.2654.177 20.823 33.577 58.9502 52.65 101.9572 52.653 10.402 0 21.082-1.115 31.881-3.41 2.942-.626 5.866-1.332 8.77-2.119 6.422-1.743 12.734-3.872 18.901-6.373 9.556-3.881 18.735-8.631 27.421-14.192 7.876-5.04 15.321-10.724 22.257-16.995 3.565-3.226 6.989-6.604 10.263-10.125 3.53-3.799 6.876-7.766 10.027-11.885 3.635-4.753 6.993-9.712 10.057-14.851 1.259-2.114 2.465-4.259 3.618-6.433.036-.066.088-.122.152-.162s.137-.062.213-.065c.169-.011.297.073.378.202l21.468 34.618c.081.13.086.293.015.427-1.16 2.186-2.373 4.343-3.639 6.47-3.082 5.167-6.458 10.153-10.112 14.932-3.168 4.142-6.532 8.129-10.082 11.949-3.29 3.539-6.731 6.934-10.315 10.175-3.474 3.142-7.077 6.138-10.798 8.982-3.744 2.859-7.604 5.561-11.571 8.1-4.148 2.653-8.407 5.125-12.768 7.41-4.818 2.521-9.755 4.809-14.794 6.855-6.198 2.515-12.542 4.654-18.998 6.406-2.919.791-5.859 1.501-8.817 2.13-10.792 2.294-21.54 3.435-32.068 3.435zm-116.3696-76.772 14.4226 23.256c25.86 41.699 78.394 61.03 133.838 49.243 2.942-.626 5.867-1.332 8.77-2.119 6.422-1.743 12.734-3.871 18.901-6.373 5.013-2.035 9.924-4.311 14.718-6.82 4.339-2.273 8.577-4.733 12.703-7.372 7.877-5.04 15.321-10.724 22.257-16.995 3.565-3.225 6.989-6.603 10.262-10.124 3.531-3.8 6.877-7.766 10.028-11.886 3.635-4.753 6.993-9.712 10.057-14.851 1.217-2.044 2.385-4.116 3.504-6.216l-20.947-33.777c-1.054 1.962-2.15 3.9-3.29 5.813-3.081 5.167-6.457 10.153-10.111 14.933-3.168 4.141-6.532 8.128-10.082 11.948-3.29 3.539-6.731 6.934-10.315 10.176-3.474 3.141-7.077 6.138-10.799 8.982-3.744 2.858-7.604 5.56-11.571 8.1-8.73 5.589-17.956 10.364-27.561 14.264-6.198 2.515-12.543 4.654-18.998 6.406-2.919.791-5.859 1.501-8.817 2.131-27.762 5.9-55.227 4.175-79.425-4.988-19.182-7.265-35.3998-18.807-47.5446-33.731z" fill="#fff"/><path d="m248.867 164.239c.475 2.055.814 4.139 1.017 6.239-4.293-2.677-9.076-4.737-14.227-6.101l-21.473-34.616c.388.103.776.21 1.16.322.878.251 1.742.522 2.596.818.194.066.388.133.582.204 3.033 1.073 5.957 2.432 8.734 4.058.301.174.602.352.899.536 1.772 1.086 3.471 2.288 5.084 3.598.21.174.425.347.629.521 2.973 2.484 5.614 5.34 7.859 8.498.108.153.22.307.328.465.036.046.071.102.102.153.174.247.343.497.506.751.204.307.403.619.597.935.062.092.118.184.169.276 2.463 4.032 4.313 8.503 5.438 13.337v.005z" fill="#1d1e1e"/><path d="m249.884 170.907c-.079 0-.158-.022-.227-.065-4.276-2.667-9.023-4.703-14.109-6.051-.106-.028-.197-.095-.255-.188l-21.473-34.615c-.045-.073-.067-.157-.064-.243.004-.086.033-.168.084-.237s.121-.121.202-.149c.081-.029.168-.032.251-.011.392.103.784.211 1.171.325.897.256 1.778.533 2.617.825.194.066.391.134.588.206 3.057 1.083 6.005 2.452 8.803 4.09.303.174.608.356.909.543 1.788 1.095 3.501 2.307 5.129 3.628l.219.181c.141.116.281.232.417.348 3 2.508 5.665 5.39 7.932 8.575l.115.163c.072.102.146.205.217.309.03.038.076.11.116.175.172.242.339.489.499.74.203.304.405.62.602.941.059.089.121.191.178.292 2.517 4.119 4.364 8.649 5.48 13.449.479 2.075.822 4.179 1.026 6.299.006.06-.001.12-.02.176-.018.057-.049.109-.089.154-.04.044-.089.079-.144.103-.054.025-.113.037-.173.037zm-13.953-6.9c4.814 1.291 9.329 3.19 13.435 5.652-.205-1.801-.513-3.588-.923-5.354-1.096-4.701-2.906-9.137-5.379-13.185-.05-.09-.103-.177-.16-.263-.193-.315-.392-.626-.597-.933-.165-.257-.33-.502-.499-.742-.041-.064-.066-.105-.092-.139-.073-.106-.147-.211-.222-.315l-.117-.166c-2.224-3.126-4.84-5.954-7.784-8.415-.135-.115-.272-.228-.409-.34l-.218-.18c-1.867-1.515-3.848-2.883-5.925-4.093-2.754-1.612-5.654-2.96-8.662-4.024-.196-.072-.386-.138-.578-.203-.826-.287-1.691-.56-2.575-.812l-.102-.029 20.806 33.541z" fill="#fff"/><path d="m235.656 164.377c-8.774-2.315-18.591-2.606-28.811-.434-4.064.865-8.045 2.084-11.896 3.643-2.186.884-4.326 1.875-6.414 2.969-3.674 1.922-7.177 4.155-10.47 6.673-1.604 1.226-3.158 2.516-4.656 3.869-1.538 1.394-3.016 2.854-4.43 4.374-1.535 1.651-2.99 3.375-4.359 5.166-1.574 2.061-3.027 4.211-4.354 6.439-1.932 3.255-3.567 6.653-4.865 10.138-2.32 6.235-3.556 12.765-3.516 19.352.005 1.4.072 2.806.199 4.216l.031.317c-5.565-3.46-10.297-7.962-13.91-13.307l-1.87-3.015c-.149-.266-.292-.526-.435-.792-.906-1.684-1.703-3.425-2.386-5.212-.812-2.122-1.467-4.302-1.957-6.52-.442-2.009-.756-4.043-.941-6.091-.126-1.402-.194-2.809-.204-4.216-.041-6.582 1.201-13.118 3.521-19.352 1.298-3.485 2.928-6.878 4.865-10.138 1.327-2.227 2.781-4.375 4.354-6.434 1.368-1.792 2.823-3.516 4.359-5.167 1.411-1.522 2.89-2.982 4.43-4.374 1.493-1.349 3.041-2.642 4.651-3.873 1.614-1.23 3.278-2.392 4.987-3.486 1.781-1.142 3.613-2.204 5.488-3.183 2.088-1.095 4.228-2.085 6.414-2.969 2.666-1.08 5.394-1.998 8.171-2.749 1.233-.335 2.475-.634 3.725-.899 10.215-2.172 20.037-1.881 28.806.439z" fill="#f45100"/><path d="m152.101 231.521c-.075.001-.148-.02-.212-.059-5.677-3.529-10.4-8.047-14.038-13.431l-1.88-3.028c-.159-.285-.303-.548-.447-.815-.915-1.701-1.72-3.458-2.41-5.262-.819-2.142-1.479-4.342-1.975-6.581-.445-2.026-.762-4.079-.949-6.145-.127-1.414-.196-2.832-.206-4.251-.04-6.507 1.153-13.069 3.548-19.505 1.3-3.49 2.948-6.924 4.898-10.207 1.336-2.24 2.799-4.402 4.381-6.475 1.377-1.802 2.841-3.537 4.386-5.198 1.42-1.531 2.907-2.999 4.457-4.4 1.505-1.362 3.066-2.661 4.677-3.896 1.624-1.236 3.298-2.406 5.017-3.506 1.792-1.149 3.635-2.218 5.522-3.203 4.666-2.445 9.585-4.373 14.669-5.752 1.241-.337 2.491-.638 3.749-.905 9.912-2.107 19.941-1.953 29.004.445.106.028.197.095.255.188l21.473 34.615c.045.073.067.158.064.243-.004.086-.033.169-.084.237-.051.069-.121.121-.202.15-.081.028-.169.032-.251.01-8.943-2.36-18.837-2.507-28.613-.429-6.338 1.352-12.461 3.563-18.2 6.573-3.652 1.91-7.135 4.13-10.409 6.634-1.595 1.219-3.139 2.502-4.629 3.846-1.529 1.386-2.998 2.837-4.404 4.348-1.525 1.641-2.971 3.355-4.332 5.135-1.563 2.048-3.007 4.184-4.326 6.397-1.927 3.247-3.553 6.634-4.832 10.068-2.355 6.328-3.528 12.788-3.488 19.201.005 1.382.071 2.788.197 4.179l.028.293c.016.163-.061.33-.199.416-.072.045-.155.069-.24.07zm47.036-103.236c-4.509 0-9.102.485-13.671 1.456-1.213.256-2.458.557-3.702.893-5.025 1.362-9.886 3.269-14.498 5.685-1.865.973-3.685 2.03-5.456 3.165-1.7 1.087-3.354 2.243-4.959 3.465-1.592 1.22-3.135 2.505-4.623 3.85-1.531 1.384-3 2.835-4.403 4.348-1.527 1.64-2.973 3.354-4.333 5.135-1.562 2.047-3.007 4.181-4.326 6.393-1.924 3.238-3.549 6.626-4.832 10.068-2.358 6.338-3.533 12.798-3.494 19.2.011 1.412.079 2.818.203 4.18.185 2.035.498 4.066.932 6.038.487 2.197 1.135 4.356 1.939 6.459.677 1.768 1.472 3.505 2.364 5.163.142.264.284.522.431.787l1.861 2.997c3.405 5.037 7.792 9.312 13.042 12.706-.098-1.233-.15-2.468-.155-3.704-.04-6.516 1.152-13.078 3.543-19.504 1.297-3.481 2.945-6.915 4.898-10.207 1.336-2.242 2.799-4.405 4.382-6.48 1.378-1.802 2.841-3.536 4.385-5.198 1.423-1.529 2.909-2.997 4.457-4.399 1.507-1.361 3.069-2.659 4.683-3.892 1.621-1.239 3.293-2.41 5.011-3.511 1.793-1.146 3.635-2.215 5.521-3.202 5.808-3.045 12.006-5.283 18.42-6.652 9.533-2.025 19.181-1.962 27.976.178l-20.824-33.569c-4.712-1.231-9.688-1.847-14.772-1.847z" fill="#fff"/><path d="m178.93 57.8528c23.075-4.9049 45.289-4.3979 65.235.6055l-29.979 71.3017c-8.77-2.318-18.591-2.608-28.808-.437-32.941 7.002-57.459 36.925-54.761 66.838.619 6.856 2.614 13.117 5.72 18.614l-71.4583 40.772c-7.0406-12.621-11.5633-26.961-12.979-42.655-6.26-69.385 50.6133-138.7971 127.0303-155.0392z" fill="#f45100"/><path d="m64.878 255.975c-.0763.001-.1514-.02-.2172-.058-.0658-.039-.1199-.095-.1567-.161-7.2569-13.009-11.642-27.418-13.0321-42.825-3.0379-33.67 8.5421-68.388 32.6068-97.759 24.0542-29.357 57.7072-49.8626 94.7602-57.7385 22.311-4.7417 44.935-4.5314 65.429.6094.06.0149.116.0425.165.0811.048.0386.087.0872.115.1425.027.0552.043.1158.045.1775.001.0617-.01.1231-.034.18l-29.979 71.302c-.039.095-.113.173-.205.219-.093.045-.199.056-.299.029-8.937-2.362-18.83-2.511-28.611-.432-32.684 6.947-57.098 36.725-54.423 66.38.599 6.645 2.506 12.849 5.667 18.442.055.098.07.215.04.324-.031.109-.103.202-.201.258l-71.4589 40.772c-.0645.037-.1376.057-.212.057zm114.14-197.703c-76.089 16.1728-132.9238 85.518-126.6925 154.582 1.3656 15.138 5.6442 29.302 12.7165 42.106l70.714-40.347c-3.096-5.602-4.969-11.795-5.566-18.414-2.713-30.072 22.004-60.26 55.098-67.294 9.78-2.079 19.677-1.957 28.647.347l29.641-70.4991c-20.239-4.991-42.55-5.1597-64.558-.4809z" fill="#fff"/><path d="m244.165 58.4583c41.063 10.2958 72.504 39.6608 81.989 80.1717l-77.289 25.605c-4.008-17.28-17.28-29.875-34.678-34.475z" fill="#fff"/><path d="m248.864 164.664c-.096-.001-.19-.034-.266-.094-.075-.06-.129-.144-.151-.238-3.878-16.724-16.727-29.493-34.37-34.158-.059-.016-.115-.044-.162-.083-.048-.038-.086-.087-.113-.142s-.042-.115-.044-.177c-.002-.061.01-.122.034-.178l29.979-71.3019c.039-.0943.111-.1712.203-.2169.091-.0457.196-.0572.295-.0323 42.213 10.584 72.98 40.6732 82.302 80.4891.024.104.009.214-.043.307-.053.093-.138.163-.239.197l-77.289 25.606c-.044.015-.089.022-.135.022zm-34.093-35.19c17.551 4.806 30.361 17.545 34.402 34.209l76.474-25.336c-9.328-39.1967-39.651-68.8345-81.23-79.3834z" fill="#1d1e1e"/><path d="m326.154 138.63c1.167 4.98 1.999 10.133 2.479 15.443 2.232 24.746-3.566 49.502-15.431 71.845l-69.723-24.539c4.966-9.529 7.385-20.051 6.436-30.575-.197-2.21-.547-4.403-1.05-6.564z" fill="#f45100"/><path d="m313.202 226.346c-.047 0-.095-.008-.142-.024l-69.723-24.539c-.058-.021-.111-.053-.155-.096-.044-.042-.079-.094-.101-.151-.023-.057-.033-.118-.03-.18.004-.061.02-.121.049-.175 5.089-9.765 7.298-20.256 6.388-30.339-.195-2.19-.543-4.364-1.04-6.505-.024-.104-.009-.214.043-.307s.138-.164.239-.197l77.289-25.611c.056-.018.116-.025.175-.019.059.005.117.023.169.052.051.029.097.069.133.116.035.048.061.102.074.16 1.176 5.018 2.013 10.233 2.489 15.503 2.166 24.008-3.186 48.935-15.479 72.085-.037.068-.091.126-.158.166-.066.04-.143.061-.22.061zm-69.116-25.208 68.911 24.254c12.092-22.911 17.35-47.55 15.209-71.281-.457-5.07-1.252-10.09-2.363-14.927l-76.473 25.34c.459 2.057.784 4.142.972 6.242.91 10.095-1.252 20.586-6.256 30.373z" fill="#fff"/><path d="m136.337 214.775c10.442 18.465 33.422 28.26 58.812 22.863 21.355-4.539 39.168-18.708 48.33-36.259l69.722 24.539c-21.367 40.293-62.439 72.741-111.604 83.191-59.132 12.568-112.6423-10.383-136.7191-53.562z" fill="#fff"/><path d="m169.587 312.971c-17.421 0-34.216-3.131-49.654-9.34-24.2322-9.747-43.3988-26.302-55.4284-47.875-.0551-.099-.069-.215-.0387-.324s.1024-.201.2006-.257l71.4585-40.772c.049-.028.103-.046.159-.053s.113-.003.167.012c.11.03.203.103.259.202 8.608 15.223 25.727 24.087 44.898 24.088 4.402 0 8.911-.467 13.452-1.433 20.585-4.375 38.543-17.847 48.039-36.038.048-.091.127-.163.223-.2.096-.038.202-.04.299-.006l69.723 24.54c.117.041.211.132.257.248.045.116.038.246-.021.356-10.707 20.191-26.439 38.493-45.498 52.927-19.654 14.887-42.613 25.427-66.396 30.483-10.816 2.298-21.573 3.442-32.099 3.442zm-104.127-57.263c24.6446 43.768 79.255 65.055 136.048 52.982 47.34-10.062 88.828-40.897 111.082-82.533l-68.903-24.251c-9.658 18.248-27.741 31.751-48.448 36.152-12.376 2.63-24.568 1.764-35.259-2.505-10.324-4.122-18.546-11.099-23.802-20.194l-70.718 40.35z" fill="#1d1e1e"/><path d="m343.401 159.473c-1.585-4.144-3.434-8.181-5.537-12.088-.998-1.856-2.054-3.68-3.165-5.471l-21.469-34.618c1.111 1.791 2.167 3.615 3.166 5.471 2.102 3.906 3.951 7.944 5.536 12.088 1.717 4.491 3.128 9.093 4.222 13.775l21.468 34.618c-1.094-4.682-2.504-9.284-4.221-13.775z" fill="#fff"/><path d="m347.622 173.676c-.073 0-.145-.019-.209-.054-.063-.036-.117-.087-.155-.149l-21.469-34.618c-.024-.04-.042-.083-.053-.129-1.091-4.662-2.495-9.246-4.204-13.719-1.58-4.126-3.422-8.147-5.514-12.038-.993-1.844-2.043-3.658-3.146-5.438l-.006-.01c-.054-.096-.068-.209-.041-.316.028-.107.095-.199.189-.257s.206-.078.314-.056c.108.023.203.086.266.177l21.468 34.619c1.115 1.798 2.175 3.63 3.179 5.494 2.11 3.923 3.967 7.977 5.559 12.138 1.723 4.509 3.139 9.13 4.238 13.83.015.063.015.129.001.192-.014.062-.043.121-.083.172-.04.05-.091.091-.149.119s-.122.043-.186.043zm-21.067-35.213 19.997 32.248c-.98-3.757-2.165-7.458-3.551-11.085-1.58-4.126-3.422-8.147-5.514-12.038-.995-1.848-2.046-3.665-3.152-5.449l-14.466-23.327c.881 1.938 1.702 3.902 2.463 5.889 1.714 4.488 3.125 9.085 4.223 13.762z" fill="#1d1e1e"/><path d="m350.101 188.691c-.437-4.844-1.168-9.558-2.179-14.129-.097-.439-.197-.877-.299-1.314l-21.469-34.618c1.185 5.083 2.013 10.244 2.478 15.443.292 3.23.448 6.471.469 9.714.102 15.437-2.83 30.753-8.318 45.36-2.146 5.711-4.683 11.313-7.581 16.772l21.469 34.618c2.898-5.459 5.435-11.061 7.581-16.772 5.487-14.606 8.42-29.923 8.318-45.36-.021-3.243-.178-6.484-.469-9.714z" fill="#f45100"/><path d="m334.67 260.964c-.148 0-.286-.076-.364-.202l-21.468-34.618c-.04-.064-.062-.137-.064-.212-.003-.074.014-.149.05-.215 2.895-5.454 5.438-11.08 7.557-16.721 5.601-14.908 8.391-30.117 8.291-45.207-.022-3.231-.177-6.46-.467-9.678-.43-4.773-1.161-9.508-2.171-14.075-.096-.437-.196-.874-.297-1.31-.023-.098-.011-.202.036-.292.046-.091.123-.161.217-.2s.198-.043.295-.012c.096.031.179.095.232.181l21.469 34.619c.025.04.043.082.053.128.103.438.203.878.3 1.318 1.018 4.603 1.754 9.376 2.188 14.184.292 3.242.448 6.494.47 9.749.1 15.195-2.707 30.508-8.345 45.514-2.135 5.681-4.693 11.341-7.604 16.822-.035.066-.088.122-.152.162s-.137.062-.212.065zm-20.975-35.063 20.945 33.775c2.75-5.243 5.174-10.644 7.21-16.062 5.601-14.908 8.391-30.117 8.291-45.207-.021-3.231-.177-6.46-.467-9.678-.43-4.773-1.161-9.508-2.17-14.075-.092-.414-.186-.828-.283-1.24l-20.103-32.418c.9 4.305 1.548 8.658 1.941 13.038.292 3.242.449 6.494.47 9.749.1 15.195-2.707 30.508-8.345 45.514-2.105 5.601-4.623 11.186-7.488 16.604z" fill="#fff"/></g></svg>
