<svg viewBox="0 0 402 402" fill="none" xmlns="http://www.w3.org/2000/svg">
<g clip-path="url(#clip0_615_73215)">
<path d="M259.299 51.4858L272.999 57.2899L271.626 60.6508L263.629 57.2626L259.299 51.4858Z" fill="#1D1E1E"/>
<path d="M271.627 60.9038C271.593 60.9039 271.559 60.8971 271.528 60.8838L263.53 57.4956C263.489 57.4781 263.453 57.4501 263.426 57.4144L259.096 51.6376C259.063 51.5931 259.045 51.5388 259.046 51.4831C259.047 51.4275 259.066 51.3736 259.1 51.3298C259.171 51.2395 259.294 51.2088 259.398 51.2526L273.099 57.057C273.16 57.083 273.209 57.132 273.234 57.1936C273.26 57.2551 273.26 57.3242 273.235 57.3858L271.862 60.7464C271.842 60.7928 271.81 60.8326 271.768 60.8606C271.726 60.8887 271.677 60.9037 271.627 60.9038ZM263.791 57.0559L271.489 60.3173L272.671 57.4253L260.065 52.0847L263.791 57.0559Z" fill="white"/>
<path d="M314.376 78.7629L305.312 31.5294L300.982 25.7529L310.046 72.9862L299.04 68.3227L299.04 68.3224L295.965 67.0198L245.662 190.113L222.421 181.059L192.878 169.553L110.849 369.226L87.623 360.132L89.4298 365.768L113.455 375.247L193.972 175.764L243.624 195.104L246.732 196.322L297.667 71.6833L314.376 78.7629Z" fill="#1D1E1E"/>
<path d="M113.456 375.5C113.424 375.5 113.392 375.494 113.363 375.482L89.3374 366.004C89.3025 365.99 89.271 365.969 89.2454 365.941C89.2197 365.914 89.2006 365.881 89.1892 365.845L87.3824 360.209C87.3676 360.163 87.3661 360.115 87.3781 360.068C87.3901 360.022 87.4151 359.98 87.4501 359.947C87.4851 359.914 87.5287 359.892 87.5759 359.883C87.623 359.874 87.6717 359.879 87.7163 359.896L110.709 368.9L192.644 169.457C192.669 169.395 192.718 169.346 192.779 169.32C192.84 169.294 192.909 169.293 192.971 169.317L245.523 189.787L295.731 66.9243C295.743 66.8933 295.762 66.8651 295.786 66.8414C295.81 66.8176 295.838 66.7988 295.869 66.7861C295.9 66.7733 295.933 66.7668 295.967 66.7669C296 66.767 296.033 66.7738 296.064 66.7869L299.139 68.0895L299.155 68.0966L309.709 72.5682L300.734 25.801C300.723 25.7447 300.732 25.6863 300.758 25.6355C300.785 25.5847 300.828 25.5444 300.88 25.5212C300.933 25.498 300.992 25.4932 301.047 25.5078C301.103 25.5223 301.152 25.5553 301.186 25.6012L305.516 31.3777C305.539 31.4083 305.554 31.4443 305.562 31.4817L314.625 78.7152C314.634 78.7603 314.63 78.8069 314.614 78.8499C314.598 78.893 314.571 78.931 314.535 78.9598C314.5 78.9887 314.457 79.0073 314.411 79.0137C314.366 79.0201 314.319 79.014 314.277 78.9962L297.804 72.0166L246.966 196.417C246.941 196.479 246.893 196.528 246.832 196.554C246.77 196.58 246.701 196.581 246.639 196.557L243.531 195.34L194.114 176.091L113.691 375.341C113.672 375.388 113.639 375.428 113.597 375.457C113.556 375.485 113.506 375.5 113.456 375.5ZM89.6351 365.577L113.315 374.919L193.738 175.669C193.763 175.608 193.811 175.558 193.873 175.532C193.934 175.505 194.003 175.504 194.065 175.528L243.716 194.868L246.592 195.994L297.433 71.5873C297.445 71.5562 297.464 71.528 297.488 71.5043C297.511 71.4805 297.54 71.4617 297.571 71.4489C297.602 71.4361 297.635 71.4296 297.668 71.4298C297.702 71.4299 297.735 71.4367 297.766 71.4498L314.038 78.3444L305.075 31.6341L301.439 26.7829L310.296 72.9382C310.304 72.9833 310.3 73.0298 310.284 73.0728C310.269 73.1159 310.241 73.1538 310.206 73.1827C310.17 73.2115 310.127 73.2301 310.082 73.2365C310.036 73.243 309.99 73.237 309.948 73.2192L298.941 68.5558L298.926 68.5489L296.103 67.3529L245.897 190.209C245.872 190.27 245.824 190.319 245.763 190.346C245.702 190.372 245.633 190.373 245.571 190.349L193.018 169.879L111.083 369.322C111.058 369.384 111.01 369.433 110.949 369.459C110.888 369.485 110.818 369.486 110.757 369.462L88.0274 360.562L89.6351 365.577Z" fill="white"/>
<path d="M192.878 169.553L110.849 369.226L87.623 360.132L169.636 160.499L192.878 169.553Z" fill="#F45100"/>
<path d="M110.849 369.479C110.817 369.479 110.786 369.473 110.756 369.462L87.5308 360.367C87.4995 360.355 87.471 360.337 87.4469 360.313C87.4227 360.29 87.4035 360.262 87.3902 360.231C87.3772 360.2 87.3703 360.167 87.3701 360.134C87.3699 360.1 87.3763 360.067 87.389 360.036L169.402 160.403C169.427 160.342 169.475 160.293 169.537 160.267C169.598 160.24 169.666 160.239 169.728 160.263L192.97 169.317C193.001 169.33 193.03 169.348 193.054 169.371C193.078 169.395 193.097 169.423 193.11 169.453C193.124 169.484 193.131 169.518 193.131 169.551C193.131 169.585 193.125 169.618 193.112 169.649L111.083 369.322C111.064 369.369 111.032 369.408 110.99 369.436C110.948 369.464 110.899 369.479 110.849 369.479ZM87.9554 359.99L110.709 368.899L192.546 169.695L169.776 160.825L87.9554 359.99Z" fill="white"/>
<path d="M300.983 25.7529L310.047 72.9862L295.965 67.0198L245.663 190.113L222.422 181.059L273 57.2897L259.3 51.4856L300.983 25.7529Z" fill="#F45100"/>
<path d="M245.662 190.367C245.631 190.367 245.6 190.361 245.571 190.35L222.329 181.296C222.298 181.283 222.269 181.265 222.245 181.242C222.221 181.218 222.202 181.19 222.189 181.16C222.175 181.129 222.168 181.096 222.168 181.062C222.168 181.029 222.174 180.995 222.186 180.964L272.67 57.4258L259.199 51.7192C259.157 51.701 259.12 51.6715 259.093 51.6337C259.065 51.596 259.049 51.5516 259.046 51.5052C259.042 51.4589 259.052 51.4125 259.073 51.3711C259.094 51.3298 259.126 51.295 259.165 51.2706L300.849 25.5382C300.92 25.4942 301.008 25.4886 301.085 25.522C301.161 25.5554 301.216 25.624 301.231 25.706L310.295 72.9393C310.304 72.9843 310.3 73.0309 310.284 73.074C310.268 73.117 310.241 73.155 310.205 73.1839C310.169 73.2127 310.127 73.2313 310.081 73.2377C310.036 73.2441 309.989 73.2381 309.947 73.2202L296.102 67.3539L245.897 190.21C245.878 190.256 245.845 190.296 245.804 190.324C245.762 190.352 245.713 190.367 245.662 190.367L245.662 190.367ZM222.753 180.917L245.522 189.787L295.73 66.9246C295.743 66.8935 295.762 66.8653 295.785 66.8416C295.809 66.8178 295.837 66.799 295.868 66.7862C295.899 66.7734 295.933 66.7669 295.966 66.7671C296 66.7672 296.033 66.7741 296.064 66.7871L309.708 72.5684L300.803 26.1619L259.848 51.444L273.098 57.0572C273.159 57.0832 273.208 57.1323 273.233 57.1939C273.259 57.2554 273.259 57.3244 273.234 57.3861L222.753 180.918L222.753 180.917Z" fill="white"/>
</g>
<defs>
<clipPath id="clip0_615_73215">
<rect width="227.26" height="350" fill="white" transform="translate(87.3701 25.5)"/>
</clipPath>
</defs>
</svg>
