<svg viewBox="0 0 402 402" fill="none" xmlns="http://www.w3.org/2000/svg">
<g clip-path="url(#clip0_615_73211)">
<path d="M64.7822 279.365C66.3077 299.803 71.5864 318.816 82.1661 334.705C171.931 379.777 329.786 268.517 336.466 256.43C339.662 250.645 339.52 236.633 337.166 218.896C338.223 231.374 337.772 240.971 335.264 245.502C328.584 257.59 170.729 368.843 80.9646 323.777C72.2971 310.756 67.1828 295.647 64.7822 279.365V279.365Z" fill="#1D1E1E"/>
<path d="M131.759 345.994C113.92 345.994 96.965 342.81 81.8953 335.244C81.8017 335.197 81.7219 335.126 81.6638 335.039C71.7006 320.076 65.8175 301.36 64.1796 279.409C64.1673 279.253 64.2163 279.098 64.3164 278.977C64.4165 278.856 64.5598 278.779 64.7159 278.761C64.872 278.744 65.0287 278.788 65.1527 278.885C65.2768 278.981 65.3585 279.122 65.3805 279.277C67.8851 296.26 73.2671 311.073 81.3798 323.309C128.491 346.851 193.096 326.641 239.019 305.524C289.325 282.39 331.253 251.513 334.736 245.211C337.036 241.055 337.668 231.974 336.565 218.947C336.551 218.789 336.599 218.632 336.699 218.509C336.799 218.387 336.944 218.308 337.102 218.291C337.259 218.274 337.417 218.319 337.541 218.418C337.666 218.516 337.747 218.659 337.766 218.816C339.548 232.248 340.86 249.726 336.996 256.722C331.471 266.719 220.742 345.994 131.759 345.994ZM82.5813 334.236C129.692 357.78 194.299 337.571 240.221 316.453C290.526 293.319 332.454 262.439 335.938 256.138C337.927 252.537 338.667 245.469 338.151 235.364C337.837 240.037 337.05 243.526 335.794 245.795C329.161 257.795 170.938 369.622 80.6938 324.317C80.6001 324.269 80.5204 324.199 80.4623 324.111C74.6892 315.44 70.2766 305.492 67.2759 294.41C70.0204 309.676 75.1455 323.024 82.5813 334.236Z" fill="white"/>
<path d="M127.695 61.8824C145.671 48.8655 260.508 61.9229 297.251 79.3769C313.967 105.7 333.707 177.886 337.167 218.895C338.223 231.374 337.772 240.97 335.264 245.502C328.584 257.59 170.729 368.843 80.9648 323.776C72.2973 310.756 67.1831 295.646 64.7824 279.364C51.7513 191.109 118.249 68.722 127.695 61.8824ZM75.0588 263.102C75.0612 263.134 75.0703 263.172 75.066 263.212C75.2026 264.821 75.3573 266.423 75.5381 268.017L75.717 269.494C75.7218 269.565 75.7333 269.642 75.7448 269.712L75.9478 271.259C76.0608 272.063 76.1811 272.868 76.3062 273.665C76.4319 274.463 76.5643 275.267 76.7093 276.056C76.9922 277.643 77.3071 279.221 77.6528 280.777C77.9985 282.334 78.369 283.882 78.7775 285.415C79.0114 286.283 79.2514 287.15 79.504 288.01C79.6968 288.661 79.8896 289.305 80.0951 289.95C80.2365 290.417 80.3913 290.884 80.5454 291.344C80.9102 292.456 81.2979 293.561 81.7082 294.657C81.8285 295.003 81.9614 295.343 82.095 295.688C82.127 295.776 82.1585 295.864 82.1972 295.952C82.3313 296.311 82.4721 296.669 82.619 297.026C82.868 297.647 83.1231 298.262 83.3842 298.87C83.5691 299.302 83.7522 299.722 83.9426 300.147C84.1421 300.604 84.3475 301.061 84.5591 301.511C84.7404 301.891 84.9205 302.266 85.1018 302.647C85.335 303.135 85.5748 303.619 85.821 304.101C86.0676 304.593 86.3203 305.079 86.5795 305.564C87.0832 306.517 87.6059 307.459 88.1473 308.391C88.1612 308.409 88.1691 308.428 88.183 308.446C88.3002 308.651 88.4175 308.856 88.5414 309.06C88.5414 309.066 88.5492 309.079 88.5559 309.085C88.6798 309.296 88.8109 309.506 88.9348 309.717C88.927 309.698 88.9197 309.686 88.9119 309.667C89.5171 310.677 90.1468 311.673 90.8006 312.653C172.4 353.622 315.893 252.487 321.965 241.499C331.084 225.013 310.307 134.807 291.376 97.5488C290.891 96.5933 290.391 95.6449 289.878 94.7039C289.547 94.1015 289.216 93.5177 288.893 92.9461C288.885 92.934 288.879 92.928 288.871 92.9153C288.713 92.641 288.552 92.3683 288.389 92.0971C288.071 91.5574 287.744 91.0228 287.408 90.4934C286.077 89.8678 284.728 89.2786 283.364 88.7266C282.886 88.5338 282.396 88.3417 281.893 88.1507C279.64 87.28 277.188 86.4352 274.563 85.6026C273.983 85.4165 273.39 85.2316 272.79 85.0466C269.193 83.9517 265.307 82.89 261.193 81.8755C260.504 81.7033 259.815 81.5377 259.119 81.3667C258.415 81.2011 257.712 81.0366 257.008 80.873C254.464 80.283 251.914 79.7226 249.358 79.192C248.612 79.0367 247.866 78.888 247.113 78.7334C245.972 78.5062 244.829 78.2814 243.687 78.059C242.142 77.7595 240.595 77.4699 239.047 77.1901C238.27 77.0499 237.486 76.9103 236.702 76.7707C234.723 76.4199 232.741 76.0852 230.756 75.7664C229.954 75.6408 229.152 75.509 228.35 75.3833L227.149 75.1948C226.726 75.1271 226.309 75.0655 225.884 74.9978C225.461 74.9362 225.044 74.8752 224.62 74.8069C222.847 74.5483 221.062 74.2902 219.278 74.0449C218.515 73.9361 217.748 73.834 216.986 73.7313C216.562 73.6703 216.133 73.6159 215.71 73.5609C214.86 73.446 214.01 73.3367 213.159 73.2328C212.306 73.1234 211.454 73.0207 210.602 72.918C209.756 72.8146 208.904 72.7119 208.059 72.6152C207.63 72.5675 207.207 72.5186 206.784 72.4702C205.515 72.3261 204.246 72.1875 202.975 72.0545C202.553 72.0128 202.137 71.9699 201.715 71.9215C201.084 71.8551 200.454 71.7886 199.824 71.7288L197.934 71.5487C196.33 71.3935 194.724 71.2498 193.118 71.1179C193.008 71.1124 192.904 71.1004 192.793 71.0883L192.417 71.0562C190.554 70.9024 188.691 70.7614 186.827 70.6333C186.425 70.6024 186.017 70.5795 185.615 70.5487C184.024 70.4425 182.433 70.3474 180.841 70.2635C180.452 70.2447 180.058 70.2206 179.669 70.2018C178.893 70.1594 178.116 70.1223 177.339 70.0906C174.35 69.9565 171.359 69.8671 168.367 69.8224C168.367 69.8224 168.36 69.8296 168.36 69.8224C162.012 69.7293 156.183 69.8647 151.115 70.2768C150.216 70.3444 149.338 70.4242 148.493 70.5148C148.077 70.5565 147.66 70.5976 147.257 70.6514L146.86 70.6979C145.766 70.8309 144.712 70.9807 143.711 71.1463C143.34 71.2037 142.977 71.2677 142.62 71.3372H142.614C142.29 71.3964 141.968 71.4594 141.646 71.5264C141.328 71.5868 141.016 71.6533 140.712 71.7258C140.508 71.7717 140.305 71.8182 140.108 71.8641C139.905 71.9101 139.708 71.9626 139.517 72.008C138.947 72.1566 138.396 72.3101 137.872 72.4757C137.703 72.5325 137.532 72.5893 137.362 72.64C137.102 72.7261 136.843 72.8169 136.587 72.9125C136.36 72.9989 136.14 73.0787 135.933 73.1699C135.707 73.2564 135.495 73.3548 135.288 73.4527C134.825 73.6583 134.376 73.8936 133.943 74.1573H133.937C133.708 74.2963 133.485 74.4401 133.283 74.59C133.093 74.7309 132.914 74.8854 132.747 75.0522C132.649 75.1428 132.547 75.2462 132.439 75.3634C132.337 75.474 132.222 75.5912 132.108 75.7217C130.642 77.3828 128.498 80.4652 125.902 84.7391C125.571 85.2775 125.241 85.8292 124.899 86.3947V86.4008C124.369 87.2925 123.846 88.1884 123.33 89.0885C122.173 91.1051 121.044 93.137 119.942 95.1837C119.546 95.9076 119.152 96.6508 118.752 97.4001V97.4068C118.346 98.1633 117.942 98.9392 117.531 99.7223V99.7283C116.897 100.94 116.273 102.157 115.659 103.378C114.786 105.098 113.928 106.825 113.085 108.56C112.645 109.459 112.208 110.359 111.774 111.262C111.33 112.194 110.889 113.127 110.45 114.062C109.774 115.5 109.105 116.941 108.444 118.385C108.219 118.878 107.995 119.371 107.772 119.87C106.853 121.892 105.952 123.921 105.067 125.957C104.845 126.482 104.616 127.001 104.388 127.532C103.701 129.123 103.023 130.717 102.355 132.315C100.027 137.909 97.807 143.547 95.6967 149.226C94.8165 151.585 93.9597 153.953 93.1262 156.329C92.4906 158.14 91.8669 159.954 91.255 161.772C90.8489 162.993 90.4422 164.214 90.036 165.442V165.449C89.6313 166.679 89.2345 167.913 88.8454 169.149V169.155C88.47 170.355 88.0947 171.554 87.7321 172.76C87.3575 173.963 86.995 175.171 86.6448 176.382C86.4605 176.987 86.283 177.595 86.1123 178.205C85.6893 179.653 85.2795 181.112 84.8764 182.572C84.4311 184.176 83.9996 185.784 83.5818 187.395C83.3521 188.275 83.1219 189.155 82.8988 190.041V190.047C82.3298 192.304 81.7842 194.566 81.2622 196.834C81.1068 197.49 80.9588 198.152 80.8101 198.807C80.2385 201.372 79.699 203.944 79.1916 206.522C79.0906 207.025 78.9963 207.529 78.9014 208.025V208.031C78.7818 208.633 78.6682 209.234 78.5612 209.835C78.5364 209.946 78.5183 210.057 78.5001 210.168C78.4905 210.214 78.4802 210.253 78.4766 210.292C78.3345 211.044 78.2052 211.794 78.0698 212.545C78.0281 212.78 77.9925 213.015 77.9508 213.256C77.9284 213.4 77.9054 213.537 77.877 213.681C77.8051 214.137 77.7265 214.594 77.648 215.044L77.4449 216.316C77.3977 216.571 77.3633 216.825 77.3228 217.072C77.2053 217.821 77.0911 218.571 76.9801 219.321V219.334C76.8713 220.089 76.7619 220.839 76.6586 221.594C76.5975 222.018 76.5365 222.441 76.4875 222.864C76.4405 223.193 76.3964 223.523 76.3552 223.853C76.2585 224.601 76.1672 225.343 76.0766 226.09C76.0675 226.143 76.0645 226.194 76.0554 226.246C76.0064 226.662 75.9581 227.085 75.9158 227.501C75.8711 227.878 75.8257 228.261 75.7877 228.638C75.7149 229.287 75.6454 229.937 75.5792 230.587L75.5804 230.606C75.5689 230.717 75.5574 230.834 75.5453 230.944C75.5114 231.282 75.4808 231.619 75.4534 231.957C75.4146 232.324 75.3818 232.692 75.3549 233.06C75.3295 233.256 75.3168 233.443 75.3036 233.625C75.2884 233.781 75.2727 233.931 75.2637 234.079C75.2287 234.416 75.2003 234.753 75.1784 235.091C75.1192 235.831 75.0672 236.57 75.0141 237.308L75.0153 237.328C74.9953 237.6 74.9754 237.878 74.9627 238.157C74.9294 238.617 74.9035 239.076 74.8769 239.536C74.8769 239.543 74.8714 239.55 74.8787 239.562C74.8624 239.789 74.8454 240.016 74.8418 240.242C74.8279 240.417 74.8206 240.592 74.8134 240.773C74.7921 241.1 74.7737 241.429 74.7584 241.757C74.7524 241.944 74.7391 242.132 74.7385 242.313C74.7342 242.435 74.7233 242.559 74.7252 242.681C74.707 242.979 74.6949 243.277 74.6895 243.567C74.6804 243.716 74.6708 243.859 74.6738 244C74.6582 244.334 74.6489 244.668 74.646 245.002C74.6369 245.151 74.6279 245.3 74.6315 245.448C74.6248 245.635 74.6182 245.816 74.6176 245.997C74.6099 246.07 74.6085 246.143 74.6133 246.216C74.5988 246.669 74.5916 247.128 74.5843 247.579C74.5771 247.851 74.5759 248.115 74.5686 248.386C74.5644 248.703 74.5602 249.013 74.5686 249.322C74.5643 249.433 74.5633 249.545 74.5656 249.657C74.5596 249.941 74.559 250.219 74.5656 250.502C74.559 251.154 74.5644 251.798 74.5765 252.449C74.5788 253.056 74.5903 253.664 74.6109 254.272C74.6109 254.368 74.6109 254.459 74.6176 254.555L74.6248 254.942L74.6272 254.98C74.6436 255.695 74.6671 256.403 74.6961 257.11L74.6986 257.149C74.7282 257.857 74.7632 258.564 74.7989 259.271C74.8345 259.978 74.8829 260.683 74.9313 261.39C74.9705 261.961 75.0092 262.526 75.0545 263.097L75.0588 263.102Z" fill="#F45100"/>
<path d="M130.556 335.065C112.717 335.067 95.7645 331.882 80.6942 324.317C80.6004 324.27 80.5206 324.199 80.4627 324.112C72.2014 311.701 66.7251 296.675 64.1848 279.453C57.2368 232.397 72.8904 177.578 87.2451 139.878C103.373 97.5237 122.371 64.9923 127.341 61.3933C137.26 54.2105 174.22 55.2413 205.501 58.6022C244.3 62.7704 280.417 70.711 297.511 78.8316C297.614 78.8803 297.701 78.9572 297.762 79.0533C305.588 91.3778 314.7 114.854 322.762 143.465C330.491 170.895 336.101 199.074 337.769 218.846C338.909 232.301 338.244 241.367 335.794 245.796C330.269 255.792 219.542 335.059 130.556 335.066L130.556 335.065ZM81.3801 323.309C128.491 346.851 193.097 326.64 239.02 305.523C289.326 282.39 331.253 251.512 334.736 245.211C337.036 241.055 337.668 231.974 336.565 218.946C333.289 180.114 313.945 106.949 296.836 79.8479C258.527 61.7637 145.132 50.0036 128.051 62.3716C123.31 65.8044 104.17 98.8265 88.3753 140.308C74.0713 177.874 58.4716 232.478 65.3809 279.276C67.8855 296.26 73.2675 311.073 81.3801 323.309ZM135.876 322.97C119.655 322.97 104.234 320.075 90.5305 313.194C90.437 313.147 90.3573 313.076 90.299 312.989C89.6659 312.04 89.0551 311.076 88.4671 310.099C88.4483 310.076 88.4312 310.051 88.4158 310.026L88.0362 309.392L88.0253 309.374C87.9037 309.171 87.7844 308.967 87.6675 308.762C87.6579 308.748 87.65 308.734 87.644 308.724C87.0916 307.776 86.5586 306.817 86.0454 305.847C85.7843 305.358 85.5292 304.868 85.2802 304.371C85.0324 303.887 84.7913 303.399 84.5568 302.908L84.0134 301.77C83.7991 301.313 83.5909 300.852 83.3891 300.388C82.9267 299.351 82.4834 298.305 82.0595 297.251C81.9114 296.891 81.769 296.529 81.6322 296.164C81.6007 296.094 81.5645 295.994 81.5276 295.895L81.4774 295.764C81.3602 295.461 81.2436 295.16 81.1378 294.855C80.7265 293.756 80.3376 292.648 79.9713 291.533C79.8132 291.066 79.6617 290.597 79.5168 290.125C79.3127 289.479 79.1152 288.832 78.9245 288.182C78.6701 287.316 78.4289 286.445 78.1938 285.573C77.7843 284.026 77.4073 282.471 77.063 280.909C76.714 279.334 76.398 277.751 76.1154 276.163C75.9704 275.364 75.8352 274.562 75.7098 273.759C75.5835 272.955 75.4634 272.149 75.3496 271.343L75.1465 269.79C75.1315 269.706 75.1208 269.621 75.1145 269.536L74.9386 268.09C74.7634 266.542 74.6086 264.966 74.4648 263.263C74.4631 263.243 74.4623 263.223 74.4624 263.202L74.4563 263.15V263.147C74.4152 262.631 74.3802 262.122 74.3439 261.607L74.3318 261.437C74.2835 260.727 74.2351 260.016 74.1989 259.306C74.1626 258.598 74.1275 257.889 74.0979 257.18C74.0669 256.453 74.043 255.727 74.026 255L74.0157 254.575C74.0107 254.49 74.0085 254.406 74.0091 254.321C73.9886 253.7 73.9771 253.079 73.9746 252.457C73.9619 251.81 73.9565 251.159 73.9632 250.501C73.9565 250.23 73.9565 249.942 73.9632 249.649C73.9604 249.531 73.9616 249.413 73.9668 249.295C73.9597 249.006 73.9593 248.717 73.9656 248.429L73.9819 247.568C73.9891 247.12 73.9964 246.658 74.0109 246.202C74.0055 246.16 74.0067 246.057 74.0181 245.942C74.0157 245.812 74.0224 245.624 74.0302 245.429C74.0283 245.282 74.0327 245.135 74.0435 244.988C74.0466 244.658 74.0562 244.321 74.0719 243.977C74.0711 243.834 74.0762 243.691 74.087 243.549C74.0931 243.26 74.1052 242.955 74.1245 242.648C74.1237 242.57 74.1261 242.491 74.1318 242.412L74.1372 242.297C74.1372 242.189 74.1433 242.059 74.1493 241.929L74.1578 241.741C74.1741 241.399 74.191 241.071 74.2134 240.737C74.22 240.564 74.2273 240.381 74.2424 240.198C74.2448 240.011 74.2599 239.79 74.2762 239.567V239.506C74.3028 239.043 74.3294 238.581 74.3633 238.118C74.3753 237.859 74.3941 237.585 74.4134 237.318C74.4134 237.3 74.4134 237.282 74.4146 237.269C74.4672 236.529 74.5198 235.789 74.5784 235.048C74.6002 234.712 74.6292 234.367 74.6648 234.021C74.6709 233.921 74.6824 233.795 74.6951 233.665L74.7047 233.572C74.7198 233.362 74.7337 233.178 74.7591 232.986C74.7827 232.65 74.8159 232.274 74.8558 231.897C74.883 231.569 74.912 231.228 74.9465 230.887L74.9779 230.584C74.9779 230.565 74.9791 230.546 74.9803 230.531C75.0408 229.929 75.1066 229.328 75.1725 228.726L75.1888 228.577C75.2269 228.201 75.2722 227.814 75.3176 227.433C75.3593 227.024 75.4076 226.598 75.4572 226.179L76.0682 226.172L75.4681 226.104C75.4721 226.065 75.4774 226.026 75.4838 225.987C75.5702 225.272 75.6609 224.529 75.7576 223.779C75.7999 223.446 75.8434 223.116 75.8911 222.781C75.9383 222.37 76.0005 221.94 76.0628 221.511C76.1546 220.833 76.2532 220.154 76.3523 219.472L76.3783 219.292C76.3795 219.273 76.3813 219.254 76.3837 219.237C76.4925 218.496 76.6067 217.755 76.7222 217.014L76.7723 216.696C76.7971 216.534 76.8225 216.372 76.8527 216.209L77.0534 214.952C77.1325 214.497 77.2105 214.043 77.2818 213.59C77.3132 213.431 77.3344 213.301 77.3556 213.166L77.6015 211.744C77.694 211.223 77.7865 210.703 77.885 210.183C77.9835 209.664 77.8935 210.127 77.9068 210.064C77.9285 209.936 77.9472 209.823 77.9726 209.707C78.0736 209.137 78.1866 208.541 78.305 207.945L78.3099 207.916L78.3552 207.678C78.435 207.256 78.516 206.831 78.6006 206.406C79.1065 203.838 79.6522 201.237 80.2221 198.678L80.3104 198.289C80.4301 197.759 80.5503 197.226 80.676 196.698C81.1855 194.479 81.7337 192.205 82.3042 189.942C82.3065 189.926 82.3098 189.91 82.3139 189.895C82.5236 189.063 82.7388 188.236 82.9552 187.41L82.9981 187.244C83.4169 185.63 83.8493 184.019 84.2951 182.412C84.6988 180.951 85.1098 179.488 85.5335 178.037C85.7033 177.428 85.8822 176.818 86.0677 176.208C86.4179 174.996 86.7807 173.787 87.1562 172.582C87.5134 171.395 87.8845 170.208 88.2562 169.021C88.2604 169.003 88.2647 168.985 88.2701 168.968C88.6587 167.741 89.0467 166.52 89.4487 165.305C89.4524 165.288 89.457 165.27 89.4626 165.253C89.8679 164.029 90.2745 162.806 90.6822 161.583C91.2954 159.762 91.9204 157.945 92.557 156.131C93.3916 153.751 94.2498 151.38 95.1317 149.017C97.2447 143.331 99.4672 137.686 101.798 132.085C102.467 130.484 103.146 128.887 103.834 127.294L104.103 126.673C104.24 126.356 104.377 126.04 104.511 125.724C105.398 123.682 106.302 121.648 107.222 119.621L107.893 118.137C108.555 116.69 109.226 115.247 109.903 113.807C110.362 112.833 110.794 111.912 111.228 111.003C111.663 110.099 112.101 109.196 112.543 108.296C113.386 106.558 114.245 104.829 115.119 103.106C115.727 101.899 116.343 100.696 116.97 99.4978C116.977 99.4791 116.985 99.4607 116.995 99.4428L117.193 99.0646C117.523 98.4328 117.856 97.8026 118.191 97.1739C118.199 97.1544 118.208 97.1354 118.218 97.1171L118.443 96.6947C118.767 96.0868 119.088 95.4843 119.41 94.8952C120.515 92.8445 121.646 90.8086 122.805 88.788C123.313 87.903 123.828 87.0218 124.349 86.1443C124.358 86.1238 124.369 86.1032 124.381 86.0827L124.649 85.6404C124.897 85.2277 125.141 84.8222 125.386 84.4246C127.935 80.2298 130.103 77.0817 131.654 75.3233C131.736 75.2296 131.82 75.1396 131.9 75.055L131.994 74.9547C132.113 74.826 132.226 74.7117 132.333 74.612C132.518 74.4273 132.717 74.2562 132.928 74.1002C133.153 73.9369 133.385 73.7838 133.624 73.6416C133.639 73.6319 133.656 73.6235 133.672 73.615C133.903 73.4748 134.142 73.3443 134.393 73.2126C134.607 73.1008 134.82 72.9975 135.046 72.899C135.247 72.8035 135.474 72.6984 135.715 72.6065C135.86 72.5413 136.044 72.4712 136.232 72.4005L136.369 72.3485C136.633 72.2503 136.899 72.1566 137.167 72.0675C137.343 72.0155 137.498 71.9636 137.652 71.9122C138.172 71.7479 138.72 71.592 139.363 71.424L139.605 71.3642C139.724 71.3339 139.847 71.3031 139.971 71.2753L140.575 71.137C140.892 71.062 141.21 70.9941 141.53 70.9333C141.853 70.8656 142.177 70.8026 142.501 70.7442L142.521 70.7406C142.884 70.6704 143.248 70.6068 143.614 70.5496C144.616 70.3847 145.684 70.233 146.784 70.0988L147.182 70.0523C147.566 70.0009 147.972 69.9605 148.378 69.9194C149.277 69.8245 150.161 69.7441 151.065 69.6753C155.974 69.2758 161.792 69.1199 168.361 69.219C168.363 69.2215 168.368 69.219 168.371 69.219C171.211 69.2589 174.236 69.3496 177.362 69.4873C178.132 69.5188 178.912 69.555 179.698 69.5991L180.867 69.6608C181.661 69.7037 182.452 69.7466 183.251 69.7949C184.049 69.8432 184.848 69.8916 185.653 69.9466L186.258 69.9889C188.327 70.1279 190.396 70.283 192.463 70.4541L192.842 70.4868L192.903 70.4934C194.599 70.6318 196.295 70.7832 197.989 70.9478L199.878 71.1279C200.51 71.1877 201.142 71.2536 201.776 71.3207C202.2 71.369 202.613 71.4113 203.032 71.453C204.304 71.5859 205.573 71.7249 206.849 71.8699L208.123 72.0143C208.97 72.111 209.824 72.2143 210.671 72.3171L210.928 72.3485C211.696 72.4415 212.464 72.5352 213.232 72.6331C214.077 72.7364 214.932 72.8464 215.788 72.9618L215.962 72.9842C216.331 73.0319 216.702 73.0796 217.069 73.1334L217.485 73.189C218.11 73.273 218.737 73.357 219.361 73.4464C221.143 73.6918 222.93 73.9498 224.705 74.2096C225.134 74.2779 225.549 74.3389 225.969 74.4L230.847 75.1686C232.888 75.4967 234.891 75.8357 236.805 76.1759L239.151 76.5952C240.714 76.8756 242.266 77.1699 243.799 77.4654C244.951 77.6889 246.097 77.9137 247.229 78.1397L249.479 78.5996C252.132 79.1518 254.709 79.7186 257.143 80.2836L261.337 81.2885C265.462 82.3061 269.375 83.3756 272.963 84.4675C273.567 84.6536 274.163 84.8397 274.745 85.0264C277.522 85.9068 279.93 86.745 282.108 87.5861C282.613 87.777 283.106 87.971 283.588 88.1656C285.026 88.7499 286.396 89.3487 287.663 89.9463C287.767 89.9953 287.854 90.0726 287.916 90.1693C288.245 90.6871 288.575 91.2255 288.907 91.7893C289.063 92.0479 289.221 92.3162 289.379 92.5918C289.392 92.6099 289.406 92.6304 289.414 92.6455C289.744 93.2286 290.074 93.8112 290.405 94.4124C290.922 95.359 291.424 96.3132 291.912 97.2748C300.823 114.812 310.975 146.178 317.776 177.183C324.969 209.973 326.731 234.124 322.49 241.792C317.467 250.882 216.789 322.963 135.873 322.968L135.876 322.97ZM91.2159 312.185C134.02 333.572 192.723 315.202 234.454 296.012C280.174 274.987 318.274 246.932 321.436 241.209C330.512 224.801 309.424 134.403 290.838 97.8234C290.355 96.8731 289.858 95.9298 289.348 94.9937C289.027 94.4121 288.702 93.8326 288.374 93.2552C288.189 92.941 288.031 92.6715 287.873 92.4087C287.587 91.9235 287.294 91.4427 286.993 90.9663C285.723 90.3732 284.437 89.8133 283.138 89.2871C282.666 89.0961 282.179 88.9058 281.679 88.716C279.522 87.8822 277.136 87.0531 274.382 86.1794C273.803 85.9933 273.211 85.8096 272.614 85.6253C269.048 84.54 265.156 83.4759 261.049 82.4638L256.873 81.4625C254.333 80.8744 251.788 80.3155 249.236 79.7857L246.993 79.3265C245.866 79.1023 244.723 78.8775 243.573 78.6539C242.031 78.3547 240.487 78.0657 238.941 77.7868L236.597 77.3675C234.622 77.017 232.643 76.6826 230.662 76.3644L225.791 75.5964C225.373 75.536 224.952 75.4743 224.525 75.406C222.128 75.0536 219.729 74.7146 217.328 74.3891L216.905 74.3323C216.539 74.2791 216.173 74.232 215.811 74.1854L215.632 74.1625C214.784 74.0475 213.935 73.9381 213.086 73.8344C212.317 73.7365 211.551 73.6434 210.786 73.5504L210.529 73.5195C209.683 73.4156 208.837 73.3149 207.99 73.2174L206.716 73.0724C205.449 72.9285 204.181 72.7899 202.913 72.6567C202.49 72.6158 202.068 72.5713 201.646 72.5231C201.023 72.4579 200.395 72.3914 199.767 72.3322L197.877 72.1521C196.269 71.9986 194.662 71.8512 193.07 71.7225C192.971 71.7166 192.874 71.708 192.776 71.6965L192.366 71.6602C190.507 71.5063 188.647 71.3657 186.786 71.2385L186.181 71.1962C185.977 71.183 185.773 71.1689 185.569 71.1539C184.773 71.0995 183.977 71.0512 183.182 71.0028C182.386 70.9545 181.598 70.9122 180.809 70.8699L179.64 70.8076C178.865 70.7652 178.089 70.7282 177.314 70.6965C174.347 70.5632 171.378 70.4744 168.408 70.43C168.37 70.4326 168.332 70.4322 168.294 70.4288C161.789 70.3351 156.024 70.4868 151.163 70.882C150.268 70.9496 149.396 71.0288 148.557 71.1182C148.11 71.1635 147.717 71.2028 147.337 71.2536L146.932 71.3013C145.85 71.4324 144.799 71.5817 143.809 71.7448C143.441 71.8028 143.085 71.8645 142.737 71.9334C142.717 71.9376 142.696 71.9406 142.676 71.9424C142.397 71.995 142.084 72.0554 141.771 72.1213C141.451 72.1829 141.148 72.247 140.852 72.3171L140.244 72.4561C140.126 72.4826 140.013 72.511 139.902 72.5394L139.658 72.5993C139.048 72.7588 138.519 72.9092 138.056 73.0555C137.87 73.1171 137.701 73.1727 137.533 73.2223C137.298 73.302 137.046 73.3878 136.801 73.4809L136.663 73.5334C136.497 73.5963 136.334 73.6567 136.181 73.725C135.967 73.8092 135.756 73.9015 135.549 74.0017C135.106 74.1987 134.676 74.4238 134.262 74.6755C134.245 74.6866 134.226 74.6967 134.207 74.7057C134.009 74.826 133.818 74.951 133.642 75.0803C133.475 75.2046 133.317 75.3411 133.17 75.4888C133.074 75.5789 132.982 75.6725 132.884 75.7777L132.783 75.8864C132.713 75.9608 132.639 76.0393 132.565 76.1239C131.08 77.8074 128.899 80.9791 126.421 85.0573C126.174 85.4597 125.93 85.8629 125.686 86.267L125.45 86.6585C125.441 86.6773 125.432 86.696 125.421 86.7141C124.892 87.603 124.37 88.4961 123.856 89.3934C122.702 91.4056 121.575 93.4329 120.475 95.4747C120.154 96.0632 119.835 96.662 119.513 97.2663L119.314 97.6379C119.306 97.658 119.297 97.6775 119.286 97.6965C118.947 98.3292 118.608 98.9757 118.266 99.6283L118.094 99.9577C118.086 99.9764 118.078 99.9951 118.069 100.013C117.436 101.222 116.813 102.436 116.2 103.655C115.329 105.371 114.473 107.096 113.632 108.828C113.191 109.727 112.755 110.627 112.321 111.529C111.884 112.445 111.45 113.363 111.019 114.282C110.337 115.732 109.663 117.185 108.996 118.641L108.326 120.121C107.409 122.141 106.508 124.168 105.624 126.202C105.491 126.517 105.353 126.836 105.213 127.156L104.946 127.774C104.26 129.363 103.583 130.956 102.916 132.553C100.591 138.138 98.3748 143.768 96.2667 149.439C95.3879 151.795 94.5323 154.16 93.6999 156.533C93.0659 158.341 92.443 160.153 91.8311 161.968C91.4304 163.172 91.0291 164.378 90.6278 165.589C90.6241 165.607 90.6195 165.624 90.6139 165.641C90.2147 166.854 89.8235 168.07 89.4402 169.288C89.4362 169.305 89.4318 169.322 89.4269 169.339C89.0491 170.536 88.6786 171.735 88.3154 172.936C87.941 174.138 87.5791 175.343 87.23 176.552C87.0457 177.155 86.8686 177.761 86.6987 178.369C86.2761 179.822 85.8643 181.278 85.4634 182.736C85.0185 184.337 84.5876 185.942 84.1706 187.55L84.1271 187.717C83.9155 188.526 83.7046 189.336 83.4991 190.15C83.4965 190.166 83.4933 190.182 83.4894 190.198C82.9214 192.45 82.3768 194.709 81.8558 196.973C81.7307 197.502 81.611 198.031 81.4914 198.556L81.4037 198.944C80.8338 201.504 80.2952 204.07 79.7882 206.643C79.703 207.066 79.6238 207.486 79.5446 207.904L79.5047 208.115C79.3837 208.724 79.2687 209.334 79.1596 209.945C79.1343 210.063 79.1191 210.156 79.104 210.248L79.0883 210.329C79.0865 210.348 79.0774 210.39 79.0744 210.409C78.9771 210.925 78.8859 211.44 78.794 211.956L78.5504 213.364C78.5287 213.506 78.5039 213.651 78.4743 213.802C78.406 214.24 78.3268 214.699 78.2476 215.153L78.0458 216.416C78.0155 216.581 77.992 216.732 77.969 216.882L77.9225 217.177C77.807 217.925 77.6946 218.649 77.5882 219.372C77.5871 219.39 77.5853 219.408 77.5828 219.426L77.5508 219.647C77.4523 220.326 77.3537 221.001 77.2613 221.681C77.1982 222.099 77.1416 222.518 77.0914 222.938C77.0419 223.283 77.0002 223.605 76.9585 223.933C76.8618 224.682 76.7705 225.422 76.6805 226.169L76.0694 226.173L76.6696 226.242C76.6655 226.281 76.6603 226.32 76.6539 226.358C76.611 226.735 76.5626 227.154 76.5203 227.567C76.475 227.951 76.4302 228.331 76.3922 228.705L76.3752 228.86C76.3112 229.447 76.2459 230.032 76.1873 230.619C76.1873 230.638 76.1863 230.657 76.1843 230.676L76.1492 231.017C76.1148 231.346 76.087 231.679 76.0592 232.013C76.0205 232.378 75.9879 232.743 75.9612 233.109C75.94 233.282 75.9238 233.456 75.9129 233.631L75.8996 233.782C75.8881 233.896 75.8772 234.008 75.8706 234.12C75.8343 234.476 75.8071 234.806 75.7854 235.135C75.7261 235.872 75.6748 236.599 75.6228 237.327C75.6228 237.345 75.6228 237.364 75.6216 237.377C75.6009 237.648 75.5838 237.919 75.5702 238.19C75.537 238.65 75.511 239.095 75.4856 239.539C75.4868 239.563 75.4856 239.587 75.4844 239.61C75.4693 239.827 75.453 240.043 75.4487 240.258C75.4336 240.462 75.427 240.628 75.4197 240.801C75.3967 241.144 75.381 241.465 75.3647 241.79L75.3563 241.986C75.3508 242.099 75.3454 242.21 75.3448 242.319L75.3381 242.475C75.3345 242.543 75.3303 242.61 75.3315 242.678C75.3127 243.013 75.3013 243.302 75.2952 243.585C75.2849 243.752 75.2771 243.873 75.2795 243.994C75.2644 244.362 75.2547 244.685 75.2517 245.013C75.242 245.186 75.2342 245.312 75.2378 245.437C75.2305 245.657 75.2245 245.831 75.2239 246.004C75.2176 246.063 75.2158 246.122 75.2185 246.181C75.2071 246.652 75.1978 247.123 75.1907 247.594L75.1749 248.408C75.1701 248.738 75.1665 249.025 75.1749 249.31C75.1689 249.449 75.1707 249.545 75.1719 249.636C75.1653 249.952 75.1653 250.22 75.1719 250.495C75.1647 251.161 75.1701 251.799 75.1834 252.444C75.1854 253.048 75.1967 253.653 75.2172 254.258C75.2185 254.385 75.2185 254.451 75.2233 254.522L75.2324 254.937C75.2511 255.684 75.2741 256.388 75.3031 257.091C75.3351 257.835 75.3702 258.54 75.4064 259.246C75.4415 259.95 75.4898 260.652 75.5382 261.355L75.5497 261.524C75.5853 262.034 75.6198 262.539 75.6609 263.048C75.6657 263.085 75.6723 263.136 75.6723 263.198C75.8144 264.875 75.9673 266.43 76.1389 267.948L76.3178 269.421C76.3239 269.505 76.3323 269.56 76.3414 269.611L76.5469 271.18C76.6593 271.976 76.7784 272.777 76.9035 273.57C77.0286 274.363 77.1609 275.162 77.3042 275.947C77.5876 277.537 77.9031 279.117 78.2434 280.646C78.5835 282.192 78.9565 283.73 79.3621 285.26C79.5942 286.121 79.8329 286.984 80.0843 287.839C80.2753 288.485 80.4675 289.126 80.6718 289.766C80.8138 290.236 80.9667 290.697 81.1191 291.152C81.4821 292.257 81.8673 293.355 82.2746 294.444C82.381 294.75 82.4922 295.036 82.6046 295.327L82.6596 295.47C82.6917 295.558 82.7189 295.634 82.7521 295.71C82.8953 296.092 83.0343 296.444 83.1788 296.796C83.4278 297.416 83.681 298.027 83.9403 298.63C84.124 299.061 84.306 299.477 84.4951 299.9C84.6946 300.357 84.8977 300.808 85.1068 301.253L85.6483 302.387C85.8786 302.868 86.1161 303.35 86.3597 303.825C86.6062 304.317 86.8565 304.798 87.1127 305.279C87.6112 306.221 88.1279 307.152 88.6624 308.074C88.6732 308.09 88.6823 308.105 88.6883 308.114C88.8231 308.347 88.9386 308.547 89.0594 308.748C89.0626 308.753 89.0656 308.758 89.0685 308.763L89.0782 308.778L89.3816 309.284C89.3997 309.307 89.4166 309.33 89.4317 309.356C89.9999 310.306 90.6006 311.257 91.2159 312.184V312.185Z" fill="#1D1E1E"/>
<path d="M136.554 80.5206C152.896 68.6862 257.284 80.552 290.68 96.4229C290.912 96.7879 291.144 97.1589 291.377 97.5492C310.307 134.807 331.084 225.015 321.965 241.5C315.894 252.488 172.401 353.623 90.8014 312.653C90.1475 311.674 89.5177 310.678 88.9127 309.668C49.609 231.142 126.765 87.6098 136.554 80.5206Z" fill="white" stroke="#1D1E1E" stroke-width="1.20864" stroke-linecap="round" stroke-linejoin="round"/>
<path d="M74.935 261.396C74.9743 261.967 75.013 262.532 75.0583 263.103C75.0607 263.135 75.0698 263.173 75.0656 263.212C75.2022 264.821 75.3569 266.423 75.5376 268.017L75.7165 269.494C75.7213 269.565 75.7328 269.642 75.7443 269.712L75.9474 271.259C76.0604 272.064 76.1807 272.868 76.3058 273.666C76.4315 274.463 76.5638 275.267 76.7089 276.057C76.9917 277.643 77.3066 279.221 77.6523 280.778C77.998 282.334 78.3685 283.882 78.7771 285.415C79.011 286.283 79.2509 287.15 79.5036 288.01C79.6964 288.662 79.8891 289.306 80.0946 289.95C80.2361 290.418 80.3908 290.884 80.5449 291.344C80.9097 292.457 81.2974 293.561 81.7077 294.657C81.828 295.003 81.961 295.343 82.0945 295.688C82.1266 295.777 82.158 295.864 82.1967 295.953C82.3309 296.311 82.4717 296.669 82.6185 297.026C82.8675 297.647 83.1226 298.263 83.3837 298.87C83.5686 299.302 83.7518 299.722 83.9421 300.147C84.1416 300.605 84.3471 301.061 84.5586 301.511C84.7399 301.892 84.92 302.266 85.1014 302.648C85.3345 303.135 85.5743 303.62 85.8206 304.101C86.0672 304.593 86.3198 305.079 86.5791 305.564C87.0828 306.517 87.6055 307.46 88.1468 308.391C88.1607 308.409 88.1686 308.429 88.1825 308.447C88.2997 308.652 88.417 308.856 88.5409 309.061C88.5409 309.067 88.5488 309.079 88.5554 309.085C88.6714 309.278 88.7887 309.476 88.9114 309.667C49.6083 231.142 126.764 87.6102 136.554 80.5211C152.895 68.6867 257.283 80.5525 290.679 96.4233C290.911 96.7883 291.143 97.1593 291.376 97.5497C290.891 96.5942 290.391 95.6458 289.878 94.7048C289.547 94.1024 289.216 93.5187 288.893 92.947C288.886 92.9349 288.879 92.9289 288.871 92.9162C288.713 92.6419 288.553 92.3692 288.389 92.098C288.071 91.5583 287.744 91.0237 287.408 90.4943C286.077 89.8687 284.728 89.2795 283.365 88.7275C282.886 88.5347 282.396 88.3426 281.893 88.1516C279.64 87.2809 277.188 86.4361 274.563 85.6035C273.983 85.4174 273.39 85.2325 272.79 85.0476C269.193 83.9526 265.307 82.891 261.193 81.8764C260.504 81.7042 259.815 81.5386 259.119 81.3676C258.416 81.202 257.712 81.0375 257.008 80.8739C254.464 80.2839 251.914 79.7235 249.358 79.1929C248.612 79.0376 247.866 78.889 247.114 78.7343C245.972 78.5071 244.829 78.2823 243.687 78.0599C242.141 77.7636 240.595 77.4739 239.047 77.191C238.27 77.0508 237.486 76.9112 236.702 76.7716C234.738 76.4296 232.753 76.0949 230.757 75.7674C229.955 75.6417 229.152 75.5099 228.35 75.3843L227.15 75.1957C226.726 75.1341 226.309 75.0664 225.885 75.0054V74.9987C225.462 74.9371 225.044 74.8761 224.62 74.8078C222.848 74.5492 221.062 74.2912 219.278 74.0458C218.515 73.9371 217.754 73.8343 216.986 73.7322C216.562 73.6712 216.133 73.6168 215.71 73.5618C214.858 73.4524 214.005 73.3437 213.159 73.2337C212.307 73.1243 211.454 73.0216 210.602 72.9189C209.756 72.8156 208.904 72.7195 208.059 72.6161C207.63 72.5684 207.207 72.5195 206.784 72.4711C205.515 72.327 204.246 72.1884 202.975 72.0554C202.554 72.0137 202.137 71.9708 201.715 71.9225L200.454 71.7962C199.61 71.7122 198.772 71.6276 197.934 71.5496C196.324 71.4016 194.714 71.2541 193.118 71.1188C193.008 71.1134 192.904 71.1013 192.793 71.0892L192.417 71.0572C192.184 71.0408 191.95 71.0185 191.717 71.0082C191.575 70.99 191.432 70.9783 191.289 70.9732C190.789 70.9303 190.29 70.8934 189.791 70.8565C188.798 70.7768 187.807 70.7091 186.827 70.6342C186.425 70.6034 186.017 70.5804 185.615 70.5496C185.213 70.5254 184.812 70.5018 184.417 70.4771C184.015 70.4463 183.613 70.4227 183.218 70.3979C182.823 70.3798 182.421 70.3556 182.026 70.3314C181.632 70.3073 181.236 70.2891 180.841 70.2644C180.453 70.2456 180.058 70.2215 179.669 70.2027C179.322 70.1888 178.974 70.1719 178.627 70.152C178.543 70.152 178.465 70.1441 178.381 70.1429C178.032 70.1284 177.683 70.1073 177.339 70.0922C176.951 70.0801 176.569 70.0613 176.188 70.0487C173.913 69.9516 171.638 69.8841 169.361 69.8462C169.025 69.8372 168.696 69.8341 168.367 69.8239C168.367 69.8239 168.361 69.8311 168.36 69.8239L167.372 69.8142C161.627 69.7508 156.326 69.8819 151.654 70.2414L151.115 70.2783C151.017 70.2841 150.918 70.293 150.82 70.3049C150.192 70.3544 149.576 70.41 148.967 70.471C148.807 70.4886 148.647 70.4994 148.493 70.5164C148.461 70.5188 148.436 70.5266 148.41 70.5284C148.147 70.5526 147.885 70.5834 147.629 70.6142C147.507 70.6227 147.379 70.6378 147.257 70.6529L146.86 70.6994L146.246 70.7798C145.466 70.8789 144.706 70.9889 143.973 71.1103L143.711 71.1478C143.571 71.1702 143.43 71.1931 143.29 71.2215C143.067 71.2566 142.844 71.2977 142.621 71.3387H142.614C142.283 71.4004 141.959 71.4681 141.647 71.5279C141.329 71.595 141.018 71.6614 140.712 71.7273C140.509 71.7732 140.306 71.8197 140.109 71.8657C139.906 71.9116 139.709 71.9642 139.518 72.0095C138.968 72.1581 138.419 72.314 137.873 72.4772C137.703 72.534 137.533 72.5908 137.362 72.6415C137.102 72.7276 136.844 72.8184 136.588 72.914C136.525 72.9376 136.455 72.9618 136.393 72.992C136.235 73.0476 136.085 73.1098 135.934 73.1721C135.715 73.2645 135.495 73.357 135.289 73.4549C135.076 73.5534 134.876 73.6446 134.677 73.7479C134.415 73.8821 134.172 74.021 133.944 74.1594H133.937V74.1667C133.708 74.3051 133.486 74.4489 133.283 74.5981C133.124 74.719 132.947 74.8664 132.747 75.0543C132.651 75.151 132.548 75.2549 132.44 75.3655C132.338 75.4761 132.223 75.5933 132.109 75.7238C130.643 77.385 128.499 80.4673 125.903 84.7412C125.578 85.2796 125.249 85.8307 124.9 86.3969V86.4029C124.398 87.2567 123.873 88.1565 123.33 89.0907C122.174 91.1072 121.045 93.1391 119.942 95.1858C119.554 95.9091 119.16 96.6523 118.753 97.4022V97.4089C118.353 98.1648 117.949 98.9413 117.531 99.7244V99.7304C116.916 100.914 116.297 102.131 115.66 103.38C114.787 105.1 113.929 106.827 113.086 108.562C112.657 109.449 112.222 110.35 111.775 111.264C111.331 112.196 110.889 113.129 110.451 114.064C109.775 115.502 109.106 116.943 108.444 118.388C108.22 118.881 107.996 119.373 107.772 119.872C106.859 121.896 105.958 123.925 105.068 125.959C104.846 126.484 104.617 127.003 104.388 127.534C103.707 129.127 103.029 130.721 102.355 132.318C100.027 137.911 97.8078 143.549 95.6974 149.228C94.8227 151.589 93.9659 153.957 93.127 156.331C92.4914 158.142 91.8676 159.956 91.2558 161.775C90.8496 162.995 90.4429 164.216 90.0367 165.444V165.451C89.6379 166.678 89.2444 167.911 88.8461 169.151V169.157C88.4699 170.357 88.0988 171.559 87.7328 172.762C87.3636 173.961 87.0015 175.173 86.6456 176.384C86.467 176.991 86.2895 177.599 86.1131 178.207C85.6967 179.661 85.2869 181.114 84.8771 182.574C84.4377 184.18 84.0061 185.787 83.5825 187.397C83.3529 188.277 83.1226 189.157 82.8996 190.043V190.049C82.3305 192.306 81.785 194.568 81.2629 196.837C81.1081 197.493 80.9574 198.151 80.8108 198.809C80.2393 201.374 79.6997 203.946 79.1923 206.524C79.0914 207.027 78.9971 207.531 78.9022 208.027V208.034C78.7825 208.635 78.6689 209.237 78.5619 209.837C78.5371 209.948 78.519 210.06 78.5009 210.17C78.4906 210.209 78.487 210.255 78.4773 210.294C78.3933 210.764 78.3032 211.235 78.2259 211.704C78.1315 212.222 78.0401 212.74 77.9515 213.258C77.9291 213.402 77.9062 213.538 77.8778 213.682C77.8058 214.139 77.7273 214.596 77.6487 215.046L77.4456 216.317C77.3725 216.761 77.306 217.198 77.2395 217.641C77.1495 218.208 77.0655 218.768 76.9815 219.336C76.8721 220.091 76.7621 220.841 76.6593 221.596C76.6043 222.018 76.5433 222.442 76.4883 222.865C76.4399 223.191 76.3982 223.522 76.3559 223.854C76.2592 224.602 76.168 225.344 76.0773 226.092C76.0682 226.144 76.0652 226.196 76.0561 226.248C76.0072 226.664 75.9588 227.086 75.9165 227.502C75.8718 227.879 75.8265 228.263 75.7884 228.639C75.737 229.114 75.6857 229.588 75.6409 230.062L75.5811 230.607C75.5769 230.64 75.5787 230.666 75.5739 230.692C75.5666 230.776 75.5533 230.861 75.546 230.945C75.5121 231.282 75.4815 231.62 75.4542 231.958C75.4154 232.325 75.3825 232.693 75.3557 233.061C75.3303 233.256 75.3176 233.444 75.3043 233.626C75.2892 233.782 75.2735 233.931 75.2644 234.08C75.213 234.652 75.1683 235.222 75.1296 235.786C75.0692 236.506 75.022 237.225 74.9803 237.937C74.9725 238.015 74.9646 238.086 74.9634 238.158C74.9388 238.483 74.9202 238.809 74.9078 239.135C74.8916 239.277 74.8819 239.42 74.8788 239.563C74.8625 239.79 74.8456 240.016 74.8419 240.242C74.828 240.418 74.8208 240.592 74.8135 240.773C74.8045 240.922 74.7954 241.071 74.793 241.219C74.7724 241.582 74.7525 241.951 74.7392 242.313C74.735 242.436 74.7241 242.56 74.7259 242.682L74.6902 243.568C74.6812 243.717 74.6782 243.859 74.6745 244.001C74.6593 244.334 74.6501 244.668 74.6467 245.002C74.6377 245.151 74.6286 245.3 74.6322 245.448C74.6256 245.635 74.6189 245.817 74.6183 245.997C74.6106 246.07 74.6092 246.144 74.6141 246.217C74.6002 246.675 74.5863 247.128 74.5851 247.579L74.5839 247.844C74.5727 248.336 74.5679 248.829 74.5694 249.322C74.565 249.434 74.564 249.545 74.5663 249.657V250.502C74.5597 251.154 74.5651 251.798 74.5772 252.449C74.5869 253.054 74.596 253.667 74.6117 254.272C74.6117 254.369 74.6117 254.459 74.6183 254.555C74.6139 254.579 74.6155 254.603 74.6232 254.626C74.6358 255.374 74.6612 256.12 74.6927 256.859C74.7193 257.625 74.7525 258.39 74.7984 259.154C74.8365 259.9 74.8812 260.645 74.9326 261.39L74.935 261.396Z" fill="#1D1E1E"/>
<path d="M88.9126 310.272C88.8112 310.272 88.7113 310.247 88.6223 310.198C88.5333 310.15 88.4579 310.08 88.4031 309.994C88.3052 309.841 88.2103 309.684 88.1166 309.528L88.0387 309.398C88.0331 309.391 88.0283 309.382 88.0242 309.374C87.9015 309.17 87.7842 308.966 87.667 308.762L87.6434 308.725C87.091 307.777 86.558 306.817 86.0448 305.848C85.7837 305.359 85.5287 304.869 85.2797 304.372C85.0319 303.887 84.7907 303.4 84.5562 302.909L84.0129 301.771C83.7985 301.313 83.5903 300.852 83.3885 300.389C83.2 299.965 83.015 299.543 82.8283 299.107C82.5645 298.492 82.308 297.873 82.0589 297.252C81.9108 296.891 81.7684 296.529 81.6316 296.165C81.6002 296.094 81.5639 295.995 81.527 295.895L81.4769 295.764C81.3586 295.463 81.2454 295.16 81.1372 294.856C80.7259 293.756 80.337 292.649 79.9707 291.533C79.8126 291.066 79.6611 290.597 79.5163 290.126C79.3121 289.48 79.1147 288.832 78.924 288.182C78.6695 287.316 78.4284 286.445 78.1933 285.573C77.7838 284.027 77.4068 282.472 77.0625 280.909C76.7134 279.334 76.3975 277.752 76.1148 276.164C75.9699 275.364 75.8347 274.563 75.7092 273.76C75.5829 272.955 75.4629 272.15 75.349 271.343L75.146 269.79C75.1312 269.706 75.1205 269.621 75.1139 269.536L74.938 268.09C74.7628 266.543 74.6081 264.966 74.4642 263.263C74.4625 263.243 74.4617 263.223 74.4618 263.203C74.4597 263.184 74.4577 263.166 74.4557 263.148C74.4153 262.634 74.3796 262.123 74.3433 261.608L74.3312 261.438C74.2806 260.689 74.2357 259.941 74.1965 259.192C74.1515 258.424 74.1161 257.655 74.0901 256.886C74.0581 256.158 74.0353 255.429 74.0218 254.7C74.0141 254.652 74.0113 254.603 74.0133 254.553C74.0102 254.476 74.0086 254.399 74.0085 254.321C73.994 253.695 73.9843 253.091 73.9747 252.492C73.9607 251.829 73.9567 251.165 73.9626 250.502V249.663C73.9598 249.541 73.961 249.418 73.9662 249.295C73.9638 248.835 73.9686 248.333 73.9795 247.836L73.9813 247.581C73.9844 247.122 73.9941 246.662 74.0103 246.203C74.0049 246.161 74.0061 246.058 74.0176 245.943C74.0152 245.813 74.0218 245.625 74.0297 245.43C74.0277 245.283 74.0322 245.136 74.043 244.989C74.0466 244.665 74.0556 244.322 74.0714 243.978C74.0756 243.817 74.0792 243.679 74.0877 243.534L74.1233 242.663C74.1228 242.58 74.1254 242.497 74.1312 242.414L74.1366 242.298C74.1505 241.929 74.1705 241.556 74.1916 241.191C74.1928 241.069 74.2019 240.922 74.2104 240.775C74.2188 240.565 74.2261 240.382 74.2412 240.199C74.2436 240 74.2605 239.762 74.2787 239.524C74.2805 239.396 74.2914 239.235 74.3095 239.074C74.3167 238.791 74.3397 238.459 74.3627 238.121C74.3627 238.077 74.3699 238 74.3778 237.918C74.4207 237.19 74.4684 236.466 74.5295 235.74C74.5676 235.181 74.6123 234.606 74.6643 234.031C74.6709 233.923 74.6824 233.797 74.6951 233.667L74.7048 233.574C74.7199 233.363 74.7338 233.18 74.7592 232.988C74.7827 232.652 74.816 232.276 74.8559 231.899C74.883 231.571 74.9121 231.23 74.9465 230.888L74.9737 230.647C74.9773 230.598 74.9791 230.57 74.9834 230.537L75.042 230C75.0861 229.533 75.1375 229.056 75.1895 228.579C75.2275 228.202 75.2729 227.815 75.3182 227.434C75.3599 227.025 75.4083 226.599 75.4578 226.18L76.0688 226.173L75.4687 226.105C75.4727 226.066 75.478 226.027 75.4844 225.988C75.5708 225.273 75.6615 224.53 75.7582 223.78C75.8005 223.446 75.8434 223.11 75.8924 222.78L76.0616 221.521C76.1553 220.834 76.2538 220.155 76.3529 219.473L76.3855 219.252C76.469 218.682 76.5536 218.119 76.6448 217.549C76.7101 217.109 76.7778 216.669 76.8515 216.222L77.054 214.953C77.1332 214.498 77.2111 214.045 77.2825 213.591C77.3139 213.432 77.335 213.303 77.3562 213.168C77.445 212.642 77.5393 212.118 77.6324 211.6C77.685 211.282 77.7454 210.956 77.8046 210.629L77.8844 210.19C77.893 210.131 77.9047 210.073 77.9195 210.015C77.9297 209.937 77.9485 209.824 77.9739 209.708C78.0748 209.139 78.1878 208.543 78.3063 207.946L78.3111 207.917L78.3558 207.679C78.4362 207.258 78.5172 206.832 78.6018 206.407C79.1077 203.839 79.6534 201.239 80.2234 198.679C80.3727 198.014 80.5219 197.357 80.6779 196.699C81.1874 194.481 81.7355 192.207 82.3061 189.944C82.3084 189.928 82.3116 189.912 82.3158 189.897C82.5255 189.065 82.7406 188.238 82.957 187.412L82.9999 187.246C83.426 185.626 83.8575 184.021 84.2969 182.416C84.7073 180.951 85.1177 179.497 85.5353 178.042C85.713 177.427 85.8907 176.821 86.0684 176.216C86.4256 175.001 86.7876 173.787 87.1581 172.586L87.1786 172.518C87.5339 171.351 87.8939 170.186 88.2587 169.022C88.2629 169.004 88.2677 168.985 88.2732 168.967L88.5953 167.963C88.8806 167.075 89.1634 166.191 89.4505 165.309C89.4547 165.291 89.4596 165.273 89.465 165.256C89.8704 164.032 90.2769 162.808 90.6847 161.585C91.2979 159.764 91.9228 157.947 92.5595 156.134C93.3992 153.756 94.2573 151.385 95.1335 149.02C97.2467 143.334 99.4694 137.689 101.8 132.088C102.485 130.47 103.162 128.868 103.835 127.298L104.105 126.675C104.243 126.359 104.379 126.043 104.514 125.727C105.427 123.643 106.327 121.611 107.224 119.626L107.895 118.14C108.558 116.693 109.228 115.25 109.905 113.81C110.364 112.835 110.797 111.915 111.231 111.006C111.61 110.231 111.978 109.47 112.342 108.719L112.543 108.302C113.497 106.344 114.34 104.646 115.122 103.109C115.734 101.905 116.35 100.703 116.971 99.5031C116.98 99.4826 116.989 99.4626 116.999 99.4421C117.256 98.9593 117.51 98.4783 117.759 98.0039L118.193 97.1797C118.202 97.1582 118.212 97.1372 118.223 97.1169C118.469 96.6613 118.712 96.2081 118.951 95.7609L119.412 94.9023C120.517 92.8504 121.649 90.8133 122.808 88.7914C123.319 87.9094 123.834 87.029 124.351 86.1502C124.362 86.1269 124.373 86.1042 124.387 86.0825C124.656 85.6463 124.913 85.2184 125.165 84.7991L125.387 84.4323C127.938 80.2339 130.106 77.0857 131.657 75.3279C131.739 75.2343 131.823 75.1442 131.903 75.0596L132.321 74.6312C132.553 74.4137 132.746 74.253 132.919 74.1206C133.125 73.969 133.343 73.8257 133.568 73.688C133.6 73.6626 133.635 73.6407 133.671 73.6227C134.085 73.3723 134.514 73.1469 134.955 72.9478L135.035 72.9103C135.405 72.7383 135.782 72.5801 136.165 72.436C136.223 72.41 136.283 72.387 136.341 72.3653C136.633 72.2553 136.898 72.1646 137.171 72.0728C137.334 72.0236 137.496 71.9719 137.657 71.9175C138.034 71.8016 138.413 71.6914 138.794 71.587L139.609 71.37C139.729 71.3398 139.851 71.309 139.976 71.2812L140.58 71.1428C140.892 71.0758 141.204 71.0081 141.524 70.9416L141.892 70.8691C142.094 70.8292 142.299 70.7875 142.507 70.7501C142.525 70.7464 142.549 70.7434 142.568 70.7416C142.741 70.7066 142.97 70.6655 143.199 70.6292C143.306 70.6063 143.443 70.5839 143.581 70.5615L143.892 70.5168C144.611 70.3978 145.384 70.2854 146.172 70.1851L147.188 70.0576C147.318 70.0419 147.457 70.0256 147.59 70.0165C147.82 69.9881 148.087 69.9567 148.356 69.9319C148.387 69.9243 148.419 69.9199 148.452 69.9186L148.903 69.8751C149.526 69.813 150.15 69.7572 150.775 69.7077C150.844 69.6981 150.95 69.6902 151.051 69.6823L151.616 69.6443C156.163 69.2944 161.47 69.1524 167.382 69.2159L168.366 69.2255C168.373 69.2279 168.379 69.2255 168.386 69.2255L169.38 69.2473C171.53 69.2823 173.768 69.3482 176.216 69.4503L176.726 69.4696C176.936 69.4787 177.147 69.4872 177.36 69.4932L178.41 69.5452H178.413C178.443 69.5452 178.49 69.5476 178.538 69.55L178.635 69.5536C179.012 69.5748 179.352 69.5905 179.698 69.605L182.067 69.7343C182.458 69.7591 182.857 69.7827 183.248 69.8002L183.48 69.8141C183.806 69.8346 184.136 69.8546 184.466 69.8799L186.265 69.9941C186.469 70.0074 186.674 70.0213 186.877 70.0364L187.983 70.1186C188.6 70.1633 189.222 70.2087 189.843 70.2588C190.34 70.2957 190.842 70.3319 191.345 70.3754C191.467 70.3772 191.628 70.3942 191.788 70.4123C191.912 70.4165 192.077 70.4292 192.243 70.4425L192.849 70.4921L192.909 70.4987C192.99 70.5072 193.069 70.5156 193.151 70.5198C194.77 70.657 196.382 70.8045 197.994 70.9525C198.704 71.0184 199.413 71.0897 200.126 71.1604L201.778 71.3253C202.206 71.3743 202.619 71.4166 203.038 71.4583C204.31 71.5912 205.579 71.7302 206.855 71.8752L208.129 72.0196C208.573 72.074 209.013 72.126 209.453 72.1773L210.933 72.3538C211.702 72.4468 212.47 72.5405 213.237 72.6384L215.967 72.9895C216.336 73.0372 216.708 73.0849 217.075 73.1387C217.839 73.239 218.603 73.3433 219.366 73.4517C221.149 73.697 222.936 73.9551 224.71 74.2149C225.139 74.2832 225.554 74.3442 225.974 74.4052C226.004 74.4095 226.032 74.4161 226.06 74.4234C226.252 74.4518 226.444 74.4814 226.635 74.511L230.853 75.1745C232.856 75.5032 234.842 75.8391 236.809 76.1811L239.157 76.6011C240.722 76.8881 242.272 77.1758 243.804 77.4712C244.957 77.6948 246.102 77.9196 247.234 78.1456L249.484 78.6054C252.137 79.1577 254.716 79.7245 257.148 80.2895L261.342 81.2944C265.468 82.312 269.38 83.3815 272.969 84.4734C273.573 84.6595 274.168 84.8456 274.75 85.0323C277.527 85.9133 279.936 86.7508 282.113 87.592C282.618 87.7829 283.112 87.9769 283.594 88.1715C285.031 88.7558 286.402 89.3546 287.669 89.9522C287.772 90.0011 287.86 90.0785 287.922 90.1752C288.25 90.693 288.58 91.2314 288.913 91.7952C289.068 92.0538 289.226 92.3221 289.385 92.5976C289.398 92.6164 289.411 92.6363 289.42 92.6514C289.75 93.2345 290.08 93.817 290.41 94.4183C290.927 95.3649 291.43 96.3191 291.918 97.2806C291.988 97.4202 292.001 97.5815 291.955 97.7305C291.908 97.8796 291.806 98.005 291.669 98.0804C291.532 98.1558 291.372 98.1753 291.221 98.1349C291.07 98.0946 290.941 97.9974 290.86 97.8638C290.666 97.5394 290.468 97.2175 290.265 96.8982C255.44 80.4647 152.431 69.7748 136.912 81.014C131.928 84.6226 110.335 122.406 94.899 168.502C81.0073 209.986 68.7866 268.106 89.4553 309.402C89.5013 309.494 89.5231 309.596 89.5185 309.699C89.5139 309.802 89.4831 309.902 89.429 309.989C89.375 310.077 89.2994 310.149 89.2096 310.2C89.1197 310.25 89.0186 310.276 88.9156 310.276L88.9126 310.272ZM75.6718 263.199C75.8138 264.875 75.9667 266.43 76.1384 267.949L76.3173 269.422C76.3239 269.505 76.3318 269.56 76.3408 269.611L76.5463 271.18C76.6587 271.976 76.7778 272.777 76.9035 273.571C77.028 274.363 77.1604 275.163 77.3036 275.948C77.5871 277.538 77.9025 279.118 78.2428 280.647C78.5829 282.192 78.9559 283.73 79.3615 285.26C79.7623 286.772 80.1989 288.275 80.6712 289.766C80.8133 290.236 80.9662 290.697 81.1185 291.152C81.4815 292.257 81.8668 293.355 82.2741 294.445C82.3103 294.548 82.346 294.648 82.3828 294.748C70.3967 254.88 81.4128 204.958 93.7507 168.114C109.261 121.794 131.123 83.7072 136.199 80.0315C145.23 73.4922 178.843 74.4264 207.285 77.4815C241.476 81.1542 273.376 88.0506 289.457 95.1966L289.347 94.9935C289.026 94.4119 288.701 93.8324 288.372 93.2551C288.188 92.9409 288.03 92.6714 287.871 92.4085C287.586 91.9233 287.292 91.4425 286.992 90.9661C285.722 90.373 284.436 89.8131 283.137 89.2869C282.665 89.096 282.178 88.9056 281.678 88.7159C279.521 87.882 277.135 87.053 274.381 86.1792C273.801 85.9931 273.21 85.8088 272.613 85.6251C269.047 84.5399 265.155 83.4758 261.048 82.4636L256.871 81.4624C254.332 80.8744 251.786 80.3152 249.234 79.7849L246.992 79.3263C245.865 79.1021 244.721 78.8773 243.572 78.6538C242.028 78.3578 240.484 78.0685 238.938 77.7861L236.596 77.3673C234.635 77.0259 232.654 76.6911 230.659 76.3636L226.447 75.7014C226.232 75.6676 226.016 75.6352 225.799 75.6041C225.77 75.5996 225.741 75.5932 225.712 75.5847C225.315 75.5273 224.922 75.4693 224.524 75.4053C222.762 75.1479 220.978 74.8898 219.195 74.6445C218.432 74.5365 217.669 74.4321 216.905 74.3315C216.538 74.2783 216.172 74.2312 215.81 74.1847L213.08 73.833C212.315 73.7364 211.551 73.6419 210.785 73.5496L209.309 73.3738C208.868 73.3218 208.425 73.2704 207.985 73.216L206.715 73.0716C205.448 72.9277 204.181 72.7892 202.913 72.6559C202.49 72.6142 202.071 72.5713 201.646 72.5224L200.003 72.3586C199.294 72.2876 198.586 72.2187 197.877 72.152C196.27 72.0039 194.661 71.8565 193.067 71.7211C192.969 71.7157 192.872 71.7073 192.775 71.6957L192.144 71.6432C191.993 71.6305 191.842 71.619 191.69 71.6123C191.524 71.5954 191.398 71.5803 191.273 71.5773C190.765 71.5353 190.255 71.496 189.746 71.4595C189.128 71.4104 188.509 71.3636 187.891 71.3193L186.181 71.1954C185.977 71.1823 185.773 71.1682 185.569 71.1531L184.379 71.0812C184.046 71.0558 183.722 71.0359 183.401 71.0159L183.18 71.0027C182.783 70.9841 182.385 70.962 181.988 70.9362L179.639 70.8081C179.29 70.7942 178.941 70.7771 178.592 70.7567C178.57 70.7591 178.523 70.7567 178.473 70.7525L177.312 70.6969C177.103 70.6902 176.888 70.6818 176.673 70.6733L176.167 70.6534C173.896 70.557 171.624 70.4897 169.352 70.4516L168.404 70.431C168.368 70.4337 168.332 70.4331 168.297 70.4292L167.366 70.4201C161.491 70.3555 156.219 70.4981 151.701 70.8455L151.156 70.883C151.058 70.8903 150.976 70.8957 150.898 70.9054C150.243 70.9585 149.632 71.0135 149.027 71.0733L148.558 71.1181C148.522 71.1253 148.487 71.1301 148.452 71.1326C148.209 71.1555 147.951 71.1857 147.7 71.216C147.558 71.2262 147.441 71.2407 147.33 71.254L146.325 71.3803C145.55 71.4782 144.792 71.5888 144.071 71.7072L143.793 71.7465C143.666 71.7664 143.539 71.789 143.413 71.8142C143.165 71.8528 142.948 71.8933 142.731 71.9332C142.711 71.937 142.69 71.9398 142.669 71.9417L142.127 72.0498L141.761 72.1217C141.453 72.1864 141.144 72.2529 140.841 72.3187L140.245 72.4553C140.127 72.4819 140.013 72.5103 139.903 72.5387L139.119 72.7471C138.757 72.8487 138.395 72.9496 138.052 73.0553C137.87 73.1163 137.701 73.1719 137.533 73.2215C137.298 73.3019 137.046 73.3871 136.802 73.4801C136.726 73.5079 136.689 73.5206 136.655 73.5375C136.635 73.547 136.615 73.5553 136.594 73.5623C136.447 73.6143 136.306 73.6729 136.166 73.7303C135.958 73.8185 135.747 73.9067 135.549 74.001L135.462 74.0409C135.288 74.1212 135.123 74.198 134.956 74.2838C134.719 74.4052 134.502 74.5291 134.296 74.653C134.282 74.6639 134.267 74.6735 134.252 74.6832C134.038 74.8119 133.832 74.946 133.643 75.0844C133.475 75.2127 133.314 75.3499 133.161 75.4953L132.782 75.8845C132.712 75.9588 132.639 76.0373 132.565 76.1219C131.08 77.8054 128.898 80.9771 126.42 85.0553L126.201 85.4197C125.952 85.8347 125.701 86.2487 125.448 86.6614C125.44 86.6782 125.432 86.6945 125.422 86.7104C124.897 87.6033 124.374 88.4978 123.854 89.3939C122.701 91.4054 121.575 93.432 120.475 95.4733L120.017 96.3289C119.785 96.7616 119.551 97.1991 119.313 97.6396C119.305 97.6571 119.298 97.6752 119.288 97.6915L118.828 98.5647C118.587 99.0251 118.341 99.491 118.092 99.9593C118.085 99.9762 118.078 99.9938 118.069 100.009C117.454 101.193 116.835 102.407 116.199 103.656C115.327 105.372 114.472 107.096 113.631 108.827L113.429 109.244C113.065 109.996 112.696 110.759 112.319 111.53C111.882 112.446 111.449 113.363 111.019 114.281C110.337 115.73 109.662 117.183 108.995 118.639L108.325 120.12C107.413 122.142 106.513 124.17 105.623 126.202C105.49 126.516 105.352 126.834 105.213 127.154L104.946 127.773C104.265 129.364 103.587 130.958 102.914 132.553C100.59 138.138 98.3739 143.768 96.2661 149.438C95.3929 151.796 94.5372 154.161 93.6993 156.532C93.0652 158.34 92.4422 160.152 91.8306 161.967C91.4299 163.171 91.0285 164.376 90.6278 165.588L90.6145 165.637C90.3232 166.531 90.0355 167.428 89.7467 168.329L89.4384 169.288C89.4348 169.305 89.43 169.323 89.4257 169.338C89.0569 170.514 88.693 171.691 88.3342 172.869L88.3131 172.937C87.9436 174.14 87.5817 175.346 87.2276 176.553C87.0505 177.158 86.8728 177.762 86.6963 178.374C86.2805 179.825 85.8707 181.277 85.4616 182.737C85.0228 184.339 84.5918 185.944 84.1688 187.55L84.1259 187.715C83.9144 188.525 83.7034 189.335 83.4979 190.149C83.4953 190.165 83.4921 190.181 83.4883 190.196C82.9202 192.449 82.3756 194.708 81.8546 196.972C81.6999 197.627 81.5494 198.284 81.4031 198.941C80.8334 201.501 80.2948 204.068 79.7876 206.641C79.7024 207.064 79.6232 207.485 79.5441 207.902L79.5042 208.114C79.3832 208.723 79.2681 209.332 79.1591 209.943C79.1337 210.062 79.1186 210.154 79.1035 210.247C79.0998 210.266 79.092 210.308 79.0871 210.328C79.0812 210.364 79.0748 210.4 79.0678 210.436L78.9947 210.845C78.9354 211.165 78.8774 211.486 78.8242 211.805C78.7299 212.327 78.6369 212.848 78.5504 213.361C78.5281 213.504 78.5033 213.65 78.4737 213.801C78.4054 214.239 78.3262 214.698 78.247 215.152L78.0452 216.414C77.9721 216.858 77.9062 217.292 77.8403 217.732C77.7496 218.303 77.6656 218.861 77.5822 219.426L77.5502 219.646C77.4517 220.325 77.3532 221 77.2607 221.679L77.0897 222.945C77.0407 223.278 76.9996 223.606 76.9579 223.933C76.8612 224.681 76.7699 225.422 76.6799 226.168L76.0688 226.173L76.669 226.241C76.665 226.28 76.6597 226.319 76.6533 226.358C76.6104 226.735 76.562 227.153 76.5197 227.567C76.4744 227.95 76.4297 228.33 76.3916 228.704C76.3402 229.179 76.2888 229.651 76.2441 230.123L76.1837 230.677C76.1813 230.723 76.1776 230.763 76.171 230.802L76.1504 231C76.1148 231.345 76.0876 231.679 76.0592 232.013C76.0206 232.378 75.9879 232.743 75.9613 233.109C75.94 233.282 75.9239 233.456 75.9129 233.63L75.8996 233.782C75.8881 233.896 75.8773 234.008 75.8706 234.12C75.8186 234.705 75.7745 235.272 75.7358 235.831C75.6769 236.545 75.6274 237.26 75.5872 237.976C75.5872 237.985 75.5823 238.029 75.5817 238.038C75.5769 238.084 75.5714 238.128 75.5708 238.172C75.5467 238.527 75.5249 238.843 75.5152 239.159C75.4997 239.298 75.49 239.439 75.4862 239.579C75.4693 239.827 75.453 240.043 75.4488 240.258C75.4336 240.463 75.427 240.629 75.4197 240.801C75.4095 240.975 75.4016 241.105 75.3998 241.234C75.3788 241.603 75.3604 241.972 75.3448 242.341L75.3388 242.476C75.3351 242.543 75.3309 242.611 75.3321 242.678L75.2952 243.597C75.2862 243.738 75.2832 243.862 75.2807 243.984C75.2657 244.327 75.2562 244.671 75.2523 245.014C75.2427 245.186 75.2348 245.312 75.2384 245.436C75.2312 245.656 75.2251 245.831 75.2245 246.004C75.2182 246.063 75.2164 246.122 75.2191 246.181C75.2064 246.694 75.1925 247.14 75.1913 247.586L75.1895 247.853C75.178 248.348 75.1738 248.84 75.1756 249.325C75.1695 249.449 75.1713 249.544 75.1725 249.635V250.509C75.1661 251.154 75.1699 251.798 75.184 252.443C75.1937 253.068 75.2028 253.668 75.2185 254.263C75.2185 254.384 75.2185 254.451 75.2239 254.521L75.2251 254.551C75.2282 254.575 75.23 254.598 75.2306 254.622C75.2433 255.364 75.268 256.105 75.2989 256.84C75.3261 257.605 75.3593 258.365 75.4046 259.124C75.4427 259.871 75.488 260.613 75.5388 261.354L75.5509 261.524C75.5859 262.035 75.621 262.543 75.6621 263.055C75.6663 263.085 75.6736 263.135 75.673 263.198L75.6718 263.199Z" fill="#1D1E1E"/>
<path d="M286.166 217.336L282.928 203.569C282.848 203.214 282.653 202.896 282.372 202.664L274.763 195.911L266.695 203.786L268.03 205.387L174.028 227.922C173.781 227.982 173.525 227.986 173.277 227.933C173.028 227.88 172.795 227.773 172.594 227.618C172.393 227.463 172.229 227.266 172.115 227.039C172 226.813 171.938 226.564 171.933 226.31L171.86 223.157L170.162 150.017C170.155 149.791 170.104 149.568 170.011 149.362C169.919 149.156 169.786 148.971 169.621 148.817C169.62 148.811 169.606 148.806 169.606 148.806L161.967 142.027L154.704 145.218L156.412 148.632L154.28 148.681C154.057 148.685 153.836 148.734 153.632 148.823C153.427 148.913 153.242 149.042 153.087 149.204C152.933 149.366 152.812 149.556 152.732 149.765C152.651 149.973 152.613 150.196 152.619 150.419L154.528 232.517L154.594 235.371L150.397 236.515L147.844 242.792L155.411 249.528L155.597 249.682C155.979 249.963 156.479 250.081 156.982 249.965L172.406 246.344L284.909 219.377C285.346 219.271 285.722 218.997 285.958 218.615C286.193 218.233 286.268 217.773 286.167 217.336L286.166 217.336Z" fill="#1D1E1E"/>
<path d="M156.596 250.613C156.11 250.613 155.635 250.461 155.239 250.171L155.025 249.995L147.441 243.244C147.348 243.161 147.282 243.051 147.254 242.929C147.226 242.808 147.236 242.68 147.283 242.565L149.836 236.287C149.907 236.113 150.056 235.981 150.237 235.932L153.977 234.912L152.014 150.433C152.005 150.131 152.056 149.831 152.164 149.549C152.273 149.267 152.436 149.01 152.645 148.792C152.854 148.571 153.105 148.394 153.384 148.271C153.662 148.148 153.963 148.082 154.267 148.076L155.445 148.049L154.164 145.488C154.127 145.414 154.106 145.334 154.101 145.253C154.097 145.171 154.109 145.089 154.136 145.013C154.164 144.936 154.207 144.865 154.263 144.805C154.319 144.746 154.386 144.698 154.461 144.665L161.724 141.473C161.83 141.427 161.947 141.411 162.061 141.429C162.175 141.447 162.282 141.498 162.368 141.574L169.989 148.338C170.004 148.35 170.017 148.362 170.03 148.375L170.032 148.374C170.255 148.583 170.435 148.834 170.561 149.113C170.687 149.392 170.756 149.693 170.765 149.999L172.537 226.295C172.54 226.458 172.58 226.619 172.654 226.765C172.728 226.911 172.833 227.038 172.963 227.138C173.092 227.238 173.242 227.307 173.402 227.341C173.562 227.375 173.728 227.373 173.886 227.334L266.943 205.026L266.23 204.173C266.133 204.056 266.083 203.906 266.091 203.755C266.099 203.603 266.164 203.459 266.272 203.353L274.34 195.479C274.567 195.259 274.926 195.249 275.164 195.46L282.773 202.213C283.15 202.528 283.411 202.959 283.517 203.438L286.753 217.199V217.2C287.038 218.431 286.273 219.672 285.048 219.965L172.545 246.933L157.118 250.554C156.946 250.593 156.771 250.613 156.595 250.613H156.596ZM148.564 242.625L155.982 249.218C156.208 249.381 156.532 249.448 156.845 249.377L172.267 245.757L284.768 218.79C285.049 218.721 285.291 218.544 285.443 218.297C285.594 218.051 285.643 217.755 285.577 217.473L282.34 203.707C282.289 203.48 282.164 203.276 281.984 203.127L274.783 196.737L267.518 203.828L268.495 205C268.561 205.079 268.605 205.173 268.624 205.274C268.644 205.375 268.637 205.479 268.604 205.577C268.572 205.675 268.515 205.762 268.439 205.832C268.364 205.901 268.271 205.951 268.171 205.974L174.169 228.51C173.834 228.591 173.485 228.595 173.148 228.523C172.811 228.451 172.494 228.304 172.221 228.093C171.949 227.884 171.727 227.616 171.573 227.309C171.418 227.003 171.335 226.665 171.328 226.322L169.557 150.03C169.548 149.748 169.432 149.48 169.233 149.281C169.223 149.274 169.213 149.266 169.204 149.258L161.855 142.736L155.528 145.515L156.952 148.361C156.997 148.452 157.019 148.554 157.015 148.655C157.011 148.757 156.981 148.856 156.929 148.943C156.876 149.031 156.803 149.103 156.715 149.154C156.627 149.205 156.527 149.233 156.425 149.236L154.294 149.285C154.15 149.288 154.008 149.319 153.876 149.376C153.744 149.434 153.625 149.517 153.526 149.62C153.426 149.724 153.348 149.847 153.296 149.981C153.244 150.115 153.219 150.258 153.223 150.401L155.197 235.356C155.2 235.491 155.158 235.623 155.077 235.731C154.997 235.839 154.882 235.917 154.752 235.953L150.844 237.019L148.565 242.624L148.564 242.625Z" fill="#1D1E1E"/>
<path d="M149.229 243.076C148.991 243.131 148.744 243.134 148.505 243.086C148.266 243.037 148.041 242.937 147.844 242.792L147.658 242.639C147.337 242.327 147.15 241.902 147.138 241.455L146.775 225.628L144.866 143.529C144.86 143.306 144.898 143.084 144.979 142.875C145.059 142.667 145.18 142.476 145.335 142.314C145.489 142.153 145.674 142.023 145.879 141.934C146.083 141.844 146.304 141.795 146.527 141.791L160.671 141.465C161.032 141.459 161.385 141.566 161.682 141.772C161.682 141.772 161.683 141.778 161.689 141.778L161.853 141.915C161.853 141.915 161.867 141.92 161.868 141.926C162.186 142.223 162.395 142.653 162.409 143.126L164.108 216.266L164.18 219.419C164.185 219.673 164.248 219.922 164.362 220.149C164.477 220.375 164.64 220.573 164.841 220.728C165.042 220.882 165.276 220.99 165.524 221.043C165.772 221.095 166.029 221.092 166.275 221.032L273.126 195.417C273.356 195.36 273.595 195.352 273.828 195.394C274.061 195.435 274.283 195.526 274.478 195.659L274.493 195.67L274.619 195.775C274.888 196.001 275.091 196.308 275.174 196.679L278.412 210.447C278.514 210.884 278.439 211.343 278.203 211.725C277.968 212.108 277.591 212.381 277.155 212.487L164.651 239.455L149.227 243.076H149.229Z" fill="#F45100"/>
<path d="M148.845 243.723C148.356 243.723 147.881 243.568 147.487 243.279L147.273 243.104C146.801 242.647 146.552 242.079 146.534 241.472L146.171 225.641L144.262 143.544C144.253 143.242 144.304 142.941 144.412 142.659C144.521 142.377 144.684 142.12 144.893 141.902C145.103 141.681 145.354 141.504 145.632 141.381C145.911 141.258 146.211 141.192 146.515 141.186L160.657 140.86H160.692C161.176 140.86 161.635 141.003 162.027 141.276L162.048 141.291L162.078 141.314L162.23 141.442C162.247 141.455 162.264 141.469 162.279 141.484L162.28 141.483C162.503 141.692 162.683 141.943 162.809 142.222C162.935 142.501 163.005 142.802 163.015 143.107L164.785 219.405C164.792 219.738 164.946 220.043 165.207 220.246C165.471 220.449 165.809 220.52 166.136 220.443L272.986 194.828C273.298 194.752 273.622 194.742 273.937 194.799C274.253 194.856 274.553 194.978 274.818 195.158L274.878 195.202L275.004 195.306C275.388 195.624 275.656 196.06 275.766 196.546L279.002 210.307C279.288 211.54 278.523 212.781 277.297 213.073L164.794 240.041L149.368 243.663H149.365C149.194 243.702 149.02 243.722 148.845 243.722V243.723ZM160.696 142.069H160.68L146.542 142.395C146.398 142.398 146.256 142.428 146.125 142.486C145.993 142.544 145.874 142.627 145.774 142.731C145.675 142.834 145.597 142.957 145.545 143.091C145.493 143.225 145.468 143.368 145.471 143.512L147.38 225.613L147.744 241.44C147.752 241.728 147.872 242.001 148.081 242.205L148.23 242.325C148.457 242.491 148.781 242.559 149.094 242.486L164.516 238.866L277.017 211.899C277.298 211.83 277.541 211.653 277.692 211.407C277.844 211.16 277.892 210.864 277.826 210.582L274.589 196.816C274.538 196.589 274.413 196.385 274.233 196.236L274.112 196.136C273.99 196.057 273.852 196.005 273.708 195.982C273.563 195.959 273.416 195.966 273.275 196.003L166.418 221.619C166.083 221.701 165.734 221.705 165.396 221.633C165.059 221.561 164.742 221.414 164.469 221.202C164.197 220.993 163.976 220.725 163.821 220.418C163.667 220.112 163.583 219.774 163.577 219.431L161.806 143.139C161.797 142.856 161.68 142.587 161.478 142.388L161.466 142.378L161.322 142.257C161.137 142.134 160.919 142.068 160.696 142.069Z" fill="#F45100"/>
</g>
<defs>
<clipPath id="clip0_615_73211">
<rect width="277.015" height="290" fill="white" transform="translate(62.4922 56)"/>
</clipPath>
</defs>
</svg>
