<svg viewBox="0 0 402 402" fill="none" xmlns="http://www.w3.org/2000/svg">
<g clip-path="url(#clip0_615_73201)">
<path d="M183.251 332.484L164.184 333.326L91.6332 328.592L77.4199 325.579L91.8146 335.581L107.938 339.921L180.489 344.654L197.646 342.486L183.251 332.484Z" fill="#1D1E1E"/>
<path d="M180.489 344.815C180.486 344.815 180.483 344.815 180.479 344.814L107.928 340.081C107.917 340.08 107.907 340.078 107.897 340.075L91.7733 335.735C91.7554 335.73 91.7386 335.723 91.7234 335.712L77.3287 325.711C77.2983 325.69 77.2761 325.659 77.2659 325.623C77.2558 325.587 77.2582 325.549 77.2729 325.515C77.2876 325.481 77.3135 325.453 77.3464 325.436C77.3793 325.419 77.4171 325.414 77.4533 325.422L91.6551 328.432L164.186 333.165L183.244 332.324C183.279 332.323 183.314 332.332 183.342 332.352L197.737 342.354C197.764 342.372 197.784 342.398 197.796 342.429C197.807 342.459 197.809 342.492 197.801 342.524C197.794 342.555 197.776 342.584 197.752 342.605C197.728 342.627 197.698 342.641 197.666 342.645L180.51 344.814C180.503 344.814 180.496 344.815 180.489 344.815ZM107.965 339.762L180.485 344.493L197.211 342.379L183.204 332.647L164.192 333.486C164.186 333.486 164.18 333.486 164.174 333.486L91.6229 328.752C91.6152 328.751 91.6076 328.75 91.6001 328.749L78.1641 325.901L91.8834 335.433L107.965 339.762Z" fill="white"/>
<path d="M294.169 62.8938L221.618 58.1599L204.447 60.3338L45.3447 102.144L60.2871 100.556L132.838 105.29L151.176 109.049L310.278 67.239L294.169 62.8938Z" fill="#F45100"/>
<path d="M151.175 109.21C151.165 109.21 151.154 109.209 151.143 109.206L132.817 105.449L60.2901 100.717L45.3614 102.304C45.321 102.308 45.2803 102.298 45.2476 102.273C45.2149 102.249 45.1926 102.213 45.1853 102.173C45.1779 102.133 45.1861 102.092 45.2081 102.058C45.23 102.024 45.2642 101.999 45.3037 101.989L204.406 60.1787C204.413 60.1768 204.42 60.1755 204.427 60.1746L221.597 58.0008C221.607 57.9995 221.618 57.9992 221.628 57.9998L294.179 62.7337C294.189 62.7344 294.2 62.7362 294.21 62.739L310.319 67.0842C310.353 67.0934 310.383 67.1136 310.405 67.1417C310.426 67.1698 310.438 67.2042 310.438 67.2395C310.438 67.2749 310.426 67.3093 310.404 67.3372C310.383 67.3652 310.352 67.3852 310.318 67.3942L151.216 109.205C151.203 109.208 151.189 109.21 151.175 109.21ZM60.287 100.396C60.2904 100.396 60.2939 100.396 60.2973 100.396L132.848 105.13C132.856 105.13 132.863 105.131 132.87 105.133L151.171 108.885L309.655 67.237L294.142 63.0529L221.623 58.3209L204.478 60.4916L47.4349 101.761L60.2699 100.397C60.2756 100.396 60.2813 100.396 60.287 100.396Z" fill="white"/>
<path d="M141.991 125.225L122.436 123.61L49.8844 118.876L36.1602 118.319L77.4202 325.579L91.6335 328.592L164.185 333.326L183.251 332.484L141.991 125.225Z" fill="#1D1E1E"/>
<path d="M164.185 333.486C164.181 333.486 164.178 333.486 164.175 333.486L91.6234 328.752C91.6158 328.751 91.6082 328.75 91.6007 328.749L77.3874 325.736C77.3567 325.729 77.3286 325.714 77.3066 325.691C77.2845 325.669 77.2695 325.641 77.2633 325.61L36.0031 118.351C35.9935 118.302 36.0065 118.253 36.0384 118.215C36.0703 118.178 36.1174 118.158 36.1668 118.159L49.8911 118.716L122.446 123.45L142.004 125.065C142.039 125.068 142.072 125.082 142.098 125.105C142.124 125.128 142.141 125.159 142.148 125.193L183.408 332.453C183.413 332.476 183.412 332.499 183.407 332.522C183.402 332.544 183.392 332.565 183.377 332.583C183.363 332.602 183.345 332.616 183.324 332.627C183.304 332.638 183.281 332.644 183.258 332.645L164.192 333.486H164.185ZM91.6555 328.432L164.186 333.165L183.058 332.332L141.858 125.374L122.423 123.77L49.8742 119.036L36.3574 118.488L77.557 325.444L91.6555 328.432Z" fill="white"/>
<path d="M310.278 67.239L151.176 109.05L141.991 125.225L142.061 125.574L324.22 77.1573L310.278 67.239Z" fill="white"/>
<path d="M142.061 125.734C142.024 125.734 141.988 125.721 141.959 125.698C141.931 125.674 141.911 125.641 141.904 125.605L141.834 125.256C141.827 125.218 141.833 125.179 141.852 125.146L151.036 108.97C151.047 108.952 151.061 108.936 151.078 108.923C151.095 108.909 151.115 108.9 151.135 108.895L310.238 67.0841C310.26 67.0782 310.284 67.0773 310.307 67.0815C310.33 67.0857 310.352 67.0949 310.371 67.1085L324.313 77.0268C324.338 77.0444 324.358 77.0688 324.369 77.097C324.381 77.1252 324.384 77.1562 324.379 77.1862C324.373 77.2162 324.359 77.244 324.339 77.2664C324.318 77.2888 324.291 77.3048 324.262 77.3125L142.102 125.729C142.089 125.732 142.075 125.734 142.061 125.734ZM142.16 125.252L142.185 125.375L323.85 77.09L310.247 67.4132L151.282 109.188L142.16 125.252Z" fill="#1D1E1E"/>
<path d="M365.817 284.581L355.076 287.397L313.104 86.0856L308.203 84.8554L155.743 126.183L197.876 328.629L183.248 332.465L142.061 125.574L324.221 77.157L324.576 77.4104L365.817 284.581Z" fill="white"/>
<path d="M183.248 332.625C183.211 332.625 183.175 332.612 183.146 332.589C183.118 332.565 183.098 332.533 183.091 332.496L141.903 125.605C141.896 125.565 141.903 125.524 141.925 125.489C141.946 125.454 141.98 125.429 142.02 125.419L324.18 77.002C324.203 76.9959 324.227 76.9949 324.25 76.9992C324.273 77.0034 324.295 77.0128 324.315 77.0265L324.669 77.2799C324.702 77.3037 324.725 77.3391 324.733 77.379L365.975 284.549C365.983 284.589 365.975 284.631 365.953 284.666C365.932 284.7 365.897 284.725 365.858 284.736L355.117 287.552C355.096 287.558 355.074 287.559 355.053 287.556C355.031 287.552 355.01 287.545 354.992 287.533C354.973 287.522 354.957 287.507 354.945 287.489C354.932 287.471 354.924 287.451 354.919 287.43L312.967 86.2167L308.204 85.0212L155.931 126.299L198.033 328.596C198.042 328.636 198.034 328.678 198.013 328.713C197.991 328.748 197.957 328.773 197.917 328.784L183.288 332.62C183.275 332.624 183.262 332.625 183.248 332.625ZM142.247 125.69L183.372 332.267L197.688 328.512L155.586 126.216C155.578 126.176 155.585 126.134 155.607 126.099C155.628 126.065 155.662 126.039 155.701 126.028L308.161 84.7006C308.187 84.6934 308.215 84.6931 308.242 84.6998L313.142 85.9299C313.172 85.9373 313.198 85.9527 313.219 85.9744C313.24 85.9961 313.254 86.0233 313.26 86.0528L355.199 287.199L365.63 284.464L324.431 77.504L324.189 77.3314L142.247 125.69Z" fill="#1D1E1E"/>
<path d="M365.84 284.688L356.656 300.861L197.646 342.486L183.251 332.484L183.248 332.465L197.876 328.629L197.893 328.706L202.793 329.936L355.593 289.87L355.077 287.397L365.818 284.581L365.84 284.688Z" fill="#1D1E1E"/>
<path d="M197.646 342.646C197.613 342.646 197.581 342.636 197.554 342.617L183.16 332.616C183.142 332.604 183.127 332.588 183.116 332.57C183.104 332.552 183.097 332.532 183.093 332.511L183.09 332.491C183.083 332.452 183.092 332.411 183.114 332.378C183.135 332.344 183.169 332.32 183.208 332.31L197.836 328.473C197.875 328.463 197.916 328.468 197.951 328.486C197.987 328.505 198.014 328.536 198.027 328.574L202.793 329.77L355.405 289.753L354.92 287.43C354.911 287.389 354.919 287.347 354.94 287.312C354.962 287.277 354.996 287.252 355.036 287.242L365.777 284.425C365.798 284.42 365.82 284.419 365.841 284.422C365.863 284.425 365.884 284.433 365.902 284.444C365.921 284.456 365.936 284.471 365.949 284.489C365.961 284.506 365.97 284.526 365.975 284.548L365.997 284.655C366.005 284.693 365.999 284.733 365.98 284.767L356.795 300.94C356.785 300.959 356.771 300.975 356.754 300.988C356.737 301.001 356.717 301.011 356.697 301.016L197.687 342.641C197.673 342.644 197.66 342.646 197.646 342.646ZM183.608 332.537L197.677 342.312L356.55 300.723L365.588 284.807L355.265 287.514L355.75 289.837C355.758 289.878 355.751 289.92 355.729 289.955C355.707 289.99 355.673 290.015 355.633 290.025L202.834 330.091C202.808 330.098 202.78 330.098 202.754 330.091L197.853 328.861C197.826 328.854 197.8 328.84 197.78 328.82L183.608 332.537Z" fill="white"/>
<path d="M132.838 105.29L60.2871 100.556L45.3447 102.144L36.1602 118.319L49.8844 118.876L122.436 123.61L141.991 125.225L151.176 109.049L132.838 105.29Z" fill="#1D1E1E"/>
<path d="M141.991 125.385C141.987 125.385 141.982 125.385 141.978 125.385L122.423 123.77L49.8743 119.036L36.1538 118.48C36.1263 118.479 36.0996 118.47 36.0762 118.456C36.0528 118.442 36.0335 118.421 36.0202 118.397C36.0068 118.373 35.9999 118.346 36 118.319C36.0001 118.291 36.0073 118.264 36.0209 118.24L45.2055 102.065C45.2181 102.043 45.2357 102.024 45.257 102.01C45.2783 101.996 45.3027 101.988 45.328 101.985L60.2703 100.397C60.2794 100.396 60.2886 100.396 60.2976 100.396L132.849 105.13C132.856 105.131 132.863 105.132 132.87 105.133L151.208 108.893C151.233 108.898 151.256 108.909 151.276 108.925C151.295 108.94 151.311 108.961 151.321 108.984C151.332 109.007 151.337 109.032 151.336 109.057C151.335 109.082 151.327 109.107 151.315 109.129L142.13 125.304C142.116 125.329 142.096 125.349 142.072 125.363C142.047 125.378 142.02 125.385 141.991 125.385ZM36.4297 118.17L49.8912 118.716L122.446 123.45L141.902 125.056L150.927 109.162L132.817 105.449L60.2907 100.717L45.4439 102.295L36.4297 118.17Z" fill="white"/>
<path d="M202.793 329.936L197.892 328.706L197.876 328.629L155.743 126.183L160.645 127.413L202.28 327.474L202.793 329.936Z" fill="#1D1E1E"/>
<path d="M202.793 330.096C202.78 330.096 202.767 330.094 202.754 330.091L197.854 328.861C197.824 328.854 197.798 328.838 197.777 328.817C197.756 328.795 197.742 328.768 197.736 328.738L197.72 328.661L155.586 126.216C155.581 126.189 155.582 126.162 155.59 126.136C155.598 126.11 155.613 126.086 155.632 126.068C155.652 126.049 155.676 126.035 155.702 126.028C155.728 126.021 155.756 126.021 155.782 126.028L160.685 127.258C160.714 127.265 160.74 127.281 160.761 127.302C160.782 127.324 160.796 127.351 160.803 127.381L202.437 327.441L202.95 329.903C202.955 329.926 202.955 329.95 202.949 329.974C202.943 329.997 202.933 330.018 202.918 330.037C202.903 330.055 202.884 330.07 202.862 330.08C202.841 330.091 202.817 330.096 202.793 330.096ZM198.029 328.574L202.584 329.718L202.123 327.507L160.509 127.545L155.952 126.401L198.029 328.574Z" fill="white"/>
<path d="M313.104 86.0854L160.645 127.413L155.743 126.183L308.203 84.8552L313.104 86.0854Z" fill="#F45100"/>
<path d="M160.645 127.574C160.632 127.574 160.619 127.572 160.606 127.569L155.704 126.339C155.669 126.33 155.639 126.311 155.617 126.283C155.595 126.255 155.582 126.22 155.582 126.185C155.582 126.149 155.593 126.115 155.615 126.086C155.636 126.058 155.666 126.038 155.701 126.028L308.16 84.7006C308.187 84.6934 308.215 84.6932 308.241 84.7L313.142 85.9301C313.176 85.9388 313.207 85.9586 313.229 85.9864C313.251 86.0143 313.263 86.0486 313.263 86.0841C313.264 86.1196 313.252 86.1542 313.231 86.1825C313.209 86.2108 313.179 86.2312 313.145 86.2405L160.687 127.568C160.673 127.572 160.659 127.574 160.645 127.574ZM156.378 126.177L160.644 127.248L312.468 86.0915L308.204 85.0211L156.378 126.177Z" fill="white"/>
<path d="M355.593 289.87L202.793 329.936L202.28 327.474L160.646 127.413L313.104 86.0854L355.076 287.397L355.593 289.87Z" fill="white"/>
<path d="M202.793 330.096C202.757 330.096 202.721 330.083 202.692 330.06C202.664 330.037 202.644 330.004 202.636 329.968L202.123 327.506L160.489 127.446C160.48 127.406 160.488 127.364 160.509 127.329C160.53 127.295 160.564 127.269 160.604 127.259L313.062 85.9307C313.083 85.9251 313.105 85.9238 313.127 85.927C313.148 85.9301 313.169 85.9377 313.187 85.9491C313.206 85.9605 313.222 85.9756 313.235 85.9934C313.247 86.0112 313.256 86.0314 313.261 86.0528L355.234 287.364L355.75 289.837C355.758 289.877 355.751 289.919 355.729 289.954C355.707 289.989 355.673 290.015 355.633 290.025L202.834 330.091C202.821 330.094 202.807 330.096 202.793 330.096ZM160.833 127.529L202.437 327.441L202.916 329.738L355.405 289.754L354.92 287.43L312.982 86.2848L160.833 127.529Z" fill="#1D1E1E"/>
<path d="M286.666 228.654C286.502 228.645 286.337 228.663 286.178 228.706C285.977 228.77 250.364 238.386 250.195 238.459C249.861 238.586 249.58 238.825 249.38 239.118C249.114 239.517 248.998 240.008 249.047 240.485C249.049 240.643 256.928 278.4 256.954 278.581C257.127 279.409 257.768 279.975 258.495 280.017L262.731 280.257C262.003 280.216 261.362 279.65 261.19 278.821L253.314 240.926C253.282 240.768 253.268 240.608 253.273 240.447C253.286 239.78 253.642 239.109 254.237 238.788C254.346 238.729 254.462 238.683 254.582 238.649L290.414 228.946C290.572 228.903 290.737 228.885 290.901 228.894L286.666 228.654Z" fill="#1D1E1E"/>
<path d="M262.73 280.418L262.721 280.418H262.72L258.485 280.177C257.673 280.131 256.979 279.488 256.797 278.613C256.773 278.479 255.633 273.001 254.312 266.659C250.054 246.202 248.887 240.576 248.887 240.486C248.834 239.973 248.961 239.458 249.246 239.029C249.477 238.691 249.785 238.443 250.138 238.309C250.231 238.269 258.168 236.119 274.809 231.618C280.822 229.992 286.015 228.587 286.13 228.552C286.307 228.504 286.491 228.484 286.674 228.494L290.909 228.735H290.91C290.952 228.737 290.992 228.756 291.02 228.788C291.049 228.82 291.063 228.861 291.061 228.904C291.058 228.946 291.039 228.986 291.007 229.014C290.976 229.043 290.934 229.057 290.892 229.055C290.744 229.047 290.597 229.062 290.455 229.101L254.623 238.804C254.515 238.834 254.41 238.877 254.311 238.93C253.791 239.211 253.445 239.808 253.433 240.45C253.428 240.599 253.441 240.748 253.471 240.895L261.346 278.789C261.498 279.521 262.071 280.06 262.739 280.097C262.76 280.099 262.781 280.104 262.799 280.113C262.818 280.122 262.835 280.135 262.849 280.151C262.863 280.166 262.874 280.185 262.881 280.205C262.888 280.224 262.891 280.246 262.89 280.267C262.888 280.307 262.87 280.346 262.84 280.374C262.81 280.402 262.771 280.418 262.73 280.418ZM286.58 228.812C286.459 228.812 286.339 228.828 286.22 228.861C286.151 228.882 282.086 229.982 274.906 231.924C264.615 234.708 250.52 238.52 250.249 238.61C249.964 238.718 249.702 238.931 249.512 239.209C249.269 239.573 249.16 240.021 249.206 240.468C249.251 240.771 252.358 255.696 254.626 266.593C256.253 274.408 257.103 278.489 257.113 278.558C257.263 279.281 257.836 279.819 258.504 279.857L261.751 280.041C261.397 279.761 261.134 279.344 261.033 278.854L253.157 240.959C253.122 240.789 253.107 240.615 253.113 240.442C253.128 239.688 253.539 238.983 254.16 238.647C254.281 238.583 254.408 238.531 254.539 238.494L289.658 228.985L286.657 228.815C286.631 228.813 286.606 228.812 286.58 228.812Z" fill="#1D1E1E"/>
<path d="M290.414 228.947C291.324 228.7 292.232 229.32 292.442 230.331L300.318 268.226C300.528 269.237 299.96 270.257 299.05 270.503L263.219 280.206C262.307 280.453 261.4 279.832 261.19 278.821L253.314 240.927C253.104 239.916 253.671 238.896 254.582 238.649L290.414 228.947Z" fill="white"/>
<path d="M262.815 280.42C262.504 280.42 262.198 280.333 261.923 280.165C261.472 279.888 261.148 279.41 261.032 278.854L253.156 240.959C252.929 239.868 253.55 238.762 254.539 238.494L290.371 228.791C290.826 228.668 291.301 228.738 291.707 228.988C292.158 229.265 292.483 229.742 292.598 230.298L300.474 268.193C300.701 269.284 300.081 270.39 299.091 270.658L263.26 280.36C263.112 280.4 262.963 280.42 262.815 280.42ZM290.454 229.101L254.623 238.804C253.794 239.028 253.277 239.966 253.47 240.894L261.346 278.788C261.443 279.258 261.715 279.661 262.09 279.891C262.421 280.094 262.806 280.151 263.176 280.051L299.007 270.348C299.836 270.124 300.353 269.186 300.16 268.258L292.284 230.363C292.187 229.894 291.915 229.492 291.54 229.261C291.209 229.058 290.824 229.001 290.454 229.101Z" fill="#1D1E1E"/>
<path d="M291.305 233.972C291.099 233.978 288.234 233.745 288.14 233.848L282.174 235.464C281.995 235.515 281.828 235.606 281.693 235.734C281.335 236.061 281.191 236.584 281.288 237.054L281.828 239.65C281.932 240.182 282.368 240.624 282.903 240.652L285.727 240.812C285.219 240.783 284.772 240.388 284.652 239.811L284.112 237.214C284.037 236.85 284.105 236.456 284.308 236.143C284.465 235.894 284.712 235.703 284.997 235.624L290.964 234.008C291.075 233.978 291.19 233.966 291.305 233.972C291.305 233.972 291.305 233.972 291.305 233.972Z" fill="#1D1E1E"/>
<path d="M285.727 240.972L285.718 240.972L282.894 240.812C282.307 240.782 281.792 240.306 281.671 239.681L281.132 237.086C281.02 236.547 281.198 235.969 281.585 235.616C281.732 235.476 281.921 235.369 282.13 235.309L288.068 233.701C288.176 233.643 288.528 233.636 290.565 233.769C290.845 233.787 291.112 233.805 291.236 233.81C291.262 233.809 291.288 233.81 291.314 233.812C291.355 233.814 291.394 233.832 291.422 233.862C291.451 233.893 291.466 233.933 291.465 233.974C291.465 234.015 291.449 234.055 291.42 234.084C291.391 234.114 291.351 234.131 291.31 234.132C291.295 234.133 291.269 234.132 291.233 234.131C291.157 234.132 291.08 234.143 291.006 234.163L285.039 235.779C284.8 235.845 284.582 236.009 284.443 236.229C284.265 236.504 284.202 236.851 284.269 237.182L284.809 239.778C284.91 240.267 285.291 240.626 285.735 240.652H285.736C285.778 240.654 285.818 240.672 285.847 240.703C285.875 240.734 285.891 240.774 285.89 240.817C285.888 240.859 285.871 240.899 285.84 240.928C285.81 240.957 285.769 240.973 285.727 240.972ZM288.213 233.99C288.203 233.996 288.193 234 288.182 234.002L282.216 235.618C282.062 235.661 281.92 235.741 281.803 235.85C281.496 236.131 281.356 236.59 281.445 237.021L281.985 239.617C282.079 240.102 282.469 240.468 282.912 240.491L284.906 240.605C284.705 240.408 284.557 240.145 284.495 239.843L283.955 237.247C283.871 236.833 283.95 236.399 284.173 236.056C284.353 235.771 284.638 235.557 284.955 235.469L290.147 234.063C289.412 234.017 288.394 233.958 288.213 233.99ZM279.91 237.058L277.086 236.897C276.972 236.891 276.856 236.903 276.745 236.933L270.778 238.549C270.656 238.584 270.54 238.638 270.435 238.708C269.984 239.017 269.781 239.611 269.892 240.14L270.432 242.736C270.552 243.314 271 243.709 271.508 243.737L274.331 243.898C273.824 243.869 273.376 243.474 273.255 242.896L272.716 240.3C272.641 239.936 272.709 239.542 272.912 239.229C273.069 238.98 273.316 238.789 273.601 238.71L279.569 237.094C279.68 237.063 279.795 237.051 279.91 237.058Z" fill="#1D1E1E"/>
<path d="M274.331 244.058L274.322 244.058L271.498 243.898C270.909 243.864 270.405 243.4 270.274 242.769L269.735 240.173C269.607 239.566 269.857 238.91 270.344 238.576C270.464 238.496 270.595 238.435 270.734 238.395L276.703 236.778C276.83 236.744 276.963 236.73 277.095 236.737L279.919 236.897C279.94 236.899 279.96 236.904 279.979 236.913C279.998 236.922 280.015 236.935 280.029 236.951C280.043 236.966 280.054 236.985 280.061 237.004C280.068 237.024 280.071 237.045 280.07 237.066C280.068 237.087 280.063 237.108 280.054 237.127C280.045 237.146 280.032 237.163 280.016 237.177C280.001 237.191 279.982 237.202 279.963 237.209C279.943 237.216 279.922 237.219 279.901 237.218C279.803 237.212 279.705 237.223 279.61 237.248L273.643 238.864C273.403 238.931 273.185 239.095 273.046 239.315C272.868 239.591 272.804 239.937 272.872 240.268L273.411 242.864C273.513 243.353 273.895 243.712 274.339 243.738H274.34C274.382 243.739 274.421 243.758 274.45 243.788C274.478 243.819 274.494 243.86 274.493 243.902C274.492 243.944 274.474 243.984 274.444 244.013C274.414 244.042 274.373 244.059 274.331 244.058ZM270.042 240.108C270.065 240.188 270.092 240.314 270.133 240.513L270.588 242.703C270.69 243.193 271.072 243.552 271.516 243.577L273.51 243.69C273.308 243.494 273.161 243.23 273.098 242.929L272.558 240.332C272.474 239.92 272.554 239.486 272.777 239.142C272.957 238.857 273.242 238.643 273.558 238.555L273.559 238.559C273.615 238.54 273.696 238.518 273.815 238.485L278.74 237.152L277.077 237.057C276.979 237.052 276.881 237.062 276.787 237.088L270.819 238.704C270.714 238.735 270.614 238.781 270.523 238.842C270.143 239.103 269.947 239.624 270.049 240.106L270.042 240.108ZM261.29 243.105C261.279 242.534 261.638 241.948 262.205 241.795L268.173 240.179C268.284 240.149 268.399 240.137 268.514 240.143C268.308 240.149 265.442 239.917 265.35 240.019L259.382 241.635C259.203 241.686 259.036 241.777 258.901 241.905C258.544 242.232 258.399 242.756 258.496 243.225L259.036 245.822C259.156 246.4 259.604 246.795 260.111 246.823L262.935 246.984C262.427 246.955 261.98 246.56 261.86 245.982C261.847 245.883 261.234 243.088 261.29 243.105Z" fill="#1D1E1E"/>
<path d="M262.935 247.144L262.926 247.144L260.102 246.984C259.513 246.95 259.011 246.486 258.879 245.854L258.34 243.258C258.228 242.718 258.406 242.141 258.793 241.787C258.94 241.647 259.129 241.541 259.338 241.481L265.276 239.873C265.383 239.813 265.728 239.807 267.775 239.941C268.054 239.959 268.32 239.976 268.444 239.981C268.47 239.981 268.497 239.982 268.523 239.983C268.564 239.986 268.603 240.004 268.631 240.034C268.659 240.064 268.675 240.104 268.674 240.146C268.674 240.187 268.657 240.227 268.628 240.256C268.599 240.286 268.56 240.303 268.518 240.304C268.503 240.304 268.477 240.304 268.441 240.302C268.365 240.304 268.289 240.314 268.215 240.334L262.248 241.95C261.783 242.075 261.44 242.57 261.45 243.102C261.451 243.113 261.45 243.123 261.448 243.134C261.467 243.345 261.75 244.679 261.888 245.33C261.983 245.781 262.015 245.93 262.019 245.962C262.118 246.439 262.499 246.798 262.943 246.824H262.944C262.986 246.826 263.024 246.845 263.052 246.876C263.08 246.906 263.095 246.947 263.094 246.988C263.093 247.03 263.076 247.069 263.046 247.098C263.017 247.127 262.977 247.144 262.935 247.144ZM265.423 240.162C265.413 240.167 265.402 240.171 265.392 240.174L259.424 241.79C259.27 241.833 259.128 241.913 259.011 242.022C258.704 242.303 258.564 242.762 258.654 243.193L259.193 245.789C259.295 246.278 259.676 246.638 260.121 246.663L262.114 246.776C261.913 246.58 261.766 246.316 261.703 246.015C261.696 245.97 261.637 245.691 261.574 245.396C261.231 243.773 261.128 243.285 261.131 243.108H261.13C261.117 242.422 261.551 241.805 262.164 241.64L262.165 241.645C262.221 241.625 262.302 241.603 262.42 241.571L267.355 240.235C266.621 240.188 265.603 240.129 265.423 240.162ZM285.991 246.119C285.98 245.548 286.339 244.962 286.906 244.809L292.873 243.194C292.984 243.163 293.099 243.151 293.214 243.158C293.008 243.164 290.143 242.931 290.049 243.033L284.083 244.649C283.886 244.705 283.706 244.811 283.562 244.956C283.235 245.287 283.103 245.786 283.197 246.24L283.737 248.835C283.857 249.414 284.304 249.809 284.812 249.837L287.636 249.998C287.128 249.969 286.681 249.574 286.56 248.995C286.548 248.895 285.935 246.102 285.991 246.119Z" fill="#1D1E1E"/>
<path d="M287.637 250.158L287.627 250.158L284.804 249.997C284.215 249.964 283.712 249.499 283.58 248.867L283.041 246.272C282.933 245.754 283.09 245.206 283.449 244.843C283.613 244.678 283.816 244.558 284.04 244.494L289.977 242.887C290.085 242.829 290.438 242.822 292.474 242.954C292.752 242.973 293.019 242.99 293.144 242.996C293.171 242.995 293.197 242.996 293.224 242.997C293.265 243 293.304 243.018 293.332 243.048C293.36 243.078 293.375 243.118 293.375 243.16C293.374 243.201 293.358 243.241 293.329 243.27C293.3 243.3 293.261 243.317 293.219 243.318C293.204 243.319 293.177 243.318 293.141 243.316C293.065 243.318 292.989 243.328 292.915 243.349L286.949 244.964C286.484 245.089 286.141 245.584 286.152 246.116C286.152 246.126 286.151 246.137 286.149 246.148C286.169 246.359 286.451 247.691 286.588 248.341C286.684 248.793 286.716 248.942 286.72 248.974C286.819 249.452 287.201 249.812 287.645 249.837H287.645C287.687 249.84 287.726 249.859 287.754 249.889C287.782 249.92 287.797 249.96 287.796 250.002C287.794 250.043 287.777 250.083 287.748 250.112C287.718 250.141 287.678 250.157 287.637 250.158ZM283.348 246.208C283.372 246.288 283.398 246.414 283.439 246.612L283.894 248.801C283.996 249.292 284.377 249.652 284.822 249.677L286.816 249.79C286.614 249.593 286.466 249.329 286.404 249.027C286.397 248.982 286.338 248.703 286.275 248.407C285.932 246.788 285.83 246.299 285.832 246.122H285.831C285.818 245.436 286.253 244.819 286.865 244.654L286.866 244.658C286.922 244.639 287.003 244.617 287.121 244.585L292.056 243.249C291.322 243.202 290.303 243.143 290.123 243.176C290.113 243.181 290.103 243.185 290.092 243.188L284.125 244.804C283.955 244.852 283.801 244.944 283.676 245.069C283.392 245.356 283.269 245.792 283.355 246.207L283.348 246.208ZM290.113 243.178C290.113 243.178 290.113 243.178 290.113 243.178V243.178ZM274.595 249.205C274.584 248.634 274.943 248.048 275.51 247.895L281.478 246.279C281.589 246.249 281.704 246.237 281.819 246.243C281.609 246.254 278.75 246.013 278.654 246.119L272.687 247.735C272.409 247.811 272.172 247.994 272.011 248.23C271.799 248.549 271.724 248.951 271.801 249.325L272.34 251.92C272.461 252.499 272.909 252.894 273.417 252.923L276.24 253.083C275.733 253.054 275.284 252.66 275.164 252.08C275.152 251.981 274.539 249.188 274.595 249.205Z" fill="#1D1E1E"/>
<path d="M276.24 253.244L276.231 253.244L273.407 253.083C272.818 253.05 272.315 252.585 272.183 251.953L271.644 249.358C271.557 248.938 271.642 248.495 271.878 248.142C272.067 247.863 272.339 247.664 272.644 247.58L278.579 245.973C278.684 245.913 279.014 245.906 280.991 246.036C281.286 246.055 281.589 246.075 281.732 246.081C281.764 246.081 281.796 246.081 281.828 246.083C281.868 246.086 281.906 246.104 281.934 246.134C281.961 246.164 281.977 246.203 281.977 246.244C281.977 246.284 281.961 246.323 281.933 246.353C281.906 246.383 281.868 246.401 281.827 246.403C281.809 246.404 281.777 246.404 281.733 246.402C281.661 246.404 281.59 246.415 281.519 246.434L275.552 248.05C275.087 248.175 274.745 248.67 274.755 249.202C274.755 249.213 274.754 249.223 274.752 249.234C274.772 249.445 275.054 250.778 275.192 251.428C275.287 251.879 275.319 252.028 275.323 252.061C275.422 252.538 275.804 252.898 276.249 252.923H276.249C276.27 252.925 276.291 252.93 276.31 252.939C276.329 252.948 276.346 252.961 276.36 252.977C276.374 252.992 276.384 253.011 276.391 253.031C276.398 253.051 276.401 253.072 276.4 253.093C276.398 253.133 276.38 253.172 276.35 253.2C276.32 253.228 276.281 253.244 276.24 253.244ZM278.755 246.243C278.701 246.272 278.605 246.298 278.439 246.343L272.728 247.89C272.497 247.953 272.289 248.106 272.144 248.321C271.956 248.602 271.888 248.956 271.958 249.293L272.497 251.888C272.599 252.378 272.981 252.738 273.426 252.763L275.419 252.876C275.218 252.679 275.07 252.415 275.007 252.113C275 252.068 274.941 251.79 274.878 251.495C274.535 249.875 274.434 249.385 274.436 249.208H274.434C274.422 248.523 274.856 247.905 275.468 247.741L280.656 246.336C279.909 246.287 278.868 246.225 278.718 246.264C278.718 246.263 278.735 246.259 278.755 246.243ZM263.199 252.29C263.188 251.719 263.548 251.133 264.115 250.981L270.082 249.365C270.193 249.335 270.308 249.322 270.423 249.329C270.217 249.335 267.351 249.102 267.259 249.204L261.291 250.82C261.112 250.872 260.945 250.963 260.81 251.091C260.453 251.417 260.308 251.941 260.406 252.411L260.945 255.006C261.065 255.585 261.513 255.98 262.02 256.009L264.844 256.169C264.336 256.14 263.889 255.745 263.768 255.166C263.756 255.067 263.143 252.274 263.199 252.29Z" fill="#1D1E1E"/>
<path d="M264.844 256.33L264.835 256.329L262.012 256.169C261.423 256.136 260.92 255.671 260.788 255.039L260.249 252.444C260.137 251.904 260.315 251.326 260.702 250.973C260.849 250.833 261.039 250.726 261.247 250.666L267.185 249.059C267.292 248.998 267.637 248.993 269.683 249.126C269.962 249.144 270.229 249.162 270.353 249.167C270.38 249.167 270.406 249.167 270.432 249.169C270.473 249.171 270.512 249.189 270.54 249.22C270.569 249.25 270.584 249.29 270.583 249.331C270.583 249.373 270.566 249.412 270.537 249.442C270.508 249.471 270.469 249.488 270.428 249.489C270.412 249.49 270.386 249.489 270.35 249.488C270.274 249.489 270.198 249.5 270.124 249.52L264.157 251.136C263.692 251.261 263.349 251.756 263.36 252.287C263.36 252.298 263.359 252.309 263.357 252.319C263.377 252.53 263.659 253.864 263.797 254.515C263.892 254.966 263.924 255.114 263.928 255.146C264.027 255.624 264.408 255.984 264.853 256.009H264.853C264.895 256.012 264.934 256.03 264.962 256.061C264.99 256.092 265.005 256.132 265.003 256.174C265.002 256.215 264.985 256.255 264.955 256.284C264.926 256.313 264.886 256.329 264.844 256.33ZM267.332 249.347C267.322 249.353 267.312 249.357 267.301 249.359L261.333 250.975C261.179 251.019 261.038 251.098 260.921 251.207C260.613 251.488 260.473 251.947 260.563 252.378L261.102 254.973C261.204 255.464 261.585 255.823 262.03 255.849L264.024 255.962C263.822 255.765 263.674 255.501 263.612 255.199C263.605 255.154 263.546 254.876 263.483 254.581C263.14 252.959 263.038 252.47 263.04 252.294H263.039C263.026 251.608 263.46 250.991 264.073 250.826L269.264 249.42C268.531 249.374 267.512 249.315 267.332 249.347ZM267.378 249.312C267.377 249.313 267.378 249.313 267.378 249.312C267.377 249.313 267.377 249.313 267.378 249.312ZM295.123 252.342C294.917 252.348 292.052 252.115 291.958 252.217L285.992 253.833C285.813 253.884 285.646 253.975 285.511 254.103C285.153 254.43 285.009 254.954 285.106 255.423L285.646 258.02C285.766 258.598 286.214 258.994 286.722 259.023L289.546 259.183C289.038 259.154 288.59 258.758 288.469 258.18L287.93 255.584C287.861 255.248 287.912 254.9 288.074 254.598C288.23 254.31 288.496 254.081 288.815 253.993L294.782 252.378C294.893 252.347 295.008 252.335 295.123 252.342C295.123 252.342 295.123 252.342 295.123 252.342Z" fill="#1D1E1E"/>
<path d="M289.546 259.343C289.543 259.343 289.54 259.344 289.536 259.343L286.714 259.183C286.124 259.149 285.621 258.685 285.489 258.052L284.95 255.456C284.838 254.916 285.016 254.339 285.403 253.985C285.55 253.845 285.739 253.739 285.948 253.679L291.886 252.071C291.995 252.013 292.347 252.006 294.383 252.139C294.663 252.157 294.93 252.174 295.054 252.18C295.081 252.18 295.107 252.18 295.133 252.182C295.174 252.184 295.213 252.202 295.241 252.232C295.269 252.263 295.285 252.302 295.284 252.344C295.283 252.385 295.267 252.425 295.238 252.454C295.209 252.484 295.17 252.501 295.128 252.502C295.103 252.502 295.077 252.502 295.051 252.501C294.975 252.502 294.898 252.513 294.824 252.533L288.858 254.148C288.591 254.222 288.357 254.413 288.216 254.675C288.073 254.943 288.027 255.253 288.088 255.552L288.627 258.148C288.729 258.638 289.111 258.998 289.556 259.023C289.577 259.024 289.597 259.03 289.616 259.039C289.635 259.048 289.652 259.061 289.666 259.076C289.68 259.092 289.691 259.11 289.698 259.13C289.705 259.15 289.708 259.171 289.707 259.192C289.704 259.233 289.686 259.272 289.656 259.3C289.627 259.328 289.587 259.343 289.546 259.343ZM292.032 252.36C292.022 252.365 292.011 252.369 292 252.372L286.034 253.988C285.88 254.031 285.739 254.11 285.622 254.22C285.314 254.501 285.174 254.959 285.264 255.391L285.803 257.987C285.905 258.477 286.287 258.837 286.732 258.862L288.725 258.976C288.524 258.779 288.376 258.515 288.313 258.213L287.773 255.616C287.696 255.244 287.753 254.857 287.933 254.522C288.116 254.184 288.422 253.935 288.773 253.839L293.965 252.433C293.231 252.386 292.212 252.328 292.032 252.36ZM283.728 255.427C283.522 255.434 280.657 255.201 280.563 255.303L274.596 256.919C274.416 256.969 274.252 257.062 274.116 257.188C273.758 257.515 273.613 258.039 273.71 258.509L274.25 261.106C274.37 261.684 274.819 262.08 275.327 262.108L278.15 262.269C277.642 262.24 277.194 261.844 277.073 261.266L276.534 258.67C276.465 258.334 276.516 257.986 276.678 257.684C276.834 257.396 277.1 257.167 277.419 257.079L283.387 255.463C283.498 255.433 283.613 255.421 283.728 255.427Z" fill="#1D1E1E"/>
<path d="M278.15 262.429L278.139 262.429L275.317 262.269C274.728 262.235 274.224 261.77 274.093 261.139L273.553 258.542C273.441 258.002 273.62 257.424 274.008 257.07C274.155 256.931 274.343 256.825 274.551 256.765L280.49 255.157C280.599 255.099 280.951 255.092 282.988 255.224C283.267 255.243 283.534 255.26 283.658 255.266C283.685 255.266 283.711 255.266 283.737 255.267C283.778 255.27 283.817 255.288 283.845 255.318C283.873 255.348 283.889 255.388 283.888 255.43C283.888 255.471 283.871 255.511 283.842 255.54C283.813 255.57 283.774 255.587 283.733 255.588C283.717 255.589 283.691 255.588 283.656 255.586C283.579 255.588 283.503 255.598 283.429 255.619L277.461 257.235C277.195 257.308 276.961 257.5 276.819 257.761C276.676 258.03 276.631 258.339 276.691 258.638L277.23 261.234C277.332 261.724 277.714 262.083 278.158 262.109H278.159C278.18 262.11 278.201 262.116 278.22 262.125C278.239 262.134 278.256 262.147 278.27 262.162C278.284 262.178 278.295 262.196 278.302 262.216C278.309 262.236 278.311 262.257 278.31 262.278C278.308 262.319 278.29 262.358 278.26 262.386C278.23 262.414 278.191 262.429 278.15 262.429ZM280.636 255.446C280.626 255.451 280.616 255.455 280.605 255.458L274.637 257.074C274.484 257.117 274.343 257.196 274.226 257.305C273.918 257.586 273.778 258.045 273.867 258.477L274.407 261.073C274.509 261.563 274.891 261.923 275.336 261.948L277.329 262.062C277.127 261.865 276.979 261.601 276.916 261.299L276.377 258.703C276.3 258.33 276.357 257.943 276.537 257.608C276.72 257.27 277.026 257.021 277.377 256.925L282.569 255.519C281.835 255.472 280.817 255.413 280.636 255.446ZM272.332 258.513C272.124 258.524 269.262 258.283 269.168 258.389L263.2 260.005C262.924 260.081 262.687 260.262 262.527 260.497L262.525 260.5C262.313 260.818 262.237 261.22 262.315 261.595L262.854 264.191C262.975 264.769 263.423 265.165 263.931 265.194L266.754 265.355C266.246 265.326 265.798 264.93 265.678 264.352L265.138 261.755C265.064 261.39 265.131 260.996 265.334 260.684C265.492 260.435 265.739 260.244 266.024 260.165L271.992 258.549C272.102 258.519 272.217 258.507 272.332 258.513Z" fill="#1D1E1E"/>
<path d="M266.754 265.515L266.745 265.515H266.744L263.921 265.355C263.332 265.321 262.828 264.856 262.697 264.224L262.157 261.628C262.07 261.208 262.156 260.764 262.391 260.411C262.581 260.132 262.852 259.934 263.157 259.85L269.093 258.243C269.198 258.183 269.533 258.177 271.504 258.306C271.8 258.326 272.104 258.346 272.247 258.352C272.278 258.351 272.309 258.352 272.34 258.353C272.381 258.356 272.42 258.373 272.448 258.403C272.476 258.433 272.492 258.473 272.491 258.514C272.491 258.555 272.476 258.594 272.447 258.624C272.419 258.654 272.381 258.671 272.34 258.674C272.309 258.675 272.278 258.674 272.247 258.673C272.174 258.675 272.103 258.685 272.033 258.704L266.065 260.32C265.825 260.387 265.608 260.551 265.469 260.77C265.29 261.045 265.227 261.392 265.295 261.724L265.834 264.32C265.936 264.81 266.318 265.17 266.762 265.195C266.783 265.196 266.804 265.201 266.823 265.211C266.842 265.22 266.859 265.233 266.873 265.248C266.887 265.264 266.898 265.282 266.905 265.302C266.912 265.322 266.915 265.343 266.913 265.364C266.911 265.405 266.893 265.443 266.864 265.471C266.834 265.5 266.795 265.515 266.754 265.515ZM269.242 258.531C269.231 258.536 269.221 258.54 269.209 258.543L263.242 260.16C263.011 260.223 262.804 260.375 262.659 260.588C262.565 260.73 262.5 260.889 262.468 261.057C262.436 261.224 262.437 261.396 262.471 261.563L263.011 264.159C263.113 264.649 263.494 265.009 263.939 265.034L265.933 265.147C265.731 264.951 265.583 264.687 265.521 264.385L264.981 261.788C264.897 261.374 264.976 260.94 265.2 260.597C265.38 260.313 265.664 260.098 265.981 260.011L271.17 258.606C270.437 258.558 269.423 258.497 269.242 258.531ZM289.809 264.488C289.798 263.917 290.157 263.331 290.724 263.179L296.691 261.563C296.802 261.533 296.917 261.521 297.032 261.527C296.825 261.533 293.961 261.301 293.867 261.403L287.9 263.019C287.721 263.069 287.556 263.161 287.42 263.288C287.062 263.615 286.918 264.139 287.015 264.609L287.554 267.204C287.675 267.783 288.122 268.178 288.63 268.207L291.454 268.367C290.946 268.338 290.498 267.943 290.378 267.364C290.366 267.265 289.753 264.471 289.809 264.488Z" fill="#1D1E1E"/>
<path d="M291.455 268.527L291.445 268.527L288.622 268.367C288.033 268.333 287.53 267.869 287.398 267.237L286.859 264.641C286.747 264.101 286.925 263.524 287.313 263.17C287.46 263.03 287.649 262.924 287.857 262.864L293.795 261.257C293.904 261.199 294.256 261.191 296.292 261.324C296.571 261.342 296.838 261.36 296.963 261.365C296.989 261.365 297.016 261.366 297.042 261.367C297.083 261.369 297.122 261.388 297.15 261.418C297.178 261.448 297.194 261.488 297.193 261.529C297.193 261.571 297.176 261.61 297.147 261.64C297.118 261.669 297.079 261.686 297.038 261.688C297.022 261.688 296.996 261.688 296.96 261.686C296.884 261.687 296.807 261.698 296.734 261.718L290.767 263.334C290.302 263.459 289.96 263.954 289.97 264.485C289.971 264.496 289.97 264.507 289.968 264.518C289.987 264.729 290.27 266.062 290.408 266.713C290.503 267.164 290.534 267.312 290.538 267.344C290.638 267.822 291.019 268.181 291.463 268.207H291.464C291.485 268.208 291.506 268.214 291.525 268.223C291.543 268.232 291.56 268.245 291.574 268.26C291.589 268.276 291.599 268.294 291.606 268.314C291.613 268.334 291.616 268.355 291.615 268.376C291.612 268.417 291.594 268.456 291.565 268.484C291.535 268.512 291.496 268.527 291.455 268.527ZM293.941 261.545C293.931 261.551 293.92 261.555 293.91 261.557L287.943 263.173C287.789 263.216 287.648 263.296 287.531 263.405C287.223 263.686 287.084 264.145 287.173 264.576L287.712 267.171C287.814 267.661 288.196 268.021 288.64 268.046L290.634 268.16C290.433 267.963 290.285 267.699 290.222 267.397C290.215 267.352 290.156 267.074 290.093 266.779C289.75 265.157 289.647 264.668 289.65 264.491H289.649C289.636 263.806 290.071 263.189 290.683 263.024L295.874 261.618C295.14 261.572 294.121 261.513 293.941 261.545ZM293.931 261.547C293.931 261.548 293.931 261.548 293.931 261.547V261.547ZM278.413 267.574C278.402 267.003 278.761 266.418 279.328 266.265L285.296 264.649C285.407 264.618 285.522 264.606 285.637 264.613C285.431 264.619 282.566 264.386 282.473 264.488L276.505 266.104C276.326 266.154 276.161 266.247 276.025 266.374C275.667 266.701 275.522 267.224 275.619 267.695L276.159 270.29C276.279 270.869 276.727 271.264 277.235 271.293L280.059 271.453C279.551 271.424 279.103 271.029 278.982 270.45C278.97 270.351 278.357 267.557 278.413 267.574Z" fill="#1D1E1E"/>
<path d="M280.059 271.614L280.049 271.614L277.226 271.453C276.636 271.42 276.133 270.955 276.002 270.323L275.462 267.728C275.35 267.188 275.529 266.61 275.917 266.256C276.064 266.117 276.252 266.01 276.46 265.95L282.4 264.342C282.508 264.284 282.861 264.277 284.897 264.41C285.176 264.428 285.443 264.445 285.567 264.451C285.593 264.451 285.62 264.451 285.646 264.453C285.688 264.455 285.726 264.473 285.754 264.504C285.783 264.534 285.798 264.574 285.798 264.615C285.797 264.656 285.78 264.696 285.751 264.725C285.722 264.755 285.683 264.772 285.642 264.773C285.616 264.774 285.59 264.773 285.564 264.772C285.488 264.773 285.412 264.784 285.338 264.804L279.371 266.42C278.906 266.545 278.563 267.04 278.573 267.572C278.574 267.582 278.573 267.593 278.571 267.603C278.59 267.814 278.872 269.147 279.01 269.797C279.106 270.249 279.137 270.398 279.141 270.43C279.241 270.908 279.623 271.268 280.067 271.293C280.109 271.295 280.149 271.313 280.178 271.344C280.207 271.375 280.222 271.416 280.221 271.458C280.22 271.5 280.202 271.54 280.172 271.569C280.141 271.598 280.101 271.614 280.059 271.614ZM282.545 264.631C282.535 264.637 282.525 264.641 282.514 264.644L276.546 266.26C276.39 266.304 276.247 266.385 276.135 266.491C275.827 266.772 275.687 267.231 275.776 267.662L276.315 270.257C276.417 270.748 276.799 271.108 277.244 271.133L279.237 271.246C279.036 271.049 278.888 270.785 278.825 270.483C278.818 270.438 278.759 270.159 278.697 269.864C278.353 268.244 278.252 267.755 278.254 267.578H278.253C278.24 266.892 278.675 266.275 279.287 266.11L279.288 266.114C279.343 266.095 279.424 266.073 279.543 266.041L284.479 264.704C283.744 264.658 282.726 264.599 282.545 264.631ZM282.59 264.597C282.59 264.597 282.59 264.597 282.59 264.597V264.597ZM267.018 270.66C267.006 270.089 267.366 269.503 267.933 269.351L273.901 267.735C274.012 267.705 274.126 267.692 274.241 267.699C274.036 267.705 271.169 267.472 271.077 267.574L265.109 269.19C264.93 269.242 264.763 269.333 264.628 269.461C264.271 269.787 264.127 270.311 264.224 270.781L264.763 273.376C264.883 273.955 265.331 274.35 265.839 274.379L268.662 274.539C268.155 274.51 267.707 274.115 267.587 273.536C267.574 273.437 266.962 270.644 267.018 270.66Z" fill="#1D1E1E"/>
<path d="M268.662 274.699L268.653 274.699L265.829 274.539C265.24 274.505 264.737 274.04 264.605 273.408L264.066 270.813C263.954 270.273 264.132 269.696 264.52 269.342C264.667 269.202 264.856 269.096 265.064 269.036L271.002 267.428C271.109 267.368 271.454 267.362 273.502 267.496C273.78 267.514 274.047 267.531 274.17 267.537C274.197 267.536 274.223 267.537 274.249 267.539C274.291 267.541 274.329 267.559 274.358 267.589C274.386 267.62 274.401 267.66 274.401 267.701C274.4 267.742 274.384 267.782 274.355 267.811C274.326 267.841 274.286 267.858 274.245 267.859C274.229 267.86 274.204 267.859 274.168 267.858C274.091 267.859 274.015 267.87 273.942 267.889L267.974 269.505C267.509 269.63 267.167 270.125 267.177 270.657C267.177 270.668 267.177 270.678 267.175 270.689C267.194 270.9 267.476 272.234 267.614 272.885C267.71 273.335 267.741 273.483 267.745 273.516C267.845 273.993 268.226 274.353 268.67 274.379H268.671C268.692 274.38 268.712 274.385 268.731 274.394C268.75 274.404 268.767 274.416 268.781 274.432C268.795 274.448 268.806 274.466 268.813 274.486C268.82 274.506 268.823 274.527 268.822 274.548C268.819 274.589 268.802 274.627 268.772 274.655C268.742 274.683 268.703 274.699 268.662 274.699ZM271.149 267.717C271.139 267.722 271.129 267.726 271.118 267.729L265.15 269.345C264.996 269.388 264.855 269.468 264.738 269.577C264.43 269.858 264.291 270.317 264.38 270.748L264.919 273.343C265.021 273.833 265.403 274.193 265.847 274.218L267.841 274.332C267.64 274.135 267.492 273.871 267.429 273.569C267.422 273.524 267.363 273.246 267.301 272.951C266.957 271.329 266.856 270.84 266.858 270.663H266.856C266.843 269.978 267.278 269.36 267.89 269.196L267.891 269.2C267.947 269.18 268.028 269.158 268.146 269.126L273.082 267.79C272.348 267.743 271.33 267.685 271.149 267.717Z" fill="#1D1E1E"/>
<path d="M290.965 234.008C291.601 233.836 292.234 234.269 292.381 234.975L292.921 237.572C293.067 238.277 292.671 238.988 292.035 239.16L286.069 240.776C285.433 240.948 284.799 240.516 284.652 239.811L284.113 237.214C283.966 236.508 284.362 235.796 284.998 235.624L290.965 234.008Z" fill="#F45100"/>
<path d="M285.787 240.974C285.558 240.974 285.333 240.909 285.139 240.789C284.813 240.589 284.579 240.244 284.495 239.843L283.956 237.247C283.792 236.46 284.241 235.663 284.956 235.469L290.923 233.854C291.086 233.809 291.256 233.799 291.423 233.823C291.59 233.848 291.751 233.906 291.894 233.996C292.22 234.196 292.455 234.541 292.538 234.943L293.078 237.539C293.241 238.325 292.792 239.122 292.077 239.315L286.111 240.931C286.003 240.96 285.895 240.974 285.787 240.974ZM291.245 234.131C291.165 234.131 291.085 234.142 291.006 234.163L285.04 235.779C284.485 235.929 284.14 236.558 284.269 237.182L284.809 239.778C284.874 240.093 285.056 240.361 285.306 240.515C285.413 240.582 285.532 240.625 285.656 240.643C285.78 240.662 285.906 240.654 286.027 240.621L291.993 239.006C292.548 238.855 292.893 238.227 292.764 237.604L292.224 235.008C292.159 234.693 291.977 234.423 291.726 234.269C291.582 234.179 291.415 234.131 291.245 234.131ZM279.569 237.094C280.205 236.922 280.839 237.354 280.986 238.061L281.526 240.657C281.672 241.362 281.276 242.074 280.64 242.246L274.672 243.862C274.037 244.034 273.402 243.602 273.256 242.897L272.716 240.3C272.569 239.594 272.967 238.882 273.601 238.71L279.569 237.094Z" fill="#F45100"/>
<path d="M274.391 244.06C274.162 244.06 273.937 243.995 273.742 243.874C273.416 243.674 273.182 243.33 273.098 242.929L272.559 240.333C272.395 239.546 272.844 238.749 273.559 238.555L279.527 236.939C279.69 236.895 279.861 236.884 280.028 236.909C280.195 236.933 280.355 236.992 280.499 237.081C280.825 237.282 281.059 237.627 281.143 238.028L281.682 240.625C281.846 241.41 281.397 242.207 280.682 242.401L274.714 244.017C274.609 244.046 274.5 244.06 274.391 244.06ZM279.611 237.249L273.643 238.865C273.089 239.015 272.743 239.644 272.873 240.268L273.412 242.864C273.478 243.178 273.659 243.447 273.91 243.601C274.016 243.667 274.135 243.711 274.259 243.729C274.383 243.748 274.509 243.74 274.63 243.707L280.598 242.091C281.152 241.941 281.498 241.313 281.368 240.69L280.829 238.094C280.763 237.778 280.582 237.509 280.331 237.355C280.225 237.288 280.106 237.245 279.982 237.227C279.858 237.208 279.732 237.216 279.611 237.249ZM268.174 240.18C268.809 240.008 269.444 240.44 269.591 241.146L270.13 243.743C270.277 244.448 269.879 245.16 269.245 245.332L263.277 246.948C262.641 247.12 262.007 246.688 261.86 245.982L261.321 243.386C261.174 242.679 261.57 241.968 262.206 241.795L268.174 240.18Z" fill="#F45100"/>
<path d="M262.996 247.146C262.767 247.145 262.542 247.081 262.347 246.96C262.022 246.76 261.787 246.416 261.704 246.015L261.164 243.419C261.001 242.632 261.45 241.834 262.165 241.641L268.133 240.025C268.464 239.935 268.809 239.986 269.104 240.167C269.43 240.368 269.665 240.713 269.748 241.114L270.288 243.71C270.451 244.496 270.002 245.293 269.287 245.487L263.319 247.103C263.212 247.131 263.104 247.146 262.996 247.146ZM268.455 240.302C268.375 240.302 268.295 240.313 268.216 240.334L262.249 241.95C261.694 242.101 261.349 242.73 261.478 243.353L262.018 245.95C262.083 246.264 262.265 246.533 262.515 246.687C262.621 246.753 262.74 246.797 262.864 246.815C262.988 246.833 263.115 246.826 263.236 246.793L269.203 245.177C269.758 245.027 270.103 244.398 269.974 243.775L269.434 241.179C269.369 240.864 269.187 240.595 268.936 240.441C268.792 240.351 268.625 240.303 268.455 240.302ZM292.874 243.194C293.51 243.021 294.144 243.454 294.291 244.161L294.83 246.756C294.977 247.462 294.581 248.173 293.945 248.346L287.978 249.961C287.342 250.134 286.708 249.701 286.562 248.995L286.022 246.4C285.875 245.693 286.272 244.982 286.908 244.809L292.874 243.194Z" fill="#F45100"/>
<path d="M287.696 250.16C287.467 250.159 287.243 250.095 287.048 249.974C286.722 249.774 286.488 249.429 286.404 249.027L285.865 246.432C285.701 245.646 286.15 244.848 286.865 244.655L292.832 243.039C292.995 242.994 293.165 242.984 293.332 243.009C293.5 243.033 293.66 243.092 293.803 243.181C294.129 243.381 294.364 243.726 294.447 244.128L294.987 246.723C295.15 247.51 294.701 248.307 293.986 248.501L288.02 250.116C287.914 250.145 287.805 250.16 287.696 250.16ZM292.915 243.349L286.949 244.964C286.395 245.114 286.049 245.744 286.179 246.367L286.718 248.962C286.783 249.277 286.965 249.547 287.216 249.701C287.322 249.767 287.441 249.811 287.565 249.829C287.689 249.847 287.815 249.84 287.936 249.807L293.902 248.191C294.457 248.041 294.802 247.412 294.673 246.788L294.133 244.193C294.068 243.878 293.886 243.608 293.635 243.454C293.529 243.388 293.41 243.344 293.286 243.326C293.163 243.308 293.036 243.316 292.915 243.349ZM281.478 246.279C282.115 246.107 282.748 246.54 282.895 247.246L283.435 249.841C283.581 250.548 283.185 251.259 282.549 251.431L276.581 253.047C275.947 253.219 275.311 252.787 275.165 252.081L274.625 249.486C274.478 248.779 274.876 248.067 275.511 247.895L281.478 246.279Z" fill="#F45100"/>
<path d="M276.3 253.246C276.071 253.245 275.846 253.181 275.652 253.06C275.326 252.86 275.091 252.515 275.007 252.114L274.468 249.519C274.305 248.732 274.753 247.934 275.469 247.741L281.436 246.125C281.599 246.08 281.77 246.07 281.937 246.094C282.104 246.119 282.265 246.178 282.408 246.267C282.734 246.467 282.969 246.812 283.052 247.214L283.591 249.809C283.755 250.595 283.306 251.393 282.591 251.587L276.623 253.203C276.518 253.231 276.409 253.246 276.3 253.246ZM281.52 246.434L275.552 248.05C274.998 248.201 274.653 248.83 274.782 249.453L275.321 252.048C275.387 252.363 275.568 252.633 275.819 252.787C275.926 252.853 276.044 252.897 276.168 252.915C276.292 252.933 276.419 252.926 276.539 252.893L282.507 251.277C283.061 251.127 283.407 250.498 283.277 249.874L282.738 247.279C282.673 246.964 282.491 246.694 282.24 246.54C282.134 246.474 282.015 246.43 281.891 246.412C281.767 246.394 281.641 246.401 281.52 246.434ZM270.083 249.365C270.718 249.193 271.353 249.625 271.5 250.332L272.039 252.927C272.186 253.633 271.789 254.345 271.154 254.517L265.186 256.133C264.55 256.305 263.916 255.873 263.769 255.166L263.23 252.571C263.083 251.865 263.479 251.153 264.115 250.981L270.083 249.365Z" fill="#F45100"/>
<path d="M264.904 256.332C264.675 256.331 264.451 256.267 264.256 256.146C263.93 255.946 263.695 255.601 263.612 255.199L263.073 252.604C262.909 251.818 263.358 251.02 264.073 250.826L270.041 249.21C270.372 249.121 270.717 249.171 271.012 249.353C271.339 249.553 271.573 249.898 271.657 250.299L272.196 252.894C272.36 253.681 271.911 254.478 271.196 254.672L265.228 256.288C265.121 256.317 265.012 256.332 264.904 256.332ZM270.125 249.52L264.157 251.136C263.603 251.286 263.257 251.915 263.387 252.539L263.926 255.134C263.991 255.449 264.173 255.719 264.424 255.873C264.53 255.939 264.649 255.983 264.773 256.001C264.897 256.019 265.023 256.011 265.144 255.978L271.112 254.362C271.666 254.212 272.011 253.583 271.882 252.96L271.343 250.365C271.277 250.05 271.096 249.78 270.845 249.626C270.738 249.56 270.62 249.516 270.496 249.498C270.372 249.48 270.245 249.487 270.125 249.52ZM294.782 252.378C295.418 252.206 296.052 252.638 296.199 253.345L296.738 255.941C296.885 256.646 296.489 257.359 295.853 257.531L289.887 259.147C289.25 259.319 288.616 258.885 288.47 258.18L287.93 255.584C287.783 254.877 288.179 254.166 288.816 253.994L294.782 252.378Z" fill="#F45100"/>
<path d="M289.606 259.345C289.377 259.345 289.153 259.28 288.958 259.16C288.632 258.959 288.397 258.614 288.314 258.213L287.774 255.617C287.611 254.83 288.059 254.033 288.775 253.839L294.741 252.223C295.072 252.134 295.417 252.184 295.713 252.366C296.039 252.566 296.273 252.911 296.357 253.312L296.896 255.909C297.06 256.695 296.611 257.493 295.896 257.686L289.929 259.302C289.823 259.331 289.714 259.345 289.606 259.345ZM294.825 252.533L288.858 254.148C288.304 254.299 287.958 254.928 288.088 255.551L288.628 258.148C288.693 258.463 288.875 258.732 289.126 258.886C289.232 258.952 289.351 258.996 289.475 259.014C289.599 259.033 289.725 259.025 289.846 258.992L295.812 257.377C296.366 257.227 296.712 256.597 296.582 255.974L296.043 253.377C295.977 253.062 295.796 252.793 295.545 252.639C295.439 252.572 295.32 252.529 295.196 252.511C295.072 252.492 294.946 252.5 294.825 252.533ZM283.388 255.464C284.024 255.291 284.658 255.724 284.804 256.431L285.344 259.027C285.491 259.732 285.095 260.445 284.459 260.617L278.491 262.233C277.856 262.405 277.221 261.972 277.074 261.267L276.534 258.67C276.388 257.963 276.785 257.252 277.42 257.08L283.388 255.464Z" fill="#F45100"/>
<path d="M278.21 262.431C277.981 262.431 277.756 262.366 277.562 262.245C277.235 262.045 277 261.7 276.917 261.299L276.377 258.703C276.214 257.916 276.663 257.119 277.378 256.925L283.346 255.309C283.677 255.219 284.022 255.27 284.317 255.451C284.643 255.652 284.878 255.997 284.961 256.398L285.501 258.994C285.664 259.781 285.216 260.579 284.5 260.772L278.533 262.388C278.428 262.417 278.319 262.431 278.21 262.431ZM283.429 255.619L277.461 257.235C276.907 257.385 276.562 258.014 276.691 258.637L277.231 261.234C277.296 261.549 277.478 261.818 277.729 261.972C277.836 262.039 277.954 262.082 278.078 262.101C278.202 262.119 278.328 262.111 278.449 262.079L284.417 260.463C284.971 260.313 285.317 259.683 285.187 259.06L284.647 256.463C284.582 256.148 284.4 255.879 284.149 255.725C284.043 255.658 283.924 255.614 283.8 255.596C283.676 255.578 283.55 255.586 283.429 255.619ZM271.992 258.549C272.627 258.377 273.262 258.81 273.409 259.516L273.949 262.113C274.095 262.818 273.698 263.531 273.063 263.703L267.095 265.319C266.459 265.491 265.825 265.057 265.679 264.352L265.139 261.756C264.992 261.049 265.388 260.338 266.024 260.165L271.992 258.549Z" fill="#F45100"/>
<path d="M266.814 265.517C266.585 265.516 266.36 265.452 266.166 265.331C265.84 265.13 265.605 264.786 265.521 264.384L264.982 261.788C264.818 261.002 265.267 260.204 265.982 260.01L271.95 258.394C272.281 258.305 272.626 258.355 272.922 258.537C273.248 258.737 273.483 259.082 273.566 259.483L274.106 262.08C274.269 262.866 273.82 263.664 273.105 263.858L267.137 265.474C267.032 265.502 266.923 265.517 266.814 265.517ZM272.034 258.704L266.066 260.32C265.512 260.47 265.166 261.099 265.295 261.723L265.835 264.319C265.9 264.634 266.082 264.903 266.333 265.058C266.439 265.124 266.558 265.168 266.682 265.186C266.806 265.204 266.932 265.197 267.053 265.164L273.021 263.548C273.575 263.398 273.921 262.768 273.791 262.145L273.252 259.548C273.186 259.233 273.005 258.964 272.753 258.81C272.647 258.744 272.529 258.7 272.405 258.682C272.281 258.664 272.154 258.671 272.034 258.704ZM296.691 261.563C297.327 261.391 297.961 261.824 298.108 262.53L298.647 265.125C298.794 265.832 298.398 266.543 297.762 266.715L291.796 268.331C291.159 268.503 290.526 268.071 290.379 267.364L289.839 264.769C289.693 264.063 290.089 263.351 290.725 263.179L296.691 261.563Z" fill="#F45100"/>
<path d="M291.515 268.529C291.286 268.529 291.061 268.465 290.866 268.344C290.541 268.143 290.306 267.798 290.223 267.397L289.683 264.802C289.52 264.015 289.969 263.218 290.684 263.024L296.65 261.409C296.813 261.364 296.984 261.354 297.151 261.378C297.318 261.403 297.478 261.462 297.622 261.551C297.948 261.751 298.182 262.096 298.266 262.498L298.805 265.093C298.969 265.879 298.52 266.677 297.805 266.87L291.838 268.486C291.733 268.515 291.624 268.529 291.515 268.529ZM296.973 261.686C296.893 261.686 296.813 261.697 296.734 261.718L290.767 263.334C290.213 263.484 289.868 264.113 289.997 264.737L290.536 267.332C290.602 267.647 290.783 267.916 291.034 268.07C291.141 268.137 291.259 268.18 291.383 268.199C291.507 268.217 291.634 268.209 291.754 268.176L297.721 266.561C298.275 266.411 298.621 265.781 298.491 265.158L297.952 262.563C297.886 262.248 297.705 261.978 297.454 261.824C297.31 261.734 297.143 261.687 296.973 261.686ZM285.297 264.649C285.933 264.477 286.567 264.909 286.714 265.616L287.253 268.211C287.4 268.918 287.004 269.629 286.367 269.801L280.4 271.417C279.765 271.589 279.13 271.157 278.983 270.45L278.444 267.855C278.297 267.149 278.694 266.437 279.329 266.265L285.297 264.649Z" fill="#F45100"/>
<path d="M280.118 271.615C279.889 271.615 279.665 271.55 279.47 271.43C279.144 271.229 278.909 270.884 278.826 270.483L278.286 267.888C278.123 267.102 278.572 266.304 279.287 266.11L285.255 264.494C285.418 264.45 285.588 264.44 285.755 264.464C285.923 264.489 286.083 264.547 286.226 264.636C286.552 264.837 286.787 265.182 286.871 265.583L287.41 268.178C287.573 268.965 287.124 269.762 286.409 269.956L280.442 271.572C280.336 271.601 280.228 271.615 280.118 271.615ZM285.577 264.772C285.498 264.772 285.417 264.782 285.338 264.804L279.371 266.42C278.816 266.57 278.471 267.199 278.6 267.823L279.14 270.418C279.205 270.733 279.387 271.002 279.638 271.156C279.744 271.222 279.863 271.266 279.987 271.284C280.111 271.303 280.237 271.295 280.358 271.262L286.325 269.646C286.88 269.496 287.225 268.867 287.096 268.244L286.557 265.649C286.491 265.333 286.309 265.064 286.059 264.91C285.914 264.82 285.748 264.772 285.577 264.772ZM273.901 267.735C274.536 267.563 275.171 267.995 275.318 268.702L275.857 271.297C276.004 272.003 275.607 272.715 274.972 272.887L269.004 274.503C268.368 274.675 267.734 274.243 267.587 273.536L267.048 270.941C266.901 270.234 267.297 269.523 267.934 269.351L273.901 267.735Z" fill="#F45100"/>
<path d="M268.722 274.701C268.493 274.701 268.269 274.636 268.074 274.516C267.749 274.315 267.514 273.97 267.43 273.569L266.891 270.974C266.728 270.187 267.176 269.39 267.892 269.196L273.859 267.58C274.19 267.49 274.535 267.541 274.831 267.722C275.157 267.923 275.392 268.268 275.475 268.669L276.014 271.264C276.178 272.051 275.729 272.848 275.014 273.042L269.046 274.658C268.941 274.686 268.832 274.701 268.722 274.701ZM274.182 267.858C274.102 267.858 274.022 267.868 273.943 267.89L267.975 269.506C267.421 269.656 267.075 270.285 267.205 270.908L267.744 273.503C267.81 273.819 267.991 274.088 268.242 274.242C268.348 274.309 268.467 274.352 268.591 274.37C268.715 274.389 268.841 274.381 268.962 274.348L274.93 272.732C275.484 272.582 275.83 271.953 275.7 271.329L275.161 268.734C275.095 268.419 274.914 268.15 274.663 267.996C274.518 267.906 274.352 267.858 274.182 267.858Z" fill="#F45100"/>
<path d="M234.919 186.222C233.634 178.134 235.246 169.6 239.521 162.605C244.87 153.707 254.558 147.79 265.034 148.404L260.093 148.123C257.115 147.948 253.952 148.32 250.956 149.248C244.088 151.322 238.271 156.222 234.58 162.324C230.366 169.223 228.733 177.62 229.928 185.608C231.94 200.267 243.481 211.442 256.443 212.029L261.384 212.309C248.526 211.704 237.082 200.789 234.919 186.222Z" fill="#1D1E1E"/>
<path d="M261.384 212.47L261.377 212.47C261.222 212.462 261.067 212.454 260.913 212.443L257.206 212.233C256.759 212.207 256.545 212.195 256.436 212.179L256.436 212.189C243.229 211.591 231.765 200.173 229.769 185.63C228.568 177.596 230.271 169.07 234.443 162.24C238.287 155.886 244.289 151.094 250.909 149.094C253.878 148.175 257.057 147.784 260.102 147.963L264.952 148.239L265.043 148.244H265.044C265.086 148.246 265.126 148.265 265.154 148.297C265.182 148.329 265.197 148.371 265.194 148.413C265.189 148.501 265.111 148.567 265.025 148.564L264.934 148.559C259.953 148.285 254.942 149.5 250.435 152.077C246.052 154.581 242.326 158.25 239.659 162.687C235.464 169.552 233.794 178.12 235.077 186.197L235.077 186.198C236.112 193.161 239.37 199.62 244.253 204.386C248.963 208.983 254.87 211.719 260.933 212.123L261.393 212.149C261.435 212.151 261.475 212.169 261.504 212.2C261.533 212.231 261.548 212.272 261.547 212.314C261.546 212.356 261.528 212.396 261.497 212.425C261.467 212.454 261.426 212.47 261.384 212.47ZM258.65 148.242C256.089 148.242 253.473 148.636 251.003 149.401C244.457 151.379 238.521 156.119 234.717 162.407C230.583 169.174 228.896 177.622 230.086 185.584C232.062 199.979 243.396 211.278 256.45 211.869L257.229 211.913C252.412 210.843 247.834 208.33 244.029 204.616C239.097 199.801 235.805 193.278 234.76 186.246C233.465 178.097 235.151 169.449 239.385 162.521C242.08 158.038 245.846 154.33 250.276 151.798C253.63 149.881 257.261 148.709 260.953 148.333L260.084 148.283C259.609 148.256 259.13 148.242 258.65 148.242Z" fill="#1D1E1E"/>
<path d="M256.75 149.28C272.202 145.096 287.621 155.617 291.188 172.781C294.755 189.944 285.119 207.249 269.667 211.433C254.215 215.617 238.796 205.096 235.229 187.934C231.662 170.77 241.298 153.465 256.75 149.28Z" fill="white"/>
<path d="M262.837 212.508C258.031 212.508 253.288 211.169 249.027 208.551C241.977 204.219 236.891 196.717 235.072 187.967C231.494 170.749 241.2 153.325 256.708 149.126C263.752 147.218 271.097 148.297 277.389 152.163C284.44 156.494 289.526 163.998 291.345 172.749C294.923 189.965 285.217 207.389 269.709 211.588C267.435 212.204 265.128 212.508 262.837 212.508ZM256.792 149.435C241.444 153.591 231.842 170.847 235.386 187.901C237.187 196.565 242.22 203.992 249.195 208.277C255.411 212.097 262.667 213.162 269.625 211.278C284.973 207.122 294.575 189.867 291.031 172.814C289.23 164.149 284.197 156.722 277.222 152.436C271.005 148.617 263.75 147.551 256.792 149.435Z" fill="#1D1E1E"/>
<path d="M296.291 121.316C294.595 120.6 292.978 120.293 292.189 120.19C292.048 120.172 291.905 120.2 291.782 120.27C291.658 120.341 291.562 120.45 291.506 120.581L269.105 173.757C269.104 173.758 269.106 173.761 269.111 173.765C269.958 174.203 270.857 174.557 271.73 174.945C273.412 175.666 275.101 176.378 276.801 177.055L276.802 177.055C277.092 177.163 277.378 177.296 277.676 177.374L277.679 177.373L300.083 124.191C300.137 124.061 300.148 123.917 300.114 123.78C300.079 123.643 300 123.521 299.89 123.433C299.283 122.946 297.975 122.026 296.291 121.316Z" fill="#F45100"/>
<path d="M277.675 177.534C277.662 177.534 277.649 177.532 277.636 177.529C277.421 177.473 277.214 177.39 277.014 177.31C276.923 177.273 276.833 177.238 276.742 177.204C274.916 176.477 273.152 175.729 271.667 175.092C271.408 174.978 271.149 174.865 270.888 174.754C270.274 174.491 269.639 174.219 269.037 173.907C269.027 173.902 269.018 173.896 269.009 173.889C268.954 173.843 268.931 173.76 268.957 173.695L291.359 120.519C291.428 120.356 291.549 120.22 291.702 120.132C291.856 120.044 292.034 120.009 292.21 120.031C292.701 120.095 294.453 120.366 296.354 121.168C298.247 121.966 299.616 123.008 299.991 123.308C300.128 123.418 300.225 123.57 300.268 123.74C300.312 123.911 300.298 124.091 300.231 124.253L277.827 177.435C277.811 177.472 277.782 177.502 277.745 177.519C277.723 177.529 277.699 177.534 277.675 177.534ZM276.858 176.905L276.862 176.906C276.949 176.939 277.041 176.975 277.132 177.012C277.287 177.074 277.436 177.133 277.586 177.181L299.935 124.129C299.976 124.031 299.984 123.923 299.958 123.82C299.931 123.717 299.873 123.625 299.79 123.559C299.424 123.265 298.084 122.246 296.229 121.464C294.365 120.678 292.65 120.412 292.168 120.35C292.062 120.336 291.955 120.358 291.862 120.411C291.769 120.464 291.696 120.545 291.654 120.644L269.308 173.686C269.863 173.966 270.448 174.217 271.014 174.46C271.275 174.572 271.536 174.684 271.795 174.799C273.276 175.433 275.037 176.18 276.858 176.905Z" fill="white"/>
<path d="M309.317 221.073C309.317 220.72 309.239 220.362 309.047 220.062C308.971 219.911 278.354 183.312 278.244 183.159C278.299 183.225 278.349 183.296 278.393 183.373C277.653 182.097 275.389 182.305 273.336 183.837C271.217 185.464 270.07 187.771 271.112 189.137C271.111 189.135 271.109 189.134 271.108 189.133L301.797 225.878C302.074 226.208 302.481 226.397 302.903 226.463C304.952 226.719 307.136 225.164 308.319 223.593L308.321 223.591C308.854 222.857 309.3 221.996 309.317 221.073ZM273.466 189.667C273.449 189.67 273.434 189.672 273.417 189.675C273.481 189.663 273.546 189.648 273.611 189.632C273.563 189.645 273.515 189.658 273.466 189.667ZM273.139 189.722C273.117 189.725 273.096 189.726 273.074 189.728C273.135 189.722 273.197 189.713 273.26 189.703C273.22 189.71 273.18 189.719 273.139 189.722ZM272.83 189.75C272.801 189.752 272.773 189.75 272.744 189.75C272.803 189.749 272.862 189.747 272.922 189.742C272.892 189.745 272.861 189.749 272.83 189.75ZM273.826 189.575C273.875 189.561 273.924 189.546 273.973 189.531C273.925 189.548 273.876 189.562 273.826 189.575ZM275.268 188.949C275.349 188.901 275.431 188.85 275.513 188.798C275.431 188.85 275.351 188.901 275.268 188.949ZM274.886 189.156L274.883 189.157C274.959 189.119 275.035 189.077 275.111 189.036C275.036 189.077 274.962 189.12 274.886 189.156ZM274.538 189.32C274.528 189.325 274.518 189.328 274.508 189.332C274.579 189.302 274.651 189.267 274.723 189.233C274.662 189.263 274.6 189.293 274.538 189.32ZM274.146 189.474C274.211 189.45 274.278 189.424 274.344 189.398C274.278 189.425 274.213 189.452 274.146 189.474ZM275.68 188.691L275.653 188.709C275.662 188.703 275.671 188.697 275.68 188.691ZM272.6 189.751C272.543 189.752 272.486 189.749 272.43 189.741C272.486 189.746 272.542 189.749 272.6 189.751ZM272.214 189.717C272.187 189.713 272.162 189.705 272.135 189.7C272.187 189.711 272.24 189.721 272.295 189.728C272.268 189.726 272.241 189.722 272.214 189.717ZM271.956 189.661C271.923 189.651 271.892 189.638 271.859 189.627C271.909 189.644 271.958 189.66 272.009 189.674C271.992 189.669 271.973 189.667 271.956 189.661ZM271.707 189.572C271.671 189.557 271.64 189.537 271.606 189.52C271.652 189.543 271.698 189.567 271.746 189.587C271.733 189.583 271.72 189.577 271.707 189.572ZM271.471 189.447C271.438 189.426 271.408 189.401 271.376 189.378C271.419 189.409 271.461 189.442 271.507 189.469L271.507 189.469C271.495 189.462 271.483 189.454 271.471 189.447Z" fill="#F45100"/>
<path d="M303.35 226.65C303.194 226.65 303.038 226.641 302.883 226.622C302.385 226.545 301.957 226.318 301.674 225.981L270.985 189.235C270.98 189.229 270.975 189.223 270.971 189.216C269.953 187.85 270.923 185.488 273.238 183.71C274.602 182.692 276.144 182.204 277.264 182.433C277.724 182.527 278.098 182.739 278.362 183.05L278.367 183.056C278.378 183.07 278.39 183.084 278.401 183.099C278.792 183.573 283.125 188.758 288.113 194.726C304.616 214.472 309.146 219.902 309.19 219.989C309.376 220.278 309.478 220.658 309.477 221.073V221.076C309.462 221.902 309.126 222.755 308.451 223.685C307.333 225.169 305.316 226.65 303.35 226.65ZM271.877 189.804L301.92 225.775C302.152 226.052 302.51 226.24 302.927 226.304C304.905 226.551 307.042 225.022 308.191 223.497C308.827 222.622 309.142 221.829 309.156 221.071C309.157 220.718 309.072 220.399 308.912 220.148C308.707 219.867 296.662 205.455 287.868 194.932C282.408 188.4 279.181 184.538 278.337 183.523C278.302 183.51 278.273 183.485 278.255 183.453C278.219 183.392 278.18 183.334 278.136 183.28L278.125 183.267L278.121 183.262L278.115 183.255C277.899 182.998 277.592 182.828 277.2 182.748C276.167 182.536 274.722 183.003 273.432 183.966C271.253 185.639 270.31 187.821 271.239 189.039L271.243 189.044L271.253 189.056C271.263 189.063 271.273 189.071 271.282 189.08C271.306 189.106 271.332 189.134 271.359 189.161C271.372 189.173 271.386 189.185 271.399 189.197C271.409 189.205 271.418 189.215 271.426 189.225C271.441 189.23 271.457 189.238 271.471 189.249L271.484 189.258C271.515 189.281 271.546 189.304 271.579 189.325L271.589 189.331L271.589 189.331C271.603 189.34 271.616 189.35 271.626 189.361C271.645 189.363 271.663 189.369 271.679 189.377C271.728 189.402 271.766 189.422 271.807 189.439C271.824 189.445 271.839 189.455 271.852 189.466C271.872 189.465 271.892 189.468 271.911 189.475C271.956 189.49 272.002 189.506 272.049 189.518C272.069 189.523 272.087 189.531 272.103 189.543C272.124 189.539 272.145 189.539 272.166 189.543C272.215 189.553 272.265 189.562 272.316 189.569C272.337 189.572 272.358 189.579 272.377 189.59C272.398 189.582 272.421 189.579 272.443 189.581C272.496 189.586 272.549 189.589 272.604 189.59C272.627 189.591 272.651 189.597 272.672 189.607C272.693 189.596 272.717 189.59 272.741 189.59C272.797 189.589 272.854 189.587 272.911 189.582C272.937 189.581 272.963 189.585 272.985 189.595C273.006 189.581 273.031 189.572 273.056 189.569C273.115 189.562 273.175 189.554 273.235 189.545C273.262 189.54 273.289 189.543 273.315 189.552C273.335 189.535 273.36 189.523 273.386 189.518C273.448 189.506 273.511 189.492 273.574 189.477C273.613 189.467 273.654 189.473 273.689 189.492C273.71 189.458 273.743 189.432 273.782 189.421C273.829 189.407 273.877 189.393 273.925 189.378C273.955 189.368 273.987 189.368 274.018 189.377C274.037 189.352 274.063 189.333 274.092 189.322C274.156 189.3 274.221 189.274 274.285 189.249C274.314 189.237 274.346 189.235 274.376 189.241C274.393 189.216 274.417 189.197 274.444 189.185H274.445C274.511 189.157 274.577 189.126 274.643 189.094C274.645 189.094 274.646 189.093 274.647 189.092L274.654 189.089L274.654 189.089C274.683 189.079 274.714 189.076 274.743 189.081C274.757 189.055 274.778 189.033 274.806 189.017L274.812 189.014C274.877 188.981 274.943 188.945 275.009 188.909L275.034 188.895C275.062 188.88 275.094 188.873 275.125 188.876C275.139 188.849 275.161 188.826 275.187 188.811C275.265 188.765 275.343 188.716 275.42 188.667L275.422 188.666L275.427 188.662L275.427 188.663C275.452 188.648 275.48 188.641 275.508 188.641C275.52 188.615 275.54 188.592 275.564 188.576L275.592 188.557C275.702 188.484 275.811 188.407 275.92 188.326C275.937 188.313 275.957 188.303 275.977 188.297C275.998 188.292 276.019 188.29 276.041 188.293C276.062 188.296 276.082 188.303 276.101 188.314C276.119 188.325 276.135 188.339 276.148 188.356C276.161 188.373 276.17 188.393 276.175 188.414C276.18 188.434 276.181 188.456 276.178 188.477C276.174 188.498 276.167 188.519 276.156 188.537C276.144 188.555 276.129 188.571 276.112 188.583C275.991 188.673 275.868 188.76 275.742 188.843C275.716 188.86 275.687 188.869 275.656 188.87C275.643 188.896 275.624 188.918 275.599 188.933L275.513 188.798L275.599 188.933L275.579 188.946C275.502 188.995 275.426 189.043 275.348 189.088C275.319 189.105 275.286 189.112 275.254 189.109C275.239 189.137 275.216 189.16 275.188 189.176L275.142 189.202C275.08 189.237 275.018 189.271 274.955 189.301L274.953 189.302C274.924 189.316 274.891 189.321 274.86 189.316C274.844 189.343 274.821 189.365 274.793 189.378C274.73 189.408 274.667 189.439 274.603 189.467L274.602 189.467L274.581 189.476L274.581 189.475C274.548 189.492 274.511 189.497 274.476 189.489C274.458 189.515 274.434 189.535 274.405 189.546C274.329 189.578 274.263 189.605 274.194 189.626C274.164 189.636 274.132 189.636 274.101 189.628C274.082 189.653 274.055 189.672 274.025 189.682C273.973 189.7 273.919 189.717 273.866 189.731C273.826 189.741 273.784 189.735 273.748 189.715C273.728 189.75 273.694 189.777 273.652 189.788C273.595 189.802 273.546 189.815 273.496 189.824L273.448 189.833C273.42 189.838 273.39 189.836 273.363 189.826C273.341 189.844 273.315 189.856 273.287 189.861L273.254 189.867C273.209 189.876 273.162 189.883 273.116 189.886L273.092 189.888C273.065 189.891 273.037 189.887 273.011 189.876C272.989 189.891 272.964 189.9 272.937 189.902L272.914 189.904C272.889 189.907 272.864 189.909 272.838 189.911H272.838C272.818 189.911 272.798 189.911 272.779 189.911H272.747C272.721 189.912 272.695 189.906 272.672 189.894C272.651 189.905 272.628 189.911 272.604 189.911C272.54 189.912 272.476 189.909 272.412 189.901C272.39 189.898 272.368 189.891 272.349 189.879C272.327 189.887 272.305 189.89 272.282 189.888C272.25 189.885 272.219 189.881 272.187 189.875C272.168 189.872 272.15 189.868 272.131 189.864L272.104 189.858C272.082 189.853 272.06 189.844 272.042 189.831C272.019 189.835 271.996 189.835 271.974 189.83C271.952 189.826 271.93 189.82 271.908 189.814C271.898 189.811 271.887 189.807 271.877 189.804Z" fill="white"/>
<path d="M269.595 182.91C268.872 176.751 273.366 170.313 279.911 170.632L264.547 169.759C262.983 169.66 261.291 170.04 259.876 170.783C257.204 172.17 255.307 174.806 254.557 177.696C254.081 179.486 254.041 181.387 254.413 183.201C255.407 187.984 259.11 191.251 263.307 191.489L278.671 192.362C274.114 192.183 270.066 188.027 269.595 182.91Z" fill="#1D1E1E"/>
<path d="M278.671 192.522L278.664 192.522C278.569 192.518 278.473 192.513 278.378 192.506L263.297 191.649C258.952 191.403 255.234 187.942 254.256 183.233C253.875 181.375 253.925 179.446 254.402 177.654C255.193 174.608 257.211 171.986 259.802 170.64C261.252 169.879 262.986 169.5 264.557 169.599L279.92 170.472C279.962 170.475 280.001 170.494 280.029 170.525C280.057 170.557 280.072 170.598 280.069 170.64C280.067 170.682 280.049 170.722 280.018 170.75C279.987 170.779 279.946 170.794 279.903 170.792C277.195 170.66 274.643 171.722 272.72 173.782C270.476 176.186 269.367 179.591 269.754 182.891C269.754 182.892 269.755 182.894 269.755 182.895C269.978 185.326 271.03 187.628 272.716 189.376C274.321 191.04 276.331 192.031 278.405 192.186L278.679 192.201C278.722 192.204 278.761 192.223 278.789 192.254C278.818 192.286 278.833 192.327 278.831 192.369C278.829 192.41 278.811 192.449 278.781 192.478C278.752 192.506 278.712 192.522 278.671 192.522ZM264.055 169.905C262.674 169.905 261.203 170.267 259.95 170.925C257.438 172.229 255.48 174.775 254.712 177.736C254.248 179.481 254.199 181.359 254.57 183.168C255.519 187.734 259.115 191.09 263.316 191.329L276.251 192.064C272.647 190.818 269.83 187.205 269.436 182.926C269.038 179.535 270.178 176.035 272.485 173.564C273.899 172.049 275.642 171.056 277.539 170.658L264.538 169.92C264.377 169.909 264.216 169.904 264.055 169.905Z" fill="#1D1E1E"/>
<path d="M277.094 170.93C282.349 169.507 287.591 173.085 288.804 178.921C290.017 184.756 286.741 190.641 281.487 192.064C276.233 193.487 270.99 189.908 269.777 184.073C268.564 178.237 271.841 172.353 277.094 170.93Z" fill="white"/>
<path d="M279.164 192.536C277.511 192.536 275.879 192.075 274.414 191.174C271.991 189.686 270.244 187.11 269.62 184.106C268.392 178.198 271.726 172.218 277.052 170.776C279.476 170.119 282.003 170.49 284.168 171.82C286.589 173.308 288.337 175.884 288.961 178.888C290.189 184.796 286.855 190.777 281.528 192.219C280.758 192.428 279.963 192.535 279.164 192.536ZM277.094 170.93L277.136 171.085C271.971 172.484 268.74 178.296 269.934 184.041C270.54 186.958 272.234 189.459 274.581 190.901C276.67 192.184 279.108 192.542 281.445 191.909C286.61 190.51 289.841 184.699 288.647 178.954C288.041 176.036 286.347 173.535 284 172.093C281.911 170.81 279.474 170.452 277.136 171.085L277.094 170.93Z" fill="#1D1E1E"/>
<path d="M265.511 183.671C265.513 182.649 265.3 181.624 264.918 180.678L264.917 180.676C264.588 179.88 264.132 179.119 263.49 178.538C263.285 178.357 263.062 178.196 262.817 178.074L262.816 178.073C262.442 177.887 262.006 177.803 261.596 177.904L261.594 177.905L215.129 189.392C217.093 189.022 218.467 191.729 218.825 193.325C219.226 194.881 219.239 197.853 217.367 198.428C217.533 198.375 263.851 186.958 263.997 186.888C264.447 186.723 264.783 186.348 265.01 185.935L265.011 185.934C265.38 185.244 265.506 184.447 265.511 183.671Z" fill="#F45100"/>
<path d="M217.368 198.588C217.33 198.589 217.293 198.575 217.264 198.55C217.234 198.525 217.215 198.49 217.209 198.453C217.204 198.415 217.211 198.376 217.232 198.343C217.252 198.311 217.283 198.287 217.32 198.275L217.321 198.275C218.974 197.767 219.104 195.045 218.671 193.365C218.281 191.63 216.897 189.222 215.159 189.549C215.118 189.558 215.075 189.549 215.04 189.526C215.005 189.503 214.98 189.467 214.971 189.426C214.963 189.385 214.97 189.342 214.992 189.307C215.015 189.271 215.05 189.246 215.091 189.236L261.556 177.749C261.975 177.645 262.447 177.709 262.888 177.929C263.128 178.049 263.366 178.213 263.597 178.418C264.192 178.956 264.685 179.694 265.066 180.615C265.465 181.602 265.674 182.658 265.672 183.671V183.672C265.666 184.59 265.491 185.376 265.153 186.01C264.955 186.369 264.605 186.836 264.053 187.039C263.984 187.073 256.753 188.864 231.829 195.018C223.863 196.985 217.568 198.539 217.414 198.582C217.399 198.586 217.383 198.588 217.368 198.588ZM216.156 189.303C217.708 189.816 218.705 192.052 218.982 193.29C219.29 194.484 219.42 196.868 218.313 198.027C220.193 197.561 224.721 196.443 231.752 194.707C245.201 191.386 263.622 186.837 263.946 186.737L263.946 186.737C264.409 186.559 264.703 186.162 264.87 185.858C265.184 185.271 265.346 184.535 265.351 183.671C265.353 182.698 265.152 181.684 264.77 180.738C264.407 179.862 263.941 179.162 263.383 178.657C263.175 178.472 262.96 178.324 262.746 178.217C262.372 178.031 261.978 177.975 261.635 178.06L216.156 189.303Z" fill="white"/>
<path d="M215.386 189.351C216.856 189.244 218.434 191.199 218.91 193.716C219.386 196.234 218.58 198.362 217.11 198.468C215.641 198.575 214.063 196.62 213.587 194.102C213.111 191.585 213.917 189.458 215.386 189.351Z" fill="#1D1E1E"/>
<path d="M216.998 198.633C215.489 198.633 213.906 196.655 213.429 194.132C213.114 192.462 213.351 190.861 214.048 189.954C214.404 189.492 214.862 189.229 215.375 189.191C216.918 189.081 218.578 191.096 219.067 193.687C219.383 195.357 219.146 196.959 218.449 197.866C218.093 198.328 217.635 198.592 217.122 198.629C217.081 198.632 217.04 198.633 216.998 198.633ZM215.398 189.511C214.973 189.542 214.605 189.757 214.302 190.15C213.659 190.987 213.445 192.49 213.744 194.072C214.205 196.509 215.708 198.412 217.099 198.309C217.524 198.278 217.892 198.063 218.194 197.67C218.838 196.833 219.052 195.33 218.752 193.746C218.292 191.31 216.791 189.409 215.398 189.511Z" fill="#1D1E1E"/>
</g>
<defs>
<clipPath id="clip0_615_73201">
<rect width="330" height="286.815" fill="white" transform="translate(36 58)"/>
</clipPath>
</defs>
</svg>
