<svg viewBox="0 0 336 336" fill="none" xmlns="http://www.w3.org/2000/svg">
<rect rx="24" fill="#F5F5F5"/>
<g clip-path="url(#clip0_596_64414)">
<path d="M115.947 267.06L134.595 248.836L148.11 302.313L129.462 320.537L115.947 267.06Z" fill="#1D1E1E"/>
<path d="M129.462 320.653C129.451 320.653 129.44 320.651 129.43 320.648C129.39 320.637 129.36 320.605 129.349 320.565L115.835 267.088C115.824 267.048 115.836 267.006 115.866 266.977L134.514 248.753C134.544 248.724 134.586 248.713 134.626 248.724C134.666 248.736 134.697 248.767 134.707 248.807L148.222 302.284C148.232 302.324 148.22 302.367 148.191 302.396L129.543 320.62C129.521 320.641 129.491 320.653 129.462 320.653ZM116.075 267.096L129.525 320.313L147.981 302.276L134.532 249.059L116.075 267.096Z" fill="white"/>
<path d="M63.8369 274.407L82.485 256.183L134.595 248.836L115.947 267.06L63.8369 274.407Z" fill="white"/>
<path d="M63.8364 274.523C63.7927 274.523 63.7521 274.498 63.7325 274.458C63.7105 274.413 63.7198 274.359 63.7555 274.324L82.4036 256.1C82.4212 256.083 82.444 256.072 82.4684 256.069L134.579 248.721C134.629 248.714 134.677 248.74 134.699 248.785C134.721 248.83 134.712 248.884 134.676 248.919L116.028 267.143C116.01 267.16 115.987 267.171 115.963 267.174L63.8526 274.522C63.8472 274.523 63.8417 274.523 63.8364 274.523ZM82.5383 256.292L64.1698 274.243L115.893 266.95L134.261 249L82.5383 256.292Z" fill="#1D1E1E"/>
<path d="M115.947 267.06L129.462 320.537L77.3517 327.884L63.8369 274.407L115.947 267.06Z" fill="white"/>
<path d="M77.3511 328C77.2989 328 77.2521 327.965 77.2389 327.913L63.7242 274.436C63.7162 274.404 63.722 274.37 63.7404 274.343C63.7588 274.315 63.7878 274.297 63.8203 274.293L115.931 266.945C115.988 266.936 116.045 266.974 116.059 267.031L129.574 320.508C129.582 320.54 129.576 320.574 129.558 320.601C129.539 320.629 129.51 320.647 129.478 320.651L77.3673 327.999C77.3619 328 77.3565 328 77.3511 328ZM63.9803 274.504L77.4379 327.755L129.318 320.44L115.86 267.189L63.9803 274.504Z" fill="#1D1E1E"/>
<path d="M103.601 309.903C107.42 308.4 108.786 304.963 107.944 301.628C106.951 297.693 104.129 295.709 99.2255 294.477C95.0756 293.411 93.1916 292.487 92.6109 290.188C92.3009 288.959 92.5609 287.518 93.8603 286.595C91.0965 287.243 90.4865 289.273 90.9026 290.92C91.4835 293.219 93.3673 294.143 97.5173 295.209C102.421 296.441 105.242 298.425 106.236 302.36C107.078 305.695 105.712 309.132 101.893 310.636C101.573 310.761 101.399 311.109 101.483 311.443L102.303 314.693C102.365 314.938 102.287 315.183 102.122 315.349C102.551 315.188 103.189 314.942 103.439 314.812C103.804 314.623 104.111 314.358 104.011 313.96L103.191 310.711C103.107 310.377 103.281 310.029 103.601 309.903ZM101.842 283.219C100.58 282.781 98.9728 282.466 96.94 282.604C96.6094 282.626 96.3103 282.406 96.2299 282.085L95.4417 278.965C95.3563 278.624 95.0256 278.403 94.6779 278.452L93.3809 278.634C92.6439 278.759 91.4152 279.234 91.2308 279.617C91.3357 279.485 91.4908 279.391 91.6725 279.366L92.9695 279.184C93.3172 279.135 93.648 279.356 93.7333 279.698L94.5215 282.818C94.6021 283.139 94.901 283.358 95.2316 283.336C97.2644 283.198 98.8715 283.513 100.133 283.951C100.438 284.057 100.63 284.359 100.594 284.68L100.41 286.344C100.374 286.686 100.097 286.932 99.7805 286.956C100.245 287.044 102.072 286.038 102.118 285.612L102.303 283.947C102.338 283.627 102.147 283.325 101.842 283.219ZM100.244 307.522C98.1859 307.812 96.0993 307.472 94.4007 306.842C93.9835 306.687 92.2447 306.716 92.0726 307.647C92.2471 307.53 92.4741 307.494 92.6925 307.574C94.391 308.204 96.4775 308.544 98.536 308.254C99.5072 308.117 100.332 307.811 100.985 307.378C100.748 307.437 100.502 307.485 100.244 307.522Z" fill="#1D1E1E"/>
<path d="M102.123 315.465C102.084 315.465 102.047 315.446 102.025 315.412C101.996 315.366 102.002 315.306 102.041 315.268C102.185 315.122 102.241 314.918 102.191 314.721L101.371 311.472C101.272 311.08 101.479 310.674 101.851 310.528C105.347 309.152 107.025 305.957 106.124 302.389C105.199 298.723 102.616 296.609 97.4895 295.321C93.4364 294.281 91.4004 293.361 90.7908 290.948C90.5451 289.975 90.6706 289.009 91.1444 288.231C91.6631 287.378 92.5934 286.774 93.8344 286.482C93.8885 286.47 93.9437 286.497 93.9664 286.548C93.9892 286.598 93.9731 286.657 93.928 286.69C92.8236 287.473 92.3734 288.771 92.7238 290.159C93.3047 292.459 95.2926 293.347 99.255 294.364C104.475 295.676 107.108 297.84 108.057 301.6C108.988 305.288 107.256 308.589 103.644 310.011C103.38 310.115 103.234 310.404 103.304 310.683L104.124 313.932C104.221 314.317 104.008 314.648 103.493 314.915C103.244 315.044 102.632 315.281 102.164 315.457C102.15 315.462 102.136 315.465 102.123 315.465ZM103.155 310.152C102.777 310.374 102.37 310.572 101.936 310.743C101.672 310.847 101.525 311.136 101.596 311.415L102.416 314.664C102.455 314.818 102.447 314.976 102.398 315.12C102.886 314.933 103.231 314.789 103.386 314.709C103.937 314.424 103.943 314.161 103.899 313.989L103.079 310.739C103.028 310.534 103.06 310.325 103.155 310.152ZM93.3702 286.853C92.4416 287.161 91.7607 287.663 91.3422 288.351C90.9008 289.076 90.7848 289.978 91.0153 290.891C91.5963 293.191 93.5842 294.079 97.5466 295.096C102.767 296.408 105.399 298.572 106.348 302.332C107.089 305.267 106.143 307.958 103.905 309.651C107.165 308.204 108.703 305.105 107.832 301.656C106.907 297.991 104.325 295.877 99.1977 294.589C95.1445 293.548 93.1085 292.629 92.4991 290.216C92.1728 288.923 92.4978 287.702 93.3702 286.853ZM97.0159 308.474C95.565 308.474 94.0597 308.204 92.6528 307.683C92.4787 307.618 92.291 307.64 92.1378 307.743C92.0989 307.769 92.0485 307.769 92.0097 307.744C91.9707 307.718 91.9509 307.672 91.9594 307.626C92.0111 307.346 92.1872 307.119 92.4824 306.951C93.1068 306.597 94.1058 306.609 94.4417 306.733C96.3191 307.429 98.3741 307.668 100.229 307.407C100.483 307.371 100.728 307.323 100.957 307.265C101.012 307.251 101.069 307.279 101.091 307.33C101.114 307.382 101.097 307.443 101.05 307.474C100.361 307.931 99.5205 308.232 98.5528 308.368C98.0523 308.439 97.5375 308.474 97.0159 308.474ZM92.4523 307.415C92.5463 307.415 92.6411 307.431 92.7333 307.465C94.6106 308.161 96.6656 308.4 98.5204 308.139C99.177 308.046 99.7713 307.876 100.296 307.631C100.284 307.633 100.273 307.634 100.261 307.636H100.261C98.3692 307.903 96.274 307.659 94.3611 306.95C94.1012 306.854 93.1649 306.83 92.5967 307.152C92.4572 307.232 92.3518 307.326 92.2813 307.433C92.3375 307.421 92.3947 307.415 92.4523 307.415ZM99.8437 287.077C99.8132 287.077 99.7851 287.075 99.7596 287.07C99.7026 287.059 99.6623 287.008 99.6656 286.95C99.6688 286.892 99.7144 286.845 99.7723 286.841C100.046 286.82 100.266 286.606 100.296 286.331L100.48 284.667C100.51 284.399 100.352 284.149 100.096 284.06C98.5745 283.532 96.986 283.333 95.2403 283.452C94.8527 283.476 94.5045 283.222 94.4099 282.846L93.6216 279.726C93.5506 279.441 93.2759 279.258 92.9862 279.298L91.6891 279.48C91.5431 279.501 91.4128 279.575 91.3219 279.689C91.2853 279.735 91.2199 279.747 91.1699 279.715C91.1199 279.684 91.1015 279.62 91.1271 279.567C91.337 279.131 92.6112 278.648 93.3621 278.519L94.6625 278.337C95.0704 278.278 95.4547 278.538 95.5546 278.938L96.3428 282.057C96.4102 282.326 96.6586 282.508 96.9331 282.489C98.7108 282.368 100.329 282.571 101.88 283.11H101.88C102.239 283.235 102.46 283.584 102.419 283.96L102.234 285.625C102.228 285.683 102.208 285.861 101.734 286.212C101.228 286.586 100.288 287.077 99.8437 287.077ZM96.1988 283.187C97.6008 283.187 98.9084 283.403 100.172 283.842C100.53 283.966 100.752 284.316 100.71 284.692L100.526 286.357C100.513 286.477 100.474 286.589 100.414 286.688C100.791 286.532 101.252 286.281 101.595 286.026C101.886 285.811 101.997 285.661 102.004 285.599L102.188 283.935C102.218 283.667 102.06 283.417 101.804 283.328C100.283 282.8 98.695 282.601 96.9483 282.719C96.563 282.743 96.2127 282.49 96.118 282.113L95.3298 278.994C95.2586 278.709 94.9853 278.525 94.6943 278.566L93.3973 278.748C92.9642 278.822 92.4131 279.003 91.987 279.205L92.9539 279.069C93.3628 279.012 93.7463 279.27 93.846 279.669L94.6343 282.789C94.7016 283.057 94.9499 283.24 95.2246 283.221C95.5546 283.198 95.8794 283.187 96.1988 283.187Z" fill="#1D1E1E"/>
<path d="M99.6255 315.219L98.7945 311.928C98.7118 311.6 98.4043 311.384 98.0675 311.41C95.9304 311.574 93.6673 311.232 92.034 310.548C91.7552 310.431 91.584 310.148 91.6116 309.847L91.767 308.157C91.8086 307.705 92.2673 307.417 92.693 307.575C94.3909 308.204 96.478 308.544 98.5359 308.254C101.594 307.823 103.204 305.718 102.567 303.198C101.953 300.766 99.8934 299.499 96.3711 298.621C91.5311 297.47 88.3037 295.818 87.3325 291.971C86.4537 288.49 88.0626 285.482 91.47 284.141C91.7926 284.014 91.971 283.668 91.8861 283.332L91.0999 280.218C90.9995 279.82 91.2663 279.423 91.6724 279.366L92.969 279.184C93.3177 279.135 93.6473 279.356 93.7335 279.698L94.5213 282.817C94.6023 283.138 94.9007 283.359 95.2312 283.336C97.2649 283.199 98.8714 283.513 100.134 283.951C100.439 284.057 100.63 284.359 100.595 284.68L100.411 286.344C100.363 286.778 99.9286 287.061 99.5144 286.925C98.3791 286.552 96.6736 286.17 94.5084 286.475C91.1919 286.941 90.4564 289.151 90.903 290.919C91.4835 293.219 93.3675 294.144 97.5166 295.209C102.422 296.441 105.242 298.425 106.236 302.361C107.078 305.695 105.711 309.132 101.893 310.635C101.572 310.761 101.398 311.109 101.482 311.443L102.303 314.693C102.403 315.09 102.137 315.487 101.731 315.544L100.39 315.733C100.041 315.782 99.7118 315.56 99.6255 315.219Z" fill="#F45100"/>
<path d="M100.293 315.856C99.9288 315.856 99.6049 315.61 99.5133 315.247L98.6821 311.956C98.6137 311.685 98.3576 311.505 98.0764 311.525C95.9555 311.689 93.68 311.363 91.9892 310.655C91.6621 310.518 91.464 310.189 91.4964 309.837L91.6518 308.147C91.6749 307.895 91.8106 307.674 92.0241 307.539C92.2378 307.405 92.4963 307.378 92.7333 307.466C94.609 308.161 96.6639 308.4 98.5198 308.139C100.083 307.919 101.321 307.238 102.004 306.221C102.578 305.367 102.734 304.331 102.455 303.226C101.894 301.005 100.066 299.661 96.3432 298.733C93.647 298.092 91.7379 297.351 90.3361 296.403C88.7096 295.302 87.6903 293.861 87.2203 291.999C86.3266 288.459 87.9388 285.406 91.4276 284.033C91.6953 283.928 91.8443 283.638 91.7738 283.359L90.9876 280.246C90.9318 280.024 90.9727 279.789 91.1001 279.599C91.2276 279.41 91.4303 279.283 91.6563 279.251L92.9528 279.069C93.3609 279.012 93.7448 279.269 93.8459 279.669L94.6336 282.788C94.7015 283.057 94.9495 283.239 95.2234 283.22C97.0023 283.1 98.6208 283.303 100.172 283.841C100.53 283.966 100.752 284.316 100.71 284.692L100.526 286.357C100.499 286.6 100.366 286.815 100.16 286.947C99.9561 287.078 99.7077 287.11 99.4782 287.035C97.8405 286.496 96.2202 286.351 94.5246 286.589C93.078 286.793 92.0023 287.363 91.4141 288.238C90.9131 288.983 90.7714 289.925 91.0153 290.891C91.5961 293.191 93.5837 294.079 97.5454 295.096C102.766 296.408 105.398 298.572 106.348 302.332C107.279 306.019 105.547 309.32 101.936 310.742C101.671 310.847 101.524 311.135 101.595 311.414L102.415 314.664C102.471 314.885 102.43 315.121 102.303 315.31C102.175 315.5 101.973 315.626 101.747 315.658L100.406 315.847C100.368 315.853 100.33 315.856 100.293 315.856ZM99.7379 315.191C99.8098 315.475 100.084 315.66 100.374 315.618L101.715 315.429C101.876 315.407 102.02 315.316 102.111 315.181C102.201 315.046 102.231 314.878 102.191 314.721L101.37 311.471C101.271 311.08 101.478 310.674 101.851 310.527C105.347 309.151 107.024 305.956 106.123 302.389C105.197 298.723 102.615 296.609 97.4882 295.321C93.4356 294.281 91.3999 293.361 90.7906 290.948C90.5305 289.917 90.6837 288.909 91.2219 288.109C91.8478 287.178 92.9786 286.573 94.4922 286.36C96.2239 286.117 97.8782 286.265 99.5505 286.815C99.7132 286.868 99.8898 286.846 100.035 286.752C100.181 286.658 100.276 286.505 100.295 286.331L100.48 284.667C100.51 284.399 100.352 284.149 100.096 284.06C98.5746 283.532 96.9862 283.333 95.2389 283.452C94.8542 283.479 94.5042 283.223 94.409 282.845L93.6213 279.726C93.5494 279.441 93.2755 279.257 92.985 279.298L91.6886 279.481C91.5274 279.503 91.3829 279.594 91.2923 279.729C91.2015 279.864 91.1723 280.032 91.2122 280.189L91.9984 283.303C92.0973 283.694 91.8883 284.101 91.5125 284.249C88.1406 285.576 86.5819 288.524 87.4449 291.943C87.9006 293.748 88.8887 295.144 90.466 296.211C91.8437 297.144 93.7287 297.874 96.398 298.508C100.216 299.46 102.094 300.854 102.679 303.17C102.975 304.34 102.808 305.44 102.196 306.351C101.476 307.422 100.182 308.139 98.5521 308.369C96.6588 308.635 94.5639 308.392 92.6527 307.683C92.4841 307.621 92.2996 307.64 92.1474 307.736C91.9955 307.831 91.8989 307.989 91.8824 308.168L91.727 309.858C91.7039 310.109 91.8452 310.344 92.0786 310.442C93.7374 311.136 95.9731 311.455 98.0586 311.295C98.4564 311.264 98.8105 311.519 98.9066 311.9L99.7379 315.191Z" fill="#F45100"/>
<path d="M131.158 285.213C131.038 285.213 130.934 285.125 130.916 285.003C130.898 284.869 130.991 284.746 131.124 284.727L158.793 280.848L195.222 245.155L185.583 207.012C185.55 206.881 185.629 206.748 185.76 206.715C185.89 206.682 186.023 206.761 186.056 206.892L195.73 245.171C195.751 245.255 195.726 245.345 195.664 245.405L159.077 281.253C159.04 281.29 158.992 281.313 158.94 281.321L131.192 285.211C131.181 285.212 131.169 285.213 131.158 285.213Z" fill="#F45100"/>
<path d="M131.158 285.329C130.98 285.329 130.827 285.196 130.802 285.019C130.789 284.924 130.813 284.829 130.871 284.752C130.929 284.676 131.014 284.626 131.109 284.613L158.74 280.739L195.094 245.119L185.471 207.04C185.423 206.848 185.54 206.652 185.732 206.603C185.925 206.555 186.12 206.672 186.169 206.864L195.842 245.143C195.874 245.267 195.836 245.399 195.745 245.488L159.159 281.336C159.105 281.389 159.033 281.425 158.957 281.436L131.209 285.326C131.191 285.328 131.175 285.329 131.158 285.329ZM185.82 206.824C185.81 206.824 185.799 206.825 185.789 206.828C185.72 206.845 185.678 206.915 185.696 206.983L195.335 245.127C195.345 245.166 195.333 245.209 195.303 245.238L158.875 280.931C158.857 280.949 158.834 280.96 158.81 280.963L131.141 284.842C131.107 284.847 131.077 284.865 131.056 284.892C131.036 284.919 131.027 284.953 131.032 284.987C131.041 285.056 131.105 285.105 131.177 285.096L158.925 281.206C158.952 281.202 158.978 281.19 158.997 281.171L195.583 245.323C195.616 245.291 195.629 245.243 195.618 245.2L185.944 206.92C185.93 206.862 185.877 206.824 185.82 206.824Z" fill="#F45100"/>
<path d="M100.02 261.757C99.9107 261.757 99.8115 261.684 99.7834 261.574L83.822 198.962C83.8005 198.877 83.8255 198.788 83.8877 198.727L108.138 174.966C108.175 174.93 108.223 174.906 108.275 174.899L122.977 172.838C123.111 172.819 123.234 172.912 123.252 173.046C123.271 173.179 123.178 173.302 123.045 173.321L108.422 175.371L84.3297 198.977L100.256 261.453C100.29 261.584 100.211 261.716 100.08 261.75C100.06 261.755 100.04 261.757 100.02 261.757Z" fill="#F45100"/>
<path d="M100.02 261.873C99.8555 261.873 99.7124 261.762 99.6717 261.602L83.7103 198.99C83.6787 198.867 83.7157 198.734 83.807 198.644L108.057 174.884C108.113 174.829 108.182 174.795 108.259 174.784L122.961 172.723C123.157 172.696 123.34 172.834 123.367 173.03C123.395 173.226 123.257 173.409 123.061 173.436L108.476 175.481L84.4588 199.014L100.369 261.424C100.418 261.617 100.302 261.813 100.109 261.862C100.08 261.869 100.05 261.873 100.02 261.873C100.02 261.873 100.02 261.873 100.02 261.873ZM123.011 172.952C123.005 172.952 122.999 172.952 122.993 172.953L108.291 175.014C108.264 175.017 108.239 175.03 108.219 175.049L83.9692 198.81C83.9367 198.842 83.9234 198.889 83.9347 198.933L99.896 261.545C99.9106 261.602 99.9614 261.642 100.02 261.642H100.02C100.031 261.642 100.042 261.64 100.052 261.638C100.121 261.62 100.162 261.55 100.145 261.482L84.218 199.006C84.2078 198.966 84.2197 198.924 84.2491 198.895L108.342 175.289C108.359 175.271 108.382 175.26 108.407 175.257L123.029 173.207C123.099 173.197 123.148 173.132 123.138 173.062C123.129 172.998 123.074 172.952 123.011 172.952Z" fill="#F45100"/>
<path d="M200.829 120.42L235.177 86.8538L260.069 185.352L225.722 218.919L200.829 120.42Z" fill="#1D1E1E"/>
<path d="M225.722 219.035C225.712 219.035 225.701 219.033 225.691 219.03C225.651 219.019 225.62 218.987 225.61 218.947L200.717 120.449C200.707 120.409 200.719 120.367 200.749 120.338L235.096 86.771C235.126 86.742 235.169 86.7312 235.209 86.7423C235.249 86.7537 235.279 86.7853 235.29 86.8255L260.182 185.324C260.192 185.364 260.181 185.406 260.151 185.435L225.803 219.002C225.781 219.023 225.752 219.035 225.722 219.035ZM200.958 120.457L225.785 218.695L259.941 185.316L235.114 87.0773L200.958 120.457Z" fill="white"/>
<path d="M104.848 133.954L139.195 100.387L235.177 86.8538L200.829 120.42L104.848 133.954Z" fill="white"/>
<path d="M104.848 134.069C104.804 134.069 104.764 134.045 104.744 134.005C104.722 133.96 104.732 133.906 104.767 133.871L139.115 100.304C139.133 100.287 139.155 100.276 139.18 100.272L235.161 86.7391C235.211 86.7324 235.259 86.7579 235.281 86.8027C235.303 86.8476 235.294 86.9015 235.258 86.9365L200.911 120.503C200.893 120.52 200.87 120.532 200.846 120.535L104.864 134.068C104.859 134.069 104.853 134.069 104.848 134.069ZM139.25 100.496L105.182 133.79L200.776 120.311L234.844 87.0178L139.25 100.496Z" fill="#1D1E1E"/>
<path d="M200.829 120.421L218.69 191.095L219.125 192.817L219.267 193.378L225.722 218.918L210.299 221.093L208.959 221.282L208.066 221.408L158.275 228.428L158.26 228.431L156.042 228.743L129.741 232.452L104.848 133.953L130.69 130.309L132.913 129.996L200.829 120.421Z" fill="#F45100"/>
<path d="M129.741 232.567C129.689 232.567 129.642 232.532 129.629 232.48L104.736 133.981C104.728 133.95 104.734 133.916 104.752 133.888C104.771 133.861 104.799 133.843 104.832 133.838L132.897 129.881L200.813 120.306C200.871 120.297 200.927 120.335 200.942 120.392L218.802 191.066L225.834 218.89C225.842 218.921 225.836 218.955 225.818 218.983C225.8 219.01 225.771 219.028 225.738 219.033L129.757 232.566C129.752 232.567 129.746 232.567 129.741 232.567ZM104.992 134.05L129.828 232.323L156.027 228.628L158.256 228.314L225.578 218.822L218.578 191.123L200.743 120.55L130.707 130.424L104.992 134.05Z" fill="white"/>
<path d="M104.848 133.954L139.195 100.387L235.177 86.8538L200.829 120.42L104.848 133.954Z" fill="white"/>
<path d="M104.848 134.069C104.804 134.069 104.764 134.045 104.744 134.005C104.722 133.96 104.732 133.906 104.767 133.871L139.115 100.304C139.133 100.287 139.155 100.276 139.18 100.272L235.161 86.7391C235.211 86.7324 235.259 86.7579 235.281 86.8027C235.303 86.8476 235.294 86.9015 235.258 86.9365L200.911 120.503C200.893 120.52 200.87 120.532 200.846 120.535L104.864 134.068C104.859 134.069 104.853 134.069 104.848 134.069ZM139.25 100.496L105.182 133.79L200.776 120.311L234.844 87.0178L139.25 100.496Z" fill="#1D1E1E"/>
<path d="M247.47 135.495L231.652 150.985L231.311 150.637L247.332 134.948L247.47 135.495Z" fill="#F45100"/>
<path d="M231.653 151.1C231.623 151.1 231.593 151.089 231.57 151.066L231.229 150.718C231.207 150.696 231.195 150.666 231.195 150.635C231.196 150.605 231.208 150.575 231.23 150.554L247.251 134.865C247.281 134.835 247.324 134.825 247.364 134.836C247.404 134.847 247.434 134.879 247.445 134.919L247.582 135.467C247.593 135.507 247.581 135.549 247.551 135.578L231.734 151.067C231.711 151.089 231.682 151.1 231.653 151.1ZM231.475 150.638L231.654 150.821L247.342 135.459L247.269 135.171L231.475 150.638Z" fill="#F45100"/>
<path d="M166.688 96.51L132.387 130.07L132.386 130.071L131.734 130.163V130.162L165.873 96.6247L166.688 96.51Z" fill="#F45100"/>
<path d="M131.735 130.279C131.707 130.279 131.68 130.269 131.659 130.251C131.634 130.229 131.619 130.197 131.619 130.163C131.619 130.132 131.632 130.101 131.654 130.079L165.792 96.5423C165.81 96.5249 165.833 96.5137 165.857 96.5102L166.673 96.3955C166.723 96.3883 166.771 96.4141 166.793 96.459C166.815 96.504 166.805 96.5579 166.77 96.5929L132.469 130.153C132.451 130.17 132.427 130.183 132.403 130.186L131.751 130.278C131.746 130.279 131.74 130.279 131.735 130.279ZM165.927 96.7341L132.065 130L132.333 129.962L166.356 96.6739L165.927 96.7341Z" fill="#F45100"/>
<path d="M178.324 171.064L184.352 194.703L184.082 194.741L149.941 199.528L157.35 228.56L156.863 228.628L149.312 199.122L149.333 199.12L131.734 130.163L132.386 130.072L149.819 199.052L183.744 194.295L177.783 170.92L172.889 151.72L173.361 151.601L178.203 170.588L197.855 167.833L197.924 168.316L178.324 171.064Z" fill="#1D1E1E"/>
<path d="M156.863 228.744C156.811 228.744 156.765 228.708 156.751 228.657L149.201 199.151C149.195 199.128 149.196 199.104 149.205 199.082L131.623 130.192C131.615 130.16 131.62 130.126 131.639 130.099C131.657 130.071 131.686 130.053 131.719 130.048L132.37 129.957C132.428 129.948 132.484 129.986 132.499 130.043L149.906 198.922L183.6 194.198L177.672 170.948L172.777 151.749C172.77 151.719 172.774 151.687 172.79 151.661C172.806 151.634 172.831 151.615 172.861 151.608L173.333 151.488C173.395 151.473 173.458 151.51 173.474 151.572L178.29 170.459L197.84 167.718C197.903 167.709 197.962 167.753 197.971 167.817L198.039 168.3C198.043 168.33 198.035 168.361 198.017 168.386C197.998 168.41 197.971 168.426 197.94 168.431L178.469 171.161L184.464 194.674C184.472 194.706 184.467 194.74 184.448 194.768C184.43 194.795 184.401 194.813 184.368 194.818L150.086 199.624L157.463 228.531C157.471 228.563 157.465 228.597 157.447 228.624C157.428 228.652 157.399 228.67 157.367 228.675L156.88 228.743C156.874 228.743 156.869 228.744 156.863 228.744ZM149.442 199.16L156.95 228.499L157.206 228.463L149.829 199.556C149.821 199.524 149.827 199.49 149.845 199.463C149.864 199.436 149.893 199.417 149.925 199.413L184.208 194.606L178.212 171.092C178.204 171.06 178.21 171.027 178.228 170.999C178.247 170.972 178.276 170.953 178.308 170.949L197.794 168.217L197.758 167.963L178.22 170.702C178.161 170.711 178.106 170.673 178.091 170.616L173.278 151.741L173.031 151.804L177.896 170.891L183.857 194.266C183.865 194.298 183.859 194.332 183.841 194.359C183.822 194.387 183.793 194.405 183.761 194.41L149.835 199.166C149.776 199.174 149.721 199.137 149.707 199.08L132.3 130.2L131.879 130.259L149.446 199.091C149.452 199.114 149.45 199.138 149.442 199.16Z" fill="#1D1E1E"/>
<path d="M201.259 194.495L208.118 221.401L208.066 221.408L207.632 221.469L200.651 194.088L218.804 191.542L218.924 192.018L201.259 194.495Z" fill="#1D1E1E"/>
<path d="M207.632 221.585C207.579 221.585 207.533 221.549 207.519 221.498L200.539 194.116C200.531 194.085 200.536 194.051 200.555 194.023C200.573 193.996 200.602 193.978 200.635 193.973L218.788 191.428C218.847 191.42 218.902 191.457 218.916 191.514L219.036 191.99C219.044 192.022 219.038 192.056 219.019 192.083C219.001 192.11 218.972 192.128 218.939 192.133L201.403 194.592L208.229 221.372C208.237 221.404 208.232 221.438 208.213 221.465C208.195 221.493 208.166 221.511 208.133 221.515L207.648 221.584C207.642 221.584 207.637 221.585 207.632 221.585ZM200.795 194.185L207.718 221.34L207.973 221.304L201.146 194.524C201.138 194.492 201.144 194.458 201.162 194.431C201.181 194.404 201.21 194.385 201.242 194.381L218.78 191.922L218.717 191.672L200.795 194.185Z" fill="#1D1E1E"/>
<path d="M245.166 166.427L218.923 192.019L218.804 191.543L244.824 166.078L245.166 166.427Z" fill="#F45100"/>
<path d="M218.924 192.134C218.913 192.134 218.903 192.133 218.892 192.13C218.852 192.118 218.822 192.087 218.812 192.047L218.692 191.571C218.682 191.531 218.694 191.489 218.723 191.46L244.744 165.996C244.79 165.951 244.863 165.952 244.908 165.997L245.249 166.347C245.271 166.368 245.283 166.398 245.282 166.429C245.282 166.46 245.269 166.489 245.247 166.51L219.005 192.101C218.983 192.123 218.954 192.134 218.924 192.134ZM218.933 191.579L218.987 191.795L245.003 166.425L244.823 166.242L218.933 191.579Z" fill="#F45100"/>
<path d="M241.508 111.904L232.751 120.475L226.333 95.4974L226.823 95.0178L233.016 119.518L241.369 111.354L241.508 111.904Z" fill="#F45100"/>
<path d="M232.751 120.591C232.74 120.591 232.73 120.589 232.72 120.586C232.68 120.575 232.649 120.544 232.639 120.504L226.22 95.5262C226.21 95.486 226.222 95.4436 226.252 95.4146L226.742 94.9351C226.772 94.9059 226.815 94.8954 226.855 94.9064C226.894 94.9177 226.925 94.9493 226.935 94.9895L233.079 119.295L241.288 111.271C241.318 111.242 241.36 111.231 241.401 111.242C241.44 111.254 241.471 111.285 241.481 111.325L241.62 111.876C241.631 111.916 241.619 111.958 241.589 111.987L232.832 120.558C232.81 120.579 232.781 120.591 232.751 120.591ZM226.461 95.5334L232.813 120.252L241.38 111.868L241.306 111.577L233.097 119.601C233.067 119.63 233.024 119.64 232.984 119.63C232.944 119.618 232.914 119.587 232.903 119.546L226.76 95.2412L226.461 95.5334Z" fill="#F45100"/>
<path d="M192.845 99.7689L201.151 91.6514L200.336 91.766H200.335L192.03 99.8829L156.122 104.904L156.19 105.387L226.332 95.4974L226.823 95.0179L192.845 99.7689Z" fill="#F45100"/>
<path d="M156.191 105.503C156.134 105.503 156.084 105.461 156.076 105.403L156.008 104.92C156.004 104.889 156.012 104.859 156.03 104.834C156.049 104.81 156.076 104.793 156.106 104.789L191.977 99.7733L200.254 91.6831C200.273 91.6644 200.299 91.6528 200.325 91.6506L201.135 91.5367C201.185 91.5301 201.233 91.5555 201.255 91.6002C201.277 91.6452 201.268 91.6991 201.232 91.7341L193.179 99.6053L226.807 94.9032C226.857 94.8952 226.905 94.9218 226.927 94.9668C226.949 95.0118 226.94 95.0657 226.904 95.1006L226.414 95.5801C226.396 95.5973 226.373 95.6086 226.349 95.6119L156.207 105.502C156.202 105.502 156.196 105.503 156.191 105.503ZM156.254 105.002L156.289 105.256L226.279 95.3878L226.49 95.1811L192.862 99.8833C192.812 99.8905 192.764 99.8646 192.742 99.8196C192.72 99.7747 192.729 99.7208 192.765 99.6859L200.818 91.815L200.389 91.8753L192.112 99.9654C192.094 99.9826 192.071 99.9939 192.047 99.9972L156.254 105.002Z" fill="#F45100"/>
<path d="M175.368 150.755C175.709 152.084 174.933 153.31 173.634 153.493C172.335 153.676 171.005 152.748 170.662 151.419C170.319 150.09 171.095 148.863 172.395 148.679C173.695 148.496 175.026 149.426 175.368 150.755Z" fill="white"/>
<path d="M173.307 153.632C172.07 153.632 170.877 152.713 170.551 151.448C170.371 150.752 170.476 150.065 170.845 149.512C171.193 148.992 171.737 148.655 172.379 148.565C173.732 148.374 175.125 149.343 175.48 150.726C175.659 151.422 175.554 152.109 175.185 152.661C174.837 153.181 174.292 153.517 173.651 153.608C173.537 153.624 173.422 153.632 173.307 153.632ZM172.726 148.772C172.621 148.772 172.516 148.779 172.412 148.794C171.836 148.875 171.348 149.176 171.037 149.64C170.705 150.138 170.612 150.759 170.775 151.39C171.102 152.661 172.378 153.553 173.619 153.378C174.194 153.297 174.682 152.997 174.992 152.533C175.324 152.036 175.418 151.415 175.256 150.784C174.957 149.619 173.861 148.772 172.726 148.772Z" fill="#1D1E1E"/>
<path d="M160.779 104.582C160.211 105.136 158.468 105.765 156.885 105.988C155.302 106.21 154.48 105.942 155.048 105.388C155.615 104.834 157.358 104.205 158.94 103.982C160.523 103.759 161.346 104.028 160.779 104.582Z" fill="#F45100"/>
<path d="M155.883 106.181C155.391 106.181 154.914 106.107 154.784 105.842C154.73 105.732 154.717 105.548 154.967 105.305C155.548 104.738 157.323 104.093 158.924 103.868C159.483 103.789 160.81 103.656 161.041 104.127C161.096 104.238 161.108 104.421 160.859 104.664C160.278 105.232 158.502 105.877 156.901 106.102C156.656 106.137 156.265 106.181 155.883 106.181ZM159.929 104.02C159.667 104.02 159.345 104.042 158.956 104.097C157.397 104.316 155.68 104.933 155.128 105.471C155.074 105.524 154.951 105.657 154.992 105.74C155.065 105.89 155.626 106.048 156.868 105.873C158.428 105.654 160.146 105.037 160.697 104.499C160.752 104.445 160.874 104.313 160.833 104.229C160.783 104.127 160.503 104.02 159.929 104.02Z" fill="white"/>
<path d="M143.936 167.713C144.278 169.042 143.502 170.268 142.203 170.451C140.904 170.634 139.573 169.706 139.231 168.377C138.888 167.048 139.663 165.821 140.963 165.637C142.263 165.454 143.594 166.384 143.936 167.713Z" fill="white"/>
<path d="M141.875 170.59C140.637 170.59 139.444 169.671 139.118 168.406C138.938 167.71 139.043 167.023 139.412 166.47C139.76 165.95 140.305 165.613 140.947 165.523C142.301 165.332 143.692 166.301 144.048 167.684C144.226 168.38 144.122 169.067 143.752 169.619C143.404 170.139 142.86 170.475 142.218 170.566C142.104 170.582 141.989 170.59 141.875 170.59ZM141.293 165.73C141.189 165.73 141.084 165.737 140.979 165.752C140.403 165.833 139.915 166.134 139.605 166.598C139.273 167.096 139.179 167.717 139.342 168.348C139.67 169.619 140.945 170.511 142.186 170.336C142.761 170.255 143.249 169.955 143.56 169.491C143.892 168.994 143.986 168.373 143.823 167.742C143.524 166.577 142.429 165.73 141.293 165.73Z" fill="#1D1E1E"/>
<path d="M200.675 167.591C201.017 168.92 200.241 170.146 198.942 170.329C197.643 170.512 196.312 169.584 195.97 168.255C195.627 166.926 196.403 165.699 197.703 165.515C199.002 165.332 200.333 166.261 200.675 167.591Z" fill="white"/>
<path d="M198.614 170.467C197.376 170.468 196.183 169.549 195.857 168.284C195.678 167.588 195.782 166.9 196.152 166.348C196.499 165.827 197.044 165.491 197.686 165.401C199.039 165.209 200.431 166.179 200.787 167.562C200.966 168.258 200.861 168.945 200.491 169.497C200.144 170.017 199.599 170.353 198.958 170.444C198.843 170.46 198.728 170.467 198.614 170.467ZM198.032 165.608C197.928 165.608 197.823 165.615 197.718 165.63C197.142 165.711 196.654 166.012 196.344 166.476C196.012 166.974 195.918 167.595 196.081 168.226C196.409 169.497 197.684 170.389 198.925 170.214C199.501 170.133 199.988 169.833 200.299 169.369C200.631 168.872 200.725 168.251 200.562 167.62C200.263 166.455 199.168 165.608 198.032 165.608Z" fill="#1D1E1E"/>
<path d="M104.848 134.069C104.804 134.069 104.764 134.045 104.744 134.005C104.722 133.96 104.732 133.906 104.767 133.871L139.115 100.304C139.133 100.287 139.155 100.276 139.18 100.272L235.161 86.7391C235.211 86.7324 235.259 86.7579 235.281 86.8027C235.303 86.8476 235.294 86.9015 235.258 86.9365L200.911 120.503C200.893 120.52 200.87 120.532 200.846 120.535L104.864 134.068C104.859 134.069 104.853 134.069 104.848 134.069ZM139.25 100.496L105.182 133.79L200.776 120.311L234.844 87.0178L139.25 100.496Z" fill="#1D1E1E"/>
<path d="M225.722 219.035C225.712 219.035 225.701 219.033 225.691 219.03C225.651 219.019 225.62 218.987 225.61 218.947L200.717 120.449C200.707 120.409 200.719 120.367 200.749 120.338L235.096 86.771C235.126 86.742 235.169 86.7312 235.209 86.7423C235.249 86.7537 235.279 86.7853 235.29 86.8255L260.182 185.324C260.192 185.364 260.181 185.406 260.151 185.435L225.803 219.002C225.781 219.023 225.752 219.035 225.722 219.035ZM200.958 120.457L225.785 218.695L259.941 185.316L235.114 87.0773L200.958 120.457Z" fill="white"/>
<path d="M129.741 232.567C129.689 232.567 129.642 232.532 129.629 232.48L104.736 133.981C104.728 133.95 104.734 133.916 104.752 133.888C104.771 133.861 104.799 133.843 104.832 133.838L132.897 129.881L200.813 120.306C200.871 120.297 200.927 120.335 200.942 120.392L218.802 191.066L225.834 218.89C225.842 218.921 225.836 218.955 225.818 218.983C225.8 219.01 225.771 219.028 225.738 219.033L129.757 232.566C129.752 232.567 129.746 232.567 129.741 232.567ZM104.992 134.05L129.828 232.323L156.027 228.628L158.256 228.314L225.578 218.822L218.578 191.123L200.743 120.55L130.707 130.424L104.992 134.05Z" fill="white"/>
<path d="M231.734 150.678C232.155 152.342 232.025 154.151 231.445 154.718C230.864 155.286 230.052 154.397 229.631 152.734C229.21 151.07 229.34 149.261 229.92 148.693C230.501 148.126 231.313 149.014 231.734 150.678Z" fill="#F45100"/>
<path d="M231.065 155.005C231.008 155.005 230.95 154.997 230.891 154.981C230.353 154.829 229.827 153.979 229.519 152.762C229.082 151.037 229.223 149.213 229.84 148.611C230.026 148.428 230.245 148.366 230.474 148.431C231.013 148.582 231.538 149.433 231.846 150.65C232.283 152.375 232.142 154.198 231.526 154.801C231.387 154.936 231.23 155.005 231.065 155.005ZM230.3 148.638C230.195 148.638 230.096 148.683 230.001 148.776C229.457 149.308 229.339 151.107 229.744 152.705C230.027 153.825 230.502 154.63 230.954 154.758C231.103 154.799 231.237 154.759 231.364 154.635C231.908 154.103 232.026 152.304 231.622 150.706C231.339 149.587 230.863 148.781 230.411 148.654C230.373 148.643 230.337 148.638 230.3 148.638Z" fill="white"/>
<path d="M245.849 164.799C246.27 166.463 246.14 168.272 245.56 168.839C244.979 169.407 244.167 168.519 243.746 166.855C243.325 165.191 243.455 163.382 244.036 162.815C244.616 162.247 245.428 163.136 245.849 164.799Z" fill="#F45100"/>
<path d="M245.18 169.127C245.123 169.127 245.065 169.118 245.007 169.102C244.468 168.95 243.942 168.1 243.634 166.883C243.198 165.158 243.338 163.334 243.955 162.732C244.141 162.55 244.36 162.488 244.589 162.552C245.128 162.704 245.654 163.554 245.962 164.771C246.398 166.496 246.257 168.32 245.641 168.922C245.503 169.058 245.346 169.127 245.18 169.127ZM244.416 162.759C244.31 162.759 244.211 162.805 244.117 162.897C243.573 163.429 243.454 165.229 243.859 166.827C244.142 167.946 244.617 168.752 245.069 168.879C245.217 168.92 245.352 168.881 245.479 168.756C246.023 168.225 246.141 166.425 245.737 164.828C245.454 163.708 244.979 162.902 244.526 162.775C244.489 162.764 244.452 162.759 244.416 162.759Z" fill="white"/>
<path d="M158.092 104.981L157.618 105.1L147.4 64.6679L147.887 64.5996L158.092 104.981Z" fill="#F45100"/>
<path d="M157.619 105.216C157.567 105.216 157.52 105.181 157.507 105.129L147.289 64.6963C147.281 64.6645 147.286 64.6307 147.305 64.6034C147.323 64.5761 147.352 64.5578 147.385 64.5532L147.872 64.4849C147.931 64.476 147.986 64.5139 148 64.5712L158.205 104.952C158.212 104.982 158.207 105.014 158.192 105.04C158.176 105.066 158.15 105.085 158.121 105.093L157.647 105.213C157.638 105.215 157.628 105.216 157.619 105.216ZM147.545 64.7648L157.703 104.96L157.952 104.897L147.801 64.7289L147.545 64.7648Z" fill="#F45100"/>
<path d="M156.841 33.4494L169.838 20.748L179.257 58.0194L166.26 70.7208L156.841 33.4494Z" fill="#1D1E1E"/>
<path d="M166.261 70.8365C166.25 70.8365 166.239 70.835 166.229 70.8323C166.189 70.8209 166.159 70.7893 166.148 70.7491L156.729 33.4777C156.719 33.4376 156.731 33.3954 156.76 33.3666L169.758 20.6651C169.787 20.636 169.83 20.6253 169.87 20.6364C169.91 20.6477 169.941 20.6793 169.951 20.7195L179.37 57.9909C179.38 58.031 179.368 58.0732 179.339 58.1021L166.342 70.8036C166.32 70.825 166.29 70.8365 166.261 70.8365ZM156.97 33.4857L166.324 70.4973L179.129 57.9829L169.775 20.9713L156.97 33.4857Z" fill="white"/>
<path d="M120.522 38.5703L133.52 25.869L169.838 20.748L156.841 33.4494L120.522 38.5703Z" fill="white"/>
<path d="M120.522 38.6863C120.478 38.6863 120.438 38.6616 120.418 38.6216C120.396 38.5767 120.405 38.5227 120.441 38.4878L133.438 25.7863C133.456 25.769 133.478 25.7579 133.503 25.7544L169.822 20.6335C169.872 20.6263 169.92 20.6522 169.942 20.6971C169.964 20.742 169.955 20.7959 169.919 20.8309L156.922 33.5323C156.904 33.5495 156.881 33.5606 156.857 33.5641L120.538 38.685C120.533 38.686 120.527 38.6863 120.522 38.6863ZM133.573 25.9783L120.855 38.4066L156.787 33.3402L169.505 20.912L133.573 25.9783Z" fill="#1D1E1E"/>
<path d="M156.841 33.4495L166.261 70.7209L129.942 75.8418L120.522 38.5704L156.841 33.4495Z" fill="white"/>
<path d="M129.941 75.9575C129.889 75.9575 129.842 75.9221 129.829 75.8701L120.41 38.5987C120.402 38.5668 120.408 38.533 120.426 38.5057C120.444 38.4784 120.473 38.4602 120.506 38.4556L156.825 33.3346C156.883 33.3264 156.939 33.3635 156.953 33.4209L166.372 70.6923C166.38 70.7242 166.375 70.758 166.356 70.7853C166.338 70.8126 166.309 70.8308 166.276 70.8354L129.957 75.9563C129.952 75.9572 129.947 75.9575 129.941 75.9575ZM120.666 38.6671L130.028 75.7126L166.116 70.6241L156.754 33.5786L120.666 38.6671Z" fill="#1D1E1E"/>
<path d="M150.848 63.5558C150.833 63.4936 150.771 63.4496 150.71 63.4582L147.805 63.8682C147.744 63.8767 147.681 63.8327 147.666 63.7706L147.479 63.0287L146.732 63.1336C146.672 63.1421 146.636 63.1994 146.652 63.2616L146.934 64.3806C146.949 64.4427 147.012 64.4867 147.073 64.4782L149.978 64.0682C150.039 64.0596 150.101 64.1036 150.116 64.1658L150.6 66.0791C150.61 66.1181 150.599 66.156 150.575 66.1791C150.77 66.0351 151.344 65.5227 151.332 65.469L150.848 63.5558ZM150.518 66.2073L150.476 66.2133L150.513 66.217C150.519 66.2158 150.533 66.2084 150.551 66.1963C150.542 66.2024 150.531 66.2061 150.518 66.2073ZM149.34 62.1428L148.856 60.2283C148.84 60.1662 148.779 60.1234 148.718 60.1319L146.925 60.3845C146.864 60.3931 146.802 60.3491 146.786 60.2869L144.364 50.6913C144.143 50.8316 143.907 50.9549 143.657 51.0562C143.611 51.0745 143.586 51.1245 143.6 51.1771L146.054 60.8972C146.069 60.9594 146.132 61.0033 146.193 60.9948L147.986 60.7421C148.047 60.7336 148.108 60.7763 148.124 60.8386L148.607 62.753C148.61 62.764 148.611 62.775 148.611 62.786L149.259 62.2712C149.319 62.2624 149.355 62.2051 149.34 62.1428ZM148.358 66.5123L147.612 66.6172C147.552 66.6258 147.515 66.6831 147.531 66.7454L147.795 67.7923C147.803 67.824 147.797 67.8545 147.781 67.8776C147.991 67.7215 148.54 67.2346 148.527 67.1822L148.358 66.5123ZM148.355 62.9054C148.4 62.9175 148.431 62.9237 148.439 62.9225L148.483 62.8871L148.355 62.9054ZM147.714 67.9205L147.698 67.9229L147.707 67.9253C147.711 67.9253 147.717 67.9216 147.725 67.9181C147.722 67.9192 147.718 67.9205 147.714 67.9205ZM146.948 44.938C145.508 40.1927 140.394 39.5131 138.082 41.9449C140.605 40.2903 144.913 41.2555 146.216 45.5482C146.666 47.2845 146.209 48.9415 145.149 50.0458C146.714 49.0135 147.491 47.0331 146.948 44.938ZM142.493 48.6256C141.097 48.6926 139.713 47.7202 139.239 46.3365C138.89 45.3225 139.085 44.3304 139.646 43.6411C138.561 44.2354 138.034 45.5703 138.507 46.9466C138.981 48.3303 140.365 49.3028 141.761 49.2357C142.652 49.1564 143.286 48.7952 143.688 48.2863C143.358 48.4644 142.96 48.584 142.493 48.6256Z" fill="#1D1E1E"/>
<path d="M147.706 68.041C147.696 68.041 147.686 68.0396 147.675 68.0368C147.623 68.0223 147.583 67.9718 147.586 67.9175C147.589 67.8629 147.626 67.817 147.68 67.8085L147.684 67.8078L147.418 66.7736C147.402 66.7113 147.413 66.6459 147.448 66.5944C147.481 66.5445 147.535 66.511 147.595 66.5026L148.342 66.3977C148.401 66.3889 148.456 66.4267 148.47 66.4841L148.638 67.1539C148.686 67.3386 147.858 67.9642 147.85 67.9706C147.84 67.978 147.829 67.9838 147.817 67.9875C147.805 68.003 147.79 68.0157 147.771 68.024C147.756 68.0313 147.735 68.041 147.706 68.041ZM147.685 67.8115C147.675 67.8135 147.669 67.8163 147.666 67.8174L147.674 67.8317C147.677 67.8248 147.681 67.8184 147.685 67.8121L147.685 67.8115ZM147.646 66.7293L147.878 67.6519C148.081 67.482 148.33 67.2535 148.403 67.1661L148.271 66.6415L147.646 66.7293ZM148.414 67.21C148.414 67.2103 148.414 67.2107 148.414 67.211L148.414 67.21ZM150.513 66.3329C150.509 66.3329 150.505 66.3326 150.501 66.3323L150.464 66.3286C150.405 66.3228 150.361 66.2744 150.359 66.2158C150.358 66.1573 150.401 66.1071 150.459 66.0986L150.484 66.0951L150.003 64.1943C150.001 64.188 149.995 64.1833 149.992 64.1829L147.088 64.5929C146.967 64.6092 146.851 64.5289 146.821 64.4093L146.538 63.29C146.523 63.2278 146.533 63.1623 146.568 63.1107C146.601 63.061 146.655 63.0275 146.715 63.0189L147.462 62.914C147.52 62.905 147.576 62.9431 147.59 63.0004L147.777 63.7422C147.779 63.7481 147.786 63.7531 147.789 63.7534L150.693 63.3434C150.813 63.3268 150.93 63.4077 150.96 63.5281L151.444 65.4407C151.486 65.6256 150.651 66.2662 150.643 66.2724C150.639 66.2752 150.635 66.2779 150.631 66.2801C150.626 66.2847 150.621 66.2889 150.615 66.2927C150.581 66.3148 150.559 66.3258 150.536 66.3304C150.528 66.332 150.521 66.3329 150.513 66.3329ZM149.993 63.9514C150.102 63.9514 150.202 64.0289 150.228 64.1394L150.684 65.9419C150.884 65.772 151.135 65.5399 151.208 65.4524L150.735 63.584C150.735 63.5834 150.735 63.5829 150.734 63.5823C150.733 63.5775 150.727 63.5729 150.724 63.5727L147.82 63.9826C147.7 63.9993 147.583 63.9185 147.553 63.7988L147.391 63.1576L146.766 63.2455L147.045 64.3523C147.046 64.3581 147.053 64.3631 147.057 64.3634L149.961 63.9536C149.972 63.9522 149.982 63.9514 149.993 63.9514ZM148.436 63.0385C148.414 63.0385 148.384 63.0333 148.324 63.0171C148.271 63.0027 148.235 62.9531 148.239 62.8983C148.242 62.8435 148.284 62.7986 148.338 62.7907L148.466 62.7724C148.474 62.7712 148.483 62.7708 148.491 62.7716L148.011 60.8668C148.01 60.861 148.003 60.8568 148.001 60.8566L146.208 61.1094C146.088 61.1261 145.971 61.0452 145.941 60.9255L143.487 51.2053C143.459 51.0965 143.513 50.9883 143.614 50.9484C143.849 50.8535 144.08 50.7338 144.301 50.5936C144.332 50.5735 144.371 50.57 144.406 50.5837C144.44 50.5974 144.466 50.6269 144.475 50.6629L146.897 60.2586C146.899 60.2647 146.906 60.2696 146.909 60.27L148.702 60.0174C148.822 60.0005 148.938 60.081 148.968 60.1998L149.451 62.1144C149.467 62.1768 149.456 62.2422 149.422 62.2936C149.395 62.3333 149.356 62.3627 149.311 62.3774L148.682 62.8766C148.658 62.8959 148.626 62.9047 148.597 62.901C148.594 62.9302 148.579 62.9579 148.555 62.9774L148.511 63.0128C148.495 63.0256 148.476 63.0342 148.455 63.0371C148.449 63.0379 148.443 63.0385 148.436 63.0385ZM148.001 60.6252C148.108 60.6252 148.208 60.7014 148.236 60.8097L148.683 62.5807L149.186 62.1804C149.198 62.1715 149.21 62.1647 149.224 62.1605L148.743 60.2568C148.742 60.251 148.736 60.2468 148.733 60.2466L146.94 60.4993C146.819 60.5162 146.703 60.435 146.673 60.3155L144.289 50.8721C144.103 50.982 143.91 51.0779 143.714 51.1581L146.165 60.8688C146.167 60.8747 146.174 60.8798 146.177 60.8801L147.97 60.6275C147.98 60.6259 147.99 60.6252 148.001 60.6252ZM145.149 50.1615C145.116 50.1615 145.083 50.1472 145.06 50.1199C145.022 50.0746 145.024 50.0081 145.065 49.9656C146.138 48.8475 146.526 47.2069 146.103 45.5773C145.516 43.6443 144.252 42.2364 142.545 41.6175C141.032 41.0689 139.387 41.2277 138.145 42.0418C138.096 42.074 138.03 42.0641 137.993 42.0192C137.955 41.9741 137.957 41.9078 137.998 41.8652C139.139 40.6652 140.956 40.1823 142.741 40.6056C144.804 41.0949 146.378 42.6618 147.058 44.9045C147.059 44.9061 147.059 44.9076 147.06 44.9091C147.599 46.9917 146.874 49.046 145.213 50.1425C145.193 50.1553 145.171 50.1615 145.149 50.1615ZM140.731 41.0637C141.361 41.0637 142.003 41.1746 142.624 41.3997C144.401 42.044 145.716 43.5054 146.326 45.5146C146.673 46.8531 146.499 48.1976 145.867 49.2829C146.875 48.1839 147.254 46.5866 146.836 44.9693C146.18 42.8087 144.668 41.3003 142.687 40.8307C141.36 40.5162 140.016 40.7236 138.974 41.3691C139.528 41.1665 140.124 41.0637 140.731 41.0637ZM141.624 49.3543C140.214 49.3544 138.875 48.3777 138.396 46.984C137.922 45.6008 138.413 44.1843 139.59 43.5393C139.639 43.5126 139.699 43.5242 139.735 43.5668C139.77 43.6093 139.77 43.671 139.735 43.7139C139.173 44.4046 139.028 45.3709 139.348 46.2986C139.802 47.6226 141.15 48.5739 142.484 48.5099C142.918 48.4711 143.304 48.3617 143.632 48.1843C143.68 48.1583 143.74 48.1695 143.776 48.2116C143.811 48.2537 143.812 48.3148 143.778 48.3579C143.326 48.9308 142.632 49.2741 141.771 49.3507C141.722 49.3532 141.673 49.3543 141.624 49.3543ZM139.228 44.0829C138.503 44.7543 138.249 45.8413 138.616 46.9089C139.07 48.2336 140.42 49.1836 141.755 49.1199C142.316 49.0699 142.8 48.8979 143.181 48.616C142.969 48.6777 142.742 48.7195 142.503 48.7407C142.501 48.7408 142.5 48.741 142.498 48.7411C141.042 48.8116 139.623 47.8157 139.129 46.3738C138.856 45.5825 138.898 44.7632 139.228 44.0829Z" fill="#1D1E1E"/>
<path d="M148.482 62.8871L148.526 62.8811C148.575 62.8738 148.609 62.8346 148.61 62.7859L148.482 62.8871ZM147.726 67.9168C147.749 67.9119 147.767 67.8972 147.779 67.8789C147.757 67.8948 147.739 67.9082 147.726 67.9168ZM150.475 66.2134L148.358 66.5123L150.475 66.2134Z" fill="#1D1E1E"/>
<path d="M147.726 68.0327C147.68 68.0327 147.637 68.005 147.619 67.9609C147.598 67.9092 147.617 67.8497 147.664 67.8195C147.673 67.8131 147.686 67.8037 147.702 67.7927L147.712 67.7852C147.757 67.7524 147.82 67.7568 147.86 67.7958C147.9 67.8346 147.907 67.8967 147.876 67.9433C147.846 67.9887 147.801 68.0195 147.75 68.0302C147.742 68.0318 147.734 68.0327 147.726 68.0327ZM147.702 67.8037C147.693 67.8056 147.686 67.8107 147.683 67.8149L147.708 67.8314L147.702 67.8037ZM148.358 66.6282C148.301 66.6282 148.252 66.5865 148.244 66.5286C148.235 66.4653 148.279 66.4067 148.342 66.3978L150.459 66.0989C150.522 66.09 150.581 66.1342 150.59 66.1974C150.599 66.2607 150.555 66.3193 150.491 66.3282L148.374 66.6272C148.369 66.6278 148.363 66.6282 148.358 66.6282ZM148.483 63.003C148.437 63.003 148.394 62.9756 148.376 62.9326C148.356 62.8845 148.37 62.8288 148.411 62.7963L148.539 62.6951C148.574 62.6674 148.623 62.6627 148.662 62.6825C148.703 62.7026 148.728 62.7441 148.726 62.789C148.724 62.8949 148.649 62.9799 148.544 62.9958L148.498 63.002C148.493 63.0026 148.488 63.003 148.483 63.003Z" fill="#1D1E1E"/>
<path d="M146.732 63.1334L148.527 62.8805C148.587 62.8719 148.624 62.8146 148.608 62.7524L148.125 60.8387C148.109 60.7765 148.047 60.733 147.987 60.7416L146.192 60.9945C146.132 61.0031 146.07 60.9596 146.054 60.8974L143.6 51.1774C143.587 51.125 143.611 51.0752 143.658 51.0562C145.717 50.2199 146.84 47.9592 146.216 45.5485C144.193 38.8828 134.922 40.2393 136.344 46.9745C136.949 49.3726 139.088 51.1567 141.404 51.3739C141.457 51.3789 141.503 51.4187 141.516 51.4712L145.712 68.0863C145.727 68.1484 145.789 68.192 145.85 68.1834L147.714 67.9206C147.775 67.912 147.811 67.8547 147.795 67.7924L147.531 66.7455C147.515 66.6833 147.552 66.6259 147.612 66.6174L150.518 66.2077C150.579 66.1992 150.615 66.1418 150.6 66.0797L150.116 64.1657C150.101 64.1035 150.039 64.06 149.978 64.0686L147.072 64.4783C147.012 64.4869 146.95 64.4433 146.934 64.3811L146.651 63.2618C146.635 63.1993 146.672 63.1419 146.732 63.1334ZM138.506 46.9465C137.886 45.142 138.986 43.4088 140.807 43.3208C144.693 43.3055 145.601 48.8931 141.761 49.2353C140.365 49.3027 138.981 48.3297 138.506 46.9465Z" fill="#F45100"/>
<path d="M145.833 68.3001C145.726 68.3001 145.626 68.2236 145.599 68.1144L141.404 51.4992C141.402 51.4941 141.396 51.4893 141.392 51.489C138.963 51.261 136.84 49.4162 136.231 47.0026C135.499 43.5347 137.499 41.7256 139.433 41.2289C140.743 40.8923 142.196 41.0865 143.42 41.761C144.388 42.2942 145.677 43.3785 146.326 45.5147C146.948 47.9142 145.849 50.283 143.714 51.1579L146.166 60.8688C146.167 60.8745 146.174 60.8792 146.177 60.8797L147.97 60.6267C148.09 60.6097 148.206 60.6907 148.236 60.8103L148.72 62.724C148.735 62.7865 148.725 62.8518 148.69 62.9032C148.657 62.9531 148.603 62.9865 148.542 62.995L146.766 63.2455L147.046 64.3524C147.047 64.3581 147.054 64.3629 147.057 64.3633L149.961 63.9537C150.08 63.9377 150.197 64.0174 150.228 64.1371L150.711 66.0511C150.727 66.1135 150.716 66.1789 150.682 66.2302C150.648 66.2802 150.594 66.3137 150.534 66.3222L147.646 66.7294L147.907 67.764C147.923 67.8265 147.912 67.8918 147.877 67.9433C147.844 67.9932 147.79 68.0267 147.729 68.0351L145.865 68.298C145.855 68.2993 145.844 68.3001 145.833 68.3001ZM140.805 41.2832C140.382 41.2832 139.943 41.3372 139.491 41.4532C137.655 41.9245 135.759 43.647 136.456 46.9504C137.041 49.2661 139.08 51.0394 141.414 51.2584C141.514 51.2678 141.603 51.3432 141.628 51.4422L145.823 68.0577C145.824 68.0634 145.831 68.0681 145.834 68.0686L147.679 67.8082L147.418 66.7737C147.402 66.7112 147.413 66.6459 147.448 66.5944C147.481 66.5445 147.535 66.5111 147.595 66.5025L150.483 66.0953L150.003 64.1937C150.002 64.188 149.995 64.1833 149.992 64.1828L147.087 64.5924C146.968 64.6084 146.851 64.5288 146.821 64.4091L146.538 63.2898C146.522 63.2271 146.533 63.1618 146.568 63.1103C146.601 63.0604 146.655 63.0271 146.716 63.0186L148.492 62.7681L148.012 60.8667C148.01 60.861 148.004 60.8563 148.001 60.8559L146.208 61.1088C146.089 61.1249 145.971 61.0451 145.941 60.9254L143.487 51.2055C143.46 51.0975 143.513 50.9895 143.613 50.9486C145.648 50.1223 146.695 47.8633 146.103 45.5771C145.42 43.3274 143.409 41.2832 140.805 41.2832ZM141.623 49.3541C140.214 49.3542 138.875 48.3777 138.396 46.9841C138.078 46.0586 138.184 45.1024 138.687 44.3608C139.157 43.6686 139.927 43.2474 140.801 43.2052H140.818C143.005 43.2052 144.26 44.9034 144.335 46.5058C144.391 47.7078 143.752 49.1741 141.77 49.3506C141.721 49.3531 141.672 49.3541 141.623 49.3541ZM140.823 43.4367C140.818 43.4367 140.812 43.4367 140.807 43.4367C140.012 43.4751 139.307 43.8594 138.879 44.4908C138.417 45.1715 138.321 46.0528 138.615 46.9089C139.07 48.2339 140.422 49.1874 141.754 49.1197C142.887 49.0187 144.185 48.2761 144.103 46.5166C144.034 45.0213 142.861 43.4367 140.823 43.4367Z" fill="#F45100"/>
<path d="M244.774 41.561L244.301 41.6806L268.979 139.328L238.592 143.559L238.792 144.024L269.585 139.736L244.774 41.561Z" fill="#F45100"/>
<path d="M238.793 144.139C238.747 144.139 238.705 144.112 238.686 144.069L238.486 143.605C238.472 143.571 238.474 143.533 238.491 143.502C238.509 143.47 238.541 143.449 238.576 143.444L268.835 139.23L244.189 41.7087C244.182 41.679 244.186 41.6475 244.202 41.621C244.218 41.5946 244.243 41.5756 244.273 41.5681L244.746 41.4485C244.808 41.4333 244.871 41.4705 244.887 41.5324L269.698 139.707C269.706 139.739 269.7 139.773 269.682 139.8C269.663 139.827 269.634 139.846 269.602 139.85L238.808 144.138C238.803 144.139 238.798 144.139 238.793 144.139ZM238.759 143.652L238.864 143.897L269.442 139.639L244.691 41.7014L244.442 41.7643L269.091 139.299C269.099 139.331 269.094 139.365 269.075 139.392C269.057 139.419 269.028 139.438 268.995 139.442L238.759 143.652Z" fill="#F45100"/>
<path d="M223.966 38.7791L167.559 46.7324C167.548 46.7337 167.536 46.7348 167.525 46.7348C167.406 46.7348 167.301 46.647 167.284 46.5249C167.265 46.3907 167.358 46.2674 167.491 46.2492L223.846 38.3032L223.966 38.7791Z" fill="#F45100"/>
<path d="M167.526 46.8503C167.347 46.8503 167.194 46.7173 167.169 46.5407C167.143 46.3433 167.28 46.1612 167.476 46.1342L223.83 38.1883C223.888 38.1795 223.944 38.2171 223.958 38.2744L224.079 38.7503C224.087 38.7821 224.082 38.8159 224.063 38.8433C224.045 38.8705 224.016 38.8888 223.983 38.8935L167.576 46.8468C167.558 46.849 167.541 46.8503 167.526 46.8503ZM223.76 38.4321L167.508 46.3636C167.438 46.3732 167.389 46.4384 167.399 46.5091C167.409 46.5781 167.477 46.6237 167.547 46.6172L223.823 38.6823L223.76 38.4321Z" fill="#F45100"/>
<path d="M249.747 20.8172L262.744 8.11572L272.163 45.3872L259.166 58.0886L249.747 20.8172Z" fill="#1D1E1E"/>
<path d="M259.167 58.2044C259.156 58.2044 259.146 58.2029 259.135 58.2001C259.096 58.1887 259.065 58.1571 259.055 58.117L249.635 20.8455C249.625 20.8055 249.637 20.7632 249.667 20.7344L262.664 8.03291C262.693 8.00385 262.736 7.99331 262.776 8.0042C262.816 8.01554 262.847 8.04715 262.857 8.08732L272.276 45.3588C272.286 45.3988 272.274 45.4411 272.245 45.4699L259.248 58.1714C259.226 58.1928 259.197 58.2044 259.167 58.2044ZM249.876 20.8534L259.23 57.865L272.035 45.3507L262.681 8.33913L249.876 20.8534Z" fill="white"/>
<path d="M213.428 25.9381L226.425 13.2366L262.744 8.11572L249.747 20.8172L213.428 25.9381Z" fill="white"/>
<path d="M213.428 26.0539C213.385 26.0539 213.344 26.0293 213.324 25.9892C213.302 25.9443 213.312 25.8903 213.347 25.8554L226.344 13.154C226.362 13.1368 226.385 13.1257 226.409 13.1222L262.728 8.00125C262.778 7.99477 262.826 8.01989 262.848 8.06481C262.87 8.10974 262.861 8.16369 262.825 8.19865L249.828 20.9001C249.81 20.9174 249.788 20.9285 249.763 20.932L213.444 26.0528C213.439 26.0537 213.433 26.0539 213.428 26.0539ZM226.479 13.3462L213.761 25.7743L249.693 20.7081L262.411 8.27981L226.479 13.3462Z" fill="#1D1E1E"/>
<path d="M249.747 20.8171L259.166 58.0886L222.847 63.2095L213.428 25.9381L249.747 20.8171Z" fill="white"/>
<path d="M222.847 63.3253C222.795 63.3253 222.748 63.2899 222.735 63.2379L213.316 25.9663C213.308 25.9345 213.314 25.9007 213.332 25.8734C213.351 25.846 213.38 25.8279 213.412 25.8232L249.731 20.7024C249.788 20.6937 249.845 20.7312 249.859 20.7887L259.279 58.0601C259.287 58.0919 259.281 58.1257 259.262 58.1531C259.244 58.1804 259.215 58.1986 259.183 58.2032L222.864 63.3241C222.858 63.3249 222.853 63.3253 222.847 63.3253ZM213.572 26.0346L222.934 63.0803L259.023 57.9918L249.66 20.9462L213.572 26.0346Z" fill="#1D1E1E"/>
<path d="M246.843 44.0096L245.256 37.7353C245.122 37.2021 244.59 36.8287 244.069 36.9019L243.821 36.936L243.413 35.3168C242.352 31.123 238.165 28.1786 234.077 28.7559C232.882 28.9242 231.826 29.3757 230.956 30.0334C231.604 29.7052 232.322 29.4759 233.101 29.366C237.188 28.7887 241.376 31.7331 242.436 35.9269L242.845 37.5461L243.093 37.512C243.614 37.4388 244.146 37.8122 244.28 38.3454L245.866 44.6197C246.747 48.1046 245.542 51.3942 243.047 53.2344C246.19 51.5906 247.832 47.9228 246.843 44.0096ZM240.825 37.3595L230.902 38.7578L230.492 37.1386C229.949 34.9886 230.652 32.9497 232.137 31.7502C230.004 32.752 228.864 35.1705 229.516 37.7487L229.926 39.368L240.94 37.8159L240.825 37.3595ZM238.558 48.1521L238.339 48.1825L237.878 46.3546C237.466 46.1874 237.126 45.8202 237.01 45.3638C236.935 45.0649 236.968 44.7768 237.085 44.5377C237.036 44.5377 236.987 44.5413 236.938 44.5487C236.265 44.6439 235.86 45.2821 236.034 45.9739C236.15 46.4302 236.489 46.7975 236.902 46.9647L237.363 48.7927L238.673 48.6072L238.558 48.1521Z" fill="#1D1E1E"/>
<path d="M243.047 53.35C243.008 53.35 242.97 53.3306 242.949 53.2956C242.916 53.2443 242.929 53.1769 242.978 53.1411C245.538 51.2535 246.601 47.9992 245.754 44.6481L244.168 38.3738C244.048 37.8966 243.572 37.561 243.109 37.6267L242.861 37.6609C242.804 37.6698 242.747 37.6319 242.733 37.5746L242.324 35.9555C241.278 31.8163 237.149 28.9115 233.117 29.4807C232.368 29.5864 231.659 29.8071 231.008 30.1368C230.954 30.1638 230.889 30.1456 230.857 30.0949C230.826 30.0442 230.838 29.9774 230.886 29.9413C231.805 29.2461 232.873 28.8088 234.061 28.6414C238.204 28.0565 242.45 31.0381 243.525 35.2886L243.908 36.8073L244.053 36.7874C244.631 36.7059 245.221 37.1188 245.369 37.7071L246.955 43.9812C247.935 47.8589 246.386 51.6186 243.1 53.3368C243.083 53.3457 243.065 53.35 243.047 53.35ZM243.223 37.3872C243.751 37.3872 244.257 37.7785 244.393 38.3171L245.979 44.5912C246.712 47.4909 246.05 50.3222 244.249 52.3053C246.56 50.4224 247.549 47.2734 246.731 44.038L245.144 37.7637C245.024 37.2866 244.549 36.9522 244.085 37.0166L243.837 37.0508C243.78 37.0587 243.724 37.0217 243.709 36.9645L243.3 35.3453C242.254 31.206 238.125 28.3019 234.093 28.8706C233.397 28.9687 232.744 29.1625 232.139 29.4496C232.447 29.3631 232.762 29.297 233.085 29.2514C237.228 28.6667 241.474 31.6481 242.549 35.8987L242.932 37.4173L243.077 37.3974C243.126 37.3904 243.175 37.3872 243.223 37.3872ZM237.363 48.9086C237.311 48.9086 237.264 48.8732 237.251 48.8212L236.803 47.0486C236.373 46.8537 236.038 46.4579 235.922 46.0025C235.827 45.6243 235.885 45.2505 236.088 44.9494C236.278 44.6665 236.574 44.4835 236.922 44.4343C236.975 44.4263 237.03 44.4222 237.085 44.4222C237.125 44.4222 237.162 44.4428 237.183 44.4767C237.204 44.5107 237.206 44.553 237.189 44.5889C237.079 44.8136 237.056 45.0719 237.123 45.3357C237.225 45.7401 237.532 46.0896 237.921 46.2475C237.956 46.2613 237.981 46.2907 237.99 46.3265L238.426 48.0538L238.542 48.0376C238.601 48.0295 238.655 48.0664 238.67 48.1236L238.786 48.5787C238.794 48.6106 238.788 48.6444 238.77 48.6718C238.751 48.6993 238.722 48.7174 238.69 48.7221L237.379 48.9077C237.374 48.9082 237.368 48.9086 237.363 48.9086ZM236.908 44.6711C236.646 44.7203 236.424 44.8637 236.28 45.0788C236.115 45.3243 236.067 45.6323 236.146 45.9457C236.249 46.3501 236.555 46.6995 236.945 46.8575C236.979 46.8713 237.005 46.9007 237.014 46.9365L237.45 48.6636L238.529 48.5108L238.471 48.2813L238.355 48.2975C238.297 48.3066 238.241 48.2686 238.227 48.2113L237.78 46.4387C237.349 46.2438 237.014 45.8481 236.898 45.3926C236.835 45.1437 236.839 44.8979 236.908 44.6711ZM229.926 39.4836C229.874 39.4836 229.827 39.4482 229.814 39.3962L229.404 37.7771C228.756 35.2134 229.86 32.692 232.088 31.6454C232.141 31.6205 232.204 31.6392 232.235 31.6888C232.266 31.7384 232.255 31.8034 232.21 31.8403C230.705 33.0554 230.09 35.0748 230.604 37.1104L230.989 38.6288L240.808 37.2449C240.866 37.2368 240.922 37.2737 240.937 37.331L241.053 37.7874C241.061 37.8193 241.055 37.8531 241.037 37.8805C241.018 37.9077 240.989 37.926 240.957 37.9306L229.942 39.4826C229.937 39.4834 229.931 39.4836 229.926 39.4836ZM231.369 32.3451C229.801 33.5198 229.093 35.6042 229.628 37.7204L230.012 39.2388L240.797 37.7192L240.738 37.4886L230.918 38.8725C230.86 38.8813 230.804 38.8436 230.79 38.7862L230.38 37.1671C229.931 35.3888 230.31 33.6206 231.369 32.3451Z" fill="#1D1E1E"/>
<path d="M243.093 37.5116L242.845 37.5466L242.436 35.9274C241.376 31.7329 237.188 28.7892 233.101 29.3655C229.013 29.9418 226.55 33.8232 227.611 38.0177L228.02 39.6369L227.771 39.6719C227.251 39.7453 226.938 40.238 227.073 40.7719L228.659 47.0452C229.891 51.9216 234.742 55.3311 239.494 54.6612C244.245 53.9912 247.098 49.4955 245.866 44.619L244.28 38.3458C244.145 37.8119 243.614 37.4382 243.093 37.5116ZM229.516 37.7492C228.728 34.6328 230.558 31.7491 233.595 31.3208C236.631 30.8927 239.743 33.0797 240.53 36.1961L240.94 37.8153L229.925 39.3684L229.516 37.7492ZM238.201 46.7421L238.673 48.6074L237.363 48.7921L236.901 46.9652C236.489 46.7973 236.149 46.4308 236.034 45.9738C235.859 45.2822 236.264 44.6441 236.938 44.5491C237.612 44.454 238.3 44.9379 238.475 45.6296C238.584 46.061 238.467 46.4711 238.201 46.7421Z" fill="#F45100"/>
<path d="M238.297 54.8605C233.907 54.8606 229.686 51.5831 228.546 47.0736L226.961 40.8003C226.886 40.501 226.932 40.2049 227.093 39.9664C227.244 39.7416 227.479 39.5963 227.755 39.5573L227.876 39.5402L227.498 38.0462C226.96 35.9172 227.289 33.815 228.423 32.1265C229.485 30.5463 231.14 29.5251 233.085 29.2509C237.229 28.6674 241.474 31.649 242.548 35.899L242.932 37.4175L243.077 37.3969C243.654 37.3153 244.243 37.7286 244.392 38.3175L245.978 44.5908C246.602 47.0602 246.223 49.4957 244.911 51.4484C243.683 53.2762 241.765 54.4577 239.509 54.7758C239.106 54.8329 238.7 54.8605 238.297 54.8605ZM234.134 29.4092C233.795 29.4092 233.456 29.4323 233.117 29.4802C231.238 29.7449 229.64 30.7306 228.615 32.2556C227.518 33.8887 227.201 35.9251 227.723 37.9893L228.132 39.6084C228.14 39.6403 228.134 39.6741 228.116 39.7014C228.097 39.7287 228.068 39.7469 228.036 39.7515L227.788 39.7866C227.577 39.8162 227.399 39.926 227.284 40.0956C227.161 40.2789 227.126 40.509 227.186 40.7437L228.771 47.0169C229.987 51.8297 234.79 55.2069 239.477 54.5467C241.666 54.238 243.528 53.0918 244.719 51.3193C245.994 49.4219 246.361 47.0526 245.753 44.6476L244.168 38.3744C244.047 37.8967 243.572 37.5618 243.109 37.6263L242.861 37.6613C242.804 37.6691 242.747 37.6324 242.733 37.5751L242.323 35.9559C241.365 32.165 237.82 29.4092 234.134 29.4092ZM237.363 48.9079C237.31 48.9079 237.264 48.8725 237.25 48.8205L236.803 47.0489C236.366 46.8513 236.038 46.4639 235.922 46.0021C235.826 45.6241 235.885 45.2503 236.087 44.9494C236.277 44.6665 236.574 44.4836 236.922 44.4344C237.651 44.3313 238.399 44.855 238.587 45.6011C238.696 46.0327 238.6 46.4662 238.329 46.7746L238.785 48.579C238.793 48.6108 238.787 48.6446 238.769 48.6719C238.75 48.6993 238.721 48.7174 238.689 48.7221L237.379 48.9068C237.374 48.9075 237.368 48.9079 237.363 48.9079ZM237.109 44.6528C237.057 44.6528 237.006 44.6564 236.954 44.6637C236.672 44.7035 236.432 44.8509 236.279 45.0786C236.114 45.3242 236.067 45.6319 236.146 45.9453C236.248 46.3489 236.554 46.6987 236.945 46.858C236.979 46.8719 237.004 46.9012 237.013 46.9368L237.45 48.663L238.529 48.5108L238.089 46.7705C238.079 46.7312 238.09 46.6898 238.119 46.6609C238.367 46.4087 238.458 46.0338 238.363 45.6581C238.216 45.0761 237.673 44.6528 237.109 44.6528ZM229.925 39.484C229.873 39.484 229.826 39.4485 229.813 39.3966L229.404 37.7775C229.002 36.1875 229.247 34.6169 230.095 33.3555C230.888 32.1743 232.126 31.411 233.579 31.2062C236.673 30.7698 239.841 32.9956 240.643 36.1676L241.052 37.7868C241.06 37.8187 241.054 37.8525 241.036 37.8798C241.017 37.9071 240.988 37.9253 240.956 37.9299L229.941 39.4829C229.936 39.4836 229.93 39.484 229.925 39.484ZM234.363 31.3829C234.113 31.3829 233.862 31.4 233.611 31.4355C232.224 31.631 231.043 32.3588 230.287 33.4846C229.477 34.6909 229.243 36.1953 229.628 37.7207L230.012 39.2391L240.796 37.7185L240.418 36.2243C239.71 33.4209 237.088 31.3829 234.363 31.3829Z" fill="#F45100"/>
</g>
<defs>
<clipPath id="clip0_596_64414">
<rect width="208.625" height="320" fill="white" transform="translate(63.6875 8)"/>
</clipPath>
</defs>
</svg>
