<svg viewBox="0 0 336 336" fill="none" xmlns="http://www.w3.org/2000/svg">
<rect rx="24" fill="#F5F5F5"/>
<g clip-path="url(#clip0_596_64187)">
<path d="M131.068 179.472L131.058 179.454C131.058 179.454 76.3571 184.348 21.157 125.854C21.157 125.854 19.3304 163.991 46.8148 176.366C60.4971 182.527 76.3135 185.684 90.7641 187.222C68.4884 189.159 41.4409 187.377 21.864 172.655C20.6491 178.02 35.2755 225.551 98.6734 204.851C85.896 211.613 69.9439 216.726 51.9352 215.366C55.5686 219.635 76.8718 253.042 136.897 190.546C141.265 186.035 134.098 180.066 131.068 179.472Z" fill="white"/>
<path d="M75.7631 228.21C75.2631 228.21 74.7673 228.199 74.2755 228.176C61.4773 227.57 54.9165 219.301 52.4466 216.188C52.2112 215.891 52.008 215.635 51.8447 215.443C51.8296 215.425 51.82 215.403 51.8173 215.38C51.8145 215.357 51.8187 215.333 51.8293 215.312C51.8399 215.291 51.8564 215.274 51.8768 215.263C51.8972 215.251 51.9205 215.246 51.9438 215.248C67.1088 216.393 82.3906 213.076 97.3862 205.388C83.074 209.894 70.1917 211.216 59.0795 209.316C49.7766 207.726 41.7547 203.909 35.2366 197.971C29.3165 192.578 25.962 186.633 24.1904 182.595C22.1773 178.007 21.4296 174.036 21.7482 172.629C21.7526 172.61 21.7617 172.592 21.7747 172.577C21.7878 172.562 21.8043 172.551 21.8229 172.544C21.8415 172.537 21.8614 172.535 21.881 172.538C21.9005 172.541 21.9191 172.549 21.9349 172.561C41.7536 187.465 69.3898 188.814 89.5298 187.206C72.8 185.33 58.418 181.721 46.7662 176.474C40.4772 173.643 35.211 169.217 31.1135 163.321C27.8377 158.606 25.298 152.947 23.5648 146.5C20.6152 135.528 21.034 125.944 21.0385 125.849C21.0396 125.826 21.0475 125.803 21.0613 125.785C21.075 125.766 21.0939 125.752 21.1157 125.744C21.1374 125.736 21.1611 125.734 21.1837 125.739C21.2063 125.745 21.2269 125.757 21.2428 125.773C49.7393 155.97 78.0822 168.925 96.841 174.476C117.16 180.488 130.911 179.348 131.048 179.336C131.064 179.334 131.08 179.336 131.096 179.341C131.111 179.347 131.125 179.355 131.137 179.366C133.297 179.82 137.159 182.722 138.147 185.872C138.706 187.652 138.314 189.253 136.981 190.629C123.515 204.65 110.957 214.891 99.6591 221.066C90.9774 225.811 82.9474 228.211 75.763 228.211L75.7631 228.21ZM52.2036 215.505C52.3475 215.682 52.4904 215.861 52.6321 216.04C55.0836 219.131 61.5959 227.339 74.2867 227.939C81.8004 228.295 90.2984 225.912 99.5456 220.858C110.823 214.694 123.361 204.469 136.811 190.464C138.079 189.155 138.452 187.634 137.921 185.942C136.95 182.848 133.14 179.999 131.045 179.588C131.033 179.586 131.022 179.582 131.011 179.576C130.017 179.651 116.465 180.529 96.7739 174.703C84.8181 171.165 72.9688 165.884 61.5552 159.008C47.3631 150.457 33.8097 139.401 21.2656 126.142C21.2214 127.802 21.1361 136.558 23.795 146.445C26.5067 156.528 32.7101 169.886 46.8632 176.259C58.7748 181.622 73.5494 185.271 90.7764 187.104C90.8057 187.107 90.8328 187.121 90.8524 187.143C90.872 187.165 90.8827 187.194 90.8824 187.223C90.8821 187.253 90.8709 187.281 90.8509 187.303C90.8308 187.324 90.8035 187.338 90.7741 187.34C77.8564 188.463 65.915 188.114 55.2819 186.303C42.0879 184.055 30.8734 179.534 21.9466 172.865C21.5586 175.742 24.7417 188.091 35.396 197.796C45.5673 207.062 64.7955 215.788 98.6363 204.739C98.6645 204.73 98.695 204.731 98.7219 204.744C98.7488 204.756 98.7702 204.778 98.7817 204.805C98.7933 204.832 98.7942 204.863 98.7844 204.891C98.7745 204.919 98.7545 204.942 98.7284 204.956C85.2288 212.1 71.4849 215.705 57.7939 215.705C55.9285 215.705 54.0663 215.638 52.2036 215.505Z" fill="#1D1E1E"/>
<path d="M258.799 242.388L157.592 289.413C156.721 289.818 155.686 289.5 155.192 288.678L97.1737 192.056C96.4323 190.821 96.9245 189.216 98.2305 188.609L199.438 141.584C200.308 141.18 201.344 141.497 201.837 142.32L259.856 238.942C260.597 240.176 260.105 241.781 258.799 242.388Z" fill="#F45100"/>
<path d="M156.8 289.707C156.455 289.707 156.117 289.618 155.818 289.448C155.518 289.278 155.268 289.034 155.091 288.738L97.0724 192.116C96.7018 191.499 96.6103 190.751 96.8214 190.062C97.0324 189.374 97.528 188.805 98.1809 188.502L199.389 141.477C199.835 141.268 200.343 141.233 200.814 141.377C201.285 141.522 201.686 141.836 201.939 142.259L259.958 238.881C260.328 239.498 260.42 240.246 260.209 240.935C259.998 241.623 259.502 242.192 258.849 242.495L157.642 289.52C157.378 289.643 157.091 289.707 156.8 289.707ZM200.231 141.526C199.981 141.526 199.728 141.58 199.488 141.691L98.2807 188.717C97.6886 188.992 97.2392 189.508 97.0478 190.132C96.8564 190.756 96.9393 191.435 97.2754 191.995L155.294 288.617C155.517 288.989 155.87 289.266 156.285 289.393C156.701 289.521 157.148 289.49 157.542 289.306L258.75 242.28C259.342 242.005 259.791 241.489 259.983 240.865C260.174 240.241 260.091 239.562 259.755 239.002L201.736 142.38C201.581 142.12 201.36 141.904 201.096 141.755C200.832 141.605 200.534 141.526 200.231 141.526Z" fill="#F45100"/>
<path d="M214.514 95.6447L200.857 141.518C200.394 141.352 199.884 141.376 199.438 141.585L98.2306 188.61C97.5899 188.907 97.1478 189.442 96.9473 190.057L110.62 144.403C110.623 144.396 110.624 144.387 110.627 144.376C110.796 143.693 111.262 143.084 111.959 142.761L213.166 95.7354C213.588 95.5376 214.069 95.5052 214.514 95.6446L214.514 95.6447Z" fill="white"/>
<path d="M96.9475 190.175C96.929 190.175 96.9108 190.171 96.8943 190.163C96.8779 190.155 96.8635 190.143 96.8525 190.128C96.8415 190.113 96.8341 190.096 96.8309 190.078C96.8277 190.059 96.8288 190.041 96.8341 190.023L110.507 144.369C110.507 144.367 110.508 144.365 110.509 144.363C110.511 144.355 110.512 144.348 110.514 144.341C110.698 143.596 111.207 142.979 111.909 142.653L213.116 95.6279C213.565 95.4178 214.076 95.3834 214.549 95.5316C214.579 95.5408 214.604 95.5615 214.618 95.5889C214.633 95.6164 214.636 95.6485 214.627 95.6783L200.971 141.552C200.966 141.567 200.958 141.581 200.948 141.594C200.938 141.606 200.925 141.616 200.911 141.623C200.896 141.631 200.881 141.635 200.865 141.636C200.849 141.637 200.833 141.635 200.817 141.629C200.384 141.473 199.906 141.496 199.488 141.692L98.2806 188.717C97.6945 188.988 97.2609 189.477 97.0599 190.093C97.0522 190.117 97.0371 190.138 97.0169 190.152C96.9967 190.167 96.9724 190.175 96.9475 190.175V190.175ZM110.732 144.442L97.3536 189.114C97.5846 188.855 97.8663 188.648 98.1811 188.503L199.388 141.477C199.823 141.273 200.317 141.235 200.778 141.368L214.366 95.7266C213.981 95.6337 213.575 95.6746 213.216 95.8427L112.009 142.868C111.696 143.013 111.419 143.226 111.2 143.492C110.98 143.758 110.824 144.07 110.742 144.405L110.624 144.39L110.739 144.416C110.738 144.423 110.736 144.432 110.732 144.442V144.442Z" fill="#1D1E1E"/>
<path d="M273.835 195.006C273.83 195.029 273.823 195.049 273.816 195.071L260.137 240.748C260.277 240.156 260.196 239.511 259.857 238.942L201.837 142.32C201.614 141.947 201.267 141.663 200.856 141.518L214.513 95.6445C214.954 95.7803 215.329 96.0747 215.565 96.4708L273.583 193.093C273.754 193.377 273.865 193.694 273.908 194.023C273.951 194.352 273.926 194.687 273.835 195.006Z" fill="#1D1E1E"/>
<path d="M260.137 240.866C260.119 240.866 260.101 240.862 260.085 240.854C260.069 240.846 260.055 240.835 260.044 240.821C260.033 240.807 260.025 240.791 260.021 240.773C260.017 240.756 260.017 240.738 260.022 240.72C260.161 240.134 260.066 239.524 259.755 239.003L201.736 142.381C201.526 142.032 201.201 141.766 200.817 141.63C200.789 141.619 200.765 141.599 200.751 141.572C200.737 141.545 200.735 141.513 200.743 141.484L214.4 95.611C214.404 95.596 214.412 95.582 214.422 95.5699C214.431 95.5577 214.444 95.5477 214.457 95.5403C214.471 95.5329 214.486 95.5284 214.502 95.5269C214.518 95.5254 214.533 95.5271 214.548 95.5317C215.017 95.6761 215.416 95.9892 215.667 96.4104L273.684 193.032C274.05 193.644 274.144 194.355 273.95 195.035C273.945 195.056 273.939 195.077 273.932 195.098L260.25 240.782C260.243 240.806 260.228 240.828 260.207 240.843C260.187 240.858 260.162 240.866 260.137 240.866ZM201.001 141.447C201.392 141.611 201.72 141.896 201.939 142.259L259.958 238.882C260.129 239.167 260.243 239.484 260.293 239.813L273.703 195.037C273.711 195.011 273.716 194.997 273.719 194.982L273.721 194.974C273.898 194.356 273.813 193.709 273.481 193.154L215.464 96.5319C215.264 96.196 214.956 95.9372 214.591 95.7969L201.001 141.447Z" fill="white"/>
<path d="M215.973 262.291L214.755 262.854L154.48 162.478L155.696 161.913L215.973 262.291Z" fill="#1D1E1E"/>
<path d="M214.755 262.973C214.715 262.973 214.676 262.952 214.654 262.915L154.379 162.539C154.371 162.525 154.365 162.509 154.363 162.492C154.361 162.476 154.363 162.459 154.367 162.443C154.372 162.427 154.38 162.413 154.391 162.4C154.402 162.388 154.416 162.378 154.431 162.371L155.647 161.805C155.673 161.793 155.703 161.791 155.731 161.799C155.759 161.808 155.783 161.827 155.798 161.852L216.074 262.23C216.083 262.245 216.089 262.261 216.091 262.277C216.093 262.294 216.091 262.31 216.086 262.326C216.081 262.342 216.073 262.357 216.062 262.369C216.051 262.382 216.038 262.392 216.023 262.399L214.805 262.962C214.789 262.969 214.772 262.973 214.755 262.973L214.755 262.973ZM154.65 162.53L214.802 262.702L215.804 262.239L155.65 162.065L154.65 162.53Z" fill="#1D1E1E"/>
<path d="M169.396 116.076L155.697 161.913L154.481 162.478L154.479 162.476L168.177 116.644L169.396 116.076Z" fill="#1D1E1E"/>
<path d="M154.481 162.596C154.463 162.596 154.446 162.592 154.43 162.584C154.414 162.577 154.4 162.565 154.388 162.551C154.376 162.536 154.368 162.518 154.364 162.499C154.36 162.48 154.361 162.46 154.366 162.441L168.064 116.61C168.069 116.594 168.077 116.579 168.088 116.566C168.099 116.554 168.112 116.543 168.128 116.536L169.346 115.969C169.367 115.959 169.39 115.956 169.412 115.959C169.435 115.962 169.456 115.972 169.474 115.987C169.491 116.001 169.503 116.021 169.51 116.043C169.516 116.065 169.516 116.088 169.51 116.11L155.811 161.946C155.806 161.962 155.798 161.977 155.787 161.99C155.776 162.003 155.762 162.013 155.747 162.02L154.531 162.585C154.515 162.592 154.498 162.596 154.481 162.596ZM168.276 116.729L154.666 162.261L155.599 161.828L169.207 116.295L168.276 116.729Z" fill="#1D1E1E"/>
<path d="M214.756 262.854L202.548 268.525L142.273 168.146L154.479 162.476L214.756 262.854Z" fill="white"/>
<path d="M202.547 268.643C202.526 268.643 202.506 268.638 202.488 268.628C202.471 268.617 202.456 268.603 202.445 268.585L142.171 168.207C142.163 168.193 142.157 168.177 142.155 168.16C142.153 168.144 142.155 168.127 142.159 168.111C142.164 168.095 142.173 168.081 142.183 168.068C142.194 168.056 142.208 168.046 142.223 168.039L154.429 162.368C154.455 162.356 154.485 162.354 154.513 162.362C154.541 162.371 154.565 162.39 154.58 162.415L214.856 262.793C214.865 262.808 214.87 262.823 214.872 262.84C214.874 262.856 214.873 262.873 214.868 262.889C214.863 262.905 214.855 262.92 214.844 262.932C214.833 262.945 214.82 262.955 214.805 262.962L202.597 268.632C202.581 268.639 202.564 268.643 202.547 268.643ZM142.442 168.198L202.593 268.372L214.586 262.802L154.432 162.628L142.442 168.198Z" fill="#1D1E1E"/>
<path d="M168.178 116.639L154.479 162.475L142.273 168.146L155.97 122.312L168.178 116.639Z" fill="white"/>
<path d="M142.273 168.264C142.254 168.264 142.236 168.26 142.22 168.252C142.203 168.243 142.189 168.231 142.178 168.217C142.167 168.202 142.159 168.185 142.156 168.166C142.153 168.148 142.154 168.13 142.159 168.112L155.856 122.278C155.865 122.245 155.888 122.219 155.919 122.204L168.128 116.532C168.148 116.522 168.171 116.519 168.194 116.522C168.217 116.525 168.238 116.535 168.255 116.55C168.272 116.565 168.285 116.584 168.291 116.606C168.298 116.628 168.298 116.651 168.291 116.673L154.592 162.509C154.587 162.525 154.579 162.54 154.568 162.553C154.557 162.566 154.544 162.576 154.528 162.583L142.323 168.253C142.307 168.26 142.29 168.264 142.273 168.264L142.273 168.264ZM156.067 122.397L142.461 167.928L154.38 162.391L167.989 116.858L156.067 122.397Z" fill="#1D1E1E"/>
<path d="M161.563 279.904C161.35 280.243 161.051 280.52 160.697 280.706C159.571 281.297 158.171 280.852 157.57 279.712C157.337 279.27 157.251 278.766 157.322 278.273C157.535 277.931 157.835 277.652 158.191 277.465C159.315 276.873 160.715 277.317 161.316 278.459C161.551 278.902 161.638 279.408 161.563 279.904Z" fill="white"/>
<path d="M159.641 281.085C159.193 281.084 158.754 280.961 158.37 280.728C157.987 280.496 157.674 280.164 157.466 279.767C157.22 279.298 157.13 278.775 157.206 278.256C157.208 278.24 157.214 278.224 157.222 278.21C157.446 277.851 157.762 277.557 158.137 277.36C158.709 277.059 159.366 277.001 159.986 277.199C160.606 277.396 161.116 277.824 161.421 278.404C161.67 278.875 161.759 279.4 161.681 279.921C161.678 279.938 161.673 279.953 161.664 279.967C161.439 280.323 161.125 280.614 160.753 280.811C160.41 280.991 160.029 281.085 159.642 281.085L159.641 281.085ZM157.436 278.314C157.374 278.776 157.457 279.24 157.675 279.657C158.245 280.737 159.576 281.161 160.642 280.601C160.97 280.428 161.249 280.173 161.45 279.862C161.515 279.398 161.432 278.933 161.212 278.514C160.936 277.99 160.475 277.603 159.914 277.424C159.355 277.246 158.762 277.298 158.247 277.57C157.917 277.743 157.637 278 157.436 278.314Z" fill="#1D1E1E"/>
<path d="M161.563 279.904C161.457 280.605 161.039 281.243 160.369 281.596C159.243 282.188 157.844 281.743 157.243 280.602C156.841 279.837 156.898 278.952 157.323 278.273C157.251 278.767 157.337 279.27 157.57 279.712C158.172 280.853 159.57 281.297 160.697 280.706C161.051 280.52 161.35 280.243 161.563 279.904Z" fill="#1D1E1E"/>
<path d="M159.314 281.975C158.865 281.974 158.426 281.851 158.043 281.619C157.659 281.386 157.347 281.054 157.139 280.657C156.732 279.881 156.764 278.943 157.223 278.21C157.237 278.188 157.259 278.17 157.285 278.162C157.311 278.153 157.338 278.153 157.364 278.163C157.389 278.172 157.411 278.19 157.425 278.213C157.439 278.236 157.444 278.264 157.44 278.29C157.371 278.759 157.453 279.232 157.676 279.657C158.245 280.737 159.576 281.161 160.642 280.601C160.978 280.424 161.261 280.162 161.463 279.841C161.478 279.818 161.5 279.801 161.526 279.792C161.551 279.783 161.579 279.784 161.605 279.793C161.63 279.803 161.652 279.821 161.665 279.844C161.679 279.867 161.685 279.895 161.681 279.922C161.564 280.693 161.107 281.341 160.425 281.701C160.082 281.881 159.701 281.976 159.314 281.975ZM157.19 278.844C157.016 279.411 157.073 280.023 157.348 280.547C157.917 281.628 159.248 282.051 160.314 281.492C160.759 281.259 161.107 280.878 161.3 280.415C161.137 280.572 160.952 280.705 160.752 280.811C159.57 281.431 158.096 280.963 157.466 279.767C157.315 279.48 157.221 279.167 157.19 278.844Z" fill="#1D1E1E"/>
<path d="M169.925 275.906C169.712 276.245 169.414 276.522 169.059 276.708C167.933 277.299 166.534 276.854 165.932 275.714C165.7 275.272 165.613 274.768 165.685 274.275C165.897 273.933 166.197 273.654 166.554 273.467C167.678 272.875 169.077 273.319 169.678 274.461C169.913 274.904 170 275.41 169.925 275.906Z" fill="white"/>
<path d="M168.003 277.087C167.555 277.086 167.115 276.963 166.732 276.731C166.348 276.498 166.036 276.166 165.827 275.769C165.581 275.3 165.491 274.777 165.567 274.258C165.569 274.242 165.575 274.226 165.584 274.212C165.808 273.853 166.123 273.559 166.498 273.362C167.07 273.061 167.727 273.004 168.348 273.201C168.968 273.398 169.477 273.826 169.783 274.406C170.031 274.877 170.121 275.402 170.042 275.924C170.04 275.94 170.034 275.955 170.025 275.969C169.801 276.325 169.486 276.616 169.114 276.813C168.771 276.993 168.39 277.087 168.003 277.087L168.003 277.087ZM165.798 274.316C165.736 274.778 165.818 275.242 166.037 275.659C166.606 276.739 167.937 277.163 169.004 276.604C169.332 276.43 169.61 276.176 169.811 275.864C169.876 275.4 169.794 274.935 169.573 274.516C169.297 273.992 168.836 273.605 168.276 273.427C167.716 273.249 167.124 273.3 166.608 273.572C166.278 273.745 165.999 274.002 165.798 274.316Z" fill="#1D1E1E"/>
<path d="M169.925 275.906C169.82 276.607 169.401 277.245 168.731 277.599C167.605 278.19 166.206 277.745 165.605 276.604C165.204 275.839 165.26 274.954 165.685 274.275C165.613 274.769 165.7 275.273 165.933 275.714C166.534 276.855 167.933 277.3 169.059 276.708C169.414 276.522 169.713 276.245 169.925 275.906Z" fill="#1D1E1E"/>
<path d="M167.675 277.977C167.227 277.976 166.787 277.853 166.404 277.621C166.021 277.389 165.708 277.056 165.5 276.659C165.093 275.883 165.125 274.945 165.584 274.213C165.599 274.19 165.621 274.172 165.646 274.163C165.672 274.155 165.7 274.155 165.725 274.164C165.751 274.174 165.772 274.192 165.786 274.215C165.8 274.238 165.806 274.266 165.802 274.293C165.733 274.762 165.814 275.234 166.037 275.659C166.606 276.739 167.937 277.163 169.003 276.603C169.339 276.426 169.622 276.164 169.825 275.843C169.839 275.82 169.861 275.802 169.887 275.794C169.913 275.785 169.941 275.785 169.966 275.795C169.992 275.804 170.013 275.822 170.027 275.846C170.041 275.869 170.046 275.897 170.042 275.924C169.926 276.695 169.468 277.343 168.786 277.703C168.443 277.883 168.062 277.978 167.675 277.977L167.675 277.977ZM165.552 274.847C165.378 275.413 165.434 276.025 165.709 276.549C166.279 277.63 167.61 278.053 168.676 277.494C169.12 277.261 169.469 276.88 169.661 276.417C169.498 276.574 169.314 276.707 169.114 276.813C167.932 277.433 166.458 276.965 165.827 275.769C165.676 275.482 165.583 275.169 165.552 274.846V274.847Z" fill="#1D1E1E"/>
<path d="M178.997 271.849C178.784 272.188 178.485 272.465 178.131 272.651C177.004 273.242 175.605 272.797 175.004 271.657C174.771 271.215 174.684 270.711 174.756 270.217C174.968 269.876 175.268 269.597 175.625 269.41C176.749 268.817 178.148 269.262 178.749 270.404C178.984 270.846 179.071 271.353 178.997 271.849Z" fill="white"/>
<path d="M311.546 84.19C303.169 105.55 282.476 120.261 263.759 129.659C274.527 121.335 285.589 111.044 293.472 99.4095C309.308 76.0348 289.109 46.5183 289.109 46.5183C278.376 98.3605 252.452 125.116 237.989 136.443C237.017 137.241 236.168 138.948 235.534 141.057C235.162 142.296 234.863 143.671 234.657 145.082C234.466 146.371 234.354 147.69 234.332 148.958C234.314 149.97 234.355 150.95 234.459 151.859C234.752 154.405 235.552 156.389 237.015 156.931C237.016 156.932 237.018 156.933 237.021 156.933C237.141 156.968 237.263 157.003 237.386 157.036C237.388 157.036 237.39 157.037 237.393 157.037C237.886 157.173 238.381 157.299 238.879 157.414C307.238 172.005 307.793 137.979 308.556 133.027C294.869 142.956 279.641 146.717 266.132 147.605C326.85 132.959 315.153 87.8712 311.546 84.1899V84.19Z" fill="white"/>
<path d="M268.852 161.139C260.159 161.14 250.11 159.932 238.855 157.529C238.357 157.414 237.86 157.289 237.367 157.153C237.363 157.152 237.359 157.151 237.355 157.15C237.233 157.117 237.11 157.082 236.988 157.047C236.983 157.045 236.978 157.043 236.972 157.041C235.581 156.524 234.671 154.737 234.341 151.872C234.239 150.973 234.196 149.992 234.214 148.956C234.236 147.689 234.345 146.379 234.54 145.064C234.746 143.652 235.051 142.255 235.421 141.023C235.899 139.433 236.72 137.332 237.914 136.352C252.391 125.014 278.275 98.2655 288.993 46.4942C288.998 46.4715 289.009 46.4506 289.026 46.4343C289.042 46.4179 289.063 46.4068 289.086 46.4022C289.108 46.3977 289.132 46.3999 289.154 46.4086C289.175 46.4173 289.194 46.4322 289.207 46.4513C289.257 46.5253 294.302 53.9638 297.343 64.1645C299.129 70.1584 299.885 75.9204 299.59 81.2905C299.22 88.0076 297.195 94.1261 293.571 99.4758C286.865 109.373 277.189 119.301 264.802 128.998C281.641 120.382 302.967 105.741 311.436 84.1466C311.443 84.1282 311.455 84.1119 311.47 84.0992C311.485 84.0864 311.503 84.0777 311.523 84.0738C311.542 84.0698 311.562 84.0708 311.581 84.0766C311.6 84.0824 311.617 84.0928 311.631 84.107C312.577 85.0731 313.934 88.6087 314.585 93.2582C315.157 97.3489 315.404 103.739 313.335 110.949C311.056 118.888 306.535 125.875 299.899 131.716C291.989 138.677 281.098 143.945 267.511 147.386C283.205 146.135 296.984 141.275 308.487 132.931C308.505 132.917 308.528 132.909 308.551 132.908C308.575 132.908 308.598 132.914 308.618 132.926C308.638 132.938 308.653 132.956 308.663 132.977C308.673 132.998 308.676 133.022 308.673 133.045C308.637 133.278 308.601 133.582 308.559 133.934C308.13 137.539 306.991 147.114 297.546 153.871C292.348 157.59 285.374 159.909 276.82 160.763C274.309 161.014 271.65 161.139 268.851 161.139L268.852 161.139ZM237.412 156.92C237.416 156.921 237.42 156.922 237.425 156.923C237.894 157.053 238.392 157.179 238.907 157.298C253.759 160.469 266.508 161.555 276.797 160.528C285.309 159.678 292.244 157.373 297.409 153.678C306.769 146.982 307.899 137.482 308.324 133.906C308.352 133.677 308.376 133.469 308.4 133.286C296.569 141.8 282.352 146.657 266.141 147.723C266.111 147.725 266.082 147.715 266.06 147.697C266.037 147.678 266.022 147.652 266.017 147.623C266.013 147.594 266.019 147.564 266.035 147.539C266.052 147.515 266.077 147.497 266.105 147.49C298.512 139.673 309.552 123.269 313.107 110.884C316.825 97.9306 313.312 86.5387 311.586 84.4128C307.743 94.1144 301.023 103.226 291.609 111.499C284.018 118.169 274.666 124.315 263.812 129.765C263.786 129.778 263.756 129.781 263.727 129.773C263.699 129.765 263.674 129.747 263.659 129.722C263.643 129.697 263.637 129.668 263.642 129.639C263.647 129.609 263.663 129.583 263.687 129.565C276.521 119.645 286.509 109.476 293.375 99.3432C301.528 87.3088 299.91 73.6106 297.118 64.2385C294.39 55.0825 290.042 48.1603 289.167 46.8203C278.399 98.4853 252.537 125.2 238.062 136.537C237.168 137.27 236.31 138.888 235.648 141.091C235.281 142.312 234.979 143.698 234.774 145.099C234.581 146.404 234.472 147.703 234.451 148.96C234.433 149.986 234.475 150.956 234.577 151.845C234.799 153.778 235.41 156.21 237.056 156.82L237.06 156.821C237.176 156.854 237.293 156.888 237.412 156.92Z" fill="#1D1E1E"/>
</g>
<g clip-path="url(#clip1_596_64187)">
<path d="M291.554 257.336C283.052 272.296 262.636 280.409 245.954 275.459C241.393 274.105 237.582 271.917 234.628 269.145C231.674 266.372 229.577 263.015 228.435 259.329L226.559 254.153C229.158 260.87 235.057 266.318 243.579 268.845C260.261 273.796 280.677 265.682 289.179 250.723C293.09 243.839 293.8 236.707 291.798 230.531L293.53 235.406H293.527C296.279 241.959 295.839 249.797 291.554 257.336V257.336Z" fill="#1D1E1E"/>
<path d="M256.253 277.02C252.701 277.02 249.22 276.535 245.925 275.557C241.448 274.228 237.623 272.096 234.558 269.219C231.637 266.478 229.486 263.068 228.338 259.359L226.463 254.188C226.453 254.162 226.454 254.134 226.465 254.109C226.476 254.085 226.497 254.066 226.522 254.056C226.548 254.047 226.576 254.048 226.6 254.059C226.625 254.07 226.644 254.091 226.654 254.116C229.361 261.112 235.382 266.308 243.608 268.748C260.221 273.677 280.624 265.569 289.09 250.672C292.839 244.076 293.766 236.934 291.701 230.563C291.693 230.538 291.696 230.51 291.708 230.487C291.72 230.463 291.741 230.445 291.766 230.436C291.791 230.428 291.819 230.429 291.843 230.441C291.867 230.452 291.885 230.473 291.895 230.498L293.626 235.372C293.628 235.377 293.629 235.382 293.63 235.387C295.027 238.722 295.583 242.296 295.282 246.01C294.969 249.86 293.745 253.688 291.643 257.387C287.519 264.642 280.493 270.528 271.859 273.959C266.742 275.993 261.422 277.02 256.253 277.02L256.253 277.02ZM227.534 256.543L228.531 259.294C229.687 263.026 231.762 266.314 234.698 269.07C237.74 271.925 241.536 274.042 245.983 275.361C262.596 280.291 282.999 272.182 291.465 257.286C295.597 250.017 296.296 242.261 293.433 235.446C293.43 235.437 293.427 235.429 293.426 235.42L292.521 232.87C293.71 238.664 292.587 244.932 289.268 250.773C285.145 258.029 278.118 263.914 269.484 267.345C264.367 269.379 259.047 270.407 253.878 270.407C250.326 270.407 246.845 269.922 243.55 268.944C239.37 267.704 235.747 265.754 232.781 263.147C230.59 261.222 228.833 259.008 227.534 256.543L227.534 256.543Z" fill="white"/>
<path d="M272.52 217.925C287.2 222.28 293.037 236.482 285.555 249.646C278.072 262.812 260.105 269.952 245.425 265.596C230.745 261.24 224.908 247.038 232.391 233.873C239.873 220.709 257.84 213.569 272.52 217.925Z" fill="white"/>
<path d="M254.488 266.982C251.361 266.982 248.296 266.555 245.396 265.694C238.207 263.561 232.899 259.033 230.449 252.945C228.039 246.956 228.697 240.165 232.302 233.822C235.932 227.435 242.117 222.254 249.718 219.234C257.319 216.213 265.427 215.714 272.549 217.827C279.738 219.96 285.046 224.487 287.496 230.576C289.906 236.564 289.248 243.355 285.644 249.697C282.013 256.084 275.828 261.266 268.227 264.287C263.722 266.077 259.038 266.982 254.488 266.982L254.488 266.982ZM263.503 216.753C251.164 216.753 238.449 223.419 232.48 233.923C228.906 240.211 228.252 246.939 230.638 252.869C233.064 258.898 238.326 263.383 245.454 265.498C260.068 269.834 278.018 262.701 285.466 249.596C289.039 243.309 289.693 236.582 287.307 230.652C284.881 224.623 279.619 220.138 272.491 218.023C269.591 217.162 266.557 216.753 263.503 216.753L263.503 216.753Z" fill="#1D1E1E"/>
<path d="M274.368 214.674C291.051 219.624 297.682 235.764 289.18 250.722C280.678 265.682 260.261 273.796 243.578 268.846C226.895 263.897 220.264 247.757 228.767 232.797C237.269 217.839 257.685 209.725 274.368 214.674ZM245.425 265.596C260.106 269.952 278.073 262.812 285.556 249.647C293.037 236.483 287.201 222.28 272.52 217.925C257.84 213.569 239.873 220.709 232.392 233.873C224.909 247.038 230.745 261.24 245.425 265.596Z" fill="white"/>
<path d="M253.876 270.407C250.324 270.407 246.843 269.922 243.548 268.944C239.425 267.721 235.842 265.806 232.898 263.251C230.053 260.782 227.924 257.826 226.572 254.466C223.835 247.664 224.583 239.951 228.677 232.747C232.8 225.492 239.826 219.607 248.461 216.175C257.095 212.744 266.306 212.176 274.396 214.576C278.519 215.8 282.102 217.715 285.046 220.27C287.892 222.739 290.02 225.695 291.373 229.056C294.109 235.857 293.362 243.569 289.268 250.772C285.144 258.028 278.118 263.914 269.484 267.345C264.366 269.379 259.045 270.407 253.876 270.407ZM264.121 213.329C250.095 213.329 235.641 220.907 228.855 232.848C224.792 239.996 224.048 247.647 226.762 254.389C229.52 261.245 235.502 266.344 243.606 268.748C260.22 273.678 280.624 265.568 289.091 250.672C293.153 243.524 293.896 235.874 291.183 229.132C288.425 222.277 282.442 217.177 274.338 214.772C271.042 213.794 267.593 213.329 264.121 213.329L264.121 213.329ZM254.488 266.982C251.361 266.982 248.296 266.555 245.396 265.694C238.207 263.561 232.899 259.034 230.449 252.945C228.039 246.956 228.697 240.165 232.302 233.822C235.932 227.435 242.117 222.254 249.718 219.234C257.319 216.213 265.427 215.714 272.549 217.827C279.738 219.96 285.046 224.487 287.496 230.576C289.906 236.564 289.248 243.355 285.643 249.697C282.013 256.084 275.828 261.266 268.226 264.287C263.722 266.077 259.038 266.982 254.488 266.982ZM245.454 265.498C260.068 269.834 278.018 262.701 285.466 249.596C289.039 243.309 289.693 236.582 287.307 230.652C284.88 224.623 279.619 220.138 272.491 218.023C257.876 213.687 239.927 220.819 232.479 233.923C228.906 240.211 228.252 246.939 230.638 252.869C233.064 258.898 238.326 263.383 245.454 265.498L245.454 265.498Z" fill="#1D1E1E"/>
<path d="M272.52 217.926C257.839 213.569 239.874 220.707 232.39 233.873C227.783 241.981 228.226 250.481 232.674 256.835C229.183 250.692 229.148 242.905 233.386 235.451C240.87 222.285 258.835 215.146 273.515 219.504C279.155 221.176 283.489 224.302 286.266 228.264C283.593 223.556 278.887 219.814 272.519 217.926H272.52Z" fill="#1D1E1E"/>
<path d="M232.673 256.937C232.657 256.937 232.641 256.933 232.626 256.925C232.612 256.918 232.599 256.907 232.59 256.893C230.354 253.7 229.124 249.938 229.034 246.014C228.94 241.964 230.07 237.749 232.301 233.823C235.932 227.435 242.117 222.254 249.718 219.234C257.318 216.213 265.426 215.714 272.548 217.828C275.675 218.755 278.465 220.144 280.84 221.956C283.136 223.709 284.992 225.814 286.354 228.214C286.368 228.237 286.371 228.264 286.365 228.289C286.359 228.315 286.343 228.337 286.321 228.351C286.298 228.365 286.271 228.37 286.246 228.365C286.22 228.36 286.197 228.345 286.182 228.323C283.312 224.229 278.922 221.213 273.486 219.602C258.872 215.264 240.923 222.397 233.474 235.502C229.404 242.661 229.144 250.418 232.762 256.784C232.771 256.8 232.776 256.817 232.775 256.835C232.775 256.853 232.771 256.871 232.762 256.886C232.753 256.902 232.74 256.914 232.724 256.923C232.709 256.932 232.691 256.937 232.673 256.937ZM263.501 216.754C251.163 216.754 238.449 223.42 232.479 233.924C228.471 240.976 228.191 248.674 231.614 254.936C229.019 248.91 229.596 241.909 233.297 235.401C236.928 229.013 243.113 223.832 250.714 220.811C258.314 217.791 266.422 217.292 273.544 219.406C278.221 220.792 282.132 223.212 284.978 226.46C282.125 222.547 277.767 219.588 272.49 218.024C269.59 217.163 266.556 216.754 263.501 216.754L263.501 216.754ZM283.414 242.721H283.417L282.899 241.578L281.571 241.557L281.594 242.074L274.903 240.089L275.018 239.993L273.611 239.591L273.277 239.909L273.778 241.022L273.779 241.021C273.801 241.071 273.845 241.112 273.91 241.131L281.426 243.361L269.418 253.127L269.338 252.984L267.84 253.044L268.348 254.166L268.35 254.166C268.368 254.222 268.413 254.268 268.485 254.29L269.587 254.617C269.682 254.645 269.797 254.62 269.88 254.554L282.874 243.937C282.913 243.905 282.948 243.866 282.971 243.825L283.402 243.066C283.471 242.946 283.469 242.821 283.414 242.721Z" fill="#1D1E1E"/>
<path d="M269.668 254.731C269.63 254.731 269.593 254.725 269.558 254.715L268.456 254.388C268.365 254.361 268.295 254.3 268.261 254.22C268.259 254.216 268.257 254.212 268.255 254.209L267.747 253.087C267.74 253.071 267.737 253.055 267.738 253.038C267.739 253.021 267.745 253.005 267.753 252.991C267.762 252.977 267.774 252.965 267.789 252.956C267.803 252.948 267.82 252.943 267.836 252.942L269.334 252.882C269.372 252.881 269.409 252.901 269.427 252.935L269.448 252.972L281.211 243.404L273.881 241.229C273.795 241.204 273.729 241.15 273.692 241.076C273.689 241.072 273.687 241.068 273.685 241.064L273.184 239.951C273.176 239.932 273.173 239.911 273.177 239.89C273.181 239.869 273.192 239.85 273.207 239.835L273.541 239.517C273.567 239.493 273.604 239.483 273.639 239.493L275.046 239.895C275.061 239.899 275.075 239.906 275.086 239.917C275.098 239.927 275.107 239.94 275.113 239.954C275.119 239.968 275.121 239.984 275.12 239.999C275.119 240.014 275.115 240.029 275.107 240.043L281.485 241.935L281.469 241.562C281.468 241.534 281.478 241.507 281.498 241.486C281.517 241.466 281.543 241.455 281.572 241.455L282.901 241.476C282.94 241.477 282.976 241.5 282.992 241.536L283.51 242.68C283.512 242.685 283.514 242.69 283.515 242.695C283.578 242.827 283.569 242.979 283.491 243.117L283.06 243.876C283.031 243.926 282.989 243.975 282.938 244.016L269.944 254.633C269.866 254.696 269.768 254.73 269.668 254.731V254.731ZM268.434 254.108C268.44 254.116 268.444 254.125 268.447 254.134C268.456 254.162 268.479 254.182 268.514 254.192L269.616 254.519C269.679 254.538 269.759 254.52 269.815 254.474L282.809 243.858C282.838 243.835 282.863 243.806 282.882 243.775L283.314 243.016C283.361 242.932 283.365 242.845 283.324 242.771C283.32 242.762 283.316 242.753 283.314 242.743L282.833 241.679L281.678 241.661L281.696 242.069C281.696 242.086 281.693 242.102 281.686 242.117C281.68 242.131 281.669 242.144 281.657 242.154C281.644 242.164 281.629 242.171 281.613 242.174C281.597 242.177 281.58 242.176 281.565 242.172L274.874 240.187C274.859 240.182 274.846 240.175 274.835 240.165C274.823 240.155 274.814 240.142 274.809 240.128C274.803 240.114 274.8 240.099 274.801 240.084C274.802 240.069 274.806 240.054 274.813 240.041L273.64 239.706L273.4 239.934L273.866 240.968C273.869 240.972 273.871 240.976 273.873 240.981C273.883 241.005 273.907 241.024 273.939 241.033L281.455 243.263C281.473 243.268 281.489 243.279 281.502 243.292C281.514 243.306 281.523 243.323 281.526 243.341C281.53 243.359 281.528 243.378 281.522 243.396C281.516 243.413 281.505 243.429 281.49 243.44L269.482 253.207C269.471 253.216 269.457 253.223 269.443 253.227C269.428 253.231 269.413 253.231 269.398 253.228C269.384 253.225 269.37 253.219 269.358 253.211C269.346 253.202 269.336 253.19 269.328 253.177L269.279 253.089L267.996 253.14L268.434 254.108H268.434ZM273.344 238.578L273.345 238.577L273.341 238.568C273.34 238.567 273.34 238.566 273.339 238.565L272.832 237.442L271.593 238.118L271.497 237.897L257.911 250.306L257.871 250.246L256.308 250.939L256.825 252.084L256.825 252.083C256.845 252.13 256.887 252.167 256.948 252.186L257.684 252.404C257.805 252.44 257.953 252.404 258.054 252.315L273.273 238.808C273.352 238.739 273.372 238.649 273.343 238.578L273.344 238.578Z" fill="#1D1E1E"/>
<path d="M257.782 252.52C257.739 252.52 257.696 252.514 257.655 252.502L256.919 252.283C256.837 252.259 256.773 252.207 256.737 252.136C256.735 252.133 256.733 252.129 256.731 252.125L256.214 250.98C256.209 250.968 256.206 250.955 256.205 250.941C256.205 250.928 256.207 250.914 256.212 250.902C256.217 250.889 256.224 250.878 256.233 250.868C256.243 250.858 256.254 250.85 256.266 250.845L257.83 250.153C257.844 250.146 257.86 250.143 257.876 250.144C257.892 250.145 257.908 250.149 257.922 250.157L271.428 237.821C271.44 237.81 271.454 237.802 271.47 237.798C271.486 237.794 271.502 237.793 271.518 237.796C271.534 237.8 271.549 237.807 271.561 237.817C271.574 237.828 271.584 237.841 271.59 237.856L271.642 237.974L272.782 237.352C272.795 237.345 272.808 237.341 272.822 237.339C272.836 237.338 272.85 237.34 272.864 237.344C272.877 237.349 272.889 237.356 272.9 237.365C272.91 237.375 272.919 237.386 272.924 237.399L273.432 238.522C273.434 238.528 273.436 238.534 273.438 238.539H273.438C273.484 238.656 273.446 238.791 273.341 238.884L258.122 252.391C258.028 252.473 257.907 252.519 257.782 252.52L257.782 252.52ZM256.914 252.032C256.915 252.035 256.917 252.038 256.918 252.041C256.93 252.069 256.957 252.081 256.977 252.087L257.713 252.306C257.801 252.332 257.911 252.304 257.987 252.237L273.206 238.731C273.246 238.695 273.263 238.651 273.249 238.615C273.247 238.612 273.246 238.608 273.245 238.604L272.784 237.584L271.642 238.207C271.63 238.214 271.616 238.218 271.602 238.219C271.588 238.22 271.573 238.219 271.56 238.214C271.547 238.209 271.534 238.202 271.524 238.192C271.513 238.183 271.505 238.171 271.499 238.158L271.46 238.068L257.98 250.381C257.97 250.39 257.958 250.397 257.945 250.402C257.932 250.406 257.919 250.408 257.905 250.408C257.892 250.407 257.879 250.404 257.867 250.398C257.854 250.392 257.844 250.384 257.835 250.374L256.443 250.99L256.914 252.032L256.914 252.032ZM262.999 236.804C263.036 236.738 263.031 236.671 262.999 236.618L263.003 236.617L262.492 235.484L261.179 235.969L261.181 236.013C261.087 235.981 260.989 235.956 260.948 235.979L249.416 242.279C249.385 242.297 249.236 242.731 249.137 243.018L248.512 242.782L247.935 243.349L248.442 244.472L248.442 244.473L248.443 244.476L248.444 244.475C248.465 244.523 248.507 244.562 248.569 244.581L255.76 246.714L254.574 248.802L254.564 248.77L253.512 248.826L254.003 249.915L254.006 249.914C254.023 249.972 254.067 250.02 254.136 250.04L255.055 250.313C255.18 250.35 255.334 250.289 255.398 250.176L257.134 247.122L259.211 247.738C259.336 247.775 259.492 247.713 259.556 247.601L259.98 246.855C260.009 246.803 260.012 246.749 259.996 246.702L259.997 246.701L259.995 246.695C259.994 246.692 259.992 246.69 259.991 246.688L259.48 245.554L258.026 246.038L257.79 245.968L262.999 236.804V236.804ZM256.416 245.561L250.555 243.822C250.486 243.801 250.484 243.719 250.553 243.679L260.698 237.703C260.711 237.695 260.726 237.689 260.741 237.687C260.756 237.685 260.772 237.686 260.787 237.69C260.831 237.703 260.858 237.746 260.83 237.794L256.416 245.56L256.416 245.561Z" fill="#1D1E1E"/>
<path d="M255.133 250.426C255.097 250.426 255.061 250.421 255.027 250.411L254.108 250.139C254.02 250.112 253.953 250.053 253.92 249.973C253.916 249.968 253.913 249.963 253.911 249.958L253.42 248.869C253.413 248.853 253.41 248.837 253.411 248.82C253.412 248.804 253.417 248.788 253.425 248.773C253.434 248.759 253.446 248.747 253.46 248.739C253.474 248.73 253.491 248.725 253.507 248.725L254.532 248.67L255.609 246.776L248.54 244.679C248.457 244.654 248.393 244.601 248.357 244.529C248.355 244.526 248.353 244.522 248.351 244.518L248.35 244.515L247.842 243.391C247.834 243.372 247.831 243.351 247.835 243.331C247.839 243.31 247.849 243.291 247.864 243.276L248.441 242.709C248.455 242.695 248.472 242.686 248.491 242.682C248.51 242.678 248.53 242.68 248.548 242.686L249.076 242.886C249.304 242.227 249.32 242.218 249.364 242.191L260.9 235.89C260.949 235.862 261.014 235.86 261.119 235.887C261.127 235.882 261.135 235.877 261.145 235.873L262.457 235.389C262.482 235.38 262.508 235.38 262.532 235.39C262.556 235.4 262.575 235.419 262.586 235.442L263.097 236.575C263.101 236.582 263.103 236.59 263.104 236.598C263.141 236.68 263.135 236.772 263.088 236.855L257.943 245.907L258.025 245.931L259.449 245.458C259.473 245.45 259.499 245.451 259.522 245.461C259.545 245.471 259.564 245.49 259.574 245.513L260.085 246.646C260.086 246.648 260.09 246.657 260.09 246.659C260.095 246.668 260.098 246.679 260.099 246.689C260.118 246.762 260.108 246.838 260.069 246.906L259.645 247.652C259.558 247.806 259.354 247.887 259.183 247.836L257.184 247.243L255.488 250.227C255.418 250.35 255.274 250.426 255.133 250.426L255.133 250.426ZM254.088 249.853C254.096 249.863 254.102 249.874 254.105 249.886C254.113 249.914 254.134 249.933 254.166 249.943L255.085 250.215C255.164 250.239 255.27 250.197 255.31 250.125L257.046 247.071C257.057 247.051 257.075 247.036 257.096 247.027C257.118 247.019 257.142 247.017 257.164 247.024L259.241 247.64C259.32 247.664 259.428 247.621 259.468 247.551L259.892 246.805C259.905 246.781 259.908 246.758 259.9 246.736C259.899 246.732 259.898 246.728 259.897 246.725L259.426 245.681L258.059 246.135C258.039 246.142 258.018 246.142 257.998 246.136L257.761 246.066C257.747 246.062 257.733 246.054 257.722 246.044C257.71 246.033 257.701 246.021 257.696 246.006C257.69 245.992 257.688 245.977 257.689 245.961C257.69 245.946 257.694 245.931 257.702 245.918L262.91 236.753C262.927 236.724 262.928 236.697 262.913 236.671C262.906 236.659 262.901 236.646 262.899 236.633L262.439 235.613L261.28 236.041C261.276 236.054 261.27 236.067 261.261 236.077C261.252 236.088 261.242 236.097 261.229 236.103C261.217 236.11 261.204 236.114 261.19 236.115C261.176 236.116 261.162 236.114 261.149 236.11C261.043 236.074 261.003 236.072 260.992 236.072L249.488 242.356C249.443 242.448 249.309 242.837 249.242 243.029L249.235 243.051C249.23 243.064 249.223 243.076 249.214 243.086C249.205 243.097 249.194 243.105 249.181 243.111C249.169 243.116 249.156 243.12 249.142 243.12C249.128 243.121 249.115 243.118 249.102 243.114L248.537 242.9L248.058 243.372L248.533 244.424C248.535 244.427 248.537 244.431 248.538 244.435C248.548 244.457 248.569 244.474 248.598 244.483L255.79 246.616C255.805 246.621 255.818 246.628 255.83 246.639C255.841 246.649 255.85 246.662 255.856 246.676C255.861 246.69 255.864 246.706 255.863 246.721C255.862 246.737 255.857 246.751 255.85 246.765L254.663 248.852C254.653 248.87 254.638 248.884 254.621 248.893C254.603 248.902 254.583 248.906 254.563 248.903C254.541 248.901 254.52 248.891 254.504 248.876L253.667 248.92L254.088 249.853V249.853ZM256.417 245.663C256.407 245.663 256.397 245.661 256.388 245.659L250.527 243.92C250.458 243.899 250.41 243.844 250.402 243.777C250.393 243.703 250.432 243.631 250.503 243.59L260.647 237.615C260.672 237.6 260.7 237.59 260.729 237.586C260.759 237.582 260.788 237.584 260.817 237.592C260.843 237.599 260.866 237.612 260.886 237.63C260.906 237.647 260.922 237.669 260.932 237.694C260.952 237.742 260.947 237.796 260.92 237.844L256.505 245.611C256.497 245.627 256.484 245.64 256.468 245.649C256.452 245.658 256.435 245.663 256.417 245.663H256.417ZM250.648 243.742L256.368 245.44L260.696 237.825L250.648 243.742H250.648ZM249.727 233.527C249.703 233.476 249.673 233.428 249.647 233.378L249.653 233.378L249.19 232.34L248.834 232.443C248.406 232.118 247.86 231.856 247.192 231.658C246.572 231.474 245.892 231.36 245.151 231.314C244.654 231.282 244.125 231.282 243.564 231.31L243.371 231.194L241.985 231.255L241.89 231.455L242.384 232.557L242.388 232.555C242.415 232.617 242.469 232.667 242.543 232.689C242.6 232.705 242.659 232.707 242.717 232.695C243.253 232.594 243.784 232.542 244.313 232.543C244.993 232.546 245.639 232.637 246.244 232.816C247.116 233.075 247.695 233.505 247.982 234.103C248.27 234.703 248.215 235.352 247.819 236.049C247.325 236.917 246.328 237.558 244.621 238.552C242.928 239.538 239.811 240.611 235.529 242.427C235.492 242.443 235.469 242.723 235.45 242.934L235.077 242.679L234.357 243.117L234.872 244.257L234.872 244.256C234.892 244.304 234.934 244.343 234.995 244.361L243.644 246.927C243.763 246.963 243.911 246.904 243.972 246.797L244.439 245.976C244.473 245.916 244.471 245.854 244.444 245.804L244.447 245.803L243.937 244.674L242.595 245.128L242.614 245.205L237.174 243.591C241.46 241.818 244.424 240.436 246.066 239.445C247.707 238.456 248.81 237.462 249.375 236.467C250 235.367 250.119 234.388 249.727 233.527V233.527Z" fill="#1D1E1E"/>
<path d="M243.717 247.04C243.682 247.04 243.648 247.035 243.614 247.025L234.966 244.459C234.881 244.434 234.815 244.378 234.782 244.305L234.778 244.299L234.264 243.159C234.254 243.136 234.252 243.111 234.259 243.087C234.267 243.063 234.283 243.043 234.304 243.03L235.024 242.591C235.041 242.581 235.06 242.576 235.08 242.577C235.099 242.577 235.118 242.583 235.135 242.594L235.364 242.751C235.394 242.441 235.415 242.364 235.49 242.333C237.047 241.672 238.45 241.11 239.688 240.614C241.817 239.761 243.498 239.087 244.569 238.464C246.158 237.538 247.236 236.867 247.729 235.998C248.112 235.325 248.164 234.72 247.889 234.147C247.616 233.578 247.052 233.163 246.214 232.914C245.622 232.739 244.982 232.648 244.312 232.646C243.783 232.647 243.255 232.697 242.735 232.795C242.662 232.81 242.586 232.808 242.514 232.787C242.423 232.76 242.35 232.702 242.307 232.623C242.3 232.616 242.295 232.608 242.291 232.599L241.796 231.497C241.79 231.483 241.787 231.468 241.787 231.454C241.787 231.439 241.791 231.424 241.797 231.411L241.892 231.211C241.9 231.194 241.912 231.18 241.928 231.17C241.943 231.159 241.961 231.154 241.98 231.153L243.366 231.092C243.386 231.091 243.406 231.096 243.424 231.106L243.59 231.207C244.149 231.18 244.676 231.182 245.157 231.213C245.902 231.258 246.597 231.375 247.221 231.56C247.873 231.754 248.422 232.013 248.854 232.331L249.161 232.242C249.184 232.235 249.21 232.237 249.232 232.247C249.254 232.258 249.272 232.276 249.282 232.298L249.746 233.337C249.75 233.345 249.752 233.353 249.754 233.362L249.764 233.38C249.783 233.414 249.803 233.449 249.819 233.485C250.223 234.372 250.103 235.392 249.464 236.518C248.891 237.525 247.765 238.54 246.119 239.533C244.507 240.504 241.601 241.864 237.479 243.575L242.512 245.068C242.524 245.051 242.542 245.038 242.562 245.031L243.903 244.577C243.927 244.569 243.954 244.57 243.977 244.58C244 244.59 244.019 244.609 244.029 244.632L244.539 245.761C244.543 245.769 244.545 245.777 244.547 245.785C244.578 245.862 244.571 245.949 244.527 246.027L244.061 246.847C243.993 246.966 243.855 247.04 243.717 247.04V247.04ZM234.961 244.207C234.963 244.21 234.965 244.214 234.967 244.218C234.975 244.239 234.995 244.255 235.024 244.263L243.672 246.829C243.747 246.851 243.845 246.813 243.883 246.746L244.349 245.926C244.364 245.9 244.365 245.875 244.353 245.852C244.348 245.843 244.345 245.833 244.343 245.822L243.881 244.8L242.715 245.195C242.717 245.211 242.715 245.228 242.708 245.244C242.702 245.259 242.692 245.273 242.679 245.284C242.666 245.294 242.651 245.302 242.634 245.305C242.618 245.309 242.601 245.308 242.585 245.303L237.144 243.689C237.124 243.683 237.106 243.671 237.093 243.654C237.08 243.637 237.072 243.617 237.071 243.596C237.07 243.575 237.076 243.554 237.087 243.536C237.098 243.518 237.115 243.504 237.134 243.496C241.388 241.737 244.376 240.344 246.013 239.358C247.629 238.383 248.731 237.393 249.286 236.416C249.891 235.351 250.008 234.393 249.633 233.569C249.619 233.539 249.603 233.51 249.586 233.481C249.576 233.463 249.566 233.445 249.556 233.427C249.55 233.414 249.545 233.4 249.544 233.386L249.132 232.463L248.862 232.541C248.831 232.55 248.797 232.544 248.772 232.524C248.353 232.207 247.812 231.948 247.163 231.756C246.553 231.575 245.874 231.461 245.145 231.416C244.662 231.385 244.132 231.384 243.569 231.412C243.549 231.413 243.529 231.408 243.511 231.398L243.345 231.297L242.05 231.354L242.002 231.456L242.466 232.491C242.472 232.498 242.477 232.505 242.481 232.514C242.497 232.551 242.529 232.578 242.572 232.591C242.609 232.602 242.652 232.603 242.697 232.594C243.242 232.491 243.783 232.439 244.313 232.441C245.002 232.444 245.662 232.537 246.273 232.718C247.169 232.984 247.775 233.435 248.074 234.059C248.376 234.687 248.319 235.374 247.907 236.099C247.387 237.014 246.338 237.67 244.672 238.64C243.588 239.271 241.901 239.947 239.765 240.803C238.536 241.295 237.146 241.853 235.603 242.507C235.584 242.582 235.566 242.786 235.556 242.901L235.552 242.943C235.55 242.96 235.544 242.977 235.534 242.992C235.524 243.007 235.51 243.018 235.494 243.026C235.478 243.034 235.46 243.037 235.442 243.035C235.424 243.034 235.407 243.028 235.392 243.018L235.074 242.8L234.488 243.157L234.961 244.206L234.961 244.207Z" fill="#1D1E1E"/>
<path d="M259.355 245.449C259.48 245.486 259.531 245.607 259.467 245.72L259.043 246.465C258.98 246.578 258.824 246.64 258.699 246.602L256.622 245.986L254.886 249.04C254.822 249.154 254.668 249.215 254.543 249.177L253.624 248.905C253.499 248.868 253.448 248.746 253.512 248.632L255.248 245.579L248.057 243.445C247.931 243.408 247.881 243.285 247.945 243.172L248.537 242.131C248.56 242.09 248.597 242.054 248.642 242.027L260.623 234.98C260.699 234.937 260.789 234.925 260.865 234.948L262.376 235.396C262.501 235.433 262.551 235.554 262.486 235.668L257.278 244.832L259.355 245.449H259.355ZM255.904 244.425L260.318 236.658C260.346 236.61 260.319 236.567 260.275 236.554C260.26 236.55 260.244 236.549 260.229 236.551C260.213 236.554 260.199 236.559 260.186 236.567L250.041 242.543C249.972 242.583 249.974 242.665 250.043 242.686L255.904 244.425" fill="#F45100"/>
<path d="M254.619 249.291C254.584 249.291 254.548 249.286 254.514 249.276L253.595 249.003C253.504 248.976 253.434 248.915 253.401 248.834C253.369 248.754 253.377 248.663 253.423 248.582L255.095 245.64L248.027 243.543C247.937 243.516 247.867 243.455 247.834 243.374C247.802 243.294 247.81 243.202 247.855 243.122L248.447 242.08C248.479 242.024 248.528 241.976 248.589 241.939L260.571 234.892C260.672 234.834 260.789 234.819 260.893 234.85L262.405 235.298C262.495 235.325 262.565 235.386 262.597 235.466C262.629 235.545 262.621 235.637 262.574 235.718L257.429 244.771L259.383 245.351C259.474 245.378 259.544 245.439 259.577 245.52C259.609 245.599 259.601 245.69 259.556 245.77L259.132 246.516C259.044 246.67 258.84 246.752 258.669 246.701L256.67 246.107L254.974 249.091C254.904 249.214 254.761 249.291 254.619 249.291H254.619ZM260.785 235.039C260.748 235.039 260.709 235.049 260.674 235.069L248.693 242.115C248.664 242.133 248.639 242.157 248.625 242.181L248.033 243.223C248.018 243.249 248.015 243.276 248.024 243.298C248.033 243.32 248.055 243.338 248.085 243.347L255.277 245.481C255.291 245.485 255.305 245.493 255.316 245.503C255.328 245.514 255.336 245.526 255.342 245.541C255.348 245.555 255.35 245.57 255.349 245.586C255.348 245.601 255.344 245.616 255.336 245.629L253.601 248.683C253.585 248.71 253.582 248.736 253.591 248.758C253.6 248.78 253.622 248.798 253.653 248.807L254.572 249.08C254.651 249.103 254.756 249.061 254.797 248.99L256.533 245.936C256.544 245.916 256.562 245.9 256.583 245.892C256.605 245.883 256.628 245.882 256.65 245.888L258.727 246.505C258.806 246.528 258.914 246.485 258.954 246.415L259.378 245.669C259.393 245.643 259.396 245.618 259.387 245.596C259.378 245.574 259.356 245.556 259.325 245.547L257.248 244.93C257.233 244.926 257.22 244.918 257.208 244.908C257.197 244.898 257.188 244.885 257.182 244.871C257.177 244.856 257.174 244.841 257.175 244.826C257.176 244.81 257.181 244.795 257.188 244.782L262.397 235.618C262.412 235.591 262.416 235.564 262.407 235.542C262.399 235.52 262.377 235.503 262.347 235.494L260.835 235.046C260.819 235.041 260.802 235.038 260.785 235.039H260.785ZM255.903 244.527C255.894 244.527 255.884 244.526 255.874 244.523L250.013 242.784C249.944 242.764 249.897 242.709 249.889 242.641C249.88 242.567 249.919 242.496 249.99 242.455L260.133 236.479C260.158 236.464 260.187 236.454 260.216 236.45C260.245 236.446 260.275 236.448 260.303 236.456C260.357 236.472 260.399 236.509 260.419 236.558C260.439 236.607 260.434 236.66 260.407 236.709L255.992 244.475C255.983 244.491 255.97 244.504 255.955 244.513C255.939 244.522 255.921 244.527 255.903 244.527L255.903 244.527ZM250.134 242.607L255.855 244.304L260.183 236.689L250.134 242.607ZM272.706 237.333C272.863 237.38 272.893 237.556 272.761 237.672L257.542 251.179C257.44 251.268 257.293 251.304 257.171 251.268L256.435 251.05C256.278 251.003 256.249 250.827 256.38 250.71L271.611 237.206C271.712 237.118 271.859 237.082 271.981 237.118L272.706 237.333Z" fill="#F45100"/>
<path d="M257.27 251.384C257.227 251.384 257.184 251.378 257.142 251.366L256.406 251.148C256.3 251.116 256.223 251.038 256.201 250.938C256.178 250.83 256.219 250.716 256.313 250.634L271.543 237.129C271.672 237.017 271.855 236.974 272.01 237.02L272.735 237.235C272.841 237.266 272.918 237.345 272.94 237.445C272.964 237.552 272.922 237.666 272.828 237.749L257.61 251.255C257.515 251.337 257.395 251.383 257.27 251.384V251.384ZM271.883 237.206C271.811 237.206 271.734 237.234 271.678 237.283L256.448 250.787C256.411 250.82 256.393 250.86 256.401 250.893C256.407 250.921 256.429 250.941 256.464 250.952L257.2 251.17C257.288 251.196 257.398 251.169 257.474 251.102L272.693 237.596C272.73 237.563 272.748 237.523 272.74 237.489C272.734 237.462 272.712 237.441 272.677 237.431L271.952 237.216C271.929 237.209 271.906 237.206 271.883 237.206L271.883 237.206ZM246.679 230.522C247.977 230.907 248.821 231.53 249.213 232.391C249.605 233.252 249.487 234.231 248.862 235.331C248.296 236.326 247.193 237.32 245.553 238.309C243.91 239.3 240.947 240.682 236.66 242.455L243.819 244.579C243.939 244.615 243.987 244.731 243.925 244.84L243.459 245.661C243.398 245.768 243.25 245.827 243.13 245.792L234.481 243.225C234.36 243.189 234.312 243.073 234.373 242.965L234.907 242.026C234.936 241.976 234.985 241.933 235.043 241.909C239.325 240.093 242.312 238.69 244.005 237.704C245.712 236.71 246.812 235.781 247.305 234.913C247.702 234.216 247.757 233.567 247.469 232.967C247.182 232.369 246.602 231.939 245.73 231.68C245.125 231.501 244.48 231.41 243.799 231.408C243.27 231.406 242.739 231.458 242.203 231.559C242.146 231.571 242.086 231.569 242.03 231.553C241.899 231.514 241.821 231.395 241.865 231.259L242.149 230.399C242.179 230.304 242.284 230.229 242.397 230.219C243.206 230.149 243.951 230.135 244.638 230.179C245.379 230.224 246.059 230.338 246.679 230.522V230.522Z" fill="#F45100"/>
<path d="M243.204 245.904C243.17 245.904 243.135 245.899 243.102 245.89L234.453 243.323C234.364 243.297 234.295 243.237 234.264 243.159C234.233 243.082 234.241 242.993 234.285 242.915L234.819 241.976C234.859 241.905 234.925 241.848 235.004 241.815C239.256 240.011 242.267 238.599 243.954 237.616C245.638 236.635 246.736 235.709 247.217 234.863C247.599 234.19 247.652 233.584 247.377 233.011C247.104 232.442 246.54 232.027 245.702 231.778C245.109 231.603 244.469 231.512 243.799 231.51C243.284 231.508 242.754 231.559 242.223 231.659C242.149 231.674 242.073 231.672 242.001 231.651C241.906 231.623 241.83 231.563 241.787 231.482C241.747 231.405 241.74 231.315 241.768 231.228L242.052 230.367C242.095 230.234 242.234 230.13 242.389 230.117C243.205 230.046 243.964 230.033 244.645 230.077C245.39 230.122 246.084 230.239 246.708 230.424C248.03 230.816 248.904 231.464 249.307 232.349C249.71 233.235 249.591 234.256 248.951 235.382C248.378 236.389 247.253 237.404 245.606 238.397C243.994 239.368 241.088 240.728 236.966 242.439L243.849 244.481C243.936 244.507 244.004 244.567 244.036 244.645C244.067 244.722 244.059 244.812 244.014 244.891L243.548 245.711C243.48 245.83 243.342 245.904 243.205 245.904L243.204 245.904ZM243.783 231.305H243.8C244.489 231.308 245.149 231.401 245.76 231.583C246.656 231.848 247.262 232.299 247.561 232.923C247.863 233.552 247.807 234.238 247.394 234.964C246.895 235.841 245.773 236.793 244.057 237.792C242.362 238.779 239.343 240.196 235.084 242.003C235.045 242.019 235.014 242.046 234.996 242.076L234.462 243.016C234.449 243.04 234.446 243.063 234.453 243.082C234.462 243.103 234.482 243.119 234.511 243.127L243.16 245.693C243.234 245.716 243.332 245.677 243.37 245.61L243.837 244.79C243.851 244.765 243.854 244.741 243.846 244.721C243.838 244.701 243.818 244.685 243.791 244.677L236.632 242.553C236.611 242.547 236.594 242.535 236.58 242.518C236.567 242.502 236.56 242.481 236.559 242.46C236.558 242.439 236.563 242.418 236.574 242.4C236.586 242.383 236.602 242.369 236.622 242.361C240.875 240.601 243.863 239.209 245.5 238.222C247.117 237.247 248.218 236.258 248.773 235.281C249.379 234.215 249.496 233.257 249.121 232.433C248.743 231.605 247.912 230.995 246.65 230.62C246.041 230.439 245.361 230.325 244.632 230.281C243.961 230.238 243.212 230.251 242.406 230.321C242.334 230.327 242.264 230.375 242.246 230.431L241.962 231.291C241.951 231.326 241.953 231.358 241.968 231.387C241.985 231.418 242.017 231.443 242.059 231.455C242.096 231.466 242.139 231.468 242.184 231.459C242.723 231.357 243.261 231.305 243.783 231.305L243.783 231.305ZM282.675 241.411C282.916 241.482 283.013 241.714 282.89 241.93L282.459 242.689C282.433 242.732 282.4 242.77 282.361 242.801L269.367 253.418C269.285 253.485 269.169 253.509 269.075 253.481L267.973 253.154C267.801 253.103 267.776 252.912 267.924 252.79L280.914 242.225L273.398 239.995C273.266 239.956 273.213 239.828 273.281 239.71L273.688 238.993C273.754 238.876 273.916 238.812 274.048 238.851L282.675 241.411Z" fill="#F45100"/>
<path d="M269.155 253.594C269.118 253.594 269.081 253.589 269.046 253.579L267.944 253.252C267.832 253.219 267.752 253.136 267.73 253.031C267.707 252.916 267.755 252.797 267.859 252.711L280.699 242.268L273.369 240.093C273.275 240.065 273.202 240.002 273.169 239.919C273.136 239.837 273.144 239.743 273.191 239.659L273.599 238.943C273.689 238.784 273.899 238.7 274.077 238.753L282.704 241.313C282.852 241.357 282.963 241.452 283.015 241.581C283.066 241.708 283.053 241.85 282.978 241.981L282.547 242.74C282.516 242.794 282.474 242.841 282.425 242.88L269.432 253.497C269.353 253.56 269.256 253.594 269.155 253.594H269.155ZM273.967 238.942C273.892 238.942 273.811 238.982 273.777 239.043L273.369 239.76C273.353 239.789 273.349 239.819 273.358 239.843C273.369 239.868 273.393 239.887 273.427 239.897L280.943 242.127C280.96 242.133 280.977 242.143 280.989 242.156C281.002 242.17 281.01 242.187 281.014 242.205C281.017 242.223 281.016 242.242 281.01 242.26C281.003 242.277 280.992 242.293 280.978 242.305L267.988 252.869C267.945 252.905 267.923 252.951 267.931 252.99C267.937 253.021 267.962 253.044 268.002 253.056L269.104 253.383C269.167 253.402 269.247 253.384 269.303 253.338L282.297 242.722C282.328 242.696 282.354 242.667 282.37 242.639L282.801 241.88C282.844 241.804 282.853 241.726 282.825 241.658C282.797 241.588 282.734 241.535 282.646 241.509L274.019 238.949C274.002 238.944 273.985 238.942 273.967 238.942L273.967 238.942Z" fill="#F45100"/>
</g>
<defs>
<clipPath id="clip0_596_64187">
<rect width="293.973" height="243.307" fill="white" transform="translate(21.0137 46.3999)"/>
</clipPath>
<clipPath id="clip1_596_64187">
<rect width="70.4" height="63.8933" fill="white" transform="translate(224.96 213.12)"/>
</clipPath>
</defs>
</svg>
