<svg height="336" viewBox="0 0 336 336" fill="none" xmlns="http://www.w3.org/2000/svg">
<rect height="336" rx="24" fill="#F5F5F5"/>
<g clip-path="url(#clip0_596_64246)">
<path d="M104.258 274.677L100.486 274.87C100.274 274.896 100.06 274.907 99.8468 274.903L99.8263 274.903L99.8255 274.901C98.623 274.87 97.4291 274.374 96.5468 273.407L20.0593 189.836C19.0001 188.678 18.5035 187.197 18.5646 185.733L22.9301 186.187C23.0273 187.462 23.5499 188.667 24.414 189.608L100.902 273.18C101.802 274.167 103.029 274.665 104.258 274.677Z" fill="#1D1E1E"/>
<path d="M99.9366 275.01C99.9059 275.01 99.8753 275.01 99.8448 275.009L99.8304 275.01C99.8201 275.011 99.8099 275.009 99.8 275.007C98.5153 274.968 97.3329 274.426 96.4683 273.479L19.9809 189.908C18.9342 188.764 18.3935 187.28 18.4583 185.729C18.4589 185.714 18.4625 185.7 18.4688 185.687C18.4751 185.674 18.4841 185.662 18.4951 185.653C18.5061 185.643 18.519 185.636 18.5329 185.632C18.5468 185.627 18.5614 185.626 18.5759 185.627L22.9414 186.081C22.9662 186.084 22.9894 186.095 23.0068 186.113C23.0242 186.131 23.0348 186.154 23.0367 186.179C23.1335 187.44 23.637 188.601 24.4929 189.536L100.98 273.107C101.829 274.038 102.994 274.558 104.26 274.571C104.287 274.571 104.314 274.582 104.334 274.601C104.354 274.621 104.365 274.647 104.366 274.675C104.366 274.703 104.356 274.73 104.337 274.75C104.318 274.771 104.292 274.783 104.264 274.784L100.491 274.977C100.307 274.999 100.122 275.01 99.9364 275.01L99.9366 275.01ZM99.8467 274.796C100.05 274.8 100.253 274.79 100.474 274.764L103.095 274.63C102.228 274.404 101.444 273.933 100.823 273.251L24.3357 189.68C23.4674 188.732 22.9484 187.559 22.8316 186.285L18.668 185.851C18.6358 187.305 19.1557 188.69 20.1383 189.764L96.6259 273.335C97.4562 274.245 98.5935 274.763 99.8284 274.794C99.8346 274.794 99.8407 274.795 99.8467 274.796Z" fill="white"/>
<path d="M147.106 77.2815L147.106 77.2841C145.572 76.9122 143.882 77.3378 142.7 78.5676L93.3375 129.849C92.9792 130.222 92.5256 130.489 92.0259 130.622C91.5263 130.754 90.9999 130.747 90.5041 130.601L80.8418 127.752C79.8394 127.457 78.775 127.442 77.7647 127.709C76.7544 127.977 75.8368 128.516 75.112 129.269L24.5147 181.783C23.3401 182.999 22.8104 184.611 22.9304 186.188L18.5649 185.733C18.6215 184.383 19.1539 183.054 20.16 182.011L71.8342 128.263C72.5591 127.509 73.4766 126.97 74.487 126.702C75.4973 126.435 76.5616 126.45 77.564 126.746L87.2263 129.594C87.7221 129.74 88.2485 129.747 88.7481 129.615C89.2478 129.483 89.7015 129.215 90.0597 128.843L139.423 77.5608C140.593 76.3408 142.265 75.915 143.791 76.2691L143.792 76.2655L143.875 76.292C144.023 76.3298 144.171 76.3764 144.317 76.4265L147.106 77.2815Z" fill="#1D1E1E"/>
<path d="M22.9303 186.294C22.9266 186.294 22.9229 186.294 22.9192 186.294L18.5537 185.84C18.5267 185.837 18.5018 185.824 18.484 185.803C18.4663 185.783 18.457 185.756 18.4581 185.729C18.5173 184.309 19.0955 182.959 20.0829 181.937L71.757 128.189C73.2685 126.619 75.505 126.027 77.5939 126.643L87.2562 129.492C88.231 129.779 89.2757 129.502 89.9827 128.769L139.346 77.4869C140.498 76.285 142.158 75.7898 143.789 76.1594C143.801 76.1587 143.813 76.1602 143.825 76.1639L143.907 76.1904C144.037 76.2233 144.18 76.2668 144.351 76.3256L147.136 77.1795C147.17 77.1897 147.196 77.2158 147.207 77.249L147.208 77.2516C147.213 77.2696 147.214 77.2889 147.21 77.3073C147.206 77.3258 147.197 77.3428 147.184 77.3566C147.171 77.3704 147.155 77.3806 147.137 77.3861C147.119 77.3916 147.099 77.3921 147.081 77.3877C145.53 77.012 143.881 77.4924 142.777 78.6415L93.414 129.923C92.6516 130.715 91.5249 131.013 90.4735 130.703L80.8112 127.855C78.799 127.261 76.6444 127.831 75.1884 129.343L24.5912 181.857C23.4814 183.006 22.9148 184.581 23.0365 186.179C23.0376 186.194 23.0357 186.209 23.0309 186.223C23.026 186.236 23.0184 186.249 23.0084 186.26C22.9984 186.271 22.9863 186.279 22.9728 186.285C22.9594 186.291 22.9449 186.294 22.9303 186.294ZM18.6763 185.638L22.8155 186.068C22.7279 184.453 23.3151 182.871 24.4377 181.709L75.0348 129.195C76.2082 127.977 77.8181 127.347 79.4578 127.415L77.5335 126.848C75.5212 126.254 73.3668 126.824 71.9107 128.336L20.2365 182.084C19.3092 183.045 18.7558 184.305 18.6763 185.638ZM88.204 129.812L90.5339 130.498C91.5086 130.786 92.5534 130.509 93.2604 129.775L142.623 78.4937C143.509 77.5718 144.73 77.0607 145.983 77.049L144.285 76.5286C144.116 76.4707 143.978 76.4287 143.848 76.3955L143.786 76.3756C143.779 76.3755 143.773 76.3747 143.766 76.3732C142.201 76.0099 140.606 76.4816 139.499 77.6349L90.1363 128.917C89.6156 129.457 88.9247 129.768 88.204 129.812V129.812Z" fill="white"/>
<path d="M216.635 160.131L107.623 273.266C105.777 275.182 102.697 275.143 100.901 273.18L24.414 189.608C22.3767 187.382 22.4206 183.956 24.5143 181.783L75.1113 129.269C75.8364 128.516 76.754 127.977 77.7643 127.71C78.7745 127.442 79.8386 127.457 80.841 127.753L90.5044 130.601C91 130.747 91.5261 130.754 92.0256 130.622C92.525 130.49 92.9786 130.223 93.3369 129.85L142.699 78.5668C144.546 76.6482 147.629 76.6881 149.425 78.6538L216.738 152.308C218.773 154.535 218.728 157.959 216.635 160.131Z" fill="white"/>
<path d="M104.305 274.785C104.284 274.785 104.263 274.785 104.242 274.785C102.926 274.768 101.711 274.223 100.823 273.252L24.3356 189.68C22.2653 187.419 22.3102 183.917 24.4378 181.709L75.0348 129.195C76.546 127.626 78.7826 127.035 80.8715 127.65L90.535 130.499C91.0118 130.64 91.5183 130.648 91.999 130.52C92.4798 130.393 92.9162 130.136 93.2604 129.777L142.622 78.4929C143.536 77.5435 144.763 77.0301 146.083 77.047C147.4 77.0641 148.615 77.6091 149.504 78.5819L216.817 152.236C218.884 154.498 218.838 157.999 216.712 160.205L107.7 273.34C106.801 274.273 105.598 274.785 104.305 274.785ZM79.2183 127.624C77.7197 127.624 76.2635 128.227 75.1883 129.343L24.5914 181.857C22.5418 183.984 22.4985 187.357 24.4929 189.536L100.98 273.108C101.829 274.035 102.988 274.555 104.245 274.571C105.501 274.587 106.674 274.098 107.547 273.192L216.558 160.057C218.607 157.931 218.651 154.559 216.66 152.38L149.347 78.7259C148.498 77.7971 147.338 77.2766 146.08 77.2604C144.822 77.2442 143.649 77.7344 142.776 78.6409L93.4141 129.925C93.0429 130.312 92.5722 130.589 92.0537 130.727C91.5352 130.864 90.9888 130.856 90.4746 130.703L80.8111 127.855C80.294 127.702 79.7575 127.625 79.2183 127.624Z" fill="#1D1E1E"/>
<path d="M161.825 79.043L220.249 156.655L108.86 271.982L49.0688 195.682L161.825 79.043Z" fill="white"/>
<path d="M108.86 272.089L108.854 272.088C108.839 272.088 108.824 272.084 108.811 272.077C108.797 272.07 108.785 272.06 108.776 272.048L48.9851 195.748C48.9692 195.728 48.9612 195.702 48.9625 195.676C48.9639 195.651 48.9745 195.626 48.9924 195.608L161.749 78.9687C161.759 78.9576 161.772 78.9489 161.787 78.9433C161.801 78.9377 161.817 78.9353 161.832 78.9362C161.847 78.9372 161.862 78.9415 161.876 78.9488C161.889 78.9562 161.901 78.9664 161.911 78.9788L220.334 156.59C220.349 156.611 220.357 156.636 220.355 156.661C220.354 156.687 220.343 156.71 220.326 156.729L108.936 272.056C108.926 272.066 108.915 272.074 108.901 272.08C108.888 272.086 108.874 272.089 108.86 272.089ZM49.2104 195.689L108.868 271.82L220.109 156.646L161.815 79.2069L49.2104 195.689Z" fill="#1D1E1E"/>
<path d="M104.822 274.649C104.831 274.649 104.839 274.646 104.847 274.644L104.847 274.646L104.822 274.649Z" fill="white"/>
<path d="M104.822 274.755H104.821C104.794 274.755 104.768 274.745 104.748 274.726C104.729 274.707 104.717 274.681 104.716 274.654C104.715 274.626 104.724 274.6 104.742 274.579C104.76 274.558 104.785 274.545 104.812 274.543L104.814 274.542C104.868 274.53 104.931 274.558 104.948 274.61C104.953 274.626 104.955 274.642 104.953 274.658C104.951 274.674 104.945 274.69 104.937 274.703C104.928 274.717 104.917 274.728 104.903 274.737C104.889 274.745 104.874 274.751 104.858 274.753L104.846 274.754C104.838 274.755 104.831 274.755 104.822 274.755Z" fill="#1D1E1E"/>
<path d="M104.822 274.649C104.635 274.671 104.448 274.678 104.259 274.677L104.822 274.649Z" fill="white"/>
<path d="M104.285 274.784H104.258C104.23 274.784 104.204 274.773 104.184 274.754C104.164 274.734 104.152 274.708 104.151 274.68C104.151 274.652 104.161 274.625 104.18 274.605C104.199 274.584 104.225 274.572 104.253 274.571L104.817 274.542C104.844 274.541 104.871 274.551 104.892 274.569C104.912 274.587 104.925 274.612 104.928 274.64C104.93 274.667 104.922 274.694 104.904 274.716C104.887 274.737 104.862 274.751 104.835 274.755C104.668 274.774 104.488 274.784 104.285 274.784ZM184.167 75.0523C182.791 74.8863 181.339 75.3264 180.259 76.4496L130.815 127.828C129.537 129.154 128.8 130.909 128.748 132.749L128.465 142.438C128.437 143.339 128.079 144.195 127.456 144.843L76.9895 197.368C76.1261 198.267 75.5679 199.381 75.3512 200.555L71.5889 200.195C71.7806 198.943 72.3489 197.753 73.2636 196.801L123.73 144.276C124.353 143.629 124.711 142.772 124.739 141.871L125.022 132.183C125.075 130.342 125.812 128.588 127.089 127.262L176.533 75.883C177.651 74.7211 179.168 74.2922 180.587 74.5065L180.59 74.5057L184.167 75.0523Z" fill="#1D1E1E"/>
<path d="M75.3515 200.662C75.3481 200.662 75.3447 200.662 75.3413 200.661L71.5789 200.301C71.5645 200.3 71.5504 200.296 71.5377 200.289C71.525 200.282 71.5139 200.272 71.5049 200.261C71.496 200.249 71.4895 200.236 71.4859 200.222C71.4822 200.208 71.4815 200.193 71.4836 200.179C71.6838 198.871 72.2728 197.678 73.1868 196.727L123.654 144.202C124.258 143.574 124.605 142.745 124.632 141.868L124.916 132.179C124.97 130.307 125.715 128.534 127.012 127.188L176.456 75.8089C177.539 74.683 179.045 74.1696 180.59 74.3991C180.596 74.3991 180.601 74.3994 180.606 74.4002L184.183 74.9467C184.211 74.9512 184.235 74.9662 184.252 74.9885C184.268 75.0109 184.276 75.0388 184.272 75.0664C184.268 75.094 184.254 75.119 184.232 75.1361C184.21 75.1532 184.182 75.1611 184.155 75.1581C182.728 74.986 181.336 75.4836 180.336 76.5234L130.892 127.902C129.631 129.21 128.908 130.933 128.855 132.752L128.571 142.441C128.543 143.371 128.174 144.251 127.533 144.917L77.0664 197.441C76.2305 198.312 75.6736 199.396 75.4563 200.574C75.4517 200.599 75.4388 200.621 75.4197 200.637C75.4005 200.653 75.3764 200.662 75.3515 200.662ZM71.7126 200.1L75.2649 200.44C75.5019 199.257 76.0703 198.171 76.9125 197.294L127.379 144.769C127.984 144.141 128.331 143.312 128.358 142.434L128.641 132.746C128.696 130.873 129.441 129.1 130.738 127.754L180.182 76.3755C180.923 75.6053 181.869 75.1193 182.888 74.9647L180.586 74.6129C180.581 74.6129 180.576 74.6126 180.571 74.612C179.091 74.3885 177.647 74.8786 176.61 75.957L127.166 127.336C125.905 128.644 125.182 130.366 125.129 132.186L124.846 141.874C124.817 142.805 124.448 143.684 123.807 144.35L73.3408 196.875C72.4834 197.767 71.9219 198.88 71.7127 200.1H71.7126Z" fill="white"/>
<path d="M109.119 275.219L105.958 274.727C104.319 274.608 102.757 273.639 102.016 271.951L72.044 203.665C71.564 202.576 71.4062 201.372 71.5892 200.195L75.3515 200.555C75.1166 201.795 75.2624 203.077 75.7699 204.232L105.742 272.517C106.396 274.01 107.695 274.942 109.119 275.219Z" fill="#1D1E1E"/>
<path d="M109.119 275.326C109.114 275.326 109.108 275.326 109.103 275.325L105.941 274.833C104.175 274.704 102.63 273.616 101.919 271.994L71.9462 203.708C71.4579 202.6 71.2974 201.375 71.4836 200.179C71.4877 200.152 71.502 200.128 71.5234 200.111C71.5449 200.094 71.572 200.086 71.5991 200.089L75.3615 200.449C75.3762 200.45 75.3905 200.455 75.4035 200.462C75.4164 200.469 75.4277 200.479 75.4366 200.491C75.4455 200.503 75.4518 200.517 75.4552 200.531C75.4586 200.545 75.4589 200.56 75.4562 200.575C75.2245 201.797 75.3667 203.047 75.8674 204.189L105.84 272.474C106.447 273.862 107.65 274.824 109.14 275.115C109.166 275.12 109.189 275.134 109.205 275.156C109.221 275.177 109.228 275.203 109.226 275.23C109.223 275.256 109.211 275.281 109.191 275.299C109.171 275.316 109.146 275.326 109.119 275.326ZM71.6798 200.311C71.5236 201.437 71.6835 202.583 72.1416 203.623L102.114 271.908C102.794 273.458 104.27 274.497 105.965 274.621L107.889 274.92C106.895 274.434 106.106 273.614 105.644 272.56L75.6722 204.275C75.1698 203.129 75.0163 201.878 75.226 200.65L71.6799 200.311H71.6798Z" fill="white"/>
<path d="M129.181 130.454C128.916 131.191 128.77 131.966 128.748 132.749L128.465 142.438C128.451 142.879 128.358 143.315 128.189 143.723L124.484 143.102C124.64 142.71 124.726 142.293 124.739 141.871L125.022 132.183C125.045 131.367 125.203 130.56 125.49 129.796L129.181 130.454Z" fill="#1D1E1E"/>
<path d="M128.189 143.829C128.183 143.829 128.177 143.829 128.171 143.828L124.467 143.207C124.451 143.205 124.436 143.199 124.423 143.189C124.41 143.18 124.399 143.168 124.391 143.155C124.383 143.141 124.379 143.125 124.378 143.109C124.377 143.093 124.379 143.078 124.385 143.063C124.536 142.682 124.62 142.278 124.632 141.868L124.915 132.179C124.938 131.352 125.099 130.533 125.39 129.758C125.399 129.735 125.415 129.715 125.437 129.703C125.459 129.691 125.484 129.686 125.509 129.691L129.199 130.348C129.214 130.351 129.229 130.357 129.241 130.366C129.254 130.375 129.265 130.386 129.273 130.4C129.28 130.413 129.285 130.428 129.287 130.444C129.288 130.459 129.286 130.475 129.281 130.489C129.02 131.216 128.876 131.98 128.854 132.752L128.571 142.441C128.557 142.895 128.461 143.343 128.287 143.763C128.279 143.783 128.266 143.799 128.248 143.811C128.231 143.823 128.21 143.829 128.189 143.829L128.189 143.829ZM124.63 143.018L128.122 143.603C128.266 143.23 128.346 142.835 128.358 142.435L128.641 132.746C128.662 131.994 128.796 131.249 129.038 130.537L125.559 129.916C125.296 130.645 125.15 131.411 125.128 132.186L124.845 141.874C124.834 142.265 124.761 142.651 124.63 143.018Z" fill="white"/>
<path d="M105.742 272.516L75.7699 204.23C74.7502 201.907 75.2316 199.198 76.9892 197.369L127.456 144.843C128.079 144.195 128.438 143.338 128.464 142.439L128.747 132.748C128.801 130.908 129.538 129.154 130.814 127.828L180.259 76.4486C182.547 74.0711 186.512 74.7571 187.868 77.7652L222.592 154.76C223.646 157.096 223.171 159.838 221.394 161.684L113.37 273.877C111.068 276.268 107.076 275.556 105.742 272.516Z" fill="#F45100"/>
<path d="M110.015 275.413C109.736 275.413 109.454 275.388 109.174 275.338C108.402 275.201 107.677 274.876 107.061 274.391C106.445 273.907 105.959 273.277 105.644 272.56L75.6724 204.273C74.6314 201.902 75.1182 199.163 76.9124 197.295L127.379 144.77C127.984 144.141 128.333 143.309 128.358 142.436L128.641 132.745C128.694 130.878 129.441 129.099 130.737 127.754L180.182 76.3747C180.722 75.8126 181.392 75.3917 182.133 75.1489C182.874 74.9062 183.663 74.849 184.431 74.9823C185.199 75.1148 185.923 75.4338 186.54 75.9113C187.156 76.3889 187.646 77.0105 187.966 77.7214L222.689 154.716C223.767 157.106 223.289 159.87 221.471 161.758L113.447 273.951C113.003 274.413 112.47 274.781 111.88 275.032C111.29 275.283 110.656 275.413 110.015 275.413L110.015 275.413ZM183.616 75.1256C183.003 75.1256 182.397 75.2494 181.833 75.4895C181.27 75.7295 180.76 76.081 180.336 76.5227L130.891 127.902C129.632 129.208 128.906 130.938 128.854 132.751L128.571 142.442C128.545 143.368 128.175 144.25 127.533 144.917L77.0663 197.443C75.3322 199.248 74.8617 201.895 75.8678 204.188L105.84 272.474C106.14 273.159 106.605 273.761 107.193 274.224C107.781 274.687 108.475 274.997 109.212 275.128C109.948 275.26 110.706 275.208 111.418 274.977C112.13 274.746 112.774 274.343 113.293 273.803L221.317 161.61C223.074 159.785 223.537 157.114 222.495 154.804L187.771 77.8091C187.465 77.1299 186.998 76.5362 186.409 76.08C185.82 75.6238 185.129 75.319 184.395 75.1925C184.137 75.148 183.877 75.1257 183.616 75.1256Z" fill="white"/>
</g>
<g clip-path="url(#clip1_596_64246)">
<path d="M304.804 174.782H304.807L304.347 168.134L302.907 167.838C301.595 165.132 299.624 162.642 296.963 160.482C290.122 154.927 280.033 152.598 269.247 153.321C258.464 154.044 246.989 157.819 237.375 164.477L220.539 176.137L228.303 182.44L245.564 170.485C258.764 161.343 277.085 160.113 286.481 167.741C295.879 175.37 292.792 188.966 279.591 198.109L262.33 210.063L270.094 216.366L286.93 204.705C296.544 198.047 302.472 189.769 304.287 181.766C304.824 179.397 304.999 177.053 304.804 174.782Z" fill="#1D1E1E"/>
<path d="M270.094 216.551C270.051 216.551 270.01 216.537 269.977 216.51L262.214 210.207C262.191 210.189 262.173 210.166 262.161 210.14C262.15 210.114 262.144 210.085 262.145 210.056C262.146 210.027 262.154 209.999 262.168 209.974C262.182 209.949 262.201 209.927 262.225 209.911L279.486 197.956C287.012 192.743 291.473 185.967 291.724 179.365C291.897 174.841 290.043 170.871 286.365 167.885C277.043 160.318 258.787 161.552 245.669 170.637L228.408 182.592C228.375 182.615 228.336 182.627 228.296 182.625C228.256 182.623 228.217 182.609 228.186 182.584L220.422 176.281C220.4 176.263 220.382 176.24 220.371 176.214C220.359 176.188 220.353 176.159 220.354 176.13C220.355 176.102 220.363 176.073 220.377 176.048C220.391 176.023 220.41 176.001 220.434 175.985L237.27 164.325C246.594 157.867 257.946 153.893 269.235 153.136C280.538 152.378 290.426 154.936 297.08 160.338C299.677 162.446 301.68 164.914 303.034 167.675L304.385 167.952C304.466 167.969 304.527 168.038 304.532 168.121L304.992 174.769C304.993 174.779 304.993 174.789 304.992 174.8C305.183 177.075 305.007 179.433 304.467 181.807C302.564 190.204 296.373 198.391 287.035 204.858L270.199 216.518C270.168 216.539 270.132 216.551 270.094 216.551L270.094 216.551ZM262.639 210.075L270.103 216.134L286.824 204.553C296.085 198.139 302.223 190.032 304.106 181.725C304.639 179.376 304.812 177.045 304.619 174.798C304.619 174.786 304.619 174.773 304.62 174.761L304.172 168.287L302.869 168.019C302.842 168.013 302.815 168.001 302.793 167.984C302.77 167.966 302.752 167.944 302.74 167.919C301.409 165.174 299.426 162.72 296.846 160.625C290.265 155.283 280.468 152.754 269.259 153.506C258.037 154.258 246.751 158.209 237.48 164.629L220.848 176.149L228.311 182.208L245.458 170.332C258.701 161.16 277.157 159.933 286.598 167.597C290.371 170.66 292.271 174.734 292.094 179.379C291.838 186.099 287.32 192.981 279.697 198.261L262.639 210.075H262.639Z" fill="white"/>
<path d="M296.512 153.928C303.354 159.482 305.652 167.208 303.835 175.212C302.021 183.216 296.092 191.493 286.478 198.152L269.642 209.812L261.879 203.509L279.14 191.555C292.34 182.412 295.427 168.816 286.03 161.187C276.633 153.559 258.312 154.789 245.112 163.931L227.851 175.886L220.087 169.583L236.923 157.923C246.537 151.264 258.012 147.49 268.795 146.767C279.581 146.044 289.67 148.373 296.512 153.928H296.512Z" fill="white"/>
<path d="M269.642 209.997C269.599 209.997 269.558 209.983 269.525 209.956L261.762 203.653C261.739 203.635 261.721 203.612 261.71 203.586C261.698 203.56 261.692 203.531 261.693 203.502C261.694 203.473 261.702 203.445 261.716 203.42C261.73 203.395 261.749 203.373 261.773 203.357L279.034 191.402C286.56 186.189 291.021 179.413 291.272 172.811C291.445 168.287 289.591 164.317 285.913 161.331C276.591 153.764 258.335 154.998 245.217 164.083L227.956 176.038C227.923 176.061 227.884 176.073 227.844 176.071C227.803 176.07 227.765 176.055 227.734 176.03L219.97 169.727C219.948 169.709 219.93 169.686 219.918 169.66C219.906 169.634 219.901 169.605 219.902 169.576C219.903 169.548 219.911 169.52 219.925 169.494C219.939 169.469 219.958 169.447 219.982 169.431L236.818 157.771C246.142 151.312 257.494 147.339 268.783 146.582C280.085 145.824 289.974 148.382 296.628 153.784C303.305 159.204 305.928 166.828 304.016 175.253C302.112 183.651 295.921 191.837 286.583 198.304L269.747 209.964C269.716 209.986 269.68 209.997 269.642 209.997L269.642 209.997ZM262.187 203.521L269.651 209.58L286.372 197.999C295.633 191.585 301.771 183.478 303.654 175.171C305.534 166.891 302.956 159.398 296.395 154.072C289.813 148.729 280.016 146.201 268.807 146.952C257.585 147.704 246.299 151.655 237.029 158.076L220.396 169.595L227.859 175.654L245.006 163.778C258.25 154.606 276.705 153.379 286.146 161.043C289.919 164.106 291.82 168.18 291.643 172.825C291.387 179.545 286.868 186.427 279.245 191.707L262.187 203.521L262.187 203.521Z" fill="#1D1E1E"/>
<path d="M277.556 226.487C277.555 226.448 277.55 226.41 277.542 226.372L275.96 213.468L262.508 213.992L213.489 174.199C213.294 174.043 213.011 173.977 212.705 173.997C212.382 174.021 212.071 174.13 211.804 174.313L166.954 205.376C155.836 213.076 148.463 222.421 145.213 231.721L141.881 232.403L143.416 244.746C143.476 245.459 143.564 246.166 143.68 246.867L143.689 246.946L143.692 246.945C144.749 253.219 148.05 258.983 153.743 263.603C162.752 270.917 176.037 273.985 190.237 273.033C204.433 272.081 219.542 267.109 232.201 258.343L277.051 227.281C277.323 227.091 277.489 226.859 277.542 226.632C277.552 226.586 277.554 226.541 277.555 226.497H277.557L277.555 226.487H277.556Z" fill="#1D1E1E"/>
<path d="M185.187 273.389C172.442 273.389 161.369 270.033 153.626 263.747C148.11 259.269 144.614 253.48 143.515 247.006C143.51 246.994 143.507 246.981 143.506 246.968L143.496 246.89C143.38 246.184 143.292 245.474 143.232 244.761L141.698 232.425C141.692 232.379 141.704 232.332 141.731 232.294C141.758 232.257 141.799 232.23 141.845 232.221L145.074 231.56C148.46 221.956 156.188 212.607 166.848 205.224L211.699 174.161C211.993 173.959 212.336 173.838 212.692 173.812C213.057 173.789 213.38 173.875 213.605 174.054L262.571 213.804L275.953 213.283C276.049 213.279 276.133 213.35 276.145 213.446L277.726 226.349C277.732 226.377 277.74 226.422 277.741 226.475C277.743 226.493 277.743 226.512 277.74 226.53C277.738 226.574 277.734 226.622 277.723 226.672C277.658 226.954 277.457 227.223 277.158 227.433L232.307 258.496C220.035 266.994 205.098 272.222 190.25 273.218C188.536 273.333 186.847 273.389 185.187 273.389H185.187ZM143.87 246.891C143.872 246.899 143.874 246.906 143.875 246.914C144.953 253.31 148.406 259.032 153.86 263.459C162.538 270.504 175.452 273.838 190.225 272.848C205.008 271.856 219.878 266.651 232.096 258.191L276.946 227.128C277.169 226.972 277.317 226.78 277.362 226.59C277.367 226.564 277.369 226.532 277.37 226.494C277.37 226.489 277.37 226.484 277.37 226.479C277.37 226.455 277.365 226.432 277.36 226.408L275.797 213.66L262.515 214.177C262.47 214.179 262.426 214.164 262.391 214.136L213.373 174.343C213.221 174.222 212.988 174.164 212.717 174.182C212.427 174.203 212.149 174.301 211.91 174.465L167.06 205.528C156.427 212.892 148.731 222.216 145.389 231.782C145.378 231.812 145.36 231.839 145.336 231.86C145.312 231.881 145.282 231.896 145.251 231.902L142.087 232.55L143.6 244.723C143.661 245.44 143.749 246.149 143.863 246.837L143.87 246.891L143.87 246.891Z" fill="white"/>
<path d="M275.96 213.75C275.908 213.977 275.741 214.209 275.47 214.399L230.619 245.462C217.96 254.227 202.852 259.199 188.655 260.151C174.455 261.103 161.17 258.035 152.161 250.722C143.152 243.408 140.126 233.235 142.519 222.697C144.908 212.16 152.715 201.261 165.372 192.494L210.223 161.431C210.49 161.248 210.8 161.139 211.123 161.115C211.43 161.095 211.712 161.161 211.908 161.317L275.754 213.147C275.946 213.306 276.011 213.522 275.96 213.75Z" fill="white"/>
<path d="M183.605 260.508C170.86 260.508 159.787 257.151 152.045 250.865C143.272 243.744 139.825 233.726 142.338 222.656C144.841 211.614 152.984 200.848 165.267 192.342L210.117 161.279C210.411 161.077 210.754 160.956 211.11 160.93C211.475 160.907 211.799 160.993 212.024 161.172L275.871 213.003C276.11 213.201 276.208 213.487 276.141 213.79L276.141 213.792C276.076 214.072 275.875 214.341 275.576 214.551L230.725 245.614C218.453 254.112 203.517 259.34 188.668 260.336C186.955 260.451 185.266 260.508 183.605 260.508ZM211.228 161.297C211.198 161.297 211.167 161.298 211.135 161.3C210.846 161.321 210.567 161.419 210.328 161.584L165.478 192.647C153.272 201.1 145.183 211.787 142.699 222.738C140.219 233.663 143.621 243.55 152.278 250.578C160.956 257.622 173.87 260.957 188.643 259.966C203.426 258.975 218.296 253.77 230.514 245.309L275.364 214.246C275.587 214.091 275.735 213.9 275.78 213.709C275.817 213.541 275.768 213.4 275.636 213.29L211.791 161.461C211.657 161.354 211.46 161.297 211.228 161.297Z" fill="#1D1E1E"/>
<path d="M267.161 214.317C267.114 214.519 266.966 214.725 266.724 214.894L226.849 242.511C215.594 250.305 202.162 254.725 189.54 255.571C176.915 256.418 165.104 253.69 157.094 247.188C149.084 240.685 146.394 231.64 148.521 222.272C150.645 212.904 157.586 203.213 168.839 195.419L208.715 167.802C208.952 167.639 209.228 167.542 209.515 167.521C209.788 167.503 210.039 167.562 210.213 167.701L266.977 213.781C267.148 213.923 267.205 214.115 267.161 214.317Z" fill="white"/>
<path d="M185.05 255.909C173.714 255.909 163.865 252.923 156.978 247.332C149.172 240.995 146.104 232.081 148.34 222.231C150.568 212.409 157.81 202.833 168.734 195.267L208.61 167.65C208.874 167.468 209.183 167.359 209.503 167.336C209.832 167.315 210.125 167.393 210.329 167.556L267.094 213.637C267.313 213.818 267.403 214.08 267.342 214.357L267.342 214.359C267.283 214.613 267.101 214.857 266.831 215.046L226.955 242.664C216.041 250.221 202.758 254.871 189.553 255.756C188.029 255.858 186.527 255.909 185.051 255.909H185.05ZM209.61 167.703C209.583 167.703 209.555 167.704 209.528 167.706C209.274 167.725 209.03 167.81 208.821 167.955L168.945 195.572C158.098 203.085 150.908 212.582 148.702 222.313C146.499 232.018 149.521 240.801 157.211 247.044C164.922 253.304 176.399 256.266 189.528 255.386C202.667 254.505 215.884 249.878 226.744 242.359L266.619 214.742C266.813 214.606 266.942 214.44 266.98 214.276C267.011 214.134 266.971 214.016 266.859 213.924L210.097 167.845C209.981 167.753 209.81 167.703 209.61 167.703Z" fill="#1D1E1E"/>
<path d="M215.706 206.584C217.296 207.875 217.83 209.67 217.407 211.531C216.986 213.39 215.608 215.313 213.373 216.86C209.766 219.361 205.026 220.111 201.661 218.946C201.585 218.92 201.48 218.94 201.403 218.993L181.822 232.555C181.532 232.754 181.134 232.78 180.927 232.615L178.514 230.656C178.31 230.488 178.376 230.191 178.664 229.991L198.175 216.478C198.254 216.424 198.287 216.345 198.254 216.284C196.813 213.659 198.163 210.07 201.858 207.513C204.093 205.965 206.759 205.087 209.263 204.919C211.771 204.751 214.115 205.293 215.706 206.584H215.706Z" fill="#F45100"/>
<path d="M181.289 232.91C181.107 232.91 180.937 232.86 180.811 232.759L178.397 230.8C178.27 230.695 178.204 230.55 178.211 230.392C178.219 230.188 178.346 229.986 178.559 229.839L198.067 216.328C196.591 213.569 198.1 209.889 201.753 207.36C203.941 205.845 206.604 204.912 209.252 204.735C211.914 204.556 214.248 205.162 215.823 206.44C217.418 207.735 218.045 209.558 217.589 211.572C217.138 213.557 215.679 215.489 213.479 217.013C209.899 219.494 205.126 220.342 201.601 219.122C201.589 219.117 201.544 219.121 201.509 219.145L181.928 232.707C181.732 232.842 181.502 232.91 181.289 232.91L181.289 232.91ZM210.156 205.074C209.868 205.074 209.574 205.084 209.276 205.104C206.695 205.277 204.098 206.187 201.964 207.665C198.453 210.095 196.994 213.603 198.417 216.195C198.497 216.342 198.44 216.521 198.281 216.631L178.771 230.143C178.635 230.237 178.584 230.341 178.581 230.407C178.58 230.449 178.596 230.483 178.632 230.512L181.044 232.47C181.169 232.57 181.477 232.567 181.718 232.402L201.298 218.84C201.424 218.754 201.59 218.726 201.721 218.771C205.141 219.954 209.78 219.125 213.268 216.708C215.391 215.237 216.797 213.384 217.227 211.489C217.651 209.62 217.07 207.929 215.59 206.728C214.262 205.65 212.355 205.074 210.157 205.074L210.156 205.074Z" fill="#F45100"/>
<path d="M266.977 213.781L210.213 167.7C210.039 167.562 209.788 167.503 209.515 167.521C209.228 167.542 208.952 167.639 208.715 167.801L168.839 195.418C157.587 203.213 150.646 212.904 148.522 222.271C147.954 224.775 147.728 227.254 147.859 229.668C147.943 228.122 148.165 226.558 148.522 224.983C150.645 215.615 157.587 205.924 168.839 198.13L208.715 170.513C208.952 170.35 209.228 170.254 209.515 170.233C209.788 170.215 210.039 170.274 210.213 170.412L265.797 215.536L266.724 214.895C266.965 214.725 267.115 214.52 267.162 214.316C267.205 214.115 267.149 213.923 266.977 213.781Z" fill="#1D1E1E"/>
<path d="M147.86 229.854C147.812 229.854 147.767 229.835 147.732 229.803C147.698 229.77 147.677 229.725 147.674 229.678C147.543 227.267 147.768 224.761 148.341 222.23C150.568 212.409 157.81 202.833 168.734 195.266L208.61 167.649C208.874 167.467 209.183 167.359 209.503 167.336C209.831 167.314 210.124 167.392 210.328 167.554L267.094 213.636L267.095 213.638C267.312 213.817 267.402 214.079 267.343 214.355C267.283 214.612 267.101 214.856 266.83 215.046L265.903 215.689C265.87 215.712 265.83 215.723 265.79 215.722C265.75 215.72 265.711 215.706 265.68 215.68L210.096 170.555C209.965 170.452 209.763 170.402 209.527 170.418C209.274 170.436 209.03 170.522 208.82 170.666L168.945 198.282C158.097 205.796 150.909 215.294 148.702 225.024C148.348 226.585 148.127 228.151 148.044 229.678C148.042 229.725 148.021 229.77 147.987 229.803C147.952 229.835 147.907 229.854 147.859 229.854H147.86ZM209.612 167.703C209.584 167.703 209.556 167.704 209.527 167.706C209.274 167.724 209.03 167.81 208.821 167.954L168.945 195.571C158.098 203.085 150.909 212.582 148.703 222.312C148.422 223.545 148.224 224.796 148.111 226.056C148.18 225.685 148.257 225.313 148.341 224.942C150.568 215.121 157.81 205.545 168.734 197.978L208.61 170.361C208.874 170.179 209.183 170.071 209.503 170.048C209.831 170.026 210.124 170.104 210.329 170.266L265.806 215.305L266.618 214.742C266.814 214.605 266.943 214.438 266.982 214.274C267.011 214.135 266.97 214.016 266.859 213.924L210.096 167.844C209.981 167.753 209.811 167.703 209.612 167.703Z" fill="#1D1E1E"/>
<path d="M209.515 170.419C209.466 170.419 209.419 170.399 209.384 170.364C209.349 170.33 209.33 170.282 209.33 170.233V167.521C209.33 167.472 209.349 167.425 209.384 167.39C209.419 167.355 209.466 167.336 209.515 167.336C209.564 167.336 209.611 167.355 209.646 167.39C209.681 167.425 209.7 167.472 209.7 167.521V170.233C209.7 170.282 209.681 170.33 209.646 170.364C209.611 170.399 209.564 170.419 209.515 170.419ZM198.626 218.287L179.552 231.499L178.514 230.656C178.311 230.488 178.377 230.19 178.666 229.991L198.175 216.479C198.177 216.477 198.273 216.372 198.283 216.437C198.368 216.976 198.51 217.638 198.758 218.092C198.791 218.151 198.706 218.233 198.627 218.287L198.626 218.287Z" fill="#1D1E1E"/>
<path d="M179.552 231.684C179.509 231.684 179.468 231.67 179.435 231.643L178.398 230.8C178.271 230.695 178.205 230.55 178.212 230.391C178.221 230.187 178.348 229.985 178.561 229.839L198.054 216.337C198.096 216.294 198.199 216.2 198.325 216.24C198.399 216.263 198.454 216.327 198.467 216.408C198.578 217.12 198.731 217.656 198.921 218.004C198.957 218.067 199.017 218.244 198.732 218.439L179.658 231.651C179.627 231.673 179.59 231.684 179.552 231.684ZM198.144 216.726L178.772 230.144C178.636 230.237 178.585 230.341 178.582 230.407C178.581 230.449 178.597 230.483 178.633 230.513L179.561 231.267L198.521 218.135L198.522 218.134C198.536 218.125 198.547 218.116 198.557 218.108C198.388 217.77 198.25 217.307 198.144 216.726ZM198.594 218.18C198.595 218.182 198.596 218.184 198.597 218.185L198.594 218.18ZM217.541 210.104C217.236 209.473 216.777 208.895 216.158 208.393C214.568 207.1 212.225 206.56 209.717 206.727C207.211 206.894 204.544 207.773 202.31 209.322C199.497 211.267 198.044 213.812 198.148 216.074C196.887 213.468 198.261 210.002 201.858 207.513C204.093 205.965 206.759 205.086 209.265 204.919C211.773 204.752 214.116 205.292 215.706 206.585C216.884 207.541 217.482 208.773 217.541 210.104Z" fill="#1D1E1E"/>
<path d="M198.148 216.26C198.113 216.26 198.079 216.25 198.049 216.232C198.02 216.213 197.996 216.187 197.981 216.155C196.64 213.383 198.155 209.849 201.752 207.361C203.942 205.844 206.606 204.911 209.252 204.734C211.916 204.557 214.25 205.163 215.823 206.441C217.005 207.401 217.663 208.664 217.726 210.095C217.728 210.138 217.715 210.18 217.69 210.214C217.664 210.248 217.628 210.273 217.586 210.283C217.545 210.294 217.501 210.29 217.463 210.272C217.424 210.254 217.393 210.223 217.374 210.184C217.075 209.565 216.626 209.011 216.042 208.537C214.541 207.318 212.3 206.741 209.729 206.912C207.149 207.084 204.551 207.994 202.415 209.474C199.754 211.315 198.228 213.779 198.333 216.066C198.334 216.091 198.33 216.116 198.321 216.139C198.312 216.163 198.299 216.184 198.282 216.202C198.264 216.22 198.244 216.235 198.22 216.245C198.197 216.255 198.173 216.26 198.148 216.26V216.26ZM210.154 205.075C209.866 205.075 209.574 205.084 209.277 205.104C206.697 205.277 204.1 206.186 201.963 207.666C198.89 209.792 197.392 212.689 198.004 215.137C198.282 213.009 199.796 210.835 202.204 209.169C204.395 207.652 207.058 206.719 209.704 206.542C212.368 206.365 214.702 206.971 216.275 208.249C216.646 208.549 216.966 208.881 217.232 209.239C216.996 208.274 216.439 207.418 215.59 206.729C214.263 205.65 212.355 205.074 210.154 205.074L210.154 205.075Z" fill="#1D1E1E"/>
<path d="M209.516 170.873C209.467 170.873 209.419 170.854 209.385 170.819C209.35 170.784 209.33 170.737 209.33 170.688L209.33 167.223C209.33 167.174 209.349 167.127 209.384 167.092C209.419 167.057 209.466 167.038 209.515 167.038C209.564 167.038 209.611 167.057 209.646 167.092C209.681 167.127 209.7 167.174 209.7 167.223L209.701 170.688C209.701 170.737 209.682 170.784 209.647 170.819C209.612 170.854 209.565 170.873 209.516 170.873Z" fill="white"/>
</g>
<g clip-path="url(#clip2_596_64246)">
<path d="M211.904 211.1L211.08 212.783C211.06 212.838 211.031 212.892 211 212.943L210.998 212.949C210.925 213.067 210.826 213.167 210.708 213.24C210.591 213.314 210.458 213.359 210.32 213.373L202.519 214.182C202.405 214.194 202.29 214.183 202.181 214.151C202.168 214.148 202.154 214.143 202.141 214.138L203.054 212.268C203.178 212.311 203.309 212.326 203.439 212.312L211.238 211.504C211.526 211.474 211.761 211.319 211.904 211.1Z" fill="#1D1E1E"/>
<path d="M202.426 214.293C202.334 214.293 202.243 214.28 202.155 214.254C202.138 214.25 202.121 214.245 202.104 214.239C202.09 214.233 202.078 214.225 202.067 214.215C202.056 214.205 202.048 214.192 202.042 214.178C202.036 214.164 202.034 214.149 202.034 214.134C202.035 214.12 202.038 214.105 202.045 214.091L202.958 212.222C202.97 212.198 202.989 212.18 203.013 212.17C203.037 212.16 203.064 212.159 203.089 212.167C203.198 212.205 203.314 212.218 203.428 212.206L211.227 211.398C211.469 211.373 211.683 211.243 211.814 211.042C211.829 211.019 211.852 211.003 211.879 210.996C211.905 210.989 211.933 210.993 211.957 211.007C211.981 211.02 211.998 211.042 212.006 211.068C212.014 211.094 212.012 211.123 212 211.147L211.179 212.824C211.156 212.883 211.129 212.939 211.096 212.991C211.094 212.996 211.091 213.001 211.089 213.006C211.007 213.138 210.896 213.249 210.765 213.331C210.634 213.413 210.485 213.464 210.331 213.48L202.53 214.288C202.496 214.292 202.461 214.293 202.426 214.293ZM202.294 214.068C202.364 214.081 202.436 214.083 202.508 214.076L210.309 213.268C210.429 213.255 210.545 213.216 210.648 213.152C210.751 213.088 210.838 213.002 210.903 212.9C210.905 212.896 210.907 212.891 210.909 212.887C210.942 212.833 210.965 212.789 210.979 212.747C210.981 212.743 210.982 212.739 210.984 212.736L211.58 211.519C211.475 211.568 211.363 211.599 211.249 211.61L203.45 212.418C203.337 212.431 203.222 212.423 203.111 212.396L202.294 214.068Z" fill="white"/>
<path d="M201.201 211.028C201.255 211.114 201.327 211.187 201.411 211.243L202.854 212.172C202.916 212.212 202.984 212.245 203.054 212.268L202.141 214.138C202.068 214.116 201.999 214.083 201.936 214.041L200.241 212.948L201.201 211.028L201.201 211.028Z" fill="#1D1E1E"/>
<path d="M202.141 214.245C202.13 214.245 202.119 214.243 202.109 214.24C202.027 214.214 201.948 214.177 201.877 214.13L200.183 213.038C200.161 213.024 200.145 213.002 200.138 212.977C200.131 212.951 200.133 212.924 200.145 212.901L201.105 210.98C201.114 210.963 201.127 210.949 201.142 210.939C201.158 210.928 201.177 210.922 201.195 210.922C201.214 210.921 201.233 210.925 201.25 210.933C201.267 210.942 201.281 210.955 201.291 210.971C201.337 211.044 201.398 211.106 201.469 211.153L202.912 212.082C202.966 212.118 203.025 212.146 203.087 212.167C203.102 212.172 203.115 212.18 203.127 212.19C203.138 212.2 203.147 212.213 203.153 212.227C203.159 212.241 203.162 212.256 203.161 212.271C203.161 212.287 203.157 212.302 203.15 212.315L202.237 214.185C202.228 214.203 202.214 214.218 202.197 214.229C202.18 214.239 202.161 214.245 202.141 214.245V214.245ZM200.379 212.911L201.994 213.952C202.023 213.971 202.055 213.989 202.088 214.004L202.908 212.324C202.869 212.306 202.832 212.285 202.796 212.261L201.353 211.332C201.306 211.301 201.262 211.265 201.222 211.225L200.379 212.911Z" fill="white"/>
<path d="M200.301 206.649C200.396 206.713 200.467 206.817 200.486 206.944L201.109 210.781C201.124 210.87 201.156 210.954 201.201 211.028L200.241 212.948L199.568 208.814C199.559 208.752 199.536 208.692 199.502 208.64C199.468 208.587 199.423 208.543 199.37 208.509L200.301 206.649Z" fill="#1D1E1E"/>
<path d="M200.24 213.055C200.215 213.055 200.191 213.046 200.171 213.029C200.152 213.013 200.139 212.99 200.135 212.965L199.462 208.831C199.455 208.784 199.438 208.739 199.413 208.699C199.387 208.659 199.353 208.625 199.313 208.599C199.29 208.585 199.274 208.563 199.267 208.538C199.26 208.512 199.262 208.485 199.274 208.461L200.205 206.601C200.212 206.587 200.222 206.575 200.234 206.566C200.245 206.556 200.259 206.549 200.274 206.545C200.288 206.542 200.304 206.541 200.319 206.544C200.334 206.546 200.348 206.552 200.36 206.56C200.422 206.602 200.475 206.657 200.515 206.72C200.555 206.783 200.581 206.854 200.592 206.928L201.215 210.764C201.227 210.838 201.254 210.911 201.292 210.972C201.301 210.988 201.307 211.005 201.308 211.023C201.308 211.041 201.304 211.059 201.296 211.076L200.336 212.996C200.318 213.032 200.281 213.055 200.24 213.055ZM199.504 208.478C199.595 208.563 199.654 208.675 199.673 208.797L200.293 212.605L201.08 211.031C201.043 210.958 201.018 210.88 201.004 210.799L200.38 206.961C200.374 206.914 200.356 206.868 200.33 206.828L199.504 208.478Z" fill="white"/>
<path d="M200.301 206.649L199.369 208.509C199.265 208.44 199.135 208.414 199.005 208.45L194.958 209.546L195.923 207.616C196.005 207.626 196.088 207.619 196.167 207.597L199.923 206.58C199.987 206.563 200.054 206.559 200.12 206.571C200.185 206.583 200.247 206.61 200.301 206.649Z" fill="#1D1E1E"/>
<path d="M194.958 209.653C194.94 209.653 194.922 209.648 194.906 209.639C194.89 209.63 194.877 209.617 194.867 209.602C194.857 209.587 194.852 209.569 194.851 209.551C194.85 209.532 194.854 209.514 194.862 209.498L195.827 207.569C195.837 207.549 195.853 207.533 195.872 207.522C195.891 207.512 195.913 207.508 195.935 207.511C196.004 207.518 196.073 207.513 196.14 207.494L199.895 206.478C200.059 206.433 200.23 206.464 200.364 206.563C200.385 206.578 200.399 206.599 200.405 206.624C200.411 206.648 200.408 206.674 200.397 206.697L199.465 208.557C199.459 208.57 199.449 208.582 199.437 208.592C199.426 208.601 199.412 208.608 199.397 208.612C199.383 208.616 199.367 208.617 199.353 208.614C199.338 208.612 199.323 208.606 199.311 208.598C199.227 208.543 199.128 208.527 199.034 208.553L194.986 209.649C194.977 209.651 194.967 209.653 194.958 209.653ZM195.987 207.727L195.16 209.381L198.977 208.347C199.091 208.316 199.212 208.322 199.322 208.365L200.16 206.693C200.093 206.668 200.02 206.664 199.951 206.684L196.195 207.7C196.126 207.719 196.06 207.73 195.987 207.727Z" fill="white"/>
<path d="M188.624 202.969C188.667 203.022 188.72 203.069 188.78 203.107L195.621 207.514C195.712 207.571 195.815 207.606 195.923 207.617L194.958 209.546L187.607 204.813L188.624 202.969Z" fill="#1D1E1E"/>
<path d="M194.957 209.653C194.937 209.653 194.917 209.647 194.9 209.636L187.549 204.902C187.526 204.888 187.51 204.865 187.503 204.839C187.497 204.813 187.5 204.785 187.513 204.761L188.53 202.917C188.538 202.902 188.55 202.889 188.565 202.879C188.58 202.87 188.596 202.864 188.614 202.862C188.631 202.861 188.649 202.864 188.665 202.87C188.681 202.877 188.695 202.888 188.706 202.901C188.743 202.946 188.787 202.985 188.837 203.017L195.678 207.425C195.755 207.473 195.842 207.502 195.932 207.51C195.95 207.512 195.966 207.518 195.981 207.527C195.995 207.537 196.007 207.55 196.016 207.565C196.024 207.58 196.029 207.597 196.029 207.614C196.03 207.632 196.026 207.649 196.018 207.664L195.053 209.594C195.044 209.611 195.03 209.626 195.014 209.637C194.997 209.647 194.977 209.653 194.957 209.653ZM187.748 204.777L194.915 209.392L195.764 207.695C195.693 207.674 195.626 207.644 195.564 207.605L188.722 203.197C188.696 203.181 188.672 203.163 188.649 203.144L187.748 204.777L187.748 204.777Z" fill="white"/>
<path d="M187.659 198.506C187.71 198.54 187.755 198.584 187.789 198.635C187.823 198.687 187.845 198.745 187.855 198.806L188.478 202.645C188.497 202.764 188.547 202.876 188.624 202.968L187.607 204.812L186.937 200.676C186.927 200.614 186.904 200.554 186.869 200.502C186.835 200.449 186.789 200.405 186.736 200.371L187.659 198.506L187.659 198.506Z" fill="#1D1E1E"/>
<path d="M187.607 204.919C187.582 204.919 187.557 204.91 187.538 204.894C187.518 204.877 187.506 204.855 187.502 204.83L186.831 200.693C186.824 200.646 186.806 200.6 186.78 200.561C186.753 200.521 186.719 200.487 186.679 200.461C186.656 200.447 186.64 200.425 186.633 200.4C186.626 200.374 186.629 200.347 186.64 200.324L187.563 198.459C187.569 198.445 187.579 198.433 187.591 198.424C187.602 198.414 187.616 198.407 187.63 198.403C187.645 198.399 187.66 198.398 187.675 198.401C187.689 198.403 187.704 198.408 187.716 198.416C187.781 198.458 187.836 198.512 187.878 198.577C187.92 198.641 187.948 198.713 187.96 198.789L188.583 202.628C188.599 202.728 188.641 202.823 188.706 202.901C188.734 202.934 188.738 202.982 188.717 203.02L187.701 204.864C187.691 204.881 187.678 204.894 187.661 204.904C187.645 204.914 187.626 204.919 187.607 204.919L187.607 204.919ZM186.87 200.34C186.962 200.424 187.022 200.536 187.042 200.659L187.663 204.49L188.497 202.977C188.433 202.883 188.39 202.775 188.372 202.662L187.749 198.823C187.741 198.772 187.721 198.724 187.691 198.681L186.87 200.34L186.87 200.34Z" fill="white"/>
<path d="M187.658 198.506L186.736 200.371C186.683 200.336 186.623 200.313 186.56 200.302C186.497 200.292 186.433 200.296 186.371 200.312L182.324 201.41L183.289 199.479H183.291C183.372 199.49 183.455 199.484 183.534 199.461L187.289 198.443C187.352 198.426 187.417 198.423 187.481 198.434C187.544 198.445 187.605 198.47 187.658 198.506Z" fill="#1D1E1E"/>
<path d="M182.324 201.517C182.306 201.517 182.288 201.512 182.272 201.503C182.256 201.494 182.243 201.482 182.233 201.466C182.224 201.451 182.218 201.433 182.217 201.415C182.217 201.397 182.22 201.379 182.229 201.362L183.194 199.431C183.212 199.394 183.252 199.369 183.292 199.372C183.296 199.372 183.303 199.372 183.307 199.373C183.373 199.382 183.441 199.377 183.505 199.359L187.262 198.34C187.339 198.319 187.42 198.316 187.499 198.329C187.578 198.343 187.653 198.373 187.719 198.418C187.74 198.433 187.755 198.454 187.762 198.479C187.768 198.504 187.766 198.531 187.754 198.554L186.832 200.419C186.825 200.432 186.815 200.444 186.804 200.454C186.792 200.464 186.778 200.471 186.763 200.474C186.749 200.478 186.733 200.479 186.718 200.476C186.703 200.474 186.689 200.468 186.676 200.46C186.597 200.406 186.496 200.39 186.399 200.415L182.352 201.513C182.343 201.516 182.334 201.517 182.324 201.517V201.517ZM183.352 199.591L182.526 201.245L186.344 200.209C186.458 200.179 186.578 200.185 186.688 200.227L187.516 198.553C187.452 198.531 187.382 198.529 187.316 198.546L183.562 199.564C183.492 199.584 183.422 199.593 183.352 199.591V199.591Z" fill="white"/>
<path d="M175.938 194.754C175.991 194.841 176.062 194.915 176.146 194.971L182.989 199.377C183.08 199.434 183.183 199.471 183.289 199.479L182.324 201.41L175.228 196.841C175.138 196.781 175.063 196.701 175.009 196.608L175.938 194.754L175.938 194.754Z" fill="#1D1E1E"/>
<path d="M182.324 201.517C182.304 201.517 182.284 201.511 182.266 201.5L175.17 196.931C175.066 196.862 174.98 196.77 174.917 196.662C174.908 196.646 174.903 196.629 174.903 196.611C174.902 196.594 174.906 196.576 174.914 196.56L175.843 194.707C175.851 194.69 175.864 194.675 175.88 194.665C175.896 194.654 175.915 194.649 175.934 194.648C175.953 194.647 175.972 194.651 175.989 194.66C176.006 194.669 176.02 194.683 176.03 194.699C176.074 194.773 176.134 194.835 176.205 194.882L183.047 199.287C183.126 199.336 183.213 199.366 183.297 199.372C183.315 199.373 183.331 199.379 183.346 199.388C183.361 199.398 183.373 199.41 183.382 199.426C183.391 199.441 183.395 199.458 183.396 199.476C183.396 199.493 183.393 199.51 183.385 199.526L182.42 201.458C182.411 201.475 182.397 201.49 182.38 201.501C182.363 201.511 182.344 201.517 182.324 201.517V201.517ZM175.132 196.602C175.174 196.661 175.226 196.712 175.287 196.752L182.282 201.256L183.13 199.557C183.061 199.536 182.994 199.506 182.932 199.467L176.088 195.061C176.041 195.03 175.997 194.994 175.958 194.954L175.132 196.602Z" fill="white"/>
<path d="M175.021 190.364C175.074 190.398 175.119 190.443 175.154 190.496C175.189 190.549 175.211 190.608 175.221 190.671L175.844 194.51C175.859 194.597 175.891 194.68 175.938 194.755L175.01 196.608C174.968 196.538 174.94 196.46 174.926 196.379L174.303 192.54C174.295 192.482 174.274 192.425 174.243 192.375C174.211 192.324 174.169 192.281 174.12 192.248L175.02 190.364L175.021 190.364Z" fill="#1D1E1E"/>
<path d="M175.01 196.715C174.991 196.715 174.973 196.71 174.957 196.701C174.941 196.691 174.927 196.678 174.918 196.662C174.869 196.58 174.836 196.49 174.821 196.396L174.198 192.557C174.192 192.513 174.176 192.47 174.153 192.432C174.129 192.394 174.098 192.361 174.061 192.336C174.04 192.322 174.024 192.3 174.017 192.276C174.011 192.251 174.013 192.225 174.024 192.201L174.924 190.318C174.931 190.304 174.94 190.292 174.952 190.282C174.963 190.273 174.977 190.265 174.991 190.261C175.006 190.257 175.021 190.256 175.036 190.258C175.051 190.26 175.065 190.266 175.078 190.274C175.144 190.316 175.2 190.372 175.243 190.437C175.286 190.503 175.315 190.577 175.327 190.654L175.95 194.493C175.963 194.566 175.99 194.638 176.028 194.697C176.049 194.729 176.051 194.769 176.034 194.802L175.105 196.656C175.097 196.673 175.084 196.688 175.068 196.698C175.051 196.708 175.033 196.714 175.014 196.715H175.01L175.01 196.715ZM174.253 192.218C174.337 192.3 174.392 192.408 174.409 192.524L175.027 196.335L175.817 194.758C175.78 194.686 175.753 194.609 175.739 194.529L175.116 190.688C175.108 190.634 175.087 190.583 175.055 190.54L174.253 192.218V192.218Z" fill="white"/>
<path d="M175.021 190.364L174.12 192.247C174.067 192.208 174.004 192.181 173.939 192.169C173.873 192.156 173.805 192.159 173.741 192.177L169.983 193.195C169.899 193.219 169.812 193.225 169.727 193.212L170.73 191.347C170.788 191.349 170.845 191.342 170.901 191.326L174.659 190.307C174.72 190.291 174.783 190.287 174.846 190.297C174.908 190.307 174.968 190.329 175.021 190.364Z" fill="#1D1E1E"/>
<path d="M169.818 193.325C169.782 193.325 169.747 193.323 169.712 193.318C169.695 193.316 169.679 193.309 169.665 193.299C169.65 193.289 169.639 193.276 169.631 193.261C169.623 193.245 169.619 193.228 169.62 193.211C169.62 193.194 169.624 193.177 169.633 193.162L170.636 191.297C170.656 191.261 170.694 191.24 170.734 191.241C170.78 191.242 170.827 191.236 170.871 191.223L174.63 190.204C174.706 190.184 174.785 190.18 174.862 190.192C174.939 190.204 175.012 190.232 175.078 190.274C175.1 190.288 175.116 190.309 175.123 190.334C175.13 190.359 175.128 190.386 175.117 190.41L174.217 192.293C174.21 192.308 174.2 192.32 174.188 192.33C174.176 192.34 174.161 192.347 174.146 192.351C174.131 192.355 174.115 192.355 174.1 192.352C174.084 192.349 174.07 192.343 174.057 192.333C174.016 192.303 173.969 192.283 173.919 192.274C173.869 192.264 173.817 192.266 173.768 192.28L170.01 193.298C169.948 193.316 169.883 193.325 169.817 193.325L169.818 193.325ZM170.795 191.453L169.906 193.104C169.922 193.101 169.937 193.097 169.953 193.093L173.713 192.074C173.832 192.041 173.959 192.05 174.073 192.098L174.878 190.414C174.816 190.395 174.749 190.393 174.686 190.41L170.928 191.429C170.885 191.441 170.84 191.449 170.795 191.453V191.453Z" fill="white"/>
<path d="M158.121 183.36L170.356 191.241C170.467 191.313 170.598 191.351 170.73 191.348L169.727 193.212H169.724C169.623 193.202 169.525 193.165 169.438 193.111L156.911 185.042L158.122 183.36L158.121 183.36Z" fill="#1D1E1E"/>
<path d="M169.726 193.319H169.722C169.6 193.307 169.484 193.267 169.381 193.201L156.853 185.131C156.841 185.123 156.831 185.113 156.822 185.101C156.814 185.089 156.809 185.076 156.806 185.061C156.803 185.047 156.804 185.033 156.807 185.018C156.81 185.004 156.816 184.991 156.824 184.979L158.035 183.297C158.051 183.275 158.075 183.26 158.102 183.255C158.129 183.25 158.156 183.255 158.179 183.27L170.414 191.151C170.507 191.212 170.617 191.244 170.728 191.241C170.762 191.241 170.802 191.26 170.822 191.292C170.831 191.308 170.837 191.326 170.837 191.345C170.838 191.364 170.833 191.382 170.824 191.398L169.821 193.263C169.812 193.28 169.798 193.294 169.781 193.304C169.765 193.314 169.746 193.319 169.727 193.319L169.726 193.319ZM157.063 185.013L169.496 193.021C169.549 193.055 169.607 193.08 169.668 193.095L170.56 191.439C170.467 191.419 170.378 191.382 170.298 191.33L158.149 183.504L157.063 185.013Z" fill="white"/>
<path d="M128.99 157.181C128.911 157.299 128.833 157.418 128.755 157.537C122.846 166.706 125.489 178.93 134.663 184.84C142.138 189.651 151.638 188.79 158.099 183.345L158.121 183.36L156.911 185.042C150.538 190.704 140.991 191.76 133.415 187.083C124.215 181.406 121.287 169.209 126.924 159.984C127.53 158.991 128.221 158.053 128.99 157.181Z" fill="#1D1E1E"/>
<path d="M143.74 190.134C140.075 190.134 136.52 189.125 133.359 187.174C128.884 184.413 125.739 180.05 124.502 174.889C123.264 169.726 124.092 164.413 126.833 159.928C127.442 158.931 128.137 157.988 128.91 157.11C128.928 157.09 128.953 157.077 128.98 157.074C129.007 157.071 129.034 157.079 129.056 157.096C129.077 157.112 129.091 157.136 129.096 157.163C129.1 157.19 129.094 157.217 129.079 157.24C129 157.358 128.922 157.477 128.844 157.596C122.976 166.701 125.613 178.883 134.721 184.75C138.005 186.864 141.706 187.907 145.388 187.907C149.897 187.907 154.377 186.342 158.031 183.264C158.048 183.249 158.07 183.24 158.093 183.239C158.115 183.237 158.138 183.243 158.157 183.256L158.179 183.27C158.192 183.278 158.202 183.288 158.21 183.3C158.218 183.312 158.224 183.325 158.227 183.34C158.229 183.354 158.229 183.369 158.226 183.383C158.223 183.397 158.217 183.41 158.208 183.422L156.998 185.104C156.993 185.11 156.988 185.116 156.982 185.121C153.85 187.904 149.817 189.653 145.624 190.046C144.994 190.105 144.365 190.134 143.74 190.134V190.134ZM128.027 158.54C127.667 159.024 127.329 159.525 127.015 160.039C121.395 169.236 124.291 181.327 133.471 186.992C136.623 188.938 140.197 189.892 143.76 189.892C148.474 189.892 153.166 188.222 156.831 184.97L157.623 183.87C154.532 186.287 150.705 187.764 146.769 188.045C142.457 188.353 138.251 187.276 134.606 184.929C125.747 179.224 122.945 167.61 128.027 158.54Z" fill="white"/>
<path d="M162.578 177.938L209.806 208.356L211.776 209.625L212.005 210.312C212.049 210.443 212.063 210.581 212.046 210.718C212.028 210.854 211.979 210.985 211.904 211.1C211.761 211.319 211.526 211.475 211.237 211.504L203.439 212.312C203.309 212.326 203.178 212.311 203.054 212.268C202.983 212.245 202.916 212.212 202.853 212.172L201.411 211.243C201.326 211.187 201.255 211.114 201.201 211.028C201.155 210.952 201.124 210.869 201.109 210.781L200.486 206.944C200.477 206.885 200.456 206.828 200.424 206.777C200.393 206.726 200.35 206.683 200.301 206.649C200.247 206.61 200.185 206.583 200.12 206.571C200.054 206.56 199.987 206.563 199.923 206.581L196.167 207.597C196.088 207.619 196.005 207.626 195.923 207.617C195.815 207.606 195.712 207.571 195.621 207.514L188.78 203.107C188.721 203.069 188.668 203.023 188.624 202.969C188.547 202.876 188.496 202.764 188.478 202.645L187.855 198.806C187.845 198.745 187.822 198.687 187.788 198.635C187.755 198.584 187.71 198.54 187.658 198.506C187.605 198.47 187.544 198.445 187.481 198.434C187.417 198.423 187.352 198.426 187.289 198.443L183.534 199.462C183.455 199.484 183.372 199.49 183.291 199.479H183.289C183.183 199.471 183.08 199.434 182.989 199.377L176.146 194.971C176.062 194.915 175.991 194.841 175.938 194.755C175.891 194.68 175.859 194.597 175.844 194.51L175.221 190.671C175.211 190.608 175.188 190.549 175.154 190.496C175.119 190.443 175.074 190.398 175.021 190.364C174.967 190.33 174.908 190.307 174.845 190.297C174.783 190.287 174.719 190.291 174.658 190.307L170.9 191.326C170.845 191.342 170.788 191.349 170.73 191.348C170.597 191.351 170.467 191.313 170.356 191.241L158.121 183.36L158.183 183.276V183.273C159.618 182.05 160.903 180.599 161.977 178.933C162.187 178.607 162.388 178.275 162.578 177.938V177.938Z" fill="white"/>
<path d="M203.344 212.424C203.234 212.424 203.124 212.405 203.019 212.369C202.94 212.343 202.865 212.306 202.795 212.261L201.353 211.332C201.255 211.268 201.173 211.184 201.11 211.085C201.057 210.997 201.021 210.9 201.004 210.799L200.38 206.961C200.374 206.916 200.358 206.873 200.334 206.834C200.31 206.796 200.279 206.763 200.241 206.737C200.2 206.707 200.152 206.686 200.102 206.677C200.052 206.668 200 206.67 199.951 206.683L196.195 207.7C196.102 207.725 196.006 207.733 195.91 207.722C195.787 207.71 195.668 207.67 195.564 207.605L188.722 203.196C188.653 203.153 188.592 203.099 188.541 203.036C188.452 202.928 188.394 202.799 188.372 202.662L187.749 198.823C187.742 198.777 187.725 198.733 187.699 198.694C187.673 198.654 187.64 198.621 187.6 198.596C187.559 198.568 187.513 198.549 187.464 198.54C187.415 198.531 187.364 198.533 187.316 198.546L183.562 199.564C183.469 199.591 183.372 199.597 183.277 199.584C183.154 199.573 183.036 199.533 182.932 199.467L176.088 195.061C175.99 194.996 175.907 194.91 175.847 194.809C175.793 194.724 175.756 194.628 175.739 194.528L175.115 190.687C175.108 190.64 175.091 190.594 175.065 190.554C175.038 190.513 175.004 190.479 174.963 190.453C174.922 190.427 174.876 190.41 174.829 190.402C174.781 190.395 174.732 190.397 174.686 190.41L170.928 191.429C170.863 191.447 170.795 191.456 170.726 191.454C170.577 191.458 170.427 191.414 170.297 191.33L158.063 183.449C158.051 183.441 158.04 183.431 158.032 183.419C158.024 183.407 158.019 183.393 158.016 183.379C158.013 183.364 158.014 183.35 158.017 183.336C158.02 183.321 158.026 183.308 158.035 183.296L158.089 183.222C158.095 183.21 158.104 183.2 158.113 183.192C159.571 181.95 160.841 180.498 161.887 178.875C162.096 178.551 162.296 178.221 162.485 177.885C162.492 177.872 162.502 177.861 162.514 177.852C162.525 177.844 162.538 177.837 162.553 177.834C162.567 177.83 162.581 177.83 162.596 177.832C162.61 177.834 162.624 177.84 162.636 177.848L211.834 209.535C211.854 209.548 211.87 209.568 211.877 209.591L212.106 210.278C212.156 210.424 212.171 210.579 212.151 210.731C212.132 210.884 212.078 211.03 211.993 211.158C211.827 211.414 211.555 211.579 211.248 211.61L203.45 212.418C203.415 212.422 203.379 212.424 203.344 212.424L203.344 212.424ZM200.043 206.458C200.158 206.458 200.27 206.494 200.364 206.563C200.485 206.644 200.569 206.779 200.591 206.928L201.214 210.764C201.227 210.838 201.254 210.911 201.292 210.972C201.337 211.045 201.398 211.106 201.469 211.153L202.911 212.082C202.966 212.118 203.025 212.146 203.087 212.167C203.197 212.205 203.313 212.218 203.428 212.206L211.227 211.398C211.469 211.373 211.683 211.243 211.814 211.042C211.881 210.94 211.924 210.825 211.94 210.704C211.955 210.584 211.943 210.461 211.904 210.346L211.687 209.694L162.615 178.088C162.441 178.394 162.258 178.695 162.067 178.991C161.015 180.622 159.741 182.082 158.277 183.333L170.414 191.151C170.507 191.212 170.617 191.243 170.728 191.241C170.778 191.242 170.825 191.236 170.871 191.223L174.63 190.204C174.706 190.184 174.784 190.18 174.861 190.192C174.939 190.204 175.012 190.232 175.078 190.274C175.144 190.316 175.2 190.372 175.243 190.437C175.286 190.503 175.314 190.576 175.326 190.654L175.949 194.492C175.963 194.566 175.99 194.637 176.028 194.697C176.072 194.771 176.133 194.834 176.205 194.882L183.047 199.287C183.126 199.336 183.212 199.366 183.297 199.372C183.371 199.382 183.438 199.377 183.505 199.358L187.261 198.339C187.339 198.319 187.42 198.316 187.498 198.329C187.577 198.343 187.652 198.373 187.718 198.418C187.782 198.459 187.837 198.514 187.879 198.578C187.92 198.642 187.948 198.714 187.96 198.789L188.583 202.628C188.599 202.728 188.641 202.823 188.706 202.901C188.743 202.946 188.787 202.985 188.837 203.016L195.678 207.424C195.755 207.472 195.842 207.501 195.933 207.51C196.002 207.518 196.072 207.512 196.139 207.494L199.895 206.477C199.943 206.464 199.993 206.457 200.043 206.457L200.043 206.458Z" fill="#1D1E1E"/>
<path d="M164.393 173.578L209.148 202.405C209.321 202.516 209.453 202.683 209.517 202.88L210.933 207.108L208.965 205.841V205.839L163.337 176.454C163.467 176.171 163.59 175.885 163.706 175.595C163.972 174.936 164.202 174.263 164.393 173.578Z" fill="white"/>
<path d="M210.933 207.214C210.912 207.214 210.892 207.208 210.875 207.197L208.907 205.931C208.901 205.927 208.896 205.923 208.891 205.918L163.279 176.544C163.258 176.53 163.242 176.508 163.235 176.484C163.228 176.459 163.229 176.433 163.24 176.409C163.369 176.128 163.492 175.843 163.607 175.556C163.871 174.9 164.1 174.23 164.29 173.549C164.295 173.533 164.303 173.519 164.314 173.506C164.326 173.494 164.34 173.485 164.355 173.479C164.371 173.473 164.388 173.471 164.404 173.472C164.421 173.474 164.437 173.48 164.451 173.489L209.206 202.315C209.402 202.442 209.548 202.63 209.618 202.846L211.034 207.073C211.039 207.089 211.041 207.107 211.038 207.123C211.036 207.14 211.029 207.156 211.019 207.169C211.009 207.183 210.996 207.194 210.981 207.202C210.966 207.21 210.95 207.214 210.933 207.214V207.214ZM209.039 205.762L210.735 206.853L209.416 202.913C209.36 202.743 209.245 202.594 209.09 202.494L164.456 173.746C164.272 174.387 164.054 175.017 163.805 175.635C163.7 175.897 163.589 176.157 163.473 176.414L209.023 205.749C209.029 205.753 209.034 205.757 209.039 205.761V205.762Z" fill="#1D1E1E"/>
<path d="M163.337 176.454L208.965 205.839V205.841L210.933 207.107L211.776 209.625L209.806 208.356L162.579 177.938C162.852 177.454 163.105 176.959 163.337 176.454Z" fill="#F45100"/>
<path d="M211.776 209.731C211.756 209.731 211.736 209.726 211.718 209.714L162.521 178.027C162.498 178.013 162.481 177.99 162.475 177.963C162.468 177.937 162.472 177.909 162.486 177.885C162.758 177.404 163.009 176.912 163.24 176.41C163.247 176.396 163.256 176.383 163.268 176.373C163.279 176.363 163.293 176.356 163.307 176.352C163.322 176.347 163.338 176.346 163.353 176.349C163.368 176.351 163.382 176.356 163.395 176.364L209.023 205.749C209.029 205.753 209.034 205.757 209.039 205.762L210.991 207.018C211.011 207.031 211.026 207.051 211.034 207.074L211.877 209.591C211.883 209.607 211.884 209.624 211.882 209.641C211.879 209.657 211.872 209.673 211.863 209.687C211.853 209.701 211.84 209.712 211.825 209.72C211.81 209.727 211.793 209.731 211.776 209.731H211.776ZM162.721 177.902L211.578 209.37L210.844 207.177L208.907 205.931C208.902 205.927 208.896 205.923 208.891 205.918L163.383 176.61C163.178 177.049 162.957 177.48 162.721 177.902L162.721 177.902Z" fill="#F45100"/>
<path d="M140.804 159.371C143.118 160.863 143.785 163.945 142.295 166.257C141.972 166.758 141.576 167.179 141.127 167.52C142.08 165.254 141.236 162.549 138.997 161.27C137.24 160.265 135.061 160.463 133.507 161.646C133.619 161.372 133.757 161.11 133.918 160.861C135.409 158.551 138.491 157.882 140.804 159.371Z" fill="#1D1E1E"/>
<path d="M141.127 167.627C141.109 167.627 141.092 167.622 141.077 167.614C141.061 167.606 141.048 167.593 141.038 167.579C141.028 167.564 141.022 167.547 141.021 167.53C141.019 167.512 141.022 167.495 141.029 167.478C141.981 165.215 141.084 162.585 138.944 161.362C137.275 160.407 135.116 160.556 133.572 161.731C133.553 161.745 133.53 161.753 133.507 161.753C133.483 161.753 133.461 161.745 133.442 161.731C133.424 161.716 133.41 161.696 133.404 161.674C133.398 161.651 133.399 161.627 133.408 161.605C133.524 161.325 133.664 161.057 133.829 160.803C135.349 158.446 138.505 157.763 140.862 159.281C143.221 160.802 143.904 163.958 142.385 166.315C142.061 166.816 141.66 167.25 141.192 167.605C141.173 167.619 141.15 167.626 141.127 167.626L141.127 167.627ZM136.554 160.523C137.42 160.523 138.284 160.739 139.05 161.177C141.166 162.386 142.117 164.912 141.367 167.184C141.689 166.894 141.971 166.563 142.205 166.199C143.66 163.941 143.006 160.918 140.747 159.461C138.488 158.006 135.465 158.66 134.008 160.919C133.921 161.053 133.842 161.191 133.769 161.333C134.605 160.796 135.58 160.523 136.554 160.523L136.554 160.523Z" fill="white"/>
<path d="M128.991 157.181C128.912 157.299 128.833 157.418 128.755 157.537C122.847 166.706 125.489 178.93 134.664 184.84C142.138 189.651 151.639 188.79 158.1 183.345C158.127 183.321 158.155 183.297 158.183 183.276V183.273C159.619 182.05 160.904 180.599 161.978 178.933C162.188 178.607 162.389 178.275 162.579 177.937C162.853 177.454 163.106 176.959 163.338 176.454C163.468 176.171 163.591 175.884 163.706 175.595C163.973 174.936 164.202 174.263 164.394 173.578C166.682 165.446 163.542 156.442 156.068 151.628C147.013 145.8 134.988 148.299 128.991 157.181ZM140.805 159.371C143.118 160.863 143.786 163.944 142.295 166.257C141.972 166.758 141.577 167.179 141.127 167.52C139.508 168.755 137.22 168.912 135.409 167.745C133.351 166.419 132.596 163.83 133.508 161.646C133.62 161.372 133.758 161.11 133.919 160.861C135.409 158.551 138.491 157.881 140.805 159.371Z" fill="white" stroke="#1D1E1E" stroke-width="0.213481" stroke-linecap="round" stroke-linejoin="round"/>
<path d="M128.99 157.181C128.911 157.299 128.833 157.418 128.755 157.537C122.846 166.706 125.489 178.93 134.663 184.84C142.138 189.651 151.638 188.79 158.099 183.345C158.127 183.322 158.155 183.298 158.183 183.276V183.273C159.619 182.051 160.903 180.599 161.978 178.934C162.188 178.608 162.388 178.275 162.579 177.938C162.852 177.454 163.105 176.959 163.337 176.454C163.467 176.171 163.59 175.885 163.706 175.595C163.972 174.936 164.202 174.263 164.393 173.578C166.682 165.446 163.542 156.442 156.067 151.629C147.012 145.8 134.987 148.299 128.99 157.181ZM155.252 152.893C162.157 157.341 165.058 165.659 162.945 173.171C162.767 173.803 162.555 174.425 162.31 175.034C162.203 175.301 162.089 175.566 161.969 175.828C161.755 176.291 161.521 176.749 161.268 177.198C161.091 177.51 160.906 177.817 160.712 178.118C159.746 179.62 158.565 180.971 157.206 182.128V182.131C157.18 182.15 157.155 182.172 157.129 182.194C151.16 187.225 142.384 188.02 135.478 183.575C127.002 178.117 124.561 166.823 130.02 158.352C130.092 158.241 130.165 158.13 130.236 158.022C135.778 149.818 146.886 147.509 155.252 152.893Z" fill="white" stroke="#1D1E1E" stroke-width="0.213481" stroke-linecap="round" stroke-linejoin="round"/>
<path d="M155.252 152.893C160.623 156.353 163.57 162.152 163.62 168.094C163.232 162.555 160.325 157.266 155.297 154.025C146.932 148.641 135.824 150.949 130.282 159.153C130.211 159.262 130.137 159.373 130.066 159.483C128.065 162.589 127.125 166.072 127.155 169.508C126.886 165.712 127.8 161.799 130.02 158.352C130.091 158.241 130.165 158.131 130.236 158.022C135.778 149.818 146.886 147.509 155.252 152.893Z" fill="#1D1E1E"/>
<path d="M127.155 169.615C127.128 169.615 127.102 169.605 127.083 169.586C127.063 169.568 127.051 169.543 127.049 169.516C126.766 165.54 127.763 161.659 129.931 158.294C129.982 158.214 130.036 158.133 130.088 158.053L130.147 157.964C132.847 153.967 136.936 151.231 141.664 150.258C146.398 149.283 151.244 150.187 155.309 152.804C160.527 156.165 163.674 161.88 163.727 168.093C163.727 168.12 163.717 168.147 163.698 168.167C163.679 168.187 163.652 168.199 163.625 168.2C163.57 168.205 163.518 168.159 163.514 168.101C163.11 162.341 160.094 157.243 155.24 154.115C147.006 148.815 135.849 151.102 130.371 159.213L130.31 159.306C130.258 159.384 130.206 159.463 130.156 159.541C128.232 162.527 127.231 165.973 127.262 169.507C127.262 169.535 127.252 169.562 127.233 169.582C127.214 169.602 127.187 169.614 127.16 169.615H127.155L127.155 169.615ZM145.436 150.127C139.577 150.127 133.806 152.929 130.325 158.082L130.266 158.17C130.214 158.25 130.162 158.33 130.11 158.41C128.588 160.773 127.65 163.393 127.335 166.121C127.76 163.752 128.652 161.481 129.976 159.426C130.027 159.346 130.08 159.267 130.131 159.189L130.193 159.095C132.892 155.099 136.982 152.362 141.709 151.389C146.444 150.414 151.29 151.319 155.355 153.935C157.829 155.53 159.826 157.619 161.291 160.144C162.119 161.571 162.752 163.116 163.171 164.717C162.228 159.925 159.388 155.685 155.194 152.983C152.191 151.051 148.799 150.127 145.436 150.127Z" fill="#1D1E1E"/>
</g>
<defs>
<clipPath id="clip0_596_64246">
<rect width="204.8" height="201.067" fill="white" transform="translate(18.4531 74.3467)"/>
</clipPath>
<clipPath id="clip1_596_64246">
<rect width="163.52" height="126.933" fill="white" transform="translate(141.547 146.453)"/>
</clipPath>
<clipPath id="clip2_596_64246">
<rect width="88.2133" height="65.92" fill="white" transform="translate(123.947 148.373)"/>
</clipPath>
</defs>
</svg>
