<svg viewBox="0 0 336 336" fill="none" xmlns="http://www.w3.org/2000/svg">
<rect rx="24" fill="#F5F5F5"/>
<g clip-path="url(#clip0_596_64329)">
<path d="M78.3663 251.703C78.0781 252.246 77.7765 252.782 77.4618 253.311C76.6961 254.595 75.8568 255.835 74.9483 257.022C74.161 258.052 73.3247 259.043 72.4422 259.993C71.6244 260.873 70.7688 261.717 69.8778 262.522C69.0141 263.304 68.1184 264.049 67.193 264.755C65.2888 266.21 63.2646 267.5 61.142 268.611C59.9444 269.238 58.717 269.807 57.4643 270.316C55.9235 270.941 54.3462 271.473 52.7412 271.908C52.0156 272.105 51.2848 272.281 50.5495 272.438C36.288 275.469 23.3383 270.21 17.0781 260.116L22.4291 268.744C28.6893 278.839 41.6388 284.097 55.9004 281.066C56.6357 280.91 57.3666 280.733 58.0921 280.536C59.6972 280.101 61.2744 279.569 62.8153 278.944C64.068 278.436 65.2953 277.867 66.493 277.24C68.6156 276.128 70.6398 274.838 72.5439 273.384C73.4694 272.677 74.3651 271.932 75.2288 271.151C76.1198 270.345 76.9753 269.501 77.7931 268.621C78.6755 267.672 79.5119 266.681 80.2991 265.651C81.2077 264.463 82.047 263.224 82.8127 261.939C83.1273 261.411 83.4289 260.875 83.7171 260.331L78.3662 251.703L78.3663 251.703Z" fill="#1D1E1E"/>
<path d="M47.9294 282.027C43.8033 282.027 39.8129 281.323 36.1262 279.927C30.237 277.697 25.4692 273.85 22.3382 268.801L16.9872 260.172C16.9738 260.148 16.9702 260.12 16.977 260.094C16.9839 260.067 17.0008 260.044 17.0241 260.029C17.0475 260.015 17.0755 260.01 17.1024 260.016C17.1293 260.021 17.153 260.037 17.1686 260.06C22.3586 268.429 31.8617 273.182 42.5809 273.183C45.1735 273.183 47.8354 272.905 50.5269 272.333C51.2602 272.177 51.9891 272.001 52.7128 271.805C54.3136 271.371 55.8868 270.84 57.4238 270.217C59.8056 269.249 62.0934 268.065 64.2584 266.679C66.2215 265.423 68.077 264.006 69.8058 262.443C70.6944 261.64 71.5478 260.798 72.3637 259.92C73.2436 258.973 74.0777 257.984 74.863 256.958C75.769 255.773 76.6059 254.537 77.3696 253.256C77.6834 252.729 77.9841 252.195 78.2715 251.653C78.2803 251.636 78.2933 251.622 78.3093 251.612C78.3252 251.602 78.3435 251.597 78.3622 251.596C78.4045 251.593 78.4364 251.614 78.4566 251.647L83.8075 260.275C83.8275 260.307 83.8288 260.348 83.8111 260.381C83.522 260.926 83.2196 261.464 82.9041 261.994C82.136 263.282 81.2945 264.524 80.3837 265.716C79.5941 266.748 78.7556 267.742 77.8709 268.694C77.0509 269.576 76.1931 270.422 75.3 271.23C74.434 272.013 73.5361 272.76 72.6085 273.469C71.6754 274.181 70.7132 274.855 69.7245 275.488C68.6908 276.149 67.629 276.765 66.5421 277.334C65.3413 277.963 64.1108 278.533 62.8549 279.043C61.31 279.67 59.7287 280.203 58.1197 280.64C57.3922 280.837 56.6595 281.014 55.9223 281.171C53.2324 281.742 50.5533 282.027 47.9294 282.027ZM18.9249 262.892L22.5197 268.688C28.965 279.081 42.0589 283.899 55.878 280.962C56.6113 280.806 57.3403 280.63 58.0639 280.434C59.6646 279.999 61.2378 279.469 62.7748 278.845C64.0242 278.338 65.2484 277.77 66.4432 277.145C67.5246 276.579 68.5811 275.966 69.6095 275.308C71.5726 274.052 73.4281 272.635 75.1569 271.072C76.0455 270.268 76.8989 269.426 77.7147 268.548C78.5946 267.601 79.4287 266.613 80.2141 265.586C81.12 264.401 81.957 263.165 82.7207 261.884C83.0241 261.375 83.3152 260.858 83.5939 260.335L78.373 251.916C78.1105 252.405 77.8371 252.888 77.5532 253.365C76.7852 254.653 75.9437 255.896 75.0328 257.087C74.2433 258.119 73.4048 259.113 72.5202 260.065C71.7001 260.947 70.8423 261.793 69.9491 262.602C69.0832 263.384 68.1852 264.131 67.2576 264.84C66.3245 265.553 65.3623 266.226 64.3736 266.859C62.1975 268.252 59.8981 269.442 57.5042 270.414C55.9592 271.041 54.3779 271.574 52.7689 272.011C52.0414 272.208 51.3086 272.385 50.5714 272.542C43.6518 274.013 36.8064 273.583 30.7752 271.299C25.9942 269.488 21.9519 266.611 18.9249 262.892Z" fill="white"/>
<path d="M62.331 236.33C62.4495 236.842 62.5342 237.361 62.5845 237.885C61.5146 237.217 60.3225 236.704 59.0386 236.364L53.6865 227.736C53.7833 227.762 53.8801 227.789 53.9757 227.817C54.1947 227.879 54.41 227.946 54.6227 228.02C54.6711 228.037 54.7195 228.054 54.7679 228.071C55.5238 228.339 56.2527 228.677 56.9446 229.083C57.0198 229.126 57.0949 229.17 57.1688 229.216C57.6105 229.487 58.0339 229.786 58.436 230.113C58.4882 230.156 58.5418 230.2 58.5927 230.243C59.3337 230.862 59.9921 231.574 60.5517 232.361C60.5784 232.399 60.6064 232.437 60.6332 232.477C60.6422 232.488 60.651 232.502 60.6587 232.515C60.7022 232.576 60.7442 232.639 60.7848 232.702C60.8357 232.779 60.8854 232.856 60.9338 232.935C60.949 232.958 60.963 232.981 60.9758 233.004C61.5898 234.009 62.0509 235.123 62.331 236.328V236.329V236.33Z" fill="#1D1E1E"/>
<path d="M62.5847 237.992C62.5651 237.992 62.5456 237.986 62.5283 237.975C61.4625 237.311 60.2792 236.803 59.0115 236.467C58.9852 236.46 58.9625 236.444 58.9481 236.42L53.5961 227.793C53.5848 227.775 53.5793 227.754 53.5802 227.732C53.581 227.711 53.5883 227.69 53.601 227.673C53.6137 227.656 53.6312 227.643 53.6513 227.636C53.6715 227.629 53.6933 227.628 53.7139 227.633C53.8117 227.659 53.9094 227.686 54.0058 227.714C54.2294 227.778 54.4489 227.847 54.658 227.92C54.7065 227.936 54.7557 227.953 54.8048 227.971C55.5666 228.241 56.3012 228.582 56.9988 228.991C57.0744 229.034 57.1504 229.079 57.2253 229.126C57.6709 229.399 58.0979 229.701 58.5037 230.03L58.5582 230.075C58.5933 230.104 58.6284 230.133 58.6623 230.162C59.4099 230.787 60.0742 231.506 60.6391 232.3L60.6679 232.34C60.6859 232.365 60.7041 232.391 60.722 232.417C60.7294 232.427 60.741 232.444 60.7508 232.461C60.7938 232.521 60.8353 232.583 60.8752 232.645C60.9258 232.721 60.9761 232.8 61.0253 232.88C61.04 232.902 61.0555 232.927 61.0696 232.953C61.697 233.979 62.1572 235.108 62.4355 236.304C62.5549 236.822 62.6403 237.346 62.6912 237.875C62.6927 237.889 62.691 237.904 62.6863 237.918C62.6817 237.933 62.6741 237.946 62.6641 237.957C62.6541 237.968 62.6419 237.976 62.6283 237.983C62.6147 237.989 62.5999 237.992 62.585 237.992L62.5847 237.992ZM59.1072 236.272C60.3071 236.594 61.4322 237.067 62.4557 237.681C62.4046 237.232 62.3278 236.786 62.2258 236.346C61.9525 235.175 61.5015 234.069 60.885 233.06C60.8725 233.037 60.8593 233.016 60.8451 232.994C60.7969 232.916 60.7473 232.838 60.6962 232.762C60.6552 232.698 60.6141 232.637 60.5718 232.577C60.5618 232.561 60.5556 232.551 60.5491 232.542C60.5309 232.516 60.5124 232.49 60.4936 232.464L60.4645 232.422C59.9101 231.643 59.2581 230.938 58.5244 230.325C58.4908 230.296 58.4566 230.268 58.4225 230.24L58.368 230.195C57.9028 229.818 57.4091 229.477 56.8914 229.175C56.205 228.773 55.4821 228.437 54.7323 228.172C54.6836 228.154 54.6361 228.138 54.5884 228.122C54.3825 228.05 54.1668 227.982 53.9464 227.919L53.921 227.912L59.107 236.272L59.1072 236.272Z" fill="white"/>
<path d="M59.0385 236.364C56.8515 235.787 54.4047 235.715 51.8574 236.256C50.8444 236.472 49.8523 236.776 48.8923 237.164C48.3476 237.384 47.8141 237.631 47.2938 237.904C46.3781 238.383 45.505 238.94 44.684 239.567C44.2842 239.873 43.8971 240.194 43.5237 240.532C43.1403 240.879 42.7718 241.243 42.4194 241.622C42.0368 242.033 41.6742 242.463 41.3329 242.909C40.9408 243.423 40.5785 243.959 40.2477 244.514C39.7663 245.326 39.3587 246.173 39.0352 247.041C38.4569 248.595 38.1488 250.223 38.1589 251.865C38.1602 252.214 38.1768 252.564 38.2086 252.915L38.2162 252.994C36.8292 252.132 35.6498 251.01 34.7493 249.678L34.283 248.926C34.2461 248.86 34.2105 248.795 34.1748 248.729C33.9489 248.309 33.7502 247.875 33.58 247.43C33.3775 246.901 33.2145 246.358 33.0922 245.805C32.9821 245.304 32.9038 244.797 32.8578 244.286C32.8262 243.937 32.8093 243.586 32.8069 243.236C32.7966 241.595 33.1062 239.966 33.6845 238.412C34.008 237.544 34.4143 236.698 34.897 235.885C35.2277 235.331 35.5901 234.795 35.9822 234.282C36.3232 233.835 36.6858 233.405 37.0686 232.994C37.4204 232.615 37.7889 232.251 38.1729 231.904C38.5449 231.568 38.9307 231.245 39.332 230.938C39.7343 230.632 40.149 230.342 40.5751 230.07C41.019 229.785 41.4755 229.52 41.943 229.276C42.4634 229.003 42.9968 228.756 43.5415 228.536C44.206 228.267 44.8861 228.038 45.5781 227.851C45.8855 227.768 46.1951 227.693 46.5066 227.627C49.0527 227.086 51.5007 227.158 53.6863 227.736L59.0383 236.364L59.0385 236.364Z" fill="#F45100"/>
<path d="M38.2128 253.1C38.1942 253.1 38.1759 253.094 38.1601 253.085C36.7452 252.205 35.568 251.079 34.6612 249.737L34.1926 248.982C34.1529 248.911 34.1169 248.846 34.0811 248.779C33.8531 248.355 33.6525 247.917 33.4806 247.468C33.2765 246.934 33.1119 246.386 32.9882 245.828C32.8773 245.322 32.7984 244.811 32.7518 244.296C32.7201 243.943 32.7029 243.59 32.7004 243.236C32.6903 241.614 32.9878 239.979 33.5846 238.375C33.9087 237.505 34.3195 236.649 34.8055 235.831C35.1385 235.272 35.5031 234.734 35.8975 234.217C36.2407 233.768 36.6055 233.335 36.9906 232.921C37.3446 232.54 37.7152 232.174 38.1014 231.825C38.4766 231.485 38.8656 231.161 39.2673 230.854C39.672 230.546 40.0892 230.254 40.5177 229.98C40.9644 229.693 41.4236 229.427 41.8939 229.182C43.0569 228.572 44.283 228.091 45.5502 227.748C45.8595 227.664 46.1711 227.589 46.4846 227.522C48.9551 226.997 51.4548 227.035 53.7137 227.633C53.7401 227.64 53.7627 227.657 53.7771 227.68L59.1292 236.308C59.1404 236.326 59.146 236.347 59.1451 236.368C59.1442 236.39 59.137 236.41 59.1243 236.427C59.1116 236.445 59.094 236.457 59.0738 236.465C59.0537 236.472 59.0319 236.473 59.0112 236.467C56.7824 235.879 54.3163 235.842 51.8797 236.36C50.3001 236.697 48.7739 237.248 47.3435 237.998C46.4331 238.475 45.5651 239.028 44.749 239.652C44.3516 239.956 43.9667 240.276 43.5954 240.611C43.2143 240.956 42.8481 241.318 42.4977 241.694C42.1175 242.103 41.7572 242.53 41.418 242.974C41.0285 243.485 40.6684 244.017 40.3396 244.569C39.8594 245.378 39.4541 246.222 39.1354 247.078C38.5484 248.655 38.2559 250.265 38.2659 251.864C38.2671 252.208 38.2837 252.559 38.3152 252.905L38.3221 252.978C38.3261 253.019 38.3069 253.061 38.2725 253.082C38.2545 253.093 38.2339 253.099 38.2127 253.099L38.2128 253.1ZM49.9362 227.368C48.8126 227.368 47.6678 227.489 46.529 227.731C46.2266 227.795 45.9162 227.87 45.6062 227.954C44.3538 228.293 43.1421 228.769 41.9927 229.371C41.5279 229.613 41.0741 229.877 40.6327 230.16C40.2092 230.431 39.7969 230.719 39.3968 231.023C38.9999 231.327 38.6155 231.648 38.2446 231.983C37.863 232.328 37.4968 232.689 37.1471 233.067C36.7666 233.475 36.4062 233.903 36.0672 234.347C35.6777 234.857 35.3177 235.389 34.9889 235.94C34.5094 236.747 34.1042 237.592 33.7847 238.449C33.1969 240.029 32.9039 241.639 32.9138 243.235C32.9164 243.587 32.9334 243.937 32.9644 244.277C33.0103 244.784 33.0884 245.29 33.1967 245.782C33.318 246.329 33.4795 246.867 33.6799 247.391C33.8485 247.832 34.0467 248.265 34.2691 248.678C34.3046 248.744 34.3399 248.809 34.3766 248.874L34.8403 249.621C35.6889 250.877 36.7824 251.942 38.091 252.788C38.0666 252.481 38.0537 252.173 38.0525 251.865C38.0424 250.241 38.3394 248.606 38.9354 247.004C39.2587 246.136 39.6694 245.28 40.1563 244.46C40.4893 243.901 40.8539 243.362 41.2484 242.845C41.5918 242.396 41.9566 241.963 42.3415 241.549C42.696 241.168 43.0665 240.802 43.4521 240.453C43.8278 240.114 44.2173 239.79 44.6194 239.483C45.0235 239.174 45.4403 238.882 45.8685 238.608C46.3154 238.322 46.7745 238.056 47.2446 237.81C48.6922 237.051 50.2368 236.493 51.8355 236.152C54.2115 235.647 56.6163 235.663 58.8085 236.196L53.6183 227.829C52.4438 227.522 51.2035 227.369 49.9362 227.369V227.368Z" fill="white"/>
<path d="M44.899 209.814C50.6505 208.591 56.1871 208.717 61.1586 209.964L53.6866 227.736C51.5006 227.158 49.0528 227.086 46.5062 227.627C38.2958 229.372 32.1848 236.831 32.8574 244.286C33.0116 245.995 33.509 247.555 34.2831 248.925L16.4725 259.088C14.7176 255.942 13.5904 252.368 13.2375 248.456C11.6772 231.162 25.8527 213.862 44.899 209.814Z" fill="#F45100"/>
<path d="M16.4727 259.194C16.4537 259.194 16.435 259.189 16.4186 259.18C16.4022 259.17 16.3887 259.156 16.3795 259.14C14.5708 255.897 13.4778 252.306 13.1313 248.466C12.3741 240.074 15.2604 231.421 21.2584 224.1C27.2537 216.783 35.6416 211.672 44.877 209.709C50.4377 208.527 56.0767 208.58 61.1848 209.861C61.1997 209.865 61.2137 209.871 61.2257 209.881C61.2377 209.891 61.2475 209.903 61.2544 209.917C61.2612 209.93 61.2651 209.945 61.2655 209.961C61.266 209.976 61.2631 209.992 61.2571 210.006L53.7851 227.777C53.7752 227.801 53.757 227.82 53.7339 227.832C53.7108 227.843 53.6843 227.846 53.6594 227.839C51.432 227.25 48.9661 227.213 46.5284 227.732C38.382 229.463 32.2969 236.885 32.9638 244.276C33.1131 245.932 33.5884 247.479 34.3761 248.873C34.39 248.897 34.3936 248.926 34.386 248.954C34.3785 248.981 34.3605 249.004 34.336 249.018L16.5253 259.18C16.5092 259.189 16.491 259.194 16.4725 259.194L16.4727 259.194ZM44.9214 209.918C25.9566 213.949 11.7909 231.233 13.344 248.447C13.6844 252.22 14.7508 255.75 16.5136 258.941L34.1386 248.885C33.3669 247.489 32.9001 245.945 32.7514 244.296C32.0752 236.8 38.2358 229.276 46.4842 227.523C48.9219 227.005 51.3885 227.035 53.6244 227.609L61.0122 210.038C55.9676 208.794 50.4067 208.752 44.9214 209.918Z" fill="white"/>
<path d="M61.1584 209.964C71.3931 212.531 79.2296 219.85 81.5937 229.947L62.3299 236.329C61.3309 232.022 58.023 228.883 53.6865 227.736L61.1584 209.964Z" fill="white"/>
<path d="M62.3302 236.435C62.3061 236.435 62.2827 236.427 62.2639 236.412C62.245 236.397 62.2318 236.376 62.2263 236.353C61.2596 232.185 58.0571 229.002 53.6597 227.839C53.6449 227.835 53.6311 227.828 53.6192 227.819C53.6074 227.809 53.5977 227.797 53.591 227.783C53.5842 227.769 53.5805 227.754 53.5801 227.739C53.5797 227.724 53.5826 227.709 53.5886 227.695L61.0606 209.923C61.0705 209.899 61.0885 209.88 61.1113 209.869C61.1341 209.858 61.1602 209.855 61.1849 209.861C71.7061 212.499 79.3746 219.998 81.6981 229.922C81.7042 229.948 81.7004 229.976 81.6873 229.999C81.6743 230.022 81.6531 230.04 81.6278 230.048L62.3639 236.43C62.3531 236.434 62.3418 236.436 62.3304 236.436L62.3302 236.435ZM53.8327 227.665C58.207 228.863 61.3998 232.038 62.4072 236.191L81.4678 229.876C79.1428 220.107 71.5849 212.72 61.2218 210.09L53.8326 227.665H53.8327Z" fill="#1D1E1E"/>
<path d="M81.5944 229.947C81.8853 231.188 82.0928 232.472 82.2122 233.796C82.7687 239.964 81.3234 246.134 78.3662 251.703L60.9883 245.587C62.226 243.212 62.8288 240.589 62.5922 237.966C62.5433 237.415 62.4559 236.869 62.3306 236.33L81.5944 229.947Z" fill="#F45100"/>
<path d="M78.3657 251.81C78.3539 251.81 78.3419 251.808 78.3302 251.804L60.9523 245.687C60.9378 245.682 60.9246 245.674 60.9136 245.664C60.9026 245.653 60.8939 245.64 60.8883 245.626C60.8827 245.612 60.8802 245.596 60.881 245.581C60.8818 245.566 60.8859 245.551 60.8931 245.537C62.1615 243.103 62.7122 240.489 62.4853 237.976C62.4367 237.43 62.3501 236.888 62.2261 236.354C62.22 236.328 62.2239 236.301 62.2369 236.278C62.2499 236.254 62.2711 236.237 62.2964 236.229L81.5602 229.845C81.5742 229.841 81.5891 229.839 81.6039 229.84C81.6186 229.842 81.6329 229.846 81.6459 229.853C81.6588 229.861 81.6701 229.871 81.679 229.882C81.6879 229.894 81.6943 229.908 81.6976 229.922C81.9907 231.173 82.1994 232.473 82.3179 233.786C82.8579 239.77 81.5238 245.983 78.4598 251.753C78.4508 251.77 78.4372 251.784 78.4206 251.794C78.404 251.804 78.385 251.81 78.3656 251.81L78.3657 251.81ZM61.1388 245.527L78.3144 251.572C81.3283 245.861 82.6391 239.72 82.1054 233.805C81.9915 232.542 81.7933 231.291 81.5163 230.085L62.4558 236.401C62.5703 236.914 62.6512 237.433 62.6981 237.957C62.9251 240.473 62.3862 243.088 61.1389 245.527L61.1388 245.527Z" fill="white"/>
<path d="M34.2833 248.925C36.8861 253.528 42.6137 255.969 48.942 254.624C54.2645 253.493 58.7043 249.961 60.9879 245.587L78.3659 251.703C73.0402 261.746 62.8032 269.833 50.5491 272.438C35.8108 275.57 22.4737 269.85 16.4727 259.088L34.2833 248.925Z" fill="white"/>
<path d="M42.5709 273.4C38.2289 273.4 34.0429 272.62 30.1949 271.072C24.1552 268.643 19.3781 264.517 16.3798 259.14C16.366 259.115 16.3626 259.086 16.3701 259.059C16.3777 259.032 16.3957 259.009 16.4201 258.995L34.2307 248.833C34.2429 248.826 34.2563 248.821 34.2703 248.82C34.2843 248.818 34.2984 248.819 34.312 248.823C34.3393 248.83 34.3626 248.848 34.3765 248.873C36.5222 252.667 40.7888 254.877 45.5671 254.877C46.6643 254.877 47.7882 254.76 48.9201 254.52C54.0506 253.429 58.5267 250.071 60.8936 245.537C60.9054 245.515 60.9252 245.497 60.9491 245.487C60.9729 245.478 60.9994 245.478 61.0237 245.486L78.4016 251.602C78.4309 251.613 78.4542 251.635 78.4657 251.664C78.4769 251.693 78.475 251.726 78.4605 251.753C75.7918 256.785 71.8706 261.347 67.1204 264.945C62.2217 268.655 56.4991 271.282 50.5716 272.542C47.8758 273.115 45.1944 273.4 42.5709 273.4ZM16.6179 259.128C22.7604 270.037 36.3718 275.342 50.5272 272.333C62.3264 269.825 72.6669 262.14 78.2137 251.762L61.0399 245.718C58.6329 250.266 54.1257 253.632 48.9646 254.729C45.8799 255.384 42.8412 255.168 40.1764 254.104C37.6032 253.077 35.5541 251.338 34.244 249.071L16.6179 259.128V259.128Z" fill="#1D1E1E"/>
<path d="M85.8929 235.142C85.4978 234.109 85.0369 233.103 84.5129 232.129C84.2639 231.666 84.0009 231.212 83.724 230.765L78.373 222.137C78.6499 222.583 78.913 223.038 79.1619 223.501C79.6859 224.474 80.1469 225.481 80.5419 226.513C80.9699 227.633 81.3214 228.78 81.5941 229.947L86.945 238.575C86.6723 237.408 86.3208 236.261 85.8929 235.142Z" fill="white"/>
<path d="M86.9448 238.682C86.9266 238.682 86.9088 238.677 86.8929 238.668C86.877 238.66 86.8637 238.647 86.8541 238.631L81.5032 230.003C81.497 229.993 81.4925 229.982 81.49 229.971C81.2181 228.809 80.868 227.666 80.4421 226.551C80.0483 225.523 79.5893 224.521 79.0677 223.551C78.8201 223.091 78.5586 222.639 78.2836 222.196L78.2822 222.193C78.2687 222.169 78.2651 222.141 78.2719 222.114C78.2788 222.088 78.2957 222.065 78.319 222.05C78.3424 222.036 78.3704 222.031 78.3973 222.036C78.4242 222.042 78.4479 222.058 78.4635 222.081L83.8145 230.709C84.0924 231.157 84.3566 231.614 84.6067 232.078C85.1326 233.056 85.5954 234.067 85.9922 235.104C86.4216 236.228 86.7745 237.379 87.0486 238.551C87.0522 238.567 87.0523 238.583 87.0488 238.599C87.0452 238.614 87.0382 238.629 87.0282 238.641C87.0182 238.654 87.0055 238.664 86.991 238.671C86.9766 238.678 86.9607 238.682 86.9446 238.682H86.9448ZM81.694 229.905L86.6783 237.943C86.434 237.006 86.1385 236.084 85.793 235.18C85.3993 234.152 84.9402 233.149 84.4187 232.18C84.1707 231.719 83.9088 231.266 83.6332 230.822L80.0276 225.007C80.2471 225.49 80.4518 225.98 80.6414 226.475C81.0688 227.594 81.4204 228.74 81.694 229.905Z" fill="#1D1E1E"/>
<path d="M87.5631 242.424C87.4541 241.217 87.2719 240.042 87.0199 238.903C86.9957 238.793 86.9708 238.684 86.9453 238.575L81.5944 229.947C81.8898 231.214 82.0962 232.5 82.2121 233.796C82.2847 234.601 82.3236 235.409 82.3289 236.217C82.3543 240.065 81.6235 243.882 80.2556 247.523C79.7208 248.946 79.0886 250.343 78.3662 251.703L83.7172 260.331C84.4396 258.971 85.0718 257.575 85.6066 256.151C86.9744 252.511 87.7054 248.693 87.6799 244.845C87.6746 244.037 87.6357 243.229 87.5631 242.424Z" fill="#F45100"/>
<path d="M83.7164 260.438C83.6795 260.438 83.6452 260.419 83.6257 260.387L78.2748 251.759C78.265 251.743 78.2595 251.725 78.2588 251.706C78.2582 251.688 78.2625 251.669 78.2713 251.653C78.9929 250.293 79.6267 248.891 80.1549 247.485C81.551 243.769 82.2463 239.978 82.2214 236.218C82.216 235.412 82.1772 234.607 82.105 233.805C81.9978 232.616 81.8157 231.435 81.564 230.297C81.5399 230.188 81.5151 230.079 81.4898 229.971C81.4841 229.946 81.4873 229.92 81.4988 229.898C81.5104 229.875 81.5296 229.858 81.5529 229.848C81.5763 229.838 81.6023 229.837 81.6264 229.845C81.6505 229.853 81.671 229.869 81.6844 229.89L87.0352 238.519C87.0414 238.529 87.0459 238.539 87.0485 238.551C87.0741 238.66 87.0991 238.769 87.1234 238.879C87.377 240.026 87.5606 241.216 87.6686 242.414C87.7413 243.222 87.7804 244.033 87.7858 244.844C87.8108 248.632 87.111 252.448 85.7057 256.188C85.1737 257.604 84.536 259.015 83.8106 260.381C83.8018 260.398 83.7887 260.412 83.7728 260.422C83.7569 260.432 83.7386 260.437 83.7198 260.438H83.7163L83.7164 260.438ZM78.4886 251.699L83.7089 260.117C84.3943 258.81 84.9985 257.464 85.5059 256.113C86.902 252.398 87.5974 248.607 87.5725 244.846C87.5671 244.041 87.5283 243.236 87.4561 242.434C87.3488 241.244 87.1667 240.064 86.9151 238.925C86.8922 238.822 86.8687 238.719 86.8447 238.616L81.8341 230.536C82.0583 231.609 82.2198 232.694 82.3179 233.786C82.3906 234.594 82.4297 235.405 82.435 236.216C82.46 240.003 81.7603 243.82 80.355 247.56C79.8305 248.956 79.2028 250.348 78.4887 251.699L78.4886 251.699Z" fill="white"/>
</g>
<g clip-path="url(#clip1_596_64329)">
<path d="M108.412 128.557L96.6808 127.707L65.2578 77.6072L76.9885 78.458L108.412 128.557Z" fill="#1D1E1E"/>
<path d="M108.412 128.664C108.409 128.664 108.407 128.664 108.404 128.664L96.6734 127.813C96.6567 127.812 96.6405 127.807 96.6262 127.798C96.6118 127.789 96.5997 127.777 96.5909 127.763L65.1677 77.6639C65.1572 77.6472 65.1516 77.6279 65.1514 77.6082C65.1512 77.5885 65.1564 77.5691 65.1666 77.5522C65.1766 77.5351 65.1912 77.5213 65.2088 77.5122C65.2263 77.5031 65.2461 77.4992 65.2658 77.5009L76.9965 78.3517C77.0132 78.3529 77.0294 78.358 77.0437 78.3667C77.0581 78.3753 77.0702 78.3872 77.0791 78.4014L108.502 128.501C108.524 128.535 108.524 128.578 108.503 128.612C108.494 128.628 108.48 128.641 108.464 128.65C108.448 128.659 108.43 128.664 108.412 128.664ZM96.7428 127.604L108.21 128.436L76.9271 78.5606L65.4604 77.7289L96.7429 127.604L96.7428 127.604Z" fill="white"/>
<path d="M76.9885 78.458L65.2578 77.6072L75.5466 66.24L87.2774 67.0908L76.9885 78.458Z" fill="white"/>
<path d="M76.9889 78.5647C76.9864 78.5647 76.9838 78.5647 76.9813 78.5644L65.2506 77.7135C65.2306 77.7122 65.2114 77.7052 65.1952 77.6934C65.179 77.6817 65.1664 77.6656 65.159 77.647C65.1515 77.6284 65.1495 77.6081 65.1531 77.5883C65.1567 77.5686 65.1658 77.5504 65.1793 77.5356L75.468 66.1684C75.4788 66.1563 75.4922 66.1469 75.5073 66.1409C75.5223 66.1348 75.5386 66.1323 75.5547 66.1336L87.2854 66.9845C87.3054 66.9858 87.3246 66.9928 87.3408 67.0046C87.357 67.0164 87.3695 67.0325 87.377 67.0511C87.3844 67.0697 87.3865 67.09 87.3829 67.1097C87.3793 67.1294 87.3702 67.1477 87.3567 67.1624L77.0679 78.5296C77.0579 78.5407 77.0457 78.5495 77.0321 78.5555C77.0185 78.5616 77.0037 78.5647 76.9888 78.5647H76.9889ZM65.4841 77.5166L76.9448 78.3478L87.0519 67.1813L75.5912 66.3501L65.4841 77.5166Z" fill="#1D1E1E"/>
<path d="M87.2782 67.0908L118.701 117.19L108.412 128.557L76.9893 78.458L87.2782 67.0908Z" fill="#F45100"/>
<path d="M108.412 128.664C108.408 128.664 108.405 128.664 108.402 128.664C108.386 128.662 108.37 128.657 108.356 128.648C108.342 128.64 108.33 128.628 108.321 128.614L76.8981 78.5147C76.8858 78.495 76.8802 78.4718 76.8822 78.4487C76.8843 78.4256 76.8938 78.4037 76.9094 78.3865L87.1983 67.0193C87.2094 67.0071 87.2231 66.9975 87.2385 66.9915C87.2538 66.9855 87.2704 66.9831 87.2868 66.9845C87.3032 66.986 87.3191 66.9912 87.3332 66.9999C87.3472 67.0085 87.3591 67.0203 87.3678 67.0343L118.791 117.133C118.816 117.174 118.812 117.226 118.78 117.262L108.491 128.629C108.481 128.64 108.469 128.649 108.455 128.655C108.441 128.661 108.427 128.664 108.412 128.664H108.412ZM77.1218 78.4698L108.427 128.381L118.567 117.178L87.2619 67.2669L77.1218 78.4698Z" fill="white"/>
<path d="M128.805 106.077L117.074 105.226L101.831 80.9229L113.562 81.7737L128.805 106.077Z" fill="#1D1E1E"/>
<path d="M128.805 106.184C128.803 106.184 128.8 106.184 128.798 106.183L117.067 105.332C117.05 105.331 117.034 105.326 117.02 105.317C117.005 105.309 116.993 105.297 116.984 105.283L101.741 80.9796C101.73 80.9629 101.725 80.9436 101.725 80.9239C101.724 80.9042 101.73 80.8848 101.74 80.8679C101.75 80.8508 101.764 80.8369 101.782 80.8278C101.799 80.8187 101.819 80.8148 101.839 80.8166L113.57 81.6674C113.586 81.6686 113.603 81.6738 113.617 81.6824C113.631 81.691 113.643 81.7029 113.652 81.7172L128.896 106.02C128.906 106.036 128.911 106.055 128.912 106.074C128.912 106.093 128.908 106.112 128.898 106.128C128.889 106.145 128.876 106.159 128.859 106.169C128.843 106.178 128.824 106.184 128.805 106.184H128.805ZM117.136 105.124L128.603 105.955L113.5 81.8763L102.033 81.0446L117.136 105.124Z" fill="white"/>
<path d="M113.562 81.7737L101.831 80.9228L112.12 69.5557L123.851 70.4064L113.562 81.7737Z" fill="white"/>
<path d="M113.561 81.8804C113.559 81.8804 113.556 81.8804 113.554 81.88L101.823 81.0292C101.803 81.0278 101.784 81.0209 101.767 81.0091C101.751 80.9973 101.739 80.9812 101.731 80.9626C101.724 80.944 101.722 80.9237 101.725 80.904C101.729 80.8843 101.738 80.866 101.752 80.8512L112.04 69.4841C112.051 69.472 112.065 69.4626 112.08 69.4566C112.095 69.4505 112.111 69.448 112.127 69.4493L123.858 70.3001C123.878 70.3015 123.897 70.3085 123.913 70.3202C123.929 70.332 123.942 70.3481 123.949 70.3667C123.957 70.3853 123.959 70.4056 123.955 70.4253C123.952 70.445 123.943 70.4633 123.929 70.4781L113.64 81.8453C113.63 81.8563 113.618 81.8651 113.604 81.8712C113.591 81.8772 113.576 81.8804 113.561 81.8804ZM102.056 80.8322L113.517 81.6635L123.624 70.497L112.163 69.6658L102.056 80.8322Z" fill="#1D1E1E"/>
<path d="M123.85 70.4065L139.094 94.7096L128.805 106.077L113.562 81.7738L123.85 70.4065Z" fill="#F45100"/>
<path d="M128.805 106.183C128.802 106.183 128.799 106.183 128.796 106.183C128.779 106.182 128.763 106.176 128.749 106.168C128.735 106.159 128.723 106.147 128.715 106.133L113.471 81.8303C113.459 81.8107 113.453 81.7875 113.455 81.7643C113.458 81.7412 113.467 81.7193 113.483 81.7021L123.771 70.3349C123.782 70.3226 123.796 70.3131 123.812 70.3071C123.827 70.3011 123.843 70.2987 123.86 70.3003C123.876 70.3017 123.892 70.3069 123.906 70.3155C123.92 70.3241 123.932 70.3359 123.941 70.3499L139.184 94.6529C139.196 94.6726 139.202 94.6957 139.2 94.7189C139.198 94.742 139.189 94.7639 139.173 94.7811L128.884 106.148C128.874 106.159 128.862 106.168 128.848 106.174C128.835 106.18 128.82 106.184 128.805 106.183ZM113.695 81.7854L128.821 105.901L138.961 94.6977L123.835 70.5826L113.695 81.7854Z" fill="white"/>
<path d="M87.9508 151.253L76.22 150.403L53.6533 114.423L65.384 115.274L87.9508 151.253Z" fill="#1D1E1E"/>
<path d="M87.9509 151.36C87.9484 151.36 87.9458 151.36 87.9432 151.36L76.2126 150.509C76.1959 150.508 76.1797 150.502 76.1653 150.494C76.151 150.485 76.1389 150.473 76.13 150.459L53.5631 114.48C53.5527 114.463 53.5471 114.444 53.5469 114.424C53.5467 114.404 53.5519 114.385 53.562 114.368C53.5719 114.351 53.5865 114.337 53.6041 114.328C53.6217 114.319 53.6415 114.315 53.6612 114.317L65.3919 115.168C65.4087 115.169 65.4248 115.174 65.4392 115.183C65.4535 115.191 65.4657 115.203 65.4745 115.217L88.0413 151.197C88.0514 151.213 88.0569 151.231 88.0574 151.25C88.0579 151.269 88.0533 151.288 88.0441 151.305C88.0349 151.321 88.0214 151.335 88.005 151.345C87.9887 151.355 87.97 151.36 87.951 151.36H87.9509ZM76.2819 150.3L87.7487 151.132L65.3225 115.377L53.8557 114.545L76.2819 150.3Z" fill="white"/>
<path d="M65.384 115.274L53.6533 114.423L63.9422 103.056L75.6729 103.907L65.384 115.274Z" fill="white"/>
<path d="M65.3845 115.381C65.382 115.381 65.3794 115.381 65.3769 115.381L53.6461 114.53C53.6261 114.528 53.6069 114.521 53.5907 114.51C53.5745 114.498 53.5619 114.482 53.5545 114.463C53.5471 114.444 53.545 114.424 53.5486 114.404C53.5522 114.385 53.5613 114.366 53.5748 114.352L63.8636 102.984C63.8743 102.972 63.8877 102.963 63.9028 102.957C63.9179 102.951 63.9342 102.948 63.9503 102.95L75.681 103.8C75.701 103.802 75.7202 103.809 75.7364 103.821C75.7526 103.832 75.7652 103.848 75.7726 103.867C75.78 103.886 75.7821 103.906 75.7785 103.926C75.7749 103.945 75.7658 103.964 75.7523 103.978L65.4635 115.346C65.4535 115.357 65.4413 115.366 65.4277 115.372C65.4141 115.378 65.3994 115.381 65.3845 115.381ZM53.8797 114.333L65.3404 115.164L75.4475 103.997L63.9868 103.166L53.8797 114.333Z" fill="#1D1E1E"/>
<path d="M75.6727 103.907L98.2395 139.886L87.9506 151.253L65.3838 115.274L75.6727 103.907Z" fill="#F45100"/>
<path d="M87.9506 151.36C87.9475 151.36 87.9443 151.36 87.9413 151.36C87.9248 151.358 87.909 151.353 87.8949 151.344C87.8809 151.336 87.869 151.324 87.8603 151.31L65.2937 115.331C65.2813 115.311 65.2757 115.288 65.2777 115.265C65.2798 115.242 65.2893 115.22 65.3049 115.203L75.5937 103.835C75.6046 103.823 75.6183 103.813 75.6337 103.807C75.6491 103.801 75.6657 103.799 75.6821 103.801C75.6985 103.802 75.7144 103.807 75.7285 103.816C75.7425 103.824 75.7544 103.836 75.7631 103.85L98.3299 139.829C98.3423 139.849 98.3479 139.872 98.3458 139.895C98.3438 139.919 98.3343 139.94 98.3187 139.958L88.0298 151.325C88.0198 151.336 88.0076 151.345 87.994 151.351C87.9804 151.357 87.9656 151.36 87.9507 151.36H87.9506ZM65.5173 115.286L87.9662 151.077L98.1064 139.874L75.6574 104.083L65.5173 115.286Z" fill="white"/>
</g>
<g clip-path="url(#clip2_596_64329)">
<path d="M300.544 196.644L298.029 203.288L298.026 203.286C297.068 205.799 295.089 207.919 292.355 208.958L108.674 278.83C103.988 280.612 98.7152 278.539 96.4913 274.041L39.8454 159.453C38.6207 156.975 38.5419 154.249 39.3831 151.852L39.3811 151.852L39.4406 151.692C39.471 151.611 39.5016 151.53 39.5341 151.449L42.0007 144.93L42.0027 144.93C41.0867 147.373 41.1355 150.182 42.3939 152.73L99.04 267.317C101.264 271.815 106.536 273.888 111.222 272.106L294.904 202.234C297.608 201.205 299.576 199.121 300.544 196.644Z" fill="#1D1E1E"/>
<path d="M105.218 279.573C103.987 279.573 102.767 279.341 101.621 278.89C99.3392 277.993 97.4838 276.288 96.3965 274.088L39.7503 159.501C38.5601 157.093 38.392 154.371 39.2765 151.835C39.2775 151.828 39.2793 151.821 39.2817 151.815L39.3479 151.637C39.3765 151.561 39.4052 151.485 39.4355 151.409L41.9016 144.892C41.9079 144.875 41.9184 144.861 41.932 144.849C41.9456 144.837 41.9619 144.829 41.9794 144.825C42.0175 144.818 42.058 144.831 42.0835 144.86C42.1089 144.89 42.1171 144.931 42.1035 144.967C41.1506 147.509 41.2881 150.248 42.4905 152.682L99.1365 267.27C101.347 271.741 106.527 273.777 111.185 272.006L294.866 202.134C297.417 201.163 299.45 199.149 300.445 196.607L300.445 196.606L300.446 196.605C300.456 196.579 300.477 196.558 300.502 196.547C300.528 196.535 300.557 196.535 300.583 196.545C300.609 196.555 300.63 196.575 300.642 196.601C300.654 196.626 300.655 196.655 300.645 196.682L298.129 203.326C298.126 203.333 298.123 203.341 298.118 203.348C297.107 205.979 295.022 208.059 292.394 209.058L108.712 278.93C107.596 279.355 106.412 279.573 105.218 279.573L105.218 279.573ZM39.4889 151.871C39.4878 151.876 39.4865 151.882 39.4846 151.887C38.6121 154.374 38.7745 157.044 39.9418 159.406L96.5879 273.993C98.7985 278.465 103.978 280.501 108.637 278.73L292.318 208.858C294.897 207.878 296.942 205.833 297.927 203.248C297.93 203.24 297.934 203.233 297.939 203.226L299.758 198.42C298.621 200.192 296.937 201.575 294.942 202.334L111.261 272.206C108.975 273.077 106.446 273.063 104.17 272.166C101.888 271.269 100.032 269.564 98.9449 267.364L42.299 152.777C41.3774 150.911 41.068 148.87 41.3817 146.87L39.6348 151.487C39.6042 151.563 39.576 151.638 39.548 151.713L39.4889 151.871Z" fill="white"/>
<path d="M300.206 188.707L243.56 74.1193C241.336 69.6211 236.064 67.5485 231.378 69.3302L47.6962 139.202C42.2884 141.258 39.8281 147.538 42.3942 152.729L99.0402 267.317C101.264 271.815 106.536 273.888 111.223 272.106L294.904 202.234C300.312 200.178 302.772 193.899 300.206 188.707ZM291.088 197.827L111.152 266.273C108.196 267.398 104.868 266.093 103.461 263.255L48.0419 151.514C46.4259 148.254 47.9679 144.307 51.3658 143.015L231.302 74.5685C234.258 73.4438 237.586 74.7484 238.993 77.5869L294.412 189.327C296.028 192.587 294.486 196.534 291.088 197.827Z" fill="white"/>
<path d="M107.766 272.849C106.535 272.849 105.315 272.617 104.169 272.166C101.887 271.269 100.032 269.564 98.9446 267.364L42.2986 152.777C41.062 150.275 40.9372 147.349 41.956 144.75C42.9748 142.151 45.0532 140.093 47.6585 139.102L231.34 69.2302C233.631 68.3588 236.15 68.3733 238.431 69.2701C240.713 70.1672 242.568 71.8724 243.656 74.0718L300.302 188.659C301.538 191.161 301.663 194.087 300.644 196.686C299.626 199.285 297.547 201.344 294.942 202.334L111.26 272.206C110.144 272.631 108.96 272.849 107.766 272.849ZM234.857 68.7938C233.713 68.7938 232.549 68.9993 231.415 69.4302L47.7342 139.302C45.1852 140.271 43.1515 142.285 42.1549 144.828C41.1578 147.371 41.2801 150.234 42.4901 152.682L99.1361 267.269C101.347 271.741 106.526 273.777 111.185 272.006L294.866 202.134C297.415 201.165 299.449 199.151 300.446 196.608C301.442 194.065 301.32 191.202 300.11 188.754C298.901 186.306 243.464 74.1667 243.464 74.1667C241.792 70.7831 238.418 68.7937 234.857 68.7937V68.7938ZM108.955 266.786C106.644 266.786 104.453 265.497 103.365 263.302L47.9463 151.562C47.5585 150.778 47.3384 149.921 47.3003 149.047C47.2622 148.173 47.4069 147.3 47.725 146.486C48.368 144.843 49.6812 143.541 51.3279 142.915L231.264 74.4686C234.287 73.3188 237.651 74.6387 239.089 77.5393L294.508 189.28C294.896 190.064 295.116 190.92 295.154 191.794C295.192 192.668 295.048 193.541 294.73 194.356C294.41 195.17 293.925 195.908 293.305 196.522C292.684 197.137 291.942 197.616 291.127 197.927L111.19 266.373C110.476 266.646 109.719 266.786 108.955 266.786ZM233.5 74.2691C232.781 74.2691 232.051 74.3981 231.34 74.6685L51.4038 143.115C50.6159 143.415 49.8994 143.877 49.3001 144.471C48.7008 145.065 48.2321 145.778 47.9238 146.564C47.6166 147.351 47.4769 148.193 47.5137 149.038C47.5505 149.882 47.763 150.709 48.1376 151.467L103.557 263.207C104.946 266.008 108.195 267.283 111.114 266.173L291.051 197.727C291.838 197.426 292.555 196.964 293.154 196.371C293.754 195.777 294.222 195.064 294.531 194.278C294.838 193.491 294.978 192.648 294.941 191.804C294.904 190.959 294.691 190.132 294.317 189.375L238.898 77.6346C237.847 75.515 235.731 74.2691 233.5 74.2691Z" fill="#1D1E1E"/>
<path d="M293.732 195.888C293.068 196.732 292.173 197.415 291.089 197.827L111.152 266.273C108.196 267.398 104.869 266.093 103.461 263.255L48.0421 151.514C47.5146 150.45 47.3234 149.311 47.4244 148.217C48.0883 147.372 48.9827 146.689 50.0675 146.277L230.797 77.5291C233.304 76.5757 236.123 77.6836 237.317 80.087L293.114 192.59C293.642 193.654 293.833 194.793 293.732 195.888V195.888Z" fill="white"/>
<path d="M108.955 266.786C106.644 266.786 104.454 265.497 103.366 263.302L47.9467 151.562C47.4295 150.518 47.2121 149.358 47.3182 148.207C47.3202 148.186 47.3279 148.167 47.3407 148.15C48.0382 147.263 48.9682 146.581 50.0299 146.178L230.759 77.4291C233.328 76.452 236.189 77.5746 237.413 80.0394L293.21 192.542C293.727 193.586 293.945 194.746 293.839 195.898C293.837 195.918 293.829 195.938 293.816 195.954C293.119 196.841 292.189 197.524 291.127 197.927L111.19 266.373C110.477 266.645 109.719 266.786 108.955 266.786ZM47.5282 148.258C47.4325 149.359 47.6431 150.468 48.138 151.467L103.557 263.207C104.946 266.008 108.195 267.283 111.115 266.173L291.051 197.727C292.067 197.341 292.957 196.691 293.629 195.846C293.724 194.745 293.514 193.636 293.019 192.638L237.222 80.1347C236.047 77.7686 233.301 76.6913 230.835 77.6291L50.1056 146.377C49.09 146.763 48.1995 147.413 47.5282 148.258Z" fill="#1D1E1E"/>
<path d="M294.881 190.606C294.901 190.689 294.92 190.773 294.936 190.857C294.94 190.873 294.943 190.891 294.946 190.907C294.96 190.981 294.974 191.054 294.984 191.129C294.99 191.161 294.994 191.194 294.998 191.227C295.01 191.293 295.017 191.358 295.023 191.426C295.023 191.432 295.024 191.437 295.025 191.443C295.035 191.533 295.043 191.626 295.047 191.717C295.052 191.808 295.056 191.902 295.056 191.994C295.057 192.07 295.057 192.145 295.055 192.222C295.054 192.253 295.052 192.285 295.051 192.317C295.038 192.639 294.999 192.959 294.935 193.275C294.927 193.317 294.918 193.359 294.909 193.399C294.898 193.456 294.885 193.513 294.869 193.569C294.855 193.625 294.84 193.681 294.824 193.735C294.81 193.791 294.792 193.846 294.777 193.903C294.753 193.976 294.729 194.049 294.702 194.121C294.669 194.215 294.633 194.31 294.595 194.403C294.567 194.477 294.535 194.55 294.499 194.62C294.464 194.703 294.426 194.784 294.385 194.863C294.368 194.897 294.352 194.928 294.335 194.959C294.312 195.005 294.288 195.051 294.259 195.096C294.201 195.203 294.138 195.308 294.07 195.409C294.03 195.475 293.987 195.54 293.943 195.602C293.904 195.659 293.863 195.715 293.82 195.769C293.794 195.807 293.768 195.841 293.741 195.875C293.738 195.88 293.734 195.883 293.731 195.888C293.832 194.793 293.641 193.654 293.114 192.59L237.317 80.0871C236.123 77.6837 233.303 76.5758 230.796 77.5291L50.067 146.277C48.9823 146.689 48.0877 147.372 47.4238 148.216C47.4244 148.21 47.4253 148.206 47.4259 148.199C47.4388 148.063 47.4561 147.929 47.478 147.795C47.4881 147.726 47.5008 147.657 47.5149 147.586C47.5281 147.52 47.5427 147.451 47.5578 147.385C47.5587 147.38 47.5593 147.374 47.5603 147.369C47.5759 147.304 47.5935 147.239 47.6096 147.176C47.649 147.029 47.6937 146.884 47.7438 146.74C47.7603 146.696 47.7748 146.652 47.7918 146.61C47.8694 146.4 47.9592 146.195 48.0607 145.995C48.0856 145.943 48.113 145.892 48.1424 145.841C48.1703 145.783 48.2026 145.727 48.237 145.67C48.2634 145.624 48.2898 145.577 48.3192 145.534C48.413 145.379 48.5147 145.228 48.624 145.083C48.6588 145.037 48.6936 144.99 48.7304 144.943C48.7398 144.93 48.7497 144.92 48.7596 144.909C48.7979 144.859 48.8387 144.811 48.8793 144.764C48.9705 144.654 49.0666 144.549 49.1674 144.449C49.2176 144.397 49.2681 144.346 49.3212 144.297C49.3642 144.257 49.4075 144.217 49.4512 144.177C49.5675 144.072 49.6887 143.972 49.8143 143.878C49.8565 143.844 49.9006 143.81 49.9457 143.78C49.9672 143.763 49.9899 143.746 50.0136 143.732C50.0543 143.701 50.0959 143.674 50.1376 143.647C50.1986 143.605 50.2605 143.566 50.3225 143.528C50.3968 143.482 50.472 143.438 50.5479 143.394L50.5701 143.383C50.6426 143.344 50.7168 143.305 50.7915 143.267C50.8213 143.251 50.8515 143.238 50.8812 143.222L51.0283 143.154C51.139 143.104 51.2515 143.057 51.3655 143.015L231.302 74.5687C234.258 73.444 237.586 74.7485 238.993 77.587L294.412 189.327C294.615 189.735 294.772 190.164 294.881 190.606H294.881Z" fill="#1D1E1E"/>
<path d="M293.732 195.999C293.72 195.999 293.708 195.997 293.697 195.993C293.649 195.978 293.621 195.928 293.625 195.878C293.728 194.766 293.518 193.645 293.018 192.637L237.221 80.1347C236.046 77.7685 233.3 76.6912 230.834 77.629L50.1053 146.377C49.0797 146.767 48.1817 147.426 47.5082 148.283C47.494 148.301 47.4744 148.314 47.4522 148.32C47.4301 148.326 47.4066 148.324 47.3852 148.316C47.3638 148.308 47.3457 148.293 47.3336 148.273C47.3214 148.254 47.3159 148.231 47.3177 148.208L47.3196 148.192C47.3329 148.054 47.3507 147.915 47.373 147.778C47.3831 147.708 47.3961 147.638 47.4107 147.565C47.4239 147.498 47.4387 147.428 47.454 147.361L47.4563 147.347C47.4677 147.299 47.4795 147.254 47.491 147.21L47.5066 147.15C47.5434 147.01 47.5881 146.865 47.6434 146.705L47.6617 146.654C47.672 146.626 47.6821 146.597 47.6934 146.57C47.772 146.357 47.8631 146.149 47.9662 145.946C47.9909 145.894 48.0196 145.841 48.0504 145.787C48.0727 145.741 48.1033 145.686 48.1463 145.615C48.1732 145.567 48.201 145.519 48.2315 145.474C48.3263 145.317 48.429 145.165 48.5394 145.018C48.5745 144.972 48.6097 144.925 48.6469 144.877C48.6559 144.865 48.6675 144.852 48.6794 144.839C48.7153 144.793 48.757 144.743 48.7988 144.694C48.8919 144.583 48.99 144.476 49.0928 144.373C49.1428 144.321 49.1949 144.269 49.2498 144.219C49.292 144.179 49.3351 144.139 49.3802 144.098C49.4991 143.99 49.6229 143.888 49.7512 143.792C49.7887 143.762 49.8365 143.725 49.8872 143.691C49.9053 143.676 49.9284 143.659 49.9543 143.643C49.9941 143.613 50.0348 143.587 50.0755 143.56C50.1383 143.517 50.2021 143.476 50.267 143.437C50.3424 143.391 50.4186 143.345 50.4956 143.302L50.5204 143.288C50.6094 143.241 50.6991 143.194 50.7896 143.149C50.8038 143.142 50.818 143.135 50.832 143.128L50.9846 143.057C51.0976 143.006 51.2125 142.958 51.3288 142.915L231.264 74.4686C234.287 73.3183 237.651 74.6387 239.089 77.5392L294.508 189.28C294.714 189.694 294.874 190.13 294.985 190.58C295.006 190.665 295.025 190.75 295.042 190.836C295.043 190.841 295.045 190.852 295.047 190.863C295.048 190.869 295.049 190.876 295.051 190.882C295.066 190.963 295.08 191.038 295.09 191.115C295.096 191.143 295.1 191.176 295.104 191.21C295.114 191.27 295.123 191.334 295.13 191.417C295.13 191.419 295.131 191.42 295.131 191.422C295.131 191.426 295.132 191.429 295.132 191.432C295.144 191.541 295.15 191.63 295.154 191.713C295.16 191.822 295.163 191.912 295.163 191.995C295.165 192.069 295.164 192.147 295.162 192.225C295.162 192.241 295.161 192.258 295.16 192.275C295.159 192.29 295.158 192.305 295.158 192.319C295.145 192.648 295.105 192.974 295.04 193.296C295.031 193.341 295.023 193.383 295.014 193.423C295.003 193.475 294.99 193.534 294.972 193.597C294.958 193.654 294.943 193.71 294.926 193.766C294.919 193.797 294.908 193.833 294.898 193.869C294.892 193.89 294.885 193.91 294.88 193.931C294.855 194.007 294.83 194.083 294.802 194.158C294.768 194.254 294.732 194.349 294.694 194.444C294.665 194.521 294.631 194.596 294.595 194.669C294.56 194.752 294.521 194.833 294.479 194.913C294.461 194.95 294.445 194.98 294.428 195.011C294.402 195.065 294.376 195.112 294.349 195.154C294.291 195.262 294.227 195.367 294.158 195.469C294.119 195.535 294.075 195.602 294.029 195.665C293.989 195.723 293.947 195.781 293.903 195.836C293.88 195.87 293.854 195.905 293.825 195.941C293.823 195.944 293.821 195.947 293.819 195.949C293.81 195.965 293.797 195.977 293.782 195.986C293.767 195.995 293.749 195.999 293.732 195.999L293.732 195.999ZM232.658 77.0778C234.623 77.0778 236.486 78.1741 237.413 80.0393L293.21 192.542C293.672 193.476 293.895 194.503 293.861 195.533C293.902 195.476 293.941 195.416 293.979 195.354C294.046 195.254 294.108 195.15 294.166 195.044C294.192 195.003 294.214 194.963 294.239 194.912C294.257 194.879 294.272 194.851 294.287 194.82C294.328 194.741 294.366 194.661 294.401 194.579C294.442 194.499 294.472 194.426 294.496 194.364C294.534 194.271 294.569 194.178 294.602 194.085C294.628 194.013 294.652 193.941 294.675 193.869C294.68 193.852 294.686 193.83 294.693 193.808C294.703 193.775 294.712 193.743 294.72 193.71C294.737 193.652 294.752 193.597 294.765 193.543C294.781 193.486 294.794 193.433 294.805 193.379C294.814 193.337 294.822 193.296 294.83 193.256C294.893 192.945 294.932 192.629 294.945 192.313C294.945 192.298 294.946 192.281 294.947 192.264C294.947 192.249 294.948 192.234 294.948 192.219C294.951 192.144 294.951 192.07 294.949 191.997C294.949 191.905 294.946 191.814 294.94 191.723C294.936 191.635 294.93 191.548 294.92 191.46C294.918 191.45 294.917 191.44 294.917 191.429C294.912 191.368 294.904 191.307 294.893 191.246C294.892 191.242 294.892 191.238 294.891 191.235C294.888 191.206 294.885 191.177 294.879 191.148C294.869 191.074 294.856 191 294.842 190.927C294.841 190.922 294.839 190.912 294.837 190.901C294.835 190.895 294.834 190.888 294.833 190.882C294.816 190.798 294.798 190.714 294.777 190.631C294.67 190.197 294.516 189.775 294.317 189.375L238.898 77.6346C237.509 74.8329 234.259 73.5584 231.34 74.6685L51.4038 143.114C51.292 143.156 51.1816 143.202 51.073 143.252L50.9261 143.319C50.9155 143.325 50.8995 143.333 50.8834 143.341C50.7951 143.385 50.7076 143.43 50.6208 143.477L50.5976 143.489C50.525 143.531 50.4508 143.574 50.3789 143.618C50.3185 143.656 50.258 143.693 50.1986 143.735C50.1537 143.764 50.1157 143.789 50.0786 143.817C50.0754 143.819 50.072 143.822 50.0685 143.824C50.0489 143.836 50.0303 143.849 50.0126 143.864C49.9625 143.898 49.921 143.93 49.8811 143.961C49.7573 144.054 49.6378 144.153 49.523 144.257C49.4789 144.297 49.4367 144.336 49.3945 144.376C49.3422 144.424 49.2933 144.472 49.2447 144.523C49.1457 144.622 49.0512 144.725 48.9615 144.832C48.9213 144.88 48.8817 144.926 48.8444 144.974L48.8367 144.983C48.8301 144.991 48.8232 144.998 48.8168 145.006C48.7785 145.055 48.744 145.101 48.7096 145.147C48.6025 145.289 48.5028 145.437 48.4108 145.59C48.3802 145.635 48.3556 145.678 48.3311 145.721C48.2977 145.775 48.2669 145.831 48.2388 145.887C48.2073 145.943 48.1811 145.991 48.1574 146.041C48.0571 146.238 47.9685 146.44 47.8921 146.647C47.881 146.675 47.8718 146.701 47.8625 146.727L47.8442 146.777C47.7953 146.918 47.7515 147.06 47.713 147.204L47.6974 147.264C47.6863 147.307 47.6748 147.351 47.6642 147.394C47.6642 147.397 47.6631 147.404 47.662 147.409C47.6472 147.474 47.6329 147.542 47.6198 147.607C47.6061 147.675 47.5941 147.742 47.5838 147.81C47.5807 147.83 47.5775 147.85 47.5745 147.869C48.2443 147.115 49.0866 146.535 50.0293 146.177L230.758 77.429C231.365 77.1974 232.009 77.0783 232.658 77.0778Z" fill="#1D1E1E"/>
<path d="M141.113 107.519C141.714 107.253 141.978 106.529 141.702 105.902C141.426 105.274 140.714 104.981 140.113 105.246C139.512 105.512 139.248 106.236 139.524 106.863C139.801 107.491 140.512 107.784 141.113 107.519Z" fill="white"/>
<path d="M140.651 107.724C140.143 107.724 139.651 107.417 139.426 106.907C139.126 106.226 139.415 105.438 140.069 105.149C140.387 105.009 140.742 105.006 141.069 105.141C141.395 105.275 141.654 105.531 141.799 105.859C141.944 106.188 141.957 106.552 141.836 106.883C141.715 107.216 141.473 107.477 141.156 107.617C140.996 107.688 140.824 107.724 140.651 107.724L140.651 107.724ZM140.576 105.256C140.431 105.256 140.288 105.286 140.156 105.345C139.609 105.586 139.369 106.248 139.621 106.821C139.873 107.393 140.523 107.662 141.069 107.422C141.333 107.305 141.534 107.088 141.635 106.81C141.737 106.531 141.726 106.224 141.603 105.946C141.481 105.667 141.263 105.452 140.988 105.339C140.857 105.284 140.717 105.256 140.576 105.256Z" fill="#1D1E1E"/>
<path d="M141.455 107.285C141.543 107.005 141.533 106.69 141.402 106.396C141.127 105.768 140.417 105.476 139.814 105.74C139.687 105.796 139.571 105.875 139.473 105.973C139.569 105.657 139.795 105.387 140.113 105.246C140.716 104.982 141.425 105.274 141.701 105.902C141.918 106.393 141.803 106.943 141.455 107.285Z" fill="#1D1E1E"/>
<path d="M141.454 107.392C141.437 107.392 141.421 107.388 141.406 107.38C141.391 107.373 141.378 107.362 141.368 107.348C141.358 107.335 141.351 107.319 141.349 107.302C141.346 107.286 141.347 107.269 141.352 107.253C141.436 106.985 141.419 106.696 141.304 106.44C141.053 105.868 140.404 105.599 139.856 105.838C139.741 105.889 139.636 105.961 139.547 106.049C139.53 106.066 139.508 106.077 139.485 106.08C139.461 106.082 139.437 106.077 139.417 106.065C139.396 106.053 139.381 106.034 139.372 106.011C139.364 105.989 139.363 105.965 139.37 105.942C139.479 105.587 139.734 105.297 140.069 105.148C140.725 104.861 141.5 105.18 141.798 105.859C142.026 106.375 141.918 106.979 141.529 107.362C141.509 107.381 141.482 107.392 141.454 107.392V107.392ZM140.274 105.536C140.783 105.536 141.276 105.843 141.5 106.353C141.57 106.511 141.61 106.681 141.617 106.854C141.734 106.572 141.734 106.242 141.603 105.945C141.352 105.374 140.702 105.104 140.155 105.344C140.003 105.412 139.869 105.515 139.765 105.645C139.767 105.644 139.769 105.643 139.771 105.642C139.93 105.572 140.101 105.536 140.274 105.537L140.274 105.536Z" fill="#1D1E1E"/>
<path d="M291.974 197.406C291.974 197.406 291.974 197.408 291.972 197.408C291.69 197.571 291.394 197.711 291.088 197.826L226.475 222.405L111.152 266.273C108.195 267.398 104.867 266.093 103.46 263.254L95.9753 248.162L95.988 247.933C77.889 211.61 76.4221 188.365 84.9408 184.413C93.3129 180.528 104.142 194.885 114.506 209.044C124.872 223.205 134.209 238.141 144.345 234.043C153.773 230.231 146.741 213.482 156.678 209.344C161.159 207.702 165.148 210.031 169.656 212.171C174.165 214.31 179.193 216.26 185.407 213.995C207.655 205.77 182.273 166.582 196.632 161.083C210.256 156.119 231.307 213.99 255.861 205.835C256.114 205.751 256.366 205.663 256.617 205.572C269.076 201.029 267.412 191.342 274.774 188.605C281.836 186.03 289.485 194.374 291.974 197.406L291.974 197.406Z" fill="white"/>
<path d="M108.954 266.787C106.643 266.787 104.453 265.497 103.365 263.302L95.8798 248.209C95.8716 248.193 95.8678 248.174 95.8688 248.156L95.8799 247.955C89.1623 234.47 84.2902 221.804 81.7896 211.325C79.5037 201.745 79.1916 194.119 80.8868 189.273C81.7451 186.82 83.0939 185.152 84.896 184.316C88.7057 182.548 93.336 184.369 99.0508 189.885C103.979 194.641 109.005 201.347 114.593 208.981C115.615 210.377 116.639 211.799 117.63 213.173C122.258 219.592 126.628 225.654 131.032 229.72C135.961 234.27 140.178 235.613 144.305 233.944C148.901 232.086 149.527 227.187 150.189 222C150.857 216.771 151.548 211.364 156.637 209.246C160.74 207.742 164.478 209.551 168.436 211.465C168.854 211.668 169.275 211.872 169.702 212.074C174.244 214.229 179.195 216.145 185.371 213.895C190.836 211.874 193.882 207.782 194.684 201.385C195.391 195.741 194.315 189.166 193.276 182.808C192.445 177.726 191.66 172.926 191.88 169.058C192.128 164.686 193.626 162.12 196.594 160.984C202.518 158.824 209.719 168.253 218.058 179.169C223.431 186.203 229.521 194.176 235.857 199.6C243.087 205.789 249.62 207.795 255.828 205.733C256.08 205.649 256.331 205.562 256.581 205.471C263.598 202.913 266.099 198.736 268.306 195.052C270.024 192.183 271.507 189.706 274.737 188.505C277.805 187.387 281.308 188.164 285.15 190.815C288.263 192.964 290.813 195.825 292.056 197.339C292.072 197.358 292.081 197.382 292.081 197.407C292.081 197.446 292.058 197.482 292.026 197.501C291.738 197.667 291.437 197.809 291.126 197.927L226.513 222.506L111.19 266.374C110.454 266.653 109.698 266.787 108.954 266.787L108.954 266.787ZM96.0837 248.139L103.556 263.207C104.945 266.009 108.194 267.284 111.114 266.173L226.437 222.306L291.05 197.726C291.312 197.628 291.566 197.511 291.811 197.376C290.547 195.848 288.055 193.08 285.028 190.991C281.246 188.382 277.809 187.613 274.811 188.706C271.652 189.88 270.186 192.328 268.489 195.162C266.264 198.877 263.742 203.088 256.654 205.672C256.362 205.778 256.121 205.862 255.895 205.936C254.304 206.465 252.691 206.73 251.054 206.73C246.223 206.731 241.164 204.424 235.719 199.762C229.365 194.324 223.268 186.342 217.889 179.3C209.601 168.45 202.443 159.08 196.669 161.184C193.791 162.286 192.337 164.792 192.093 169.07C191.874 172.915 192.657 177.704 193.487 182.773C195.536 195.304 197.858 209.506 185.445 214.096C179.191 216.375 174.193 214.442 169.611 212.268C169.184 212.065 168.761 211.861 168.343 211.658C164.427 209.763 160.729 207.974 156.715 209.445C151.744 211.515 151.062 216.859 150.401 222.027C150.081 224.538 149.749 227.134 148.92 229.279C147.987 231.695 146.503 233.286 144.385 234.143C142.158 235.043 139.925 235.075 137.558 234.241C135.444 233.497 133.262 232.069 130.887 229.877C126.468 225.797 122.091 219.726 117.457 213.298C116.467 211.924 115.442 210.503 114.42 209.108C108.839 201.482 103.818 194.784 98.9027 190.039C93.259 184.592 88.707 182.784 84.9858 184.51C83.2382 185.321 81.9269 186.947 81.0886 189.344C79.4069 194.151 79.7211 201.735 81.9976 211.275C84.496 221.746 89.3669 234.405 96.0839 247.885C96.0922 247.902 96.096 247.921 96.095 247.939L96.0839 248.139H96.0837Z" fill="#1D1E1E"/>
<path d="M123.624 261.529L123.265 261.667L85.0498 184.364C85.1662 184.31 85.2845 184.261 85.4046 184.216L123.624 261.529Z" fill="#1D1E1E"/>
<path d="M123.265 261.774C123.245 261.774 123.226 261.769 123.209 261.758C123.192 261.748 123.178 261.733 123.17 261.715L84.9545 184.411C84.9481 184.399 84.9444 184.385 84.9436 184.371C84.9427 184.356 84.9446 184.342 84.9493 184.329C84.954 184.315 84.9614 184.303 84.9709 184.292C84.9804 184.282 84.992 184.273 85.0049 184.267C85.1237 184.212 85.2446 184.162 85.3672 184.116C85.392 184.107 85.4195 184.107 85.4442 184.116C85.469 184.126 85.4892 184.145 85.5009 184.169L123.721 261.482C123.727 261.495 123.731 261.51 123.732 261.524C123.732 261.539 123.73 261.554 123.725 261.568C123.719 261.582 123.711 261.594 123.7 261.605C123.69 261.615 123.677 261.624 123.663 261.629L123.304 261.767C123.292 261.772 123.279 261.774 123.266 261.774H123.265ZM85.1951 184.416L123.318 261.533L123.477 261.471L85.3525 184.351C85.303 184.371 85.2495 184.392 85.195 184.416H85.1951ZM152.197 250.66L151.837 250.796L143.676 234.285C143.798 234.247 143.92 234.206 144.04 234.161L152.197 250.66L152.197 250.66Z" fill="#1D1E1E"/>
<path d="M151.837 250.903C151.817 250.903 151.798 250.897 151.781 250.887C151.764 250.876 151.75 250.861 151.741 250.843L143.58 234.333C143.573 234.319 143.569 234.304 143.568 234.288C143.568 234.273 143.571 234.257 143.577 234.243C143.583 234.229 143.592 234.216 143.604 234.206C143.615 234.195 143.629 234.188 143.643 234.183C143.764 234.145 143.884 234.105 144.002 234.061C144.027 234.051 144.054 234.052 144.079 234.061C144.104 234.071 144.124 234.09 144.135 234.114L152.292 250.612C152.299 250.626 152.303 250.64 152.303 250.655C152.304 250.67 152.302 250.685 152.296 250.699C152.291 250.713 152.282 250.726 152.272 250.736C152.261 250.747 152.248 250.755 152.234 250.76L151.875 250.896C151.863 250.901 151.85 250.903 151.837 250.903V250.903ZM143.826 234.349L151.89 250.662L152.049 250.602L143.986 234.294C143.933 234.313 143.88 234.331 143.826 234.349ZM172.981 242.754L172.621 242.89L156.155 209.582C156.269 209.525 156.385 209.471 156.503 209.422L172.981 242.754L172.981 242.754Z" fill="#1D1E1E"/>
<path d="M172.622 242.997C172.602 242.997 172.583 242.992 172.566 242.981C172.549 242.97 172.535 242.955 172.526 242.938L156.06 209.63C156.047 209.604 156.045 209.575 156.054 209.549C156.063 209.522 156.082 209.5 156.107 209.487C156.211 209.434 156.323 209.382 156.462 209.324C156.487 209.313 156.515 209.313 156.541 209.322C156.566 209.332 156.587 209.351 156.599 209.375L173.077 242.707C173.084 242.72 173.088 242.735 173.088 242.75C173.089 242.765 173.086 242.78 173.081 242.793C173.076 242.807 173.067 242.82 173.057 242.83C173.046 242.841 173.033 242.849 173.019 242.854L172.66 242.99C172.648 242.995 172.635 242.997 172.622 242.997H172.622ZM156.299 209.631L172.675 242.756L172.834 242.696L156.452 209.56C156.397 209.585 156.347 209.608 156.299 209.631ZM195.762 234.087L195.402 234.226L185.404 213.998C185.406 213.997 185.407 213.996 185.409 213.996C185.528 213.95 185.647 213.907 185.764 213.86L195.762 234.087L195.762 234.087Z" fill="#1D1E1E"/>
<path d="M195.402 234.333C195.382 234.333 195.362 234.327 195.345 234.317C195.328 234.306 195.315 234.291 195.306 234.273L185.308 214.045C185.298 214.025 185.295 214.003 185.298 213.981C185.302 213.959 185.312 213.938 185.328 213.922C185.34 213.911 185.355 213.902 185.371 213.896V213.896L185.473 213.857C185.557 213.826 185.64 213.794 185.723 213.761C185.748 213.751 185.776 213.75 185.801 213.76C185.826 213.769 185.847 213.788 185.859 213.812L195.857 234.04C195.864 234.053 195.867 234.068 195.868 234.083C195.869 234.097 195.866 234.112 195.861 234.126C195.855 234.14 195.847 234.153 195.836 234.163C195.826 234.174 195.813 234.182 195.799 234.187L195.44 234.326C195.428 234.33 195.415 234.333 195.402 234.333ZM185.552 214.056L195.454 234.091L195.614 234.03L185.711 213.996C185.658 214.016 185.605 214.036 185.552 214.056ZM226.517 222.388L226.474 222.405L226.158 222.524L195.937 161.393C196.05 161.333 196.166 161.277 196.283 161.226L226.517 222.388H226.517Z" fill="#1D1E1E"/>
<path d="M226.157 222.631C226.137 222.631 226.118 222.626 226.101 222.615C226.084 222.605 226.07 222.589 226.061 222.572L195.841 161.44C195.829 161.415 195.827 161.387 195.835 161.36C195.844 161.334 195.862 161.312 195.887 161.298C196.002 161.237 196.12 161.18 196.239 161.128C196.264 161.117 196.293 161.116 196.319 161.125C196.345 161.135 196.366 161.154 196.378 161.179L226.612 222.341C226.619 222.354 226.623 222.369 226.623 222.383C226.624 222.398 226.622 222.413 226.616 222.427C226.611 222.441 226.603 222.453 226.592 222.464C226.582 222.474 226.569 222.483 226.555 222.488L226.195 222.624C226.183 222.629 226.17 222.631 226.157 222.631L226.157 222.631ZM196.079 161.44L226.21 222.39L226.369 222.33L196.232 161.366C196.179 161.39 196.128 161.415 196.079 161.439L196.079 161.44ZM259.018 210.026L258.659 210.162L256.422 205.641C256.489 205.617 256.553 205.596 256.618 205.572C256.675 205.551 256.729 205.531 256.787 205.51L259.018 210.026Z" fill="#1D1E1E"/>
<path d="M258.66 210.269C258.64 210.269 258.62 210.263 258.603 210.253C258.586 210.242 258.573 210.227 258.564 210.209L256.327 205.689C256.321 205.675 256.317 205.66 256.316 205.645C256.316 205.63 256.319 205.615 256.324 205.601C256.33 205.587 256.338 205.574 256.349 205.564C256.36 205.553 256.373 205.545 256.387 205.54L256.464 205.514C256.503 205.5 256.543 205.486 256.582 205.472L256.75 205.41C256.775 205.401 256.802 205.401 256.827 205.411C256.852 205.42 256.872 205.439 256.884 205.463L259.115 209.979C259.122 209.992 259.125 210.007 259.126 210.022C259.127 210.036 259.124 210.051 259.119 210.065C259.113 210.079 259.105 210.092 259.094 210.102C259.084 210.113 259.071 210.121 259.057 210.126L258.698 210.262C258.685 210.267 258.673 210.269 258.66 210.269H258.66ZM256.572 205.702L258.712 210.028L258.871 209.968L256.734 205.643L256.656 205.672C256.628 205.683 256.6 205.692 256.572 205.702ZM281.742 201.381L281.382 201.519L274.966 188.541C275.088 188.497 275.212 188.458 275.338 188.427L281.742 201.381Z" fill="#1D1E1E"/>
<path d="M281.382 201.626C281.362 201.626 281.343 201.62 281.326 201.61C281.309 201.599 281.295 201.584 281.287 201.566L274.871 188.588C274.864 188.575 274.86 188.56 274.859 188.545C274.859 188.53 274.861 188.515 274.867 188.501C274.873 188.487 274.881 188.475 274.892 188.464C274.903 188.454 274.916 188.446 274.93 188.441C275.055 188.395 275.182 188.355 275.312 188.323C275.335 188.317 275.36 188.319 275.383 188.329C275.405 188.34 275.423 188.357 275.434 188.379L281.838 201.333C281.844 201.346 281.848 201.361 281.849 201.376C281.849 201.391 281.847 201.406 281.842 201.419C281.836 201.433 281.828 201.446 281.817 201.456C281.807 201.467 281.794 201.475 281.78 201.48L281.421 201.619C281.409 201.623 281.396 201.626 281.382 201.626L281.382 201.626ZM275.116 188.602L281.435 201.384L281.594 201.323L275.281 188.552C275.226 188.568 275.171 188.584 275.116 188.602Z" fill="#1D1E1E"/>
<path d="M187.48 113.631L120.046 139.283C119.812 139.371 119.555 139.37 119.322 139.279C119.09 139.188 118.9 139.013 118.789 138.79L116.723 134.625C116.459 134.092 116.711 133.447 117.267 133.236L184.701 107.584C184.934 107.495 185.192 107.497 185.424 107.588C185.657 107.679 185.847 107.854 185.958 108.077L188.023 112.242C188.288 112.775 188.035 113.42 187.48 113.631ZM230.097 95.8384L228.031 91.673C227.92 91.4492 227.73 91.2748 227.497 91.1836C227.265 91.0925 227.007 91.0911 226.774 91.1798L195.896 102.925C195.341 103.137 195.089 103.781 195.353 104.314L197.419 108.48C197.53 108.704 197.72 108.878 197.952 108.969C198.185 109.06 198.443 109.062 198.676 108.973L229.553 97.2274C230.109 97.0162 230.361 96.3713 230.097 95.8384Z" fill="white"/>
<path d="M119.686 139.456C119.48 139.456 119.277 139.398 119.101 139.289C118.926 139.179 118.784 139.023 118.693 138.837L116.628 134.672C116.559 134.533 116.52 134.381 116.513 134.226C116.506 134.07 116.532 133.915 116.588 133.771C116.645 133.626 116.731 133.495 116.841 133.385C116.952 133.276 117.084 133.191 117.229 133.136L184.663 107.484C184.921 107.385 185.207 107.386 185.464 107.487C185.721 107.588 185.931 107.781 186.054 108.029L188.119 112.194C188.258 112.475 188.273 112.804 188.158 113.096C188.044 113.388 187.811 113.62 187.518 113.731L120.083 139.383C119.957 139.431 119.822 139.456 119.686 139.456ZM185.06 107.625C184.95 107.625 184.841 107.645 184.739 107.684L117.304 133.336C117.187 133.38 117.081 133.449 116.992 133.537C116.902 133.626 116.833 133.732 116.787 133.849C116.741 133.966 116.721 134.091 116.726 134.216C116.732 134.342 116.763 134.464 116.819 134.577L118.884 138.742C118.983 138.942 119.153 139.099 119.361 139.181C119.568 139.262 119.799 139.263 120.008 139.183L187.442 113.531C187.559 113.486 187.666 113.418 187.755 113.329C187.844 113.241 187.914 113.135 187.959 113.018C188.005 112.901 188.026 112.776 188.02 112.651C188.015 112.525 187.983 112.402 187.928 112.29L185.862 108.125C185.788 107.975 185.674 107.848 185.532 107.76C185.39 107.672 185.227 107.625 185.06 107.625ZM198.316 109.146C198.11 109.146 197.907 109.088 197.731 108.979C197.556 108.869 197.414 108.713 197.323 108.527L195.257 104.362C195.118 104.081 195.103 103.752 195.218 103.46C195.332 103.168 195.565 102.936 195.858 102.825L226.736 91.0794C226.994 90.9804 227.279 90.9814 227.537 91.0823C227.794 91.1833 228.004 91.3768 228.126 91.6251L230.192 95.7906C230.331 96.0715 230.346 96.4001 230.232 96.6922C230.117 96.9844 229.884 97.2158 229.591 97.3272L198.713 109.073C198.587 109.121 198.452 109.146 198.316 109.146V109.146ZM227.133 91.2203C227.026 91.2203 226.917 91.2395 226.812 91.2796L195.934 103.025C195.817 103.07 195.71 103.139 195.621 103.227C195.532 103.315 195.462 103.421 195.417 103.538C195.371 103.655 195.35 103.78 195.356 103.906C195.361 104.031 195.393 104.154 195.449 104.267L197.514 108.432C197.613 108.633 197.783 108.789 197.991 108.87C198.199 108.952 198.429 108.953 198.638 108.873L229.515 97.1273C229.633 97.0826 229.739 97.0139 229.828 96.9256C229.917 96.8372 229.987 96.7312 230.033 96.6143C230.078 96.4974 230.099 96.3722 230.094 96.2468C230.088 96.1214 230.057 95.9985 230.001 95.886L227.935 91.7205C227.861 91.5704 227.747 91.444 227.605 91.3557C227.463 91.2673 227.3 91.2204 227.133 91.2203Z" fill="#1D1E1E"/>
<path d="M161.761 138.247L125.954 151.868C125.812 151.922 125.656 151.921 125.515 151.866C125.374 151.81 125.259 151.704 125.191 151.569L123.66 148.482C123.622 148.405 123.601 148.322 123.597 148.237C123.594 148.152 123.608 148.067 123.639 147.987C123.67 147.908 123.717 147.836 123.777 147.776C123.838 147.716 123.91 147.67 123.99 147.639L159.797 134.018C159.939 133.964 160.095 133.965 160.236 134.021C160.377 134.076 160.492 134.182 160.56 134.317L162.091 137.404C162.129 137.481 162.15 137.564 162.154 137.649C162.157 137.734 162.143 137.819 162.112 137.899C162.081 137.978 162.034 138.05 161.974 138.11C161.913 138.17 161.841 138.216 161.761 138.247ZM186.379 128.171L184.847 125.084C184.78 124.948 184.665 124.842 184.524 124.787C184.383 124.732 184.227 124.731 184.085 124.785L167.923 130.933C167.843 130.963 167.771 131.01 167.71 131.07C167.65 131.13 167.603 131.202 167.571 131.281C167.54 131.36 167.526 131.445 167.53 131.53C167.534 131.616 167.555 131.699 167.593 131.775L169.124 134.863C169.192 134.998 169.307 135.104 169.448 135.159C169.589 135.215 169.745 135.215 169.886 135.162L186.049 129.014C186.129 128.983 186.201 128.937 186.261 128.877C186.322 128.817 186.369 128.745 186.4 128.666C186.431 128.586 186.445 128.501 186.442 128.416C186.438 128.331 186.416 128.248 186.379 128.171L186.379 128.171ZM182.421 142.021L180.89 138.934C180.823 138.798 180.707 138.693 180.567 138.637C180.426 138.582 180.269 138.581 180.128 138.635L128.899 158.129C128.819 158.159 128.747 158.205 128.687 158.265C128.626 158.325 128.579 158.397 128.548 158.477C128.517 158.556 128.503 158.641 128.506 158.726C128.51 158.811 128.532 158.894 128.569 158.971L130.101 162.058C130.168 162.194 130.283 162.299 130.424 162.355C130.565 162.41 130.721 162.411 130.863 162.357L182.092 142.863C182.171 142.833 182.244 142.786 182.304 142.727C182.365 142.667 182.412 142.595 182.443 142.515C182.474 142.436 182.488 142.351 182.484 142.266C182.481 142.181 182.459 142.097 182.421 142.021ZM206.712 132.758L205.18 129.67C205.113 129.535 204.998 129.429 204.857 129.374C204.716 129.318 204.56 129.318 204.418 129.371L188.256 135.519C188.176 135.55 188.104 135.596 188.043 135.656C187.983 135.716 187.936 135.788 187.904 135.867C187.873 135.947 187.859 136.032 187.863 136.117C187.867 136.202 187.888 136.285 187.926 136.362L189.457 139.449C189.525 139.585 189.64 139.691 189.781 139.746C189.922 139.801 190.078 139.802 190.219 139.748L206.382 133.6C206.462 133.57 206.534 133.523 206.594 133.463C206.655 133.403 206.702 133.331 206.733 133.252C206.764 133.173 206.778 133.088 206.775 133.003C206.771 132.917 206.749 132.834 206.712 132.758L206.712 132.758Z" fill="white"/>
<path d="M130.645 162.504C130.512 162.504 130.381 162.467 130.268 162.396C130.155 162.326 130.064 162.225 130.005 162.105L128.474 159.018C128.384 158.837 128.375 158.625 128.448 158.437C128.522 158.249 128.672 158.1 128.861 158.028L180.09 138.535C180.256 138.471 180.44 138.472 180.606 138.537C180.772 138.602 180.907 138.726 180.986 138.886L182.517 141.973C182.607 142.154 182.616 142.366 182.542 142.554C182.469 142.742 182.318 142.891 182.13 142.963L130.901 162.457C130.817 162.489 130.73 162.504 130.645 162.504L130.645 162.504ZM180.345 138.702C180.284 138.702 180.223 138.713 180.166 138.735L128.937 158.228C128.871 158.253 128.811 158.291 128.761 158.341C128.711 158.39 128.673 158.45 128.647 158.515C128.622 158.581 128.61 158.651 128.613 158.721C128.616 158.791 128.634 158.86 128.665 158.923L130.196 162.01C130.252 162.122 130.347 162.21 130.463 162.256C130.579 162.301 130.708 162.302 130.825 162.257L182.054 142.763C182.12 142.739 182.179 142.7 182.229 142.651C182.279 142.601 182.318 142.542 182.343 142.476C182.369 142.411 182.381 142.341 182.378 142.271C182.374 142.2 182.357 142.132 182.326 142.069L180.794 138.982C180.753 138.898 180.689 138.827 180.61 138.777C180.531 138.728 180.439 138.702 180.345 138.702ZM125.736 152.015C125.602 152.015 125.472 151.978 125.359 151.907C125.246 151.837 125.155 151.736 125.096 151.616L123.565 148.529C123.475 148.348 123.466 148.136 123.539 147.948C123.613 147.76 123.763 147.611 123.952 147.539L159.76 133.918C159.926 133.854 160.11 133.855 160.275 133.92C160.441 133.985 160.577 134.11 160.655 134.27L162.186 137.357C162.276 137.538 162.285 137.749 162.212 137.938C162.138 138.126 161.988 138.275 161.799 138.347L125.992 151.968C125.907 152 125.821 152.015 125.736 152.015L125.736 152.015ZM160.015 134.085C159.955 134.085 159.894 134.096 159.835 134.118L124.028 147.739C123.962 147.764 123.902 147.802 123.852 147.852C123.802 147.901 123.763 147.961 123.738 148.026C123.712 148.092 123.701 148.162 123.704 148.232C123.707 148.302 123.725 148.371 123.756 148.434L125.287 151.521C125.342 151.633 125.437 151.721 125.554 151.766C125.67 151.812 125.799 151.813 125.916 151.768L161.723 138.147C161.789 138.122 161.849 138.083 161.898 138.034C161.948 137.984 161.987 137.925 162.013 137.86C162.039 137.794 162.051 137.724 162.048 137.654C162.044 137.584 162.027 137.515 161.995 137.452L160.464 134.365C160.423 134.281 160.359 134.21 160.279 134.161C160.2 134.111 160.108 134.085 160.015 134.085ZM190.002 139.895C189.869 139.895 189.738 139.858 189.625 139.787C189.512 139.717 189.421 139.616 189.362 139.497L187.831 136.409C187.786 136.319 187.761 136.221 187.757 136.121C187.752 136.021 187.769 135.921 187.805 135.828C187.842 135.735 187.897 135.65 187.968 135.58C188.039 135.51 188.124 135.455 188.218 135.419L204.38 129.271C204.547 129.207 204.731 129.208 204.896 129.273C205.062 129.338 205.197 129.463 205.276 129.622L206.807 132.71C206.897 132.891 206.906 133.103 206.833 133.291C206.759 133.479 206.609 133.628 206.42 133.7L190.258 139.848C190.173 139.88 190.087 139.895 190.002 139.895ZM204.636 129.438C204.576 129.438 204.515 129.449 204.456 129.471L188.294 135.619C188.228 135.644 188.168 135.682 188.118 135.732C188.068 135.781 188.029 135.841 188.004 135.906C187.978 135.972 187.967 136.042 187.97 136.112C187.973 136.182 187.991 136.251 188.022 136.314L189.553 139.401C189.608 139.514 189.703 139.601 189.82 139.647C189.936 139.692 190.065 139.693 190.182 139.648L206.344 133.5C206.41 133.475 206.469 133.437 206.519 133.387C206.569 133.338 206.608 133.278 206.634 133.213C206.66 133.148 206.672 133.077 206.668 133.007C206.665 132.937 206.647 132.868 206.616 132.805L205.085 129.718C205.043 129.634 204.98 129.563 204.9 129.514C204.821 129.464 204.729 129.438 204.636 129.438V129.438ZM169.669 135.309C169.535 135.309 169.405 135.271 169.292 135.201C169.179 135.13 169.088 135.03 169.029 134.91L167.498 131.823C167.408 131.642 167.399 131.43 167.472 131.242C167.546 131.053 167.696 130.904 167.885 130.833L184.047 124.685C184.213 124.621 184.397 124.621 184.563 124.686C184.729 124.751 184.864 124.876 184.943 125.036L186.474 128.123C186.564 128.304 186.573 128.516 186.5 128.704C186.426 128.893 186.276 129.042 186.087 129.113L169.925 135.261C169.84 135.294 169.754 135.309 169.669 135.309L169.669 135.309ZM184.303 124.851C184.243 124.851 184.182 124.862 184.123 124.885L167.961 131.033C167.895 131.057 167.835 131.096 167.785 131.145C167.735 131.195 167.696 131.254 167.671 131.32C167.646 131.385 167.634 131.455 167.637 131.526C167.64 131.596 167.658 131.665 167.689 131.727L169.22 134.815C169.275 134.927 169.37 135.015 169.487 135.06C169.603 135.106 169.732 135.107 169.849 135.062L186.011 128.914C186.077 128.889 186.137 128.851 186.187 128.801C186.237 128.752 186.276 128.692 186.301 128.627C186.326 128.561 186.338 128.491 186.335 128.421C186.332 128.351 186.314 128.282 186.283 128.219L184.752 125.132C184.71 125.048 184.647 124.977 184.567 124.927C184.488 124.878 184.396 124.852 184.303 124.851ZM187.694 113.519C187.679 113.475 187.662 113.432 187.641 113.391L185.575 109.227C185.465 109.002 185.275 108.828 185.042 108.736C184.81 108.645 184.552 108.644 184.319 108.732L116.884 134.385C116.809 134.414 116.738 134.451 116.671 134.496C116.502 133.992 116.756 133.43 117.267 133.236L184.701 107.583C184.934 107.495 185.192 107.496 185.425 107.587C185.657 107.679 185.847 107.853 185.958 108.078L188.024 112.242C188.251 112.7 188.095 113.243 187.694 113.519ZM230.097 95.8384L228.031 91.6728C227.802 91.2094 227.257 90.9962 226.774 91.18L195.896 102.925C195.385 103.12 195.131 103.683 195.301 104.186C195.367 104.141 195.439 104.103 195.514 104.074L226.392 92.329C226.875 92.1452 227.419 92.3584 227.649 92.8218L229.715 96.9874C229.735 97.0296 229.753 97.0717 229.767 97.115C230.168 96.8392 230.324 96.2967 230.097 95.8384Z" fill="#1D1E1E"/>
<path d="M116.671 134.603C116.648 134.603 116.627 134.596 116.608 134.583C116.59 134.57 116.577 134.552 116.57 134.53C116.477 134.258 116.494 133.96 116.617 133.7C116.74 133.439 116.959 133.237 117.228 133.136L184.663 107.484C184.921 107.384 185.206 107.385 185.464 107.486C185.721 107.588 185.931 107.782 186.053 108.03L188.119 112.194C188.363 112.688 188.206 113.296 187.753 113.607C187.74 113.616 187.724 113.622 187.707 113.625C187.691 113.627 187.674 113.625 187.658 113.62C187.643 113.614 187.628 113.605 187.617 113.594C187.605 113.582 187.596 113.567 187.591 113.551C187.579 113.512 187.563 113.474 187.545 113.438L185.479 109.274C185.381 109.073 185.211 108.917 185.003 108.835C184.795 108.753 184.564 108.752 184.356 108.832L116.922 134.485C116.854 134.511 116.791 134.544 116.731 134.584C116.713 134.597 116.692 134.603 116.671 134.603ZM185.06 107.624C184.953 107.624 184.844 107.643 184.738 107.683L117.304 133.336C117.108 133.41 116.944 133.55 116.841 133.732C116.738 133.914 116.702 134.126 116.739 134.332C116.773 134.315 116.808 134.299 116.845 134.285L184.28 108.633C184.538 108.533 184.824 108.534 185.081 108.635C185.338 108.737 185.549 108.931 185.67 109.179L187.736 113.343L187.738 113.346C188.021 113.079 188.105 112.648 187.927 112.29L185.861 108.125C185.788 107.975 185.674 107.848 185.532 107.76C185.39 107.671 185.227 107.624 185.06 107.624ZM195.3 104.293C195.278 104.293 195.256 104.286 195.238 104.273C195.22 104.26 195.206 104.242 195.199 104.221C195.107 103.948 195.124 103.65 195.247 103.389C195.369 103.129 195.588 102.927 195.857 102.825L226.736 91.08C226.994 90.9806 227.279 90.9815 227.537 91.0824C227.794 91.1833 228.004 91.3769 228.126 91.6251L230.192 95.7908C230.437 96.2849 230.28 96.8922 229.827 97.2033C229.813 97.2127 229.797 97.2187 229.781 97.221C229.764 97.2232 229.748 97.2216 229.732 97.2163C229.716 97.2109 229.702 97.202 229.69 97.1901C229.679 97.1783 229.67 97.1639 229.665 97.1481C229.652 97.1091 229.636 97.071 229.618 97.0342L227.552 92.8694C227.454 92.6689 227.284 92.5126 227.076 92.4311C226.868 92.3496 226.638 92.3488 226.429 92.4289L195.551 104.174C195.485 104.199 195.421 104.233 195.361 104.274C195.343 104.287 195.322 104.293 195.3 104.293ZM227.133 91.2205C227.026 91.2205 226.918 91.2398 226.812 91.28L195.933 103.025C195.738 103.099 195.574 103.239 195.471 103.421C195.368 103.603 195.331 103.816 195.368 104.022C195.403 104.004 195.439 103.988 195.475 103.974L226.354 92.229C226.611 92.1296 226.897 92.1305 227.154 92.2314C227.412 92.3323 227.622 92.5259 227.744 92.7743L229.81 96.9399L229.811 96.9423C230.094 96.6759 230.178 96.2443 230.001 95.886L227.935 91.7204C227.861 91.5704 227.747 91.444 227.605 91.3557C227.464 91.2674 227.3 91.2205 227.133 91.2205Z" fill="#1D1E1E"/>
<path d="M102.522 278.929C102.505 278.929 102.488 278.925 102.473 278.917C102.458 278.909 102.444 278.898 102.435 278.884C102.425 278.87 102.418 278.854 102.416 278.837C102.414 278.82 102.415 278.802 102.421 278.786L104.742 272.255C104.746 272.241 104.753 272.229 104.763 272.218C104.772 272.207 104.783 272.199 104.796 272.192C104.809 272.186 104.823 272.183 104.837 272.182C104.851 272.181 104.865 272.183 104.879 272.188C104.892 272.193 104.904 272.2 104.915 272.21C104.925 272.219 104.934 272.231 104.94 272.244C104.946 272.257 104.949 272.271 104.95 272.285C104.95 272.299 104.948 272.313 104.943 272.327L102.622 278.858C102.615 278.879 102.601 278.897 102.583 278.91C102.565 278.922 102.544 278.929 102.522 278.929ZM234.323 77.5451C234.306 77.5452 234.289 77.5411 234.273 77.5333C234.258 77.5254 234.245 77.5139 234.235 77.4999C234.225 77.4859 234.219 77.4697 234.217 77.4527C234.214 77.4357 234.216 77.4184 234.222 77.4022L235.281 74.4314C235.286 74.4181 235.293 74.406 235.303 74.3955C235.312 74.3851 235.324 74.3766 235.336 74.3706C235.349 74.3646 235.363 74.3612 235.377 74.3605C235.391 74.3598 235.405 74.3619 235.418 74.3667C235.431 74.3714 235.443 74.3786 235.454 74.388C235.464 74.3975 235.472 74.4088 235.478 74.4215C235.484 74.4342 235.488 74.448 235.489 74.462C235.489 74.476 235.487 74.4901 235.482 74.5033L234.423 77.4741C234.416 77.4949 234.402 77.5129 234.384 77.5256C234.366 77.5383 234.345 77.5451 234.323 77.5451ZM184.925 108.835C184.908 108.835 184.891 108.831 184.876 108.823C184.861 108.815 184.848 108.804 184.838 108.79C184.829 108.777 184.822 108.761 184.82 108.744C184.817 108.727 184.818 108.71 184.824 108.694L185.215 107.518C185.219 107.505 185.226 107.492 185.235 107.481C185.245 107.47 185.256 107.462 185.268 107.455C185.281 107.449 185.295 107.445 185.309 107.444C185.323 107.443 185.337 107.445 185.351 107.449C185.364 107.454 185.376 107.461 185.387 107.47C185.398 107.479 185.406 107.491 185.413 107.503C185.419 107.516 185.423 107.53 185.423 107.544C185.424 107.558 185.422 107.572 185.418 107.586L185.026 108.762C185.019 108.783 185.006 108.802 184.988 108.815C184.969 108.828 184.948 108.835 184.925 108.835H184.925ZM227.127 92.4445C227.111 92.4445 227.095 92.4406 227.08 92.4333C227.065 92.4259 227.052 92.4152 227.042 92.402C227.032 92.3888 227.025 92.3734 227.022 92.3572C227.019 92.3409 227.02 92.3241 227.024 92.3082L227.352 91.1596C227.36 91.1325 227.378 91.1096 227.403 91.0958C227.428 91.0821 227.457 91.0785 227.484 91.086C227.541 91.1023 227.574 91.1616 227.558 91.2183L227.23 92.3668C227.224 92.3892 227.21 92.4088 227.192 92.4228C227.173 92.4369 227.151 92.4445 227.127 92.4445Z" fill="white"/>
</g>
<g clip-path="url(#clip3_596_64329)">
<path d="M291.985 125.299L297.76 127.746L297.181 129.162L293.81 127.734L291.985 125.299Z" fill="#1D1E1E"/>
<path d="M297.181 129.269C297.166 129.269 297.152 129.266 297.139 129.261L293.768 127.833C293.751 127.825 293.736 127.813 293.724 127.798L291.899 125.363C291.885 125.345 291.878 125.322 291.878 125.298C291.878 125.275 291.886 125.252 291.901 125.234C291.931 125.196 291.982 125.183 292.027 125.201L297.801 127.648C297.827 127.659 297.847 127.679 297.858 127.705C297.869 127.731 297.869 127.76 297.858 127.786L297.28 129.203C297.271 129.222 297.258 129.239 297.24 129.251C297.223 129.263 297.202 129.269 297.181 129.269ZM293.878 127.647L297.123 129.022L297.621 127.803L292.307 125.552L293.878 127.647Z" fill="white"/>
<path d="M315.199 136.796L311.379 116.888L309.554 114.453L313.374 134.361L308.735 132.396L308.735 132.396L307.439 131.847L286.237 183.729L276.441 179.913L263.989 175.063L229.415 259.222L219.626 255.389L220.388 257.765L230.514 261.76L264.451 177.681L285.378 185.832L286.688 186.346L308.156 133.812L315.199 136.796Z" fill="#1D1E1E"/>
<path d="M230.514 261.867C230.501 261.867 230.487 261.864 230.475 261.859L220.349 257.864C220.334 257.858 220.321 257.849 220.31 257.838C220.299 257.826 220.291 257.812 220.286 257.797L219.525 255.422C219.518 255.402 219.518 255.382 219.523 255.362C219.528 255.343 219.538 255.325 219.553 255.311C219.568 255.297 219.586 255.288 219.606 255.284C219.626 255.281 219.647 255.282 219.665 255.29L229.357 259.085L263.891 175.022C263.902 174.997 263.922 174.976 263.948 174.965C263.974 174.954 264.003 174.953 264.029 174.964L286.179 183.591L307.341 131.806C307.346 131.793 307.354 131.781 307.364 131.771C307.374 131.761 307.386 131.754 307.399 131.748C307.412 131.743 307.426 131.74 307.44 131.74C307.454 131.74 307.468 131.743 307.481 131.748L308.777 132.298L308.784 132.3L313.232 134.185L309.449 114.473C309.445 114.45 309.448 114.425 309.46 114.404C309.471 114.382 309.489 114.365 309.511 114.356C309.533 114.346 309.558 114.344 309.581 114.35C309.605 114.356 309.625 114.37 309.64 114.389L311.465 116.824C311.474 116.837 311.481 116.852 311.484 116.868L315.304 136.776C315.308 136.795 315.306 136.815 315.3 136.833C315.293 136.851 315.282 136.867 315.266 136.879C315.251 136.891 315.233 136.899 315.214 136.902C315.195 136.905 315.175 136.902 315.158 136.895L308.215 133.953L286.787 186.386C286.776 186.412 286.756 186.433 286.73 186.444C286.704 186.455 286.675 186.455 286.649 186.445L285.339 185.932L264.511 177.819L230.613 261.8C230.605 261.82 230.592 261.836 230.574 261.848C230.556 261.86 230.536 261.867 230.514 261.867ZM220.474 257.684L230.455 261.622L264.352 177.641C264.363 177.615 264.383 177.594 264.409 177.583C264.435 177.572 264.464 177.571 264.49 177.581L285.417 185.733L286.629 186.208L308.058 133.772C308.063 133.759 308.071 133.747 308.081 133.737C308.091 133.727 308.103 133.719 308.116 133.713C308.129 133.708 308.143 133.705 308.157 133.705C308.171 133.705 308.185 133.708 308.198 133.714L315.057 136.62L311.279 116.932L309.746 114.887L313.479 134.341C313.483 134.36 313.481 134.38 313.475 134.398C313.468 134.416 313.457 134.432 313.442 134.444C313.427 134.456 313.408 134.464 313.389 134.467C313.37 134.47 313.351 134.467 313.333 134.46L308.694 132.494L308.687 132.491L307.497 131.987L286.336 183.769C286.326 183.795 286.306 183.816 286.28 183.827C286.254 183.838 286.225 183.838 286.199 183.828L264.049 175.2L229.514 259.263C229.504 259.289 229.483 259.31 229.458 259.321C229.432 259.332 229.403 259.332 229.377 259.322L219.797 255.571L220.474 257.684Z" fill="white"/>
<path d="M263.989 175.063L229.415 259.222L219.626 255.389L254.193 171.247L263.989 175.063Z" fill="#F45100"/>
<path d="M229.415 259.329C229.402 259.329 229.389 259.327 229.376 259.322L219.587 255.489C219.574 255.483 219.562 255.476 219.552 255.466C219.542 255.456 219.534 255.444 219.528 255.431C219.523 255.418 219.52 255.404 219.52 255.39C219.519 255.376 219.522 255.362 219.527 255.349L254.095 171.207C254.105 171.181 254.126 171.16 254.151 171.149C254.177 171.138 254.206 171.138 254.232 171.148L264.028 174.964C264.041 174.969 264.054 174.977 264.064 174.987C264.074 174.996 264.082 175.008 264.088 175.021C264.093 175.034 264.096 175.048 264.096 175.062C264.096 175.076 264.094 175.091 264.088 175.104L229.514 259.263C229.506 259.283 229.493 259.299 229.475 259.311C229.457 259.323 229.437 259.329 229.415 259.329ZM219.766 255.33L229.357 259.085L263.85 175.123L254.253 171.385L219.766 255.33Z" fill="white"/>
<path d="M309.554 114.453L313.374 134.361L307.439 131.847L286.237 183.729L276.441 179.913L297.759 127.746L291.985 125.299L309.554 114.453Z" fill="#F45100"/>
<path d="M286.238 183.836C286.224 183.836 286.211 183.833 286.199 183.828L276.403 180.012C276.39 180.007 276.378 179.999 276.368 179.989C276.357 179.98 276.349 179.968 276.344 179.955C276.338 179.942 276.335 179.928 276.335 179.914C276.335 179.9 276.337 179.886 276.343 179.872L297.621 127.803L291.943 125.397C291.925 125.39 291.91 125.377 291.898 125.361C291.887 125.346 291.88 125.327 291.878 125.307C291.877 125.288 291.881 125.268 291.89 125.251C291.899 125.233 291.912 125.219 291.929 125.208L309.498 114.363C309.528 114.344 309.565 114.342 309.597 114.356C309.629 114.37 309.652 114.399 309.659 114.433L313.479 134.341C313.483 134.36 313.481 134.38 313.475 134.398C313.468 134.416 313.456 134.432 313.441 134.445C313.426 134.457 313.408 134.465 313.389 134.467C313.37 134.47 313.35 134.467 313.333 134.46L307.497 131.987L286.336 183.769C286.328 183.789 286.315 183.806 286.297 183.818C286.279 183.829 286.259 183.836 286.237 183.836L286.238 183.836ZM276.582 179.853L286.179 183.591L307.34 131.806C307.346 131.793 307.354 131.781 307.364 131.771C307.374 131.761 307.386 131.753 307.399 131.748C307.412 131.743 307.426 131.74 307.44 131.74C307.454 131.74 307.468 131.743 307.481 131.748L313.232 134.185L309.478 114.625L292.217 125.282L297.801 127.647C297.827 127.658 297.848 127.679 297.858 127.705C297.869 127.731 297.869 127.76 297.858 127.786L276.581 179.853L276.582 179.853Z" fill="white"/>
</g>
<defs>
<clipPath id="clip0_596_64329">
<rect width="74.7733" height="73.1733" fill="white" transform="translate(13.0137 208.853)"/>
</clipPath>
<clipPath id="clip1_596_64329">
<rect width="85.6533" height="85.2267" fill="white" transform="translate(53.5469 66.1333)"/>
</clipPath>
<clipPath id="clip2_596_64329">
<rect width="262.613" height="210.987" fill="white" transform="translate(38.7197 68.5867)"/>
</clipPath>
<clipPath id="clip3_596_64329">
<rect width="95.7867" height="147.52" fill="white" transform="translate(219.52 114.347)"/>
</clipPath>
</defs>
</svg>
