<?xml version="1.0" encoding="UTF-8" standalone="no"?>
<!DOCTYPE svg PUBLIC "-//W3C//DTD SVG 1.1//EN" "http://www.w3.org/Graphics/SVG/1.1/DTD/svg11.dtd">
<svg width="100%" height="100%" viewBox="0 0 698 125" version="1.1" xmlns="http://www.w3.org/2000/svg" xmlns:xlink="http://www.w3.org/1999/xlink" xml:space="preserve" xmlns:serif="http://www.serif.com/" style="fill-rule:evenodd;clip-rule:evenodd;stroke-linejoin:round;stroke-miterlimit:2;">
    <path d="M578.156,55.815C563.475,55.815 551.578,67.825 551.578,83.636C551.578,99.438 563.475,111.243 578.156,111.243C592.837,111.243 604.844,99.437 604.844,83.636C604.844,67.825 592.835,55.815 578.156,55.815M578.156,98.826C570.968,98.826 565.117,92.669 565.117,83.738C565.117,74.594 570.969,68.242 578.156,68.242C585.343,68.242 591.194,74.595 591.194,83.738C591.194,92.668 585.342,98.826 578.156,98.826M668.851,55.815C661.97,55.815 656.016,58.69 652.01,63.308C648.217,58.69 642.364,55.815 635.178,55.815C620.702,55.815 611.364,65.979 611.364,79.425L611.364,110.019L624.914,110.019L624.914,79.12C624.914,73.166 629.123,69.058 635.179,69.058C644.11,69.058 645.037,76.143 645.037,79.12L645.037,110.019L658.586,110.019L658.586,79.12C658.586,73.166 662.898,69.058 668.852,69.058C677.782,69.058 678.811,76.143 678.811,79.12L678.811,110.019L692.361,110.019L692.361,79.425C692.36,65.571 683.633,55.815 668.851,55.815M517.302,59.515C512.711,61.983 509.132,65.367 506.573,69.688C504.006,74.001 502.723,78.721 502.724,83.849C502.724,91.249 505.358,97.704 510.634,103.221C515.901,108.739 523.199,111.493 532.51,111.493C537.314,111.493 541.617,110.686 545.409,109.092L545.409,93.966C542.154,97.527 537.759,99.326 532.185,99.326C527.381,99.326 523.497,97.898 520.547,95.051C517.588,92.205 516.105,88.523 516.105,84.015C516.105,79.389 517.644,75.585 520.714,72.627C523.782,69.66 527.798,68.177 532.77,68.177C535.505,68.177 537.879,68.603 539.91,69.447C541.728,70.199 543.564,71.515 545.409,73.324L545.409,58.282C541.598,56.64 537.36,55.815 532.705,55.815C527.03,55.815 521.892,57.048 517.302,59.515M492.55,95.543C492.55,95.543 492.549,95.543 492.549,95.543C488.561,95.543 485.279,98.825 485.279,102.813C485.279,102.813 485.279,102.814 485.279,102.814C485.279,106.83 488.535,110.075 492.55,110.075C492.554,110.075 492.557,110.075 492.561,110.075C496.544,110.075 499.821,106.798 499.821,102.815C499.821,102.815 499.821,102.813 499.821,102.813C499.821,98.825 496.539,95.543 492.551,95.543C492.551,95.543 492.55,95.543 492.55,95.543M42.574,39.54C34.589,39.54 27.801,42.072 22.608,47.525L22.608,10.523L4.909,10.523L4.909,75.346C4.909,95.181 19.413,111.151 40.176,111.151C60.81,111.151 75.314,95.181 75.314,75.346C75.314,55.649 60.676,39.54 42.574,39.54M40.176,94.783C30.462,94.783 22.608,86.131 22.608,75.475C22.608,64.56 30.462,55.778 40.176,55.778C49.89,55.778 57.745,64.162 57.745,75.475C57.745,86.39 49.891,94.783 40.176,94.783M127.232,81.085C127.232,88.671 121.64,94.133 113.92,94.133C102.337,94.133 101.006,84.943 101.006,81.085L101.006,41.015L83.433,41.015L83.433,80.548C83.433,98.528 94.751,111.169 113.92,111.169C132.56,111.169 144.806,97.99 144.806,80.548L144.806,41.015L127.233,41.015L127.233,81.085L127.232,81.085ZM209.044,109.574L226.617,109.574L226.617,41.015L209.044,41.015L209.044,109.574ZM209.044,35.321L226.617,35.321L226.617,18.452L209.044,18.452L209.044,35.321ZM409.636,67.963L403.32,64.81C400.585,63.456 398.87,62.399 398.178,61.621C397.483,60.842 397.13,59.989 397.13,59.061C397.13,57.846 397.682,56.817 398.776,56C399.87,55.175 401.381,54.767 403.319,54.767C406.853,54.767 410.785,56.918 415.125,61.204L425.79,50.539C423.055,46.876 419.726,44.066 415.784,42.109C411.852,40.152 407.65,39.178 403.189,39.178C396.67,39.178 391.314,41.107 387.128,44.955C382.94,48.804 380.845,53.44 380.845,58.874C380.845,67.286 386.405,74.297 397.514,79.889L403.319,82.792C408.328,85.323 410.832,87.91 410.832,90.554C410.832,91.992 410.137,93.252 408.745,94.346C407.362,95.441 405.527,95.988 403.255,95.988C401.15,95.988 398.739,95.265 396.031,93.809C393.325,92.368 390.915,90.43 388.927,88.096L378.318,99.652C384.297,107.479 392.293,111.392 402.308,111.392C409.839,111.392 415.848,109.351 420.327,105.272C424.815,101.182 427.051,96.09 427.051,89.989C427.05,85.408 425.81,81.411 423.332,77.998C420.847,74.585 416.276,71.246 409.636,67.963M476.74,77.998C474.255,74.586 469.692,71.246 463.043,67.964L456.736,64.811C453.992,63.457 452.286,62.4 451.59,61.622C450.895,60.843 450.542,59.99 450.542,59.062C450.542,57.847 451.089,56.818 452.192,56.001C453.278,55.176 454.798,54.768 456.736,54.768C460.27,54.768 464.202,56.919 468.542,61.205L479.207,50.54C476.471,46.877 473.132,44.067 469.2,42.11C465.268,40.153 461.067,39.179 456.607,39.179C450.078,39.179 444.727,41.108 440.545,44.956C436.354,48.805 434.257,53.441 434.257,58.875C434.257,67.287 439.821,74.298 450.922,79.89L456.736,82.793C461.744,85.324 464.248,87.911 464.248,90.555C464.248,91.993 463.553,93.253 462.161,94.347C460.77,95.442 458.944,95.989 456.672,95.989C454.567,95.989 452.155,95.266 449.439,93.81C446.738,92.366 444.331,90.428 442.344,88.097L431.736,99.653C437.716,107.48 445.713,111.393 455.726,111.393C463.256,111.393 469.266,109.352 473.745,105.273C478.224,101.183 480.469,96.091 480.469,89.99C480.468,85.408 479.225,81.411 476.74,77.998M340.158,39.281C320.851,39.281 305.012,55.528 305.012,75.364C305.012,95.2 320.851,111.17 340.158,111.17C353.762,111.17 364.215,105.133 369.908,95.59L353.123,89.859C349.978,93.847 345.06,95.729 340.024,95.729C331.766,95.729 325.112,90.545 322.85,82.154L374.638,82.154C377.165,54.99 360.393,39.281 340.158,39.281M323.118,67.768C325.645,59.784 332.034,54.73 340.023,54.73C348.406,54.73 355.069,59.784 357.197,67.768L323.118,67.768ZM267.266,39.419C248.626,39.419 236.381,52.597 236.381,70.04L236.381,109.573L253.954,109.573L253.954,69.503C253.954,61.917 259.546,56.454 267.266,56.454C278.845,56.454 280.18,65.644 280.18,69.503L280.18,109.573L297.753,109.573L297.753,70.041C297.752,52.059 286.435,39.419 267.266,39.419M181.849,67.963L175.534,64.81C172.798,63.456 171.087,62.399 170.392,61.621C169.697,60.842 169.349,59.989 169.349,59.061C169.349,57.846 169.896,56.817 170.995,56C172.084,55.175 173.6,54.767 175.534,54.767C179.072,54.767 183.004,56.918 187.34,61.204L198.008,50.539C195.273,46.876 191.938,44.066 188.003,42.109C184.07,40.152 179.87,39.178 175.409,39.178C168.885,39.178 163.534,41.107 159.347,44.955C155.159,48.802 153.065,53.441 153.064,58.874C153.064,67.286 158.619,74.297 169.729,79.889L175.534,82.792C180.542,85.322 183.051,87.91 183.051,90.554C183.051,91.992 182.355,93.252 180.964,94.346C179.577,95.441 177.747,95.988 175.474,95.988C173.369,95.988 170.962,95.265 168.249,93.809C165.544,92.368 163.134,90.43 161.146,88.096L150.542,99.652C156.514,107.478 164.513,111.392 174.528,111.392C182.058,111.392 188.068,109.351 192.547,105.272C197.03,101.183 199.272,96.089 199.271,89.989C199.27,85.408 198.029,81.411 195.548,77.998C193.061,74.585 188.499,71.246 181.849,67.963" style="fill:red;fill-rule:nonzero;"/>
</svg>
