<svg xmlns="http://www.w3.org/2000/svg" xml:space="preserve" style="fill-rule:evenodd;clip-rule:evenodd;stroke-linejoin:round;stroke-miterlimit:2" viewBox="0 0 698 125">
  <path d="M578.156 55.815c-14.681 0-26.578 12.01-26.578 27.821 0 15.802 11.897 27.607 26.578 27.607s26.688-11.806 26.688-27.607c0-15.811-12.009-27.821-26.688-27.821m0 43.011c-7.188 0-13.039-6.157-13.039-15.088 0-9.144 5.852-15.496 13.039-15.496s13.038 6.353 13.038 15.496c0 8.93-5.852 15.088-13.038 15.088m90.695-43.011c-6.881 0-12.835 2.875-16.841 7.493-3.793-4.618-9.646-7.493-16.832-7.493-14.476 0-23.814 10.164-23.814 23.61v30.594h13.55V79.12c0-5.954 4.209-10.062 10.265-10.062 8.931 0 9.858 7.085 9.858 10.062v30.899h13.549V79.12c0-5.954 4.312-10.062 10.266-10.062 8.93 0 9.959 7.085 9.959 10.062v30.899h13.55V79.425c-.001-13.854-8.728-23.61-23.51-23.61m-151.549 3.7c-4.591 2.468-8.17 5.852-10.729 10.173q-3.85 6.469-3.849 14.161c0 7.4 2.634 13.855 7.91 19.372 5.267 5.518 12.565 8.272 21.876 8.272 4.804 0 9.107-.807 12.899-2.401V93.966c-3.255 3.561-7.65 5.36-13.224 5.36-4.804 0-8.688-1.428-11.638-4.275-2.959-2.846-4.442-6.528-4.442-11.036 0-4.626 1.539-8.43 4.609-11.388 3.068-2.967 7.084-4.45 12.056-4.45 2.735 0 5.109.426 7.14 1.27 1.818.752 3.654 2.068 5.499 3.877V58.282c-3.811-1.642-8.049-2.467-12.704-2.467-5.675 0-10.813 1.233-15.403 3.7M492.55 95.543a7.27 7.27 0 0 0-7.271 7.271c0 4.016 3.256 7.261 7.271 7.261a7.26 7.26 0 0 0 7.271-7.261 7.27 7.27 0 0 0-7.271-7.271M42.574 39.54c-7.985 0-14.773 2.532-19.966 7.985V10.523H4.909v64.823c0 19.835 14.504 35.805 35.267 35.805 20.634 0 35.138-15.97 35.138-35.805 0-19.697-14.638-35.806-32.74-35.806m-2.398 55.243c-9.714 0-17.568-8.652-17.568-19.308 0-10.915 7.854-19.697 17.568-19.697s17.569 8.384 17.569 19.697c0 10.915-7.854 19.308-17.569 19.308m87.056-13.698c0 7.586-5.592 13.048-13.312 13.048-11.583 0-12.914-9.19-12.914-13.048v-40.07H83.433v39.533c0 17.98 11.318 30.621 30.487 30.621 18.64 0 30.886-13.179 30.886-30.621V41.015h-17.573v40.07zm81.812 28.489h17.573V41.015h-17.573zm0-74.253h17.573V18.452h-17.573zm200.592 32.642-6.316-3.153c-2.735-1.354-4.45-2.411-5.142-3.189-.695-.779-1.048-1.632-1.048-2.56 0-1.215.552-2.244 1.646-3.061 1.094-.825 2.605-1.233 4.543-1.233 3.534 0 7.466 2.151 11.806 6.437l10.665-10.665c-2.735-3.663-6.064-6.473-10.006-8.43-3.932-1.957-8.134-2.931-12.595-2.931-6.519 0-11.875 1.929-16.061 5.777-4.188 3.849-6.283 8.485-6.283 13.919 0 8.412 5.56 15.423 16.669 21.015l5.805 2.903q7.513 3.796 7.513 7.762c0 1.438-.695 2.698-2.087 3.792-1.383 1.095-3.218 1.642-5.49 1.642-2.105 0-4.516-.723-7.224-2.179a24.4 24.4 0 0 1-7.104-5.713l-10.609 11.556q8.968 11.74 23.99 11.74c7.531 0 13.54-2.041 18.019-6.12 4.488-4.09 6.724-9.182 6.724-15.283q-.002-6.872-3.719-11.991c-2.485-3.413-7.056-6.752-13.696-10.035m67.104 10.035c-2.485-3.412-7.048-6.752-13.697-10.034l-6.307-3.153c-2.744-1.354-4.45-2.411-5.146-3.189-.695-.779-1.048-1.632-1.048-2.56 0-1.215.547-2.244 1.65-3.061 1.086-.825 2.606-1.233 4.544-1.233 3.534 0 7.466 2.151 11.806 6.437l10.665-10.665c-2.736-3.663-6.075-6.473-10.007-8.43s-8.133-2.931-12.593-2.931c-6.529 0-11.88 1.929-16.062 5.777-4.191 3.849-6.288 8.485-6.288 13.919 0 8.412 5.564 15.423 16.665 21.015l5.814 2.903q7.512 3.796 7.512 7.762c0 1.438-.695 2.698-2.087 3.792-1.391 1.095-3.217 1.642-5.489 1.642-2.105 0-4.517-.723-7.233-2.179a24.5 24.5 0 0 1-7.095-5.713l-10.608 11.556q8.97 11.74 23.99 11.74c7.53 0 13.54-2.041 18.019-6.12 4.479-4.09 6.724-9.182 6.724-15.283q-.002-6.873-3.729-11.992M340.158 39.281c-19.307 0-35.146 16.247-35.146 36.083s15.839 35.806 35.146 35.806c13.604 0 24.057-6.037 29.75-15.58l-16.785-5.731c-3.145 3.988-8.063 5.87-13.099 5.87-8.258 0-14.912-5.184-17.174-13.575h51.788c2.527-27.164-14.245-42.873-34.48-42.873m-17.04 28.487c2.527-7.984 8.916-13.038 16.905-13.038 8.383 0 15.046 5.054 17.174 13.038zm-55.852-28.349c-18.64 0-30.885 13.178-30.885 30.621v39.533h17.573v-40.07c0-7.586 5.592-13.049 13.312-13.049 11.579 0 12.914 9.19 12.914 13.049v40.07h17.573V70.041c-.001-17.982-11.318-30.622-30.487-30.622m-85.417 28.544-6.315-3.153c-2.736-1.354-4.447-2.411-5.142-3.189q-1.043-1.168-1.043-2.56c0-1.215.547-2.244 1.646-3.061 1.089-.825 2.605-1.233 4.539-1.233 3.538 0 7.47 2.151 11.806 6.437l10.668-10.665q-4.102-5.495-10.005-8.43c-3.933-1.957-8.133-2.931-12.594-2.931-6.524 0-11.875 1.929-16.062 5.777q-6.282 5.77-6.283 13.919c0 8.412 5.555 15.423 16.665 21.015l5.805 2.903c5.008 2.53 7.517 5.118 7.517 7.762 0 1.438-.696 2.698-2.087 3.792q-2.081 1.642-5.49 1.642c-2.105 0-4.512-.723-7.225-2.179a24.4 24.4 0 0 1-7.103-5.713l-10.604 11.556c5.972 7.826 13.971 11.74 23.986 11.74 7.53 0 13.54-2.041 18.019-6.12q6.725-6.133 6.724-15.283-.001-6.872-3.723-11.991c-2.487-3.413-7.049-6.752-13.699-10.035" style="fill-rule:nonzero"/>
</svg>
