<svg xmlns="http://www.w3.org/2000/svg" xml:space="preserve" style="fill-rule:evenodd;clip-rule:evenodd;stroke-linejoin:round;stroke-miterlimit:2" viewBox="0 0 225 51">
  <path d="M1.1 18.901H7V50.2H1.1zM16.899.2h6v50H17zM33.1.2h6v50h-5.9zM75.399 50.2h-6v-4.799h-.1C67.799 48.7 63.799 51 59 51c-6.101 0-11.4-3.599-11.4-12V18.801h6V37.3c0 5.9 3.4 8.101 7.1 8.101 5 0 8.699-3.201 8.699-10.401V18.901h6zM82.899 18.901H88.5v4.9h.1c.6-1.9 4.4-5.701 10-5.701 4.6 0 7.8 2 9.8 5.801 2.1-3.801 6.2-5.801 9.9-5.801 9.6 0 11.9 6.9 11.9 13.9v18.2h-5.9V32.8c0-4.8-1-9.1-6.8-9.1s-8 3.901-8 9.5v17.1h-6V33.901c0-5.901-.9-10.201-6.601-10.201-4.299 0-8.1 3.201-8.1 10.3v16.3H83zM138.4 18.901h6V50.2h-6zM153 18.901h6V23.7h.1c1.5-3.299 5.5-5.6 10.3-5.6 6.1 0 11.4 3.6 11.4 12.001V50.3h-6V31.8c0-5.899-3.4-8.1-7.1-8.1-5 0-8.7 3.201-8.7 10.401V50.2h-6zM192.2 26.401c2.2-1.701 4.4-3.6 8.9-3.6 5.1 0 7.5 3.399 7.5 6.6V30.7h-4.4c-9.5 0-17.2 2.8-17.2 10.8 0 6.101 5 9.401 10.8 9.401 4.8 0 8.3-1.5 11-5.601h.1c0 1.601.1 3.2.2 4.801h5.3c-.2-1.7-.3-3.5-.3-5.7v-16C214.1 23 210.3 18 201 18c-4.4 0-9.1 1.5-12.4 4.6zm16.5 8.7v2c0 4.199-2.3 9.099-8.9 9.099-4.1 0-6.7-1.5-6.7-5.099 0-5 6.9-6 12.5-6zM4 3.901a4.01 4.01 0 0 0-4 4c0 2.199 1.799 4 4 4s4-1.801 4-4c0-2.201-1.8-4-4-4M216.6 17.5c0-1.9 1.6-3.5 3.5-3.5s3.5 1.6 3.5 3.5c0 1.901-1.6 3.5-3.5 3.5s-3.5-1.599-3.5-3.5m-.7 0c0 2.401 1.9 4.301 4.3 4.301s4.3-1.9 4.3-4.301c0-2.4-1.9-4.3-4.3-4.3s-4.3 1.9-4.3 4.3m3.5-1.8h.7c.6 0 1.2 0 1.2.701 0 .599-.6.699-1.2.699h-.7zm-.9 4.201h.9v-2h.7l1.2 2h.9l-1.3-2.1c.7-.101 1.2-.5 1.2-1.301 0-.9-.6-1.5-1.7-1.5h-1.9z" style="fill-rule:nonzero"/>
</svg>
