<?xml version="1.0" encoding="UTF-8" standalone="no"?>
<!DOCTYPE svg PUBLIC "-//W3C//DTD SVG 1.1//EN" "http://www.w3.org/Graphics/SVG/1.1/DTD/svg11.dtd">
<svg width="100%" height="100%" viewBox="0 0 225 51" version="1.1" xmlns="http://www.w3.org/2000/svg" xmlns:xlink="http://www.w3.org/1999/xlink" xml:space="preserve" xmlns:serif="http://www.serif.com/" style="fill-rule:evenodd;clip-rule:evenodd;stroke-linejoin:round;stroke-miterlimit:2;">
    <path d="M1.1,18.901L7,18.901L7,50.2L1.1,50.2L1.1,18.901ZM16.899,0.2L22.899,0.2L22.899,50.2L17,50.2L16.899,0.2ZM33.1,0.2L39.1,0.2L39.1,50.2L33.2,50.2L33.1,0.2ZM75.399,50.2L69.399,50.2L69.399,45.401L69.299,45.401C67.799,48.7 63.799,51 59,51C52.899,51 47.6,47.401 47.6,39L47.6,18.801L53.6,18.801L53.6,37.3C53.6,43.2 57,45.401 60.7,45.401C65.7,45.401 69.399,42.2 69.399,35L69.399,18.901L75.399,18.901L75.399,50.2ZM82.899,18.901L88.5,18.901L88.5,23.801L88.6,23.801C89.2,21.901 93,18.1 98.6,18.1C103.2,18.1 106.4,20.1 108.4,23.901C110.5,20.1 114.6,18.1 118.3,18.1C127.9,18.1 130.2,25 130.2,32L130.2,50.2L124.3,50.2L124.3,32.8C124.3,28 123.3,23.7 117.5,23.7C111.7,23.7 109.5,27.601 109.5,33.2L109.5,50.3L103.5,50.3L103.5,33.901C103.5,28 102.6,23.7 96.899,23.7C92.6,23.7 88.799,26.901 88.799,34L88.799,50.3L83,50.3L82.899,18.901ZM138.4,18.901L144.4,18.901L144.4,50.2L138.4,50.2L138.4,18.901ZM153,18.901L159,18.901L159,23.7L159.1,23.7C160.6,20.401 164.6,18.1 169.4,18.1C175.5,18.1 180.8,21.7 180.8,30.101L180.8,50.3L174.8,50.3L174.8,31.8C174.8,25.901 171.4,23.7 167.7,23.7C162.7,23.7 159,26.901 159,34.101L159,50.2L153,50.2L153,18.901ZM192.2,26.401C194.4,24.7 196.6,22.801 201.1,22.801C206.2,22.801 208.6,26.2 208.6,29.401L208.6,30.7L204.2,30.7C194.7,30.7 187,33.5 187,41.5C187,47.601 192,50.901 197.8,50.901C202.6,50.901 206.1,49.401 208.8,45.3L208.9,45.3C208.9,46.901 209,48.5 209.1,50.101L214.4,50.101C214.2,48.401 214.1,46.601 214.1,44.401L214.1,28.401C214.1,23 210.3,18 201,18C196.6,18 191.9,19.5 188.6,22.6L192.2,26.401ZM208.7,35.101L208.7,37.101C208.7,41.3 206.4,46.2 199.8,46.2C195.7,46.2 193.1,44.7 193.1,41.101C193.1,36.101 200,35.101 205.6,35.101L208.7,35.101ZM4,3.901C1.808,3.906 0.005,5.709 0,7.901C0,10.1 1.799,11.901 4,11.901C6.201,11.901 8,10.1 8,7.901C8,5.7 6.2,3.901 4,3.901M216.6,17.5C216.6,15.6 218.2,14 220.1,14C222,14 223.6,15.6 223.6,17.5C223.6,19.401 222,21 220.1,21C218.2,21 216.6,19.401 216.6,17.5M215.9,17.5C215.9,19.901 217.8,21.801 220.2,21.801C222.6,21.801 224.5,19.901 224.5,17.5C224.5,15.1 222.6,13.2 220.2,13.2C217.8,13.2 215.9,15.1 215.9,17.5M219.4,15.7L220.1,15.7C220.7,15.7 221.3,15.7 221.3,16.401C221.3,17 220.7,17.1 220.1,17.1L219.4,17.1L219.4,15.7ZM218.5,19.901L219.4,19.901L219.4,17.901L220.1,17.901L221.3,19.901L222.2,19.901L220.9,17.801C221.6,17.7 222.1,17.301 222.1,16.5C222.1,15.6 221.5,15 220.4,15L218.5,15L218.5,19.901Z" style="fill:red;fill-rule:nonzero;"/>
</svg>
