<svg xmlns="http://www.w3.org/2000/svg" xml:space="preserve" style="fill-rule:evenodd;clip-rule:evenodd;stroke-linejoin:round;stroke-miterlimit:2" viewBox="0 0 119 71">
  <path d="M85.766 6.654c1.779-1.797 3.722-2.086 5.767-1.239 2.148.888 3.088 2.726 3.273 4.957.081.971.04 2.004-.144 2.974-.756 4.007-5.338 5.907-8.589 3.305v4.069c-.021 1.363-.287 1.632-1.616 1.652-.348 0-.675.021-1.023 0-1.063-.041-1.411-.372-1.432-1.446q-.03-7.125 0-14.251c0-1.053.389-1.425 1.432-1.425.981.02 2.127-.269 2.332 1.404m.142 4.751c.103 2.003 1.31 3.325 2.864 3.015 1.166-.227 1.923-1.177 2.005-2.52.102-1.652-.532-2.933-1.657-3.325-1.043-.351-2.189.062-2.679 1.074-.266.558-.368 1.177-.533 1.756M31.834 6.592c1.697-1.714 3.64-2.024 5.706-1.177 2.147.888 3.088 2.726 3.272 4.957a11.2 11.2 0 0 1-.143 2.974c-.736 3.986-5.297 5.907-8.59 3.326v3.965c0 1.487-.245 1.735-1.718 1.756h-.716c-1.309-.021-1.616-.331-1.616-1.652V8.162c0-.558-.02-1.095 0-1.652.041-.785.45-1.157 1.228-1.219 1.738-.145 2.127.021 2.577 1.301m5.072 4.978c-.123-1.859-1.043-3.057-2.455-3.078-1.431-.02-2.393 1.095-2.433 2.83-.041 1.859.92 3.263 2.311 3.119.675-.062 1.431-.558 1.922-1.074.409-.455.471-1.198.655-1.797M46.579 16.713v4.048c0 1.301-.286 1.591-1.534 1.611h-.409c-1.943 0-2.106-.165-2.106-2.086V6.985c0-.806.041-1.549 1.043-1.715 1.657-.268 2.352.042 2.659 1.074.961-.433 1.881-1.094 2.883-1.259 2.782-.496 5.113.97 5.87 3.738.348 1.26.45 2.664.307 3.966-.511 4.192-5.031 6.63-8.713 3.924m-.163-5.391c.061 2.065 1.288 3.408 2.863 3.078 1.166-.248 1.923-1.24 2.004-2.644.082-1.549-.593-2.83-1.697-3.202-1.064-.33-2.168.083-2.679 1.116-.246.516-.348 1.115-.491 1.652M4.285 12.252c0 1.363.02 2.561 0 3.738-.021 1.26-.328 1.57-1.596 1.59h-.613C.44 17.601.174 17.353.174 15.721V2.193C.174.788.46.499 1.83.499c1.8 0 3.62-.02 5.42 0 3.313.041 5.42 2.355 5.42 5.907s-2.148 5.846-5.461 5.866c-.9 0-1.82-.02-2.924-.02m.02-3.532c.838 0 1.534.062 2.25-.021 1.145-.103 1.779-.764 1.943-1.921.122-.929.02-1.983-.88-2.334-.941-.351-2.045-.268-3.068-.33-.061 0-.225.268-.225.413-.04 1.384-.02 2.747-.02 4.193" style="fill-rule:nonzero" transform="translate(0 48)"/>
  <path d="M79.2 49.305c.961.413 1.105 1.074.655 2.044-.143.31-.327.599-.47.909-.389.847-.982.93-1.76.599-.695-.289-1.39-.599-2.106-.743-.47-.104-1.043-.083-1.493.082-.368.124-.859.496-.9.806-.061.372.184.95.491 1.218.451.393 1.043.641 1.575.909.941.455 1.943.826 2.863 1.343 1.698.95 2.578 2.396 2.434 4.399-.143 1.983-1.043 3.532-2.842 4.317-2.966 1.301-5.789.743-8.427-.991-.654-.434-.716-1.033-.327-1.715.123-.206.266-.413.388-.599.961-1.404 1.125-1.384 2.659-.702a9.5 9.5 0 0 0 2.986.764c.45.041 1.166-.495 1.33-.929.123-.331-.369-1.012-.757-1.364-.41-.371-1.003-.557-1.514-.826-.736-.351-1.513-.64-2.208-1.032-2.291-1.26-3.232-3.078-2.803-5.309.43-2.21 2.23-3.841 4.623-4.172.471-.062.941-.062 1.431-.103 1.023.041 2.864.537 4.172 1.095"/>
  <path d="M103.089 4.981c3.824.041 6.503 2.272 6.913 5.639.45 3.718-2.046 6.836-5.809 7.188-2.454.227-4.725-.248-6.422-2.19-1.718-1.962-1.984-4.275-1.043-6.651.941-2.395 2.883-3.552 5.338-3.924.368-.041.757-.041 1.023-.062m2.822 6.548c.02-1.777-1.105-3.078-2.699-3.119-1.535-.042-2.823 1.322-2.864 2.995-.02 1.714 1.186 3.036 2.782 3.036 1.615-.021 2.761-1.219 2.781-2.912" style="fill-rule:nonzero" transform="translate(0 48)"/>
  <path d="M62.021 60.603c.552-2.045 1.083-3.925 1.533-5.825.267-1.074.818-1.528 1.944-1.528 2.843.02 2.925.124 1.943 2.829a2247 2247 0 0 0-3.947 10.72c-1.125 3.015-3.764 4.42-6.545 3.614-.757-.227-1.206-.619-1.043-1.466.245-1.301.9-2.003 1.82-1.776.9.227 1.514-.083 2.046-.744.551-.681.428-1.322.101-2.086-1.349-3.036-2.637-6.093-3.947-9.15-.613-1.425-.307-1.9 1.207-1.9 2.597-.021 2.597-.021 3.395 2.458.47 1.549.94 3.119 1.493 4.854M22.282 63.99c-1.165 1.446-2.556 1.941-4.233 1.859-2.168-.124-3.661-1.384-3.763-3.553-.123-2.602-.062-5.225-.062-7.828 0-.227.041-.516.184-.681.859-.93 1.984-.496 2.986-.434.798.041.88.826.88 1.508v5.473c0 .702 0 1.57.818 1.673.654.083 1.493-.144 2.045-.516.9-.62 1.023-1.735 1.043-2.788.021-1.302-.02-2.603.021-3.925.02-1.156.347-1.466 1.472-1.508 2.516-.062 2.598 0 2.598 2.52 0 2.685-.021 5.37 0 8.035 0 .908-.103 1.652-1.207 1.776-1.963.207-2.434-.041-2.782-1.611M112.026 56.802c-1.554-.413-1.698-.64-1.636-2.086.041-1.094.736-1.26 1.718-1.28 0-.744-.02-1.446 0-2.169.02-.868.43-1.343 1.329-1.343h.717c1.656 0 1.901.248 1.901 1.88v1.425c.838.227 1.636.31 2.25.682.286.165.266.929.266 1.425 0 1.095-.163 1.177-2.434 1.384 0 1.342-.122 2.705.061 4.048.062.434.839.929 1.37 1.095 1.146.371 1.351.661 1.208 2.499-.082.95-.716 1.156-1.473 1.198-3.252.186-5.235-1.715-5.257-4.957v-2.789c-.02-.289-.02-.64-.02-1.012"/>
  <path d="M59.997 2.187c2.966-2.657 7.135-2.683 9.941-1.172 3.1 1.641 4.383 4.949 2.78 8.075a18.7 18.7 0 0 1-5.158 6.227c-1.684 1.328-3.501 2.527-5.345 3.699-.588.365-.775.703-.828 1.381-.214 2.839 2.111 6.695 6.253 7.607a8.14 8.14 0 0 0 9.514-5.341c.187-.573.454-1.068 1.096-1.224 1.122-.287 2.004.677 1.683 1.797a10.1 10.1 0 0 1-2.191 3.986c-4.837 5.445-13.309 4.924-17.424-1.042-.081-.13-.188-.261-.321-.443-.134.209-.267.365-.374.521-2.512 3.439-5.933 5.132-10.263 4.637-4.596-.521-7.616-3.1-9.193-7.32-.053-.156-.107-.287-.133-.443-.161-.782.267-1.485.988-1.667.749-.183 1.47.156 1.737.938.428 1.25 1.016 2.422 1.978 3.36 2.325 2.267 5.078 3.074 8.231 2.11 3.1-.964 4.971-3.126 5.586-6.252.107-.599.08-1.224.026-1.85-.026-.182-.267-.39-.454-.521-2.619-1.485-5.024-3.178-7.162-5.262a20.1 20.1 0 0 1-3.608-4.819c-1.684-3.074-.427-6.279 2.325-7.946 3.154-1.902 7.349-1.563 10.156.86.026.026.08.052.16.104M49.173 6.459c.054.339.081.678.161 1.016.16.651.668.99 1.229.912.641-.104.962-.521.962-1.224-.053-1.511.748-2.267 2.325-2.163.642.026 1.096-.338 1.176-.937a1.064 1.064 0 0 0-.935-1.199c-.481-.052-.989-.026-1.47.026-2.165.209-3.448 1.563-3.448 3.569" style="fill-rule:nonzero"/>
</svg>
