<?xml version="1.0" encoding="UTF-8" standalone="no"?>
<!DOCTYPE svg PUBLIC "-//W3C//DTD SVG 1.1//EN" "http://www.w3.org/Graphics/SVG/1.1/DTD/svg11.dtd">
<svg width="100%" height="100%" viewBox="0 0 119 71" version="1.1" xmlns="http://www.w3.org/2000/svg" xmlns:xlink="http://www.w3.org/1999/xlink" xml:space="preserve" xmlns:serif="http://www.serif.com/" style="fill-rule:evenodd;clip-rule:evenodd;stroke-linejoin:round;stroke-miterlimit:2;">
    <g transform="matrix(1,0,0,1,0,48)">
        <path d="M85.766,6.654C87.545,4.857 89.488,4.568 91.533,5.415C93.681,6.303 94.621,8.141 94.806,10.372C94.887,11.343 94.846,12.376 94.662,13.346C93.906,17.353 89.324,19.253 86.073,16.651L86.073,20.72C86.052,22.083 85.786,22.352 84.457,22.372C84.109,22.372 83.782,22.393 83.434,22.372C82.371,22.331 82.023,22 82.002,20.926C81.982,16.176 81.982,11.426 82.002,6.675C82.002,5.622 82.391,5.25 83.434,5.25C84.415,5.27 85.561,4.981 85.766,6.654M85.908,11.405C86.011,13.408 87.218,14.73 88.772,14.42C89.938,14.193 90.695,13.243 90.777,11.9C90.879,10.248 90.245,8.967 89.12,8.575C88.077,8.224 86.931,8.637 86.441,9.649C86.175,10.207 86.073,10.826 85.908,11.405M31.834,6.592C33.531,4.878 35.474,4.568 37.54,5.415C39.687,6.303 40.628,8.141 40.812,10.372C40.897,11.365 40.849,12.365 40.669,13.346C39.933,17.332 35.372,19.253 32.079,16.672L32.079,20.637C32.079,22.124 31.834,22.372 30.361,22.393L29.645,22.393C28.336,22.372 28.029,22.062 28.029,20.741L28.029,8.162C28.029,7.604 28.009,7.067 28.029,6.51C28.07,5.725 28.479,5.353 29.257,5.291C30.995,5.146 31.384,5.312 31.834,6.592M36.906,11.57C36.783,9.711 35.863,8.513 34.451,8.492C33.02,8.472 32.058,9.587 32.018,11.322C31.977,13.181 32.938,14.585 34.329,14.441C35.004,14.379 35.76,13.883 36.251,13.367C36.66,12.912 36.722,12.169 36.906,11.57M46.579,16.713L46.579,20.761C46.579,22.062 46.293,22.352 45.045,22.372L44.636,22.372C42.693,22.372 42.53,22.207 42.53,20.286L42.53,6.985C42.53,6.179 42.571,5.436 43.573,5.27C45.23,5.002 45.925,5.312 46.232,6.344C47.193,5.911 48.113,5.25 49.115,5.085C51.897,4.589 54.228,6.055 54.985,8.823C55.333,10.083 55.435,11.487 55.292,12.789C54.781,16.981 50.261,19.419 46.579,16.713M46.416,11.322C46.477,13.387 47.704,14.73 49.279,14.4C50.445,14.152 51.202,13.16 51.283,11.756C51.365,10.207 50.69,8.926 49.586,8.554C48.522,8.224 47.418,8.637 46.907,9.67C46.661,10.186 46.559,10.785 46.416,11.322M4.285,12.252C4.285,13.615 4.305,14.813 4.285,15.99C4.264,17.25 3.957,17.56 2.689,17.58L2.076,17.58C0.44,17.601 0.174,17.353 0.174,15.721L0.174,2.193C0.174,0.788 0.46,0.499 1.83,0.499C3.63,0.499 5.45,0.479 7.25,0.499C10.563,0.54 12.67,2.854 12.67,6.406C12.67,9.958 10.522,12.252 7.209,12.272C6.309,12.272 5.389,12.252 4.285,12.252M4.305,8.72C5.143,8.72 5.839,8.782 6.555,8.699C7.7,8.596 8.334,7.935 8.498,6.778C8.62,5.849 8.518,4.795 7.618,4.444C6.677,4.093 5.573,4.176 4.55,4.114C4.489,4.114 4.325,4.382 4.325,4.527C4.285,5.911 4.305,7.274 4.305,8.72" style="fill:red;fill-rule:nonzero;"/>
    </g>
    <path d="M79.2,49.305C80.161,49.718 80.305,50.379 79.855,51.349C79.712,51.659 79.528,51.948 79.385,52.258C78.996,53.105 78.403,53.188 77.625,52.857C76.93,52.568 76.235,52.258 75.519,52.114C75.049,52.01 74.476,52.031 74.026,52.196C73.658,52.32 73.167,52.692 73.126,53.002C73.065,53.374 73.31,53.952 73.617,54.22C74.068,54.613 74.66,54.861 75.192,55.129C76.133,55.584 77.135,55.955 78.055,56.472C79.753,57.422 80.633,58.868 80.489,60.871C80.346,62.854 79.446,64.403 77.647,65.188C74.681,66.489 71.858,65.931 69.22,64.197C68.566,63.763 68.504,63.164 68.893,62.482C69.016,62.276 69.159,62.069 69.281,61.883C70.242,60.479 70.406,60.499 71.94,61.181C72.887,61.597 73.896,61.855 74.926,61.945C75.376,61.986 76.092,61.45 76.256,61.016C76.379,60.685 75.887,60.004 75.499,59.652C75.089,59.281 74.496,59.095 73.985,58.826C73.249,58.475 72.472,58.186 71.777,57.794C69.486,56.534 68.545,54.716 68.974,52.485C69.404,50.275 71.204,48.644 73.597,48.313C74.068,48.251 74.538,48.251 75.028,48.21C76.051,48.251 77.892,48.747 79.2,49.305" style="fill:red"/>
    <g transform="matrix(1,0,0,1,0,48)">
        <path d="M103.089,4.981C106.913,5.022 109.592,7.253 110.002,10.62C110.452,14.338 107.956,17.456 104.193,17.808C101.739,18.035 99.468,17.56 97.771,15.618C96.053,13.656 95.787,11.343 96.728,8.967C97.669,6.572 99.611,5.415 102.066,5.043C102.434,5.002 102.823,5.002 103.089,4.981M105.911,11.529C105.931,9.752 104.806,8.451 103.212,8.41C101.677,8.368 100.389,9.732 100.348,11.405C100.328,13.119 101.534,14.441 103.13,14.441C104.745,14.42 105.891,13.222 105.911,11.529" style="fill:red;fill-rule:nonzero;"/>
    </g>
    <path d="M62.021,60.603C62.573,58.558 63.104,56.678 63.554,54.778C63.821,53.704 64.372,53.25 65.498,53.25C68.341,53.27 68.423,53.374 67.441,56.079C66.116,59.649 64.801,63.222 63.494,66.799C62.369,69.814 59.73,71.219 56.949,70.413C56.192,70.186 55.743,69.794 55.906,68.947C56.151,67.646 56.806,66.944 57.726,67.171C58.626,67.398 59.24,67.088 59.772,66.427C60.323,65.746 60.2,65.105 59.873,64.341C58.524,61.305 57.236,58.248 55.926,55.191C55.313,53.766 55.619,53.291 57.133,53.291C59.73,53.27 59.73,53.27 60.528,55.749C60.998,57.298 61.468,58.868 62.021,60.603M22.282,63.99C21.117,65.436 19.726,65.931 18.049,65.849C15.881,65.725 14.388,64.465 14.286,62.296C14.163,59.694 14.224,57.071 14.224,54.468C14.224,54.241 14.265,53.952 14.408,53.787C15.267,52.857 16.392,53.291 17.394,53.353C18.192,53.394 18.274,54.179 18.274,54.861L18.274,60.334C18.274,61.036 18.274,61.904 19.092,62.007C19.746,62.09 20.585,61.863 21.137,61.491C22.037,60.871 22.16,59.756 22.18,58.703C22.201,57.401 22.16,56.1 22.201,54.778C22.221,53.622 22.548,53.312 23.673,53.27C26.189,53.208 26.271,53.27 26.271,55.79C26.271,58.475 26.25,61.16 26.271,63.825C26.271,64.733 26.168,65.477 25.064,65.601C23.101,65.808 22.63,65.56 22.282,63.99M112.026,56.802C110.472,56.389 110.328,56.162 110.39,54.716C110.431,53.622 111.126,53.456 112.108,53.436C112.108,52.692 112.088,51.99 112.108,51.267C112.128,50.399 112.538,49.924 113.437,49.924L114.154,49.924C115.81,49.924 116.055,50.172 116.055,51.804L116.055,53.229C116.893,53.456 117.691,53.539 118.305,53.911C118.591,54.076 118.571,54.84 118.571,55.336C118.571,56.431 118.408,56.513 116.137,56.72C116.137,58.062 116.015,59.425 116.198,60.768C116.26,61.202 117.037,61.697 117.568,61.863C118.714,62.234 118.919,62.524 118.776,64.362C118.694,65.312 118.06,65.518 117.303,65.56C114.051,65.746 112.068,63.845 112.046,60.603L112.046,57.814C112.026,57.525 112.026,57.174 112.026,56.802" style="fill:red;"/>
    <path d="M59.997,2.187C62.963,-0.47 67.132,-0.496 69.938,1.015C73.038,2.656 74.321,5.964 72.718,9.09C71.473,11.517 69.713,13.642 67.56,15.317C65.876,16.645 64.059,17.844 62.215,19.016C61.627,19.381 61.44,19.719 61.387,20.397C61.173,23.236 63.498,27.092 67.64,28.004C71.691,28.922 75.828,26.6 77.154,22.663C77.341,22.09 77.608,21.595 78.25,21.439C79.372,21.152 80.254,22.116 79.933,23.236C79.515,24.714 78.766,26.077 77.742,27.222C72.905,32.667 64.433,32.146 60.318,26.18C60.237,26.05 60.13,25.919 59.997,25.737C59.863,25.946 59.73,26.102 59.623,26.258C57.111,29.697 53.69,31.39 49.36,30.895C44.764,30.374 41.744,27.795 40.167,23.575C40.114,23.419 40.06,23.288 40.034,23.132C39.873,22.35 40.301,21.647 41.022,21.465C41.771,21.282 42.492,21.621 42.759,22.403C43.187,23.653 43.775,24.825 44.737,25.763C47.062,28.03 49.815,28.837 52.968,27.873C56.068,26.909 57.939,24.747 58.554,21.621C58.661,21.022 58.634,20.397 58.58,19.771C58.554,19.589 58.313,19.381 58.126,19.25C55.507,17.765 53.102,16.072 50.964,13.988C49.526,12.572 48.31,10.947 47.356,9.169C45.672,6.095 46.929,2.89 49.681,1.223C52.835,-0.679 57.03,-0.34 59.837,2.083C59.863,2.109 59.917,2.135 59.997,2.187M49.173,6.459C49.227,6.798 49.254,7.137 49.334,7.475C49.494,8.126 50.002,8.465 50.563,8.387C51.204,8.283 51.525,7.866 51.525,7.163C51.472,5.652 52.273,4.896 53.85,5C54.492,5.026 54.946,4.662 55.026,4.063C55.032,4.016 55.035,3.969 55.035,3.921C55.035,3.383 54.626,2.925 54.091,2.864C53.61,2.812 53.102,2.838 52.621,2.89C50.456,3.099 49.173,4.453 49.173,6.459" style="fill:red;fill-rule:nonzero;"/>
</svg>
