<?xml version="1.0" encoding="UTF-8" standalone="no"?>
<!DOCTYPE svg PUBLIC "-//W3C//DTD SVG 1.1//EN" "http://www.w3.org/Graphics/SVG/1.1/DTD/svg11.dtd">
<svg width="100%" height="100%" viewBox="0 0 171 114" version="1.1" xmlns="http://www.w3.org/2000/svg" xmlns:xlink="http://www.w3.org/1999/xlink" xml:space="preserve" xmlns:serif="http://www.serif.com/" style="fill-rule:evenodd;clip-rule:evenodd;stroke-linecap:square;stroke-miterlimit:2;">
    <path d="M164.4,110.6C164.4,109 165.7,107.8 167.3,107.8C168.8,107.8 170.2,109 170.2,110.6C170.2,112.2 168.9,113.4 167.3,113.4C165.7,113.4 164.4,112.2 164.4,110.6ZM167.2,112.9C168.5,112.9 169.5,111.9 169.5,110.5C169.5,109.2 168.5,108.1 167.2,108.1C165.9,108.1 164.9,109.1 164.9,110.5C164.9,111.9 165.9,112.9 167.2,112.9ZM166.6,112.2L166.1,112.2L166.1,109L167.3,109C168.1,109 168.5,109.3 168.5,109.9C168.5,110.5 168.1,110.7 167.7,110.8L168.6,112.2L168,112.2L167.1,110.8L166.5,110.8L166.5,112.2L166.6,112.2ZM167.2,110.4C167.6,110.4 168,110.4 168,109.9C168,109.5 167.6,109.4 167.3,109.4L166.6,109.4L166.6,110.4L167.2,110.4Z" style="fill:rgb(85,85,85);fill-rule:nonzero;"/>
    <g>
        <g>
            <g>
                <g>
                    <g transform="matrix(0.988235,0,0,1,1,0)">
                        <path d="M0,49L170,49L170,105L0,105L0,49" style="fill:none;fill-rule:nonzero;stroke:rgb(34,34,34);stroke-width:3.02px;"/>
                    </g>
                    <path d="M0,46L0,0.1L170,0L170,46L0,46ZM97.4,26.2L91.5,26.2C91.6,32 96.2,34.3 101.4,34.3C106.4,34.3 111.3,32.5 111.3,26.7C111.3,22.5 108,21 104.7,20.1C101.4,19.2 98.1,18.8 98.1,17.1C98.1,15.6 99.7,15.2 101,15.2C102.9,15.2 104.8,15.8 104.7,17.9L110.6,17.9C110.6,12.8 106,10.6 101.5,10.6C97.2,10.6 92.2,12.5 92.2,17.5C92.2,21.7 95.6,23.2 98.8,24.1C102.1,25 105.3,25.4 105.3,27.4C105.3,29.1 103.5,29.7 101.7,29.7C99.2,29.7 97.5,28.9 97.4,26.2ZM123.1,10.7C115.9,10.7 111.9,15.9 111.9,22.5C111.9,29.1 115.9,34.3 123.1,34.3C130.3,34.3 134.3,29.1 134.3,22.5C134.3,15.9 130.3,10.7 123.1,10.7ZM123.1,29.3C119.3,29.3 117.8,25.9 117.8,22.6C117.8,19.3 119.3,15.9 123.1,15.9C126.9,15.9 128.4,19.3 128.4,22.6C128.4,25.9 126.9,29.3 123.1,29.3ZM136.2,11.2L136.2,33.9L141.8,33.9L141.8,19.7L141.9,19.7L149.8,33.9L155.9,33.9L155.9,11.2L150.3,11.2L150.3,25.2L150.2,25.2L142.3,11.2L136.2,11.2ZM41.3,11.2L35.4,11.2L35.4,33.9L41.3,33.9L41.3,11.2ZM44,11.2L44,33.8L49.6,33.8L49.6,16.6L49.7,16.6L54.5,33.8L59,33.8L63.8,16.6L63.9,16.6L63.9,33.9L69.5,33.9L69.5,11.2L60.8,11.2L56.9,26.3L56.8,26.3L52.9,11.2L44,11.2ZM20.1,26.2L14.2,26.2C14.3,32 18.9,34.3 24.1,34.3C29.1,34.3 34,32.5 34,26.7C34,22.5 30.7,21 27.4,20.1C24.1,19.2 20.8,18.8 20.8,17.1C20.8,15.6 22.4,15.2 23.7,15.2C25.6,15.2 27.5,15.8 27.4,17.9L33.3,17.9C33.3,12.8 28.7,10.6 24.2,10.6C19.9,10.6 14.9,12.5 14.9,17.5C14.9,21.7 18.3,23.2 21.5,24.1C24.8,25 28,25.4 28,27.4C28,29.1 26.2,29.7 24.4,29.7C21.9,29.7 20.2,28.9 20.1,26.2ZM72.3,11.2L72.3,33.9L78.2,33.9L78.2,26.3L83.1,26.3C88.1,26.3 91.3,24.1 91.3,18.5C91.3,13.1 87.3,11.2 83.1,11.2L72.3,11.2ZM78.2,21.7L78.2,15.9L82.2,15.9C84,15.9 85.4,16.8 85.4,18.9C85.4,20.9 84,21.7 82.2,21.7L78.2,21.7Z" style="fill:rgb(34,34,34);"/>
                    <g>
                        <path d="M28.9,72.9L25.9,72.9C25.4,69.3 22.6,67.3 19.9,67.3C18.1,67.3 16.4,67.9 16.4,70.2C16.4,74.5 29.8,71 29.8,80.7C29.8,86.1 25.5,88 21.3,88C18.9,88 16.5,87.5 14.6,85.9L13.8,87.7L11.2,87.7L11.2,78.8L14.1,78.8C14.5,82.4 17.2,84.8 20.8,84.8C22.4,84.8 24.3,83.8 24.3,81.9C24.3,77 10.9,81 10.9,71.2C10.9,65.6 15.5,64.1 19.8,64.1C21.9,64.1 23.9,64.8 25.7,66.1L26.3,64.5L28.9,64.5L28.9,72.9Z" style="fill:rgb(34,34,34);fill-rule:nonzero;"/>
                        <path d="M37.1,65.2L37.1,71.5L40.9,71.5L40.9,74.2L37.1,74.2L37.1,83.5C37.1,84.2 37.4,84.8 38.1,84.8C39.3,84.8 39.6,83.9 39.6,82.3L39.6,79.7L42.1,79.7L42.1,82.7C42.1,86 40.6,87.9 36.9,87.9C33.7,87.9 32,86.2 32,82.7L32,74.2L29.9,74.2L29.9,71.5C33,71.5 33.8,68 34,65.2L37.1,65.2Z" style="fill:rgb(34,34,34);fill-rule:nonzero;"/>
                        <path d="M42.2,71.5L49.6,71.5L49.6,74.2L49.7,74.2C50.3,72.6 51.5,71 53.3,71C55.2,71 56.8,72.6 56.8,74.9C56.8,76.4 55.8,77.9 54.3,77.9C53,77.9 51.8,77.2 51.8,75.7C51.8,74.5 52.4,73.8 53.4,73.6C53.1,73.3 52.8,73.2 52.4,73.2C50.8,73.2 49.7,75.5 49.7,77.1L49.7,83.2C49.7,84.2 49.9,84.7 50.8,84.7L52.1,84.7L52.1,87.4L42.2,87.4L42.2,84.7L43.5,84.7C44.4,84.7 44.6,84.2 44.6,83.2L44.6,75.7C44.6,74.7 44.4,74.2 43.5,74.2L42.2,74.2L42.2,71.5Z" style="fill:rgb(34,34,34);fill-rule:nonzero;"/>
                        <path d="M72.6,79.4C72.6,84.8 69.2,87.9 64.6,87.9C60,87.9 56.6,84.9 56.6,79.4C56.6,74 60,70.9 64.6,70.9C69.2,71 72.6,74 72.6,79.4ZM62.1,79.4C62.1,83.4 62.7,85.1 64.6,85.1C66.5,85.1 67.1,83.4 67.1,79.4C67.1,75.4 66.5,73.7 64.6,73.7C62.7,73.7 62.1,75.4 62.1,79.4Z" style="fill:rgb(34,34,34);fill-rule:nonzero;"/>
                        <path d="M79.7,71.5L79.7,74.1L79.8,74.1C81.2,71.9 82.6,71 85.1,71C88.6,71 89.8,73.2 89.8,76.8L89.8,83.3C89.8,84.3 90,84.8 90.9,84.8L92,84.8L92,87.5L82.8,87.5L82.8,84.8L83.4,84.8C84.3,84.8 84.5,84.3 84.5,83.3L84.5,77.5C84.5,75.5 84.2,74.2 82.1,74.2C80.7,74.2 79.8,75.7 79.8,77.1L79.8,83.4C79.8,84.4 80,84.9 80.9,84.9L81.6,84.9L81.6,87.6L72.3,87.6L72.3,84.9L73.5,84.9C74.4,84.9 74.6,84.4 74.6,83.4L74.6,75.9C74.6,74.9 74.4,74.4 73.5,74.4L72.2,74.4L72.2,71.7L79.7,71.7L79.7,71.5Z" style="fill:rgb(34,34,34);fill-rule:nonzero;"/>
                        <path d="M103.8,85.3C106.5,85.3 109.2,86 109.2,89.5C109.2,93.7 105,94.6 100.2,94.6C95.8,94.6 92.4,93.8 92.4,91.3C92.4,89.7 93.8,89 95,88.8L95,88.7C93.8,88.3 92.7,87.1 92.7,85.6C92.7,83.6 93.7,82.8 95.4,82.1C93.9,81 93.3,79.4 93.3,76.9C93.3,72.8 96.9,70.9 100.2,70.9C101.9,70.9 103.5,71.5 104.9,72.4C105.9,71.5 107,70.9 108.3,70.9C110,70.9 111.7,72.1 111.7,74.1C111.7,75.7 110.8,76.5 109.4,76.5C108.4,76.5 107.7,75.7 107.7,74.6C107.7,73.9 108.1,73.3 108.6,72.9C107.9,72.8 107,72.3 105.9,73.6C106.5,74.6 107,75.9 107,77.1C107,81.5 103.7,83.5 99.9,83.5C98.9,83.5 97.7,83.4 96.8,82.9C96.5,83 96.2,83.4 96.2,83.9C96.2,84.7 97.3,85.1 97.8,85.1L103.8,85.1L103.8,85.3ZM98.2,77.3C98.2,79.8 98.6,81.5 100,81.5C101.4,81.5 101.8,79.8 101.8,77.3C101.8,74.8 101.4,73.1 100,73.1C98.7,73.1 98.2,74.8 98.2,77.3ZM100.9,92.3C103.5,92.3 105.6,91.9 105.6,90.9C105.6,89.7 103.5,89.5 100.9,89.5C98.3,89.5 96.2,89.7 96.2,90.9C96.3,91.9 98.3,92.3 100.9,92.3Z" style="fill:rgb(34,34,34);fill-rule:nonzero;"/>
                        <path d="M113.9,73.5L113.9,64.9L134.4,64.9L134.4,73.5L131.5,73.5C131.5,70 130.6,67.9 127,67.9L127,83C127,83.8 127.4,84.4 128.2,84.4L130.1,84.4L130.1,87.4L118.1,87.4L118.1,84.4L120,84.4C120.8,84.4 121.2,83.9 121.2,83L121.2,67.9C117.7,67.9 116.7,70.1 116.7,73.5L113.9,73.5Z" style="fill:rgb(34,34,34);fill-rule:nonzero;"/>
                        <path d="M143.1,83.2C143.1,84.2 143.3,84.7 144.2,84.7L145.5,84.7L145.5,87.4L135.6,87.4L135.6,84.7L136.9,84.7C137.8,84.7 138,84.2 138,83.2L138,75.7C138,74.7 137.8,74.2 136.9,74.2L135.5,74.2L135.5,71.5L143.2,71.5L143.2,83.2L143.1,83.2ZM143.1,67.2C143.1,68.9 141.9,70.2 140.4,70.2C138.9,70.2 137.7,68.9 137.7,67.2C137.7,65.5 138.9,64.2 140.4,64.2C141.9,64.2 143.1,65.5 143.1,67.2Z" style="fill:rgb(34,34,34);fill-rule:nonzero;"/>
                        <path d="M150.5,80.2C150.5,82.6 151,85 153.6,85C154.7,85 156.4,84.1 156.7,82.1L160.3,82.1C159.8,86.2 156.2,87.9 152.9,87.9C147.6,87.9 145.1,84.7 145.1,79.4C145.1,74.1 148.5,70.9 152.9,70.9C157.9,70.9 160.7,74.8 160.7,80.1L150.5,80.1L150.5,80.2ZM155.2,77.5L155.2,76.6C155.2,74.9 154.4,73.7 152.9,73.7C151.4,73.7 150.6,74.9 150.6,76.6L150.6,77.5L155.2,77.5Z" style="fill:rgb(34,34,34);fill-rule:nonzero;"/>
                        <rect x="109.3" y="77.4" width="7.9" height="3.7" style="fill:rgb(34,34,34);"/>
                    </g>
                </g>
            </g>
        </g>
    </g>
</svg>
