<svg xmlns="http://www.w3.org/2000/svg" xml:space="preserve" style="fill-rule:evenodd;clip-rule:evenodd;stroke-linejoin:round;stroke-miterlimit:2" viewBox="0 0 190 127">
  <path d="M183.6 123.5c0-1.8 1.5-3.2 3.2-3.2s3.2 1.3 3.2 3.2c0 1.8-1.5 3.2-3.2 3.2s-3.2-1.4-3.2-3.2m3.2 2.7c1.4 0 2.6-1.1 2.6-2.6s-1.1-2.6-2.6-2.6c-1.4 0-2.6 1.1-2.6 2.6 0 1.4 1.2 2.6 2.6 2.6m-.7-.9h-.6v-3.6h1.4c.9 0 1.3.3 1.3 1s-.4.9-.9 1l1 1.6h-.6l-1-1.6h-.6zm.7-2c.5 0 .9 0 .9-.6 0-.5-.4-.5-.8-.5h-.8v1.1z" style="fill:rgb(153,153,153);fill-rule:nonzero"/>
  <path d="M91.8 17.8h-4.4v6.5h4.4c2.1 0 3.6-.9 3.6-3.2 0-2.4-1.6-3.3-3.6-3.3M137.5 17.6c-4.3 0-5.9 3.8-5.9 7.5 0 3.8 1.6 7.5 5.9 7.5s5.9-3.8 5.9-7.5-1.6-7.5-5.9-7.5" style="fill-rule:nonzero"/>
  <path d="M0 .1v51.3h189.9V0zm26.8 38.3c-5.8 0-11-2.6-11-9.1h6.6c.1 3 2 3.9 4.8 3.9 2 0 4.1-.7 4.1-2.6 0-2.2-3.6-2.7-7.3-3.7-3.6-1-7.4-2.7-7.4-7.3 0-5.5 5.6-7.7 10.3-7.7 5 0 10.1 2.5 10.2 8.2h-6.6c.1-2.3-2.1-3.1-4.1-3.1-1.4 0-3.2.5-3.2 2.2 0 2 3.7 2.3 7.4 3.3s7.4 2.7 7.4 7.3c-.1 6.5-5.6 8.6-11.2 8.6m19.3-.6h-6.6V12.5h6.6zm31.6 0h-6.3V18.6h-.1L66 37.8h-5l-5.3-19.3h-.1v19.3h-6.2V12.5h9.7l4.4 16.9h.1L68 12.5h9.7zm15.1-8.4h-5.4v8.5h-6.6V12.5h12c4.7 0 9.2 2.2 9.2 8.2 0 6.2-3.6 8.7-9.2 8.7m20.4 9c-5.8 0-11-2.6-11-9.1h6.6c.1 3 2 3.9 4.8 3.9 2 0 4.1-.7 4.1-2.6 0-2.2-3.6-2.7-7.3-3.7-3.6-1-7.4-2.7-7.4-7.3 0-5.5 5.6-7.7 10.3-7.7 5 0 10.1 2.5 10.2 8.2h-6.6c.1-2.3-2.1-3.1-4.1-3.1-1.4 0-3.2.5-3.2 2.2 0 2 3.7 2.3 7.4 3.3s7.4 2.7 7.4 7.3c-.1 6.5-5.6 8.6-11.2 8.6m24.3 0c-8 0-12.5-5.9-12.5-13.2 0-7.4 4.5-13.2 12.5-13.2S150 17.9 150 25.2s-4.5 13.2-12.5 13.2m36.5-.6h-6.8L158.4 22h-.1v15.8h-6.2V12.5h6.8l8.8 15.6h.1V12.5h6.2zM72.2 82.3c-2.1 0-2.8 1.9-2.8 6.4s.7 6.4 2.8 6.4 2.8-1.9 2.8-6.4c-.1-4.4-.8-6.4-2.8-6.4M111.7 91.1c1.5 0 2-1.9 2-4.7s-.5-4.7-2-4.7-2 1.9-2 4.7.5 4.7 2 4.7M112.7 100c-2.9 0-5.2.2-5.2 1.6 0 1.1 2.3 1.6 5.2 1.6s5.2-.5 5.2-1.6c0-1.4-2.3-1.6-5.2-1.6M170.8 82.3c-1.7 0-2.6 1.3-2.6 3.3v1h5.2v-1c0-1.9-1-3.3-2.6-3.3" style="fill-rule:nonzero"/>
  <path d="M0 54.7v62.6h189.9V54.7zm156.8 17c1.7 0 3 1.4 3 3.3s-1.3 3.3-3 3.3-3-1.4-3-3.3c0-1.8 1.3-3.3 3-3.3M23.7 98.4c-2.7 0-5.3-.6-7.5-2.4l-.9 2h-2.9v-9.9h3.2c.4 4 3.4 6.8 7.5 6.8 1.8 0 4-1.1 4-3.3 0-5.4-14.9-1-14.9-11.9 0-6.3 5.1-8 9.9-8 2.3 0 4.6.8 6.6 2.2l.6-1.8h2.9v9.3H29c-.5-4-3.7-6.2-6.8-6.2-2 0-3.9.7-3.9 3.3 0 4.8 14.9.9 14.9 11.8 0 6-4.8 8.1-9.5 8.1m23.4-6c0 3.7-1.7 5.8-5.8 5.8-3.6 0-5.5-1.9-5.5-5.8v-9.5h-2.3v-3c3.4 0 4.3-3.9 4.6-7.1h3.4v7.1h4.2v3h-4.2v10.4c0 .8.4 1.4 1.2 1.4 1.3 0 1.7-1 1.7-2.8v-3h2.8v3.5zM60.7 87c-1.4 0-2.8-.8-2.8-2.5 0-1.3.7-2.1 1.8-2.3-.3-.4-.7-.4-1.1-.4-1.8 0-3 2.5-3 4.4V93c0 1.1.2 1.6 1.2 1.6h1.4v3h-11v-3h1.4c1 0 1.2-.6 1.2-1.6v-8.4c0-1.1-.2-1.6-1.2-1.6h-1.4v-3h8.1v3h.1c.7-1.8 2-3.6 4-3.6 2.1 0 3.9 1.8 3.9 4.3.1 1.6-1 3.3-2.6 3.3m11.5 11.2c-5.1 0-8.9-3.4-8.9-9.4 0-6.1 3.8-9.4 8.9-9.4s8.9 3.4 8.9 9.4-3.8 9.4-8.9 9.4m30.6-.6H92.6v-3h.7c1 0 1.2-.6 1.2-1.6v-6.5c0-2.2-.3-3.7-2.7-3.7-1.6 0-2.6 1.6-2.6 3.2v7c0 1.1.2 1.6 1.2 1.6h.8v3H80.9v-3h1.4c1 0 1.2-.6 1.2-1.6v-8.4c0-1.1-.2-1.6-1.2-1.6h-1.4v-3H89v2.9h.1c1.5-2.4 3.1-3.5 5.9-3.5 3.9 0 5.2 2.5 5.2 6.4V93c0 1.1.2 1.6 1.2 1.6h1.3v3zm9.1 8.1c-5 0-8.7-.9-8.7-3.7 0-1.8 1.6-2.6 2.9-2.8V99c-1.3-.5-2.6-1.7-2.6-3.4 0-2.3 1.1-3.1 3-3.9-1.6-1.3-2.3-3-2.3-5.8 0-4.6 4-6.7 7.7-6.7 1.9 0 3.7.7 5.2 1.7 1.1-1 2.3-1.7 3.8-1.7 1.9 0 3.8 1.3 3.8 3.6 0 1.7-1 2.7-2.6 2.7-1.1 0-1.9-.9-1.9-2.2 0-.8.4-1.4 1-1.9-.8-.2-1.8-.7-3 .8.6 1.1 1.2 2.5 1.2 3.9 0 5-3.7 7.2-7.9 7.2-1.2 0-2.4-.2-3.5-.6-.3.1-.7.5-.7 1.1 0 .9 1.2 1.4 1.8 1.4h7c3 0 6 .8 6 4.7-.1 4.8-4.8 5.8-10.2 5.8m19-15.1H122v-4.1h8.8v4.1zm19.2-8.5h-3.2c0-3.9-1-6.3-5-6.3v17c0 .9.5 1.5 1.3 1.5h2.1v3.3h-13.4v-3.3h2.1c.9 0 1.3-.6 1.3-1.5v-17c-4 0-5 2.4-5 6.3h-3.2v-9.6H150v9.6zm12.4 15.5h-11.1v-3h1.5c1 0 1.2-.6 1.2-1.6v-8.4c0-1.1-.2-1.6-1.2-1.6h-1.6v-3h8.6v13.1c0 1.1.2 1.6 1.2 1.6h1.4zm9-2.7c1.2 0 3.2-1 3.5-3.3h4c-.5 4.6-4.6 6.5-8.3 6.5-5.9 0-8.7-3.6-8.7-9.4 0-5.9 3.8-9.4 8.7-9.4 5.6 0 8.8 4.4 8.8 10.3h-11.4c0 2.7.6 5.3 3.4 5.3" style="fill-rule:nonzero"/>
</svg>
