<?xml version="1.0" encoding="UTF-8" standalone="no"?>
<!DOCTYPE svg PUBLIC "-//W3C//DTD SVG 1.1//EN" "http://www.w3.org/Graphics/SVG/1.1/DTD/svg11.dtd">
<svg width="100%" height="100%" viewBox="0 0 190 127" version="1.1" xmlns="http://www.w3.org/2000/svg" xmlns:xlink="http://www.w3.org/1999/xlink" xml:space="preserve" xmlns:serif="http://www.serif.com/" style="fill-rule:evenodd;clip-rule:evenodd;stroke-linejoin:round;stroke-miterlimit:2;">
    <path d="M183.6,123.5C183.6,121.7 185.1,120.3 186.8,120.3C188.5,120.3 190,121.6 190,123.5C190,125.3 188.5,126.7 186.8,126.7C185.1,126.7 183.6,125.3 183.6,123.5M186.8,126.2C188.2,126.2 189.4,125.1 189.4,123.6C189.4,122.1 188.3,121 186.8,121C185.4,121 184.2,122.1 184.2,123.6C184.2,125 185.4,126.2 186.8,126.2M186.1,125.3L185.5,125.3L185.5,121.7L186.9,121.7C187.8,121.7 188.2,122 188.2,122.7C188.2,123.4 187.8,123.6 187.3,123.7L188.3,125.3L187.7,125.3L186.7,123.7L186.1,123.7L186.1,125.3ZM186.8,123.3C187.3,123.3 187.7,123.3 187.7,122.7C187.7,122.2 187.3,122.2 186.9,122.2L186.1,122.2L186.1,123.3L186.8,123.3Z" style="fill:red;fill-rule:nonzero;"/>
    <path d="M91.8,17.8L87.4,17.8L87.4,24.3L91.8,24.3C93.9,24.3 95.4,23.4 95.4,21.1C95.4,18.7 93.8,17.8 91.8,17.8M137.5,17.6C133.2,17.6 131.6,21.4 131.6,25.1C131.6,28.9 133.2,32.6 137.5,32.6C141.8,32.6 143.4,28.8 143.4,25.1C143.4,21.4 141.8,17.6 137.5,17.6" style="fill:red;fill-rule:nonzero;"/>
    <path d="M0,0.1L0,51.4L189.9,51.4L189.9,0L0,0.1ZM26.8,38.4C21,38.4 15.8,35.8 15.8,29.3L22.4,29.3C22.5,32.3 24.4,33.2 27.2,33.2C29.2,33.2 31.3,32.5 31.3,30.6C31.3,28.4 27.7,27.9 24,26.9C20.4,25.9 16.6,24.2 16.6,19.6C16.6,14.1 22.2,11.9 26.9,11.9C31.9,11.9 37,14.4 37.1,20.1L30.5,20.1C30.6,17.8 28.4,17 26.4,17C25,17 23.2,17.5 23.2,19.2C23.2,21.2 26.9,21.5 30.6,22.5C34.3,23.5 38,25.2 38,29.8C37.9,36.3 32.4,38.4 26.8,38.4M46.1,37.8L39.5,37.8L39.5,12.5L46.1,12.5L46.1,37.8ZM77.7,37.8L71.4,37.8L71.4,18.6L71.3,18.6L66,37.8L61,37.8L55.7,18.5L55.6,18.5L55.6,37.8L49.4,37.8L49.4,12.5L59.1,12.5L63.5,29.4L63.6,29.4L68,12.5L77.7,12.5L77.7,37.8ZM92.8,29.4L87.4,29.4L87.4,37.9L80.8,37.9L80.8,12.5L92.8,12.5C97.5,12.5 102,14.7 102,20.7C102,26.9 98.4,29.4 92.8,29.4M113.2,38.4C107.4,38.4 102.2,35.8 102.2,29.3L108.8,29.3C108.9,32.3 110.8,33.2 113.6,33.2C115.6,33.2 117.7,32.5 117.7,30.6C117.7,28.4 114.1,27.9 110.4,26.9C106.8,25.9 103,24.2 103,19.6C103,14.1 108.6,11.9 113.3,11.9C118.3,11.9 123.4,14.4 123.5,20.1L116.9,20.1C117,17.8 114.8,17 112.8,17C111.4,17 109.6,17.5 109.6,19.2C109.6,21.2 113.3,21.5 117,22.5C120.7,23.5 124.4,25.2 124.4,29.8C124.3,36.3 118.8,38.4 113.2,38.4M137.5,38.4C129.5,38.4 125,32.5 125,25.2C125,17.8 129.5,12 137.5,12C145.5,12 150,17.9 150,25.2C150,32.5 145.5,38.4 137.5,38.4M174,37.8L167.2,37.8L158.4,22L158.3,22L158.3,37.8L152.1,37.8L152.1,12.5L158.9,12.5L167.7,28.1L167.8,28.1L167.8,12.5L174,12.5L174,37.8ZM72.2,82.3C70.1,82.3 69.4,84.2 69.4,88.7C69.4,93.2 70.1,95.1 72.2,95.1C74.3,95.1 75,93.2 75,88.7C74.9,84.3 74.2,82.3 72.2,82.3M111.7,91.1C113.2,91.1 113.7,89.2 113.7,86.4C113.7,83.6 113.2,81.7 111.7,81.7C110.2,81.7 109.7,83.6 109.7,86.4C109.7,89.2 110.2,91.1 111.7,91.1M112.7,100C109.8,100 107.5,100.2 107.5,101.6C107.5,102.7 109.8,103.2 112.7,103.2C115.6,103.2 117.9,102.7 117.9,101.6C117.9,100.2 115.6,100 112.7,100M170.8,82.3C169.1,82.3 168.2,83.6 168.2,85.6L168.2,86.6L173.4,86.6L173.4,85.6C173.4,83.7 172.4,82.3 170.8,82.3" style="fill:red;fill-rule:nonzero;"/>
    <path d="M0,54.7L0,117.3L189.9,117.3L189.9,54.7L0,54.7ZM156.8,71.7C158.5,71.7 159.8,73.1 159.8,75C159.8,76.9 158.5,78.3 156.8,78.3C155.1,78.3 153.8,76.9 153.8,75C153.8,73.2 155.1,71.7 156.8,71.7M23.7,98.4C21,98.4 18.4,97.8 16.2,96L15.3,98L12.4,98L12.4,88.1L15.6,88.1C16,92.1 19,94.9 23.1,94.9C24.9,94.9 27.1,93.8 27.1,91.6C27.1,86.2 12.2,90.6 12.2,79.7C12.2,73.4 17.3,71.7 22.1,71.7C24.4,71.7 26.7,72.5 28.7,73.9L29.3,72.1L32.2,72.1L32.2,81.4L29,81.4C28.5,77.4 25.3,75.2 22.2,75.2C20.2,75.2 18.3,75.9 18.3,78.5C18.3,83.3 33.2,79.4 33.2,90.3C33.2,96.3 28.4,98.4 23.7,98.4M47.1,92.4C47.1,96.1 45.4,98.2 41.3,98.2C37.7,98.2 35.8,96.3 35.8,92.4L35.8,82.9L33.5,82.9L33.5,79.9C36.9,79.9 37.8,76 38.1,72.8L41.5,72.8L41.5,79.9L45.7,79.9L45.7,82.9L41.5,82.9L41.5,93.3C41.5,94.1 41.9,94.7 42.7,94.7C44,94.7 44.4,93.7 44.4,91.9L44.4,88.9L47.2,88.9L47.2,92.4L47.1,92.4ZM60.7,87C59.3,87 57.9,86.2 57.9,84.5C57.9,83.2 58.6,82.4 59.7,82.2C59.4,81.8 59,81.8 58.6,81.8C56.8,81.8 55.6,84.3 55.6,86.2L55.6,93C55.6,94.1 55.8,94.6 56.8,94.6L58.2,94.6L58.2,97.6L47.2,97.6L47.2,94.6L48.6,94.6C49.6,94.6 49.8,94 49.8,93L49.8,84.6C49.8,83.5 49.6,83 48.6,83L47.2,83L47.2,80L55.3,80L55.3,83L55.4,83C56.1,81.2 57.4,79.4 59.4,79.4C61.5,79.4 63.3,81.2 63.3,83.7C63.4,85.3 62.3,87 60.7,87M72.2,98.2C67.1,98.2 63.3,94.8 63.3,88.8C63.3,82.7 67.1,79.4 72.2,79.4C77.3,79.4 81.1,82.8 81.1,88.8C81.1,94.8 77.3,98.2 72.2,98.2M102.8,97.6L92.6,97.6L92.6,94.6L93.3,94.6C94.3,94.6 94.5,94 94.5,93L94.5,86.5C94.5,84.3 94.2,82.8 91.8,82.8C90.2,82.8 89.2,84.4 89.2,86L89.2,93C89.2,94.1 89.4,94.6 90.4,94.6L91.2,94.6L91.2,97.6L80.9,97.6L80.9,94.6L82.3,94.6C83.3,94.6 83.5,94 83.5,93L83.5,84.6C83.5,83.5 83.3,83 82.3,83L80.9,83L80.9,80L89,80L89,82.9L89.1,82.9C90.6,80.5 92.2,79.4 95,79.4C98.9,79.4 100.2,81.9 100.2,85.8L100.2,93C100.2,94.1 100.4,94.6 101.4,94.6L102.7,94.6L102.7,97.6L102.8,97.6ZM111.9,105.7C106.9,105.7 103.2,104.8 103.2,102C103.2,100.2 104.8,99.4 106.1,99.2L106.1,99C104.8,98.5 103.5,97.3 103.5,95.6C103.5,93.3 104.6,92.5 106.5,91.7C104.9,90.4 104.2,88.7 104.2,85.9C104.2,81.3 108.2,79.2 111.9,79.2C113.8,79.2 115.6,79.9 117.1,80.9C118.2,79.9 119.4,79.2 120.9,79.2C122.8,79.2 124.7,80.5 124.7,82.8C124.7,84.5 123.7,85.5 122.1,85.5C121,85.5 120.2,84.6 120.2,83.3C120.2,82.5 120.6,81.9 121.2,81.4C120.4,81.2 119.4,80.7 118.2,82.2C118.8,83.3 119.4,84.7 119.4,86.1C119.4,91.1 115.7,93.3 111.5,93.3C110.3,93.3 109.1,93.1 108,92.7C107.7,92.8 107.3,93.2 107.3,93.8C107.3,94.7 108.5,95.2 109.1,95.2L116.1,95.2C119.1,95.2 122.1,96 122.1,99.9C122,104.7 117.3,105.7 111.9,105.7M130.9,90.6L122,90.6L122,86.5L130.8,86.5L130.8,90.6L130.9,90.6ZM150.1,82.1L146.9,82.1C146.9,78.2 145.9,75.8 141.9,75.8L141.9,92.8C141.9,93.7 142.4,94.3 143.2,94.3L145.3,94.3L145.3,97.6L131.9,97.6L131.9,94.3L134,94.3C134.9,94.3 135.3,93.7 135.3,92.8L135.3,75.8C131.3,75.8 130.3,78.2 130.3,82.1L127.1,82.1L127.1,72.5L150,72.5L150,82.1L150.1,82.1ZM162.5,97.6L151.4,97.6L151.4,94.6L152.9,94.6C153.9,94.6 154.1,94 154.1,93L154.1,84.6C154.1,83.5 153.9,83 152.9,83L151.3,83L151.3,80L159.9,80L159.9,93.1C159.9,94.2 160.1,94.7 161.1,94.7L162.5,94.7L162.5,97.6ZM171.5,94.9C172.7,94.9 174.7,93.9 175,91.6L179,91.6C178.5,96.2 174.4,98.1 170.7,98.1C164.8,98.1 162,94.5 162,88.7C162,82.8 165.8,79.3 170.7,79.3C176.3,79.3 179.5,83.7 179.5,89.6L168.1,89.6C168.1,92.3 168.7,94.9 171.5,94.9" style="fill:red;fill-rule:nonzero;"/>
</svg>
