<svg xmlns="http://www.w3.org/2000/svg" xml:space="preserve" style="fill-rule:evenodd;clip-rule:evenodd;stroke-linecap:square;stroke-miterlimit:2" viewBox="0 0 171 114"><path d="M164.4 110.6c0-1.6 1.3-2.8 2.9-2.8 1.5 0 2.9 1.2 2.9 2.8s-1.3 2.8-2.9 2.8-2.9-1.2-2.9-2.8m2.8 2.3c1.3 0 2.3-1 2.3-2.4 0-1.3-1-2.4-2.3-2.4s-2.3 1-2.3 2.4 1 2.4 2.3 2.4m-.6-.7h-.5V109h1.2q1.2 0 1.2.9c0 .6-.4.8-.8.9l.9 1.4h-.6l-.9-1.4h-.6v1.4zm.6-1.8c.4 0 .8 0 .8-.5 0-.4-.4-.5-.7-.5h-.7v1z" style="fill:var(--logo-color);fill-rule:nonzero"/><path d="M0 49h170v56H0V49" style="fill:none;fill-rule:nonzero;stroke:#222;stroke-width:3.02px" transform="matrix(.98823 0 0 1 1 0)"/><path d="M0 46h170V0L0 .1z" style="fill:var(--logo-color);fill-rule:nonzero"/><path d="M20.1 26.2c.1 2.7 1.8 3.5 4.3 3.5 1.8 0 3.6-.6 3.6-2.3 0-2-3.2-2.4-6.5-3.3-3.2-.9-6.6-2.4-6.6-6.6 0-5 5-6.9 9.3-6.9 4.5 0 9.1 2.2 9.1 7.3h-5.9c.1-2.1-1.8-2.7-3.7-2.7-1.3 0-2.9.4-2.9 1.9 0 1.7 3.3 2.1 6.6 3s6.6 2.4 6.6 6.6c0 5.8-4.9 7.6-9.9 7.6-5.2 0-9.8-2.3-9.9-8.1zM35.4 11.2h5.9v22.7h-5.9zM44 11.2h8.9l3.9 15.1h.1l3.9-15.1h8.7v22.7h-5.6V16.6h-.1L59 33.8h-4.5l-4.8-17.2h-.1v17.2H44zM72.3 11.2h10.8c4.2 0 8.2 1.9 8.2 7.3 0 5.6-3.2 7.8-8.2 7.8h-4.9v7.6h-5.9zm5.9 10.5h4c1.8 0 3.2-.8 3.2-2.8 0-2.1-1.4-3-3.2-3h-4zM97.4 26.2c.1 2.7 1.8 3.5 4.3 3.5 1.8 0 3.6-.6 3.6-2.3 0-2-3.2-2.4-6.5-3.3-3.2-.9-6.6-2.4-6.6-6.6 0-5 5-6.9 9.3-6.9 4.5 0 9.1 2.2 9.1 7.3h-5.9c.1-2.1-1.8-2.7-3.7-2.7-1.3 0-2.9.4-2.9 1.9 0 1.7 3.3 2.1 6.6 3s6.6 2.4 6.6 6.6c0 5.8-4.9 7.6-9.9 7.6-5.2 0-9.8-2.3-9.9-8.1zM123.1 10.7c7.2 0 11.2 5.2 11.2 11.8s-4 11.8-11.2 11.8-11.2-5.2-11.2-11.8 4-11.8 11.2-11.8m0 18.6c3.8 0 5.3-3.4 5.3-6.7s-1.5-6.7-5.3-6.7-5.3 3.4-5.3 6.7 1.5 6.7 5.3 6.7M136.2 11.2h6.1l7.9 14h.1v-14h5.6v22.7h-6.1l-7.9-14.2h-.1v14.2h-5.6z" style="fill:#fff;fill-rule:nonzero"/><path d="M28.9 72.9h-3c-.5-3.6-3.3-5.6-6-5.6-1.8 0-3.5.6-3.5 2.9 0 4.3 13.4.8 13.4 10.5 0 5.4-4.3 7.3-8.5 7.3-2.4 0-4.8-.5-6.7-2.1l-.8 1.8h-2.6v-8.9h2.9c.4 3.6 3.1 6 6.7 6 1.6 0 3.5-1 3.5-2.9 0-4.9-13.4-.9-13.4-10.7 0-5.6 4.6-7.1 8.9-7.1 2.1 0 4.1.7 5.9 2l.6-1.6h2.6zM37.1 65.2v6.3h3.8v2.7h-3.8v9.3c0 .7.3 1.3 1 1.3 1.2 0 1.5-.9 1.5-2.5v-2.6h2.5v3c0 3.3-1.5 5.2-5.2 5.2-3.2 0-4.9-1.7-4.9-5.2v-8.5h-2.1v-2.7c3.1 0 3.9-3.5 4.1-6.3zM42.2 71.5h7.4v2.7h.1c.6-1.6 1.8-3.2 3.6-3.2 1.9 0 3.5 1.6 3.5 3.9 0 1.5-1 3-2.5 3-1.3 0-2.5-.7-2.5-2.2 0-1.2.6-1.9 1.6-2.1-.3-.3-.6-.4-1-.4-1.6 0-2.7 2.3-2.7 3.9v6.1c0 1 .2 1.5 1.1 1.5h1.3v2.7h-9.9v-2.7h1.3c.9 0 1.1-.5 1.1-1.5v-7.5c0-1-.2-1.5-1.1-1.5h-1.3zM72.6 79.4c0 5.4-3.4 8.5-8 8.5s-8-3-8-8.5c0-5.4 3.4-8.5 8-8.5 4.6.1 8 3.1 8 8.5m-10.5 0c0 4 .6 5.7 2.5 5.7s2.5-1.7 2.5-5.7-.6-5.7-2.5-5.7-2.5 1.7-2.5 5.7" style="fill:var(--logo-color);fill-rule:nonzero"/><path d="M79.7 71.5v2.6h.1c1.4-2.2 2.8-3.1 5.3-3.1 3.5 0 4.7 2.2 4.7 5.8v6.5c0 1 .2 1.5 1.1 1.5H92v2.7h-9.2v-2.7h.6c.9 0 1.1-.5 1.1-1.5v-5.8c0-2-.3-3.3-2.4-3.3-1.4 0-2.3 1.5-2.3 2.9v6.3c0 1 .2 1.5 1.1 1.5h.7v2.7h-9.3v-2.7h1.2c.9 0 1.1-.5 1.1-1.5v-7.5c0-1-.2-1.5-1.1-1.5h-1.3v-2.7h7.5zM103.8 85.3c2.7 0 5.4.7 5.4 4.2 0 4.2-4.2 5.1-9 5.1-4.4 0-7.8-.8-7.8-3.3 0-1.6 1.4-2.3 2.6-2.5v-.1c-1.2-.4-2.3-1.6-2.3-3.1 0-2 1-2.8 2.7-3.5-1.5-1.1-2.1-2.7-2.1-5.2 0-4.1 3.6-6 6.9-6 1.7 0 3.3.6 4.7 1.5 1-.9 2.1-1.5 3.4-1.5 1.7 0 3.4 1.2 3.4 3.2 0 1.6-.9 2.4-2.3 2.4-1 0-1.7-.8-1.7-1.9 0-.7.4-1.3.9-1.7-.7-.1-1.6-.6-2.7.7.6 1 1.1 2.3 1.1 3.5 0 4.4-3.3 6.4-7.1 6.4-1 0-2.2-.1-3.1-.6-.3.1-.6.5-.6 1 0 .8 1.1 1.2 1.6 1.2h6zm-5.6-8c0 2.5.4 4.2 1.8 4.2s1.8-1.7 1.8-4.2-.4-4.2-1.8-4.2c-1.3 0-1.8 1.7-1.8 4.2m2.7 15c2.6 0 4.7-.4 4.7-1.4 0-1.2-2.1-1.4-4.7-1.4s-4.7.2-4.7 1.4c.1 1 2.1 1.4 4.7 1.4M113.9 73.5v-8.6h20.5v8.6h-2.9c0-3.5-.9-5.6-4.5-5.6V83c0 .8.4 1.4 1.2 1.4h1.9v3h-12v-3h1.9c.8 0 1.2-.5 1.2-1.4V67.9c-3.5 0-4.5 2.2-4.5 5.6zM143.1 83.2c0 1 .2 1.5 1.1 1.5h1.3v2.7h-9.9v-2.7h1.3c.9 0 1.1-.5 1.1-1.5v-7.5c0-1-.2-1.5-1.1-1.5h-1.4v-2.7h7.7v11.7zm0-16c0 1.7-1.2 3-2.7 3s-2.7-1.3-2.7-3 1.2-3 2.7-3 2.7 1.3 2.7 3M150.5 80.2c0 2.4.5 4.8 3.1 4.8 1.1 0 2.8-.9 3.1-2.9h3.6c-.5 4.1-4.1 5.8-7.4 5.8-5.3 0-7.8-3.2-7.8-8.5s3.4-8.5 7.8-8.5c5 0 7.8 3.9 7.8 9.2h-10.2zm4.7-2.7v-.9c0-1.7-.8-2.9-2.3-2.9s-2.3 1.2-2.3 2.9v.9z" style="fill:var(--logo-color);fill-rule:nonzero"/><path d="M109.3 77.4h7.9v3.7h-7.9z" style="fill:var(--logo-color);fill-rule:nonzero"/></svg>
