<?xml version="1.0" encoding="UTF-8"?>
<svg viewBox="0 0 31 32" version="1.1" xmlns="http://www.w3.org/2000/svg" xmlns:xlink="http://www.w3.org/1999/xlink">
    <title>Icon Color</title>
    <defs>
        <path d="M19.893654,31.986999 L19.893654,20.5683289 C20.8596768,20.5683289 21.8290289,20.5550157 22.7978261,20.5735385 C23.3066388,20.5833786 23.7793852,20.5341777 24.1683467,20.0919481 C24.3647695,19.304733 24.52901,18.4943646 24.4979375,17.6342164 C24.4807366,17.138734 24.8142115,16.6583012 24.6926957,16.1327194 C24.645532,15.9307062 24.5356684,15.7437426 24.4485544,15.535941 L19.8925442,15.535941 C19.8925442,14.2127251 19.8758982,12.9271334 19.8992026,11.6432783 C19.9130743,10.8705341 20.6027736,10.1626194 21.3590568,10.0613234 C21.8750828,9.99302087 22.3883345,9.88246346 22.9071348,9.84252387 C23.4076245,9.80489963 23.9136629,9.83442019 24.4479995,9.83442019 L24.4479995,5.72411572 C22.8810561,5.72411572 21.2691684,5.54699234 19.710548,5.7738955 C18.1774514,5.99732565 16.8801732,6.86094687 16.1016953,8.41106592 C15.5923277,9.42518413 15.2727245,10.4520367 15.2988032,11.6062329 C15.3276563,12.893561 15.3049067,14.1820468 15.3049067,15.5098934 L12.170465,15.5098934 C12.028974,15.6574962 11.9263237,15.7651595 11.8236733,15.8728227 C11.8186795,15.9092893 11.8109114,15.9445982 11.8109114,15.9810648 C11.8103565,17.3887905 11.8103565,18.7965162 11.8103565,20.2574948 C12.8934563,20.8884245 14.105285,20.3900479 15.2721696,20.6186875 L15.2721696,31.986999 L14.3566396,31.986999 C10.8631992,31.986999 7.36920384,31.9603726 3.87576338,32 C2.46418261,32.0159407 1.48151376,31.2918187 0.679731443,30.2180805 C0.182016053,29.551263 -0.00219967667,28.7657845 0,27.8847982 C0.0238790561,19.9333474 0.0233241895,11.9807389 0.0055684565,4.02928803 C0.00223925657,2.566573 0.678621709,1.53393208 1.72454535,0.706777446 C2.37429421,0.19219349 3.11837039,-0.00229493395 3.95899338,0 C11.5645506,0.0243314575 19.1706627,0.0237526229 26.7767748,0.00580875039 C28.1794777,0.00233574281 29.1493847,0.719511807 29.9389599,1.82103404 C30.4344558,2.51100488 30.6103486,3.28490674 30.6086957,4.16068348 C30.587599,12.0745101 30.5964769,19.9883367 30.595922,27.9021633 C30.595922,29.5205848 30.1170721,30.2823311 28.7554293,31.3248122 C28.1456309,31.7913529 27.5436006,31.990472 26.8272677,31.9887355 C24.5395525,31.9841048 22.2518373,31.986999 19.893654,31.986999" id="path-1"></path>
    </defs>
    <g id="Symbols" stroke="none" stroke-width="1" fill="none" fill-rule="evenodd">
        <g id="icon/Social/FB">
            <mask id="mask-2" fill="white">
                <use xlink:href="#path-1"></use>
            </mask>
            <use id="Fill-1" fill="#FF9100" xlink:href="#path-1"></use>
            <g id="Group" mask="url(#mask-2)" fill="#000000">
                <g id="icon-color">
                    <rect id="Rectangle" x="0" y="0" width="32" height="32"></rect>
                </g>
            </g>
        </g>
    </g>
</svg>