<?xml version="1.0" encoding="UTF-8"?>
<svg width="3544px" height="359px" viewBox="0 0 3544 359" version="1.1" xmlns="http://www.w3.org/2000/svg" xmlns:xlink="http://www.w3.org/1999/xlink">
    <title>Footer/woman child and dog</title>
    <defs>
        <rect id="path-1" x="0" y="-3" width="3544" height="362"></rect>
    </defs>
    <g id="Footer/woman-child-and-dog" stroke="none" stroke-width="1" fill="none" fill-rule="evenodd">
        <mask id="mask-2" fill="white">
            <use xlink:href="#path-1"></use>
        </mask>
        <g id="Rectangle"></g>
        <path d="M2153.73501,340.19458 C2235.05513,335.880378 2315.96654,351.521008 2395.90232,367.095672 C2506.59684,388.653487 2618.6625,417.88979 2731.22258,424.690924 C2788.31674,428.147563 2845.46364,431.604202 2902.65668,431.083067 C3009.25091,430.106765 3115.24526,415.303908 3221.76038,411.049076 C3331.63006,406.67636 3441.65896,413.528339 3550.13916,431.498655 L3552.02585,183.049454 C3552.07723,174.698109 3551.93221,165.687101 3546.92221,159.011303 C3543.62616,154.604748 3538.61617,151.847353 3533.73802,149.347227 C3465.45706,114.483992 3384.9214,104.298782 3310.12745,121.067437 C3266.91625,130.751303 3225.79474,149.037185 3182.07595,156.029622 C3070.01028,173.979076 2959.44761,116.172731 2845.97123,113.382353 C2685.22951,109.42437 2540.79664,206.507101 2377.47741,184.78437 C2317.72663,176.83542 2262.47167,145.336471 2202.31218,141.53021 C2135.07278,137.268782 2069.7319,181.281555 2002.35406,180.272269 C1926.03734,179.117857 1856.9192,137.842689 1784.18198,114.701681 C1679.85544,81.507395 1565.32433,85.6764706 1464.74209,128.877857 C1415.49912,150.046471 1367.77892,177.864496 1314.17857,183.887227 C1226.89919,193.703025 1146.26465,146.095084 1059.86202,145.158361 C969.985351,144.188655 893.800473,206.223445 804.873069,212.648571 C717.000401,218.994538 635.456146,172.171597 554.142616,138.284664 C488.973134,111.132899 419.703366,91.5144958 349.128364,90.6305462 C278.553361,89.7465966 206.290781,108.764706 150.745762,152.355294 C123.962067,173.411765 101.153408,199.870882 71.3241638,216.289916 C42.925405,231.910756 10.215414,237.267227 -20.6092369,247.294118 C-27.201335,249.424832 -34.0109724,251.997521 -38.4408623,257.307815 C-44.0836984,264.056176 -44.5715136,273.581723 -44.8022371,282.375042 C-45.131842,295.192311 -45.3691575,308.504328 -40.1416237,320.213361 C-27.8012159,347.853277 7.80270612,354.515882 37.9945156,356.494874 C152.354234,363.955672 267.116071,357.359034 381.528526,350.762395 C571.315032,339.825168 761.154274,328.881345 950.426596,311.142983 C967.467169,309.54 986.16236,307.099244 997.685347,294.427101 C1009.05672,281.893487 1012.92628,270.870504 1029.87456,270.118487 C1045.03639,269.458824 1065.87401,275.560714 1082.68386,275.593697" id="Path" fill="#66AF37" fill-rule="nonzero" mask="url(#mask-2)"></path>
        <path d="M2483.41243,370.453361 L-35.2568789,362.438445 C-23.2856287,355.459202 -9.83115641,346.890168 5.00106441,344.871597 C50.6579361,338.637773 97.9496482,344.449412 142.38039,332.199454 C191.471745,318.656555 232.065885,284.466176 278.73794,264.095756 C358.785787,229.133571 450.791701,237.115504 536.324175,254.926429 C621.856648,272.737353 706.354162,299.829748 793.673094,301.320588 C831.248053,301.980252 869.970038,297.481345 903.148068,279.782563 C951.626358,253.923739 982.055483,204.976681 1037.08632,191.519538 C1086.48091,179.441092 1140.86572,186.901891 1190.40534,194.481429 C1268.75242,206.460924 1349.50563,207.41084 1426.0267,185.477017 C1457.57648,176.433025 1487.91332,163.747689 1519.18623,153.852731 C1544.63832,145.798235 1566.55046,139.597395 1596.76204,137.486471 C1657.58733,133.231639 1718.63675,146.523866 1771.45264,173.372185 C1835.57398,205.972773 1896.23447,249.048824 1966.79629,262.967731 C2010.56095,271.530597 2055.81107,268.344178 2097.94608,253.732437 C2151.79034,234.978193 2200.02472,197.746765 2256.81564,192.542017 C2305.36645,188.095882 2352.65816,207.898992 2401.14963,212.938824 C2427.57736,215.683025 2454.78954,214.146008 2481.88965,212.463866 C2552.89973,208.057311 2624.41081,168.061891 2695.47363,171.657059 C2788.16512,176.353866 2873.97447,224.990882 2966.47479,232.563824 C3052.49507,239.609034 3140.4073,210.794916 3224.46314,230.367143 C3296.04673,247.050042 3356.60834,297.250462 3428.5545,312.271008 C3472.53038,321.453529 3518.04223,316.888655 3562.84872,313.649706 C3568.67614,313.227521 3574.91885,312.924076 3579.93544,315.91895 C3585.41347,319.217269 3588.07009,325.589622 3590.25207,331.592563 C3597.29625,350.982295 3603.05702,370.815106 3607.497,390.962311 C3608.81542,396.899286 3609.96245,403.304622 3607.54315,408.878782 C3603.28465,418.71437 3590.61464,421.042983 3579.92226,421.729034 C3507.51465,426.40605 3434.98839,418.199832 3362.59396,413.364496 C3098.98914,395.777857 2832.74748,422.850462 2570.98845,387.070294 C2520.75666,380.203193 2469.8393,371.020672 2419.70639,378.547437" id="Path" fill="#9DD87D" fill-rule="nonzero" mask="url(#mask-2)"></path>
        <rect id="Rectangle" fill="#51B02B" fill-rule="nonzero" opacity="0.5" mask="url(#mask-2)" x="1174.98642" y="278.522605" width="339.176634" height="16.9071849" rx="8.45359244"></rect>
        <rect id="Rectangle" fill="#51B02B" fill-rule="nonzero" opacity="0.5" mask="url(#mask-2)" x="1523.12831" y="278.522605" width="117.345939" height="16.9071849" rx="8.45359244"></rect>
        <path d="M1028.29905,216.039244 C1031.10728,223.823277 1037.24453,230.347353 1043.88277,236.079832 C1062.03741,251.786429 1085.01087,263.192017 1109.73783,268.772773 L1112.22964,262.037605 C1112.22964,262.037605 1046.26252,248.916891 1030.38875,198.87479 C1029.65702,196.565966 1027.55414,193.016975 1026.53237,190.820294 C1026.4321,190.472982 1026.1938,190.182059 1025.87316,190.015504 C1025.5929,189.957393 1025.30135,189.992125 1025.04255,190.114454 L1021.19936,191.433782 C1020.67767,191.564998 1020.20286,191.83912 1019.8282,192.225378 C1018.04834,194.468235 1022.21454,201.645378 1023.1704,203.861849 C1024.89753,207.925378 1026.80264,211.889958 1028.29905,216.039244 Z" id="Path" fill="#66AF37" fill-rule="nonzero" mask="url(#mask-2)"></path>
        <path d="M1103.27758,284.004412 C1101.52408,275.82458 1103.06004,266.668445 1109.55325,260.592941 C1114.38526,256.074244 1121.41903,253.732437 1128.46598,253.07937 C1135.51294,252.426303 1142.59944,253.330042 1149.5607,254.451471 C1159.93007,256.113824 1170.7477,258.528193 1178.28906,264.966513 C1169.22937,267.902986 1159.84532,269.721718 1150.34516,270.382353 C1158.75008,272.66479 1168.33499,275.936723 1170.89273,283.298571 C1163.57286,285.184851 1155.90822,285.291158 1148.53892,283.608613 C1152.36944,286.970466 1155.85424,290.707381 1158.94125,294.763529 C1159.59283,295.464841 1160.00788,296.353199 1160.12783,297.303235 C1160.12783,298.767689 1158.63802,299.981471 1157.00977,300.324496 C1155.35078,300.569539 1153.65821,300.445663 1152.05251,299.961681 C1145.32391,298.372199 1138.90294,295.684364 1133.04749,292.006134 C1134.75484,296.623782 1133.41665,301.683403 1131.72907,306.327437 C1130.54249,309.625756 1129.13838,312.924076 1126.60042,315.602311 C1124.06246,318.280546 1120.14675,320.121008 1116.22446,319.659244 C1114.99833,313.596933 1114.48414,307.785294 1111.28038,302.296891 C1107.77339,296.260966 1105.62436,290.370168 1103.27758,284.004412 Z" id="Path" fill="#71D0FF" fill-rule="nonzero" mask="url(#mask-2)"></path>
        <path d="M1743.71969,381.271849 C1747.67494,368.738235 1741.64318,354.568655 1731.48475,346.256891 C1721.32633,337.945126 1707.8389,334.732563 1694.72721,334.251008 C1692.52545,334.171849 1689.88861,333.901387 1688.89321,331.935588 C1688.17467,330.523908 1688.66248,328.815378 1689.28214,327.364118 C1694.31191,315.562731 1707.42359,308.438361 1720.265,308.299832 C1733.10641,308.161303 1745.39408,314.104874 1755.15698,322.423235 C1752.15757,313.451807 1749.8833,303.860294 1751.72249,294.58542 C1753.28482,286.748613 1757.98499,279.452731 1764.84736,275.356218 C1771.70973,271.259706 1780.6684,270.659412 1787.7549,274.379916 C1795.49402,278.463235 1799.95028,286.71563 1803.95169,294.499664 L1813.10152,312.310588 C1811.47986,301.201849 1815.5406,289.057437 1824.51903,282.328866 C1833.49747,275.600294 1847.30132,275.494748 1855.50189,283.160042 C1859.76039,287.118025 1862.22583,292.646008 1864.40782,298.055252 C1866.926,304.317661 1869.21126,310.665826 1871.2636,317.099748 C1880.27499,304.881472 1894.3349,297.408915 1909.49703,296.779449 C1924.65917,296.149982 1939.2893,302.431453 1949.28108,313.860798 C1937.63285,309.59937 1924.93646,318.649958 1918.99039,329.534412 C1913.04432,340.418866 1911.3106,353.137185 1906.04351,364.364664 C1896.67614,384.352479 1875.55506,398.26479 1853.50449,398.97063" id="Path" fill="#71D0FF" fill-rule="nonzero" mask="url(#mask-2)"></path>
        <path d="M1099.34868,201.777311 C1121.07789,204.189216 1142.65792,207.796439 1163.9908,212.582605 C1135.5393,226.125504 1104.83331,239.727773 1073.67905,235.011176 C1064.54241,233.619286 1024.02078,222.616092 1038.74093,207.898992 C1051.35821,195.325798 1083.74519,200.062185 1099.34868,201.777311 Z" id="Path" fill="#66AF37" fill-rule="nonzero" mask="url(#mask-2)"></path>
        <polygon id="Rectangle" fill="#FF9100" fill-rule="nonzero" mask="url(#mask-2)" transform="translate(1542.159397, 168.412176) rotate(-57.850000) translate(-1542.159397, -168.412176) " points="1541.19636 83.7600269 1543.17496 83.7594132 1543.12244 253.064325 1541.14383 253.064938"></polygon>
        <path d="M1266.40564,203.756303 L1223.31968,218.994538 C1223.3922,219.34416 1225.53463,229.285294 1226.54322,233.902941 C1227.26395,237.214454 1227.99348,240.512773 1228.7318,243.797899 C1229.07458,245.361303 1229.75357,247.096218 1229.77994,248.732185 C1229.66221,250.139557 1230.25,251.51367 1231.34886,252.399916 C1234.12201,255.060407 1237.21033,257.371036 1240.54483,259.28021 C1241.93577,260.078403 1243.56402,260.823824 1245.09338,260.329076 C1245.96406,259.977745 1246.7309,259.410164 1247.32151,258.679916 C1247.72205,258.305318 1248.01751,257.832244 1248.17848,257.307815 C1248.24245,256.47536 1247.97734,255.651037 1247.44017,255.012185 C1247.21604,254.662563 1246.97872,254.352521 1246.78096,253.976513 C1245.09997,251.502773 1242.20604,248.375966 1241.62594,245.400882 C1241.3227,243.850672 1242.05443,241.680378 1242.28515,240.123571 C1242.54883,238.309496 1242.81252,236.502017 1243.08279,234.687941 C1243.68927,230.567241 1244.31112,226.444342 1244.94836,222.319244 L1274.448,215.28063" id="Path" fill="#DBA258" fill-rule="nonzero" mask="url(#mask-2)"></path>
        <path d="M1205.64627,225.182185 L1221.93534,239.69479 C1222.24964,239.998906 1222.74829,239.998906 1223.06259,239.69479 L1244.1573,228.071513 C1244.54624,227.682311 1244.35507,227.834034 1244.60557,228.322185 L1242.13353,244.530126 C1242.28635,244.824614 1242.24458,245.182542 1242.02806,245.433866 L1236.09517,252.307563 C1235.80471,252.646678 1235.83685,253.155567 1236.16768,253.455378 L1245.44936,261.786933 C1245.77503,262.079379 1245.81281,262.576605 1245.53505,262.914958 L1239.14072,270.633025 C1238.99861,270.802946 1238.79415,270.908487 1238.57341,270.925861 C1238.35267,270.943235 1238.13423,270.870978 1237.96732,270.725378 L1197.28089,234.918824 C1196.94889,234.623186 1196.91376,234.11628 1197.20179,233.777605 L1204.50583,225.248151 C1204.805,224.919899 1205.3113,224.890613 1205.64627,225.182185 L1205.64627,225.182185 Z" id="Path" fill="#FFFEFD" fill-rule="nonzero" mask="url(#mask-2)"></path>
        <path d="M1239.68786,272.361345 L1236.55662,271.642311 C1236.14491,271.571076 1235.75357,271.411278 1235.40959,271.17395 C1234.9111,270.73686 1234.58015,270.139804 1234.47351,269.48521 C1234.44055,269.379664 1234.41418,269.274118 1234.38122,269.175168 C1234.11584,268.357731 1233.43934,267.740935 1232.60136,267.552395 C1232.40132,267.5104 1232.19872,267.481752 1231.99488,267.466639 C1231.3751,267.441743 1230.76894,267.277132 1230.22161,266.985084 C1229.40207,266.395012 1228.82369,265.528013 1228.59336,264.544328 C1228.49612,264.2455 1228.38166,263.952559 1228.25057,263.666975 C1227.83242,262.859545 1227.0481,262.305956 1226.14769,262.182731 C1226.02973,262.165209 1225.91089,262.154198 1225.79172,262.149748 C1225.34018,262.13435 1224.89447,262.042916 1224.4733,261.879286 C1223.29991,261.364748 1222.91756,260.210336 1222.60774,259.286807 C1222.48008,258.790592 1222.25609,258.324367 1221.94853,257.914706 C1221.48209,257.538121 1220.92529,257.290232 1220.33346,257.195672 C1219.52833,257.030821 1218.7669,256.698171 1218.09874,256.21937 C1217.34366,255.526797 1216.78625,254.645711 1216.48368,253.666471 C1216.24678,252.284845 1215.06284,251.266183 1213.66226,251.238908 C1211.62811,251.064244 1209.93927,249.595486 1209.48287,247.60416 C1209.30509,246.959723 1208.9724,246.36862 1208.51383,245.882437 C1207.99765,245.53967 1207.41256,245.314482 1206.79988,245.222773 C1205.70329,245.088059 1204.68625,244.580355 1203.91914,243.784706 C1203.51272,243.234263 1203.21922,242.608751 1203.05557,241.944244 C1202.85122,241.28458 1202.70619,240.868992 1202.39636,240.710672 C1202.08787,240.601857 1201.75996,240.559155 1201.43392,240.585336 C1200.80825,240.623912 1200.18238,240.513122 1199.60791,240.262101 C1198.70983,239.739742 1198.08937,238.845857 1197.91374,237.821345 L1197.81485,237.412353 C1197.73868,236.945242 1197.57304,236.497257 1197.32704,236.093025 C1197.20672,235.923778 1197.01376,235.821125 1196.80626,235.815966 L1195.54717,234.292143 C1195.98332,233.937719 1196.54572,233.777946 1197.10291,233.850168 C1197.82014,233.946334 1198.46983,234.323609 1198.90914,234.899034 C1199.32004,235.515044 1199.60048,236.208758 1199.73316,236.937395 C1199.73316,237.069328 1199.79248,237.194664 1199.82544,237.32 C1199.8884,237.780901 1200.12405,238.200634 1200.48465,238.494202 C1200.79219,238.596887 1201.11758,238.635062 1201.44051,238.606345 C1202.1044,238.565336 1202.76757,238.697154 1203.3654,238.98895 C1204.17301,239.54247 1204.72787,240.39431 1204.90795,241.357143 C1205.00237,241.775723 1205.17213,242.173609 1205.40895,242.531345 C1205.91648,242.96359 1206.54497,243.228522 1207.20859,243.289958 C1208.11689,243.431081 1208.97941,243.783557 1209.72678,244.319034 C1210.46432,245.013868 1211.00359,245.892769 1211.2891,246.865336 C1211.46771,247.498474 1211.7878,248.082702 1212.22518,248.573866 C1212.77697,248.950051 1213.4091,249.191778 1214.07097,249.279706 C1215.02746,249.435157 1215.93215,249.819915 1216.70781,250.401134 C1217.42081,251.092751 1217.94893,251.95239 1218.24377,252.901261 C1218.43688,253.557124 1218.78511,254.156756 1219.25895,254.64937 C1219.72334,254.948134 1220.24001,255.156289 1220.78172,255.262857 C1221.7433,255.441876 1222.63073,255.90081 1223.33287,256.582185 C1223.8287,257.191508 1224.18835,257.900052 1224.3876,258.660126 C1224.64469,259.431933 1224.82268,259.913487 1225.17206,260.06521 C1225.38493,260.135463 1225.60716,260.173267 1225.83127,260.177353 C1225.98289,260.177353 1226.1411,260.177353 1226.29272,260.216933 C1227.84755,260.424237 1229.2009,261.38383 1229.91178,262.783025 C1230.08331,263.142267 1230.23086,263.51249 1230.35345,263.891261 C1230.46125,264.423603 1230.7306,264.909684 1231.12473,265.283151 C1231.43309,265.417299 1231.76425,265.491189 1232.10036,265.50084 C1232.37063,265.50084 1232.64091,265.56021 1232.90459,265.612983 C1234.45282,265.945146 1235.70802,267.075603 1236.20064,268.581471 C1236.24019,268.713403 1236.27316,268.845336 1236.31271,268.983866 C1236.35107,269.199882 1236.42693,269.407511 1236.53684,269.597353 C1236.66132,269.652237 1236.79188,269.692097 1236.92577,269.716092 L1240.05702,270.435126 L1239.68786,272.361345 Z" id="Path" fill="#000000" fill-rule="nonzero" mask="url(#mask-2)"></path>
        <path d="M1414.82673,235.00458 L1430.45659,278.014664 C1430.45659,278.014664 1476.04095,267.849244 1477.34618,266.800378 C1478.65142,265.751513 1480.20715,261.589034 1474.70935,261.589034 C1469.21154,261.589034 1433.55488,256.371092 1433.55488,256.371092 L1426.25742,226.917101" id="Path" fill="#BF8B4C" fill-rule="nonzero" mask="url(#mask-2)"></path>
        <path d="M1426.69909,279.248235 L1449.633,273.50916 C1450.05666,273.40172 1450.3228,272.981977 1450.23948,272.552647 L1447.45102,258.468824 C1447.39833,258.213355 1447.47159,257.948116 1447.64791,257.75599 C1447.82423,257.563864 1448.08211,257.468284 1448.34095,257.499118 L1456.43605,258.369874 L1464.8212,259.28021 C1465.15352,259.316506 1465.43027,259.551643 1465.51996,259.873908 L1467.97222,268.62105 C1468.02776,268.827752 1468.1633,269.003799 1468.34886,269.110261 C1468.53442,269.216722 1468.75472,269.244828 1468.96104,269.188361 L1481.03117,266.035168 C1481.45553,265.927734 1481.88978,266.171078 1482.01998,266.589286 L1484.93369,276.240168 C1484.99629,276.451923 1484.97067,276.68001 1484.86266,276.872576 C1484.75465,277.065142 1484.57342,277.205827 1484.36018,277.262647 L1430.21268,291.623529 C1429.78377,291.738115 1429.34188,291.489194 1429.21728,291.062815 L1426.1124,280.277311 C1426.0461,280.062835 1426.07156,279.830456 1426.18274,279.635456 C1426.29391,279.440456 1426.48085,279.300266 1426.69909,279.248235 L1426.69909,279.248235 Z" id="Path" fill="#FFFEFD" fill-rule="nonzero" mask="url(#mask-2)"></path>
        <path d="M1435.0381,292.448109 C1434.50513,292.43594 1433.97759,292.337934 1433.47577,292.157857 L1433.06706,292.019328 C1432.63795,291.822608 1432.1742,291.712756 1431.7025,291.696092 C1431.49616,291.704827 1431.30584,291.809818 1431.18831,291.979748 L1429.21068,292.19084 C1429.15416,291.631059 1429.33062,291.072703 1429.6985,290.647227 C1430.17265,290.098486 1430.8472,289.763352 1431.57065,289.717101 C1432.31163,289.710599 1433.04582,289.858885 1433.72627,290.152479 L1434.09543,290.284412 C1434.5078,290.479484 1434.97834,290.512445 1435.41385,290.376765 C1435.66778,290.177156 1435.87859,289.928053 1436.03351,289.644538 C1436.36285,289.065992 1436.83786,288.583836 1437.41125,288.24605 C1438.31684,287.871847 1439.33368,287.871847 1440.23926,288.24605 C1440.64003,288.395827 1441.06397,288.473976 1441.49176,288.476933 C1442.13216,288.28755 1442.69998,287.907981 1443.12001,287.388487 C1443.73824,286.709547 1444.50546,286.183412 1445.36132,285.851471 C1446.35054,285.619521 1447.38369,285.655957 1448.35414,285.957017 C1448.97843,286.151997 1449.63857,286.203853 1450.28562,286.108739 C1450.90373,285.859709 1451.4547,285.468793 1451.89409,284.967521 C1453.16213,283.364471 1455.31301,282.753305 1457.23369,283.450294 C1457.88709,283.650604 1458.57933,283.689088 1459.25087,283.562437 C1459.74406,283.336675 1460.1911,283.021294 1460.56929,282.632311 C1461.24398,281.929986 1462.10694,281.437509 1463.05452,281.214034 C1463.83843,281.135974 1464.62994,281.22823 1465.37493,281.484496 C1466.15939,281.695588 1466.66039,281.807731 1466.97681,281.603235 C1467.15591,281.458773 1467.31157,281.287429 1467.43826,281.095294 C1467.53714,280.969958 1467.62943,280.851218 1467.73491,280.732479 C1468.76474,279.549029 1470.30982,278.947338 1471.86815,279.122899 C1472.26154,279.181258 1472.65115,279.262758 1473.03495,279.366975 C1473.53892,279.571723 1474.09384,279.615502 1474.62365,279.492311 C1474.9039,279.310185 1475.14577,279.074869 1475.33559,278.799664 C1475.51358,278.588571 1475.69157,278.377479 1475.88274,278.186176 C1477.01097,277.092148 1478.63504,276.680202 1480.14783,277.104328 C1480.27967,277.104328 1480.41151,277.183487 1480.54994,277.229664 C1480.75664,277.325858 1480.98123,277.377547 1481.20915,277.381387 C1481.32643,277.308656 1481.43294,277.219837 1481.52557,277.117521 L1483.84599,274.90105 L1485.21715,276.332521 L1482.89014,278.555588 C1482.60333,278.860414 1482.25194,279.097089 1481.86177,279.248235 C1481.22277,279.425025 1480.5422,279.373714 1479.93688,279.103109 L1479.62705,279.00416 C1478.79896,278.779978 1477.91399,279.005123 1477.29345,279.597857 C1477.15059,279.743859 1477.01632,279.89804 1476.89133,280.059622 C1475.95931,281.484814 1474.1221,282.007683 1472.5801,281.286597 C1472.27643,281.203302 1471.96831,281.137231 1471.6572,281.088697 C1470.755,280.998827 1469.86396,281.344224 1469.25768,282.018824 C1469.17857,282.111176 1469.10606,282.210126 1469.03355,282.302479 C1468.77573,282.678696 1468.45187,283.005012 1468.07769,283.265588 C1466.99659,283.964832 1465.8232,283.648193 1464.88712,283.390924 C1464.4088,283.223975 1463.90353,283.147908 1463.3973,283.166639 C1462.82294,283.34785 1462.30668,283.677844 1461.9009,284.123151 C1461.31806,284.699416 1460.62226,285.148627 1459.85735,285.442479 C1458.86303,285.689829 1457.82075,285.667056 1456.83817,285.376513 C1456.19655,285.187626 1455.52084,285.144801 1454.86054,285.251176 C1454.25129,285.506011 1453.708,285.896275 1453.27184,286.392395 C1452.00641,287.995653 1449.8514,288.598084 1447.93883,287.883235 C1447.30158,287.672874 1446.62231,287.623027 1445.96121,287.738109 C1445.39862,287.991095 1444.89551,288.359694 1444.48458,288.819958 C1443.76972,289.665037 1442.78435,290.236155 1441.69612,290.436134 C1441.02402,290.464306 1440.35275,290.363545 1439.71849,290.139286 C1439.05928,289.947983 1438.6242,289.842437 1438.34074,289.980966 C1438.07155,290.178139 1437.84693,290.429888 1437.68153,290.71979 C1437.3646,291.253895 1436.9265,291.705857 1436.40266,292.039118 C1435.99188,292.293636 1435.52106,292.43475 1435.0381,292.448109 Z" id="Path" fill="#000000" fill-rule="nonzero" mask="url(#mask-2)"></path>
        <path d="M1332.23433,90.999958 C1332.23433,90.999958 1308.8126,181.749916 1307.29642,182.495336 L1251.78436,204.594076 L1261.15833,230.518866 L1330.63245,205.161387 L1357.1986,125.00563 L1413.36328,246.383782 L1441.34674,233.942521 L1373.56678,86.2437815 L1332.23433,90.999958 Z" id="Path" fill="#ACE5FC" fill-rule="nonzero" mask="url(#mask-2)"></path>
        <path d="M1377.33087,48.9265966 L1394.90541,64.6134034 L1429.28979,95.3009664 C1437.20031,102.332983 1455.34835,118.435378 1455.34835,118.435378 C1455.34835,118.435378 1458.54552,110.479832 1478.87555,123.086008 C1477.97903,125.724664 1472.46803,123.745672 1473.29864,125.447605 C1474.30723,127.51895 1470.40471,133.436134 1467.21413,137.743739 C1465.13103,140.567101 1456.21192,133.957269 1455.56589,132.908403 C1452.56649,128.040084 1444.76804,122.716597 1440.48976,119.193992 C1436.21149,115.671387 1431.84093,112.148782 1427.47696,108.672353 C1423.33712,105.374034 1419.18191,102.097703 1415.0113,98.8433613 C1412.9282,97.2117927 1410.8407,95.5868207 1408.74881,93.9684454 C1407.95776,93.3615546 1407.04805,92.332479 1406.15812,91.9036975 C1405.26818,91.474916 1404.52328,91.857521 1403.5872,92.1477731 C1402.76445,92.4536665 1401.88412,92.5730765 1401.00969,92.497395 C1400.12637,92.4080737 1399.36508,91.8367095 1399.03206,91.0131513 C1398.93336,90.647997 1398.89331,90.2694628 1398.9134,89.8917227 C1398.9134,87.9127311 1399.13753,87.0617647 1397.64113,85.8281933 C1397.04124,85.3334454 1396.46114,84.8255042 1395.86785,84.3241597 L1390.52825,79.8054622 L1373.32288,65.2268908" id="Path" fill="#DBA258" fill-rule="nonzero" mask="url(#mask-2)"></path>
        <polygon id="Path" fill="#FFFEFD" fill-rule="nonzero" mask="url(#mask-2)" points="1316.01777 40.8786975 1384.15369 42.8510924 1371.68804 68.5054202 1378.57019 87.0419748 1326.86836 93.0515126 1333.36158 59.9561765 1323.13064 63.6634874"></polygon>
        <path d="M1660.9493,200.042395 C1657.77776,190.360702 1654.0041,180.88702 1649.65045,171.676849 L1651.4369,170.832479 C1655.82872,180.125498 1659.63325,189.685235 1662.82805,199.455294 L1660.9493,200.042395 Z" id="Path" fill="#51B02B" fill-rule="nonzero" mask="url(#mask-2)"></path>
        <path d="M1642.57712,244.978697 L1646.21596,252.419706 L1636.74971,251.443403 C1636.74971,251.443403 1655.34602,265.804286 1655.02301,274.29416 C1654.69999,282.784034 1646.21596,272.315168 1643.9285,271.028824 C1641.64105,269.742479 1628.92489,259.603445 1628.92489,259.603445 L1627.94267,265.804286 C1627.94267,265.804286 1619.50478,260.579748 1620.16399,256.338109 C1620.8232,252.096471 1620.16399,257.657437 1620.16399,257.657437 C1620.16399,257.657437 1606.7227,265.269958 1570.22885,262.209118 L1567.55246,261.061303 L1564.30255,265.461261 L1562.0942,259.616639 C1562.0942,259.616639 1561.73822,269.722689 1556.87985,271.042017 L1553.29375,264.511345 C1553.29375,264.511345 1540.571,282.14416 1531.75736,283.120462 C1531.75736,283.120462 1529.4765,280.184958 1533.3922,273.977521 C1537.30791,267.770084 1545.46233,252.432899 1545.46233,252.432899 C1545.46233,252.432899 1527.51864,262.552143 1514.47947,257.334202 C1514.47947,257.334202 1514.80249,251.456597 1526.22,250.803529 L1539.93156,238.96916 L1529.8061,230.23521 L1538.61974,228.256218 C1538.61974,228.256218 1529.15348,219.766345 1527.52524,214.218571 L1540.57759,218.46021 C1540.57759,218.46021 1529.8061,209.323866 1530.78832,197.898487 C1530.78832,197.898487 1553.95296,217.160672 1554.92859,217.160672 C1555.90422,217.160672 1612.08867,213.816176 1612.08867,213.816176 L1626.00459,205.07563 L1621.44286,184.513908 L1631.22553,190.061681 L1635.79386,179.612605 L1644.36358,195.444538 L1666.77672,199.514664 L1675.59035,198.195336 C1675.59035,198.195336 1673.61272,220.393025 1671.99766,223.335126 C1670.38259,226.277227 1664.16625,224.964496 1664.16625,224.964496 L1658.9519,226.600462 L1651.80606,224.344412 L1652.12907,229.245714 L1645.60949,228.58605 L1648.45728,238.283109 L1643.80985,235.367395 C1643.80985,235.367395 1640.06553,239.628824 1640.02598,239.661807 C1639.57113,240.103782 1642.70237,244.576303 1643.12427,245.031471 C1645.25352,247.307311 1648.72755,249.13458 1651.45668,250.579244 C1654.04738,251.944748 1656.98745,253.297059 1658.12788,255.988487 C1658.78709,257.611261 1658.70799,259.451723 1658.54319,261.206429 C1651.08093,261.69458 1644.0999,257.868529 1636.82881,256.113824 C1632.47803,255.064958 1627.98881,254.754916 1623.51937,254.451471" id="Path" fill="#FFFEFD" fill-rule="nonzero" mask="url(#mask-2)"></path>
        <polygon id="Path" fill="#FF9100" fill-rule="nonzero" mask="url(#mask-2)" points="1611.77225 213.934916 1640.96865 240.209328 1642.7617 237.438739 1644.62067 236.429454 1645.69519 235.479538 1622.97222 212.318739 1616.82839 210.016513"></polygon>
        <path d="M1292.15437,70.2535294 C1291.53471,70.2535294 1250.88124,81.105 1250.255,81.105 C1249.62875,81.105 1227.53203,82.7739496 1227.53203,82.7739496 L1281.52791,112.60395 L1307.27664,114.892983 L1303.82898,72.1335714 L1291.30399,69.8379412" id="Path" fill="#66AF37" fill-rule="nonzero" mask="url(#mask-2)"></path>
        <path d="M1299.35953,94.3906303 C1297.62581,93.9420588 1246.25359,86.1580252 1219.33146,82.1076891 L1219.62811,80.1286975 C1299.53752,92.1609664 1299.9726,92.4512185 1300.20332,92.6029412 L1299.12881,94.2521008 L1299.67596,93.427521 L1299.35953,94.3906303 Z" id="Path" fill="#9DD87D" fill-rule="nonzero" mask="url(#mask-2)"></path>
        <polygon id="Rectangle" fill="#9DD87D" fill-rule="nonzero" mask="url(#mask-2)" transform="translate(1274.849258, 79.666963) rotate(-2.870000) translate(-1274.849258, -79.666963) " points="1247.28109 78.6784185 1302.41749 78.6765194 1302.41743 80.6555076 1247.28102 80.6574067"></polygon>
        <polygon id="Rectangle" fill="#9DD87D" fill-rule="nonzero" mask="url(#mask-2)" transform="translate(1287.763531, 97.682846) rotate(-2.690000) translate(-1287.763531, -97.682846) " points="1275.68352 96.6937415 1299.8436 96.6929614 1299.84354 98.67195 1275.68346 98.6727301"></polygon>
        <polygon id="Rectangle" fill="#9DD87D" fill-rule="nonzero" mask="url(#mask-2)" transform="translate(1250.395141, 88.101582) rotate(-55.660000) translate(-1250.395141, -88.101582) " points="1249.41162 70.1509789 1251.39018 70.1503444 1251.37866 106.052186 1249.4001 106.05282"></polygon>
        <path d="M1291.91046,72.8064286 C1293.15637,75.0822689 1295.92505,76.0585714 1297.57967,78.0837395 C1297.72901,78.2323343 1297.8222,78.4281766 1297.84335,78.6378571 C1297.81062,78.8812917 1297.67957,79.1006485 1297.48079,79.2447479 C1296.40627,80.2276471 1294.93624,80.7685714 1294.06608,81.9361765 C1293.03112,83.3148739 1293.10363,85.2740756 1293.7167,86.8902521 C1294.32976,88.5064286 1295.39768,89.8983193 1296.3008,91.3759664 C1296.41496,91.5287705 1296.4794,91.7130071 1296.48538,91.9036975 C1296.48538,92.3192857 1295.9712,92.5105882 1295.58226,92.6557143 C1293.13,93.5396639 1291.66656,96.2244958 1291.54131,98.8301681 C1291.41606,101.43584 1292.39828,103.96895 1293.59145,106.297563 C1294.38909,107.85437 1295.44383,109.490336 1297.12481,109.978487 C1298.58167,110.400672 1300.66477,110.156597 1301.08007,111.601261 C1301.40308,112.636933 1300.48678,113.811134 1300.92845,114.80063 C1301.1543,115.210049 1301.50553,115.536091 1301.93045,115.730756 C1302.99299,116.303501 1304.17794,116.611257 1305.38471,116.627899 C1306.70313,116.627899 1307.66558,115.889076 1308.90489,115.427311 C1308.83462,116.316006 1308.81042,117.207748 1308.83238,118.09895 C1308.81541,118.412874 1308.89106,118.724862 1309.04992,118.996092 C1309.26221,119.229514 1309.54038,119.392853 1309.84756,119.464454 C1311.16733,119.977847 1312.57143,120.239619 1313.9874,120.236261 C1315.42034,120.226577 1316.77221,119.569574 1317.66579,118.448571 C1317.84378,118.204496 1318.06132,117.90105 1318.325,117.94063 C1318.51938,117.990298 1318.68707,118.113195 1318.79304,118.283655 C1319.64867,119.300838 1320.77237,120.057344 1322.03635,120.467143 C1323.27567,120.862941 1324.88414,120.783782 1325.56972,119.675546 C1326.46624,118.230882 1325.14123,116.865378 1325.30603,115.420714 C1325.35877,114.91937 1325.67519,114.477395 1325.76748,113.97605 C1325.83243,113.142162 1325.85443,112.30548 1325.8334,111.469328 C1325.92569,110.255546 1325.95206,109.543109 1327.15182,109.365 C1328.35158,109.186891 1330.05234,109.675042 1331.27847,109.628866 C1333.13085,109.562899 1334.03397,106.99021 1335.89294,106.732941 C1336.61834,106.72585 1337.33637,106.879014 1337.99582,107.181513 C1339.66362,107.742227 1341.95108,107.636681 1342.6828,106.040294 C1343.28928,104.720966 1342.53119,103.216933 1341.52259,102.207647 C1341.22595,101.910798 1340.86338,101.547983 1340.86338,101.152185 C1340.93759,100.769659 1341.1485,100.42728 1341.45667,100.189076 C1342.56415,99.0544538 1343.32224,97.352521 1342.70258,95.8946639 C1342.19499,94.7138655 1340.96886,94.0542017 1339.94049,93.2560084 C1338.91212,92.4578151 1337.96286,91.2770168 1338.3452,90.0302521 C1338.53111,89.5680993 1338.81183,89.150108 1339.16922,88.8032773 L1341.7665,85.8941597 C1342.51141,85.0563866 1341.95767,84.1922269 1342.35979,83.149958 C1342.76191,82.1076891 1342.07633,80.8147479 1341.34461,79.9703782 C1339.97345,78.4003782 1338.96486,79.060042 1337.81124,77.3317227 C1336.93449,76.012395 1337.23773,75.3131513 1338.37157,74.2115126 C1339.50541,73.1098739 1340.87657,71.8433193 1341.60829,70.4382353 C1342.34001,69.0331513 1341.48304,67.2388655 1340.72495,65.8997479 C1339.96686,64.5606303 1339.82183,64.6397899 1338.37157,64.1384454 C1338.11448,64.0460924 1338.95827,61.790042 1338.77369,61.5921429 C1338.11448,60.8335294 1338.37816,60.3783613 1338.50341,59.362479 C1338.62866,58.3465966 1337.72555,59.3228992 1336.66422,59.1843697 C1335.60289,59.0458403 1334.4295,59.3360924 1333.48683,58.8347479 C1332.7551,58.4455462 1332.20796,55.3517227 1331.38395,55.2791597 C1323.69097,54.6194958 1327.31662,63.4457983 1324.85118,65.1147479 C1323.64482,65.9327311 1323.38114,63.6239076 1322.49121,61.9351681 C1321.60127,60.2464286 1319.94666,59.0656303 1315.72771,60.8928992 C1313.21612,61.9813445 1310.3156,61.3546639 1307.58647,61.4997899 C1303.20932,61.7306723 1287.66515,65.0421849 1291.91046,72.8064286 Z" id="Path" fill="#71D0FF" fill-rule="nonzero" mask="url(#mask-2)"></path>
        <path d="M1318.2459,48.207563 C1304.71891,52.0929832 1291.126,56.9217227 1277.32874,59.6065546 C1275.96418,59.8770168 1274.48755,60.2068487 1273.60421,61.2755042 C1272.6017,62.5678521 1272.75343,64.4127915 1273.95359,65.5237395 C1274.26248,65.7444768 1274.55344,65.9893158 1274.82375,66.2559664 C1276.14216,67.8061765 1274.21727,70.5833613 1273.84152,72.2852941 C1273.42622,74.1323529 1273.07684,75.9992017 1272.70768,77.8528571 C1271.75183,82.6354202 1270.84871,87.4245798 1270.03129,92.2269328 C1269.24024,96.8445798 1268.49533,101.462227 1268.05366,106.159034 C1267.86908,108.190798 1267.05166,112.049832 1268.31075,113.910084 C1270.47955,117.096261 1284.791,120.915714 1292.88609,113.494496 L1276.05647,108.606387 L1286.98617,72.5953361 L1322.64942,61.9813445" id="Path" fill="#DBA258" fill-rule="nonzero" mask="url(#mask-2)"></path>
        <path d="M1317.54054,100.426555 C1317.54054,100.426555 1326.32781,84.7067647 1347.20498,82.0681092 C1347.20498,82.0681092 1342.59051,99.324916 1317.54054,100.426555 Z" id="Path" fill="#9DD87D" fill-rule="nonzero" mask="url(#mask-2)"></path>
        <path d="M1304.68595,90.4194538 C1304.68595,90.4194538 1302.81379,107.795 1314.5741,115.816513 C1314.5741,115.816513 1322.26048,102.953067 1304.68595,90.4194538 Z" id="Path" fill="#9DD87D" fill-rule="nonzero" mask="url(#mask-2)"></path>
        <path d="M1282.64857,86.9957983 C1288.79713,87.8089085 1295.05093,87.1301545 1300.88231,85.0168067 C1300.88231,85.0168067 1292.97179,79.6273529 1285.17334,78.3080252" id="Path" fill="#9DD87D" fill-rule="nonzero" mask="url(#mask-2)"></path>
        <path d="M1280.49954,97.8802521 C1280.49954,97.8802521 1285.66115,114.91937 1303.57189,117.445882 C1303.57189,117.445882 1299.61663,100.736597 1280.49954,97.8802521 Z" id="Path" fill="#9DD87D" fill-rule="nonzero" mask="url(#mask-2)"></path>
        <path d="M1244.81651,84.2911765 C1244.81651,84.2911765 1242.83889,101.989958 1258.29736,111.390176 C1258.29736,111.403361 1261.25721,94.4763866 1244.81651,84.2911765 Z" id="Path" fill="#9DD87D" fill-rule="nonzero" mask="url(#mask-2)"></path>
        <path d="M1272.76042,77.5955882 C1272.43081,77.4834454 1261.99552,81.2237395 1261.99552,81.2237395 L1271.442,83.862395" id="Path" fill="#9DD87D" fill-rule="nonzero" mask="url(#mask-2)"></path>
        <path d="M1291.36332,71.7509664 C1290.61885,70.1457258 1290.70827,68.2772187 1291.60262,66.7505122 C1292.49697,65.2238058 1294.08256,64.2329716 1295.84595,64.0988655 C1298.75965,63.8745798 1301.87772,65.9789076 1304.41567,64.5606303 C1305.20703,64.0252102 1305.91934,63.3812487 1306.53174,62.647605 C1308.40389,60.767563 1311.28464,59.5537815 1313.71712,60.5894538 C1316.03095,61.5657563 1317.35596,64.2835714 1319.77526,64.930042 C1320.5131,65.0904208 1321.26984,65.1459388 1322.02317,65.094958 L1327.56712,64.9828151" id="Path" fill="#71D0FF" fill-rule="nonzero" mask="url(#mask-2)"></path>
        <path d="M1308.54892,82.5166807 C1308.54892,82.5166807 1312.50418,65.3126471 1327.47483,61.077605 C1327.47483,61.077605 1324.9171,78.0111765 1308.54892,82.5166807 Z" id="Path" fill="#9DD87D" fill-rule="nonzero" mask="url(#mask-2)"></path>
        <path d="M1323.63164,121.905236 C1322.79397,121.882941 1321.9665,121.715547 1321.18597,121.410462 C1319.93681,121.037662 1318.83813,120.277751 1318.04813,119.240168 C1317.64661,119.741784 1317.1656,120.174105 1316.62424,120.519916 C1314.89058,121.552299 1312.79814,121.792423 1310.87593,121.17958 C1309.78775,120.928551 1308.85632,120.228898 1308.3116,119.253361 C1307.95837,118.404776 1307.89578,117.463046 1308.13362,116.575126 C1308.55534,114.558066 1309.53795,112.701267 1310.96822,111.218655 L1312.38552,112.597353 C1311.21632,113.809426 1310.41409,115.328088 1310.07169,116.977521 C1309.84635,117.463926 1309.87562,118.030318 1310.14991,118.490863 C1310.4242,118.951408 1310.90811,119.24666 1311.44285,119.279748 C1312.81945,119.717959 1314.3173,119.550085 1315.56291,118.817983 C1316.46987,118.23441 1317.08956,117.295854 1317.27027,116.232101 C1317.27027,115.895672 1317.27027,115.572437 1317.27027,115.288782 L1319.24789,115.196429 C1319.29074,115.573421 1319.29074,115.954058 1319.24789,116.33105 C1319.22865,116.925325 1319.365,117.514309 1319.64342,118.03958 C1320.18953,118.769806 1320.96876,119.2912 1321.85177,119.517227 C1323.05154,119.952605 1323.9151,120.011975 1324.48861,119.695336 C1325.44447,119.193992 1325.60927,117.643782 1325.14782,116.594916 C1324.53476,115.275588 1323.17019,114.305882 1322.00998,113.448319 L1323.1636,111.845336 C1324.48202,112.795252 1326.11027,113.97605 1326.94087,115.757143 C1327.82421,117.650378 1327.5012,120.37479 1325.44447,121.450042 C1324.88773,121.751069 1324.26444,121.907566 1323.63164,121.905236 L1323.63164,121.905236 Z" id="Path" fill="#ACE5FC" fill-rule="nonzero" mask="url(#mask-2)"></path>
        <path d="M1330.16441,111.297815 L1330.01279,111.297815 C1328.69229,111.257288 1327.44224,110.692361 1326.53876,109.727815 C1325.01869,107.880021 1324.73173,105.308575 1325.80703,103.170756 L1327.5869,104.034916 C1326.85068,105.44569 1327.01614,107.158374 1328.00879,108.401891 C1328.54765,108.969527 1329.28997,109.299412 1330.07212,109.318824 C1330.70204,109.357473 1331.32063,109.138437 1331.78607,108.711933 C1332.43363,108.001996 1333.00173,107.223368 1333.48023,106.389916 C1333.91531,105.684076 1334.13944,105.36084 1334.60089,105.268487 L1335.02938,105.182731 L1335.39194,105.44 C1336.38922,106.070473 1337.51595,106.467354 1338.68799,106.601008 C1340.1822,106.851681 1341.10949,106.563627 1341.46986,105.736849 C1341.62225,105.323896 1341.62225,104.870054 1341.46986,104.457101 C1341.06213,103.457314 1340.34622,102.61381 1339.42631,102.049328 C1339.00589,101.73241 1338.81413,101.195626 1338.93849,100.683824 C1339.06173,100.173009 1339.48593,99.7904439 1340.00641,99.7207143 C1340.64293,99.6475047 1341.23452,99.3561643 1341.6808,98.8961345 C1342.22963,98.3043586 1342.42292,97.4653487 1342.1884,96.6928571 C1341.99167,96.2054334 1341.67676,95.7746918 1341.27209,95.4394958 C1340.16047,94.4438607 1338.72298,93.8900553 1337.23114,93.8826891 L1337.23114,93.8826891 L1337.23114,91.9036975 C1339.21882,91.906938 1341.13583,92.6418692 1342.61688,93.9684454 C1343.27251,94.5206987 1343.77625,95.2314251 1344.08033,96.0331933 C1344.56785,97.5003611 1344.21083,99.116922 1343.15084,100.241849 C1342.73136,100.688716 1342.22715,101.047514 1341.66762,101.297311 C1342.45621,101.982789 1343.04785,102.86631 1343.38157,103.856807 C1343.66675,104.718675 1343.63638,105.653943 1343.29587,106.495462 C1342.55096,108.217185 1340.80406,108.942815 1338.37157,108.533824 C1337.22891,108.374026 1336.11739,108.040339 1335.07552,107.544328 C1334.53968,108.468822 1333.89812,109.327766 1333.16381,110.103824 C1332.36091,110.882732 1331.28258,111.311991 1330.16441,111.297815 Z" id="Shape" fill="#ACE5FC" fill-rule="nonzero" mask="url(#mask-2)"></path>
        <path d="M1342.6828,84.2581933 L1341.08752,83.0839916 C1341.68913,82.2730083 1341.68271,81.1617436 1341.07175,80.3577827 C1340.46079,79.5538219 1339.39238,79.2507042 1338.45068,79.6141597 C1338.12373,79.7390487 1337.75628,79.6946276 1337.46845,79.4954202 C1336.95427,79.1392017 1336.95427,78.5784874 1336.95427,77.8726471 C1336.99879,77.293539 1336.93165,76.7112658 1336.75651,76.157521 C1336.31484,75.2669748 1334.94368,75.0426891 1333.88235,75.3395378 C1331.62563,76.0510865 1330.19057,78.2646502 1330.46105,80.6168487 L1328.48342,80.9136975 C1328.04983,77.5677248 1330.10016,74.3993934 1333.32862,73.4265126 C1335.18759,72.9053782 1337.56074,73.3803361 1338.50341,75.2735714 C1338.79718,75.978895 1338.93439,76.7396464 1338.90553,77.5032353 C1340.56191,77.3691644 1342.14379,78.2160345 1342.95155,79.6692985 C1343.75931,81.1225624 1343.64393,82.9141129 1342.65644,84.2515966 L1342.6828,84.2581933 Z" id="Path" fill="#ACE5FC" fill-rule="nonzero" mask="url(#mask-2)"></path>
        <path d="M1340.75791,71.7179832 L1339.55156,70.1479832 C1340.54619,69.3844139 1340.85386,68.0188837 1340.2829,66.90208 C1339.71195,65.7852762 1338.42532,65.2359442 1337.22455,65.5963025 L1336.64444,63.7030672 C1337.26698,63.4736552 1337.74071,62.9578432 1337.91672,62.3177731 C1338.17568,61.3631893 1337.71477,60.3599676 1336.8221,59.9352094 C1335.92942,59.5104513 1334.86091,59.7859328 1334.28447,60.5894538 L1332.5903,59.5735714 C1332.83767,59.0820573 1332.87803,58.5118782 1332.70237,57.9903782 C1332.53181,57.3749613 1332.12073,56.8542264 1331.56193,56.5457143 C1330.3607,56.0139067 1328.95398,56.3146044 1328.07471,57.2911345 C1327.18527,58.3673467 1326.91819,59.8285797 1327.36936,61.1501681 L1325.48402,61.7570588 C1324.82375,59.7629122 1325.24832,57.5686253 1326.60468,55.9652101 C1328.08644,54.3199183 1330.4715,53.8425778 1332.47164,54.7910084 C1333.50717,55.3481678 1334.2747,56.2993249 1334.60089,57.4296639 C1334.65199,57.6076749 1334.6938,57.7882274 1334.72614,57.9705882 C1335.10017,57.8535479 1335.48813,57.7869938 1335.87976,57.7726891 C1337.19648,57.6444821 1338.48609,58.2053421 1339.29075,59.2561518 C1340.09542,60.3069616 1340.30119,61.6989218 1339.83502,62.9378571 C1339.73728,63.2360702 1339.60916,63.5234359 1339.45268,63.7954202 C1340.58565,64.167663 1341.53063,64.9643581 1342.08951,66.0184874 C1343.03008,67.9963935 1342.4773,70.3623946 1340.75791,71.7179832 L1340.75791,71.7179832 Z" id="Path" fill="#ACE5FC" fill-rule="nonzero" mask="url(#mask-2)"></path>
        <path d="M1313.47322,98.2826471 C1312.21327,98.281001 1311.014,97.7409585 1310.17717,96.7984034 L1311.67357,95.4790756 C1312.2029,96.1110534 1313.02675,96.4157695 1313.83957,96.2802063 C1314.65239,96.144643 1315.33295,95.5890187 1315.62883,94.8194118 C1315.78243,94.3646434 1315.87984,93.8927752 1315.91889,93.4143277 C1315.96298,92.9703289 1316.03564,92.5296383 1316.13642,92.095 C1316.22061,91.6801985 1316.43548,91.3033357 1316.74949,91.0197479 C1317.16428,90.7103054 1317.67746,90.5625749 1318.19316,90.6041597 C1318.89192,90.6041597 1320.08509,90.5118067 1320.53335,89.8059664 C1320.82831,89.2026917 1320.71795,88.4795605 1320.25649,87.9918908 C1319.65807,87.3859077 1318.86843,87.0059677 1318.02176,86.9166387 L1316.53195,86.6857563 L1317.32959,85.412605 C1317.81151,84.7680057 1318.14471,84.0245563 1318.30522,83.2357143 C1318.33739,82.6004011 1318.09765,81.9814464 1317.64601,81.5337815 C1317.03349,80.8722938 1316.16725,80.5049069 1315.26627,80.5244958 C1313.27997,80.7301144 1311.48426,81.7986375 1310.35515,83.4468067 L1308.66099,82.4309244 C1310.13603,80.2103255 1312.53956,78.7808079 1315.19375,78.5455042 C1316.66045,78.5156073 1318.07205,79.1045773 1319.08309,80.1682773 C1319.93808,81.025202 1320.37632,82.2131183 1320.28285,83.4204202 C1320.20589,84.0802655 1320.00694,84.7200274 1319.69616,85.3070588 C1320.49656,85.5843318 1321.21183,86.0637795 1321.77267,86.6989496 C1322.80126,87.8512595 1322.97907,89.5323661 1322.21434,90.8746218 C1321.4958,91.9960504 1320.13124,92.5831513 1318.25908,92.5831513 L1318.06132,92.5831513 C1317.98633,92.9293212 1317.9313,93.2795217 1317.89651,93.6320168 C1317.8402,94.2783694 1317.70061,94.9147231 1317.48121,95.5252521 C1316.90484,96.9102933 1315.66201,97.9052423 1314.18516,98.1639076 C1313.95181,98.2244199 1313.71357,98.2641547 1313.47322,98.2826471 Z" id="Path" fill="#ACE5FC" fill-rule="nonzero" mask="url(#mask-2)"></path>
        <path d="M1301.53493,108.606387 C1301.00782,108.610148 1300.48613,108.499887 1300.00556,108.283151 C1298.62433,107.656525 1297.86472,106.152722 1298.17955,104.668193 L1300.09126,105.169538 C1300.01699,105.724642 1300.3178,106.262172 1300.82957,106.488866 C1301.48513,106.747166 1302.22604,106.663138 1302.8072,106.26458 C1303.49022,105.800986 1304.02567,105.15068 1304.34975,104.391134 L1304.92986,103.170756 L1305.91867,104.100882 C1306.87958,104.979238 1308.22575,105.298548 1309.47841,104.945252 C1310.02887,104.798022 1310.51687,104.476322 1310.86934,104.028319 C1311.15433,103.651902 1311.24701,103.163774 1311.11984,102.708992 L1312.9854,102.049328 C1313.32593,103.11283 1313.13724,104.275186 1312.47781,105.176134 C1311.86922,105.978843 1311.01496,106.560325 1310.04533,106.831891 C1308.53112,107.269873 1306.90366,107.067195 1305.54292,106.271176 C1305.10258,106.941188 1304.52513,107.510039 1303.84875,107.940126 C1303.15576,108.376262 1302.35358,108.607249 1301.53493,108.606387 Z" id="Path" fill="#ACE5FC" fill-rule="nonzero" mask="url(#mask-2)"></path>
        <path d="M1303.34116,78.6246639 L1302.02274,77.1272269 C1302.74668,76.3825951 1303.05954,75.3299659 1302.85994,74.3104622 C1302.84267,74.0279236 1302.74169,73.7569356 1302.56989,73.5320588 C1302.28643,73.2352101 1301.61403,73.2352101 1300.92845,73.2747899 L1299.32657,73.3737395 L1299.98578,71.9026891 C1300.32198,71.1176891 1300.64499,70.3128992 1300.3879,69.7587815 C1300.09126,69.0991176 1298.9706,68.8682353 1298.10044,68.8946218 C1297.24226,68.8630235 1296.39871,69.1234699 1295.70751,69.6334454 C1295.21921,70.0272559 1295.0476,70.6953832 1295.28562,71.2760084 L1293.60463,72.3182773 C1292.72788,70.9197899 1293.32776,69.0991176 1294.40887,68.1492017 C1295.43651,67.32717 1296.71914,66.8907752 1298.03452,66.9156303 C1300.04511,66.8364706 1301.61403,67.6148739 1302.20073,68.9737815 C1302.4992,69.7252317 1302.53176,70.5562497 1302.29302,71.3287815 C1302.94537,71.4002112 1303.55423,71.6908997 1304.02015,72.1533613 C1304.48514,72.672822 1304.77362,73.3264021 1304.84416,74.0202101 C1305.14888,75.7103001 1304.58412,77.4404683 1303.34116,78.6246639 L1303.34116,78.6246639 Z" id="Path" fill="#ACE5FC" fill-rule="nonzero" mask="url(#mask-2)"></path>
        <path d="M1322.86036,81.0588235 L1321.23212,79.9439916 C1321.80046,79.1131167 1322.26534,78.2159383 1322.61646,77.2723529 C1322.81044,76.8615127 1322.8836,76.4039219 1322.8274,75.9530252 C1322.64942,75.2405882 1321.55513,74.8184034 1320.62564,74.5347479 L1319.52476,74.1983193 L1320.02576,73.1560504 C1320.4568,72.2443799 1320.68187,71.2488903 1320.68497,70.2403361 C1320.71893,69.9427848 1320.65654,69.6421824 1320.50699,69.3827731 C1320.29721,69.2154079 1320.04713,69.1062077 1319.78185,69.0661345 C1317.66426,68.5537676 1315.43258,68.8329204 1313.50618,69.8511345 C1313.25383,69.9656443 1313.04229,70.1543161 1312.8997,70.3920588 C1312.90592,70.3615887 1312.90592,70.330176 1312.8997,70.2997059 L1311.07369,71.0781092 C1310.62543,70.0226471 1311.2319,68.8286555 1312.58328,68.1030252 C1314.93778,66.8891174 1317.65217,66.5703844 1320.22353,67.2058824 C1320.88467,67.3302435 1321.49066,67.6576584 1321.95725,68.142605 C1322.43394,68.7614755 1322.66836,69.5332519 1322.61646,70.3128992 C1322.6106,71.2437744 1322.45707,72.1678147 1322.1616,73.0505042 C1323.15042,73.4594958 1324.34359,74.1785294 1324.68638,75.5242437 C1324.84755,76.3578148 1324.75097,77.2207459 1324.40951,77.9979832 C1324.0181,79.0769285 1323.49795,80.1046435 1322.86036,81.0588235 Z" id="Path" fill="#ACE5FC" fill-rule="nonzero" mask="url(#mask-2)"></path>
        <path d="M1256.88665,80.0165546 C1256.88665,79.5218067 1262.06804,72.9779412 1270.73005,68.0370588 L1265.91782,80.1418908" id="Path" fill="#9DD87D" fill-rule="nonzero" mask="url(#mask-2)"></path>
        <path d="M1198.362,64.0592857 L1197.20179,62.4563025 C1204.86181,56.9019328 1214.6313,56.2818487 1224.8029,56.1103361 C1233.72201,55.9586134 1243.8277,55.7805042 1251.52068,50.7472689 L1252.60178,52.4030252 C1244.42758,57.7528992 1234.01866,57.9310084 1224.83587,58.0893277 C1214.99386,58.2542437 1205.56057,58.8413445 1198.362,64.0592857 Z" id="Path" fill="#51B02B" fill-rule="nonzero" mask="url(#mask-2)"></path>
        <path d="M1167.89332,111.271429 C1165.88527,110.224129 1163.75202,109.437188 1161.54513,108.929622 C1161.01117,108.784496 1160.47721,108.63937 1159.94984,108.48105 C1148.69931,105.162271 1138.65312,98.6473452 1131.03031,89.7268067 L1132.53331,88.4404622 C1139.90226,97.0697114 1149.61687,103.371827 1160.49699,106.581218 L1162.06591,107.023193 C1164.43592,107.575608 1166.7263,108.426778 1168.88214,109.556303 L1167.89332,111.271429 Z" id="Path" fill="#51B02B" fill-rule="nonzero" mask="url(#mask-2)"></path>
        <path d="M1211.33525,134.168361 C1211.33525,134.168361 1225.03363,129.953109 1242.1599,137.862479 C1242.1599,137.862479 1227.67047,145.507983 1211.33525,134.168361 Z" id="Path" fill="#9DD87D" fill-rule="nonzero" mask="url(#mask-2)"></path>
        <path d="M1117.72086,49.8765126 C1117.72086,49.8765126 1087.44336,52.6734874 1068.2208,28.1735714 C1068.2208,28.1735714 1096.21744,22.7445378 1117.72086,49.8765126 Z" id="Path" fill="#9DD87D" fill-rule="nonzero" mask="url(#mask-2)"></path>
        <path d="M1139.74506,96.5807143 C1139.74506,96.5807143 1148.43345,107.992899 1146.92386,126.806513 C1146.92386,126.806513 1134.75484,115.836303 1139.74506,96.5807143 Z" id="Path" fill="#66AF37" fill-rule="nonzero" mask="url(#mask-2)"></path>
        <path d="M1160.69475,81.9493697 C1160.69475,81.9493697 1177.13544,72.0544118 1201.93492,76.084958 C1201.92832,76.084958 1185.56674,90.4656303 1160.69475,81.9493697 Z" id="Path" fill="#9DD87D" fill-rule="nonzero" mask="url(#mask-2)"></path>
        <path d="M1247.34129,37.4418487 C1247.34129,37.4418487 1240.64372,50.1205882 1222.95052,56.6512605 C1222.94393,56.6512605 1227.78253,40.9908403 1247.34129,37.4418487 Z" id="Path" fill="#66AF37" fill-rule="nonzero" mask="url(#mask-2)"></path>
        <path d="M1020.7511,118.408992 L1020.59289,116.43 C1037.89759,115.011147 1054.41826,108.594495 1068.14828,97.9594118 L1070.08636,96.422395 C1072.89459,94.1663445 1075.79512,91.8377311 1079.17027,90.3271008 L1079.9811,92.1345798 C1076.83667,93.5396639 1074.04821,95.7891176 1071.31908,97.9660084 C1070.65987,98.4871429 1070.00066,99.0082773 1069.34145,99.5228151 C1055.31342,110.39289 1038.43349,116.953808 1020.7511,118.408992 Z" id="Path" fill="#51B02B" fill-rule="nonzero" mask="url(#mask-2)"></path>
        <path d="M1042.95988,113.283403 C1042.95988,113.283403 1063.57337,106.14584 1090.03405,117.241387 C1090.03405,117.267773 1068.40538,129.662857 1042.95988,113.283403 Z" id="Path" fill="#66AF37" fill-rule="nonzero" mask="url(#mask-2)"></path>
        <path d="M1250.22863,52.3766387 C1250.07117,53.1610102 1250.17057,53.9752799 1250.51209,54.6986555 C1250.84221,55.2029981 1251.29617,55.6141113 1251.83051,55.8926471 C1255.07781,57.6962491 1259.02509,57.6962491 1262.27239,55.8926471 C1263.19428,55.4399497 1263.93894,54.6924621 1264.38845,53.7685294 C1264.82582,52.8083229 1264.52835,51.6727402 1263.67651,51.0507143 C1263.16308,50.8315518 1262.62851,50.6657651 1262.08122,50.5559664 C1261.54726,50.3844538 1261.0133,49.9556723 1261.04626,49.394958 C1261.07922,48.8342437 1261.63296,48.4912185 1262.101,48.2009664 C1263.02269,47.6285788 1263.85369,46.9215206 1264.56644,46.1032353 C1264.85038,45.8257016 1265.03955,45.4655726 1265.10699,45.0741597 C1265.17291,44.2627731 1264.28957,43.6888655 1263.48534,43.5767227 C1262.6811,43.4645798 1261.82413,43.5767227 1261.06604,43.3062605 C1262.86568,42.1122689 1264.55985,39.6913025 1262.02189,38.8007563 C1260.14973,38.1410924 1257.99412,39.974958 1256.66251,41.0238235 C1253.10275,43.8084304 1250.78953,47.8901691 1250.22863,52.3766387 Z" id="Path" fill="#71D0FF" fill-rule="nonzero" mask="url(#mask-2)"></path>
        <path d="M1646.82903,203.855252 C1646.31386,204.164384 1645.96703,204.691066 1645.88636,205.286723 C1645.57447,206.070377 1645.57447,206.943825 1645.88636,207.727479 C1646.42707,208.585699 1647.54179,208.874685 1648.43091,208.387143 C1649.28329,207.851696 1649.66778,206.808504 1649.36699,205.847437 C1649.04075,204.902316 1648.20868,204.222922 1647.21796,204.092731" id="Path" fill="#000000" fill-rule="nonzero" mask="url(#mask-2)"></path>
        <path d="M1673.25675,198.208529 C1672.57349,198.406827 1672.03736,198.938356 1671.83286,199.62021 C1671.76304,200.202967 1671.8614,200.793545 1672.11632,201.322143 C1672.80849,203.202185 1673.5468,205.148193 1674.97729,206.553277 C1675.45607,204.282542 1675.77765,201.981442 1675.93973,199.666387 C1676.06498,197.872101 1674.72019,197.720378 1673.25675,198.208529 Z" id="Path" fill="#000000" fill-rule="nonzero" mask="url(#mask-2)"></path>
        <polygon id="Rectangle" fill="#000000" fill-rule="nonzero" mask="url(#mask-2)" transform="translate(1628.894067, 197.256131) rotate(-70.570000) translate(-1628.894067, -197.256131) " points="1620.51059 196.269051 1637.27797 196.26543 1637.27754 198.24321 1620.51016 198.246831"></polygon>
        <path d="M1545.17228,251.073992 L1544.31531,249.292899 C1545.11056,248.894294 1545.79118,248.299473 1546.29294,247.56458 C1543.49344,246.858582 1540.89171,245.522981 1538.68566,243.65937 L1537.4793,242.636891 L1538.92297,241.977227 C1539.72062,241.627605 1540.53145,241.317563 1541.35546,241.033908 C1538.86364,239.886092 1536.67507,237.847731 1534.61174,235.756597 L1530.85424,231.989916 L1532.25836,230.591429 L1536.00927,234.358109 C1538.85046,237.207857 1541.94215,239.985042 1545.49529,239.991639 L1545.66669,241.97063 C1544.18109,242.236155 1542.72106,242.629002 1541.30272,243.144832 C1543.29861,244.511454 1545.56092,245.439932 1547.94096,245.869244 L1549.12754,246.080336 L1548.69246,247.201765 C1548.0414,248.885841 1546.78627,250.266503 1545.17228,251.073992 L1545.17228,251.073992 Z" id="Path" fill="#000000" fill-rule="nonzero" mask="url(#mask-2)"></path>
        <path d="M1644.55475,258.237941 L1642.88036,257.505714 C1641.7289,257.034545 1640.66906,256.36471 1639.74911,255.526723 C1637.37562,254.452385 1635.55082,252.444919 1634.70616,249.97895 L1636.57831,249.319286 C1637.26527,251.326433 1638.77644,252.944261 1640.73134,253.76542 L1640.98843,253.870966 L1641.14664,254.088655 C1641.38455,254.348277 1641.6601,254.570648 1641.96406,254.748319 C1641.5949,252.584622 1641.19938,250.295588 1640.80385,248.006555 C1640.27648,244.972101 1639.74911,241.944244 1639.28767,239.193445 L1641.2653,238.863613 C1641.72674,241.614412 1642.25411,244.635672 1642.77489,247.663529 C1643.29566,250.691387 1643.81644,253.673067 1644.27789,256.397479 L1644.55475,258.237941 Z" id="Path" fill="#000000" fill-rule="nonzero" mask="url(#mask-2)"></path>
        <path d="M1619.63003,259.075714 C1618.39116,256.351989 1617.93464,253.33687 1618.31161,250.368151 L1620.28924,250.618824 C1619.96663,253.223697 1620.36096,255.867276 1621.42967,258.264328 L1619.63003,259.075714 Z" id="Path" fill="#000000" fill-rule="nonzero" mask="url(#mask-2)"></path>
        <path d="M1568.31714,262.110168 C1567.57223,261.641807 1567.88865,260.942563 1568.22485,260.210336 C1568.6797,259.207647 1570.07064,256.16 1570.00472,254.933025 L1571.98235,254.834076 C1572.05486,256.318319 1571.08582,258.679916 1570.00472,261.015126 C1569.88606,261.272395 1569.80036,261.463697 1569.7674,261.549454 L1568.85769,261.206429 L1568.85769,261.206429 L1569.62237,261.866092 L1568.31714,262.110168 Z" id="Path" fill="#000000" fill-rule="nonzero" mask="url(#mask-2)"></path>
        <path d="M1521.59894,255.282647 C1522.0052,255.157265 1522.37277,254.930214 1522.66686,254.622983 C1523.17445,254.055672 1523.12171,253.191513 1523.04261,252.432899 C1522.73278,249.497395 1517.46569,251.845798 1516.60213,253.389412 C1514.69042,256.88563 1519.77293,255.929118 1521.59894,255.282647 Z" id="Path" fill="#000000" fill-rule="nonzero" mask="url(#mask-2)"></path>
        <path d="M1534.96771,276.405084 C1536.067,275.174895 1536.74789,273.6274 1536.91238,271.985336 C1536.97742,271.668492 1536.90819,271.338848 1536.72121,271.075 C1536.53509,270.916081 1536.3053,270.817202 1536.062,270.791345 C1535.35665,270.639622 1534.52604,270.527479 1534.00527,271.028824 C1533.84272,271.208006 1533.71126,271.413133 1533.61633,271.635714 C1533.13511,272.62521 1531.86284,274.934034 1532.00786,276.121429 C1532.2254,277.876134 1533.95912,277.519916 1534.96771,276.405084 Z" id="Path" fill="#000000" fill-rule="nonzero" mask="url(#mask-2)"></path>
        <path d="M1644.90413,272.229412 C1644.179,272.110672 1644.02739,270.99584 1644.55475,270.481303 C1645.1489,270.026378 1645.93238,269.902323 1646.63786,270.151471 C1647.81797,270.464045 1648.84846,271.186585 1649.54497,272.189832 C1650.03279,272.895672 1650.30966,273.924748 1649.74273,274.571218 C1649.33516,274.967766 1648.7527,275.127181 1648.20018,274.993403 C1647.66117,274.860834 1647.14851,274.637786 1646.684,274.333739 L1644.36358,272.928655" id="Path" fill="#000000" fill-rule="nonzero" mask="url(#mask-2)"></path>
        <path d="M1624.17858,212.727731 C1623.13478,213.980132 1622.21007,215.327292 1621.41649,216.751681 C1621.27806,217.00895 1621.1594,217.365168 1621.38353,217.549874 C1621.50424,217.62292 1621.64519,217.655291 1621.78565,217.642227 L1626.28805,217.642227 C1626.42124,217.631373 1626.55458,217.66128 1626.67039,217.727983 C1626.84838,217.859916 1626.84179,218.117185 1626.81542,218.334874 L1626.50559,221.131849 C1626.34763,221.578432 1626.44106,222.075481 1626.75039,222.434105 C1627.05971,222.792729 1627.53743,222.957867 1628.002,222.866765 C1630.37029,223.163606 1632.76635,223.163606 1635.13465,222.866765" id="Path" fill="#FFFEFD" fill-rule="nonzero" mask="url(#mask-2)"></path>
        <path d="M1629.7489,224.41038 C1628.91918,224.41079 1628.09135,224.331263 1627.27686,224.172899 C1626.79477,224.104572 1626.33964,223.908729 1625.95844,223.605588 C1625.02896,222.787605 1625.14762,221.428697 1625.67498,220.439202 C1625.78046,220.241303 1625.89912,220.05 1626.01777,219.865294 C1626.22166,219.588526 1626.37559,219.278206 1626.47263,218.948361 L1626.34079,218.948361 L1619.35975,218.664706 L1620.0717,217.286008 C1620.47382,216.494412 1620.78365,215.768782 1621.08029,215.069538 C1621.4791,214.052356 1621.9666,213.072272 1622.53715,212.14063 C1620.93519,211.993471 1619.34505,211.737815 1617.77765,211.37542 C1616.72292,211.157731 1615.72751,210.953235 1614.76506,210.814706 L1615.04193,208.835714 C1616.0703,208.98084 1617.13822,209.205126 1618.17977,209.416218 C1620.31561,209.86479 1622.52396,210.319958 1624.48841,210.135252 L1627.12525,209.877983 L1625.29924,211.797605 C1624.23908,212.965256 1623.42321,214.333449 1622.89971,215.821555 C1622.76787,216.138193 1622.62944,216.461429 1622.48441,216.791261 L1626.43967,216.94958 C1626.95764,216.932614 1627.46547,217.095794 1627.87675,217.411345 C1628.34992,217.849541 1628.5705,218.496878 1628.46344,219.133067 C1628.34812,219.770026 1628.09377,220.373675 1627.71854,220.900966 C1627.61759,221.049524 1627.52516,221.203694 1627.44167,221.362731 C1627.303,221.582422 1627.24693,221.844296 1627.28346,222.101555 C1627.40433,222.164514 1627.53657,222.202643 1627.67239,222.213697 C1628.64656,222.405788 1629.64243,222.463495 1630.63224,222.38521 L1630.79045,224.364202 C1630.42789,224.397185 1630.0851,224.41038 1629.7489,224.41038 Z" id="Path" fill="#000000" fill-rule="nonzero" mask="url(#mask-2)"></path>
        <path d="M1687.69344,238.883403 C1682.66367,236.139202 1676.9681,233.032185 1673.19083,228.051723 L1672.20201,226.732395 C1670.69061,224.562055 1668.97068,222.544872 1667.06677,220.709664 L1668.38519,219.232017 C1670.39214,221.15141 1672.20293,223.266189 1673.79071,225.545 L1674.76634,226.864328 C1678.3063,231.481975 1683.8107,234.509832 1688.66248,237.161681 L1687.69344,238.883403 Z" id="Path" fill="#51B02B" fill-rule="nonzero" mask="url(#mask-2)"></path>
        <path d="M1686.82329,241.706765 C1686.3948,239.536471 1686.54642,236.996765 1688.17467,235.499328 C1689.09357,234.762958 1690.16584,234.242234 1691.31251,233.975504 C1693.10556,233.41479 1695.07,232.906849 1696.81032,233.599496 C1698.55063,234.292143 1699.64492,236.759286 1698.34627,238.118193 C1697.8255,238.665714 1696.93557,239.298992 1697.35087,239.932269 C1697.58968,240.185805 1697.90874,240.348938 1698.25399,240.394034 C1699.70105,240.897562 1700.58459,242.360979 1700.35686,243.877059 L1698.06941,243.982605 C1697.35746,245.961597 1699.09118,248.362773 1698.13533,250.262605 C1697.75192,250.94567 1697.14396,251.474796 1696.41479,251.760042 C1690.33028,254.438277 1687.65389,245.97479 1686.82329,241.706765 Z" id="Path" fill="#71D0FF" fill-rule="nonzero" mask="url(#mask-2)"></path>
        <path d="M1655.49764,181.763109 C1655.49764,181.763109 1676.98128,200.497563 1694.80632,192.416681 C1694.80632,192.416681 1686.19045,176.386849 1655.49764,181.763109 Z" id="Path" fill="#66AF37" fill-rule="nonzero" mask="url(#mask-2)"></path>
        <path d="M1473.1602,128.838277 C1470.09488,126.859286 1466.12643,124.596639 1461.99319,122.465924 L1462.9029,120.704622 C1467.08888,122.868319 1471.11006,125.16395 1474.22812,127.175924 L1473.1602,128.838277 Z" id="Path" fill="#FFBE71" fill-rule="nonzero" mask="url(#mask-2)"></path>
        <path d="M1471.61106,132.512605 C1470.06192,131.707815 1467.57669,130.322521 1465.17058,128.983403 C1463.14021,127.848782 1461.04393,126.681176 1459.60026,125.915966 L1460.52974,124.167857 C1461.9866,124.939664 1464.09607,126.146849 1466.13303,127.255084 C1468.52596,128.574412 1470.99799,129.966303 1472.52077,130.751303 L1471.61106,132.512605 Z" id="Path" fill="#FFBE71" fill-rule="nonzero" mask="url(#mask-2)"></path>
        <path d="M1470.03555,136.609118 C1469.48181,136.325462 1466.54833,134.880798 1463.61484,133.429538 L1457.18096,130.249958 L1458.07089,128.482059 L1464.49159,131.655042 C1467.43167,133.106303 1470.37174,134.557563 1470.92548,134.841218 L1470.03555,136.609118 Z" id="Path" fill="#FFBE71" fill-rule="nonzero" mask="url(#mask-2)"></path>
        <polygon id="Rectangle" fill="#FFBE71" fill-rule="nonzero" mask="url(#mask-2)" transform="translate(1463.435971, 137.166500) rotate(-66.450000) translate(-1463.435971, -137.166500) " points="1462.44789 131.99468 1464.42666 131.994181 1464.42405 142.33832 1462.44528 142.338819"></polygon>
        <path d="M1079.07139,83.8887815 C1077.70011,85.3660254 1076.44808,86.9497876 1075.32708,88.6251681 C1074.62011,89.5638349 1074.12324,90.6437363 1073.87023,91.7915546 C1073.62542,92.9614854 1074.04034,94.1716381 1074.95133,94.9447479 C1076.02584,95.7363445 1077.50247,95.5318487 1078.80771,95.2943697 L1087.54883,93.7111765 C1088.19474,93.5409339 1088.87066,93.5183878 1089.52646,93.6452101 C1090.79873,93.9882353 1091.54364,95.3933193 1091.55682,96.7060504 C1091.47825,98.0234449 1091.11622,99.3083084 1090.4955,100.472731 C1092.4374,100.128329 1094.30176,99.4379284 1095.9999,98.4343697 C1096.5705,98.1439274 1097.06327,97.7209354 1097.43698,97.2007983 C1098.19507,96.0134034 1097.70066,94.3576471 1096.69207,93.3681513 C1095.6098,92.4616222 1094.33645,91.8121033 1092.96753,91.4683193 C1094.4817,91.4076005 1095.96907,91.0489502 1097.34469,90.4128571 C1098.66311,89.6872269 1099.73762,88.2689496 1099.57282,86.764916 C1099.38165,85.0102101 1097.63474,83.8096218 1095.9142,83.4665966 C1094.19366,83.1235714 1092.39402,83.3016807 1090.64052,83.0642017 C1093.91858,81.9633395 1096.17003,78.9426906 1096.28995,75.4846639 C1096.34865,75.0513591 1096.20806,74.6147676 1095.90761,74.2972689 C1095.61661,74.114647 1095.27429,74.0313243 1094.93198,74.0597899 C1092.43357,74.0136134 1089.61216,74.0597899 1087.91799,75.9266387 C1090.37025,69.33 1081.0688,67.6148739 1080.1525,72.3314706 C1079.74378,74.4028151 1082.47291,75.5110504 1082.64431,77.6087815 C1082.90799,80.1484874 1080.66668,82.1802521 1079.07139,83.8887815 Z" id="Path" fill="#71D0FF" fill-rule="nonzero" mask="url(#mask-2)"></path>
        <path d="M1169.98302,108.593193 C1169.49336,108.54144 1168.99832,108.597733 1168.53275,108.758109 C1167.85952,109.104661 1167.35189,109.705211 1167.12205,110.427059 C1165.14442,115.348151 1169.5809,120.882731 1168.29544,126.021513 C1169.80842,126.140365 1171.2523,125.367706 1171.99361,124.042521 C1172.70484,122.738563 1173.08514,121.279751 1173.10108,119.794286 C1172.84027,121.121171 1172.89674,122.490969 1173.26588,123.791849 C1173.66602,125.113296 1174.83103,126.05693 1176.20596,126.173235 C1176.76696,126.210159 1177.30233,125.933406 1177.59689,125.454202 C1177.71255,125.153974 1177.75985,124.831711 1177.73532,124.510882 L1177.73532,118.785 C1178.01219,120.170294 1179.46245,120.955294 1180.80065,121.423655 C1182.13885,121.892017 1183.62866,122.268025 1184.43949,123.402647 C1184.38162,121.095528 1183.77846,118.834936 1182.6794,116.806008 C1183.23313,117.828487 1187.04337,119.147815 1188.16402,119.563403 C1191.11728,110.275336 1175.85658,108.764706 1169.98302,108.593193 Z" id="Path" fill="#71D0FF" fill-rule="nonzero" mask="url(#mask-2)"></path>
        <path d="M1418.30735,214.812269 C1416.13329,213.67691 1413.82254,212.825581 1411.4318,212.27916 L1409.71785,211.797605 C1407.85888,211.250084 1405.98672,210.61021 1404.15412,209.891176 C1402.09211,209.071475 1400.0724,208.14899 1398.10257,207.127185 C1390.6439,203.252271 1384.00458,197.970312 1378.55041,191.572311 L1380.06,190.292563 C1385.35057,196.493683 1391.78805,201.614067 1399.01887,205.372479 C1400.92567,206.352329 1402.88173,207.233052 1404.87925,208.011134 C1406.65252,208.716975 1408.46535,209.330462 1410.27159,209.858193 L1411.95916,210.339748 C1414.51094,210.931021 1416.97663,211.846592 1419.29617,213.06416 L1418.30735,214.812269 Z" id="Path" fill="#51B02B" fill-rule="nonzero" mask="url(#mask-2)"></path>
        <path d="M1387.89141,199.026513 C1387.89141,199.026513 1397.26538,211.33584 1395.63713,231.640294 C1395.63713,231.640294 1382.50567,219.805924 1387.89141,199.026513 Z" id="Path" fill="#66AF37" fill-rule="nonzero" mask="url(#mask-2)"></path>
        <path d="M1425.43341,173.893319 L1417.81954,176.05042 C1417.81954,176.05042 1414.29936,174.731092 1413.50171,179.348739 C1413.29077,180.569118 1411.5966,181.875252 1410.79895,182.699832 C1408.15283,185.305435 1405.84101,188.230431 1403.9168,191.407395 C1401.86007,194.897017 1399.30233,197.891891 1396.8303,201.051681 C1395.89422,202.225882 1395.89422,203.235168 1395.68986,204.679832 C1395.38157,206.304922 1395.21395,207.953597 1395.18887,209.607521 C1395.18887,211.131345 1395.24819,212.800294 1396.26997,213.934916 C1397.29174,215.069538 1399.05183,215.34 1400.62735,215.326807 C1404.06842,215.293824 1408.14893,214.57479 1410.55505,212.114244 C1409.6717,211.744832 1408.41261,211.520546 1407.49631,211.157731 C1406.8371,210.880672 1406.76459,210.68937 1406.74481,209.779034 C1406.74481,209.462395 1406.59979,209.165546 1406.88325,209.027017 C1407.36447,208.782941 1408.20167,209.11937 1408.97953,209.376639 C1409.7574,209.633908 1410.95716,209.983529 1410.95716,209.983529 C1411.04757,209.172983 1410.95521,208.352466 1410.68689,207.582353 C1410.1589,206.357707 1409.49555,205.196061 1408.70926,204.119118 C1408.26309,203.56866 1407.89282,202.960733 1407.60838,202.311639 C1407.32245,201.658096 1407.30822,200.917548 1407.56883,200.253487 C1407.87359,199.69324 1408.30749,199.213813 1408.83451,198.855 C1410.9937,197.050956 1412.99407,195.064665 1414.81354,192.918025 L1420.3575,186.717185 L1428.88108,185.239538" id="Path" fill="#DBA258" fill-rule="nonzero" mask="url(#mask-2)"></path>
        <path d="M1462.77765,148.410504 C1462.66558,147.975126 1462.54692,147.539748 1462.43486,147.091176 C1462.00637,145.45521 1462.02615,144.023739 1461.11644,142.473529 C1459.6127,139.826284 1456.80916,138.185774 1453.76625,138.172521 C1448.89469,138.172521 1444.94602,142.130504 1444.94602,148.417101 L1444.94602,148.509454 L1439.47458,147.539748 L1444.00335,158.905756 L1441.51813,174.731092 L1457.88631,174.968571 L1455.82298,169.097563 C1455.10445,167.072395 1451.99957,161.696134 1455.3088,160.700042 C1456.3108,160.39 1457.3919,160.594496 1458.44664,160.634076 C1459.50137,160.673655 1460.67477,160.482353 1461.3142,159.651176 C1461.73204,158.98357 1461.92817,158.200822 1461.87453,157.414916 C1461.87453,156.610126 1461.53174,154.901597 1462.10525,154.222143 C1462.3257,154.0094 1462.59871,153.85914 1462.89631,153.786765 L1463.8192,153.470126 C1463.9342,153.443685 1464.03661,153.378469 1464.10925,153.28542 C1464.14895,153.172265 1464.14895,153.048954 1464.10925,152.935798 C1463.72032,151.372395 1463.18636,149.914538 1462.77765,148.410504 Z" id="Path" fill="#DBA258" fill-rule="nonzero" mask="url(#mask-2)"></path>
        <path d="M1444.86032,159.50605 C1444.49781,160.109843 1444.0784,160.677542 1443.60783,161.201387 C1443.99676,160.752815 1439.82396,156.029622 1439.44162,155.198445 C1438.23149,152.743504 1437.68382,150.014608 1437.85292,147.282479 C1438.40007,139.742521 1443.93084,140.402185 1443.93084,140.402185 C1443.93084,140.402185 1444.36592,137.189622 1448.43983,136.068193 C1452.51375,134.946765 1461.14281,136.147353 1463.21932,141.906218 C1463.72032,143.284916 1460.93186,144.036933 1460.16718,144.228235 C1458.07748,144.742773 1455.83617,144.294202 1453.84535,145.151765 C1451.83769,146.007943 1450.35358,147.764658 1449.84395,149.888151 C1449.75886,150.676159 1449.57275,151.449926 1449.29021,152.190378 C1448.92765,152.896218 1448.09045,153.456933 1447.35873,153.160084 C1447.27445,152.151602 1446.98029,151.171912 1446.49517,150.28395 C1445.98271,149.385712 1444.99306,148.869917 1443.9638,148.964622 C1442.81343,149.270907 1442.0402,150.348645 1442.11801,151.537311 C1442.23209,152.695649 1442.7725,153.77016 1443.63419,154.551975 C1444.31767,155.094289 1444.88679,155.766946 1445.30859,156.530966 C1445.64619,157.537074 1445.47937,158.644282 1444.86032,159.50605 L1444.86032,159.50605 Z" id="Path" fill="#000000" fill-rule="nonzero" mask="url(#mask-2)"></path>
        <path d="M1470.68817,190.035294 L1470.68817,190.035294 C1473.33084,190.599576 1475.02349,193.191849 1474.47862,195.840336 L1472.50099,207.575756 C1472.28235,208.662989 1472.4356,209.792215 1472.93607,210.781723 L1478.6712,219.18584 C1479.30308,220.428976 1479.37737,221.882233 1478.87555,223.183403 C1477.55713,226.541092 1474.92029,232.966218 1473.28545,234.397689 C1471.02436,236.376681 1467.86675,228.70479 1468.81601,223.440672 C1469.11925,221.778319 1464.01037,211.012605 1464.01037,211.012605 C1462.31677,209.863911 1461.51082,207.785909 1461.9866,205.794664 L1464.87393,193.722815 C1465.48598,191.114914 1468.07016,189.47597 1470.68817,190.035294 Z" id="Path" fill="#DBA258" fill-rule="nonzero" mask="url(#mask-2)"></path>
        <path d="M1440.51613,249.715084 C1440.32496,250.486891 1435.33474,256.351303 1435.33474,256.351303 L1396.61276,258.330294 L1397.38403,251.733655 L1425.80916,241.581429 L1440.51613,249.715084 Z" id="Path" fill="#DBA258" fill-rule="nonzero" mask="url(#mask-2)"></path>
        <polygon id="Path" fill="#DBA258" fill-rule="nonzero" mask="url(#mask-2)" points="1465.76387 247.538193 1479.55454 278.021261 1484.90073 277.546303 1478.90851 243.487857 1466.53514 240.756849"></polygon>
        <polyline id="Path" fill="#FFFEFD" fill-rule="nonzero" mask="url(#mask-2)" points="1431.18831 214.891429 1421.18151 242.333445 1442.07187 251.826008 1450.27244 234.516429 1460.52315 250.414328 1479.62046 243.487857 1466.42308 214.383487 1429.89626 214.766092"></polyline>
        <path d="M1418.84131,174.368277 L1442.98158,168.840294 L1443.17934,169.335042 C1444.22808,171.974633 1446.79003,173.69794 1449.62854,173.673114 C1452.46704,173.648287 1454.9985,171.880431 1456.00097,169.222899 L1456.00097,169.222899 L1461.59107,170.278361 C1468.75894,171.632048 1474.23335,177.462117 1475.13783,184.70521 L1476.9177,198.93416 L1466.91749,199.270588 L1466.66699,215.194874 L1429.86989,215.082731 L1430.66095,189.837395 L1423.50193,191.427185 L1418.84131,174.368277 Z" id="Path" fill="#E6FFFD" fill-rule="nonzero" mask="url(#mask-2)"></path>
        <path d="M1420.5223,211.988908 C1419.99261,211.93456 1419.45744,211.995314 1418.95338,212.167017 C1415.65733,213.545714 1417.23943,221.765126 1418.72925,223.975 C1420.04767,225.953992 1422.3549,227.101807 1424.04248,228.816933 C1425.16093,230.089941 1426.19586,231.434069 1427.14076,232.840882 C1427.28579,233.032185 1427.47037,233.243277 1427.71428,233.230084 C1427.92915,233.186207 1428.11302,233.048206 1428.21528,232.854076 C1430.03954,230.152407 1429.87056,226.571762 1427.79997,224.05416 L1434.39207,225.452647 C1435.27541,225.64395 1436.56087,225.558193 1436.63998,224.66105 C1436.62414,224.268252 1436.46461,223.894975 1436.19172,223.612185 C1435.03151,222.094958 1433.80098,220.632703 1432.50014,219.22542 C1434.98425,219.806937 1437.59369,219.493963 1439.87011,218.341471 C1440.12845,218.24778 1440.33933,218.055725 1440.4568,217.807143 C1440.63479,217.305798 1440.09424,216.87042 1439.63279,216.619748 C1433.71968,213.473151 1427.16054,212.213193 1420.5223,211.988908 Z" id="Path" fill="#71D0FF" fill-rule="nonzero" mask="url(#mask-2)"></path>
        <polygon id="Rectangle" fill="#7FCFF7" fill-rule="nonzero" mask="url(#mask-2)" transform="translate(1466.402771, 191.327584) rotate(-3.680000) translate(-1466.402771, -191.327584) " points="1465.4143 183.372104 1467.39194 183.372017 1467.39124 199.283064 1465.4136 199.283151"></polygon>
        <path d="M1359.77611,27.2698319 C1360.29947,27.2709561 1360.81758,27.1654674 1361.29889,26.9597899 C1362.06786,26.5295421 1362.61521,25.7896197 1362.80189,24.9280252 C1362.95917,24.2603446 1362.99269,23.5694501 1362.90077,22.8896639 C1362.92853,22.2728356 1363.27588,21.7151952 1363.81707,21.4186134 C1364.40677,21.1198258 1364.97116,20.7734558 1365.50465,20.3829412 C1364.91367,19.7413897 1364.48427,18.9679391 1364.25215,18.1268908 C1364.14008,17.6981092 1364.07416,17.2627311 1363.99506,16.807563 C1363.92367,16.2941168 1363.77707,15.7939982 1363.55998,15.3233193 C1363.33585,14.8879412 1363.4611,14.9605042 1363.42154,14.9605042 L1360.35622,14.9605042 L1357.15905,14.9605042 L1348.89256,14.9605042 C1347.82947,14.9605042 1346.96767,15.8229016 1346.96767,16.8867227 L1346.96767,18.6414286 L1346.96767,18.6414286 C1347.1553,21.5421512 1349.56069,23.7991163 1352.46548,23.8 C1352.79064,23.7991769 1353.11504,23.768261 1353.43452,23.7076471 C1352.17146,25.8643484 1350.07493,27.4038151 1347.64006,27.962479 L1343.86279,41.690084 C1345.4301,43.5907393 1347.70873,44.7637913 1350.16532,44.9346612 C1352.62191,45.105531 1355.04081,44.2592191 1356.85581,42.5938235 L1357.18542,42.2837815 C1357.04699,39.8298319 1354.87159,28.5165966 1358.04898,27.4479412 C1358.61444,27.3133106 1359.1951,27.2534308 1359.77611,27.2698319 Z" id="Path" fill="#DBA258" fill-rule="nonzero" mask="url(#mask-2)"></path>
        <path d="M1372.50546,23.8461765 C1369.6032,23.8418193 1367.2017,21.5857932 1367.01424,18.687605 L1367.01424,18.687605 L1367.01424,15.712521 L1367.01424,15.712521 C1367.01424,15.6333613 1367.01424,15.5542017 1367.01424,15.475042 C1367.01424,7.29964976 1360.39133,0.672136016 1352.22157,0.672136016 C1351.69958,0.670786199 1351.17795,0.699418874 1350.65924,0.757941176 C1338.97145,1.50995798 1336.53238,14.0171849 1336.53238,18.9316807 C1336.53238,23.9994038 1340.63775,28.107605 1345.70198,28.107605 L1350.08573,28.107605 C1353.1073,28.03624 1355.87944,26.4136792 1357.42273,23.8131933 L1357.42273,23.7604202 C1357.10326,23.8210341 1356.77886,23.85195 1356.4537,23.8527731 C1353.5489,23.8518894 1351.14352,21.5949243 1350.95589,18.6942017 L1350.95589,18.6942017 L1350.95589,16.9394958 C1350.95589,15.8756747 1351.81769,15.0132773 1352.88078,15.0132773 L1357.19201,15.0132773 L1360.38918,15.0132773 L1362.71619,15.0132773 C1362.95351,15.0132773 1363.44132,15.0132773 1363.44132,15.0132773 C1363.48128,15.1299014 1363.53204,15.2425339 1363.59294,15.3497059 C1363.81003,15.8203848 1363.95663,16.3205033 1364.02802,16.8339496 C1364.10712,17.2693277 1364.17304,17.7047059 1364.28511,18.1532773 C1364.51724,18.9943256 1364.94663,19.7677762 1365.53761,20.4093277 C1365.00412,20.7998424 1364.43973,21.1462123 1363.85003,21.445 C1363.30884,21.7415817 1362.96149,22.2992222 1362.93373,22.9160504 C1363.02565,23.5958366 1362.99213,24.2867311 1362.83485,24.9544118 C1362.64817,25.8160062 1362.10082,26.5559286 1361.33185,26.9861765 L1361.33185,26.9861765 L1361.46369,27.0653361 C1365.72618,29.3094838 1370.99727,27.8683016 1373.52723,23.7670168 C1373.19012,23.8273878 1372.84783,23.853906 1372.50546,23.8461765 L1372.50546,23.8461765 Z" id="Path" fill="#000000" fill-rule="nonzero" mask="url(#mask-2)"></path>
        <path d="M1362.88758,23.0545798 L1360.25075,23.0545798 C1360.70373,24.0742208 1361.78713,24.6596619 1362.88758,24.4794538 L1362.88758,23.0545798 Z" id="Path" fill="#FFFEFD" fill-rule="nonzero" mask="url(#mask-2)"></path>
        <ellipse id="Oval" fill="#000000" fill-rule="nonzero" mask="url(#mask-2)" cx="1359.27511" cy="17.7640756" rx="1" ry="1"></ellipse>
        <path d="M1461.9009,155.917479 L1458.55211,155.917479 C1458.55211,155.917479 1459.27065,157.949244 1461.94045,157.738151 L1461.9009,155.917479 Z" id="Path" fill="#FFFEFD" fill-rule="nonzero" mask="url(#mask-2)"></path>
        <ellipse id="Oval" fill="#000000" fill-rule="nonzero" mask="url(#mask-2)" cx="1457.84676" cy="150.996387" rx="1" ry="1.14121849"></ellipse>
        <path d="M1398.81452,251.252101 L1388.16828,249.662311 L1386.80372,278.548992 C1386.79462,278.699398 1386.86508,278.843545 1386.98932,278.928681 C1387.11356,279.013817 1387.27334,279.027446 1387.41019,278.96458 L1394.12754,276.60958 L1400.60098,257.941092 L1399.3287,251.575336" id="Path" fill="#000000" fill-rule="nonzero" mask="url(#mask-2)"></path>
        <path d="M1478.53276,276.451261 L1479.13264,287.724916 L1508.13787,280.217941 C1508.28287,280.181603 1508.39847,280.072278 1508.4429,279.92946 C1508.48733,279.786642 1508.45418,279.630976 1508.35541,279.518697 L1505.01981,273.542143 L1484.45906,272.882479 L1478.72393,275.916933" id="Path" fill="#000000" fill-rule="nonzero" mask="url(#mask-2)"></path>
    </g>
</svg>