<?xml version="1.0" encoding="UTF-8"?>
<svg viewBox="0 0 32 32" version="1.1" xmlns="http://www.w3.org/2000/svg" xmlns:xlink="http://www.w3.org/1999/xlink">
    <title>icon color</title>
    <defs>
        <path d="M22.778257,1.75859327e-13 C24.0075194,-0.00598538392 25.1246616,0.283291754 26.2697071,0.734685677 C28.0240567,1.42570847 29.6698376,2.99824129 30.5987602,4.37015458 C31.3059792,5.414288 31.6068263,6.61851174 31.9847877,7.79081874 C32.0522627,8.00207718 31.9939197,8.25386481 31.9939197,8.48690769 L31.9939197,16.0770129 C31.9939197,18.4403717 31.9776851,20.804237 32.0015296,23.1670892 C32.0121836,24.2355401 31.6839406,25.1996284 31.3247504,26.1849945 C30.7408128,27.7869109 29.6500517,29.0022802 28.3989741,30.0514798 C27.3274917,30.9502147 26.0434376,31.5115441 24.6442194,31.8205792 C24.1637772,31.9264617 23.701599,31.9877621 23.2231861,31.9882687 C18.5663973,31.9918151 13.9101159,31.9771232 9.25332721,32 C8.02406486,32.0054937 6.9069226,31.7162165 5.76187715,31.2653292 C4.00904949,30.574813 2.36225396,29.0017736 1.43282407,27.6293537 C0.725605033,26.5852203 0.427801897,25.3804899 0.0457818601,24.2091961 C-0.0130685041,24.0283346 0.0376645685,23.81201 0.0376645685,23.6129103 C0.0376645685,18.5528402 0.0422305451,13.49277 0.0325912613,8.4332065 C0.0310692691,7.65808563 0.28321264,6.94477177 0.52064342,6.23601745 C1.08327319,4.55760211 2.17606358,3.23685693 3.47178625,2.06657639 C4.27590545,1.34009055 6.18296165,0.464659907 7.28894264,0.188048143 C7.90027616,0.0350504273 8.49638976,0.0107329095 9.10721596,0.0102262946 L18.2212809,0.012375012 C19.7403043,0.0110851676 21.2593088,0.00763055613 22.778257,1.75859327e-13 Z M8.62626643,3.41011924 C8.43601741,3.41062586 8.23359245,3.42025154 8.05754869,3.4830718 C6.57411364,4.01096458 5.21700395,4.73491735 4.39309885,6.15546568 C3.94258917,6.93109317 3.43322912,7.70013467 3.43322912,8.65459724 C3.43221446,13.5515374 3.43221446,18.4489841 3.43424378,23.3459243 C3.43424378,23.5404644 3.40938457,23.7532427 3.47533757,23.9280248 C4.04354798,25.4245654 4.76142096,26.8324484 6.21543082,27.6648167 C7.10934756,28.1770045 8.01544024,28.6365042 9.12547986,28.609147 C11.4211514,28.5534194 13.7193596,28.5924287 16.0160458,28.5924287 C18.4456526,28.5924287 20.8757668,28.5944552 23.305881,28.589389 C23.5296138,28.5888824 23.7670446,28.5873626 23.9735282,28.5149166 C25.4584853,27.9910768 26.8145803,27.2645909 27.6384854,25.8445492 C28.0889951,25.0684151 28.5983551,24.2993736 28.5983551,23.3454176 C28.5993698,18.4484775 28.5993698,13.5515374 28.5973405,8.65459724 C28.5973405,8.45904387 28.6221997,8.24626559 28.5562467,8.07199004 C27.9880363,6.57494286 27.2701633,5.1670599 25.8151388,4.33621138 C25.0678406,3.90913497 24.3205424,3.41062586 23.4053178,3.40961263 C18.4786291,3.40454648 13.5524478,3.40656849 8.62626643,3.41011924 Z M15.748581,7.58265066 C18.3202405,7.69055964 20.3688419,8.49050466 21.9588164,10.1050865 C23.5452396,11.7156154 24.3564615,13.7598068 24.4051652,16.0623717 C24.4254584,16.9940366 24.2067989,17.9074634 23.9064591,18.7519905 C23.4894332,19.9248041 22.8512112,21.0373306 21.9542505,21.9254266 C21.0598264,22.8120028 19.9675433,23.4731353 18.7864774,23.8875463 C17.8717601,24.2082336 16.9022511,24.4422897 15.9038242,24.3951745 C13.6477245,24.2887854 11.6346362,23.482761 10.0725649,21.8950297 C8.48664901,20.2834875 7.6723832,18.2398028 7.6277381,15.9372379 C7.62266479,15.671265 7.53895522,15.3627365 7.64346535,15.1469185 C7.97576697,14.459442 7.85705158,13.6635499 8.22283704,12.9907653 C8.54702137,12.3949861 8.80119406,11.7581711 9.16089155,11.1872161 C9.45108472,10.7282229 9.80621623,10.2849348 10.2161395,9.93283743 C11.0461325,9.21952357 11.9796211,8.64755529 12.9866726,8.20578705 C13.1551064,8.13131465 13.3245548,8.0446835 13.5021206,8.00922045 C14.3382016,7.8415309 15.1768193,7.69005303 15.748581,7.58265066 Z M16.072258,11.0296588 C13.288027,10.9992619 11.0948363,13.2344471 11.0481619,15.9184931 C10.9999654,18.7084216 13.2768657,20.9729905 16.009349,20.9714714 C18.7697355,20.9699508 20.8741434,18.7352722 21.0090933,16.0314682 C20.9071199,13.2663638 18.7758235,11.0590425 16.072258,11.0296588 Z M25.1428748,5.84561997 C25.9038709,6.11260605 26.6562424,7.33709439 26.3827911,8.08181837 C25.9617066,9.2313277 25.6192584,9.96845246 23.5011526,9.79873645 C21.7386856,8.34677799 22.0501867,7.64967582 22.6158605,6.5477883 C22.9557721,5.88513594 24.2941105,5.54773038 25.1428748,5.84561997 Z" id="path-1"></path>
    </defs>
    <g id="Symbols" stroke="none" stroke-width="1" fill="none" fill-rule="evenodd">
        <g id="icon/Social/Instagram">
            <mask id="mask-2" fill="white">
                <use xlink:href="#path-1"></use>
            </mask>
            <use id="Combined-Shape" fill="#FF9100" xlink:href="#path-1"></use>
            <g id="Group" mask="url(#mask-2)" fill="#000000">
                <g id="icon-color">
                    <rect id="Rectangle" x="0" y="0" width="32" height="32"></rect>
                </g>
            </g>
        </g>
    </g>
</svg>