<?xml version="1.0" encoding="UTF-8"?>
<svg viewBox="0 0 176 33" version="1.1" xmlns="http://www.w3.org/2000/svg" xmlns:xlink="http://www.w3.org/1999/xlink">
    <!-- Generator: Sketch 61.2 (89653) - https://sketch.com -->
    <title>Symbols</title>
    <desc>Created with Sketch.</desc>
    <g id="Symbols" stroke="none" stroke-width="1" fill="none" fill-rule="evenodd">
        <g id="Logo">
            <path d="M141.369153,10.943513 C143.223829,9.06846609 145.247497,8.76672348 147.378896,9.65033043 C149.616971,10.5771478 150.597119,12.4952696 150.789346,14.8229565 C150.873842,15.8358609 150.831594,16.9135652 150.639367,17.9264696 C149.851446,22.107687 145.077449,24.0905043 141.689179,21.3748522 C141.689179,22.883513 141.689179,24.2413913 141.689179,25.6206609 C141.668056,27.0431304 141.390277,27.3233043 140.005606,27.3449043 C139.643332,27.3449043 139.302181,27.3664 138.939907,27.3449043 C137.831959,27.3018087 137.469685,26.9569391 137.447505,25.8362435 C137.426381,20.8792 137.426381,15.9221565 137.447505,10.965113 C137.447505,9.86591304 137.853083,9.47794783 138.939907,9.47794783 C139.962302,9.49954783 141.155802,9.19777391 141.369153,10.943513 Z M141.518076,15.9005565 C141.624752,17.9911652 142.882679,19.3705391 144.501824,19.0471652 C145.716447,18.8101913 146.505424,17.8186783 146.590975,16.4178087 C146.697651,14.6936696 146.036474,13.3573913 144.864098,12.9479304 C143.777275,12.5814609 142.583776,13.0125217 142.072578,14.0686261 C141.795855,14.6505739 141.689179,15.297113 141.518076,15.9005565 Z" id="Shape" fill="#66AF37"></path>
            <path d="M85.1710817,10.8788174 C86.9398896,9.09000348 88.9645077,8.76671304 91.1169253,9.65033043 C93.3546833,10.5771478 94.3349369,12.4952696 94.5267417,14.8229565 C94.6119766,15.8358609 94.5694119,16.9135652 94.3776071,17.9264696 C93.6103879,22.086087 88.8579378,24.0905043 85.4267863,21.3964522 C85.4267863,22.8620174 85.4267863,24.1981913 85.4267863,25.5344696 C85.4267863,27.0862261 85.1710817,27.3449043 83.6366432,27.3664 C83.3809387,27.3664 83.1464636,27.3664 82.8907591,27.3664 C81.5267903,27.3449043 81.2070804,27.0216348 81.2070804,25.6422609 C81.2070804,21.2670609 81.2070804,16.8919652 81.2070804,12.5168696 C81.2070804,11.9349217 81.1858509,11.3745739 81.2070804,10.7926261 C81.2497506,9.9736 81.6759248,9.58573913 82.4858143,9.52104348 C84.2972925,9.37015652 84.7022372,9.54264348 85.1710817,10.8788174 Z M90.456276,16.0729391 C90.3283709,14.1332174 89.3694525,12.8832348 87.8989137,12.8616348 C86.4071454,12.8401391 85.4054511,14.0039304 85.3628865,15.8143652 C85.3202163,17.754087 86.3219106,19.2196522 87.7710086,19.0687652 C88.4743282,19.0040696 89.2628825,18.4868174 89.7742916,17.9480696 C90.2005715,17.473913 90.2644712,16.6979826 90.456276,16.0729391 Z" id="Shape" fill="#66AF37"></path>
            <path d="M100.536485,21.4395478 C100.536485,22.905113 100.536485,24.284487 100.536485,25.6637565 C100.536485,27.0216348 100.23811,27.3233043 98.9381468,27.3449043 C98.7889066,27.3449043 98.6611071,27.3449043 98.5118669,27.3449043 C96.4872488,27.3449043 96.3167791,27.1724174 96.3167791,25.1681043 C96.3167791,20.5343304 96.3167791,15.9221565 96.3167791,11.2883826 C96.3167791,10.4477565 96.3594494,9.67193043 97.4037083,9.49954783 C99.1299516,9.21926957 99.8545006,9.54264348 100.174211,10.6202435 C101.175799,10.1675826 102.134823,9.47794783 103.179082,9.30556522 C106.07749,8.7882713 108.506735,10.3184696 109.295712,13.2065043 C109.657987,14.5211826 109.764662,15.9867478 109.614683,17.3445217 C109.082361,21.7197217 104.372581,24.262887 100.536485,21.4395478 Z M100.366015,15.8143652 C100.429915,17.9695652 101.708649,19.3705391 103.349552,19.0256696 C104.564386,18.7669913 105.352835,17.732487 105.43807,16.2669217 C105.523305,14.6505739 104.820091,13.3142957 103.669262,12.9263304 C102.561103,12.5814609 101.410274,13.0125217 100.877424,14.0901217 C100.62172,14.6289739 100.51515,15.2540174 100.366015,15.8143652 Z" id="Shape" fill="#66AF37"></path>
            <path d="M56.4645763,16.7841739 C56.4645763,18.2066435 56.4858058,19.4567304 56.4645763,20.6852174 C56.4432412,21.9998957 56.1235313,22.3231652 54.8022327,22.3446609 C54.5890928,22.3446609 54.3760585,22.3446609 54.1629185,22.3446609 C52.4580103,22.3662609 52.1809707,22.1075826 52.1809707,20.4049391 C52.1809707,15.6849739 52.1809707,10.9866087 52.1809707,6.28817043 C52.1809707,4.82260522 52.4793455,4.52087304 53.907214,4.52087304 C55.7825919,4.52087304 57.6793049,4.49932522 59.5546828,4.52087304 C63.0071695,4.56397913 65.2022572,6.97784696 65.2022572,10.6848348 C65.2022572,14.3918957 62.9644992,16.7841739 59.5121182,16.8057739 C58.5743236,16.8057739 57.6154052,16.7841739 56.4645763,16.7841739 Z M56.4858058,13.098713 C57.359595,13.098713 58.0842497,13.1634087 58.8301338,13.0772174 C60.0235273,12.9694261 60.6841766,12.279687 60.8546463,11.0728 C60.9825514,10.1029913 60.8759814,9.00377043 59.9382924,8.63738435 C58.9579333,8.27098783 57.80721,8.3572 56.741616,8.29254609 C56.6776106,8.29254609 56.5071409,8.57272 56.5071409,8.72358609 C56.4645763,10.1675826 56.4858058,11.5900522 56.4858058,13.098713 Z" id="Shape" fill="#66AF37"></path>
            <path d="M134.528185,5.36142609 C135.529457,5.79247652 135.679436,6.48215304 135.210486,7.49512 C135.061563,7.8184 134.869335,8.12013217 134.720412,8.44342261 C134.314834,9.32706087 133.69696,9.41325217 132.886859,9.06844522 C132.16231,8.76671304 131.437761,8.44342261 130.692088,8.29255652 C130.202015,8.18479652 129.605265,8.20634435 129.136315,8.3787687 C128.752916,8.50807652 128.241719,8.89602087 128.198415,9.21926957 C128.135043,9.60723478 128.390642,10.2106783 128.710669,10.4908522 C129.179619,10.9004174 129.797492,11.1589913 130.350938,11.4391652 C131.332142,11.9133217 132.375662,12.301287 133.334686,12.8401391 C135.10381,13.8315478 136.020587,15.3402087 135.870607,17.4308174 C135.721684,19.4998261 134.783784,21.1162783 132.90904,21.9352 C129.818616,23.2929739 126.877116,22.7111304 124.1289,20.9006957 C123.446598,20.4481391 123.38217,19.8230957 123.787749,19.1118609 C123.915548,18.8963826 124.064472,18.6808 124.192271,18.4868174 C125.193543,17.0212522 125.364646,17.0428522 126.962668,17.754087 C127.942816,18.1851478 129.029639,18.4653217 130.074215,18.551513 C130.543165,18.5946087 131.288838,18.0342609 131.459941,17.5816 C131.587741,17.2368348 131.075487,16.5256 130.670965,16.1591304 C130.244262,15.7712696 129.626389,15.577287 129.094067,15.297113 C128.326214,14.9306435 127.51717,14.6289739 126.792621,14.219513 C124.405622,12.9047304 123.425474,11.0082087 123.872244,8.68050087 C124.320071,6.37439304 126.195871,4.67174957 128.689545,4.3269113 C129.179619,4.26225739 129.669693,4.26225739 130.180891,4.2191513 C131.24659,4.26225739 133.164638,4.77952 134.528185,5.36142609 Z" id="Path" fill="#66AF37"></path>
            <path d="M159.420563,9.19777391 C163.405582,9.24086957 166.197103,11.5685565 166.623805,15.0815304 C167.092755,18.9609739 164.492406,22.2153739 160.570758,22.5818435 C158.013712,22.8189217 155.647838,22.3231652 153.878713,20.2972522 C152.088465,18.2497391 151.811742,15.8359652 152.79189,13.3573913 C153.773094,10.8573217 155.796761,9.65033043 158.354863,9.26246957 C158.738261,9.21937391 159.142784,9.21937391 159.420563,9.19777391 Z M162.361007,16.0298435 C162.38213,14.1764174 161.209755,12.8185391 159.548362,12.7754435 C157.949285,12.7323478 156.606862,14.1548174 156.564614,15.9005565 C156.543491,17.6893913 157.800361,19.0687652 159.46281,19.0687652 C161.146384,19.0472696 162.339883,17.7971826 162.361007,16.0298435 Z" id="Shape" fill="#66AF37"></path>
            <path d="M116.626754,17.1506435 C117.20238,15.0169391 117.755826,13.0556174 118.224776,11.0728 C118.502555,9.95210435 119.077124,9.47794783 120.249499,9.47794783 C123.212123,9.49944348 123.297675,9.60723478 122.274223,12.4305739 C120.889553,16.1592348 119.52495,19.8877913 118.161404,23.6163478 C116.989029,26.7629565 114.239756,28.2285217 111.34156,27.388 C110.552583,27.1509217 110.084689,26.7414609 110.254736,25.8577391 C110.510335,24.4999652 111.192637,23.7671304 112.151661,24.0042087 C113.089561,24.241287 113.728558,23.9180174 114.28306,23.2283826 C114.857629,22.5171478 114.72983,21.8490087 114.388679,21.0515826 C112.982885,17.8833739 111.640463,14.6936696 110.27586,11.5038609 C109.636863,10.0168 109.955834,9.52104348 111.533787,9.52104348 C114.239756,9.49944348 114.239756,9.49944348 115.070981,12.0858087 C115.561055,13.7022609 116.051129,15.3402087 116.626754,17.1506435 Z" id="Path" fill="#66AF37"></path>
            <path d="M75.2186722,20.6852174 C74.0039435,22.1938783 72.5547399,22.7111304 70.8071614,22.6249391 C68.5481739,22.4955478 66.9924003,21.1808696 66.885936,18.9178783 C66.7580309,16.2023304 66.8219306,13.4651826 66.8219306,10.7495304 C66.8219306,10.5124522 66.8646008,10.2106783 67.0137354,10.0382957 C67.9088597,9.06844522 69.0810237,9.52104348 70.1252827,9.58573913 C70.9564016,9.62883478 71.0416365,10.4477565 71.0416365,11.1589913 C71.0416365,13.0556174 71.0416365,14.9522435 71.0416365,16.8703652 C71.0416365,17.6032 71.0416365,18.5084174 71.8940906,18.6162087 C72.576075,18.7024 73.4498642,18.4653217 74.0252787,18.0773565 C74.9629676,17.4308174 75.0907671,16.2669217 75.1121022,15.1678261 C75.1334373,13.8099478 75.0907671,12.4521739 75.1334373,11.0728 C75.1547724,9.86591304 75.4957118,9.54264348 76.6678758,9.49944348 C79.2891378,9.43485217 79.3743727,9.49944348 79.3743727,12.1289043 C79.3743727,14.9307478 79.3530376,17.732487 79.3743727,20.5127304 C79.3743727,21.4610435 79.2678027,22.2369739 78.1169739,22.3662609 C76.0711263,22.5818435 75.5809467,22.3231652 75.2186722,20.6852174 Z" id="Path" fill="#66AF37"></path>
            <path d="M168.733024,13.1850087 C167.113879,12.7539478 166.9639,12.5168696 167.028327,11.0082087 C167.070575,9.86591304 167.795124,9.69342609 168.818576,9.67193043 C168.818576,8.8960313 168.797452,8.1632487 168.818576,7.40891826 C168.8397,6.50372174 169.266402,6.00801739 170.203246,6.00801739 C170.459901,6.00801739 170.694376,6.00801739 170.949975,6.00801739 C172.675796,6.00801739 172.931395,6.26664348 172.931395,7.96928696 C172.931395,8.50808696 172.931395,9.02534957 172.931395,9.45634783 C173.804868,9.69342609 174.636092,9.77972174 175.276146,10.1675826 C175.573992,10.3400696 175.552868,11.1374957 175.552868,11.6547478 C175.552868,12.7970435 175.382821,12.8832348 173.016947,13.098713 C173.016947,14.499687 172.889147,15.9221565 173.080319,17.3230261 C173.144746,17.7755826 173.954847,18.2928348 174.508293,18.4653217 C175.701792,18.853287 175.915143,19.1549565 175.76622,21.0731826 C175.680668,22.0645913 175.020547,22.2800696 174.23157,22.3231652 C170.8433,22.5171478 168.776328,20.5343304 168.754148,17.1506435 C168.754148,16.1807304 168.754148,15.2109217 168.754148,14.2410087 C168.733024,13.9393391 168.733024,13.5728696 168.733024,13.1850087 Z" id="Path" fill="#66AF37"></path>
            <path d="M20.9967378,2.32790081 C24.1114224,-0.500754423 28.4889538,-0.528486347 31.4352799,1.07996945 C34.6903862,2.82707544 36.0372541,6.34903506 34.3536693,9.67687644 C33.0347382,12.2836459 31.2108371,14.5021999 28.9379449,16.3048534 C27.1700227,17.719124 25.2618896,18.9947611 23.3257144,20.2427762 C22.7083648,20.6309499 22.5119642,20.9915015 22.4558798,21.7125002 C22.2313316,24.7353375 24.6726877,28.8396204 29.0220714,29.8102639 C33.3153708,30.7809074 37.6086702,28.3404353 39.0117278,24.1252456 C39.2081284,23.5151537 39.488761,22.9882419 40.162195,22.8217772 C41.3408097,22.5167835 42.2668341,23.5428804 41.9300117,24.7353375 C41.481126,26.3160729 40.7234602,27.7303435 39.6290773,28.9783585 C34.5500699,34.7742836 25.6547964,34.2196451 21.3334548,27.8690815 C21.2492229,27.7303435 21.1369487,27.59171 20.9967378,27.3976231 C20.8564215,27.6194367 20.7161052,27.7857968 20.6038311,27.9522616 C17.9660744,31.6128129 14.3743565,33.4154664 9.82848776,32.8885546 C5.00202859,32.3339161 1.83115422,29.5884504 0.175568368,25.0958891 C0.119446063,24.9294243 0.0633248124,24.7907909 0.0352640817,24.6244307 C-0.133101146,23.7924207 0.315872021,23.0436953 1.07350943,22.8495039 C1.85921748,22.655417 2.61686227,23.0159686 2.89746325,23.8478741 C3.34644379,25.1790692 3.96378282,26.4269796 4.97396533,27.4253498 C7.41525818,29.8379906 10.305521,30.6977274 13.6166906,29.6716305 C16.8717969,28.6455336 18.8360144,26.3437996 19.4814061,23.0159686 C19.5936802,22.3781501 19.565638,21.7125002 19.5094483,21.0469549 C19.4814061,20.8528681 19.2288157,20.6309499 19.032415,20.4923164 C16.2824895,18.9115811 13.7570069,17.1090321 11.5121569,14.8904782 C9.99685678,13.3651962 8.73411547,11.6735541 7.72392242,9.76006698 C5.95609512,6.48769991 7.27495241,3.07666799 10.1652153,1.30182484 C13.4763743,-0.722610863 17.8819478,-0.362094801 20.8283794,2.21697311 C20.8564215,2.24471027 20.9125059,2.27243696 20.9967378,2.32790081 Z M9.63206602,6.87594685 C9.688182,7.23645664 9.71624526,7.59697688 9.8004245,7.95749713 C9.96879352,8.65079001 10.5019428,9.01131025 11.091208,8.92810925 C11.7646419,8.81718155 12.1014643,8.37347076 12.1014643,7.62471404 C12.0452745,6.01625197 12.8870669,5.2120314 14.542715,5.32295909 C15.2161489,5.35068579 15.6931822,4.96243885 15.7774141,4.32460982 C15.8615406,3.71450748 15.4406971,3.13213184 14.7952,3.04893084 C14.2901245,2.99346699 13.7570069,3.02120415 13.2519315,3.07666799 C10.9789339,3.29852339 9.63206602,4.74058345 9.63206602,6.87594685 Z" id="Shape" fill="#000000" fill-rule="nonzero"></path>
        </g>
    </g>
</svg>