<?xml version="1.0" encoding="UTF-8"?>
<svg viewBox="0 0 32 32" version="1.1" xmlns="http://www.w3.org/2000/svg" xmlns:xlink="http://www.w3.org/1999/xlink">
    <title>Icon color</title>
    <defs>
        <path d="M9.17209851,20.5369615 C9.35130595,20.0188045 9.23397953,19.6438491 8.9161586,19.201594 C8.52655568,18.6591484 8.3839818,17.9719832 8.17507147,17.325805 C7.87358713,16.3906936 7.92457709,15.4312936 8.02903226,14.5133866 C8.15031906,13.4482299 8.57705059,12.4422767 9.14487086,11.5021052 C9.81467105,10.3929254 10.810708,9.66831523 11.8498141,9.04085951 C12.4220898,8.69474685 13.1270384,8.5171364 13.8240663,8.38000696 C14.550797,8.23680537 15.2666367,8.17962594 15.989407,8.21808291 C17.6978183,8.30714114 19.2191014,8.86527312 20.4884049,10.1075342 C21.157215,10.7613026 21.6562236,11.5076713 22.020579,12.3577726 C22.1888954,12.7514505 22.3383999,13.1678989 22.4022612,13.5894074 C22.4681026,14.0266024 22.4344393,14.4648094 22.5938448,14.9075705 C22.7978047,15.4748107 22.3577068,16.0385088 22.4270136,16.6133392 C22.4992906,17.2134702 22.2700833,17.7528797 22.1755291,18.3140478 C22.0859254,18.8504212 21.8903813,19.3964089 21.6240454,19.8690247 C20.9636511,21.037914 20.1799899,22.1096489 18.9136566,22.6794191 C17.9557384,23.1100359 16.9453451,23.1742995 16.0121792,22.7568391 C15.2210922,22.4031362 14.7176282,21.6921884 14.6141632,20.7434146 C14.5488168,20.1468257 14.7225787,19.5836336 14.8829743,19.0548503 C15.2399041,17.8778649 15.6250516,16.7034094 15.9300012,15.5147857 C16.1052483,14.8311625 16.0369316,14.0599992 15.9666348,13.3399432 C15.906734,12.7170416 14.9557464,12.0678273 14.3235699,11.9934435 C13.1116919,11.8497359 12.105259,12.614321 11.5993197,13.8257154 C11.2488256,14.6656964 10.9206087,15.5972657 11.1443705,16.5050525 C11.3458551,17.322769 11.221598,18.123787 11.314172,18.9242991 C11.4349637,19.9742754 11.0116976,20.9296273 10.8711039,21.9330504 C10.4968474,22.235646 10.9621927,22.8008622 10.5280355,23.0852413 C10.450808,23.9297765 10.0968485,24.7201682 9.98397753,25.5368727 C9.88001741,26.2923496 9.55774104,26.9952012 9.5542757,27.7607984 C9.55081037,28.5258896 9.55378066,29.2909807 9.55378066,29.9234966 C9.34437528,30.2063577 9.19140539,30.4133168 9.05427704,30.5980115 C6.81616421,29.6087567 5.0919114,28.0360693 3.52706409,26.2705911 C2.99439225,25.668942 2.56617557,24.9615363 2.14686976,24.2657689 C1.73647482,23.5851818 1.42508951,22.8550055 1.13647642,22.1010466 C0.836477227,21.317739 0.463210898,20.5764305 0.393409104,19.7222811 C0.0671723526,19.3984329 0.319151877,18.9506117 0.17954829,18.6161374 C0.0226180163,18.2396639 0.00331113718,17.8768528 0.00380618536,17.4927892 C0.00479628173,16.6280136 0.0166774381,15.7627319 0.000835896274,14.8979562 C-0.0184709828,13.8054749 0.300835094,12.7828232 0.527567161,11.7323409 C0.752319036,10.6884368 1.11221906,9.70677219 1.58251484,8.78380508 C2.25181998,7.46918415 3.01864961,6.20415246 4.06320127,5.14203186 C4.96369392,4.2256429 5.86022617,3.3153261 6.93200549,2.59830614 C7.76121119,2.04422226 10.020116,0.745287729 10.8171436,0.660783612 C11.5631812,0.581845635 12.2097142,0.0586285292 12.9879299,0.224094674 C13.7166408,-0.123030021 14.4908962,0.0550864404 15.2453496,0.0302918194 C16.0240604,0.00448517299 16.8077217,-0.0268876128 17.581977,0.0404120729 C18.2488069,0.0980975178 18.9423694,0.196263977 19.5532589,0.45230639 C20.0874159,0.675457979 20.6755331,0.665337726 21.1859278,1.00284818 C21.630481,1.29684154 22.2215686,1.35351496 22.677508,1.63485801 C23.9195838,2.39994917 25.1968081,3.12000521 26.2180925,4.21248657 C27.0502685,5.10155084 27.8893752,5.96733853 28.5765021,6.99960439 C29.5423411,8.45186076 30.157686,10.0503548 30.7631299,11.6660533 C30.8859018,11.9939495 30.7873873,12.332472 30.9304562,12.692247 C31.1458021,13.2341865 31.1477823,13.8768226 31.1779803,14.4804958 C31.2146138,15.210166 31.1601585,15.9448964 31.1923367,16.6755787 C31.2646137,18.32265 30.8146149,19.8604225 30.3071905,21.3916169 C29.8448155,22.7856818 29.1111541,24.029967 28.3012553,25.229217 C27.9982858,25.6780502 27.6398709,26.0929806 27.2690798,26.4866585 C26.8230414,26.9612984 26.3943297,27.4511187 25.9270042,27.9110842 C24.773542,29.0450586 23.4294861,29.8415225 22.0265196,30.5757469 C20.9700868,31.1293248 19.8379116,31.4865697 18.7007859,31.7289498 C17.8849465,31.9025122 17.0285132,32.0522919 16.1582184,31.9824622 C15.3191118,31.9146565 14.4666388,32.017883 13.6275321,31.9510894 C12.9928804,31.9004881 12.3646642,31.7238897 11.7438738,31.5609536 C11.2928849,31.4425466 11.1918951,31.2021906 11.4017955,30.780176 C11.9359525,29.7064171 12.4626838,28.6362003 12.7126831,27.4425164 C12.8582273,26.747255 13.0760485,26.06768 13.2552559,25.3795028 C13.3334735,25.0784252 13.369117,24.7636853 13.4701068,24.472222 C13.564661,24.1999872 13.9537689,24.0977727 14.1963425,24.2470464 C14.3790153,24.3598872 14.5582227,24.4788002 14.735945,24.5997372 C16.2582182,25.627955 17.0295032,25.6785563 18.8428647,25.4128996 C20.1111782,25.227699 21.136423,24.6533746 22.175034,23.991004 C22.8151313,23.5821457 23.2933479,23.0118695 23.7685941,22.4491834 C24.3448302,21.7665723 24.7552252,20.9488558 25.0903728,20.121019 C25.5081935,19.0887532 25.945816,18.043331 25.9260141,16.8830439 C25.9180933,16.4023319 26.1423502,15.968173 26.1369046,15.4687385 C26.1171027,13.6339366 25.7215592,11.9236137 24.7992845,10.338782 C24.5294832,9.8747684 24.2849294,9.40164655 23.8963166,9.02719717 C23.2458233,8.40227152 22.6864188,7.67917941 21.9126585,7.18885313 C20.6596916,6.39491924 19.4359325,5.91370119 17.8790059,5.58327491 C16.8205929,5.35860528 15.7755462,5.38086984 14.7408955,5.45019358 C13.9042641,5.50585497 13.0572366,5.69763377 12.2265458,5.94102587 C11.0745687,6.2775243 9.99041315,6.76633254 9.04833646,7.46766611 C7.37259837,8.71650539 6.18646293,10.3949494 5.53943495,12.4326625 C5.39834622,12.8764356 5.34488102,13.3510755 5.2686436,13.8145831 C5.19191113,14.2836568 5.09933712,14.7552606 5.077555,15.2283825 C4.99339681,17.0469921 5.60923675,18.6879912 6.45923447,20.2237396 C6.78299598,20.8086903 7.36220236,21.2514514 7.8537852,21.7276093 C8.06863611,21.9360865 8.35526901,22.0666378 8.60873368,22.2321039 C9.0097227,21.6997786 8.98348515,21.0819371 9.17209851,20.5369615 Z" id="path-1"></path>
    </defs>
    <g id="Symbols" stroke="none" stroke-width="1" fill="none" fill-rule="evenodd">
        <g id="icon/Social/Pintarest">
            <mask id="mask-2" fill="white">
                <use xlink:href="#path-1"></use>
            </mask>
            <use id="Fill-3" fill="#FF9100" xlink:href="#path-1"></use>
            <g id="Group" mask="url(#mask-2)" fill="#000000">
                <g id="icon-color">
                    <rect id="Rectangle" x="0" y="0" width="32" height="32"></rect>
                </g>
            </g>
        </g>
    </g>
</svg>