<?xml version="1.0" encoding="UTF-8"?>
<svg viewBox="0 0 124 72" version="1.1" xmlns="http://www.w3.org/2000/svg" xmlns:xlink="http://www.w3.org/1999/xlink">
    <title>Group</title>
    <defs>
        <rect id="path-1" x="0" y="0" width="1439.62316" height="711.848511"></rect>
        <path d="M20.9967378,2.32790081 C24.1114224,-0.500754423 28.4889538,-0.528486347 31.4352799,1.07996945 C34.6903862,2.82707544 36.0372541,6.34903506 34.3536693,9.67687644 C33.0347382,12.2836459 31.2108371,14.5021999 28.9379449,16.3048534 C27.1700227,17.719124 25.2618896,18.9947611 23.3257144,20.2427762 C22.7083648,20.6309499 22.5119642,20.9915015 22.4558798,21.7125002 C22.2313316,24.7353375 24.6726877,28.8396204 29.0220714,29.8102639 C33.3153708,30.7809074 37.6086702,28.3404353 39.0117278,24.1252456 C39.2081284,23.5151537 39.488761,22.9882419 40.162195,22.8217772 C41.3408097,22.5167835 42.2668341,23.5428804 41.9300117,24.7353375 C41.481126,26.3160729 40.7234602,27.7303435 39.6290773,28.9783585 C34.5500699,34.7742836 25.6547964,34.2196451 21.3334548,27.8690815 C21.2492229,27.7303435 21.1369487,27.59171 20.9967378,27.3976231 C20.8564215,27.6194367 20.7161052,27.7857968 20.6038311,27.9522616 C17.9660744,31.6128129 14.3743565,33.4154664 9.82848776,32.8885546 C5.00202859,32.3339161 1.83115422,29.5884504 0.175568368,25.0958891 C0.119446063,24.9294243 0.0633248124,24.7907909 0.0352640817,24.6244307 C-0.133101146,23.7924207 0.315872021,23.0436953 1.07350943,22.8495039 C1.85921748,22.655417 2.61686227,23.0159686 2.89746325,23.8478741 C3.34644379,25.1790692 3.96378282,26.4269796 4.97396533,27.4253498 C7.41525818,29.8379906 10.305521,30.6977274 13.6166906,29.6716305 C16.8717969,28.6455336 18.8360144,26.3437996 19.4814061,23.0159686 C19.5936802,22.3781501 19.565638,21.7125002 19.5094483,21.0469549 C19.4814061,20.8528681 19.2288157,20.6309499 19.032415,20.4923164 C16.2824895,18.9115811 13.7570069,17.1090321 11.5121569,14.8904782 C9.99685678,13.3651962 8.73411547,11.6735541 7.72392242,9.76006698 C5.95609512,6.48769991 7.27495241,3.07666799 10.1652153,1.30182484 C13.4763743,-0.722610863 17.8819478,-0.362094801 20.8283794,2.21697311 C20.8564215,2.24471027 20.9125059,2.27243696 20.9967378,2.32790081 Z" id="path-3"></path>
        <path d="M9.63206602,6.87594685 C9.688182,7.23645664 9.71624526,7.59697688 9.8004245,7.95749713 C9.96879352,8.65079001 10.5019428,9.01131025 11.091208,8.92810925 C11.7646419,8.81718155 12.1014643,8.37347076 12.1014643,7.62471404 C12.0452745,6.01625197 12.8870669,5.2120314 14.542715,5.32295909 C15.2161489,5.35068579 15.6931822,4.96243885 15.7774141,4.32460982 C15.8615406,3.71450748 15.4406971,3.13213184 14.7952,3.04893084 C14.2901245,2.99346699 13.7570069,3.02120415 13.2519315,3.07666799 C10.9789339,3.29852339 9.63206602,4.74058345 9.63206602,6.87594685 Z" id="path-5"></path>
        <path d="M68.0685287,5.25879652 C71.0311526,5.28029217 71.1167043,5.38808348 70.0932524,8.21142261 C68.7085822,11.9400835 67.3439796,15.66864 65.9804333,19.3971965 C64.8080581,22.5438052 62.0587853,24.0093704 59.1605893,23.1688487 C58.3716124,22.9317704 57.9037185,22.5223096 58.0737657,21.6385878 C58.3293647,20.2808139 59.0116659,19.5479791 59.97069,19.7850574 C60.9085902,20.0221357 61.5475875,19.6988661 62.1020893,19.0092313 C62.6766588,18.2979965 62.5488593,17.6298574 62.2077087,16.8324313 C60.8019146,13.6642226 59.4594921,10.4745183 58.0948896,7.28470957 C57.4558923,5.7976487 57.7748629,5.30189217 59.3528166,5.30189217 C62.0587853,5.28029217 62.0587853,5.28029217 62.8900099,7.86665739 C63.3800839,9.48310957 63.8701579,11.1210574 64.4457836,12.9314922 C65.0214092,10.7977878 65.5748549,8.83646609 66.043805,6.8536487 C66.3215839,5.73295304 66.8961534,5.25879652 68.0685287,5.25879652 Z M38.9359546,5.43117913 C41.1737127,6.35799652 42.1539662,8.27611826 42.345771,10.6038052 C42.4310059,11.6167096 42.3884413,12.6944139 42.1966365,13.7073183 C41.4294172,17.8669357 36.6769671,19.871353 33.2458156,17.1773009 L33.2458156,21.3153183 L33.2458156,21.3153183 C33.2458156,22.8670748 32.990111,23.125753 31.4556725,23.1472487 L30.7097884,23.1472487 L30.7097884,23.1472487 C29.3458196,23.125753 29.0261097,22.8024835 29.0261097,21.4231096 L29.0261097,8.29771826 L29.0261097,8.29771826 C29.0261097,7.71577043 29.0048802,7.15542261 29.0261097,6.57347478 C29.0687799,5.7544487 29.4949542,5.36658783 30.3048437,5.30189217 C32.1163218,5.15100522 32.5212666,5.32349217 32.990111,6.65966609 C34.758919,4.87085217 36.7835371,4.54756174 38.9359546,5.43117913 Z M95.1979253,5.43117913 C97.4360002,6.35799652 98.4161482,8.27611826 98.6083755,10.6038052 C98.692871,11.6167096 98.6506232,12.6944139 98.4583959,13.7073183 C97.6704753,17.8885357 92.8964788,19.871353 89.5082088,17.1557009 L89.5082088,21.4015096 L89.5082088,21.4015096 C89.4870849,22.8239791 89.2093059,23.104153 87.8246357,23.125753 C87.4623612,23.125753 87.1212105,23.1472487 86.758936,23.125753 C85.6509886,23.0826574 85.2887141,22.7377878 85.266534,21.6170922 C85.2454102,16.6600487 85.2454102,11.7030052 85.266534,6.74596174 C85.266534,5.64676174 85.6721125,5.25879652 86.758936,5.25879652 C87.7813317,5.28039652 88.9748308,4.97862261 89.188182,6.72436174 C91.0428585,4.84931478 93.066526,4.54757217 95.1979253,5.43117913 Z M57.1147417,8.98735304 C57.4770162,10.3020313 57.5836918,11.7675965 57.4337122,13.1253704 C56.9013905,17.5005704 52.1916106,20.0437357 48.3555144,17.2203965 L48.3555144,21.4446052 L48.3555144,21.4446052 C48.3555144,22.8024835 48.0571396,23.104153 46.7571761,23.125753 L46.3308963,23.125753 C44.3062782,23.125753 44.1358085,22.9532661 44.1358085,20.948953 L44.1358085,7.0692313 L44.1358085,7.0692313 C44.1358085,6.22860522 44.1784787,5.45277913 45.2227376,5.28039652 C46.9489809,5.00011826 47.67353,5.32349217 47.9932399,6.40109217 C48.9948285,5.9484313 49.9538526,5.25879652 50.9981115,5.08641391 C53.8965188,4.56912 56.3257648,6.09931826 57.1147417,8.98735304 Z M77.99992,9.23705556e-14 C79.0656196,0.043106087 80.9836678,0.560368696 82.3472141,1.14227478 C83.3484859,1.57332522 83.4984654,2.26300174 83.0295153,3.2759687 C82.880592,3.5992487 82.6883647,3.90098087 82.5394414,4.2242713 C82.1338629,5.10790957 81.5159895,5.19410087 80.7058888,4.84929391 C79.9813397,4.54756174 79.2567907,4.2242713 78.5111178,4.07340522 C78.0210438,3.96564522 77.4242943,3.98719304 76.9553442,4.15961739 C76.5719458,4.28892522 76.060748,4.67686957 76.017444,5.00011826 C75.9540724,5.38808348 76.2096713,5.99152696 76.5296981,6.27170087 C76.9986481,6.68126609 77.6165216,6.93984 78.1699672,7.22001391 C79.1511713,7.69417043 80.1946909,8.08213565 81.153715,8.62098783 C82.9228398,9.61239652 83.8396161,11.1210574 83.6896365,13.2116661 C83.5407132,15.2806748 82.602813,16.897127 80.7280688,17.7160487 C77.6376455,19.0738226 74.6961454,18.4919791 71.9479289,16.6815443 C71.2656276,16.2289878 71.2011998,15.6039443 71.6067783,14.8927096 C71.7345777,14.6772313 71.8835011,14.4616487 72.0113005,14.2676661 C73.0125723,12.8021009 73.1836758,12.8237009 74.7816971,13.5349357 C75.7618451,13.9659965 76.8486686,14.2461704 77.8932444,14.3323617 C78.3621945,14.3754574 79.1078674,13.8151096 79.2789708,13.3624487 C79.4067703,13.0176835 78.8945162,12.3064487 78.4899939,11.9399791 C78.0632916,11.5521183 77.4454182,11.3581357 76.9130964,11.0779617 C76.1452435,10.7114922 75.3361989,10.4098226 74.6116499,10.0003617 C72.2246517,8.68557913 71.2445037,6.78905739 71.6912738,4.46134957 C72.1391,2.15524174 74.0149004,0.452598261 76.5085742,0.10776 C76.9986481,0.043106087 77.4887221,0.043106087 77.99992,9.23705556e-14 Z M107.239592,4.97862261 C111.224612,5.02171826 114.016132,7.34940522 114.442835,10.8623791 C114.911785,14.7418226 112.311435,17.9962226 108.389787,18.3626922 C105.832742,18.5997704 103.466867,18.1040139 101.697743,16.0781009 C99.907494,14.0305878 99.6307712,11.6168139 100.610919,9.13824 C101.592123,6.63817043 103.615791,5.43117913 106.173892,5.04331826 C106.557291,5.00022261 106.961813,5.00022261 107.239592,4.97862261 Z M17.944312,5.36658783 C18.775431,5.40968348 18.8606658,6.22860522 18.8606658,6.93984 L18.8606658,12.6512139 C18.8606658,13.3840487 18.8606658,14.2892661 19.7131199,14.3970574 C20.3951043,14.4832487 21.2688935,14.2461704 21.844308,13.8582052 C22.7819969,13.2116661 22.9097964,12.0477704 22.9311315,10.9486748 C22.9524666,9.59079652 22.9097964,8.23302261 22.9524666,6.8536487 C22.9738017,5.64676174 23.3147411,5.32349217 24.4869051,5.28029217 C27.1081672,5.21570087 27.193402,5.28029217 27.193402,7.90975304 C27.193402,10.7115965 27.1720669,13.5133357 27.193402,16.2935791 C27.193402,17.2418922 27.0868321,18.0178226 25.9360032,18.1471096 C23.8901556,18.3626922 23.399976,18.1040139 23.0377015,16.4660661 C21.8229729,17.974727 20.3737692,18.4919791 18.6261908,18.4057878 C16.3672032,18.2763965 14.8114296,16.9617183 14.7049653,14.698727 C14.5770602,11.9831791 14.6409599,9.2460313 14.6409599,6.53037913 C14.6409599,6.29330087 14.6836302,5.99152696 14.8327647,5.81914435 C15.7278891,4.84929391 16.9000531,5.30189217 17.944312,5.36658783 Z M7.37371214,0.301721739 C10.8261988,0.344827826 13.0212866,2.75869565 13.0212866,6.46568348 C13.0212866,10.1727443 10.7835285,12.5650226 7.33114752,12.5866226 C6.39335295,12.5866226 5.43443451,12.5650226 4.28360563,12.5650226 C4.28360563,13.9874922 4.30483512,15.2375791 4.28360563,16.4660661 C4.26227051,17.7807443 3.94256061,18.1040139 2.62126204,18.1255096 L1.98194786,18.1255096 L1.98194786,18.1255096 C0.277039662,18.1471096 -1.28652644e-11,17.8884313 -1.28652644e-11,16.1857878 L-1.28652644e-11,2.06901913 L-1.28652644e-11,2.06901913 C-1.28652644e-11,0.603453913 0.298374778,0.301721739 1.72624332,0.301721739 C3.60162122,0.301721739 5.49833424,0.280173913 7.37371214,0.301721739 Z M118.769005,1.78886609 C120.494826,1.78886609 120.750425,2.04749217 120.750425,3.75013565 L120.750425,5.23719652 L120.750425,5.23719652 C121.623897,5.47427478 122.455121,5.56057043 123.095175,5.9484313 C123.393022,6.12091826 123.371898,6.91834435 123.371898,7.43559652 C123.371898,8.57789217 123.201851,8.66408348 120.835976,8.87956174 C120.835976,10.2805357 120.708177,11.7030052 120.899348,13.1038748 C120.963776,13.5564313 121.773876,14.0736835 122.327322,14.2461704 C123.520821,14.6341357 123.734172,14.9358052 123.585249,16.8540313 C123.499697,17.84544 122.839576,18.0609183 122.050599,18.1040139 C118.662329,18.2979965 116.595358,16.3151791 116.573178,12.9314922 L116.573178,10.0218574 L116.573178,10.0218574 C116.552054,9.72018783 116.552054,9.35371826 116.552054,8.96585739 C114.932908,8.53479652 114.782929,8.29771826 114.847357,6.78905739 C114.889605,5.64676174 115.614154,5.47427478 116.637605,5.45277913 C116.637605,4.67688 116.616482,3.94409739 116.637605,3.18976696 C116.658729,2.28457043 117.085432,1.78886609 118.022276,1.78886609 L118.769005,1.78886609 L118.769005,1.78886609 Z M89.8916072,9.84947478 C89.6148844,10.4314226 89.5082088,11.0779617 89.3371054,11.6814052 C89.4437809,13.7720139 90.7017079,15.1513878 92.3208531,14.8280139 C93.5354761,14.59104 94.324453,13.599527 94.4100047,12.1986574 C94.5166803,10.4745183 93.8555029,9.13824 92.6831277,8.72877913 C91.5963041,8.36230957 90.402805,8.79337043 89.8916072,9.84947478 Z M35.717943,8.64248348 C34.2261748,8.62098783 33.2244805,9.78477913 33.1819159,11.5952139 C33.1392456,13.5349357 34.1409399,15.0005009 35.590038,14.8496139 C36.2933575,14.7849183 37.0819119,14.2676661 37.5933209,13.7289183 C38.0196008,13.2547617 38.0835005,12.4788313 38.2753053,11.8537878 C38.1474003,9.91406609 37.1884818,8.66408348 35.717943,8.64248348 Z M48.6964538,9.87097043 C48.4407492,10.4098226 48.3341792,11.0348661 48.1850447,11.5952139 C48.2489444,13.7504139 49.5276784,15.1513878 51.1685812,14.8065183 C52.3834154,14.54784 53.1718642,13.5133357 53.257099,12.0477704 C53.3423339,10.4314226 52.63912,9.09514435 51.4882911,8.70717913 C50.3801325,8.36230957 49.2293036,8.79337043 48.6964538,9.87097043 Z M107.367392,8.55629217 C105.768314,8.51319652 104.425891,9.93566609 104.383644,11.6814052 C104.36252,13.47024 105.619391,14.8496139 107.28184,14.8496139 C108.965413,14.8281183 110.158912,13.5780313 110.180036,11.8106922 C110.20116,9.95726609 109.028785,8.59938783 107.367392,8.55629217 Z M4.56064529,4.07339478 C4.49663994,4.07339478 4.32617024,4.3535687 4.32617024,4.50443478 C4.28360563,5.9484313 4.30483512,7.37090087 4.30483512,8.87956174 C5.17862434,8.87956174 5.90327898,8.94425739 6.64916312,8.85806609 C7.84255661,8.75027478 8.5032059,8.06053565 8.6736756,6.8536487 C8.80158068,5.88384 8.69501071,4.78461913 7.75732176,4.41823304 C6.77696258,4.05183652 5.62623932,4.1380487 4.56064529,4.07339478 Z" id="path-7"></path>
    </defs>
    <g id="Symbols" stroke="none" stroke-width="1" fill="none" fill-rule="evenodd">
        <g id="Footer/HD-with-details" transform="translate(-658.000000, -145.000000)">
            <g id="Footer">
                <mask id="mask-2" fill="white">
                    <use xlink:href="#path-1"></use>
                </mask>
                <g id="Mask" fill-rule="nonzero"></g>
                <g id="Group" mask="url(#mask-2)" fill="#E6FFFD">
                    <g id="Footer-Background">
                        <rect id="Rectangle" x="0" y="0" width="1440" height="712"></rect>
                    </g>
                </g>
            </g>
            <g id="Group-3" transform="translate(629.000000, 48.000000)">
                <g id="Group" transform="translate(29.000000, 97.000000)">
                    <g transform="translate(41.000000, 0.000000)">
                        <mask id="mask-4" fill="white">
                            <use xlink:href="#path-3"></use>
                        </mask>
                        <use id="Path" fill="#000000" fill-rule="nonzero" xlink:href="#path-3"></use>
                        <g mask="url(#mask-4)" fill="#000000" id="nose-color">
                            <g>
                                <rect id="Rectangle" x="0" y="0" width="42" height="33"></rect>
                            </g>
                        </g>
                        <mask id="mask-6" fill="white">
                            <use xlink:href="#path-5"></use>
                        </mask>
                        <use id="Path" fill="#000000" fill-rule="nonzero" xlink:href="#path-5"></use>
                        <g mask="url(#mask-6)" id="highlight-color">
                            <g transform="translate(9.000000, 1.000000)">
                                <rect id="Rectangle" fill="#FFFFFF" x="0" y="0" width="12" height="9"></rect>
                            </g>
                        </g>
                    </g>
                    <g transform="translate(0.000000, 48.000000)" id="Logo/PuppySpot">
                        <mask id="mask-8" fill="white">
                            <use xlink:href="#path-7"></use>
                        </mask>
                        <use id="Combined-Shape" fill="#66AF37" xlink:href="#path-7"></use>
                        <g id="Group" mask="url(#mask-8)" fill="#000000">
                            <g id="Text-Color">
                                <rect id="Rectangle" x="0" y="0" width="124" height="24"></rect>
                            </g>
                        </g>
                    </g>
                </g>
            </g>
        </g>
    </g>
</svg>