<svg viewBox="0 0 56 56" fill="none" xmlns="http://www.w3.org/2000/svg">
<circle cx="28" cy="28" r="28" fill="#DF4907"/>
<path d="M28.0806 24.5002C26.1706 24.5002 24.6406 26.0602 24.6406 27.9402C24.6406 29.8202 26.1806 31.3802 28.0806 31.3802C29.9806 31.3802 31.5206 29.8402 31.5206 27.9402C31.5206 26.0402 29.9806 24.5002 28.0806 24.5002Z" fill="#EFEFEF"/>
<path d="M28.09 21.6101C24.6 21.6101 21.75 24.4501 21.75 27.9501C21.75 31.4501 24.59 34.2901 28.09 34.2901C31.59 34.2901 34.42 31.4501 34.42 27.9501C34.42 24.4501 31.58 21.6101 28.09 21.6101ZM28.09 33.4401C25.06 33.4401 22.59 30.9701 22.59 27.9401C22.59 24.9101 25.06 22.4401 28.09 22.4401C31.12 22.4401 33.59 24.9101 33.59 27.9401C33.59 30.9701 31.13 33.4401 28.09 33.4401Z" fill="#EFEFEF"/>
<path d="M42.5402 26.5702C41.9202 26.5702 41.3902 26.9702 41.2002 27.5302H38.7202C38.6202 24.9102 37.5702 22.5302 35.9002 20.7302L37.7702 18.5302H37.7902C37.9602 18.6102 38.1302 18.6402 38.3102 18.6402H38.4202C38.8002 18.6102 39.1502 18.4302 39.4002 18.1502C39.6502 17.8702 39.7602 17.4902 39.7302 17.1202C39.7002 16.7502 39.5202 16.4002 39.2402 16.1602C38.9502 15.9102 38.5802 15.7902 38.2002 15.8302C37.8302 15.8602 37.4802 16.0402 37.2402 16.3202C36.8402 16.7902 36.8102 17.4302 37.0902 17.9402L35.2502 20.0802C33.4302 18.4302 31.0502 17.4002 28.4302 17.3202V14.7702C28.9902 14.5802 29.4102 14.0502 29.4102 13.4202C29.4102 12.6302 28.7702 12.0002 27.9802 12.0002C27.1902 12.0002 26.5602 12.6402 26.5602 13.4202C26.5602 14.0402 26.9602 14.5702 27.5302 14.7602V17.3302C24.9902 17.4702 22.6802 18.5002 20.9202 20.1202L19.0702 17.9602C19.1802 17.7702 19.2602 17.5802 19.2802 17.3602C19.3102 16.9802 19.1902 16.6102 18.9502 16.3202C18.4402 15.7302 17.5402 15.6602 16.9402 16.1602C16.6502 16.4102 16.4802 16.7502 16.4402 17.1202C16.4102 17.4602 16.5102 17.8102 16.7202 18.0802L16.7802 18.1602C17.0602 18.4802 17.4602 18.6502 17.8602 18.6502C18.0402 18.6502 18.2102 18.6102 18.3802 18.5402L20.2802 20.7502C18.6302 22.5502 17.5902 24.9202 17.4902 27.5302H14.7602C14.5702 26.9702 14.0402 26.5702 13.4102 26.5702C12.6202 26.5702 11.9902 27.2102 11.9902 27.9902C11.9902 28.7702 12.6302 29.4202 13.4102 29.4202C14.0302 29.4202 14.5602 29.0202 14.7502 28.4602H17.5002C17.6202 31.0502 18.6702 33.3902 20.3202 35.1802L18.3902 37.4402C18.2202 37.3702 18.0502 37.3302 17.8702 37.3302C17.4702 37.3302 17.0602 37.5002 16.7902 37.8202L16.7302 37.9002C16.5202 38.1802 16.4302 38.5202 16.4502 38.8602C16.4802 39.2302 16.6602 39.5802 16.9502 39.8202C17.5502 40.3202 18.4502 40.2502 18.9602 39.6602C19.2102 39.3602 19.3202 39.0002 19.2902 38.6202C19.2702 38.4002 19.1902 38.2002 19.0802 38.0202L20.9702 35.8102C22.7202 37.4102 25.0102 38.4202 27.5302 38.5602V41.2202C26.9702 41.4202 26.5702 41.9402 26.5702 42.5602C26.5702 43.3502 27.2102 43.9802 27.9902 43.9802C28.7702 43.9802 29.4202 43.3402 29.4202 42.5602C29.4202 41.9302 29.0202 41.4102 28.4502 41.2102V38.5802C31.0602 38.5002 33.4302 37.4902 35.2402 35.8502L37.1302 38.0602C36.8402 38.5602 36.8702 39.2102 37.2802 39.6802C37.5302 39.9702 37.8702 40.1402 38.2502 40.1702C38.6202 40.2002 39.0002 40.0802 39.2902 39.8402C39.5802 39.5902 39.7502 39.2502 39.7802 38.8802C39.8102 38.5002 39.6902 38.1302 39.4402 37.8502C39.1902 37.5602 38.8402 37.3902 38.4702 37.3602H38.3602C38.1802 37.3602 38.0102 37.3902 37.8402 37.4602H37.8202L35.8902 35.2202C37.5602 33.4302 38.6202 31.0702 38.7502 28.4602H41.2402C41.4302 29.0202 41.9602 29.4202 42.5902 29.4202C43.3802 29.4202 44.0102 28.7802 44.0102 28.0002C44.0102 27.2202 43.3702 26.5702 42.5902 26.5702H42.5402ZM37.9602 16.9402C38.0502 16.8302 38.1802 16.7802 38.3002 16.7802C38.3802 16.7802 38.4702 16.8002 38.5402 16.8502L38.5902 16.8902C38.6802 16.9702 38.7402 17.0802 38.7502 17.2002C38.7502 17.3202 38.7202 17.4402 38.6402 17.5202C38.4702 17.7202 38.1902 17.7402 38.0002 17.5702C37.9102 17.4902 37.8502 17.3802 37.8402 17.2602C37.8402 17.1402 37.8702 17.0202 37.9502 16.9402H37.9602ZM18.1202 17.5802C17.9402 17.7402 17.6802 17.7202 17.5102 17.5602L17.4802 17.5202C17.3202 17.3302 17.3402 17.0502 17.5302 16.8802C17.6202 16.8002 17.7402 16.7602 17.8502 16.7702C17.9702 16.7702 18.0802 16.8402 18.1602 16.9302C18.3202 17.1202 18.3002 17.4102 18.1102 17.5702L18.1202 17.5802ZM13.3802 28.4402C13.1302 28.4402 12.9302 28.2302 12.9302 27.9902C12.9302 27.7502 13.1302 27.5402 13.3802 27.5402C13.6302 27.5402 13.8302 27.7402 13.8302 27.9902C13.8302 28.2402 13.6202 28.4402 13.3802 28.4402ZM18.1802 39.0302C18.1002 39.1302 17.9902 39.1902 17.8702 39.2002C17.7502 39.2002 17.6302 39.1702 17.5402 39.0902C17.3502 38.9202 17.3202 38.6402 17.4902 38.4502L17.5202 38.4102C17.6902 38.2502 17.9502 38.2402 18.1302 38.3902C18.3202 38.5602 18.3402 38.8402 18.1802 39.0302ZM38.0202 38.4002C38.2202 38.2302 38.4902 38.2502 38.6602 38.4502C38.7402 38.5402 38.7802 38.6602 38.7702 38.7702C38.7702 38.8902 38.7002 39.0002 38.6102 39.0802L38.5602 39.1202C38.4902 39.1702 38.4002 39.1902 38.3202 39.1902C38.1902 39.1902 38.0602 39.1402 37.9702 39.0302C37.8902 38.9402 37.8502 38.8202 37.8602 38.7102C37.8602 38.5902 37.9302 38.4802 38.0202 38.4002ZM27.4702 13.4102C27.4702 13.1402 27.6902 12.9202 27.9602 12.9202C28.2302 12.9202 28.4502 13.1402 28.4502 13.4102C28.4502 13.6802 28.2202 13.9002 27.9602 13.9002C27.7002 13.9002 27.4702 13.6702 27.4702 13.4102ZM28.4102 42.5602C28.4102 42.8102 28.2002 43.0102 27.9602 43.0102C27.7202 43.0102 27.5102 42.8102 27.5102 42.5602C27.5102 42.3102 27.7202 42.1102 27.9602 42.1102C28.2002 42.1102 28.4102 42.3202 28.4102 42.5602ZM28.0802 37.2802C22.9402 37.2802 18.7602 33.0902 18.7602 27.9502C18.7602 22.8102 22.9402 18.6302 28.0802 18.6302C33.2202 18.6302 37.4002 22.8002 37.4002 27.9502C37.4002 33.1002 33.2202 37.2802 28.0802 37.2802ZM42.5302 28.4402C42.2802 28.4402 42.0802 28.2402 42.0802 27.9902C42.0802 27.7402 42.2902 27.5402 42.5302 27.5402C42.7702 27.5402 42.9802 27.7502 42.9802 27.9902C42.9802 28.2302 42.7802 28.4402 42.5302 28.4402Z" fill="#EFEFEF"/>
</svg>
