<svg viewBox="0 0 56 56" fill="none" xmlns="http://www.w3.org/2000/svg">
<path d="M28.2103 46.5675C17.9378 46.5675 9.57275 38.22 9.57275 27.93C9.57275 17.64 17.9203 9.29248 28.2103 9.29248C38.5003 9.29248 46.8478 17.64 46.8478 27.93C46.8478 38.22 38.5003 46.5675 28.2103 46.5675ZM28.2103 11.6025C19.2153 11.6025 11.9003 18.9175 11.9003 27.9125C11.9003 36.9075 19.2153 44.24 28.2103 44.24C37.2053 44.24 44.5203 36.925 44.5203 27.9125C44.5203 18.9 37.2053 11.6025 28.2103 11.6025Z" fill="#444445"/>
<path d="M28.2101 34.0023C24.8501 34.0023 22.1201 31.2548 22.1201 27.9123C22.1201 24.5698 24.8326 21.8223 28.2101 21.8223C31.5876 21.8223 34.3001 24.5348 34.3001 27.9123C34.3001 31.2898 31.5876 34.0023 28.2101 34.0023Z" fill="#F16124"/>
<path d="M28.2278 39.0079C22.1203 39.0079 17.1328 34.0379 17.1328 27.9129C17.1328 21.7879 22.1028 16.8179 28.2278 16.8179C34.3528 16.8179 39.3053 21.7879 39.3053 27.9129C39.3053 34.0379 34.3353 39.0079 28.2278 39.0079ZM28.2278 18.3054C22.9253 18.3054 18.6028 22.6279 18.6028 27.9304C18.6028 33.2329 22.9253 37.5554 28.2278 37.5554C33.5303 37.5554 37.8528 33.2329 37.8528 27.9304C37.8528 22.6279 33.5478 18.3054 28.2278 18.3054Z" fill="#F9B89B"/>
<path d="M53.4976 25.515C52.4126 25.515 51.4851 26.215 51.1526 27.195H46.5151C46.5151 27.475 46.5501 27.7375 46.5501 28C46.5501 28.2625 46.5151 28.5425 46.5151 28.7875H51.1526C51.4851 29.7675 52.4126 30.4675 53.5151 30.4675C54.8976 30.4675 56.0001 29.3475 56.0001 27.9825C56.0001 26.6175 54.8801 25.48 53.5151 25.48L53.4976 25.515ZM53.4976 28.7875C53.0601 28.7875 52.7101 28.4375 52.7101 28C52.7101 27.5625 53.0776 27.2125 53.4976 27.2125C53.9176 27.2125 54.2851 27.58 54.2851 28C54.2851 28.42 53.9351 28.7875 53.4976 28.7875Z" fill="#444445"/>
<path d="M9.905 27.2124H4.83C4.4975 26.2324 3.57 25.5324 2.4675 25.5324C1.1025 25.5149 0 26.6349 0 27.9999C0 29.3649 1.12 30.5024 2.485 30.5024C3.57 30.5024 4.4975 29.8024 4.83 28.8224H9.8875C9.8875 28.5599 9.8525 28.2799 9.8525 28.0349C9.8525 27.7899 9.8875 27.4924 9.8875 27.2299H9.905V27.2124ZM2.485 28.7874C2.0475 28.7874 1.6975 28.4199 1.6975 27.9999C1.6975 27.5799 2.0475 27.2124 2.485 27.2124C2.9225 27.2124 3.2725 27.5624 3.2725 27.9999C3.2725 28.4374 2.905 28.7874 2.485 28.7874Z" fill="#444445"/>
<path d="M14.7175 40.39L11.1825 44.52C10.885 44.3975 10.5875 44.3275 10.2725 44.3275C9.57247 44.3275 8.85497 44.625 8.38247 45.185L8.27747 45.325C7.90997 45.815 7.75247 46.41 7.78747 47.005C7.83997 47.6525 8.15497 48.265 8.66247 48.685C9.71247 49.56 11.2875 49.4375 12.18 48.405C12.6175 47.88 12.8275 47.25 12.775 46.585C12.74 46.2 12.6 45.85 12.4075 45.535L15.8725 41.4925C15.47 41.125 15.1025 40.7575 14.735 40.355L14.7175 40.39ZM10.8675 47.355C10.7275 47.5125 10.535 47.6175 10.3425 47.635C10.1325 47.635 9.92247 47.5825 9.76497 47.4425C9.43247 47.145 9.37998 46.655 9.67748 46.3225L9.72997 46.2525C10.0275 45.9725 10.4825 45.955 10.7975 46.2175C11.13 46.515 11.165 47.005 10.885 47.3375H10.8675V47.355Z" fill="#444445"/>
<path d="M27.1951 46.3051V51.1701C26.2151 51.5201 25.5151 52.4301 25.5151 53.5151C25.5151 54.8976 26.6351 56.0001 28.0001 56.0001C29.3651 56.0001 30.5026 54.8801 30.5026 53.5151C30.5026 52.4126 29.8026 51.5026 28.7876 51.1526V46.3051C28.5951 46.3051 28.4026 46.3401 28.2276 46.3401C27.8776 46.3401 27.5451 46.3051 27.2126 46.2876L27.1951 46.3051ZM28.7876 53.4976C28.7876 53.9351 28.4201 54.2851 28.0001 54.2851C27.5801 54.2851 27.2126 53.9351 27.2126 53.4976C27.2126 53.0601 27.5801 52.7101 28.0001 52.7101C28.4201 52.7101 28.7876 53.0776 28.7876 53.4976Z" fill="#444445"/>
<path d="M40.5122 41.5796L43.9772 45.6221C43.4697 46.4971 43.5222 47.6346 44.2397 48.4571C44.6772 48.9646 45.2722 49.2621 45.9372 49.3146C46.5847 49.3671 47.2497 49.1571 47.7572 48.7371C48.2647 48.2996 48.5622 47.7046 48.6147 47.0571C48.6672 46.3921 48.4572 45.7446 48.0197 45.2546C47.5822 44.7471 46.9697 44.4496 46.3222 44.3971H46.1297C45.8147 44.3971 45.5172 44.4496 45.2197 44.5721H45.1847L41.6672 40.4946C41.2997 40.8971 40.9322 41.2646 40.5297 41.6321V41.5971L40.5122 41.5796ZM45.6047 46.2346C45.9547 45.9371 46.4272 45.9721 46.7247 46.3221C46.8647 46.4796 46.9347 46.6896 46.9172 46.8821C46.8997 47.0921 46.7947 47.2846 46.6372 47.4246L46.5497 47.4946C46.4272 47.5821 46.2697 47.6171 46.1297 47.6171C45.9022 47.6171 45.6747 47.5296 45.5172 47.3371C45.3772 47.1796 45.3072 46.9696 45.3247 46.7771C45.3247 46.5671 45.4472 46.3746 45.6047 46.2346Z" fill="#444445"/>
<path d="M15.8725 14.4901L12.4075 10.4476C12.6 10.1151 12.74 9.78262 12.775 9.39762C12.8275 8.73262 12.6175 8.08512 12.18 7.57762C11.2875 6.54512 9.71246 6.42262 8.66246 7.29762C8.15496 7.73512 7.85746 8.33012 7.78746 8.97762C7.73496 9.57262 7.90996 10.1851 8.27746 10.6576L8.38246 10.7976C8.87246 11.3576 9.57246 11.6551 10.2725 11.6551C10.5875 11.6551 10.9025 11.5851 11.1825 11.4626L14.735 15.5926C15.1025 15.1901 15.47 14.8226 15.8725 14.4551V14.4901ZM10.78 9.78262C10.465 10.0626 10.01 10.0276 9.71246 9.74762L9.65996 9.67762C9.37996 9.34512 9.41496 8.85512 9.74746 8.55762C9.90496 8.41762 10.115 8.34762 10.3075 8.36512C10.5175 8.36512 10.71 8.48762 10.85 8.64512C11.13 8.97762 11.095 9.48512 10.7625 9.76512L10.78 9.78262Z" fill="#444445"/>
<path d="M28.7871 9.7125V4.8475C29.7671 4.515 30.4846 3.5875 30.4846 2.485C30.4846 1.1025 29.3646 0 27.9821 0C26.5996 0 25.4971 1.12 25.4971 2.485C25.4971 3.57 26.1971 4.4975 27.1771 4.83V9.7125C27.5271 9.7125 27.8421 9.66 28.1921 9.66C28.3846 9.66 28.5771 9.66 28.7521 9.695L28.7871 9.7125ZM27.1421 2.5025C27.1421 2.03 27.5271 1.645 27.9996 1.645C28.4721 1.645 28.8571 2.03 28.8571 2.5025C28.8571 2.975 28.4546 3.36 27.9996 3.36C27.5446 3.36 27.1421 2.9575 27.1421 2.5025Z" fill="#444445"/>
<path d="M41.6501 15.5753L45.1676 11.4628H45.2026C45.5001 11.6028 45.7976 11.6553 46.1126 11.6553H46.3051C46.9701 11.6028 47.5826 11.2878 48.0201 10.7978C48.4576 10.2903 48.6501 9.64284 48.5976 8.99534C48.5451 8.34784 48.2301 7.73534 47.7401 7.31534C47.2326 6.87784 46.5851 6.66784 45.9201 6.73784C45.2726 6.79034 44.6601 7.10534 44.2401 7.59534C43.5401 8.41784 43.4876 9.53784 43.9776 10.4303L40.4951 14.4728C40.8976 14.8403 41.2651 15.2078 41.6326 15.5928H41.6676L41.6501 15.5753ZM45.5176 8.66284C45.6751 8.47034 45.9026 8.38284 46.1126 8.38284C46.2526 8.38284 46.4101 8.41784 46.5326 8.50534L46.6201 8.57534C46.7776 8.71534 46.8826 8.90784 46.9001 9.11784C46.9001 9.32784 46.8476 9.53784 46.7076 9.67784C46.4101 10.0278 45.9201 10.0628 45.5876 9.76534C45.4301 9.62534 45.3251 9.43284 45.3076 9.22284C45.3076 9.01284 45.3601 8.80284 45.5001 8.66284H45.5176Z" fill="#444445"/>
<path d="M28 1.3125C27.335 1.3125 26.7925 1.855 26.7925 2.52C26.7925 3.185 27.3525 3.7275 28 3.7275C28.6475 3.7275 29.2075 3.185 29.2075 2.52C29.2075 1.855 28.6475 1.3125 28 1.3125Z" fill="#F9B89B"/>
<path d="M46.9003 8.26037C46.3928 7.82287 45.6403 7.87536 45.2203 8.40036C44.7828 8.90786 44.8353 9.67787 45.3603 10.0979C45.8853 10.5354 46.6378 10.4829 47.0753 9.95786C47.5128 9.45036 47.4603 8.68036 46.9353 8.27786L46.9003 8.26037Z" fill="#F9B89B"/>
<path d="M9.34512 9.95757C9.78262 10.4651 10.5526 10.5176 11.0601 10.0976C11.5676 9.66007 11.6201 8.90757 11.2001 8.40007C10.7626 7.87507 10.0101 7.84007 9.48512 8.26007C8.99512 8.69757 8.92512 9.45007 9.34512 9.95757Z" fill="#F9B89B"/>
<path d="M9.50283 47.7575C10.0103 48.195 10.7628 48.1425 11.1828 47.6175C11.6203 47.11 11.5678 46.34 11.0428 45.92C10.5353 45.4825 9.76533 45.535 9.34533 46.06C8.90783 46.5675 8.96033 47.3375 9.48533 47.74H9.50283V47.7575Z" fill="#F9B89B"/>
<path d="M1.27734 28.0176C1.27734 28.6826 1.83734 29.2251 2.48484 29.2251C3.13234 29.2251 3.69234 28.6651 3.69234 28.0176C3.69234 27.3701 3.16734 26.8101 2.48484 26.8101C1.80234 26.8101 1.27734 27.3701 1.27734 28.0176Z" fill="#F9B89B"/>
<path d="M29.2075 53.5146C29.2075 52.8496 28.6475 52.3071 28 52.3071C27.3525 52.3071 26.7925 52.8496 26.7925 53.5146C26.7925 54.1796 27.3525 54.7221 28 54.7221C28.6475 54.7221 29.2075 54.1796 29.2075 53.5146Z" fill="#F9B89B"/>
<path d="M47.0399 46.0773C46.6024 45.5698 45.8324 45.5173 45.3249 45.9373C44.8174 46.3748 44.7649 47.1273 45.1849 47.6348C45.6224 48.1598 46.3749 48.1948 46.8824 47.7748C47.3899 47.3373 47.4599 46.5848 47.0224 46.0773H47.0399Z" fill="#F9B89B"/>
<path d="M53.4975 26.7925C52.8325 26.7925 52.29 27.3525 52.29 28C52.29 28.6475 52.85 29.2075 53.4975 29.2075C54.145 29.2075 54.705 28.6475 54.705 28C54.705 27.3525 54.18 26.7925 53.4975 26.7925Z" fill="#F9B89B"/>
</svg>
