<svg viewBox="0 0 56 56" fill="none" xmlns="http://www.w3.org/2000/svg">
<path d="M36.3863 23.3788C38.6386 25.6311 39.8858 28.6186 39.8858 31.7923C39.8858 38.3258 34.5435 43.6494 27.9821 43.6494C21.4207 43.6494 16.125 38.3258 16.125 31.7923C16.125 28.6186 17.3628 25.6311 19.6616 23.3416C21.8581 21.1172 24.8177 19.8887 27.9821 19.8887C31.1465 19.8887 34.1433 21.1265 36.3863 23.3788Z" fill="#FF601B"/>
<path d="M28.0001 56.0001C41.3649 56.0001 52.2355 45.1295 52.2355 31.7647C52.2355 18.3999 41.3649 7.5293 28.0001 7.5293C14.6352 7.5293 3.76465 18.3999 3.76465 31.7647C3.76465 45.1295 14.6352 56.0001 28.0001 56.0001ZM28.0001 9.6699C40.1829 9.6699 50.0949 19.5818 50.0949 31.7647C50.0949 43.9475 40.1829 53.8595 28.0001 53.8595C15.8172 53.8595 5.9053 43.9475 5.9053 31.7647C5.9053 19.5818 15.8172 9.6699 28.0001 9.6699Z" fill="#444444"/>
<path d="M21.4482 8.03193C22.0345 8.03193 22.5185 7.55727 22.5185 6.96163V2.1313H33.9289V6.74757C33.9289 7.33391 34.4036 7.81787 34.9992 7.81787C35.5949 7.81787 36.0695 7.34321 36.0695 6.74757V1.0703C36.0695 0.483961 35.5949 0 34.9992 0H21.4482C20.8619 0 20.3779 0.474654 20.3779 1.0703V6.97093C20.3779 7.55727 20.8526 8.04124 21.4482 8.04124V8.03193Z" fill="#444444"/>
<path d="M8.05519 14.6958C8.25994 14.9005 8.53915 15.0122 8.80905 15.0122C9.07895 15.0122 9.35816 14.9098 9.56291 14.6958C9.98173 14.277 9.98173 13.5975 9.56291 13.188L6.68703 10.3122L8.11103 8.88821L10.9869 11.7641C11.4057 12.1829 12.0851 12.1829 12.4946 11.7641C12.9134 11.3453 12.9134 10.6658 12.4946 10.2563L8.86489 6.62661C8.44608 6.2078 7.76667 6.2078 7.35716 6.62661L4.42544 9.55831C4.00662 9.97713 4.00662 10.6565 4.42544 11.066L8.05519 14.6958Z" fill="#444444"/>
<path d="M24.9473 30.2197C24.7053 30.6943 24.575 31.2248 24.575 31.7739C24.575 33.6632 26.1107 35.1989 28 35.1989C29.8893 35.1989 31.4343 33.6632 31.4343 31.7739C31.4343 31.2248 31.304 30.6943 31.062 30.2197L35.0919 26.1897C35.5107 25.7709 35.5107 25.0915 35.0919 24.682C34.6731 24.2632 33.9937 24.2632 33.5842 24.682L29.5543 28.7119C29.0796 28.4699 28.5491 28.3397 28 28.3397C27.4509 28.3397 26.9204 28.4699 26.455 28.7119L17.6041 19.861C17.1853 19.4422 16.5058 19.4422 16.0963 19.861C15.6775 20.2798 15.6775 20.9592 16.0963 21.3687L24.9473 30.2197ZM28.9214 30.8525C29.1634 31.0945 29.303 31.4203 29.303 31.7739C29.303 32.4906 28.7167 33.0676 28.0093 33.0676C27.302 33.0676 26.7156 32.4906 26.7156 31.7739C26.7156 31.4296 26.8552 31.1038 27.0972 30.8525C27.3392 30.6106 27.6557 30.4803 28 30.4803C28.3444 30.4803 28.6701 30.6199 28.9121 30.8618L28.9214 30.8525Z" fill="#444444"/>
<path d="M28.9211 30.8527C29.1631 31.0947 29.3026 31.4205 29.3026 31.7741C29.3026 32.4908 28.7163 33.0678 28.009 33.0678C27.3017 33.0678 26.7153 32.4908 26.7153 31.7741C26.7153 31.4298 26.8549 31.104 27.0969 30.8527C27.3389 30.6108 27.6553 30.4805 27.9997 30.4805C28.3441 30.4805 28.6698 30.6201 28.9118 30.8621L28.9211 30.8527Z" fill="#FFBA9C"/>
</svg>
