<svg viewBox="0 0 56 56" fill="none" xmlns="http://www.w3.org/2000/svg">
<circle cx="28" cy="28" r="28" fill="#DF4907"/>
<path d="M27.9999 44.0001C35.7252 44.0001 42.0067 37.7186 42.0067 29.9933C42.0067 22.2681 35.7252 15.9866 27.9999 15.9866C20.2747 15.9866 13.9932 22.2681 13.9932 29.9933C13.9932 37.7186 20.2747 44.0001 27.9999 44.0001ZM27.9999 17.2256C35.0356 17.2256 40.7676 22.9576 40.7676 29.9933C40.7676 37.029 35.0356 42.761 27.9999 42.761C20.9642 42.761 15.2322 37.029 15.2322 29.9933C15.2322 22.9576 20.9642 17.2256 27.9999 17.2256Z" fill="#EFEFEF"/>
<path d="M28.0966 36.0486C25.0582 36.0486 22.5908 33.5813 22.5908 30.5429C22.5908 29.0668 23.1726 27.6769 24.2285 26.621C25.2521 25.5867 26.6205 25.0156 28.0966 25.0156C29.5727 25.0156 30.9626 25.5867 31.9969 26.6318C33.042 27.6769 33.6238 29.0668 33.6238 30.5321C33.6238 33.5705 31.1457 36.0379 28.0966 36.0379V36.0486ZM28.0966 26.3517C26.9868 26.3517 25.9417 26.7826 25.1767 27.5584C24.3686 28.3665 23.9268 29.4224 23.9268 30.5429C23.9268 32.8379 25.8016 34.7126 28.0966 34.7126C30.3915 34.7126 32.2878 32.8379 32.2878 30.5429C32.2878 29.4331 31.8461 28.3772 31.0595 27.5799C30.273 26.7826 29.2171 26.3517 28.1073 26.3517H28.0966Z" fill="#EFEFEF"/>
<path d="M26.3191 29.6052C26.1682 29.8962 26.0928 30.2302 26.0928 30.5642C26.0928 31.7386 27.0194 32.6867 28.1615 32.6867C29.3036 32.6867 30.241 31.7386 30.241 30.5642C30.241 30.2194 30.1655 29.8962 30.0147 29.6052L32.4497 27.1056C32.6975 26.847 32.6975 26.4268 32.4497 26.1682C32.2019 25.9096 31.7817 25.9096 31.5339 26.1682L29.0989 28.6679C28.808 28.517 28.4955 28.4416 28.1615 28.4416C27.8275 28.4416 27.5043 28.517 27.2241 28.6679L21.88 23.1837C21.6322 22.9251 21.212 22.9251 20.9642 23.1837C20.7164 23.4423 20.7164 23.8625 20.9642 24.1211L26.3083 29.6052H26.3191ZM28.711 30.0039C28.8618 30.1547 28.9373 30.3595 28.9373 30.5749C28.9373 31.0167 28.5817 31.3722 28.1507 31.3722C27.7197 31.3722 27.3642 31.0167 27.3642 30.5749C27.3642 30.3595 27.4504 30.1547 27.5905 30.0039C27.7413 29.8531 27.9245 29.7776 28.1399 29.7776C28.3554 29.7776 28.5494 29.8638 28.6894 30.0147L28.711 30.0039Z" fill="#EFEFEF"/>
<path d="M32.31 15.2323V12.6141C32.31 12.2801 32.0514 12 31.7174 12H24.2723C23.949 12 23.6797 12.2694 23.6797 12.6141V15.1569C25.0049 14.7475 26.4164 14.532 27.8709 14.532C29.4117 14.532 30.8986 14.7798 32.2992 15.2323H32.31Z" fill="#EFEFEF"/>
</svg>
