<svg viewBox="0 0 56 56" fill="none" xmlns="http://www.w3.org/2000/svg">
<circle cx="28" cy="28" r="28" fill="#DF4907"/>
<path d="M28 14.5C20.56 14.5 14.5 20.56 14.5 28C14.5 35.44 20.56 41.5 28 41.5C35.4401 41.5 41.5 35.44 41.5 28C41.5 20.56 35.4401 14.5 28 14.5ZM28 40.151C21.2863 40.151 15.849 34.6826 15.849 28C15.849 21.3174 21.2967 15.849 28 15.849C34.7033 15.849 40.151 21.3174 40.151 28C40.151 34.6826 34.6826 40.151 28 40.151Z" fill="#EFEFEF"/>
<path d="M27.9999 36.4049C27.5122 36.4049 27.1179 36.0106 27.1179 35.5229V34.3503L27.0452 34.3295C25.4472 33.8937 24.3369 32.441 24.3369 30.7911C24.3369 30.3034 24.7312 29.9091 25.2189 29.9091C25.7066 29.9091 26.1009 30.3034 26.1009 30.7911C26.1009 31.8495 26.9622 32.7108 28.0206 32.7108C29.079 32.7108 29.9403 31.8495 29.9403 30.7911C29.9403 29.7327 29.079 28.8714 28.0206 28.8714C26.0075 28.8714 24.368 27.2319 24.368 25.2189C24.368 23.569 25.4783 22.1163 27.0763 21.6804L27.149 21.6597V20.4352C27.149 19.9475 27.5433 19.5532 28.031 19.5532C28.5187 19.5532 28.913 19.9475 28.913 20.4352V21.6597L28.9856 21.6804C30.5836 22.1163 31.6939 23.569 31.6939 25.2189C31.6939 25.7066 31.2996 26.1009 30.8119 26.1009C30.3242 26.1009 29.9299 25.7066 29.9299 25.2189C29.9299 24.1604 29.0687 23.2992 28.0102 23.2992C26.9518 23.2992 26.0906 24.1604 26.0906 25.2189C26.0906 26.2773 26.9518 27.1385 28.0102 27.1385C30.0233 27.1385 31.6628 28.7781 31.6628 30.7911C31.6628 32.441 30.5525 33.8937 28.9545 34.3295L28.8819 34.3503V35.5229C28.8819 36.0106 28.4876 36.4049 27.9999 36.4049Z" fill="#EFEFEF"/>
<path d="M35.8136 27.9791C35.8136 24.2539 33.1883 21.1305 29.6914 20.3523V21.4211C32.6072 22.1786 34.776 24.8246 34.776 27.9791C34.776 31.1336 32.6072 33.7797 29.6914 34.5372V35.6059C33.1883 34.8277 35.8136 31.7043 35.8136 27.9791Z" fill="#EFEFEF"/>
<path d="M21.2134 27.9792C21.2134 24.804 23.4029 22.1476 26.3499 21.4108V20.342C22.8218 21.0995 20.1758 24.2333 20.1758 27.9896C20.1758 31.746 22.8218 34.8693 26.3499 35.6372V34.5684C23.4029 33.8317 21.2134 31.1649 21.2134 28V27.9792Z" fill="#EFEFEF"/>
</svg>
