<svg viewBox="0 0 56 56" fill="none" xmlns="http://www.w3.org/2000/svg">
<path d="M28.0005 37.3976C22.8205 37.3976 18.5854 33.1801 18.5854 27.9826C18.5854 22.7851 22.803 18.5676 28.0005 18.5676C33.198 18.5676 37.4155 22.7851 37.4155 27.9826C37.4155 33.1801 33.198 37.3976 28.0005 37.3976Z" fill="#F16124"/>
<path d="M28.0005 31.9199C25.8305 31.9199 24.063 30.1524 24.063 27.9824C24.063 25.8124 25.8305 24.0449 28.0005 24.0449C30.1705 24.0449 31.938 25.8124 31.938 27.9824C31.938 30.1524 30.1705 31.9199 28.0005 31.9199Z" fill="#F9B89B"/>
<path d="M27.9999 5.23242C15.4524 5.23242 5.23242 15.4524 5.23242 27.9999C5.23242 40.5474 15.4524 50.7674 27.9999 50.7674C40.5474 50.7674 50.7674 40.5474 50.7674 27.9999C50.7674 15.4524 40.5474 5.23242 27.9999 5.23242ZM27.9999 48.5099C16.6774 48.5099 7.50742 39.2874 7.50742 28.0174C7.50742 16.7474 16.6949 7.52492 27.9999 7.52492C39.3049 7.52492 48.4924 16.7474 48.4924 28.0174C48.4924 39.2874 39.2699 48.5099 27.9999 48.5099Z" fill="#444445"/>
<path d="M27.9998 41.1074C27.1773 41.1074 26.5123 40.4424 26.5123 39.6199V38.7099L26.3898 38.6749C23.6948 37.9399 21.8223 35.4899 21.8223 32.7074C21.8223 31.8849 22.4873 31.2199 23.3098 31.2199C24.1323 31.2199 24.7973 31.8849 24.7973 32.7074C24.7973 34.4924 26.2498 35.9449 28.0348 35.9449C29.8198 35.9449 31.2723 34.4924 31.2723 32.7074C31.2723 30.9224 29.8198 29.4699 28.0348 29.4699C24.6398 29.4699 21.8748 26.7049 21.8748 23.3099C21.8748 20.5274 23.7473 18.0774 26.4423 17.3424L26.5648 17.3074V16.3974C26.5648 15.5749 27.2298 14.9099 28.0523 14.9099C28.8748 14.9099 29.5398 15.5749 29.5398 16.3974V17.3074L29.6623 17.3424C32.3573 18.0774 34.2298 20.5274 34.2298 23.3099C34.2298 24.1324 33.5648 24.7974 32.7423 24.7974C31.9198 24.7974 31.2548 24.1324 31.2548 23.3099C31.2548 21.5249 29.8023 20.0724 28.0173 20.0724C26.2323 20.0724 24.7798 21.5249 24.7798 23.3099C24.7798 25.0949 26.2323 26.5474 28.0173 26.5474C31.4123 26.5474 34.1773 29.3124 34.1773 32.7074C34.1773 35.4899 32.3048 37.9399 29.6098 38.6749L29.4873 38.7099V39.6199C29.4873 40.4424 28.8223 41.1074 27.9998 41.1074Z" fill="#444445"/>
</svg>
