<svg viewBox="0 0 56 56" fill="none" xmlns="http://www.w3.org/2000/svg">
<path d="M17.2583 41.5004V47.4682C17.2583 47.9456 17.6473 48.3258 18.1159 48.3258H37.7786C38.256 48.3258 38.6362 47.9368 38.6362 47.4682V41.5004C38.6362 39.5111 36.5586 37.4069 35.6656 36.6024C35.1263 36.1073 33.5083 34.7369 31.8374 34.1888C33.0221 33.119 33.7736 31.5718 33.7736 29.8566C33.7736 26.6384 31.1566 24.0303 27.9473 24.0303C24.7379 24.0303 22.1209 26.6473 22.1209 29.8566C22.1209 31.6071 22.899 33.172 24.119 34.2418C21.1926 35.2762 17.2583 38.9188 17.2583 41.5004ZM27.9473 25.7543C30.2106 25.7543 32.0584 27.5933 32.0584 29.8654C32.0584 32.1376 30.2194 33.9766 27.9473 33.9766C25.6751 33.9766 23.8361 32.1376 23.8361 29.8654C23.8361 27.5933 25.6751 25.7543 27.9473 25.7543ZM21.4755 37.8844C22.9432 36.5936 24.623 35.6829 25.5425 35.6829H30.5554C32.6331 35.6829 36.921 39.5995 36.921 41.5004V46.6017H34.4809V42.4464C34.4809 41.969 34.0919 41.5888 33.6233 41.5888C33.1547 41.5888 32.7657 41.9778 32.7657 42.4464V46.6017H23.1554V42.4464C23.1554 41.969 22.7664 41.5888 22.2978 41.5888C21.8292 41.5888 21.4402 41.9778 21.4402 42.4464V46.6017H19V41.5004C19 40.6516 19.9991 39.1929 21.4932 37.8844H21.4755Z" fill="#444444"/>
<path d="M54.1873 7.67407L49.0948 17.3463L48.0957 14.1193C48.0162 13.854 47.8305 13.6419 47.6006 13.5181C47.3708 13.3943 47.0967 13.3678 46.8315 13.4473C46.2922 13.6153 46.0004 14.1812 46.1595 14.7205L47.8836 20.2904C47.8836 20.2904 47.9012 20.3523 47.9189 20.3877C47.9189 20.3965 47.9278 20.4142 47.9366 20.423C47.9366 20.4407 47.9543 20.4584 47.9631 20.4761C47.9631 20.4937 47.9808 20.5026 47.9897 20.5203C47.9897 20.538 48.0073 20.5468 48.0162 20.5645C48.025 20.5822 48.0339 20.591 48.0427 20.5998C48.0515 20.6175 48.0604 20.6264 48.0692 20.644C48.0781 20.6529 48.0869 20.6706 48.0957 20.6794C48.1046 20.6971 48.1223 20.7059 48.1311 20.7148C48.14 20.7236 48.1488 20.7325 48.1665 20.7413C48.1841 20.7501 48.193 20.7678 48.2107 20.7767C48.2195 20.7855 48.2372 20.7943 48.246 20.8032C48.2637 20.812 48.2726 20.8209 48.2902 20.8386C48.3079 20.8562 48.3345 20.8651 48.3521 20.8739C48.3521 20.8739 48.361 20.8739 48.3698 20.8828C48.3787 20.8916 48.3875 20.8828 48.3875 20.8916C48.414 20.9004 48.4317 20.9181 48.4582 20.927C48.4759 20.927 48.4936 20.9358 48.5113 20.9446C48.529 20.9446 48.5378 20.9535 48.5555 20.9623C48.5732 20.9623 48.5908 20.9712 48.6085 20.98C48.6262 20.98 48.6351 20.98 48.6527 20.9889C48.6704 20.9889 48.6881 20.9889 48.7058 20.9889C48.7235 20.9889 48.7323 20.9889 48.75 20.9889C48.7677 20.9889 48.7853 20.9889 48.803 20.9889C48.8207 20.9889 48.8384 20.9889 48.8561 20.9889C48.8738 20.9889 48.8914 20.9889 48.9091 20.9889C48.9268 20.9889 48.9445 20.9889 48.9622 20.9889C48.9799 20.9889 48.9975 20.9889 49.0152 20.9889C49.0329 20.9889 49.0417 20.9889 49.0594 20.9889C49.0948 20.9889 49.1301 20.9712 49.1567 20.9623L54.7266 19.2383C55.2659 19.0703 55.5577 18.5045 55.3985 17.9652C55.319 17.6999 55.1333 17.4878 54.9034 17.364C54.6735 17.2402 54.3995 17.2137 54.1342 17.2932L50.9072 18.2923L55.9997 8.62008L54.205 7.67407H54.1873Z" fill="#444444"/>
<path d="M1.81243 7.67407L6.90494 17.3463L7.904 14.1193C7.98357 13.854 8.16923 13.6419 8.3991 13.5181C8.62897 13.3943 8.90304 13.3678 9.16828 13.4473C9.70759 13.6153 9.99935 14.1812 9.84021 14.7205L8.11618 20.2904C8.11618 20.2904 8.09849 20.3523 8.0808 20.3877C8.0808 20.3965 8.07197 20.4142 8.06313 20.423C8.06313 20.4407 8.04545 20.4584 8.03661 20.4761C8.03661 20.4937 8.01893 20.5026 8.01009 20.5203C8.01009 20.538 7.9924 20.5468 7.98356 20.5645C7.97472 20.5822 7.96588 20.591 7.95704 20.5998C7.9482 20.6175 7.93936 20.6264 7.93052 20.644C7.92168 20.6529 7.91284 20.6706 7.904 20.6794C7.89516 20.6971 7.87747 20.7059 7.86862 20.7148C7.85978 20.7236 7.85093 20.7325 7.83325 20.7413C7.81557 20.7501 7.80674 20.7678 7.78906 20.7767C7.78022 20.7855 7.76253 20.7943 7.75368 20.8032C7.736 20.812 7.72717 20.8209 7.70949 20.8386C7.69181 20.8562 7.66528 20.8651 7.6476 20.8739C7.6476 20.8739 7.63876 20.8739 7.62992 20.8828C7.62108 20.8916 7.61222 20.8828 7.61222 20.8916C7.5857 20.9004 7.56803 20.9181 7.54151 20.927C7.52382 20.927 7.50614 20.9358 7.48846 20.9446C7.47078 20.9446 7.46192 20.9535 7.44424 20.9623C7.42656 20.9623 7.40888 20.9712 7.39119 20.98C7.37351 20.98 7.36468 20.98 7.347 20.9889C7.32932 20.9889 7.31164 20.9889 7.29395 20.9889C7.27627 20.9889 7.26741 20.9889 7.24973 20.9889C7.23205 20.9889 7.21437 20.9889 7.19669 20.9889C7.17901 20.9889 7.16133 20.9889 7.14364 20.9889C7.12596 20.9889 7.10828 20.9889 7.0906 20.9889C7.07292 20.9889 7.05524 20.9889 7.03755 20.9889C7.01987 20.9889 7.00219 20.9889 6.98451 20.9889C6.96683 20.9889 6.95797 20.9889 6.94029 20.9889C6.90492 20.9889 6.86957 20.9712 6.84305 20.9623L1.27313 19.2383C0.733818 19.0703 0.442051 18.5045 0.601192 17.9652C0.680763 17.6999 0.866425 17.4878 1.09629 17.364C1.32616 17.2402 1.60024 17.2137 1.86547 17.2932L5.09249 18.2923L0 8.62008L1.79475 7.67407H1.81243Z" fill="#444444"/>
<path d="M52.2779 43.4457H41.8807C41.3503 43.4457 40.9171 43.0125 40.9171 42.482C40.9171 41.9515 41.3503 41.5183 41.8807 41.5183H47.8308V38.2824C47.8308 37.752 48.2641 37.3188 48.7945 37.3188C49.325 37.3188 49.7582 37.752 49.7582 38.2824V41.5183H51.3142V37.4867C51.3142 36.0191 47.8485 32.8628 46.2306 32.8628H42.031C41.6597 32.8628 41.032 33.0927 40.3777 33.4817C40.1567 33.6143 39.9003 33.6497 39.6439 33.5789C39.3964 33.5171 39.1842 33.3579 39.0516 33.1369C38.7863 32.6772 38.9366 32.0848 39.3964 31.8196C39.7323 31.6251 40.0683 31.4571 40.3866 31.3245C39.4494 30.3696 38.9189 29.0876 38.9189 27.7438C38.9189 24.9146 41.2177 22.6248 44.038 22.6248C46.8583 22.6248 49.157 24.9235 49.157 27.7438C49.157 29.0611 48.6442 30.3254 47.7424 31.2714C49.0244 31.793 50.1914 32.7744 50.6688 33.2076C51.438 33.9061 53.2328 35.7273 53.2328 37.4867V42.482C53.2328 43.0125 52.7996 43.4457 52.2691 43.4457H52.2779Z" fill="#444444"/>
<path d="M44.0466 24.543C42.2872 24.543 40.855 25.9752 40.855 27.7346C40.855 29.494 42.2872 30.9263 44.0466 30.9263C45.806 30.9263 47.2383 29.494 47.2383 27.7346C47.2383 25.9752 45.806 24.543 44.0466 24.543Z" fill="#FFBA9C"/>
<path d="M14.0132 43.4457H3.61603C3.08556 43.4457 2.65234 43.0125 2.65234 42.482V37.4867C2.65234 35.7273 4.44709 33.9061 5.21627 33.2076C5.68485 32.7832 6.85189 31.793 8.14269 31.2714C7.2409 30.3254 6.7281 29.0523 6.7281 27.7438C6.7281 24.9146 9.02681 22.6248 11.8471 22.6248C14.6675 22.6248 16.9662 24.9235 16.9662 27.7438C16.9662 29.0876 16.4357 30.3696 15.4985 31.3245C15.8168 31.4571 16.1528 31.6251 16.4887 31.8196C16.9485 32.0848 17.0988 32.6772 16.8335 33.1369C16.7009 33.3579 16.4976 33.5171 16.2412 33.5789C15.9936 33.6408 15.7284 33.6055 15.5074 33.4729C14.8443 33.0838 14.2254 32.854 13.8541 32.854H9.65452C8.03659 32.854 4.57086 36.0103 4.57086 37.4779V41.5095H6.12691V38.2736C6.12691 37.7431 6.56013 37.3099 7.09059 37.3099C7.62106 37.3099 8.05428 37.7431 8.05428 38.2736V41.5095H14.0044C14.5349 41.5095 14.9681 41.9427 14.9681 42.4732C14.9681 43.0036 14.5349 43.4368 14.0044 43.4368L14.0132 43.4457Z" fill="#444444"/>
<path d="M11.8469 24.543C10.0876 24.543 8.65527 25.9752 8.65527 27.7346C8.65527 29.494 10.0876 30.9263 11.8469 30.9263C13.6063 30.9263 15.0386 29.494 15.0386 27.7346C15.0386 25.9752 13.6063 24.543 11.8469 24.543Z" fill="#FFBA9C"/>
<path d="M27.9471 25.7544C30.2104 25.7544 32.0582 27.5934 32.0582 29.8655C32.0582 32.1377 30.2192 33.9767 27.9471 33.9767C25.6749 33.9767 23.8359 32.1377 23.8359 29.8655C23.8359 27.5934 25.6749 25.7544 27.9471 25.7544Z" fill="#FF601B"/>
</svg>
