<svg viewBox="0 0 56 56" fill="none" xmlns="http://www.w3.org/2000/svg">
<circle cx="28" cy="28" r="28" fill="#DF4907"/>
<path d="M21.8618 35.7146V39.1248C21.8618 39.3976 22.0841 39.6148 22.3519 39.6148H33.5877C33.8605 39.6148 34.0778 39.3925 34.0778 39.1248V35.7146C34.0778 34.5779 32.8905 33.3755 32.3803 32.9158C32.0721 32.6328 31.1476 31.8498 30.1927 31.5365C30.8697 30.9252 31.2991 30.0411 31.2991 29.061C31.2991 27.2221 29.8037 25.7317 27.9698 25.7317C26.1359 25.7317 24.6405 27.2271 24.6405 29.061C24.6405 30.0613 25.0851 30.9555 25.7822 31.5669C24.11 32.1579 21.8618 34.2394 21.8618 35.7146ZM27.9698 26.7168C29.2631 26.7168 30.319 27.7677 30.319 29.0661C30.319 30.3645 29.2682 31.4153 27.9698 31.4153C26.6714 31.4153 25.6206 30.3645 25.6206 29.0661C25.6206 27.7677 26.6714 26.7168 27.9698 26.7168ZM24.2717 33.6483C25.1103 32.9107 26.0702 32.3903 26.5956 32.3903H29.4602C30.6474 32.3903 33.0977 34.6284 33.0977 35.7146V38.6297H31.7033V36.2552C31.7033 35.9824 31.481 35.7651 31.2132 35.7651C30.9455 35.7651 30.7232 35.9874 30.7232 36.2552V38.6297H25.2316V36.2552C25.2316 35.9824 25.0093 35.7651 24.7415 35.7651C24.4738 35.7651 24.2515 35.9874 24.2515 36.2552V38.6297H22.8571V35.7146C22.8571 35.2296 23.428 34.396 24.2818 33.6483H24.2717Z" fill="#EFEFEF"/>
<path d="M42.9641 16.3853L40.0541 21.9122L39.4832 20.0682C39.4377 19.9167 39.3316 19.7954 39.2003 19.7247C39.0689 19.654 38.9123 19.6388 38.7608 19.6843C38.4526 19.7803 38.2859 20.1036 38.3768 20.4118L39.362 23.5946C39.362 23.5946 39.3721 23.6299 39.3822 23.6502C39.3822 23.6552 39.3872 23.6653 39.3923 23.6704C39.3923 23.6805 39.4024 23.6906 39.4074 23.7007C39.4074 23.7108 39.4175 23.7158 39.4226 23.7259C39.4226 23.736 39.4327 23.7411 39.4377 23.7512C39.4428 23.7613 39.4478 23.7664 39.4529 23.7714C39.458 23.7815 39.463 23.7866 39.4681 23.7967C39.4731 23.8017 39.4782 23.8118 39.4832 23.8169C39.4883 23.827 39.4984 23.832 39.5034 23.8371C39.5085 23.8421 39.5135 23.8472 39.5236 23.8522C39.5337 23.8573 39.5388 23.8674 39.5489 23.8725C39.5539 23.8775 39.564 23.8826 39.5691 23.8876C39.5792 23.8927 39.5843 23.8977 39.5944 23.9078C39.6045 23.9179 39.6196 23.923 39.6297 23.928C39.6297 23.928 39.6348 23.928 39.6398 23.9331C39.6449 23.9381 39.6499 23.9331 39.6499 23.9381C39.6651 23.9432 39.6752 23.9533 39.6903 23.9583C39.7005 23.9583 39.7106 23.9634 39.7207 23.9684C39.7308 23.9684 39.7358 23.9735 39.7459 23.9785C39.756 23.9785 39.7661 23.9836 39.7762 23.9886C39.7863 23.9886 39.7914 23.9886 39.8015 23.9937C39.8116 23.9937 39.8217 23.9937 39.8318 23.9937C39.8419 23.9937 39.847 23.9937 39.8571 23.9937C39.8672 23.9937 39.8773 23.9937 39.8874 23.9937C39.8975 23.9937 39.9076 23.9937 39.9177 23.9937C39.9278 23.9937 39.9379 23.9937 39.948 23.9937C39.9581 23.9937 39.9682 23.9937 39.9783 23.9937C39.9884 23.9937 39.9985 23.9937 40.0086 23.9937C40.0187 23.9937 40.0238 23.9937 40.0339 23.9937C40.0541 23.9937 40.0743 23.9836 40.0895 23.9785L43.2723 22.9934C43.5805 22.8974 43.7472 22.5741 43.6562 22.2659C43.6108 22.1143 43.5047 21.9931 43.3733 21.9223C43.242 21.8516 43.0853 21.8365 42.9338 21.8819L41.0898 22.4528L43.9998 16.9258L42.9742 16.3853H42.9641Z" fill="#EFEFEF"/>
<path d="M13.0357 16.3853L15.9457 21.9122L16.5166 20.0682C16.562 19.9167 16.6681 19.7954 16.7995 19.7247C16.9308 19.654 17.0875 19.6388 17.239 19.6843C17.5472 19.7803 17.7139 20.1036 17.623 20.4118L16.6378 23.5946C16.6378 23.5946 16.6277 23.6299 16.6176 23.6502C16.6176 23.6552 16.6126 23.6653 16.6075 23.6704C16.6075 23.6805 16.5974 23.6906 16.5923 23.7007C16.5923 23.7108 16.5822 23.7158 16.5772 23.7259C16.5772 23.736 16.5671 23.7411 16.562 23.7512C16.557 23.7613 16.5519 23.7664 16.5469 23.7714C16.5418 23.7815 16.5368 23.7866 16.5317 23.7967C16.5267 23.8017 16.5216 23.8118 16.5166 23.8169C16.5115 23.827 16.5014 23.832 16.4964 23.8371C16.4913 23.8421 16.4862 23.8472 16.4761 23.8522C16.466 23.8573 16.461 23.8674 16.4509 23.8725C16.4458 23.8775 16.4357 23.8826 16.4307 23.8876C16.4206 23.8927 16.4155 23.8977 16.4054 23.9078C16.3953 23.9179 16.3802 23.923 16.3701 23.928C16.3701 23.928 16.365 23.928 16.36 23.9331C16.3549 23.9381 16.3498 23.9331 16.3498 23.9381C16.3347 23.9432 16.3246 23.9533 16.3094 23.9583C16.2993 23.9583 16.2892 23.9634 16.2791 23.9684C16.269 23.9684 16.264 23.9735 16.2539 23.9785C16.2437 23.9785 16.2336 23.9836 16.2235 23.9886C16.2134 23.9886 16.2084 23.9886 16.1983 23.9937C16.1882 23.9937 16.1781 23.9937 16.168 23.9937C16.1579 23.9937 16.1528 23.9937 16.1427 23.9937C16.1326 23.9937 16.1225 23.9937 16.1124 23.9937C16.1023 23.9937 16.0922 23.9937 16.0821 23.9937C16.072 23.9937 16.0619 23.9937 16.0518 23.9937C16.0417 23.9937 16.0316 23.9937 16.0215 23.9937C16.0114 23.9937 16.0013 23.9937 15.9911 23.9937C15.981 23.9937 15.976 23.9937 15.9659 23.9937C15.9457 23.9937 15.9255 23.9836 15.9103 23.9785L12.7275 22.9934C12.4193 22.8974 12.2526 22.5741 12.3435 22.2659C12.389 22.1143 12.4951 21.9931 12.6265 21.9223C12.7578 21.8516 12.9144 21.8365 13.066 21.8819L14.91 22.4528L12 16.9258L13.0256 16.3853H13.0357Z" fill="#EFEFEF"/>
<path d="M41.873 36.8261H35.9317C35.6286 36.8261 35.381 36.5786 35.381 36.2755C35.381 35.9723 35.6286 35.7248 35.9317 35.7248H39.3318V33.8757C39.3318 33.5726 39.5793 33.325 39.8824 33.325C40.1856 33.325 40.4331 33.5726 40.4331 33.8757V35.7248H41.3223V33.421C41.3223 32.5824 39.3419 30.7788 38.4173 30.7788H36.0176C35.8054 30.7788 35.4467 30.9101 35.0728 31.1324C34.9465 31.2082 34.8 31.2284 34.6535 31.188C34.5121 31.1526 34.3908 31.0617 34.315 30.9354C34.1635 30.6727 34.2494 30.3342 34.5121 30.1826C34.7041 30.0715 34.896 29.9755 35.0779 29.8997C34.5424 29.3541 34.2393 28.6215 34.2393 27.8536C34.2393 26.237 35.5528 24.9285 37.1644 24.9285C38.776 24.9285 40.0896 26.242 40.0896 27.8536C40.0896 28.6064 39.7966 29.3288 39.2812 29.8694C40.0138 30.1675 40.6807 30.7283 40.9535 30.9758C41.393 31.3749 42.4186 32.4157 42.4186 33.421V36.2755C42.4186 36.5786 42.171 36.8261 41.8679 36.8261H41.873Z" fill="#EFEFEF"/>
<path d="M37.1695 26.0247C36.1641 26.0247 35.3457 26.8431 35.3457 27.8485C35.3457 28.8538 36.1641 29.6723 37.1695 29.6723C38.1749 29.6723 38.9933 28.8538 38.9933 27.8485C38.9933 26.8431 38.1749 26.0247 37.1695 26.0247Z" fill="#EFEFEF"/>
<path d="M20.0075 36.8261H14.0663C13.7632 36.8261 13.5156 36.5786 13.5156 36.2755V33.421C13.5156 32.4157 14.5412 31.3749 14.9807 30.9758C15.2485 30.7333 15.9154 30.1675 16.653 29.8694C16.1377 29.3288 15.8446 28.6013 15.8446 27.8536C15.8446 26.237 17.1582 24.9285 18.7698 24.9285C20.3814 24.9285 21.695 26.242 21.695 27.8536C21.695 28.6215 21.3918 29.3541 20.8563 29.8997C21.0382 29.9755 21.2302 30.0715 21.4221 30.1826C21.6848 30.3342 21.7707 30.6727 21.6192 30.9354C21.5434 31.0617 21.4272 31.1526 21.2807 31.188C21.1392 31.2234 20.9877 31.2032 20.8614 31.1274C20.4824 30.9051 20.1288 30.7737 19.9166 30.7737H17.5169C16.5923 30.7737 14.6119 32.5773 14.6119 33.416V35.7197H15.5011V33.8707C15.5011 33.5675 15.7486 33.32 16.0518 33.32C16.3549 33.32 16.6024 33.5675 16.6024 33.8707V35.7197H20.0025C20.3056 35.7197 20.5532 35.9673 20.5532 36.2704C20.5532 36.5735 20.3056 36.8211 20.0025 36.8211L20.0075 36.8261Z" fill="#EFEFEF"/>
<path d="M18.7696 26.0247C17.7642 26.0247 16.9458 26.8431 16.9458 27.8485C16.9458 28.8538 17.7642 29.6723 18.7696 29.6723C19.775 29.6723 20.5934 28.8538 20.5934 27.8485C20.5934 26.8431 19.775 26.0247 18.7696 26.0247Z" fill="#EFEFEF"/>
</svg>
