<svg viewBox="0 0 56 56" fill="none" xmlns="http://www.w3.org/2000/svg">
<circle cx="28" cy="28" r="28" fill="#DF4907"/>
<path d="M24.4725 26.6328C24.1425 26.6328 23.8701 26.9 23.8701 27.2352V37.6491C23.8701 37.9792 24.1373 38.2516 24.4725 38.2516H28.5375C28.8675 38.2516 29.1399 37.9844 29.1399 37.6491V27.2352C29.1399 26.9052 28.8728 26.6328 28.5375 26.6328H24.4725ZM27.9403 37.052H25.0749V27.8376H27.9403V37.052Z" fill="#EFEFEF"/>
<path d="M17.0184 30.7292C16.6884 30.7292 16.416 30.9964 16.416 31.3317V37.6492C16.416 37.9792 16.6832 38.2516 17.0184 38.2516H21.0834C21.4134 38.2516 21.6858 37.9844 21.6858 37.6492V31.3317C21.6858 31.0016 21.4187 30.7292 21.0834 30.7292H17.0184ZM20.4862 37.052H17.6208V31.9341H20.4862V37.052Z" fill="#EFEFEF"/>
<path d="M31.2666 20.2208V37.6489C31.2666 37.979 31.5338 38.2514 31.869 38.2514H35.934C36.264 38.2514 36.5364 37.9842 36.5364 37.6489V20.2208C36.5364 19.8908 36.2693 19.6184 35.934 19.6184H31.869C31.539 19.6184 31.2666 19.8856 31.2666 20.2208ZM32.4662 20.8232H35.3316V37.0465H32.4662V20.8232Z" fill="#EFEFEF"/>
<path d="M41.4031 15.1974C41.4031 15.1974 41.3716 15.1712 41.3559 15.1555C41.3507 15.1503 41.3402 15.145 41.335 15.1398C41.3245 15.1346 41.3193 15.1241 41.3088 15.1188C41.2983 15.1136 41.2931 15.1084 41.2826 15.1031C41.2721 15.1031 41.2669 15.0926 41.2564 15.0874C41.2459 15.0874 41.2407 15.0769 41.2302 15.0769C41.2197 15.0769 41.2145 15.0665 41.204 15.0665C41.1935 15.0665 41.1883 15.0612 41.1778 15.056C41.1673 15.056 41.1569 15.0507 41.1464 15.0455C41.1359 15.0455 41.1307 15.0455 41.1202 15.0403C41.1097 15.0403 41.0992 15.035 41.0888 15.0298C41.0783 15.0298 41.0731 15.0298 41.0626 15.0298C41.0521 15.0298 41.0416 15.0298 41.0312 15.0298C41.0154 15.0298 40.9997 15.0298 40.984 15.0298C40.984 15.0298 40.9735 15.0298 40.9683 15.0298C40.963 15.0298 40.9578 15.0298 40.9526 15.0298C40.9369 15.0298 40.9211 15.0298 40.9054 15.0298C40.8949 15.0298 40.8845 15.0298 40.874 15.0298C40.8635 15.0298 40.8583 15.0298 40.8478 15.0298C40.8373 15.0298 40.8269 15.0298 40.8164 15.0403C40.8059 15.0403 40.8007 15.0403 40.7902 15.0455C40.7797 15.0455 40.7692 15.0507 40.7588 15.056C40.7483 15.056 40.743 15.0612 40.7326 15.0665C40.7221 15.0665 40.7168 15.0769 40.7064 15.0769C40.6959 15.0769 40.6906 15.0874 40.6802 15.0874C40.6697 15.0874 40.6645 15.0979 40.654 15.1031C40.6435 15.1031 40.6383 15.1136 40.6278 15.1188C40.6173 15.1241 40.6068 15.1346 40.6016 15.1398C40.5964 15.1398 40.5859 15.1503 40.5806 15.1555C40.5649 15.166 40.5492 15.1817 40.5335 15.1974L38.0924 17.6385C37.8567 17.8742 37.8567 18.2566 38.0924 18.4871C38.2077 18.6024 38.3648 18.6652 38.5167 18.6652C38.6686 18.6652 38.8258 18.6076 38.941 18.4871L40.3554 17.0728V39.7655H12.6024C12.2724 39.7655 12 40.0326 12 40.3679C12 40.7031 12.2672 40.9703 12.6024 40.9703H40.9578C41.2878 40.9703 41.5602 40.7031 41.5602 40.3679V17.0728L42.9746 18.4871C43.0898 18.6024 43.247 18.6652 43.3989 18.6652C43.5508 18.6652 43.708 18.6076 43.8232 18.4871C44.0589 18.2514 44.0589 17.869 43.8232 17.6385L41.3821 15.1974H41.4031Z" fill="#EFEFEF"/>
<path d="M27.9406 27.8376H25.0752V37.052H27.9406V27.8376Z" fill="#EFEFEF"/>
<path d="M35.3312 20.8232H32.4658V37.0465H35.3312V20.8232Z" fill="#EFEFEF"/>
</svg>
