<svg viewBox="0 0 56 56" fill="none" xmlns="http://www.w3.org/2000/svg">
<path d="M21.8267 25.6074C21.2492 25.6074 20.7725 26.0749 20.7725 26.6616V44.886C20.7725 45.4635 21.24 45.9402 21.8267 45.9402H28.9404C29.518 45.9402 29.9946 45.4727 29.9946 44.886V26.6616C29.9946 26.0841 29.5271 25.6074 28.9404 25.6074H21.8267ZM27.8954 43.8409H22.8809V27.7159H27.8954V43.8409Z" fill="#444444"/>
<path d="M8.78225 32.7764C8.20472 32.7764 7.72803 33.2439 7.72803 33.8306V44.8862C7.72803 45.4637 8.19555 45.9404 8.78225 45.9404H15.896C16.4735 45.9404 16.9502 45.4729 16.9502 44.8862V33.8306C16.9502 33.2531 16.4827 32.7764 15.896 32.7764H8.78225ZM14.8509 43.8412H9.83648V34.8848H14.8509V43.8412Z" fill="#444444"/>
<path d="M33.7168 14.3867V44.886C33.7168 45.4635 34.1843 45.9402 34.771 45.9402H41.8848C42.4623 45.9402 42.939 45.4727 42.939 44.886V14.3867C42.939 13.8092 42.4714 13.3325 41.8848 13.3325H34.771C34.1935 13.3325 33.7168 13.8 33.7168 14.3867ZM35.8161 15.441H40.8305V43.8317H35.8161V15.441Z" fill="#444444"/>
<path d="M51.4554 5.5956C51.4554 5.5956 51.4004 5.54976 51.3729 5.52226C51.3637 5.51309 51.3454 5.50393 51.3362 5.49476C51.3179 5.48559 51.3087 5.46726 51.2904 5.45809C51.272 5.44892 51.2629 5.43975 51.2445 5.43059C51.2262 5.43059 51.217 5.41225 51.1987 5.40309C51.1804 5.40309 51.1712 5.38475 51.1529 5.38475C51.1345 5.38475 51.1253 5.36642 51.107 5.36642C51.0887 5.36642 51.0795 5.35725 51.0612 5.34808C51.0429 5.34808 51.0245 5.33892 51.0062 5.32975C50.9879 5.32975 50.9787 5.32975 50.9604 5.32058C50.942 5.32058 50.9237 5.31141 50.9054 5.30225C50.887 5.30225 50.8778 5.30225 50.8595 5.30225C50.8412 5.30225 50.8228 5.30225 50.8045 5.30225C50.777 5.30225 50.7495 5.30225 50.722 5.30225C50.722 5.30225 50.7037 5.30225 50.6945 5.30225C50.6853 5.30225 50.6762 5.30225 50.667 5.30225C50.6395 5.30225 50.612 5.30225 50.5845 5.30225C50.5662 5.30225 50.5478 5.30225 50.5295 5.30225C50.5112 5.30225 50.502 5.30225 50.4837 5.30225C50.4653 5.30225 50.447 5.30225 50.4287 5.32058C50.4103 5.32058 50.4011 5.32058 50.3828 5.32975C50.3645 5.32975 50.3461 5.33891 50.3278 5.34808C50.3095 5.34808 50.3003 5.35725 50.282 5.36642C50.2636 5.36642 50.2545 5.38475 50.2361 5.38475C50.2178 5.38475 50.2086 5.40309 50.1903 5.40309C50.172 5.40309 50.1628 5.42142 50.1445 5.43059C50.1261 5.43059 50.117 5.44892 50.0986 5.45809C50.0803 5.46726 50.062 5.48559 50.0528 5.49476C50.0436 5.49476 50.0253 5.51309 50.0161 5.52226C49.9886 5.54059 49.9611 5.56809 49.9336 5.5956L45.6617 9.8675C45.2492 10.28 45.2492 10.9492 45.6617 11.3526C45.8634 11.5543 46.1384 11.6643 46.4043 11.6643C46.6701 11.6643 46.9451 11.5634 47.1468 11.3526L49.6219 8.87745V48.5897H1.05423C0.476695 48.5897 0 49.0572 0 49.6439C0 50.2306 0.467528 50.6981 1.05423 50.6981H50.6762C51.2537 50.6981 51.7304 50.2306 51.7304 49.6439V8.87745L54.2055 11.3526C54.4072 11.5543 54.6822 11.6643 54.9481 11.6643C55.2139 11.6643 55.4889 11.5634 55.6906 11.3526C56.1031 10.9401 56.1031 10.2709 55.6906 9.8675L51.4187 5.5956H51.4554Z" fill="#444444"/>
<path d="M27.8963 27.7158H22.8818V43.8409H27.8963V27.7158Z" fill="#FFBA9C"/>
<path d="M40.8304 15.4409H35.8159V43.8317H40.8304V15.4409Z" fill="#FF601B"/>
</svg>
