<svg viewBox="0 0 40 40" fill="none" xmlns="http://www.w3.org/2000/svg">
<path d="M5.83303 11.2166C4.19409 13.8527 3.32791 16.8959 3.33303 19.9999C3.33303 29.2049 10.7947 36.6666 19.9997 36.6666C21.6955 36.668 23.3816 36.4106 24.9997 35.9033M33.9214 29.1666C35.7172 26.4471 36.6719 23.2588 36.6664 19.9999C36.6664 10.7949 29.2047 3.33326 19.9997 3.33326C18.3039 3.33185 16.6178 3.58926 14.9997 4.09659" stroke="white" stroke-width="1.5" stroke-linecap="round" stroke-linejoin="round"/>
<path d="M8.33333 11.6667C10.1743 11.6667 11.6667 10.1743 11.6667 8.33333C11.6667 6.49238 10.1743 5 8.33333 5C6.49238 5 5 6.49238 5 8.33333C5 10.1743 6.49238 11.6667 8.33333 11.6667Z" stroke="white" stroke-width="1.5" stroke-linecap="round" stroke-linejoin="round"/>
<path d="M31.6663 34.9999C33.5073 34.9999 34.9997 33.5075 34.9997 31.6666C34.9997 29.8256 33.5073 28.3333 31.6663 28.3333C29.8254 28.3333 28.333 29.8256 28.333 31.6666C28.333 33.5075 29.8254 34.9999 31.6663 34.9999Z" stroke="white" stroke-width="1.5" stroke-linecap="round" stroke-linejoin="round"/>
<path d="M13.3333 28.3332C15.1743 28.3332 16.6667 26.8408 16.6667 24.9998C16.6667 23.1589 15.1743 21.6665 13.3333 21.6665C11.4924 21.6665 10 23.1589 10 24.9998C10 26.8408 11.4924 28.3332 13.3333 28.3332Z" stroke="white" stroke-width="1.5" stroke-linecap="round" stroke-linejoin="round"/>
<path d="M20.0001 28.3332C21.7197 28.3328 23.3971 27.8005 24.8023 26.8092C26.2074 25.8179 27.2715 24.4161 27.8485 22.7962C28.4256 21.1763 28.4873 19.4175 28.0254 17.7611C27.5634 16.1047 26.6003 14.6318 25.2682 13.5443C23.9361 12.4569 22.3001 11.8082 20.5848 11.6872C18.8694 11.5662 17.1586 11.9788 15.687 12.8685C14.2154 13.7581 13.0551 15.0813 12.3652 16.6564C11.6752 18.2316 11.4895 19.9816 11.8334 21.6665M20.0151 19.9998H20.0001" stroke="white" stroke-width="1.5" stroke-linecap="round" stroke-linejoin="round"/>
</svg>
