<svg viewBox="0 0 40 40" fill="none" xmlns="http://www.w3.org/2000/svg">
<path d="M24.8438 9.65967L20.0391 12.4487L15.2141 9.65967L20.0391 6.87061L24.8438 9.65967ZM32.1625 13.8933L27.3375 16.6823L32.1625 19.4714L36.9672 16.6823L32.1625 13.8933ZM9.16328 20.1933L13.9883 22.9823L18.793 20.1933L13.9883 17.4042L9.16328 20.1933ZM20.0633 13.8987L15.2383 16.6878L20.0633 19.4769L24.868 16.6878L20.0633 13.8987ZM2.42188 23.3097L7.26562 26.0979V20.5511L2.42188 17.7659V23.3128V23.3097ZM31.5625 21.2784L26.7188 24.0667V29.6089L31.5625 26.8229V21.2784ZM13.9758 10.3878L9.15078 13.1769L13.9758 15.9659L18.7805 13.1769L13.9758 10.3878ZM8.51562 26.8206L13.3594 29.6089V24.0667L8.51562 21.2784V26.8253V26.8206ZM26.1258 17.4104L21.3008 20.1995L26.1258 22.9886L30.9305 20.1995L26.1258 17.4104ZM19.4531 27.5823L14.6094 24.7933V30.3401L19.4531 33.1292V27.5823ZM25.4688 24.7956L20.7031 27.5823V33.1245L25.4688 30.3386V24.7956ZM26.0992 10.3815L21.2742 13.1706L26.0992 15.9597L30.9039 13.1706L26.0992 10.3815ZM7.92734 13.8933L3.10156 16.6823L7.92656 19.4714L12.7313 16.6823L7.92734 13.8933ZM37.5781 17.7784L32.8125 20.5644V26.1065L37.5781 23.3206V17.7784ZM15.2258 23.7104L20.0508 26.4995L24.8555 23.7104L20.0508 20.9214L15.2258 23.7104Z" fill="#343434"/>
</svg>
