<svg viewBox="0 0 188 188" fill="none" xmlns="http://www.w3.org/2000/svg">
<g clip-path="url(#clip0_298_15962)">
<path d="M64.625 123.375L41.125 110.45V84.0125L64.625 71.0875L88.125 84.0125V110.45L64.625 123.375ZM52.875 103.4L64.625 109.863L76.375 103.4V90.475L64.625 84.0125L52.875 90.475V103.4ZM35.25 176.25L11.75 163.325V136.887L35.25 123.375L58.75 136.3V162.738L35.25 176.25ZM23.5 156.275L35.25 162.738L47 156.275V143.35L35.25 136.887L23.5 143.35V156.275ZM94 176.25L70.5 163.325V136.887L94 123.963L117.5 136.887V163.325L94 176.25ZM82.25 156.275L94 162.738L105.75 156.275V143.35L94 136.887L82.25 143.35V156.275ZM152.75 176.25L129.25 163.325V136.887L152.75 123.963L176.25 136.887V163.325L152.75 176.25ZM141 156.275L152.75 162.738L164.5 156.275V143.35L152.75 136.887L141 143.35V156.275ZM144.525 68.15L129.25 83.425V55.225L146.875 45.2375V18.8L123.375 5.875L99.875 18.8V45.2375L117.5 55.225V82.8375L102.225 67.5625L94 76.375L123.375 105.75L152.75 76.375L144.525 68.15ZM111.625 25.85L123.375 19.3875L135.125 25.85V38.775L123.375 45.2375L111.625 38.775V25.85Z" fill="white" />
</g>
<defs>
<clipPath id="clip0_298_15962">
<rect width="188" height="188" fill="white"/>
</clipPath>
</defs>
</svg>
