<svg viewBox="0 0 188 188" fill="none" xmlns="http://www.w3.org/2000/svg">
<path fill-rule="evenodd" clip-rule="evenodd" d="M96.7804 6.41883C95.9075 6.02182 94.9596 5.81641 94.0007 5.81641C93.0417 5.81641 92.0939 6.02182 91.221 6.41883L55.9978 22.4525L93.9738 39.7485L131.977 22.4391L96.7804 6.41883ZM49.6864 75.3343V34.3234L87.2864 51.4448V96.7663L53.5941 81.4443C52.4211 80.9108 51.4264 80.051 50.7287 78.9676C50.0311 77.8842 49.6599 76.6229 49.6595 75.3343H49.6864ZM100.715 165.467V120.615L136.328 136.837V182.159L102.676 166.837C101.941 166.502 101.285 166.038 100.715 165.467ZM149.756 182.185V136.837L187.396 119.702V160.727C187.396 162.015 187.025 163.276 186.327 164.36C185.63 165.443 184.635 166.303 183.462 166.837L149.756 182.185ZM87.2595 120.615V165.521C86.701 166.068 86.0511 166.513 85.3392 166.837L51.6335 182.185V136.837L87.2595 120.615ZM38.205 136.837V182.159L4.56641 166.837C3.39341 166.303 2.3987 165.443 1.70103 164.36C1.00336 163.276 0.632193 162.015 0.631836 160.727V119.716L38.2318 136.837H38.205ZM100.688 96.7931V51.4314L138.328 34.2965V75.3343C138.328 76.6229 137.957 77.8842 137.259 78.9676C136.562 80.051 135.567 80.9108 134.394 81.4443L100.688 96.7931ZM140.276 91.8245C141.148 91.4275 142.096 91.2221 143.055 91.2221C144.014 91.2221 144.962 91.4275 145.835 91.8245L181.018 107.831L143.015 125.141L105.079 107.831L140.289 91.7977L140.276 91.8245ZM42.1664 91.8245C43.0393 91.4275 43.9872 91.2221 44.9461 91.2221C45.9051 91.2221 46.8529 91.4275 47.7258 91.8245L82.9087 107.831L44.9193 125.154L6.95669 107.831L42.1664 91.8245Z" fill="white" />
</svg>
