<?xml version="1.0" encoding="UTF-8"?>
<svg id="Layer_1" data-name="Layer 1" xmlns="http://www.w3.org/2000/svg" viewBox="0 0 1740.69 1080">
  <defs>
    <style>
      .cls-1 {
        fill: #fff;
      }
    </style>
  </defs>
  <g>
    <path class="cls-1" d="M1077.68,913.67c-8.51-2.32-21.66-2.32-38.68-2.32-19.34,0-32.49,0-41,2.32-6.96,2.32-10.83,6.19-10.83,10.83,0,10.83,14.7,15.47,49.51,15.47,14.7,0,27.85,0,36.36-2.32,6.96,0,10.83-2.32,13.15-4.64,2.32-2.32,2.32-3.87,2.32-8.51,0-6.19-2.32-8.51-10.83-10.83Z"/>
    <path class="cls-1" d="M1030.49,829.34c4.64,0,8.51-4.64,10.83-10.83,1.55-6.19,3.87-17.02,2.32-30.17,0-17.79,0-28.62-2.32-34.81-2.32-6.19-4.64-10.83-10.83-10.83-4.64,0-8.51,4.64-10.83,10.83-2.32,6.96-4.64,19.34-4.64,34.81,0,25.53,4.64,41,15.47,41Z"/>
    <path class="cls-1" d="M686.99,762.03c-1.55-8.51-8.51-13.15-17.02-13.15s-14.7,4.64-17.02,13.15c-2.32,9.28-4.64,23.98-4.64,45.64s2.32,37.13,4.64,45.64c1.55,8.51,8.51,13.15,17.02,13.15s14.7-4.64,17.02-13.15c3.87-8.51,6.19-23.98,4.64-45.64,0-21.66,0-37.13-4.64-45.64Z"/>
    <path class="cls-1" d="M1551.15,751.98c-4.64,0-6.19,0-10.83,2.32-3.87,2.32-6.19,3.87-8.51,8.51-2.32,6.19-4.64,12.38-4.64,25.53h47.97c0-10.06-2.32-19.34-4.64-25.53-3.87-6.19-10.83-10.83-19.34-10.83Z"/>
    <path class="cls-1" d="M1664.87,978.65c-13.15,0-23.98,9.28-23.98,23.98s10.83,25.53,23.98,25.53c7.16,0,13.63-3.21,18.04-8.51h-5.66l-8.51-15.47h-6.19v15.47h-6.19v-34.81h13.15c6.19,0,10.83,4.64,10.83,10.83s-4.64,8.51-7.74,8.51l10.59,15.13c3.52-4.39,5.66-10.15,5.66-16.67,0-13.15-10.83-23.98-23.98-23.98Z"/>
    <path class="cls-1" d="M1667.19,991.03h-6.19v10.83h0s3.87,0,3.87,0c3.87,0,8.51,0,8.51-6.19,0-4.64-1.55-4.64-6.19-4.64Z"/>
    <path class="cls-1" d="M0,507.51v572.49h1740.69V507.51H0ZM1394.87,665.33c3.87-6.19,13.15-8.51,19.34-8.51s13.15,2.32,19.34,8.51c6.19,3.87,8.51,13.15,8.51,19.34s-2.32,13.15-8.51,19.34c-3.87,6.19-10.83,8.51-19.34,8.51s-14.7-2.32-19.34-3.87c-6.19-6.19-8.51-13.15-8.51-21.66s2.32-15.47,8.51-21.66ZM280.83,872.66c-8.51,8.51-19.34,12.38-32.49,17.02-13.15,2.32-21.66,4.64-32.49,4.64s-25.53-1.55-41-6.19c-8.51-2.32-17.02-6.96-25.53-13.15l-8.51,17.02h-25.53v-82.01h27.85c2.32,13.15,13.15,28.62,19.34,34.81,10.83,10.83,25.53,17.02,41,17.02,10.83,0,19.34-2.32,30.17-8.51,6.19-3.87,8.51-10.83,8.51-19.34s-3.87-14.7-8.51-19.34c-6.19-4.64-14.7-8.51-27.85-10.83-38.68-8.51-62.66-19.34-73.5-30.17-13.15-13.15-19.34-30.17-19.34-49.51,0-21.66,6.19-36.36,17.02-49.51,15.47-15.47,37.13-23.98,67.31-23.98,15.47,0,26.3,2.32,34.81,4.64,8.51,2.32,17.02,9.28,27.85,15.47l6.19-8.51h25.53v62.66h-27.85c-2.32-10.83-13.15-23.21-19.34-27.85-10.83-8.51-23.21-13.15-38.68-13.15-10.83,0-17.79,2.32-23.98,8.51s-8.51,13.15-8.51,19.34c0,6.96,1.55,10.83,6.19,13.15,4.64,2.32,10.83,6.19,21.66,8.51,23.98,6.96,41,10.83,51.83,15.47,10.06,4.64,19.34,9.28,25.53,15.47,15.47,13.15,23.98,32.49,23.98,54.15,0,21.66-6.19,38.68-21.66,54.15ZM422.41,833.98c0,10.83,0,17.79-2.32,23.98,0,4.64-1.55,10.83-6.19,15.47-8.51,13.15-23.98,19.34-43.32,19.34-21.66,0-34.81-6.19-43.32-19.34-3.87-6.19-6.19-10.83-6.19-17.02-2.32-6.19-2.32-14.7-2.32-27.85v-77.36h-17.02v-25.53c21.66-2.32,36.36-26.3,38.68-64.99h34.81v62.66h34.81v27.85h-34.04v86.65c0,10.83,0,17.02,2.32,19.34,2.32,3.87,3.87,6.19,8.51,6.19,1.55,0,6.19-2.32,6.19-8.51,2.32-3.87,2.32-12.38,2.32-27.85,0,0,0-14.7-.77-14.7h27.85v21.66ZM576.36,761.26c0,8.51-1.55,17.79-6.19,23.98-3.87,6.19-10.83,8.51-19.34,8.51-6.19,0-12.38-2.32-17.02-8.51-2.32-4.64-4.64-9.28-4.64-15.47,0-6.96,2.32-10.83,4.64-13.15,2.32-3.87,6.19-6.19,10.83-8.51-3.87-2.32-6.19-2.32-8.51-2.32-6.19,0-12.38,6.96-17.02,15.47-3.87,9.28-6.19,19.34-6.19,34.81v51.83c0,6.96,0,10.83,2.32,13.15,2.32,0,4.64,2.32,10.83,2.32h2.32v27.85h-88.19v-27.85h2.32c6.19,0,8.51,0,10.83-2.32,2.32-2.32,2.32-6.96,2.32-13.15v-75.82c0-6.96,0-10.83-2.32-13.15-2.32,0-6.19-2.32-10.83-2.32h-8.51v-27.85h73.5v17.02c8.51-8.51,13.15-14.7,19.34-17.02,3.87-2.32,13.15-4.64,19.34-4.64,8.51,0,15.47,1.55,21.66,6.19,6.96,6.19,10.83,17.02,8.51,30.95ZM731.86,872.66c-15.47,15.47-37.13,23.98-62.66,23.98s-47.19-8.51-62.66-23.98-23.98-37.13-23.98-64.99c0-26.3,8.51-47.19,23.98-62.66s37.13-23.98,62.66-23.98,47.97,6.96,62.66,23.98c15.47,15.47,23.98,39.46,23.98,64.99s-8.51,47.19-23.98,62.66ZM943.84,885.82h-83.55v-27.85c6.19,0,8.51,0,10.83-2.32,2.32-2.32,2.32-6.96,2.32-13.15v-62.66c0-19.34-6.19-30.17-19.34-30.17-8.51,0-12.38,2.32-17.02,8.51-3.87,6.19-6.19,14.7-6.19,27.85v56.48c0,6.96,0,10.83,2.32,13.15,2.32,0,6.19,2.32,10.83,2.32v27.85h-82.01v-27.85c6.19,0,8.51,0,10.83-2.32s2.32-6.96,2.32-13.15v-75.82c0-6.96,0-13.15-2.32-13.15s-6.19-2.32-10.83-2.32h-2.32v-27.85h67.31v25.53c8.51-10.83,17.79-17.02,23.98-21.66,8.51-3.87,19.34-6.19,30.17-6.19,17.02,0,30.17,6.96,38.68,15.47,3.87,3.87,6.19,10.83,8.51,17.02l2.32,30.17v62.66c0,6.96,0,10.83,2.32,13.15,0,2.32,4.64,2.32,10.83-1.55v27.85ZM1122.55,937.65c-3.87,6.19-10.83,12.38-17.02,17.02-13.15,6.19-36.36,10.83-71.17,10.83-50.29,0-75.82-13.15-75.82-34.81,0-6.19,1.55-12.38,6.19-17.02,3.87-4.64,10.83-8.51,19.34-10.83-8.51-4.64-14.7-10.83-17.02-15.47-2.32-6.19-4.64-13.15-4.64-19.34,0-8.51,0-14.7,4.64-19.34,3.87-4.64,10.83-10.83,19.34-15.47-9.28-8.51-13.15-17.79-15.47-23.98-2.32-6.96-4.64-15.47-4.64-23.98,0-23.98,6.19-41,21.66-51.83,12.38-8.51,27.85-13.15,47.19-13.15,8.51,0,17.79,0,23.98,2.32,6.19,2.32,13.15,6.96,21.66,13.15,6.19-6.96,12.38-10.83,17.02-13.15,4.64,0,9.28-2.32,15.47-2.32,10.06,0,19.34,2.32,25.53,10.83,6.19,6.19,8.51,13.15,8.51,21.66,0,10.83-4.64,17.02-10.83,21.66-2.32,2.32-6.19,4.64-10.83,4.64-6.96,0-10.83-1.55-15.47-6.19-2.32-1.55-4.64-8.51-1.55-13.15,0-3.87,2.32-10.83,8.51-17.02-1.55-2.32-3.87-4.64-6.19-4.64-3.87,0-10.83,4.64-17.02,10.83,3.87,6.19,6.19,10.83,8.51,17.02,2.32,6.19,2.32,13.15,2.32,19.34,0,10.83-1.55,21.66-6.19,30.17-3.87,8.51-10.83,17.02-17.02,21.66-12.38,10.83-27.85,15.47-47.19,15.47-8.51,0-17.02-1.55-30.17-6.19-2.32,2.32-2.32,6.19-2.32,8.51,0,6.19,2.32,8.51,8.51,10.83,3.87,2.32,17.02,2.32,36.36,2.32h27.85c19.34,0,32.49,4.64,41,10.83,8.51,9.28,13.15,19.34,13.15,34.81,0,8.51-1.55,17.79-6.19,23.98ZM1131.83,794.53h73.5v38.68h-73.5v-38.68ZM1363.93,726.45h-27.85c-2.32-13.15-8.51-19.34-10.83-23.98-4.64-4.64-8.51-8.51-13.15-10.83-3.87,0-10.83-2.32-19.34-2.32v160.92c0,2.32,2.32,2.32,4.64,4.64,2.32,0,6.19,2.32,19.34,2.32v30.17h-112.18v-30.17c13.15,0,14.7,0,19.34-2.32,2.32,0,4.64-2.32,4.64-4.64v-161.69c-8.51,0-17.02,2.32-21.66,4.64-6.19,4.64-19.34,17.02-19.34,32.49h-26.3v.77h-1.55v-.77h1.55v-68.08h202.69v68.85ZM1462.18,887.36h-88.97v-27.85h4.64c4.64,0,8.51,0,10.83-2.32,2.32-2.32,2.32-6.96,2.32-13.15v-68.85c0-8.51,0-14.7-2.32-17.02,0,0-4.64-2.32-10.83-2.32h-4.64v-30.17h73.5v118.37c0,9.28,0,13.15,2.32,15.47,0,2.32,4.64,2.32,10.83,0h2.32v27.85ZM1627.74,815.42h-101.35c0,8.51,0,17.02,2.32,21.66,0,4.64,2.32,8.51,4.64,13.15,4.64,8.51,13.15,13.15,23.98,13.15s19.34-4.64,23.98-10.83c1.55-1.55,3.87-8.51,6.19-17.02h36.36c-8.51,41-34.81,60.34-73.5,60.34-21.66,0-38.68-6.19-51.83-19.34-17.02-15.47-25.53-39.46-25.53-67.31,0-26.3,6.19-47.19,19.34-62.66,12.38-17.02,32.49-25.53,58.02-25.53,23.98,0,43.32,8.51,56.48,23.98,13.15,15.47,19.34,37.13,20.89,64.21v6.19ZM1664.87,1032.03c-17.02,0-30.17-13.15-30.17-30.17,0-14.7,14.7-27.85,30.17-27.85,17.79,0,30.17,13.15,30.17,27.85,0,17.02-14.7,30.17-30.17,30.17Z"/>
  </g>
  <g>
    <path class="cls-1" d="M1280.37,167.11c-38.68,0-54.15,34.81-54.15,68.85s15.47,68.85,54.15,68.85,51.83-34.81,54.15-68.85c0-34.04-15.47-68.85-54.15-68.85Z"/>
    <path class="cls-1" d="M842.49,168.65h-41v58.02h41c19.34,0,32.49-6.19,32.49-27.85s-13.15-30.17-32.49-30.17Z"/>
    <path class="cls-1" d="M0,0v461.86h1740.69V0H0ZM318.74,282.38c0,58.02-47.19,77.36-99.03,77.36s-99.03-23.98-99.03-82.01h58.02c0,27.85,17.79,36.36,43.32,36.36,17.02,0,36.36-6.96,36.36-23.98,0-21.66-32.49-26.3-67.31-34.81-32.49-9.28-67.31-23.98-67.31-67.31,0-51.83,51.83-71.17,95.16-71.17,45.64,0,92.84,21.66,92.84,73.5h-60.34c2.32-21.66-17.02-27.85-36.36-27.85-12.38,0-27.85,3.87-27.85,19.34,0,17.02,32.49,21.66,67.31,30.17,32.49,10.83,67.31,25.53,64.21,70.4ZM410.03,352.01h-60.34V120.69h60.34v231.32ZM706.33,352.01h-56.48v-174.84h-2.32l-47.19,174.84h-45.64l-49.51-174.84v174.84h-55.7V120.69h88.19l38.68,153.95h2.32l38.68-153.95h88.97v231.32ZM852.55,274.64h-49.51v77.36h-60.34V120.69h110.63c41,0,82.01,19.34,83.55,74.27,0,58.02-32.49,79.68-84.33,79.68ZM1045.19,359.74c-51.83,0-99.03-23.98-99.03-82.01h60.34c0,27.85,17.79,36.36,43.32,36.36,17.02,0,36.36-6.96,36.36-23.98,0-21.66-32.49-26.3-67.31-34.81-32.49-9.28-67.31-23.98-67.31-67.31,0-51.83,51.83-71.17,95.16-71.17,45.64,0,92.84,21.66,92.84,73.5h-60.34c2.32-21.66-17.02-27.85-36.36-27.85-13.15,0-30.17,3.87-30.17,19.34,0,17.02,32.49,21.66,67.31,30.17,32.49,10.83,66.53,25.53,64.21,70.4,2.32,58.02-47.19,77.36-99.03,77.36ZM1280.37,358.19c-73.5,0-114.5-54.15-114.5-120.69s41-120.69,114.5-120.69,112.95,51.83,114.5,120.69c0,66.53-41,120.69-114.5,120.69ZM1617.68,352.01h-60.34l-80.46-144.67h-1.55v144.67h-56.48V120.69h62.66l79.68,143.12V120.69h56.48v231.32Z"/>
  </g>
</svg>