<?xml version="1.0" encoding="UTF-8" standalone="no"?>
<!DOCTYPE svg PUBLIC "-//W3C//DTD SVG 1.1//EN" "http://www.w3.org/Graphics/SVG/1.1/DTD/svg11.dtd">
<svg width="100%" height="100%" viewBox="0 0 960 960" version="1.1" xmlns="http://www.w3.org/2000/svg" xmlns:xlink="http://www.w3.org/1999/xlink" xml:space="preserve" xmlns:serif="http://www.serif.com/" style="fill-rule:evenodd;clip-rule:evenodd;stroke-miterlimit:10;">
    <g id="face">
        <g transform="matrix(1,0,0,1,368.8984,697.6652)">
            <path d="M4.145,-606.427L86.296,-568.566L127.906,-596.332L190.127,-591.64L247.436,-557.562L294.716,-490.989C294.716,-490.989 252.881,-439.129 252.881,-436.033C252.881,-432.937 254.433,-384.949 254.433,-384.949L307.812,-353.215L334.102,-270.957L334.102,-124.897L198.299,8.997L-22.845,20.606L-146.101,32.99L-187.898,-121.801L-187.898,-194.553L-195.512,-263.435L-176.563,-343.926L-166.741,-419L-142.374,-475.498L-113.179,-522.71L-59.008,-565.277L4.145,-606.427Z" style="fill:rgb(254,254,254);fill-rule:nonzero;"/>
        </g>
        <g transform="matrix(1,0,0,1,731.2061,593.5098)">
            <path d="M0,-132.481L9.577,-166.729L30.982,-182.6C30.982,-182.6 38.651,-186.514 45.973,-185.583C53.293,-184.651 63.364,-179.209 66.075,-174.565C68.785,-169.921 78.847,-148.154 79.04,-136.544C79.233,-124.935 79.04,-112.842 79.04,-108.585C79.04,-104.329 76.459,-87.664 75.751,-81.981C75.042,-76.298 76.331,-48.895 72.833,-20.035C71.732,-10.957 65.008,24.563 64.285,28.043C63.563,31.522 56.596,42.819 55.145,44.852C53.693,46.883 51.448,54.033 47.308,53.268C43.167,52.502 34.109,50.365 34.109,50.365L-6.966,-76.757L0,-132.481Z" style="fill:rgb(254,254,254);fill-rule:nonzero;"/>
        </g>
    </g>
    <g id="beard-gray-thin-2" serif:id="beard gray thin 2">
        <g transform="matrix(1,0,0,1,697.6641,881.4271)">
            <path d="M0,-497.39L-27.691,-487.805L-19.171,-448.397L-13.846,-414.314C-13.846,-414.314 -4.046,-368.766 -6.391,-361.061C-8.735,-353.355 -31.952,-326.978 -31.952,-326.978L-66.201,-303.242C-66.201,-303.242 -82.011,-277.985 -86.271,-275.855C-90.531,-273.724 -103.932,-241.518 -103.932,-241.518L-130.246,-219.074L-144.851,-187.453L-131.004,-99.052L-118.224,-47.929L-144.851,0C-144.851,0 -113.336,-10.558 -107.802,-13.202C-102.268,-15.846 -67.486,-31.412 -61.074,-35.259C-45.111,-44.837 -18.769,-82.297 -12.605,-87.308C-6.441,-92.319 11.264,-117.417 16.708,-125.522C22.152,-133.626 52.117,-184.149 56.471,-195.178C59.482,-202.809 76.787,-225.226 76.787,-234.165C76.787,-243.105 62.275,-282.778 62.275,-282.778L52.407,-336.812L39.443,-383.152C39.443,-383.152 39.368,-419.336 40.411,-428.815C41.453,-438.295 47.141,-455.071 64.79,-469.061C72.724,-475.349 73.884,-471.189 43.797,-481.541C37.758,-483.619 0,-497.39 0,-497.39" style="fill:rgb(204,204,204);fill-rule:nonzero;"/>
        </g>
        <g transform="matrix(1,0,0,1,181.7949,860.68)">
            <path d="M0,-389.307L11.023,-348.834C11.023,-348.834 7.577,-299.104 9.481,-292.555C12.104,-283.535 12.568,-249.349 20.51,-230.252C25.71,-217.747 39.859,-202.197 39.859,-202.197C39.859,-202.197 60.637,-181.162 62.69,-177.43C66.947,-169.691 83.007,-144.536 83.007,-144.536L100.49,-102.802L119.661,-34.637L115.126,0C115.126,0 80.381,-17.414 62.473,-44.624C59.601,-48.989 49.98,-62.709 49.98,-62.709C49.98,-62.709 28.93,-108.134 22.445,-123.447C18.419,-132.952 1.668,-216.256 0,-225.221C-3.096,-241.862 -3.823,-297.04 -1.548,-308.421C-0.335,-314.489 0,-355.245 0,-368.005L0,-389.307Z" style="fill:rgb(204,204,204);fill-rule:nonzero;"/>
        </g>
        <g transform="matrix(1,0,0,1,351.0337,819.6291)">
            <path d="M0,-148.301C0,-148.301 42.413,-149.897 45.705,-150.611C50.113,-151.566 88.143,-158.582 88.143,-158.582L96.489,-160.946L101.969,-164.557L88.567,-165.974L68.722,-164.535L33.767,-165.715L14.716,-161.209C14.716,-161.209 -13.097,-155.227 -17.355,-155.354C-21.614,-155.482 -36.245,-149.967 -36.245,-149.967L0,-148.301ZM-3.516,-256C-3.516,-256 8.551,-245.284 13.049,-243.543C17.548,-241.802 30.441,-239.896 37.552,-241.637C44.663,-243.378 53.175,-247.52 59.32,-250.634C69.914,-256.003 91.612,-255.327 96.76,-253.536C107.188,-249.908 131.826,-236.414 136.086,-234.284C140.347,-232.155 176.04,-222.094 179.234,-222.094C185.039,-222.094 202.748,-213.968 209.418,-201.004C215.068,-190.026 220.834,-132.995 220.834,-129.8C220.834,-126.605 241.781,-63.436 243.472,-58.984C256.629,-24.349 240.941,5.712 238.829,11.253C236.932,16.229 227.081,53.349 223.565,54.326C220.049,55.303 196.707,65.488 187.941,69.686C183.368,71.877 131.781,92.446 125.832,93.679C125.524,93.743 125.255,93.822 124.962,93.937C121.02,95.48 88.97,107.702 62.367,107.595C49.41,107.545 -4.649,98.907 -15.608,94.646C-26.568,90.386 -46.954,61.515 -52.952,57.303C-57.646,54.007 -89.22,26.065 -93.004,19.573C-104.116,0.507 -129.212,-27.996 -123.769,-35.958C-110.805,-54.92 -91.167,-98.065 -90.102,-102.324C-89.037,-106.585 -91.456,-122.764 -91.456,-138.437C-91.456,-154.109 -81.977,-181.039 -79.847,-186.898C-77.717,-192.755 -73.258,-207.306 -66.619,-210.862C-60.511,-214.132 -28.476,-239.609 -25.428,-253.391C-17.882,-242.511 -3.516,-256 -3.516,-256" style="fill:rgb(204,204,204);fill-rule:nonzero;"/>
        </g>
        <g transform="matrix(1,0,0,1,411.0791,349.6661)">
            <path d="M0,28.269C-2.902,20.519 -3.483,12.124 0,7.325C3.483,2.525 30.765,-3.86 34.248,-4.44C37.73,-5.021 71.413,-12.567 79.241,-11.406C87.07,-10.245 117.835,-7.923 123.64,-7.343C129.444,-6.762 160.789,-0.958 161.95,0.784C163.111,2.525 174.14,8.371 174.14,8.371L153.243,16.456L51.081,22.061L6.385,40.836L0,28.269Z" style="fill:rgb(204,204,204);fill-rule:nonzero;"/>
        </g>
        <g transform="matrix(1,0,0,1,346.0669,368.5763)">
            <path d="M0,24.828C-7.687,18.425 -17.563,1.895 -24.186,-0.325C-32.506,-3.115 -58.627,-4.063 -71.978,-2.841C-85.329,-1.619 -106.985,-0.857 -113.771,1.416C-123.143,4.554 -130.617,13.572 -132.346,15.567C-134.769,18.364 -143.956,28.891 -143.956,28.891L-101.582,18.443L-47.018,15.567L-15.672,21.926L0,24.828Z" style="fill:rgb(204,204,204);fill-rule:nonzero;"/>
        </g>
    </g>
    <g id="nose">
        <g transform="matrix(-0.81475,0.579812,0.579812,0.81475,357.062166,562.575078)">
            <path d="M12.176,-19.373C12.176,-19.373 10.584,-13.241 8.387,-4.676C6.19,3.89 10.412,0.798 12.176,-1.854C13.939,-4.505 17.158,-8.368 15.792,-11.79C14.426,-15.21 12.176,-19.373 12.176,-19.373" style="fill:rgb(128,128,128);fill-rule:nonzero;"/>
        </g>
        <g transform="matrix(1,0,0,1,383.8955,545.5442)">
            <path d="M0,15.198C1.667,14.044 -1.066,15.198 2.034,13.002C9.001,8.064 17.633,3.297 20.798,2.844C24.862,2.264 32.408,-0.058 38.793,2.844C45.178,5.747 47.5,7.295 47.5,7.295C47.5,7.295 45.372,13.486 35.117,14.454C26.621,15.256 25.662,9.464 19.057,9.27C13.076,9.095 0,15.198 0,15.198" style="fill:rgb(128,128,128);fill-rule:nonzero;"/>
        </g>
        <g transform="matrix(1,0,0,1,433.1396,544.7437)">
            <path d="M0,20.062C7.231,18.716 18.264,16.424 22.424,13.02C26.585,9.616 29.685,4.465 31.13,0" style="fill:none;fill-rule:nonzero;stroke:rgb(204,204,204);stroke-width:1px;"/>
        </g>
        <g transform="matrix(1,0,0,1,324.0093,564.9319)">
            <path d="M0,-31.635C-2.032,-26.991 -7.256,-19.55 -4.644,-11.081C-2.032,-2.613 0,0 0,0" style="fill:none;fill-rule:nonzero;stroke:rgb(230,230,230);stroke-width:1px;"/>
        </g>
    </g>
    <g id="Hair-lighter-copy-2" serif:id="Hair lighter copy 2">
        <g transform="matrix(1,0,0,1,377.646,144.7772)">
            <path d="M0,0.007C0.081,0 0.073,0.001 0,0.007" style="fill:rgb(241,90,36);fill-rule:nonzero;"/>
        </g>
        <g transform="matrix(1,0,0,1,522.9922,122.4188)">
            <path d="M0,-51.514L-18.106,-54.709L-27.692,-63.23L-52.189,-66.425L-74.556,-77.076L-93.727,-76.011L-106.508,-81.336L-113.963,-76.011L-123.549,-81.336L-131.068,-89.484L-132.133,-84.066L-135.132,-89.484L-134.164,-79.326L-138.614,-84.356L-140.297,-87.707L-142.194,-86.097L-142.774,-80.003L-144.419,-82.421L-145.882,-79.208L-147.805,-75.069L-150.417,-77.197L-152.352,-72.554L-154.674,-70.232L-158.834,-76.714L-161.156,-69.651L-166.332,-65.394L-169.946,-66.541L-176.2,-62.057L-183.162,-59.725L-196.516,-49.286L-208.171,-42.512L-213.93,-34.485L-228.587,-3.575L-236.133,-3.575L-238.07,3.926L-241.357,2.036L-239.673,11.019L-244.646,12.291L-244.423,15.24C-238.929,18.006 -246.674,34.081 -239.492,34.081C-237.62,34.081 -223,23.714 -222.993,27.778L-218.448,37.97L-210.327,36.347L-208.416,31.253L-204.578,35.198L-191.714,32.627C-191.714,32.627 -187.37,31.373 -181.68,29.784C-180.056,29.331 -182.294,13.985 -180.553,7.744C-179.973,13.404 -175.307,27.137 -172.136,26.319C-170.142,25.804 -167.311,25.229 -164.564,24.719C-163.603,24.541 -160.962,19.209 -160.962,19.209C-160.962,19.209 -156.75,23.392 -156.028,23.32C-154.637,23.181 -146.113,22.433 -145.346,22.365C-145.346,22.365 -152.352,-7.445 -146.741,-23.891C-150.998,-5.316 -139.872,22.111 -139.872,22.111L-136.728,22.111C-136.728,22.111 -139.973,12.027 -140.163,-4.929C-138.614,12.291 -129.908,22.111 -129.908,22.111L-128.529,22.111C-128.529,22.111 -120.406,22.611 -118.547,22.082C-117.416,21.759 -117.863,14.855 -117.863,14.855C-117.863,14.855 -114.208,21.774 -111.042,21.494C-107.434,21.175 -97.692,14.275 -97.692,14.275L-92.622,17.438C-90.802,18.573 -88.627,18.984 -86.519,18.588C-83.468,18.014 -79.295,17.249 -78.718,17.249C-77.716,17.249 -72.712,16.46 -67.641,14.736C-66.233,14.257 -64.746,13.742 -63.222,13.208C-61.588,12.635 -60.542,8.18 -60.542,8.18C-60.542,8.18 -54.302,9.631 -47.362,7.49C-43.208,6.209 -40.474,4.935 -40.474,4.935L-15.977,-12.106L-7.462,-12.532C-7.722,-12.652 -7.992,-12.898 -7.992,-13.419C-7.992,-12.898 -7.722,-12.652 -7.462,-12.532L-6.973,-12.556C0.518,-16.441 59.393,-17.894 57.508,-31.419C57.175,-33.808 47.568,-40.222 43.383,-43.169L0,-51.514Z" style="fill:rgb(13,193,231);fill-rule:nonzero;"/>
        </g>
        <g transform="matrix(1,0,0,1,787.8018,98.857)">
            <path d="M0,304.415L0,295.831L-4.645,262.622L-4.645,253.227L-9.581,221.275L-16.254,204.575L-16.254,192.519L-25.541,183.678L-25.541,153.111C-25.541,149.915 -35.473,133.939 -35.473,133.939L-46.631,119.634L-53.403,101.987L-65.913,91.336L-71.979,81.807L-79.487,77.49L-81.266,71.358L-87.032,68.02L-94.616,58.298L-104.194,53.074L-116.094,44.367L-116.094,37.018L-128.145,34.888L-135.539,26.953L-143.371,26.973L-146.587,25.302L-157.887,16.794L-166.265,15.827L-174.431,8.378L-194.605,2.392L-207.302,-7.857C-207.302,-7.857 -213.447,-9.997 -218.521,-9.056C-224.521,-10.574 -234.45,-12.717 -231.95,-8.8C-237.617,-6.883 -241.187,-6.775 -244.968,-8.107C-244.592,-4.044 -247.401,-1.739 -250.401,2.261C-250.484,1.115 -253.804,-0.231 -253.922,-0.989C-254.172,2.698 -256.407,2.894 -256.408,7.082C-259.408,5.082 -258.526,3.636 -258.526,1.636C-260.511,7.59 -270.819,5.036 -271.782,11.005L-259.484,10.391L-233.923,16.781L-221.142,22.106L-208.581,32.951L-198.775,34.888L-185.994,45.538L-180.525,53.848L-170.019,57.254L-165.758,66.84L-145.521,94.532L-152.978,117.963L-176.075,139.563C-176.49,139.96 -176.865,140.397 -177.196,140.867L-188.08,155.982C-188.26,156.284 -188.44,156.585 -188.62,156.887C-190.339,160.554 -190.876,164.669 -190.151,168.661L-181.734,204.234L-173.214,235.122L-129.546,258.553L-90.138,302.221L-36.884,311.807C-36.884,311.807 -14.512,308.188 -6.434,309.267C1.645,310.346 6.784,317.132 6.784,317.132L0,304.415Z" style="fill:rgb(230,230,230);fill-rule:nonzero;"/>
        </g>
        <g transform="matrix(1,0,0,1,295.8125,390.636)">
            <path d="M0,-249.136C-0.459,-247.96 -4.687,-252.352 -3.563,-249.011C-5.381,-250.42 -12.858,-253.962 -10.75,-250.636C-15,-254.886 -15.87,-252.286 -17.243,-252.977L-16.499,-243.156L-23.465,-245.478L-28.689,-235.803L-32.172,-238.125L-32.752,-234.448L-43.434,-234.679L-50.954,-235.318L-50.94,-227.096L-54.455,-221.526L-59.841,-220.905L-61.195,-210.843L-65.258,-199.378L-74.546,-182.4L-74.546,-169.555L-83.977,-149.319L-95.442,-133.641L-95.442,-122.692L-104.73,-92.87L-104.73,-59.853L-114.018,-45.41L-114.018,4.051L-99.505,5.75L-90.799,-38.445C-90.799,-38.445 -86.445,-71.24 -86.349,-74.434C-86.061,-83.92 -86.246,-110.976 -84.115,-120.562C-81.985,-130.148 -58.261,-161.914 -58.261,-161.914L-33.636,-208.963L4.011,-240.834L4.187,-240.439C4.179,-244.504 0.681,-250.88 0,-249.136" style="fill:rgb(230,230,230);fill-rule:nonzero;"/>
        </g>
    </g>
    <g id="Ear">
        <g transform="matrix(1,0,0,1,769.7344,629.0644)">
            <path d="M0,-41.204C3.852,-42.761 8.876,-42.752 11.634,-38.882C14.391,-35.013 18.728,-22.484 18.647,-14.793C18.572,-7.593 16.325,1.557 7.231,-9.472C-1.862,-20.501 -3.656,-27.784 -4.378,-34.045C-4.823,-37.915 -1.558,-40.574 0,-41.204" style="fill-rule:nonzero;"/>
        </g>
        <g transform="matrix(1,0,0,1,762.1885,494.9622)">
            <path d="M0,-60.49C3.846,-63.465 9.612,-65.158 13.205,-63.61C16.799,-62.062 20.969,-56.862 23.291,-55.701C25.613,-54.54 27.935,-54.54 29.87,-51.445C31.805,-48.348 36.835,-41.383 36.835,-35.578C36.835,-29.774 36.448,-11.198 35.287,-6.555C34.126,-1.911 32.966,4.668 32.578,2.732C32.191,0.798 26.473,-11.511 24.307,-16.375C19.881,-26.315 23.221,-30.927 14.874,-40.391C13.023,-42.49 4.257,-49.884 3.127,-52.992C2.002,-56.086 0,-60.49 0,-60.49" style="fill:rgb(153,153,153);fill-rule:nonzero;"/>
        </g>
        <g transform="matrix(1,0,0,1,745.2344,547.2277)">
            <path d="M0,-66.173C0,-66.173 -3.097,-60.755 -2.709,-57.659C-2.322,-54.564 -2.322,-51.071 1.548,-47.981C5.417,-44.89 5.03,-33.667 7.353,-29.797C9.674,-25.927 5.417,-19.349 5.805,-17.801C6.191,-16.253 8.049,0 8.049,0C8.049,0 13.568,-2.177 15.503,-4.498C17.437,-6.82 23.365,-2.815 24.426,-5.02C28.152,-12.771 33.954,-12.128 31.248,-17.559C21.211,-37.706 17.776,-42.229 12.77,-46.292C8.301,-49.919 4.256,-54.564 3.047,-57.708C2.014,-60.394 3.096,-63.464 0,-66.173" style="fill:rgb(179,179,179);fill-rule:nonzero;"/>
        </g>
        <g transform="matrix(1,0,0,1,794.7178,544.6155)">
            <path d="M0,-52.387C0.29,-46.389 -0.821,-40.632 0.049,-35.118C0.92,-29.604 3.241,-21.477 2.371,-15.963C1.5,-10.449 0.63,-1.741 -2.563,0" style="fill:none;fill-rule:nonzero;stroke:rgb(153,153,153);stroke-width:1px;"/>
        </g>
        <g transform="matrix(1,0,0,1,757.3994,433.1657)">
            <path d="M0,7.408C0,7.408 2.7,3.997 5.022,3.704C7.344,3.41 9.101,2.177 9.101,2.177L9.101,0C9.101,0 7.78,0.718 4.587,2.54C2.891,3.507 0.218,6.972 0.218,6.972" style="fill:none;fill-rule:nonzero;stroke:rgb(153,153,153);stroke-width:1px;stroke-linecap:round;"/>
        </g>
        <g transform="matrix(1,0,0,1,771.5479,573.3495)">
            <path d="M0,72.17C1.742,73.331 8.32,75.653 13.352,70.816C18.382,65.979 22.928,58.433 23.17,54.757C23.413,51.08 23.188,47.715 24.743,42.155C26.509,35.843 29.967,15.454 33.087,-3.483C33.159,-0.001 25.178,30.038 20.801,54.273C20.061,58.371 11.393,70.671 7.474,70.961C4.757,71.162 1.161,69.849 0.388,69.655C-0.387,69.462 0,72.17 0,72.17" style="fill:rgb(204,204,204);fill-rule:nonzero;"/>
        </g>
    </g>
    <g id="Glasses-bottom" serif:id="Glasses bottom">
        <g transform="matrix(1,0,0,1,184.6973,507.7178)">
            <path d="M0,-61.104C0,-61.104 6.966,-35.951 9.288,-30.146C11.609,-24.341 20.316,2.94 64.045,5.456C107.773,7.972 138.731,-9.442 145.503,-17.956C152.276,-26.47 163.444,-59.851 163.161,-73.122C162.878,-86.392 172.592,-79.873 172.592,-79.873C172.592,-79.873 174.012,-76.187 174.285,-66.28C174.354,-63.766 166.836,-50.752 165.868,-47.27C164.901,-43.787 160.402,-27.099 159.048,-24.196C157.693,-21.294 155.397,-13.166 144.391,-5.186C132.782,3.23 66.028,25.288 27.717,4.102C-6.759,-14.965 -13.737,-60.523 -13.157,-61.685C-12.577,-62.846 0,-61.104 0,-61.104" style="fill:rgb(204,204,204);fill-rule:nonzero;"/>
        </g>
        <g transform="matrix(1,0,0,1,411.2725,488.0168)">
            <path d="M0,-59.591C2.007,-55.708 3.483,-48.562 5.998,-43.531C8.514,-38.501 21.407,-11.013 43.729,0.197C66.331,11.548 148.551,7.114 162.903,-20.814C176.013,-46.321 174.281,-68.477 174.67,-72.035C175.058,-75.593 182.073,-75.844 182.073,-75.844C182.073,-75.844 188.888,-79.467 188.457,-74.441C188.042,-69.604 188.321,-44.636 171.044,-15.959C156.968,7.404 72.076,19.876 35.795,4.357C10.69,-6.382 -10.073,-46.724 -9.493,-56.011C-8.912,-65.299 0,-59.591 0,-59.591" style="fill:rgb(204,204,204);fill-rule:nonzero;"/>
        </g>
    </g>
    <g id="Glasses">
        <g transform="matrix(1,0,0,1,149.8696,399.9503)">
            <path d="M0,6.224C0.289,0.725 8.852,-0.306 12.915,-1.467C16.979,-2.628 76.186,-17.575 121.172,-19.752C132.897,-20.319 172.398,-16.124 184.733,-12.931C193.161,-10.75 204.54,-10.066 205.339,-10.174C223.912,-12.689 243.622,-13.574 243.622,-13.574C243.622,-13.574 251.254,-13.861 255.985,-15.913C292.264,-31.651 351.472,-43.841 391.814,-42.535C405.271,-42.099 428.239,-38.907 438.251,-38.907C445.886,-38.907 461.44,-39.568 464.227,-38.326C467.552,-36.846 472.064,-35.714 472.064,-35.714C472.064,-35.714 538.877,-28.706 550.572,-24.831C554.964,-23.375 573.226,-16.555 577.187,-13.533C581.715,-10.079 595.848,-3.934 598.895,-1.612C601.952,0.717 620.518,8.691 620.518,8.691C620.518,8.691 612.862,7.901 609.378,10.803C591.059,7.675 579.014,1.58 572.775,4.851C567.458,7.637 561.823,9.562 558.118,9.562C555.215,9.562 552.274,6.935 542.88,2.306C532.868,-2.628 490.203,-7.997 473.95,-9.738C467.195,-10.463 463.15,-7.414 457.842,0.753C452.34,9.221 450.308,15.05 449.281,17.05L435.929,17.05C435.929,17.05 435.012,-5.92 429.254,-12.888C417.935,-26.584 383.833,-34.224 332.026,-27.404C317.354,-25.472 286.605,-18.761 275.721,-9.619C266.921,-2.227 262.371,11.91 262.371,18.294C262.371,24.68 263.822,36.05 263.822,36.05L251.341,36.05C251.341,36.05 247.278,28.153 247.859,26.651C248.439,25.15 251.621,16.191 249.02,13.536C242.054,6.425 220.287,3.495 208.387,14.233C205.801,16.567 206.384,22.527 208.968,24.886C212.305,27.933 208.968,35.363 208.968,35.363L197.933,36.181C197.933,36.181 198.55,23.033 197.068,17.54C195.472,11.622 188.932,0.943 174.865,-4.355C141.343,-16.98 89.792,-11.554 65.738,-2.911C44.115,4.858 42.519,7.969 39.036,13.774C35.553,19.578 34.973,34.233 34.973,37.571C34.973,40.909 36.569,48.019 36.569,48.019L21.941,50.065C21.941,50.065 17.849,39.746 14.947,36.699C12.384,34.007 0.581,30.604 0,28.863C-0.581,27.121 -0.581,17.253 0,6.224" style="fill-rule:nonzero;"/>
        </g>
        <g transform="matrix(0.499478,0.866327,0.866327,-0.499478,159.044576,408.69008)">
            <path d="M8.115,-4.325C3.221,-3.515 2.209,1.313 2.209,1.313L8.115,15.135L16.542,10.835L8.115,-4.325Z" style="fill:white;fill-rule:nonzero;"/>
        </g>
        <g transform="matrix(1,0,0,1,588.7793,373.0884)">
            <path d="M0,10.125L-2.689,1.161C-2.689,1.161 7.469,1.161 10.371,0.58C13.273,0 16.272,0.29 17.143,1.161C20.131,4.148 18.497,6.578 16.078,8.029C14.321,9.084 0,10.125 0,10.125" style="fill:white;fill-rule:nonzero;"/>
        </g>
    </g>
</svg>
