<?xml version="1.0" encoding="UTF-8" standalone="no"?>
<!DOCTYPE svg PUBLIC "-//W3C//DTD SVG 1.1//EN" "http://www.w3.org/Graphics/SVG/1.1/DTD/svg11.dtd"><svg width="100%" height="100%" viewBox="0 0 661 895" version="1.1" xmlns="http://www.w3.org/2000/svg" xmlns:xlink="http://www.w3.org/1999/xlink" xml:space="preserve" xmlns:serif="http://www.serif.com/" style="fill-rule:evenodd;clip-rule:evenodd;stroke-miterlimit:10;">
  <style>
  #hair-color {
    fill: #0dc1e7;
  }
</style>
  <g id="face">
    <g>
      <path d="M223.609,58.303l82.151,37.861l41.61,-27.766l62.221,4.692l57.309,34.078l47.28,66.573c0,0 -41.835,51.86 -41.835,54.956c0,3.096 1.552,51.084 1.552,51.084l53.379,31.734l26.29,82.258l0,146.06l-135.803,133.894l-221.144,11.609l-123.256,12.384l-41.797,-154.791l0,-72.752l-7.614,-68.882l18.949,-80.491l9.822,-75.074l24.367,-56.498l29.195,-47.212l54.171,-42.567l63.153,-41.15Z" style="fill:#fefefe;fill-rule:nonzero;" />
    </g>
    <g>
      <path d="M581.772,428.094l9.577,-34.248l21.405,-15.871c0,0 7.669,-3.914 14.991,-2.983c7.32,0.932 17.391,6.374 20.102,11.018c2.71,4.644 12.772,26.411 12.965,38.021c0.193,11.609 0,23.702 0,27.959c0,4.256 -2.581,20.921 -3.289,26.604c-0.709,5.683 0.58,33.086 -2.918,61.946c-1.101,9.078 -7.825,44.598 -8.548,48.078c-0.722,3.479 -7.689,14.776 -9.14,16.809c-1.452,2.031 -3.697,9.181 -7.837,8.416c-4.141,-0.766 -13.199,-2.903 -13.199,-2.903l-41.075,-127.122l6.966,-55.724Z" style="fill:#fefefe;fill-rule:nonzero;" />
    </g>
  </g>
  <g id="beard-gray-thin-2" serif:id="beard gray thin 2">
    <g>
      <path d="M548.23,351.102l-27.691,9.585l8.52,39.408l5.325,34.083c0,0 9.8,45.548 7.455,53.253c-2.344,7.706 -25.561,34.083 -25.561,34.083l-34.249,23.736c0,0 -15.81,25.257 -20.07,27.387c-4.26,2.131 -17.661,34.337 -17.661,34.337l-26.314,22.444l-14.605,31.621l13.847,88.401l12.78,51.123l-26.627,47.929c0,0 31.515,-10.558 37.049,-13.202c5.534,-2.644 40.316,-18.21 46.728,-22.057c15.963,-9.578 42.305,-47.038 48.469,-52.049c6.164,-5.011 23.869,-30.109 29.313,-38.214c5.444,-8.104 35.409,-58.627 39.763,-69.656c3.011,-7.631 20.316,-30.048 20.316,-38.987c0,-8.94 -14.512,-48.613 -14.512,-48.613l-9.868,-54.034l-12.964,-46.34c0,0 -0.075,-36.184 0.968,-45.663c1.042,-9.48 6.73,-26.256 24.379,-40.246c7.934,-6.288 9.094,-2.128 -20.993,-12.48c-6.039,-2.078 -43.797,-15.849 -43.797,-15.849" style="fill:#ccc;fill-rule:nonzero;" />
    </g>
    <g>
      <path d="M32.361,438.438l11.023,40.473c0,0 -3.446,49.73 -1.542,56.279c2.623,9.02 3.087,43.206 11.029,62.303c5.2,12.505 19.349,28.055 19.349,28.055c0,0 20.778,21.035 22.831,24.767c4.257,7.739 20.317,32.894 20.317,32.894l17.483,41.734l19.171,68.165l-4.535,34.637c0,0 -34.745,-17.414 -52.653,-44.624c-2.872,-4.365 -12.493,-18.085 -12.493,-18.085c0,0 -21.05,-45.425 -27.535,-60.738c-4.026,-9.505 -20.777,-92.809 -22.445,-101.774c-3.096,-16.641 -3.823,-71.819 -1.548,-83.2c1.213,-6.068 1.548,-46.824 1.548,-59.584l0,-21.302Z" style="fill:#ccc;fill-rule:nonzero;" />
    </g>
    <g>
      <path d="M201.6,638.393c0,0 42.413,-1.596 45.705,-2.31c4.408,-0.955 42.438,-7.971 42.438,-7.971l8.346,-2.364l5.48,-3.611l-13.402,-1.417l-19.845,1.439l-34.955,-1.18l-19.051,4.506c0,0 -27.813,5.982 -32.071,5.855c-4.259,-0.128 -18.89,5.387 -18.89,5.387l36.245,1.666Zm-3.516,-107.699c0,0 12.067,10.716 16.565,12.457c4.499,1.741 17.392,3.647 24.503,1.906c7.111,-1.741 15.623,-5.883 21.768,-8.997c10.594,-5.369 32.292,-4.693 37.44,-2.902c10.428,3.628 35.066,17.122 39.326,19.252c4.261,2.129 39.954,12.19 43.148,12.19c5.805,0 23.514,8.126 30.184,21.09c5.65,10.978 11.416,68.009 11.416,71.204c0,3.195 20.947,66.364 22.638,70.816c13.157,34.635 -2.531,64.696 -4.643,70.237c-1.897,4.976 -11.748,42.096 -15.264,43.073c-3.516,0.977 -26.858,11.162 -35.624,15.36c-4.573,2.191 -56.16,22.76 -62.109,23.993c-0.308,0.064 -0.577,0.143 -0.87,0.258c-3.942,1.543 -35.992,13.765 -62.595,13.658c-12.957,-0.05 -67.016,-8.688 -77.975,-12.949c-10.96,-4.26 -31.346,-33.131 -37.344,-37.343c-4.694,-3.296 -36.268,-31.238 -40.052,-37.73c-11.112,-19.066 -36.208,-47.569 -30.765,-55.531c12.964,-18.962 32.602,-62.107 33.667,-66.366c1.065,-4.261 -1.354,-20.44 -1.354,-36.113c0,-15.672 9.479,-42.602 11.609,-48.461c2.13,-5.857 6.589,-20.408 13.228,-23.964c6.108,-3.27 38.143,-28.747 41.191,-42.529c7.546,10.88 21.912,-2.609 21.912,-2.609" style="fill:#ccc;fill-rule:nonzero;" />
    </g>
    <g>
      <path d="M261.645,345c-2.902,-7.75 -3.483,-16.145 0,-20.944c3.483,-4.8 30.765,-11.185 34.248,-11.765c3.482,-0.581 37.165,-8.127 44.993,-6.966c7.829,1.161 38.594,3.483 44.399,4.063c5.804,0.581 37.149,6.385 38.31,8.127c1.161,1.741 12.19,7.587 12.19,7.587l-20.897,8.085l-102.162,5.605l-44.696,18.775l-6.385,-12.567Z" style="fill:#ccc;fill-rule:nonzero;" />
    </g>
    <g>
      <path d="M196.633,360.469c-7.687,-6.403 -17.563,-22.933 -24.186,-25.153c-8.32,-2.79 -34.441,-3.738 -47.792,-2.516c-13.351,1.222 -35.007,1.984 -41.793,4.257c-9.372,3.138 -16.846,12.156 -18.575,14.151c-2.423,2.797 -11.61,13.324 -11.61,13.324l42.374,-10.448l54.564,-2.876l31.346,6.359l15.672,2.902Z" style="fill:#ccc;fill-rule:nonzero;" />
    </g>
  </g>
  <g id="nose">
    <g>
      <path d="M186.475,520.916c0,0 4.852,4.073 11.609,9.777c6.757,5.705 1.524,5.634 -1.451,4.496c-2.973,-1.138 -7.836,-2.419 -8.707,-5.999c-0.87,-3.578 -1.451,-8.275 -1.451,-8.275" style="fill:#808080;fill-rule:nonzero;" />
    </g>
    <g>
      <path d="M234.462,527.807c1.667,-1.154 -1.066,0 2.034,-2.196c6.967,-4.938 15.599,-9.705 18.764,-10.158c4.064,-0.58 11.61,-2.902 17.995,0c6.385,2.903 8.707,4.451 8.707,4.451c0,0 -2.128,6.191 -12.383,7.159c-8.496,0.802 -9.455,-4.99 -16.06,-5.184c-5.981,-0.175 -19.057,5.928 -19.057,5.928" style="fill:#808080;fill-rule:nonzero;" />
    </g>
    <g>
      <path d="M283.706,531.871c7.231,-1.346 18.264,-3.638 22.424,-7.042c4.161,-3.404 7.261,-8.555 8.706,-13.02" style="fill:none;fill-rule:nonzero;stroke:#ccc;stroke-width:1px;" />
    </g>
    <g>
      <path d="M174.575,500.362c-2.032,4.644 -7.256,12.085 -4.644,20.554c2.612,8.468 4.644,11.081 4.644,11.081" style="fill:none;fill-rule:nonzero;stroke:#e6e6e6;stroke-width:1px;" />
    </g>
  </g>
  <g id="Hair-lighter-copy-2" serif:id="Hair lighter copy 2">
    <g>
      <path d="M228.212,111.849c0.081,-0.007 0.073,-0.006 0,0" style="fill:#f15a24;fill-rule:nonzero;" />
    </g>
    <g id="hair-color">
      <path d="M373.558,37.97l-18.106,-3.195l-9.586,-8.521l-24.497,-3.195l-22.367,-10.651l-19.171,1.065l-12.781,-5.325l-7.455,5.325l-9.586,-5.325l-7.519,-8.148l-1.065,5.418l-2.999,-5.418l0.968,10.158l-4.45,-5.03l-1.683,-3.351l-1.897,1.61l-0.58,6.094l-1.645,-2.418l-1.463,3.213l-1.923,4.139l-2.612,-2.128l-1.935,4.643l-2.322,2.322l-4.16,-6.482l-2.322,7.063l-5.176,4.257l-3.614,-1.147l-6.254,4.484l-6.962,2.332l-13.354,10.439l-11.655,6.774l-5.759,8.027l-14.657,30.91l-7.546,0l-1.937,7.501l-3.287,-1.89l1.684,8.983l-4.973,1.272l0.223,2.949c5.494,2.766 -2.251,18.841 4.931,18.841c1.872,0 16.492,-10.367 16.499,-6.303l4.545,10.192l8.121,-1.623l1.911,-5.094l3.838,3.945l12.864,-2.571c0,0 4.344,-1.254 10.034,-2.843c1.624,-0.453 -0.614,-15.799 1.127,-22.04c0.58,5.66 5.246,19.393 8.417,18.575c1.994,-0.515 4.825,-1.09 7.572,-1.6c0.961,-0.178 3.602,-5.51 3.602,-5.51c0,0 4.212,4.183 4.934,4.111c1.391,-0.139 9.915,-0.887 10.682,-0.955c0,0 -7.006,-29.81 -1.395,-46.256c-4.257,18.575 6.869,46.002 6.869,46.002l3.144,0c0,0 -3.245,-10.084 -3.435,-27.04c1.549,17.22 10.255,27.04 10.255,27.04l1.379,0c0,0 8.123,0.5 9.982,-0.029c1.131,-0.323 0.684,-7.227 0.684,-7.227c0,0 3.655,6.919 6.821,6.639c3.608,-0.319 13.35,-7.219 13.35,-7.219l5.07,3.163c1.82,1.135 3.995,1.546 6.103,1.15c3.051,-0.574 7.224,-1.339 7.801,-1.339c1.002,0 6.006,-0.789 11.077,-2.513c1.408,-0.479 2.895,-0.994 4.419,-1.528c1.634,-0.573 2.68,-5.028 2.68,-5.028c0,0 6.24,1.451 13.18,-0.69c4.154,-1.281 6.888,-2.555 6.888,-2.555l24.497,-17.041l8.515,-0.426c-0.26,-0.12 -0.53,-0.366 -0.53,-0.887c0,0.521 0.27,0.767 0.53,0.887l0.489,-0.024c7.491,-3.885 66.366,-5.338 64.481,-18.863c-0.333,-2.389 -9.94,-8.803 -14.125,-11.75l-43.383,-8.345Z" style="fill-rule:nonzero;" />
    </g>
    <g>
      <path d="M638.368,370.337l0,-8.584l-4.645,-33.209l0,-9.395l-4.936,-31.952l-6.673,-16.7l0,-12.056l-9.287,-8.841l0,-30.567c0,-3.196 -9.932,-19.172 -9.932,-19.172l-11.158,-14.305l-6.772,-17.647l-12.51,-10.651l-6.066,-9.529l-7.508,-4.317l-1.779,-6.132l-5.766,-3.338l-7.584,-9.722l-9.578,-5.224l-11.9,-8.707l0,-7.349l-12.051,-2.13l-7.394,-7.935l-7.832,0.02l-3.216,-1.671l-11.3,-8.508l-8.378,-0.967l-8.166,-7.449l-20.174,-5.986l-12.697,-10.249c0,0 -6.145,-2.14 -11.219,-1.199c-6,-1.518 -15.929,-3.661 -13.429,0.256c-5.667,1.917 -9.237,2.025 -13.018,0.693c0.376,4.063 -2.433,6.368 -5.433,10.368c-0.083,-1.146 -3.403,-2.492 -3.521,-3.25c-0.25,3.687 -2.485,3.883 -2.486,8.071c-3,-2 -2.118,-3.446 -2.118,-5.446c-1.985,5.954 -12.293,3.4 -13.256,9.369l12.298,-0.614l25.561,6.39l12.781,5.325l12.561,10.845l9.806,1.937l12.781,10.65l5.469,8.31l10.506,3.406l4.261,9.586l20.237,27.692l-7.457,23.431l-23.097,21.6c-0.415,0.397 -0.79,0.834 -1.121,1.304l-10.884,15.115c-0.18,0.302 -0.36,0.603 -0.54,0.905c-1.719,3.667 -2.256,7.782 -1.531,11.774l8.417,35.573l8.52,30.888l43.668,23.431l39.408,43.668l53.254,9.586c0,0 22.372,-3.619 30.45,-2.54c8.079,1.079 13.218,7.865 13.218,7.865l-6.784,-12.717Z" style="fill:#e6e6e6;fill-rule:nonzero;" />
    </g>
    <g>
      <path d="M146.378,108.565c-0.459,1.176 -4.687,-3.216 -3.563,0.125c-1.818,-1.409 -9.295,-4.951 -7.187,-1.625c-4.25,-4.25 -5.12,-1.65 -6.493,-2.341l0.744,9.821l-6.966,-2.322l-5.224,9.675l-3.483,-2.322l-0.58,3.677l-10.682,-0.231l-7.52,-0.639l0.014,8.222l-3.515,5.57l-5.386,0.621l-1.354,10.062l-4.063,11.465l-9.288,16.978l0,12.845l-9.431,20.236l-11.465,15.678l0,10.949l-9.288,29.822l0,33.017l-9.288,14.443l0,49.461l14.513,1.699l8.706,-44.195c0,0 4.354,-32.795 4.45,-35.989c0.288,-9.486 0.103,-36.542 2.234,-46.128c2.13,-9.586 25.854,-41.352 25.854,-41.352l24.625,-47.049l37.647,-31.871l0.176,0.395c-0.008,-4.065 -3.506,-10.441 -4.187,-8.697" style="fill:#e6e6e6;fill-rule:nonzero;" />
    </g>
  </g>
  <g id="Ear">
    <g>
      <path d="M620.3,554.925c3.852,-1.557 8.876,-1.548 11.634,2.322c2.757,3.869 7.094,16.398 7.013,24.089c-0.075,7.2 -2.322,16.35 -11.416,5.321c-9.093,-11.029 -10.887,-18.312 -11.609,-24.573c-0.445,-3.87 2.82,-6.529 4.378,-7.159" style="fill-rule:nonzero;" />
    </g>
    <g>
      <path d="M612.754,401.537c3.846,-2.975 9.612,-4.668 13.205,-3.12c3.594,1.548 7.764,6.748 10.086,7.909c2.322,1.161 4.644,1.161 6.579,4.256c1.935,3.097 6.965,10.062 6.965,15.867c0,5.804 -0.387,24.38 -1.548,29.023c-1.161,4.644 -2.321,11.223 -2.709,9.287c-0.387,-1.934 -6.105,-14.243 -8.271,-19.107c-4.426,-9.94 -1.086,-14.552 -9.433,-24.016c-1.851,-2.099 -10.617,-9.493 -11.747,-12.601c-1.125,-3.094 -3.127,-7.498 -3.127,-7.498" style="fill:#999;fill-rule:nonzero;" />
    </g>
    <g>
      <path d="M595.8,448.12c0,0 -3.097,5.418 -2.709,8.514c0.387,3.095 0.387,6.588 4.257,9.678c3.869,3.091 3.482,14.314 5.805,18.184c2.321,3.87 -1.936,10.448 -1.548,11.996c0.386,1.548 2.244,17.801 2.244,17.801c0,0 5.519,-2.177 7.454,-4.498c1.934,-2.322 7.862,1.683 8.923,-0.522c3.726,-7.751 9.528,-7.108 6.822,-12.539c-10.037,-20.147 -13.472,-24.67 -18.478,-28.733c-4.469,-3.627 -8.514,-8.272 -9.723,-11.416c-1.033,-2.686 0.049,-5.756 -3.047,-8.465" style="fill:#b3b3b3;fill-rule:nonzero;" />
    </g>
    <g>
      <path d="M645.284,459.293c0.29,5.998 -0.821,11.755 0.049,17.269c0.871,5.514 3.192,13.641 2.322,19.155c-0.871,5.514 -1.741,14.222 -4.934,15.963" style="fill:none;fill-rule:nonzero;stroke:#999;stroke-width:1px;" />
    </g>
    <g>
      <path d="M607.965,407.639c0,0 2.7,-3.411 5.022,-3.704c2.322,-0.294 4.079,-1.527 4.079,-1.527l0,-2.177c0,0 -1.321,0.718 -4.514,2.54c-1.696,0.967 -4.369,4.432 -4.369,4.432" style="fill:none;fill-rule:nonzero;stroke:#999;stroke-width:1px;stroke-linecap:round;" />
    </g>
    <g>
      <path d="M622.114,612.584c1.742,1.161 8.32,3.483 13.352,-1.354c5.03,-4.837 9.576,-12.383 9.818,-16.059c0.243,-3.677 0.018,-7.042 1.573,-12.602c1.766,-6.312 5.224,-26.701 8.344,-45.638c0.072,3.482 -7.909,33.521 -12.286,57.756c-0.74,4.098 -9.408,16.398 -13.327,16.688c-2.717,0.201 -6.313,-1.112 -7.086,-1.306c-0.775,-0.193 -0.388,2.515 -0.388,2.515" style="fill:#ccc;fill-rule:nonzero;" />
    </g>
  </g>
  <g id="Glasses-bottom" serif:id="Glasses bottom">
    <g>
      <path d="M35.263,413.679c0,0 6.966,25.153 9.288,30.958c2.321,5.805 11.028,33.086 54.757,35.602c43.728,2.516 74.686,-14.898 81.458,-23.412c6.773,-8.514 17.941,-41.895 17.658,-55.166c-0.283,-13.27 9.431,-6.751 9.431,-6.751c0,0 1.42,3.686 1.693,13.593c0.069,2.514 -7.449,15.528 -8.417,19.01c-0.967,3.483 -5.466,20.171 -6.82,23.074c-1.355,2.902 -3.651,11.03 -14.657,19.01c-11.609,8.416 -78.363,30.474 -116.674,9.288c-34.476,-19.067 -41.454,-64.625 -40.874,-65.787c0.58,-1.161 13.157,0.581 13.157,0.581" style="fill:#ccc;fill-rule:nonzero;" />
    </g>
    <g>
      <path d="M261.838,395.491c2.007,3.883 3.483,11.029 5.998,16.06c2.516,5.03 15.409,32.518 37.731,43.728c22.602,11.351 104.822,6.917 119.174,-21.011c13.11,-25.507 11.378,-47.663 11.767,-51.221c0.388,-3.558 7.403,-3.809 7.403,-3.809c0,0 6.815,-3.623 6.384,1.403c-0.415,4.837 -0.136,29.805 -17.413,58.482c-14.076,23.363 -98.968,35.835 -135.249,20.316c-25.105,-10.739 -45.868,-51.081 -45.288,-60.368c0.581,-9.288 9.493,-3.58 9.493,-3.58" style="fill:#ccc;fill-rule:nonzero;" />
    </g>
  </g>
  <g id="Glasses">
    <g>
      <path d="M0.436,373.239c0.289,-5.499 8.852,-6.53 12.915,-7.691c4.064,-1.161 63.271,-16.108 108.257,-18.285c11.725,-0.567 51.226,3.628 63.561,6.821c8.428,2.181 19.807,2.865 20.606,2.757c18.573,-2.515 38.283,-3.4 38.283,-3.4c0,0 7.632,-0.287 12.363,-2.339c36.279,-15.738 95.487,-27.928 135.829,-26.622c13.457,0.436 36.425,3.628 46.437,3.628c7.635,0 23.189,-0.661 25.976,0.581c3.325,1.48 7.837,2.612 7.837,2.612c0,0 66.813,7.008 78.508,10.883c4.392,1.456 22.654,8.276 26.615,11.298c4.528,3.454 18.661,9.599 21.708,11.921c3.057,2.329 21.623,10.303 21.623,10.303c0,0 -7.656,-0.79 -11.14,2.112c-18.319,-3.128 -30.364,-9.223 -36.603,-5.952c-5.317,2.786 -10.952,4.711 -14.657,4.711c-2.903,0 -5.844,-2.627 -15.238,-7.256c-10.012,-4.934 -52.677,-10.303 -68.93,-12.044c-6.755,-0.725 -10.8,2.324 -16.108,10.491c-5.502,8.468 -7.534,14.297 -8.561,16.297l-13.352,0c0,0 -0.917,-22.97 -6.675,-29.938c-11.319,-13.696 -45.421,-21.336 -97.228,-14.516c-14.672,1.932 -45.421,8.643 -56.305,17.785c-8.8,7.392 -13.35,21.529 -13.35,27.913c0,6.386 1.451,17.756 1.451,17.756l-12.481,0c0,0 -4.063,-7.897 -3.482,-9.399c0.58,-1.501 3.762,-10.46 1.161,-13.115c-6.966,-7.111 -28.733,-10.041 -40.633,0.697c-2.586,2.334 -2.003,8.294 0.581,10.653c3.337,3.047 0,10.477 0,10.477l-11.035,0.818c0,0 0.617,-13.148 -0.865,-18.641c-1.596,-5.918 -8.136,-16.597 -22.203,-21.895c-33.522,-12.625 -85.073,-7.199 -109.127,1.444c-21.623,7.769 -23.219,10.88 -26.702,16.685c-3.483,5.804 -4.063,20.459 -4.063,23.797c0,3.338 1.596,10.448 1.596,10.448l-14.628,2.046c0,0 -4.092,-10.319 -6.994,-13.366c-2.563,-2.692 -14.366,-6.095 -14.947,-7.836c-0.581,-1.742 -0.581,-11.61 0,-22.639" style="fill-rule:nonzero;" />
    </g>
    <g>
      <path d="M9.917,384.946c-1.743,-4.644 1.934,-7.933 1.934,-7.933l14.924,-1.787l0.484,9.448l-17.343,0.272l0.001,0Z" style="fill:#fff;fill-rule:nonzero;" />
    </g>
    <g>
      <path d="M439.345,350.278l-2.689,-8.964c0,0 10.158,0 13.06,-0.581c2.902,-0.58 5.901,-0.29 6.772,0.581c2.988,2.987 1.354,5.417 -1.065,6.868c-1.757,1.055 -16.078,2.096 -16.078,2.096" style="fill:#fff;fill-rule:nonzero;" />
    </g>
  </g>
</svg>
